<svg xmlns="http://www.w3.org/2000/svg" viewBox="0 0 2867.72 2674.87"><defs><style>.cls-1{fill:#e9eef7;}.cls-1,.cls-10,.cls-11,.cls-12,.cls-13,.cls-14,.cls-15,.cls-2,.cls-3,.cls-4,.cls-5,.cls-6,.cls-7,.cls-8,.cls-9{fill-rule:evenodd;}.cls-2{fill:#cfdaee;}.cls-3{fill:#fff;}.cls-4{fill:#22407a;}.cls-5{fill:#fca368;}.cls-6{fill:#4a75cb;}.cls-7{fill:#ffb27d;}.cls-8{fill:#163560;}.cls-9{fill:#699dee;}.cls-10{fill:#ed6c50;}.cls-11{fill:#becce7;}.cls-12{fill:#f99746;}.cls-13{fill:#f1845c;}.cls-14{fill:#8ca3ca;}.cls-15{fill:#aabcdd;}</style></defs><g id="Layer_2" data-name="Layer 2"><g id="Background"><path class="cls-1" d="M469.41,572.41c174.08-268.95,577.93,76.16,832.77-22.17C1639.51,420.05,1841.05-85,2134.44,132.78,2649.49,515,2819,1390.84,2414.51,2015.9s-1267.7,597.5-1782.76,215.25S64.83,1197.47,469.41,572.41Z"/><path class="cls-2" d="M1859,548.09l873.77-25c83.47-2.38,143.18,84.43,134,167.39L2684.37,2336.29c-9.19,82.9-84.89,146.24-167.4,133.93L1660.1,2342.8c-82.51-12.3-143.18-84.43-134-167.39L1691.69,682.08c9.18-83,84.43-143.18,167.33-134Z"/><path class="cls-3" d="M1855.51,580.24l872.86-16.9c61.13-1.19,105,62,98.21,122.71L2644.16,2331.8c-6.75,60.79-62.26,107.23-122.71,98.27L1664.58,2302.6c-60.45-9-105-62-98.27-122.71L1732.74,678.51c6.75-60.79,61.58-97.08,122.77-98.27Z"/><path class="cls-1" d="M1849.55,633.6l873.77-25c36.06-1,61.92,36.57,58,72.35L2598.85,2326.81c-4,35.79-36.74,63.23-72.41,58l-856.87-127.48c-35.61-5.33-61.92-36.57-58-72.41L1777.21,691.55c4-35.84,36.34-56.93,72.34-57.95Z"/><path class="cls-2" d="M391.83,668.76c87.4,0,158.27,51.94,158.27,116.07,0,34.59-20.59,65.61-53.3,86.87q24.32,23.13,64.87,37.88-74.77,8.25-123.73-13.66a209.65,209.65,0,0,1-46.11,5c-87.44,0-158.32-52-158.32-116.13s70.88-116.07,158.32-116.07Z"/><path class="cls-3" d="M391.21,755.8c-8-16-16-24-31.93-24a32,32,0,0,0-31.92,31.93c0,32,31.92,55.85,63.85,87.78,31.92-31.93,63.87-55.8,63.87-87.78a32,32,0,0,0-31.95-31.93c-15.93,0-23.92,8-31.92,24Z"/><path class="cls-2" d="M1223.36,2521C580.21,2521,58.88,2555.45,58.88,2598s521.33,76.89,1164.48,76.89,1164.5-34.42,1164.5-76.89S1866.51,2521,1223.36,2521Z"/><path class="cls-2" d="M1119,655.49c-85.45,0-154.73,54.89-154.73,122.54,0,40,24.14,75.42,61.45,97.81l-15.53,67.31,80.18-44.68a189.24,189.24,0,0,0,28.63,2.1c85.47,0,154.69-54.84,154.69-122.54S1204.43,655.49,1119,655.49Z"/><path class="cls-3" d="M1139.15,847.44c19.22-6,15.94,3.57,15.94-40.15,0-6,1.07-33.46-1.08-36.58-2.82-4.08-5.5-1.13-11.23-7.31-4.76-5-9-10.66-13.49-15.94l-2.26-3.17c-3.25-3.8-5.06-5.28-8.35-9.59-3.8-9.41-4.37-21.6-9.81-28.63-2-2.67-4.14-3.06-8.73-2.61-9.93,1.08-17.3,7.32-19.11,17.35-1.7,9.58,2.45,20.7,6.63,29,.63,1.81,1.53,2.72,1.65,5.1-10.66.4-21.72-.11-32.21.4-.91.79,1,0-1.31.85-.79.28-.45.11-1.4.23-7.44,2.83-14.14,12-11.47,23.19a19.11,19.11,0,0,0,2.61,6.52c2,3.17,2.78,1.64,1.47,6.35a19.64,19.64,0,0,0,2.78,16.44c.74,1,1.31,2.1.63,2.9-1.71,17.35,5.55,16.89,5.72,22.05.29,6.81.64,8.23,1.25,9.47,5.39,10.89,12.2,14.52,27.11,14.63,23.19.23,32.54-3.68,54.66-10.48Zm26.54-5.28h23.93a6,6,0,0,0,6-5.95V777.29a6,6,0,0,0-6-5.95h-23.93a6,6,0,0,0-6,5.95v58.92a6,6,0,0,0,6,5.95Z"/><path class="cls-4" d="M1326,1278.28c6.3-28.47,12.42-57-4.08-88.4-13.37-25.29-36.5-39.87-63.22-43-75.82-9-82.51,58.69-154.47,88.4-30.79,12.64-62.32,9-89.77,25.4-49.67,29.49-76,112.39-43.09,189.62,80.58,189.23,270.6,65.39,295,28.19,18.14-27.73,55.57-181.8,59.59-200.17Z"/><path class="cls-5" d="M1279.66,1421l-7.76-40.43a67.57,67.57,0,0,1,37.48,28.12c14.57,22.68,39,99.12,43.1,101.39s50.31-68.67,58.34-79.95c10-13.78,13.67-29.72,19.91-41.8s28.24-16.21,36.57-14.57c8.28,1.47-11.45,36.75-11.45,36.75s-50,86.7-66.57,134.33c-16.68,47.46-68.66,70.14-77,63.45-8.33-6.86-32.61-187.29-32.61-187.29Z"/><path class="cls-6" d="M1288.68,1542.58l63.63-36.23s-28.87-121.92-80.41-125.77Z"/><path class="cls-5" d="M1431.3,1395s2.09-9.25,7.65-11.06,15.43-.23,16,0,11.46-5.56,11.46-5.56l-8.91,16.62s-17.46,20.52-23.3,12.87-2.89-12.87-2.89-12.87Z"/><path class="cls-5" d="M1469.51,1379.1s6.3,32.1,4.73,38.84-5.63,3.07-6.37,1.7c-3.12-6-5.27-26.65-5.27-26.65Z"/><path class="cls-5" d="M1456,1405.75s3,20,6.07,22.23c2,1.59,4.59.68,5.39-3.35s-4-28.57-4-28.57Z"/><path class="cls-4" d="M1437.59,1462.23l-10.43-5.1,44.4-91.13a11.65,11.65,0,0,1,5.33,15.59Z"/><path class="cls-7" d="M1022.92,2473.17s-5.4,54.78-19.3,64.81-32.37,47.3-23.06,67.42c2.82,6.3,8.6,9.93,15.18,12,19.51,6.07,40.26-4.08,48.54-22.74a113.76,113.76,0,0,0,9.53-41.85c2.1-44.4,15.94-67.08,15.94-67.08Z"/><path class="cls-7" d="M1236.12,2495.62s4.36,55.24.79,73.27c-1.87,9.52-12.47,29.37-7.6,38.5,4.82,9,10.38,11.23,10.38,11.23l125.83,2.1c6.86.11,2.38-4.37-3.18-8.34-9-6.75-16.33-11.06-45.25-25.06-1.87-.91-8.73-5.22-11.23-6.75-6.29-3.86-12.58-9.87-18-15.82-9.08-10.15-9.81-58.75-9.81-58.75Z"/><path class="cls-8" d="M1334.5,1760.67s15.82,89.76,5.38,148.57-60.33,604.36-60.33,604.36l-55.51,3.23s-11.63-227.95-9.53-259.59,18.55-84.78,18.55-84.78l-5.51-184,70-241.73Z"/><path class="cls-4" d="M1171.36,1741.79s-43.72,65.61-54.1,119.93,7.6,221.32-12.42,292.54c-10.83,38.5-51.88,98-58.12,147.83S1016,2482.3,1016,2482.3l55.46,10.94,128.94-325.65L1301.5,1873l25.91-151.63Z"/><path class="cls-9" d="M1206.74,1368.27s-30,4.88-52.28,26.77c-47.86,46.83,28.13,227.49,32.27,259.25s-34.08,105.59-34.08,105.59,142.95,26.42,181.85.79c0,0,4.54-254.32.34-277s-50.69-92.48-59-101.5-69.07-13.89-69.07-13.89Z"/><path class="cls-7" d="M1152.59,1416.36a20.13,20.13,0,0,1,27.1-12c14.81,6.47,35.22,18.54,45.2,39.3,16.61,34.76,74.91,154,92.94,158.55s91.59-123.79,91.59-123.79-2.11-22.68,4.13-35.56,25-26.31,27.72-21.88c2.78,4.59-10.37,15.93-10.37,18.26,0,2.15,5.56,3.62,13.15-.8,7.66-4.59,11.8-13.72,11.8-13.72s12.48,22.68-.68,43.09-18.71,28.7-18.71,28.7-85.35,189.45-116.59,191.6c-29,2.16-196.48-183.49-167.28-271.78Z"/><path class="cls-7" d="M1226,1291s-.29,1.7-.8,4.65c-2.61,14-12.53,59.93-19.22,72.58-8.11,15.25,27.73,64.13,62.26,58.24,10.32-1.88-8.67-44.92-7.77-49.45,1.76-8.79,4.14-20.64,6.52-32.94,1.37-6.81,2.8-13.79,4.08-20.36,3.69-18.72,6.7-34,6.7-34Z"/><path class="cls-10" d="M1225.17,1295.69c.51-3,.8-4.65.8-4.65l51.77-1.25s-3,15.25-6.7,34c-1.28,6.46-2.71,13.44-4,20.24-8-1.13-16.39-5-24.72-12.31a64.3,64.3,0,0,1-18.71-27.78c.62-3.29,1.13-6,1.53-8.22Z"/><path class="cls-7" d="M1257.1,1168.16s-21.1,2.83-36.34,22.62-31.82,80.81,6.17,113.92,75.49-4.3,81.09-44.17,4.42-93.85-50.92-92.37Z"/><path class="cls-7" d="M1320.15,1246.87c-4.53,8.84-12.13,13.66-17,10.94s-5.1-12.19-.56-21,12.13-13.67,17-10.95,5.1,12.2.56,21Z"/><path class="cls-4" d="M1263.56,1167.25s-32.59,58-55.91,60.67-26.37,33.52-26.37,33.52,8.34-71.11,31.42-84.78,50.86-9.41,50.86-9.41Z"/><path class="cls-7" d="M1215.25,1241.71c1.94,10.37-1.87,19.84-8.51,21.09s-13.44-5.79-15.36-16.16,1.92-19.74,8.5-21.1,13.5,6,15.37,16.17Z"/><path class="cls-8" d="M1048.08,2584.82c-30.22,5.56-50.35-12.08-60.84-25.29-7.66,14.91-12.36,33.57-6.68,45.87,4.93,10.84,18.47,13.79,29.93,14.24a32.49,32.49,0,0,0,29.48-16.39,102.44,102.44,0,0,0,8.11-18.43Z"/><path class="cls-8" d="M1305.86,2580.57c-33.28,8.56-57.88,2.78-71.67-2.84-3.52,10-8.22,22.68-5.73,29.89,3.06,9,7.44,10.89,11.23,11,30.39.79,111.37,2,134.56,2.21a3.75,3.75,0,0,0,3-6.18c-5.78-6.81-68.84-32.55-71.34-34.08Z"/><path class="cls-6" d="M1199.32,1582.79l75-49.22s-31.25-88.18-65.59-119.37-50.6-23.7-57.75-17.24c-19.9,18-16.38,61.64,6.24,115.51s42.14,70.32,42.14,70.32Z"/><path class="cls-2" d="M2426.13,328.81l-22.45-28.69,10.94-34.71a5.05,5.05,0,0,0-6.52-6.24l-34.2,12.48-29.71-21.09a5,5,0,0,0-7.88,4.25l1.25,36.4-29.25,21.72a5,5,0,0,0,1.63,8.85l35,10,11.62,34.59a5,5,0,0,0,8.9,1.19l20.36-30.23,36.47-.39a5,5,0,0,0,3.85-8.11Z"/><path class="cls-2" d="M1719.93,143.38l-22.46-28.69,10.94-34.76a5,5,0,0,0-6.52-6.18L1667.7,86.23,1638,65.13a5,5,0,0,0-7.88,4.25l1.25,36.41-29.26,21.71a5,5,0,0,0,1.64,8.85l35,10,11.57,34.54a5,5,0,0,0,8.9,1.19l20.36-30.17,36.46-.4a5,5,0,0,0,3.86-8.11Z"/><path class="cls-2" d="M1813.89,1290.53l-22.46-28.7,10.94-34.76a5,5,0,0,0-6.52-6.18l-34.19,12.48-29.71-21.1a5,5,0,0,0-7.89,4.2l1.25,36.46-29.26,21.72a5,5,0,0,0,1.65,8.85l35,10,11.57,34.53a5,5,0,0,0,8.9,1.19l20.36-30.22,36.46-.34a5,5,0,0,0,3.86-8.11Z"/><path class="cls-11" d="M2069.51,127.56l-22.45-28.69L2058,64.11a5,5,0,0,0-6.52-6.18L2017.29,70.4l-29.72-21.09a5,5,0,0,0-7.88,4.25L1980.94,90l-29.26,21.72a5,5,0,0,0,1.64,8.84l35,10L1999.93,165a5,5,0,0,0,8.91,1.19l20.35-30.16,36.46-.4a5,5,0,0,0,3.86-8.11Z"/><path class="cls-2" d="M842.19,401.45l-22.46-28.7,11-34.76a5.1,5.1,0,0,0-6.59-6.23l-34.2,12.53-29.65-21.15a5,5,0,0,0-7.94,4.25l1.3,36.46-29.26,21.67a5,5,0,0,0,1.65,8.84l35,10,11.63,34.59a5,5,0,0,0,8.9,1.19l20.36-30.22,36.4-.34a5,5,0,0,0,3.92-8.11Z"/><path class="cls-11" d="M725,158.92l-22.46-28.69,10.94-34.76A5.06,5.06,0,0,0,707,89.23L672.7,101.76,643.05,80.67a5,5,0,0,0-7.95,4.19l1.32,36.47L607.14,143a5,5,0,0,0,1.65,8.85l35,10L655.4,196.4a5,5,0,0,0,8.92,1.19l20.34-30.22,36.4-.34a5,5,0,0,0,3.92-8.11Z"/><path class="cls-11" d="M2728.43,913.61,2706,884.91l10.94-34.75a5.06,5.06,0,0,0-6.52-6.24l-34.19,12.53-29.71-21.1a5,5,0,0,0-7.89,4.2l1.25,36.46-29.26,21.66a5,5,0,0,0,1.65,8.85l35,10,11.63,34.53a5,5,0,0,0,8.9,1.19l20.36-30.22,36.46-.34a5,5,0,0,0,3.86-8.11Z"/><path class="cls-11" d="M1388.48,968,1366,939.3,1377,904.54a5,5,0,0,0-6.52-6.24l-34.18,12.53-29.73-21.09a5,5,0,0,0-7.88,4.19l1.31,36.46-29.32,21.72a5,5,0,0,0,1.64,8.79l35,10,11.57,34.53a5,5,0,0,0,8.9,1.19l20.35-30.22,36.47-.34a5,5,0,0,0,3.85-8.11Z"/><path class="cls-7" d="M757.07,939.92c11.8,25.57,15.48,22.51,16.9,25.91,1.65,3.8-7.32,60.34-7.32,60.34s-25.4,166.6-27,175.56l-92.54,145.79,57.27,68.1s96.53-161.33,100.15-170.68S817,1006.09,818.43,986c0,0,10.26-23.42,16.21-38.39s5.28-31.75,6.3-36.29c.23-.57,2.89-15.71,1.36-35.27-1.25-16.79-7.49-.23-7.49-.23s-3.06,31.59-5.44,30.91c-1.81-.57.8-17.75-.4-36.35-.34-4.82-.68-9.47-1-13.84-.85-11.28-7.94-14.12-8.85-2a118.48,118.48,0,0,0-.28,16.39c.51,5.5-.85,10.66-1.14,15.42-.56,9.3-.85,16.05-1.24,15.82s-1.82,1.47-2.33-3.68c-.56-6,1-19.28-.56-28.19-.91-5-2.1-15.65-2.1-15.65s-4.71-15.76-5.73-15.82c-5.33-.11-5,11.62-3,18.26-.81,4.88.78,16.11.78,16.11s-1.76,23.3-5,23.13c-1.36-.11-1.93-14.51-4.65-28.58-2.55-13.1-7.2-25.91-9.75-25.74-4.43.11-3.07,15-3.07,15s1.48,10.32,1.65,13.78c.34,4.14.22,16.32.22,16.32s-2.21,42.48-5.27,42-10.32-4.81-11.06-7.54.42-8.39-.34-10.94c-.73-2.72-4-5.56-7.25-4.93s-4.43,15.14-4.43,15.14-.9,11.74,2.44,19Z"/><path class="cls-7" d="M581.47,2487.91l-3.25,57.22c-1.19,7.26-5.84,25.12-5.84,31.75,0,24.78,110.12-21,85.46-32-2.27-1-17.41-14.12-18.15-22.57-1.07-13-.57-33.57-.57-33.57Z"/><path class="cls-8" d="M657.55,2544.62s-25.85,7.6-39.07,9.47-30.73-14-40.07-9.7c-10.34,4.76-11.07,59.31-11.07,59.31s135.64,10.32,170.34.4c15.61-4.53-27.22-41.79-80.13-59.48Z"/><path class="cls-7" d="M793.87,2487.91l-3.23,57.22c-1.19,7.26-5.9,25.12-5.9,31.75,0,24.78,110.18-21,85.52-32-2.22-1-17.41-14.12-18.15-22.57-1.14-13-.57-33.57-.57-33.57Z"/><path class="cls-8" d="M870,2544.62s-25.88,7.6-39.14,9.47-30.68-14-40-9.7c-10.38,4.76-11,59.31-11,59.31s135.51,10.32,170.21.4c15.65-4.53-27.16-41.79-80-59.48Z"/><path class="cls-7" d="M361,1267l149.93,85.56-18.72,87s-160.81-97.48-168.36-104.11c-25.4-21.72-96.34-165-125-213.22,0,0-12.87-10.6-24.16-20.3a165,165,0,0,1-16.44-1.93c-8-1.3-17.17-8.62-17.17-8.62s-11.24-9.07-10-12.19c1.36-3.11,5.5-4.14,8.11-3.28s6.75,5,9.36,5.89c1.24.46,3.63-.11,6.06-1.07-4.65-6.81-7.71-12.93-9.41-14.92-.45-.51-15.14-20.87-22.57-38.95-6.41-15.54,6.64-3.64,6.64-3.64s16.61,25.92,22.4,32l1.54-.68c-1.83-4.54-9.71-16.56-15.72-30.68-1.87-4.48-3.69-8.79-5.33-12.87-4.3-10.55.73-16.16,7-5.79a116.77,116.77,0,0,1,7.6,14.52c2.1,5.22,5.56,9.19,7.94,13.33,4.7,8.05,8,13.89,8.28,13.49s2.27.57.45-4.25c-2.27-5.73-9.51-16.79-12.19-25.41-1.47-4.93-2.38-5.78-2.38-5.78s-2.83-16.22-2-16.73c4.71-2.55,9.76,8.06,10.89,15a44.88,44.88,0,0,1,3.74,5.56s12.08,20,14.8,18.43c1.2-.68.17-3.23-3.74-16.9-3.57-12.81-5.16-26.37-2.83-27.44,4-1.7,9.54,12,9.54,12s3.27,9.87,4.63,13.1c1.59,3.8,2.22,3.85,2.22,3.85,19.05,33.4,18.88,18.6,36.4,42l7.71,26.15c4.82,9.69,32.95,48.76,32.95,48.76,31,43.67,64.64,90.56,97.93,132.13Z"/><path class="cls-8" d="M613.38,1761.24s166.88,397.16,173.08,432.83c4.46,26.25-1.32,323.22-1.32,323.22l78.93-1.19,27.69-339.44L787.92,1748.59Z"/><path class="cls-4" d="M540,1779.89l76,441L566.37,2516.1h89.88l70.6-317.38,9.7-347.78-36.41-111.87Z"/><path class="cls-12" d="M712.84,1234.28s65.16,57.15,79,71c0,0-70.82,100.82-67.53,119.53s78.14,367.73,78.14,367.73-154.13,80.3-250,67.43c0,0-72.19-397.73-90.84-416.39s-76.67-48.2-76.67-48.2,43.33-83.19,43.33-98c0,0,102.92,47.92,120.27,65.21s51-4.54,59.14-8.11c0,0,92.77-112.61,105.13-120.21Z"/><path class="cls-7" d="M562.18,1281.68l-13,81.66s34.25,57,61.58,48.54c23-7.09,21-52.23,21-52.23s-12.53-46.44-8.73-69.86-60.84-8.11-60.84-8.11Z"/><path class="cls-10" d="M623,1289.79c3.74-23.3-60.84-8.11-60.84-8.11l-1,6.86a39.86,39.86,0,0,0,7,11.57c14.46,15.31,37,24.61,56.48,25.35-1.93-12.65-3.18-26.09-1.59-35.67Z"/><path class="cls-7" d="M551.57,1165.27c-1.81-.63-14.63,93.73,9.7,119.76s71.62,34.42,88.57,14c18.83-22.57,17.87-124-19.9-150.78s-78.37,17.07-78.37,17.07Z"/><path class="cls-4" d="M553.73,1113.27c-13.21,1.59-36.35,20-55,50.64-22.85,37.65,5.86,83.86,32.5,104.33,26.7,20.3,26.09,44.12,26.09,44.12l4.41-12.25a68.41,68.41,0,0,0,3.35-28.81,56.12,56.12,0,0,0-4.31-17.41c-6.41-13.6,13.78-22.68,19.39-34.07,4.37-8.74,4.59-28.81,11.46-43.27l8.16-11.06s23.14,2.1,37.43-10.43c40.88-35.9-21.61-83.36-83.47-41.79Z"/><path class="cls-7" d="M578.91,1236.6c.22,11.51-5,21-11.74,21.1s-12.31-9.08-12.48-20.65,5-20.92,11.8-21,12.25,9.07,12.42,20.58Z"/><path class="cls-13" d="M1930.53,1524.55c-15.09,13.21-31.59,18.6-50.81,14.57,18,13.67,43.1,3.18,50.81-14.57Z"/><path class="cls-2" d="M1979.24,891.21l-84.61-89.14s-90.44,49.79-196,97.31c-29-50.47-76.32-216.56-78.88-224.44s55.4-107.69,42.47-110.18-29.82,53.25-43.54,47.57-49-135-57.22-128c-15.48,13.21,18.56,80.52,10.43,85.4s-28.79-74.57-44.51-71.22,26.48,72.35,21.89,79-48.82-58.07-58-43c-4.93,8.11,40.77,56.31,31.36,61.69s-50.58-24.95-55.46-15.14,38.45,20.08,50.47,45c12,24.78,33.91,34.53,41.22,81.6s27.11,298.43,78.31,318.62c44.8,17.64,342-135.07,342-135.07Z"/><path class="cls-14" d="M1924.58,1372.41l68.55,38.28,139.38,213.09-249.22,586.67s13.33,41.85,24.61,82.28L1734.85,2267c-2.38-14.52-4.38-27.5-5.74-38.62-20.75-166.09,105.7-561.66,105.7-561.66,23.59-80.69,74.4-246.73,74.4-246.73s12.41-40.48,15.37-47.57Z"/><path class="cls-15" d="M2163.25,1292.4s-7.09,50.07,21.26,107.28c17.31,34.82,47.18,62.21,68.56,104.85,40.48,80.86,62.43,195.64,47.29,269.41,0,0-83.64,319.53-80.34,436.29.89,32.66,9.62,85.23,17.9,131.61l-174.19-25.91-16.79-104.23-38.44-501.5-83.92-337.79Z"/><path class="cls-14" d="M1911.81,556.14c10.51-49.56,21.33-99.29,70.6-135,39.87-28.92,82.68-37.14,128.1-20.69,128.72,46.67,59.48,148.85,219.28,257.66,49.56,33.86,68.44,45.65,104.05,90.73,49.86,63.12,77.08,147.72,52,217.47-51.81,144.09-212.36,185.76-296.34,155.14-156.4-56.82-286.65-255.11-295.32-309.27-9.24-57.89,10.83-224,17.63-256Z"/><path class="cls-11" d="M1886.81,947.29c-37.82,17.52-106.38,43.78-106.38,43.78l-38.94-123.34C1961.88,742.36,1944.53,762.6,2110,765c132.11,1.93,187.5-23.31,301.31,283.87,0,0-86.63,38.9-117.66,51.43-13.33-38-37.42-113.75-51.49-70.54a1253.24,1253.24,0,0,0-47.24,198.86c-6.63,40.15-21,91.58-13.43,132.52,0,0-90,18.55-158.72,21.55h-.62c-33.18-.85-67.2-3.8-97.53-10.32,0,0-13.45-284.89-20.65-296.85-8-13.1-41.68-55.69-13-119.31,5.1-11.23,3.74-12.53-4.08-9Z"/><path class="cls-2" d="M2052.27,1441.93c-1.58.17-8.56-.74-14.34-.62a113,113,0,0,0-14.86,1.36,40.55,40.55,0,0,0-9.07-5.44c-2.55-1.14-6.53-1.59-9.3-2.84s-5.28-3.8-7.94-4.93c-7-3.07-13.5-3.81-15.6-.12-1.81,3,37.26,26.88,37.26,26.88,36.18.23,74,18.71,157.87-36,47.8-20.93,280.19-135.75,284.88-160.7,2.67-14.12-33.06-122.77-62.19-205.28-22.47,10.1-70.27,31.3-97,42.53,24.56,52,53.48,120.9,50.42,129.29-.74,2.21-3.69,6.18-160.76,109.05-4,2.55-8,5.21-12.13,7.93q-16.61,10.89-35.51,23.08l-44.74-4.65s-71,4.88-73.15,13c-.89,3.69,5,5.56,12.25,6.63h.23c1,.11,2.09.28,3.17.34h.12c7.82,1,16,1.14,18,1.81a49.28,49.28,0,0,1,10.73,5.22c-44.3,18.09-40.9,11.63-55.53,10.72-3.68-.28-7.6.79-11.11.57-5.9-.57-10.66-4.08-15.26-4.37-6.74-.39-12.24,2.78-13.38,4-1.59,1.53,1.31,3.86,7,6.41,34.19,14.8,62.49,9.12,71.56,11.33,6.07,1.48-5,3.75-22.46,1.93-4.25-.45-10,1.14-15.71-.22-3.85-.91-7.31-3.35-11-4.25-3.46-.86-7-.8-10-1.37-3.8-.67-9.13-3.63-12.14-4-11.34-1.31-16.84.73-18.14,1.75-2.61,2.33,48.88,22.12,48.88,22.12s35.57,5.1,43.49,5.1c0,0,4.76,2.16-4.54,3.57Z"/><path class="cls-2" d="M2093.67,643.47s10.09,81.42,16,109.61c6.2,29.54,15.54,122.65-45.75,137.79s-42.31-101.28-43.38-131.33S2002.2,624.7,2002.2,624.7Z"/><path class="cls-11" d="M2097,669.44c-.62.39-1.24.73-1.87,1.13-33.85,19.39-63.34,16.39-85.45,1.25-4-26-7.49-47.12-7.49-47.12l91.47,18.77s1.36,10.88,3.34,26Z"/><path class="cls-2" d="M2075.24,431.56s36,10.09,56.65,45.82,31,138.07-45.25,181.79-130.31-26.37-128-91.86,20.52-152.14,116.58-135.75Z"/><path class="cls-2" d="M1941.76,539.19c-.8,17,6.46,31.24,16.33,31.75s18.48-12.87,19.34-29.94-6.42-31.25-16.28-31.76-18.54,12.93-19.39,30Z"/><path class="cls-14" d="M2064.46,428.89s41.12,107.17,81.32,118.58,37,64.07,37,64.07,5.22-121.8-31.58-151.69-86.71-31-86.71-31Z"/><path class="cls-2" d="M2128.48,568.44c-6.17,16.73-2.09,33.74,9.13,38s25.35-6,31.55-22.74,2.19-33.74-9.09-38-25.29,5.95-31.59,22.73Z"/><path class="cls-15" d="M1207.82,1.68c44.8,17.12,27.33,160-39,319.08S1012.64,595,967.85,577.91s-27.34-160,38.95-319.08,156.28-274.22,201-257.15Z"/><path class="cls-11" d="M1670.65,390.05l93.17,35.56c21.14,8.1,18.65,61.92-5.68,120.21s-61.12,99-82.28,90.9l-93.1-35.56c21.15,8.11,58-32.6,82.27-90.9s26.83-112.16,5.62-120.21Z"/><path class="cls-2" d="M1665,510.26c22.46-53.92,26.32-104,10-117.66Q1401.38,255.23,1228.23,29.12c14.58,51.89-7.31,166.77-59.36,291.64C1116.3,447,1048.7,545.65,1000.68,572.36q311.39-49,587.06,29.82c21.67.85,54.84-38,77.29-91.92Z"/><path class="cls-11" d="M1116.14,258.21l69.39,20.19q-7.74,20.93-16.66,42.36c-7.77,18.65-15.88,36.74-24.16,54l-63.4-33c-21.66-11.22-33.8-34.7-24.21-57.66s35.4-32.78,59-25.92Z"/><path class="cls-11" d="M1573.41,598.16,1541,755.46c-4.88,23.65-46.27,22.62-67.88,11.85s-73.6-55.46-51.54-65.27c42.53-18.82,67.77-58.74,73.32-122.59q39.55,8.07,78.49,18.71Z"/><path class="cls-2" d="M261.58,2358.68C117.1,2358.68,0,2383,0,2413.06s117.1,54.38,261.58,54.38,261.53-24.38,261.53-54.38-117.1-54.38-261.53-54.38Z"/><path class="cls-15" d="M180.72,1840.68a7.14,7.14,0,0,0-5.39-8.62,7.22,7.22,0,0,0-8.67,5.39,344.1,344.1,0,0,0,.45,159.57c13.1,54.83,40,111.48,83.19,170.57a7.2,7.2,0,0,0,11.62-8.51c-42.07-57.5-68.14-112.45-80.8-165.35a329.34,329.34,0,0,1-.4-153Z"/><path class="cls-2" d="M172.1,1848.9q97.65-222.08-11.45-420.07,248.79,206,11.45,420.07Z"/><path class="cls-15" d="M160.65,1428.83q109.12,197.93,11.45,420.07C22.4,1734,209.53,1609.21,160.65,1428.83Z"/><path class="cls-15" d="M259.82,2032.63a7.2,7.2,0,0,0-14.34-1.36c-1.65,17.46-2,42.75-.63,71.39a778.94,778.94,0,0,0,8.06,79.61,7.13,7.13,0,0,0,8.16,6,7.22,7.22,0,0,0,6-8.22,756.06,756.06,0,0,1-7.82-78.08c-1.36-28-1-52.57.56-69.35Z"/><path class="cls-2" d="M251,2046.24q-103.35-188,149-355.15-133.36,193.52-149,355.15Z"/><path class="cls-15" d="M251,2046.24q15.56-161.62,149-355.15c-52.79,175.79,61.81,240.66-149,355.15Z"/><path class="cls-15" d="M254.78,2175.52a7.17,7.17,0,1,0,14.34.46c.57-18.49,4.83-37,10.33-53.64a287.9,287.9,0,0,1,26.7-57.67,7.18,7.18,0,1,0-12.19-7.6,303,303,0,0,0-28.12,60.73c-5.9,17.81-10.44,37.71-11.06,57.72Z"/><path class="cls-15" d="M452.56,2078.67c-43.37,100.14-136.48-21.72-169.77-1.47,9.92-22.63,23.93-38.79,39.58-47,45.88-24,84,59.6,130.19,48.48Z"/><path class="cls-14" d="M39.52,2146.55V2277c0,82.28,67.31,149.59,149.59,149.59H307.46c82.29,0,149.58-67.31,149.58-149.59V2146.55Z"/><path class="cls-15" d="M81.84,2381c204.24,65.66,302.34-24.61,282.83-234.42H457V2277c0,82.28-67.29,149.59-149.58,149.59H189.11A149.34,149.34,0,0,1,81.84,2381Z"/></g></g></svg>