<svg xmlns="http://www.w3.org/2000/svg" viewBox="0 0 1369.81 892.04"><defs><style>.cls-1{fill:#e52b54;}.cls-1,.cls-12,.cls-15,.cls-16,.cls-17,.cls-18,.cls-2,.cls-21,.cls-26,.cls-27,.cls-28,.cls-29,.cls-3,.cls-30,.cls-31,.cls-32,.cls-33,.cls-34,.cls-35,.cls-6,.cls-7{fill-rule:evenodd;}.cls-2{fill:#0c53b5;}.cls-3{fill:#eff6ff;}.cls-4{fill:#b1d2fc;}.cls-27,.cls-5{fill:#cbe1ff;}.cls-6{fill:#90c0ff;}.cls-7{fill:#9dd4ff;}.cls-8{fill:#fbb44a;}.cls-9{fill:#ffcc69;}.cls-10{fill:#df641e;}.cls-11,.cls-16{fill:#f4b1b1;}.cls-12{fill:#1f3e7a;}.cls-13,.cls-21{fill:#f79d2c;}.cls-14,.cls-15{fill:#ef7810;}.cls-17{fill:#e98385;}.cls-18{fill:#f9e565;}.cls-19{fill:#f59727;}.cls-20{fill:#ea6200;}.cls-22{fill:#000446;}.cls-23{fill:#e58927;}.cls-24{fill:#ffef95;}.cls-25{fill:none;stroke:#fca700;stroke-miterlimit:10;stroke-width:0.22px;}.cls-26{fill:#ffdb95;}.cls-28{fill:#62a5e4;}.cls-29{fill:#4b8fd0;}.cls-30{fill:#4d97dd;}.cls-31{fill:#fff;}.cls-32{fill:#c1e1ff;}.cls-33{fill:#1a47b6;}.cls-34{fill:#3d7dda;}.cls-35{fill:#f6597b;}</style></defs><g id="Layer_2" data-name="Layer 2"><g id="Layer_1-2" data-name="Layer 1"><path class="cls-1" d="M220.33,548.89c29.33,4.37,43.86-69.71,46.75-79.28,2.28-7.53-9.77-14.29-12.8-11.26-3.3,3.31-28.31,56.5-28.77,56.47-3.18-.22-30-26.64-47.78-34-10.12-6.52,10.29,63.22,42.6,68"/><path class="cls-2" d="M368.52,514.42c-9.08,19.93-28.68,16.35-50.64,16.09-13.7-1.13-45.08-35.76-48.11-42.24a7.83,7.83,0,0,1-.28-4.73c-1-1.32-2.05-2.82-2.93-4.13-4.13-6.16,5.6-19,8.46-16.18l4.26,4.27c1.07-.73.5-1.81,2.7-.65s31.61,33,34.56,32.78,30.3-2,50.46-14.11c2.19-1.4,7.92,19.27,1.52,28.9"/><path class="cls-3" d="M644.46,94.87c-69.39,23.83-135.35,74.86-187.3,122.44C349,316.39,332.82,337.22,199.35,420.41,121.56,468.89,60.23,509.89,30,564.73c-84.89,154,16.22,320.41,228.08,320.41h861.22s101.31,2.11,175.23-80.22c250.56-279-165-876.69-650.09-710"/><rect class="cls-4" x="403.66" y="502.11" width="88.71" height="384.54"/><rect class="cls-4" x="559.41" y="340.93" width="88.71" height="545.72"/><rect class="cls-4" x="715.16" y="401.38" width="90.43" height="485.28"/><rect class="cls-4" x="870.91" y="195.83" width="88.71" height="690.82"/><rect class="cls-5" x="559.41" y="340.93" width="88.71" height="116.15"/><rect class="cls-5" x="715.16" y="401.38" width="90.43" height="103.28"/><rect class="cls-5" x="870.91" y="195.83" width="88.71" height="147.03"/><rect class="cls-4" x="1026.67" y="122.13" width="88.71" height="764.52"/><rect class="cls-5" x="1026.67" y="94.41" width="88.71" height="190.44"/><polygon class="cls-6" points="773.22 456.04 850.81 510.69 887.65 536.65 1110.35 222.13 1091.49 208.85 1191.18 172.47 1188.37 277.09 1169.51 263.81 946.81 578.32 905.14 637.48 845.98 595.81 790.71 556.88 559.85 886.82 472.39 886.65 731.55 515.21 773.22 456.04"/><path class="cls-7" d="M1080.66,714.5a15.68,15.68,0,1,1-20.3-8.9,15.68,15.68,0,0,1,20.3,8.9"/><path class="cls-7" d="M1085.89,746.52a8.95,8.95,0,1,1-11.59-5.08,9,9,0,0,1,11.59,5.08"/><rect class="cls-8" x="969.38" y="867.32" width="182.77" height="16.26"/><rect class="cls-8" x="1128.99" y="867.32" width="23.16" height="16.26"/><rect class="cls-9" x="1105.55" y="867.32" width="23.44" height="16.26"/><rect class="cls-8" x="1021.28" y="867.32" width="84.27" height="16.26"/><rect class="cls-8" x="985.84" y="867.32" width="40.27" height="16.26"/><rect class="cls-10" x="978.03" y="883.59" width="165.19" height="1.55"/><rect class="cls-8" x="969.38" y="849.51" width="182.77" height="16.26"/><rect class="cls-8" x="1128.99" y="849.51" width="23.16" height="16.26"/><rect class="cls-9" x="1105.55" y="849.51" width="23.44" height="16.26"/><rect class="cls-8" x="1021.28" y="849.51" width="84.27" height="16.26"/><rect class="cls-8" x="985.84" y="849.51" width="40.27" height="16.26"/><rect class="cls-10" x="978.03" y="865.77" width="165.19" height="1.55"/><rect class="cls-8" x="969.38" y="831.69" width="182.77" height="16.26"/><rect class="cls-8" x="1128.99" y="831.69" width="23.16" height="16.26"/><rect class="cls-9" x="1105.55" y="831.69" width="23.44" height="16.26"/><rect class="cls-8" x="1021.28" y="831.69" width="84.27" height="16.26"/><rect class="cls-8" x="985.84" y="831.69" width="40.27" height="16.26"/><rect class="cls-10" x="978.03" y="847.96" width="165.19" height="1.55"/><rect class="cls-8" x="969.38" y="796.07" width="182.77" height="16.26"/><rect class="cls-8" x="1128.99" y="796.07" width="23.16" height="16.26"/><rect class="cls-9" x="1105.55" y="796.07" width="23.44" height="16.26"/><rect class="cls-8" x="1021.28" y="796.07" width="84.27" height="16.26"/><rect class="cls-8" x="985.84" y="796.07" width="40.27" height="16.26"/><rect class="cls-10" x="978.03" y="812.33" width="165.19" height="1.55"/><rect class="cls-8" x="969.38" y="760.44" width="182.77" height="16.26"/><rect class="cls-8" x="1128.99" y="760.44" width="23.16" height="16.26"/><rect class="cls-9" x="1105.55" y="760.44" width="23.44" height="16.26"/><rect class="cls-8" x="1021.28" y="760.44" width="84.27" height="16.26"/><rect class="cls-8" x="985.84" y="760.44" width="40.27" height="16.26"/><rect class="cls-10" x="978.03" y="776.7" width="165.19" height="1.55"/><rect class="cls-8" x="969.38" y="813.88" width="182.77" height="16.26"/><rect class="cls-8" x="1128.99" y="813.88" width="23.16" height="16.26"/><rect class="cls-9" x="1105.55" y="813.88" width="23.44" height="16.26"/><rect class="cls-8" x="1021.28" y="813.88" width="84.27" height="16.26"/><rect class="cls-8" x="985.84" y="813.88" width="40.27" height="16.26"/><rect class="cls-10" x="978.03" y="830.14" width="165.19" height="1.55"/><rect class="cls-8" x="969.38" y="778.25" width="182.77" height="16.26"/><rect class="cls-8" x="1128.99" y="778.25" width="23.16" height="16.26"/><rect class="cls-9" x="1105.55" y="778.25" width="23.44" height="16.26"/><rect class="cls-8" x="1021.28" y="778.25" width="84.27" height="16.26"/><rect class="cls-8" x="985.84" y="778.25" width="40.27" height="16.26"/><rect class="cls-10" x="978.03" y="794.51" width="165.19" height="1.55"/><rect class="cls-8" x="969.38" y="742.62" width="182.77" height="16.26"/><rect class="cls-8" x="1128.99" y="742.62" width="23.16" height="16.26"/><rect class="cls-9" x="1105.55" y="742.62" width="23.44" height="16.26"/><rect class="cls-8" x="1021.28" y="742.62" width="84.27" height="16.26"/><rect class="cls-8" x="985.84" y="742.62" width="40.27" height="16.26"/><rect class="cls-10" x="978.03" y="758.89" width="165.19" height="1.55"/><rect class="cls-8" x="969.38" y="724.81" width="182.77" height="16.26"/><rect class="cls-8" x="1128.99" y="724.81" width="23.16" height="16.26"/><rect class="cls-9" x="1105.55" y="724.81" width="23.44" height="16.26"/><rect class="cls-8" x="1021.28" y="724.81" width="84.27" height="16.26"/><rect class="cls-8" x="985.84" y="724.81" width="40.27" height="16.26"/><rect class="cls-10" x="978.03" y="741.07" width="165.19" height="1.55"/><rect class="cls-8" x="969.38" y="689.18" width="182.77" height="16.26"/><rect class="cls-8" x="1128.99" y="689.18" width="23.16" height="16.26"/><rect class="cls-9" x="1105.55" y="689.18" width="23.44" height="16.26"/><rect class="cls-8" x="1021.28" y="689.18" width="84.27" height="16.26"/><rect class="cls-8" x="985.84" y="689.18" width="40.27" height="16.26"/><rect class="cls-10" x="978.03" y="705.44" width="165.19" height="1.55"/><rect class="cls-8" x="969.38" y="706.99" width="182.77" height="16.26"/><rect class="cls-8" x="1128.99" y="706.99" width="23.16" height="16.26"/><rect class="cls-9" x="1105.55" y="706.99" width="23.44" height="16.26"/><rect class="cls-8" x="1021.28" y="706.99" width="84.27" height="16.26"/><rect class="cls-8" x="985.84" y="706.99" width="40.27" height="16.26"/><rect class="cls-10" x="978.03" y="723.26" width="165.19" height="1.55"/><path class="cls-11" d="M639.58,372.79c-1.76,2.34-10.15,9.65-8.94,11.88s11.11,9.24,11.11,9.24l5-5.5c.79-.38,10.59,3.39,13.57,1.87,1.07-.54,1.79-3.12.48-3.86s-4.62-4.91-5.15-5.8c-.82-1.35,12.7-6.87,12-8.68-8.46-8.28-16.81-10-28.08.85"/><path class="cls-11" d="M713.35,380.69s2.89,7.64,2.06,8.75c-.94,1.29,2.69,3.07-.54,6.33-1.81,1.84-10.36,9.58-10.36,9.58l-3.3-6.73c-.65-.59-14.12-5.6-16.56-7.91-.88-.83-.85-3.51.61-3.84s5.44-1.35,6.19-2.05c1.16-1.07-8.58-11.19-7.39-12.71,16-10.46,24.71.75,29.29,8.58"/><path class="cls-12" d="M589.42,631.6c-9.62,43,4.65,144.07,9.46,223.48l-.76-.07s-.6,6.86-5.77,9.73S576.85,870,573.8,873c-2.21,2.15-10.65,14.31,19.56,13.5,21.47-.57,26.58-2.1,28.88-5.64.32-.5,15.57-167.29,17.81-181,3.83,17.44,49.5,166.55,49.49,166.64-.36,2.64-3.79,9.63-7.61,14-1.18,4.27-4,11.77,16.83,11.59s13.78-6.27,16-9.71c-9.23-88.42-22.61-231.4-27.26-254.93h0c-3.71-151.35-82.7-112.35-75.59-20.72.81,10.35-18.91,10.64-22.48,24.91"/><path class="cls-13" d="M598.72,529.32c-8.94-20.37-29-81.17-14.68-103.63,11.79-14.39,42.11-44.35,48.74-42.75,1.69.41,15.28,5.11,8.14,13-9.26,10.75-29.27,35.29-31.2,37.86s5,41.66,14.29,51.76c-.39,2.62-22.29,55.09-25.29,43.72"/><path class="cls-13" d="M697.44,536.52c-3.37,20.12-9.22,73.59-6.51,98.6-40.5,7.09-77.54,3.94-101.73-3.9,1.13-27.22,1.2-121.69,30.32-144.49,22.19-6.33,51.1-2.46,70-1.12,18.67-1.87,29.1-17.18,31.41-21.64,0-19.82-21.06-50.7-16.53-66,1.19-4,6.8-10.88,12.36-4.24,14,16.74,34.5,48.69,34,70.77-.4,17.79-20.15,53.45-53.33,72"/><path class="cls-14" d="M637.61,483.28c10.61-1.72,17.42-5.46,37.53,1.16-1.41,9.37-13.62,23.17-30.41,17.65-7.31-1.54-14-12.41-7.12-18.81"/><path class="cls-15" d="M697.44,536.52c-3.16,20.46-9,76-6.51,98.6-1.42.25-2.83.49-4.24.71-8.47-26.25-1.79-90.52,3.57-118.6a135.37,135.37,0,0,0,7.18,19.29"/><path class="cls-16" d="M637.35,456.15c1.27,6.33,4,11.68,7.73,15l-.44,10.49-1.42.69c-5.84,3.7-3.51,13.76,1.73,14.87,12.88,4.23,25.87-5.48,23.52-12.47l-1.2-2.4.61-11c.68.15,6.34-1.35,7.92-1.4s4.47-2.33,5.42-5.32-3.9-3.26-3.9-3.26c7.6-6.22,15.56-10.82,9.25-20s-24-18.42-24-18.42l-10.22-7.07c.38,4.35-5,17-10.11,24.51-4.56,6.69-6.62,7.36-4.91,15.85"/><path class="cls-17" d="M662.14,471.41s-8.18,9.35-13.69,8.93c-4.75-.37-3.68-.71-3.37-9.24,3.45,1.59,7.06,2.26,17.06.31"/><path class="cls-12" d="M649.81,433.46c8.09,7.47,20.42,4.63,24.15,12.67,1.84,4,.33,8.59-4.6,15-1.46,1.88-3.07,3.12.9,2.42,1.83-.32,4.78-.65,5.49.35,1.59,2.22-.36,5.45-2.28,6.13-.86.31-2.42.69-2.42.69,13.25,1,21.57-9.12,23.86-18.5a41.39,41.39,0,0,0,1.25-8.75,9.4,9.4,0,0,0,1.12-2.61,9.26,9.26,0,0,0-3.74-10.2,8.94,8.94,0,0,0-6.25-9.71,8.2,8.2,0,0,0-3.71-.14l-.39-.22a9.16,9.16,0,0,0-6.43-6.52,8.93,8.93,0,0,0-6.53.69,12.57,12.57,0,0,0-8.29-7.86c-6.92-1.9-14.23,3-16.32,10.91A15.59,15.59,0,0,0,648,431.21a15.25,15.25,0,0,0,1.81,2.25"/><path class="cls-13" d="M473.49,80.3c-4.08-3.8-3.92-10.4.35-14.73s11.05-4.75,15.13-.95a3.43,3.43,0,0,0,1.49.32,12,12,0,0,0,5.17-.85,16.11,16.11,0,0,0,5.76-3.78,20.06,20.06,0,0,0,5.18-10.68c2-11.08-3.93-20.05-13.47-24.82a38.81,38.81,0,0,0-16.31-3.92,47.91,47.91,0,0,0-19,3.49c-19.45,7.76-38.35,29.05-45.24,70-2.7,16.09-2.21,43.54-1.84,64.2.11,6.32.21,12,.18,17.76,0,1.24,0,2.32,0,3.42.14,18.73-3.9,46.89-37.73,52.83-5.89,1.05-11.12-2.71-11.67-8.39s3.77-11.13,9.67-12.18c4.68-.82,12.06-4.61,14.16-7.57,4.32-6.08,4.25-15.4,4.19-22.67,0-1.36,0-2.68,0-3.71,0-3.67-.09-10.08-.22-17.24-.38-21.32-.89-49.66,2.2-68C400,42.46,425.09,15.55,451.19,5.14a70.72,70.72,0,0,1,28-5.12,59.56,59.56,0,0,1,24.95,6C521,14.45,531.38,30.84,527.64,51.5a42.57,42.57,0,0,1-11.48,22.59,40.2,40.2,0,0,1-14.33,9.38,34.88,34.88,0,0,1-15.17,2.27,22,22,0,0,1-13.17-5.44"/><path class="cls-14" d="M654.48,319.33c2.55,5,8.94,6.6,14.27,3.65s7.58-9.34,5-14.3a3.51,3.51,0,0,1,.1-1.51,12,12,0,0,1,2.21-4.75,16.13,16.13,0,0,1,5.2-4.52,20.1,20.1,0,0,1,11.7-2.09c11.2,1.07,18.23,9.22,20.24,19.69a38.81,38.81,0,0,1-.66,16.77,47.83,47.83,0,0,1-8.5,17.3c-12.74,16.61-38.36,29-79.65,24.55-16.23-1.76-42.52-9.67-62.29-15.63-6.06-1.82-11.47-3.45-17.06-5l-3.28-.93c-18-5.22-45.47-8.81-60.36,22.13-2.61,5.39-.41,11.44,4.91,13.52s11.74-.62,14.34-6c1.67-3.47,5.9-9.53,8.52-10.91,7.25-3.81,17.22-.92,24.85,1.29l3.56,1c3.54,1,9.68,2.82,16.54,4.89,20.42,6.15,47.56,14.32,66.08,16.33,50.75,5.51,83.45-11.35,100.56-33.65a70.71,70.71,0,0,0,12.52-25.6,59.42,59.42,0,0,0,1-25.64C730.75,291.45,717.79,277,696.88,275A42.56,42.56,0,0,0,672,279.94a40.19,40.19,0,0,0-12.91,11.25,34.78,34.78,0,0,0-6.3,14,22,22,0,0,0,1.66,14.15"/><path class="cls-13" d="M681.37,281.41c-117.71,89.12-249.86,112.86-295.17,53S399.58,153.83,517.28,64.7l2.92-2.2a3.65,3.65,0,0,1,5.11.71L685,274.06a3.66,3.66,0,0,1-.71,5.11l-2.91,2.21Z"/><path class="cls-14" d="M681.37,281.41c-117.71,89.12-249.86,112.86-295.17,53a74,74,0,0,1-13.29-29.69c81.75,56.82,218.68-10,288.69-61.54L685,274.06a3.66,3.66,0,0,1-.71,5.11l-2.91,2.21Z"/><polygon class="cls-18" points="578.13 188.67 549.97 228.93 579.7 268.04 532.71 253.7 504.7 294.06 503.82 244.94 456.78 230.77 503.23 214.76 502.16 165.64 531.75 204.87 578.13 188.67"/><rect class="cls-14" x="605.83" y="15.09" width="25.14" height="282.57" transform="translate(30.99 405.01) rotate(-37.13)"/><rect class="cls-13" x="531.35" y="40.1" width="25.14" height="35.81" transform="translate(75.27 340.1) rotate(-37.13)"/><rect class="cls-13" x="547.32" y="60.71" width="25.14" height="36.24" transform="translate(65.94 353.97) rotate(-37.13)"/><rect class="cls-13" x="610.75" y="75.7" width="25.14" height="174.37" transform="translate(28.06 409.3) rotate(-37.13)"/><rect class="cls-19" x="669.57" y="230.31" width="25.14" height="20.48" transform="translate(-6.9 460.55) rotate(-37.13)"/><rect class="cls-20" x="603.45" y="27.73" width="5.4" height="275.51" transform="translate(23 399.46) rotate(-37.13)"/><path class="cls-13" d="M402.38,341.52l-.31-.41h0l-.32-.42h0l-.32-.41h0l-.32-.42h0l-.31-.41h0l-.31-.42h0l-.32-.41h0l-.32-.42h0l-.32-.41h0l-.31-.42h0l-.31-.41h0l-.32-.42h0l-.32-.41h0l-.32-.42h0l-.32-.41h0l-.31-.42h0l-.31-.42h0l-.32-.42h0l-.32-.42h0L396,333h0l-.31-.42h0l-.31-.42h0l-.32-.42h0l-.32-.42h0l-.32-.42h0l-.31-.42h0l-.31-.42h0l-.32-.42h0l-.32-.42h0l-.32-.42h0l-.31-.42h0l-.31-.42h0l-.32-.42h0l-.32-.41h0l-.32-.42h0l-.31-.41h0l-.31-.42h0l-.31-.41h0l-.32-.42h0l-.32-.41h0l-.32-.42h0l-.31-.41h0l-.31-.42h0l-.32-.41h0l-.32-.42h0l-.32-.41h0l-.31-.42h0l-.31-.41h0l-.32-.42h0l-.32-.41h0l-.32-.42h0l-.31-.41h0l-.31-.42h0l-.32-.42h0l-.32-.42h0l-.32-.42h0l-.31-.42h0l-.31-.42-1.94-2.55c-39,27.26-83,64.47-111.24,61.4-1.84-.2-5.66,3.12-7.25,4l13.63,18,18.67,24.65,13.84,18.27c1.29-1.28,5.31-4.33,5.62-6.16,4.7-28,52.44-60.22,89.27-90.42Z"/><path class="cls-15" d="M402.38,341.52l-.31-.41h0l-.32-.42h0l-.32-.41h0l-.32-.42h0l-.31-.41h0l-.31-.42h0l-.32-.41h0l-.32-.42h0l-.32-.41h0l-.31-.42h0l-.31-.41h0l-.32-.42h0l-.32-.41h0l-.32-.42h0l-.32-.41h0l-.31-.42h0l-.31-.42h0l-.32-.42h0l-.32-.42h0L396,333h0l-.31-.42h0l-.31-.42h0l-.32-.42h0l-.32-.42h0l-.32-.42h0l-.31-.42h0l-.31-.42h0l-.32-.42h0l-.32-.42h0l-.32-.42h0l-.31-.42h0l-.31-.42h0l-.32-.42h0l-.32-.41h0l-.32-.42h0l-.31-.41h0l-.31-.42h0l-.31-.41h0l-.32-.42h0l-.32-.41h0l-.32-.42h0l-.31-.41h0l-.31-.42h0l-.32-.41h0l-.32-.42h0l-.32-.41h0l-.31-.42h0l-.31-.41h0l-.32-.42h0l-.32-.41h0l-.32-.42h0l-.31-.41h0l-.31-.42h0l-.32-.42h0l-.32-.42h0l-.32-.42h0l-.31-.42h0l-.31-.42-1.87-2.46-.16,0c-4.52,3.09-9.1,6.36-13.72,9.68a26.76,26.76,0,0,0,1.08,19.53,66.48,66.48,0,0,0,12.54,18.78c7.68-6.14,15.49-12.24,22.73-18.29Z"/><path class="cls-15" d="M242.57,352.37,330.14,468a7.83,7.83,0,0,1-1.51,11l-6.23,4.72-97-128.12,6.23-4.71a7.83,7.83,0,0,1,10.95,1.51"/><path class="cls-15" d="M270.11,388.73l60,79.29a7.83,7.83,0,0,1-1.51,11l-6.23,4.72L282.51,431c-10.05-19.56-12.4-42.28-12.4-42.28"/><path class="cls-21" d="M269.06,370.82l50.51,66.71a5,5,0,0,1-1,7l-4,3-56.54-74.67,4-3a5,5,0,0,1,7,1"/><path class="cls-13" d="M225.52,355.75l96.75,127.77A17.1,17.1,0,0,1,319,507.41l-31,23.45-117.33-155,31-23.44a17.09,17.09,0,0,1,23.89,3.3"/><rect class="cls-22" x="56.33" y="885.14" width="1167.75" height="2.89"/><path class="cls-7" d="M943.74,714.5a15.68,15.68,0,1,1-20.3-8.9,15.68,15.68,0,0,1,20.3,8.9"/><path class="cls-7" d="M949,746.52a8.95,8.95,0,1,1-11.59-5.08A9,9,0,0,1,949,746.52"/><rect class="cls-8" x="832.46" y="867.32" width="182.77" height="16.26"/><rect class="cls-8" x="992.07" y="867.32" width="23.16" height="16.26"/><rect class="cls-9" x="968.63" y="867.32" width="23.44" height="16.26"/><rect class="cls-8" x="884.36" y="867.32" width="84.27" height="16.26"/><rect class="cls-8" x="848.92" y="867.32" width="40.27" height="16.26"/><rect class="cls-10" x="841.12" y="883.59" width="165.19" height="1.55"/><rect class="cls-8" x="832.46" y="849.51" width="182.77" height="16.26"/><rect class="cls-8" x="992.07" y="849.51" width="23.16" height="16.26"/><rect class="cls-9" x="968.63" y="849.51" width="23.44" height="16.26"/><rect class="cls-8" x="884.36" y="849.51" width="84.27" height="16.26"/><rect class="cls-8" x="848.92" y="849.51" width="40.27" height="16.26"/><rect class="cls-10" x="841.12" y="865.77" width="165.19" height="1.55"/><rect class="cls-8" x="832.46" y="831.69" width="182.77" height="16.26"/><rect class="cls-8" x="992.07" y="831.69" width="23.16" height="16.26"/><rect class="cls-9" x="968.63" y="831.69" width="23.44" height="16.26"/><rect class="cls-8" x="884.36" y="831.69" width="84.27" height="16.26"/><rect class="cls-8" x="848.92" y="831.69" width="40.27" height="16.26"/><rect class="cls-10" x="841.12" y="847.96" width="165.19" height="1.55"/><rect class="cls-8" x="832.46" y="796.07" width="182.77" height="16.26"/><rect class="cls-8" x="992.07" y="796.07" width="23.16" height="16.26"/><rect class="cls-9" x="968.63" y="796.07" width="23.44" height="16.26"/><rect class="cls-8" x="884.36" y="796.07" width="84.27" height="16.26"/><rect class="cls-8" x="848.92" y="796.07" width="40.27" height="16.26"/><rect class="cls-10" x="841.12" y="812.33" width="165.19" height="1.55"/><rect class="cls-8" x="832.46" y="760.44" width="182.77" height="16.26"/><rect class="cls-8" x="992.07" y="760.44" width="23.16" height="16.26"/><rect class="cls-9" x="968.63" y="760.44" width="23.44" height="16.26"/><rect class="cls-8" x="884.36" y="760.44" width="84.27" height="16.26"/><rect class="cls-8" x="848.92" y="760.44" width="40.27" height="16.26"/><rect class="cls-10" x="841.12" y="776.7" width="165.19" height="1.55"/><rect class="cls-8" x="832.46" y="813.88" width="182.77" height="16.26"/><rect class="cls-8" x="992.07" y="813.88" width="23.16" height="16.26"/><rect class="cls-9" x="968.63" y="813.88" width="23.44" height="16.26"/><rect class="cls-8" x="884.36" y="813.88" width="84.27" height="16.26"/><rect class="cls-8" x="848.92" y="813.88" width="40.27" height="16.26"/><rect class="cls-10" x="841.12" y="830.14" width="165.19" height="1.55"/><rect class="cls-8" x="832.46" y="778.25" width="182.77" height="16.26"/><rect class="cls-8" x="992.07" y="778.25" width="23.16" height="16.26"/><rect class="cls-9" x="968.63" y="778.25" width="23.44" height="16.26"/><rect class="cls-8" x="884.36" y="778.25" width="84.27" height="16.26"/><rect class="cls-8" x="848.92" y="778.25" width="40.27" height="16.26"/><rect class="cls-10" x="841.12" y="794.51" width="165.19" height="1.55"/><rect class="cls-8" x="832.46" y="742.62" width="182.77" height="16.26"/><rect class="cls-8" x="992.07" y="742.62" width="23.16" height="16.26"/><rect class="cls-9" x="968.63" y="742.62" width="23.44" height="16.26"/><rect class="cls-8" x="884.36" y="742.62" width="84.27" height="16.26"/><rect class="cls-8" x="848.92" y="742.62" width="40.27" height="16.26"/><rect class="cls-10" x="841.12" y="758.89" width="165.19" height="1.55"/><rect class="cls-8" x="832.46" y="724.81" width="182.77" height="16.26"/><rect class="cls-8" x="992.07" y="724.81" width="23.16" height="16.26"/><rect class="cls-9" x="968.63" y="724.81" width="23.44" height="16.26"/><rect class="cls-8" x="884.36" y="724.81" width="84.27" height="16.26"/><rect class="cls-8" x="848.92" y="724.81" width="40.27" height="16.26"/><rect class="cls-10" x="841.12" y="741.07" width="165.19" height="1.55"/><rect class="cls-8" x="832.46" y="689.18" width="182.77" height="16.26"/><rect class="cls-8" x="992.07" y="689.18" width="23.16" height="16.26"/><rect class="cls-9" x="968.63" y="689.18" width="23.44" height="16.26"/><rect class="cls-8" x="884.36" y="689.18" width="84.27" height="16.26"/><rect class="cls-8" x="848.92" y="689.18" width="40.27" height="16.26"/><rect class="cls-10" x="841.12" y="705.44" width="165.19" height="1.55"/><rect class="cls-8" x="832.46" y="706.99" width="182.77" height="16.26"/><rect class="cls-8" x="992.07" y="706.99" width="23.16" height="16.26"/><rect class="cls-9" x="968.63" y="706.99" width="23.44" height="16.26"/><rect class="cls-8" x="884.36" y="706.99" width="84.27" height="16.26"/><rect class="cls-8" x="848.92" y="706.99" width="40.27" height="16.26"/><rect class="cls-10" x="841.12" y="723.26" width="165.19" height="1.55"/><path class="cls-23" d="M748.53,826.6a82.85,82.85,0,1,1,103.52,54.89A82.85,82.85,0,0,1,748.53,826.6"/><path class="cls-24" d="M742.11,822.43a82.86,82.86,0,1,1,103.53,54.88,82.85,82.85,0,0,1-103.53-54.88"/><path class="cls-9" d="M745.43,824.31A82.86,82.86,0,1,1,849,879.19a82.86,82.86,0,0,1-103.53-54.88"/><path class="cls-9" d="M745.43,824.31c-.07-.23-.13-.46-.2-.69L903.63,775l.21.68a82.86,82.86,0,1,1-158.41,48.65"/><circle class="cls-8" cx="824.64" cy="799.99" r="70.32" transform="translate(-134.66 1432.25) rotate(-77.52)"/><circle class="cls-25" cx="824.64" cy="799.99" r="70.32" transform="translate(-134.66 1432.25) rotate(-77.52)"/><path class="cls-26" d="M809.29,767.67l-2.75-9.2,10.28-3.08,2.69,9q17.84-3.25,27.46,9.68L831.8,784.3q-4.6-6-12.48-3.66-6.63,2-5.35,6.25a3.74,3.74,0,0,0,1.92,2.31c1,.51,3.25.62,6.87.35q12.35-1,18-.49a19.31,19.31,0,0,1,10.41,4.29,20.15,20.15,0,0,1,6.73,10.31A21.24,21.24,0,0,1,856,820.93q-4.66,8.13-15.68,12.82l2.75,9.19L832.75,846,830,836.83q-20,3.48-30.39-13.1l17.67-9.09q4.86,7.49,14.57,4.58,7.57-2.26,6.34-6.42a4.05,4.05,0,0,0-2.79-2.89c-1.41-.47-3.72-.55-6.9-.28q-18.71,1.74-25.11-2.42a20,20,0,0,1-8.55-11.35,22.43,22.43,0,0,1,.95-15.69q3.36-7.71,13.51-12.5"/><path class="cls-7" d="M1080.66,518.54a15.68,15.68,0,1,1-20.3-8.91,15.69,15.69,0,0,1,20.3,8.91"/><path class="cls-7" d="M1085.89,550.56a8.95,8.95,0,1,1-11.59-5.08,8.95,8.95,0,0,1,11.59,5.08"/><rect class="cls-8" x="969.38" y="671.36" width="182.77" height="16.26"/><rect class="cls-8" x="1128.99" y="671.36" width="23.16" height="16.26"/><rect class="cls-9" x="1105.55" y="671.36" width="23.44" height="16.26"/><rect class="cls-8" x="1021.28" y="671.36" width="84.27" height="16.26"/><rect class="cls-8" x="985.84" y="671.36" width="40.27" height="16.26"/><rect class="cls-10" x="978.03" y="687.63" width="165.19" height="1.55"/><rect class="cls-8" x="969.38" y="653.55" width="182.77" height="16.26"/><rect class="cls-8" x="1128.99" y="653.55" width="23.16" height="16.26"/><rect class="cls-9" x="1105.55" y="653.55" width="23.44" height="16.26"/><rect class="cls-8" x="1021.28" y="653.55" width="84.27" height="16.26"/><rect class="cls-8" x="985.84" y="653.55" width="40.27" height="16.26"/><rect class="cls-10" x="978.03" y="669.81" width="165.19" height="1.55"/><rect class="cls-8" x="969.38" y="635.73" width="182.77" height="16.26"/><rect class="cls-8" x="1128.99" y="635.73" width="23.16" height="16.26"/><rect class="cls-9" x="1105.55" y="635.73" width="23.44" height="16.26"/><rect class="cls-8" x="1021.28" y="635.73" width="84.27" height="16.26"/><rect class="cls-8" x="985.84" y="635.73" width="40.27" height="16.26"/><rect class="cls-10" x="978.03" y="652" width="165.19" height="1.55"/><rect class="cls-8" x="969.38" y="600.1" width="182.77" height="16.26"/><rect class="cls-8" x="1128.99" y="600.1" width="23.16" height="16.26"/><rect class="cls-9" x="1105.55" y="600.1" width="23.44" height="16.26"/><rect class="cls-8" x="1021.28" y="600.1" width="84.27" height="16.26"/><rect class="cls-8" x="985.84" y="600.1" width="40.27" height="16.26"/><rect class="cls-10" x="978.03" y="616.37" width="165.19" height="1.55"/><rect class="cls-8" x="969.38" y="564.47" width="182.77" height="16.26"/><rect class="cls-8" x="1128.99" y="564.47" width="23.16" height="16.26"/><rect class="cls-9" x="1105.55" y="564.47" width="23.44" height="16.26"/><rect class="cls-8" x="1021.28" y="564.47" width="84.27" height="16.26"/><rect class="cls-8" x="985.84" y="564.47" width="40.27" height="16.26"/><rect class="cls-10" x="978.03" y="580.74" width="165.19" height="1.55"/><rect class="cls-8" x="969.38" y="617.92" width="182.77" height="16.26"/><rect class="cls-8" x="1128.99" y="617.92" width="23.16" height="16.26"/><rect class="cls-9" x="1105.55" y="617.92" width="23.44" height="16.26"/><rect class="cls-8" x="1021.28" y="617.92" width="84.27" height="16.26"/><rect class="cls-8" x="985.84" y="617.92" width="40.27" height="16.26"/><rect class="cls-10" x="978.03" y="634.18" width="165.19" height="1.55"/><rect class="cls-8" x="969.38" y="582.29" width="182.77" height="16.26"/><rect class="cls-8" x="1128.99" y="582.29" width="23.16" height="16.26"/><rect class="cls-9" x="1105.55" y="582.29" width="23.44" height="16.26"/><rect class="cls-8" x="1021.28" y="582.29" width="84.27" height="16.26"/><rect class="cls-8" x="985.84" y="582.29" width="40.27" height="16.26"/><rect class="cls-10" x="978.03" y="598.55" width="165.19" height="1.55"/><rect class="cls-8" x="969.38" y="546.66" width="182.77" height="16.26"/><rect class="cls-8" x="1128.99" y="546.66" width="23.16" height="16.26"/><rect class="cls-9" x="1105.55" y="546.66" width="23.44" height="16.26"/><rect class="cls-8" x="1021.28" y="546.66" width="84.27" height="16.26"/><rect class="cls-8" x="985.84" y="546.66" width="40.27" height="16.26"/><rect class="cls-10" x="978.03" y="562.92" width="165.19" height="1.55"/><rect class="cls-8" x="969.38" y="528.84" width="182.77" height="16.26"/><rect class="cls-8" x="1128.99" y="528.84" width="23.16" height="16.26"/><rect class="cls-9" x="1105.55" y="528.84" width="23.44" height="16.26"/><rect class="cls-8" x="1021.28" y="528.84" width="84.27" height="16.26"/><rect class="cls-8" x="985.84" y="528.84" width="40.27" height="16.26"/><rect class="cls-10" x="978.03" y="545.11" width="165.19" height="1.55"/><rect class="cls-8" x="969.38" y="493.21" width="182.77" height="16.26"/><rect class="cls-8" x="1128.99" y="493.21" width="23.16" height="16.26"/><rect class="cls-9" x="1105.55" y="493.21" width="23.44" height="16.26"/><rect class="cls-8" x="1021.28" y="493.21" width="84.27" height="16.26"/><rect class="cls-8" x="985.84" y="493.21" width="40.27" height="16.26"/><rect class="cls-10" x="978.03" y="509.48" width="165.19" height="1.55"/><rect class="cls-8" x="969.38" y="511.03" width="182.77" height="16.26"/><rect class="cls-8" x="1128.99" y="511.03" width="23.16" height="16.26"/><rect class="cls-9" x="1105.55" y="511.03" width="23.44" height="16.26"/><rect class="cls-8" x="1021.28" y="511.03" width="84.27" height="16.26"/><rect class="cls-8" x="985.84" y="511.03" width="40.27" height="16.26"/><rect class="cls-10" x="978.03" y="527.29" width="165.19" height="1.55"/><path class="cls-27" d="M877.07,120.65l-7.48-1.53a7.1,7.1,0,0,1-5.68-6.45,73.46,73.46,0,0,0-3.48-17.88,7.12,7.12,0,0,1,2.87-8.11l6.36-4.22a7.17,7.17,0,0,0,2-9.93l-8.06-12.19a7.18,7.18,0,0,0-9.94-2l-6.36,4.21a7.12,7.12,0,0,1-8.6-.55,73.22,73.22,0,0,0-15.09-10.19A7.09,7.09,0,0,1,820,44l1.52-7.47a7.17,7.17,0,0,0-5.58-8.46l-14.33-2.92a7.17,7.17,0,0,0-8.45,5.59l-1.52,7.47a7.13,7.13,0,0,1-6.45,5.7,73.26,73.26,0,0,0-17.87,3.46,7.11,7.11,0,0,1-8.13-2.86l-4.21-6.37a7.15,7.15,0,0,0-9.92-2l-12.2,8.06a7.17,7.17,0,0,0-2,9.93L735,60.5a7.11,7.11,0,0,1-.55,8.59,74.21,74.21,0,0,0-10.2,15.09,7.07,7.07,0,0,1-7.75,3.71L709,86.37A7.16,7.16,0,0,0,700.57,92l-2.92,14.31a7.17,7.17,0,0,0,5.59,8.46l7.47,1.52a7.12,7.12,0,0,1,5.69,6.46,73.29,73.29,0,0,0,3.47,17.86A7.11,7.11,0,0,1,717,148.7l-6.37,4.21a7.16,7.16,0,0,0-2,9.93l8,12.19a7.18,7.18,0,0,0,9.94,2l6.36-4.21a7.09,7.09,0,0,1,8.59.55,73.36,73.36,0,0,0,15.09,10.19,7.11,7.11,0,0,1,3.71,7.76l-1.52,7.48a7.15,7.15,0,0,0,5.59,8.45l14.31,2.93a7.19,7.19,0,0,0,8.46-5.6l1.52-7.47a7.13,7.13,0,0,1,6.46-5.7A73.27,73.27,0,0,0,813,188a7.11,7.11,0,0,1,8.12,2.86l4.21,6.37a7.18,7.18,0,0,0,9.94,2l12.19-8.07a7.16,7.16,0,0,0,2-9.93l-4.21-6.37a7.11,7.11,0,0,1,.54-8.59,72.8,72.8,0,0,0,10.2-15.08,7.08,7.08,0,0,1,7.75-3.71l7.49,1.52a7.16,7.16,0,0,0,8.45-5.58l2.92-14.32a7.16,7.16,0,0,0-5.59-8.45M764.82,93.24A35.21,35.21,0,1,1,765.7,143,35.2,35.2,0,0,1,764.82,93.24Z"/><path class="cls-28" d="M1181.2,574.82a61.16,61.16,0,1,1-85.82,10.84,61.16,61.16,0,0,1,85.82-10.84"/><path class="cls-29" d="M1168.07,679.26a61.17,61.17,0,1,1,11.37-105.75c-38.71,3-75,63.52-11.37,105.75"/><path class="cls-29" d="M1149,678.66c-1.84.18-3.68.26-5.52.26l-.91-27.17a61.42,61.42,0,0,0,4.66,6.26Z"/><path class="cls-30" d="M1149.53,684c-2,.19-4,.29-6,.28l-1-29.8a69.3,69.3,0,0,0,5.11,6.87Z"/><path class="cls-31" d="M1170.16,589a43.16,43.16,0,1,1-60.56,7.65,43.17,43.17,0,0,1,60.56-7.65"/><polygon class="cls-31" points="1142.31 622.69 1142.31 622.69 1136.75 633.64 1143.14 629.2 1150.47 632.86 1143.67 622.56 1142.31 622.69"/><path class="cls-32" d="M1147.94,666.1a43.9,43.9,0,0,1-4.86.21l-1.29-38.69,2.89.42Z"/><path class="cls-28" d="M1162.44,599a30.55,30.55,0,1,1-42.88,5.41,30.56,30.56,0,0,1,42.88-5.41"/><polygon class="cls-30" points="1142.31 622.69 1142.31 622.69 1136.75 633.64 1143.14 629.2 1150.47 632.86 1143.67 622.56 1142.31 622.69"/><path class="cls-30" d="M1146.86,653.54a31,31,0,0,1-4.2.15l-.87-26.07,2.89.42Z"/><path class="cls-29" d="M1143.9,653.71a30.56,30.56,0,1,1,3.46-60.9c-13.67,14.87-19.2,38.58-3.46,60.9"/><path class="cls-29" d="M1143.9,653.71l-1.24,0-.07-1.91c.42.64.85,1.28,1.31,1.93"/><path class="cls-31" d="M1154.71,609a17.95,17.95,0,1,1-25.19,3.18,17.94,17.94,0,0,1,25.19-3.18"/><polygon class="cls-32" points="1142.31 622.69 1142.31 622.69 1136.75 633.64 1143.14 629.2 1150.47 632.86 1143.67 622.56 1142.31 622.69"/><path class="cls-32" d="M1145.79,641a18.41,18.41,0,0,1-3.56.06l-.44-13.42,2.89.42Z"/><polygon class="cls-33" points="1142.41 622.68 1142.41 622.68 1151.64 614.58 1148.92 621.87 1154.29 628.06 1142.63 624.03 1142.41 622.68"/><path class="cls-33" d="M1217.66,605.32a2.43,2.43,0,0,1,2,.71c1,.8,1.36,3.76.6,4.74s-.86.84-1.39,1.05l-70.69,11.83-1.14-2.69Z"/><polygon class="cls-33" points="1210.08 600.52 1230.59 595.55 1224.01 606.7 1234.51 616.02 1211.66 618.3 1204.96 610.93 1210.08 600.52"/><polygon class="cls-33" points="1210.08 600.52 1230.59 595.55 1224.01 606.7 1205.15 610.54 1206.51 607.79 1210.08 600.52"/><path class="cls-12" d="M343.94,618.7c-9.7,42.57,3.5,154.18,6.48,234.76l-.76-.08s-.61,6.8-5.82,9.64-14.31,5.07-17.4,8c-2.22,2.13-10.74,14.18,19.75,13.38,21.66-.57,26.82-2.08,29.14-5.59.32-.49,18-165.43,20.26-179,3.87,17.29,47.66,164.7,47.64,164.79-.36,2.61-3.82,9.54-7.68,13.85-1.18,4.22-4,11.66,17,11.48s16.69-5.49,18.93-8.89c-9.31-87.63-24.29-228.84-29-252.16l-1.31-1.22c-3.75-150-83.45-111.34-76.27-20.53.81,10.26-17.35-2.61-21,11.54"/><path class="cls-34" d="M451.11,493.89c17.18,22.45-13.18,78.8-6,144.37-40.49,7-80.7,1.42-104.88-6.28,1.13-26.71,5.4-137.7,29-147.34,28.81-8.07,70-8.44,81.82,9.25"/><path class="cls-2" d="M355.85,505.17l-8.52,39.53s22.76,16.65,36.08,16.16,56.26-28.66,56.26-28.66a57.34,57.34,0,0,1,.51-9.49c.68-3.71-20.3,0-20.3,0L384,519.55Z"/><path class="cls-16" d="M379.34,461.25c2.84,5.67,6.83,10,11.28,12.17l-.15,8.23-1.2,1c-4.7,5,.39,15.35,5.73,15,13.51.66,23.89-10.42,19.83-16.43l-1.77-2-.39-11.65c.7,0,5.77-2.93,7.28-3.39s3.73-3.38,3.88-6.45-4.6-2.08-4.6-2.08c5.75-7.87,12.27-14.3,3.82-21.39s-27.85-11.22-27.85-11.22l-11.67-4.05c1.48,4-.5,17.47-3.5,25.86-2.69,7.53-4.51,8.7-.69,16.31"/><path class="cls-17" d="M407.17,469.27s-6.61,11.33-12,12.36-2.65.26-4.67,0l.15-8.23c3.74.6,7.39.3,16.55-4.15"/><path class="cls-34" d="M453.54,503.22c10.79,25.78-58.05,50.72-65.84,51.33-24,0-79.42-47.54-83.71-60.16-1.81-5.3.75-17.42,6.94-14.58,13,5.94,66.43,41.7,69.59,39.9,18.71-4.57,60-36.93,73-16.49"/><path class="cls-12" d="M386,432c10.65,5.46,22.91-1,29.12,6.29,3.07,3.61,2.76,8.83-.68,16.88-1,2.38-2.37,4.12,1.64,2.27,1.84-.85,4.87-2.05,5.9-1.21,2.31,1.86,1.15,5.77-.69,7-.82.57-2.38,1.41-2.38,1.41,14.33-2.72,20.3-15.64,20.09-26a43.62,43.62,0,0,0-1.13-9.45,10.17,10.17,0,0,0,.46-3,9.87,9.87,0,0,0-6.82-9.53,9.61,9.61,0,0,0-9.34-8.32,9.1,9.1,0,0,0-4,.91l-.48-.12a10,10,0,0,0-15.36-2.37,13.65,13.65,0,0,0-11-5.81c-7.86,0-14.23,7.17-14.23,16a16.59,16.59,0,0,0,6.29,13.29A15.94,15.94,0,0,0,386,432"/><path class="cls-16" d="M309.25,480l-3.56-2.53-6.63-10.78c-.45-1.46-4.88-9.66-5.52-5.87-.46,2.67.41,8.87.15,8.92-3.38.77-18-8.86-18.31-8.8-4.43.79,4.49,7.44,5.95,8.64.38.31-7.16-3.21-7.17-2.74a3.78,3.78,0,0,0,1.55,3.36c2,1.57,5.91,3.7,6,4.32s-7.23-2.84-7.13-2.25a3.34,3.34,0,0,0,1.51,2.34c2.13,1.57,5.85,3.31,6.08,4s-4.83-2.14-4.57-1.55-.35,1.13,0,1.45c9.93,8.63,14.81,4,25.92,14.22,4.62,4.23,6.9-3,7.36-8.22.13-1.43-.18-3.62-1.62-4.47"/><path class="cls-11" d="M167.52,541l19.86,164.23L177.26,860.37l1,1.37.78,1c.62.82,1.23,1.59,1.85,2.31.28.33.55.65.84,1,4.56,5,10.44,6.24,15.27,7.41,3.73.92,6.61,1.36,9.15,6.36a2.07,2.07,0,0,1,.18.47,2.84,2.84,0,0,1-2.8,3.63l-44.26-1.38a4.26,4.26,0,0,1-4.14-3.8,3.87,3.87,0,0,1,0-.9l3-19.32a.45.45,0,0,1,0-.08c-1.08-37.72-9.61-93-2.62-137,0,0-41.8-82.66-41.63-84.66S167.52,541,167.52,541"/><path class="cls-11" d="M139.51,688.64c-1.92,16.6,9.66,26.45,7.74,43.05,0,41.57-29.15,89.46-39,131.43-.33,1.39,2.15,14.59,1.87,16-4.38,4.68-16.84,11.28-18.18-10.29,5.58-36.25,12.51-94.81,26.87-138.9l-9.07-44Z"/><path class="cls-12" d="M198.83,597.62c9.58,31.78,4.57,92.8-.4,145-36,9.23-88.85,6.73-102.06-4.43,8.81-68.1,13.3-133.53,27.39-145.58,29.68-69.36,70.72-12.61,75.07,5"/><path class="cls-35" d="M101.45,489.73c-8.46,34.49,25.4,38.82,17.73,108.46,25.37,3.52,58.81,4.5,80.62-.87-3.49-25.63,6.75-62.24,1-82-5.39-18.44-13.09-33.51-32.07-37.59-27.65-5.94-56-4.67-67.24,12"/><polygon class="cls-1" points="136.11 535.44 150.95 558.06 191.5 574.72 182.5 576.14 144.47 569.14 134.23 559.08 136.11 535.44"/><path class="cls-16" d="M160.48,469l.16,8.36,1.22,1c4.76,5.11-.4,15.6-5.83,15.27-13.73.68-24.27-10.58-20.14-16.69l1.79-2,.4-11.84c-.71,0-5.87-3-7.4-3.44s-3.79-3.43-3.94-6.55,4.67-2.11,4.67-2.11c-5.84-8-12.46-14.53-3.88-21.73s28.29-11.41,28.29-11.41l11.87-4.11c-1.51,4.09.51,17.75,3.55,26.28,4.33,12.12,1.93,22.85-10.76,28.93"/><path class="cls-17" d="M143.67,464.78s6.71,11.51,12.22,12.56,2.69.27,4.75,0l-.16-8.36c-3.79.61-7.51.31-16.81-4.22"/><path class="cls-35" d="M108.84,482.32c-30.44,12.62,8.69,90.93,17.18,99.35,6,11.08,61.56,15.65,90,16.36,7.75-6.08,7.29-12.93,1.66-16.58-12.54-3.09-70.81-17.83-71.6-21.61-1.45-.49-17.49-80.65-37.27-77.52"/><path class="cls-12" d="M145.55,436.68s17,.58,23.37-4.92c13.31-11.44,5.21-38.73-28.82-28.62-27.07,8-19.16,36.78-46.79,48.13-22.33,9.16-29.46,28.94-17.6,49.54.06,0,5.33-15.39,12.56-16.31-9,13.46,5.7,31.6,11.25,36.89C88.91,481.83,117.1,474.52,136.85,477c12.57-9.22-10.49-37.44,8.7-40.32"/><path class="cls-12" d="M195.65,872s15.41,4.27,14.72,9c-1.4,9.59-54.3,3.26-54.59,2.91-1.87-2.33-2.09-13.16.43-16.39,1.88-2.4,22.58,10.45,39.44,4.46"/><path class="cls-12" d="M115,885.8c-.34,6.16-23.09,4.17-26.44,2.32-5-2.75.84-16.22,3.47-19.75,0,0,5.8,9.14,12.66,7.29s4.45-3.88,5.63-1.57c2.19,4.33,5,6,4.68,11.71"/><path class="cls-16" d="M220.18,584.19l3.85.72,11.11-2.46c1.22-.61,9.28-2.87,7.23-.09-1.43,1.95-6,5.26-5.85,5.47,1.62,2.66,17,6.08,17.12,6.32,2.26,3.36-7.61,1.76-9.29,1.56-.45-.05,6.54,2.62,6.24,2.92a3.37,3.37,0,0,1-3.14,1.09c-2.27-.32-6.07-1.5-6.51-1.15s6.35,2.89,5.9,3.19a2.93,2.93,0,0,1-2.45.5c-2.35-.4-5.8-1.71-6.36-1.46s4.4,1.79,3.86,2-.51.94-.95.9c-11.78-1-11.85-7-25.37-7.86-5.63-.34-2.35-6.35.71-9.89.84-1,2.45-2.14,3.9-1.74"/><path class="cls-1" d="M119.56,598.24c4.62.63,9.51,1.18,14.55,1.63a289.11,289.11,0,0,0,40.63.85,143.54,143.54,0,0,0,24.08-3.17l.93-.22-1-.06c-7.84-.48-16.33-1.16-24.67-2.08-12.65-1.4-24.92-3.35-34-5.94-5.44-1.56-9.72-3.35-12.2-5.4a7.24,7.24,0,0,1-1.89-2.18,47,47,0,0,1-5.8-8.47,169.2,169.2,0,0,1-1,25l.38,0"/></g></g></svg>