<?xml version="1.0" encoding="utf-8"?>
<!-- Generator: Adobe Illustrator 26.0.3, SVG Export Plug-In . SVG Version: 6.00 Build 0)  -->
<svg version="1.1" id="Layer_1" xmlns="http://www.w3.org/2000/svg" xmlns:xlink="http://www.w3.org/1999/xlink" x="0px" y="0px"
	 viewBox="0 0 600 455.1" style="enable-background:new 0 0 600 455.1;" xml:space="preserve">
<style type="text/css">
	.st0{fill:#9EC0FF;}
	.st1{fill:#5181DB;}
	.st2{fill:#FFFFFF;}
	.st3{fill:none;stroke:#9EC0FF;stroke-width:0.76;stroke-miterlimit:10;}
	.st4{fill:none;stroke:#89A4D9;stroke-miterlimit:10;}
	.st5{fill:#2E6ADB;}
	.st6{fill:#89A4D9;}
	.st7{fill:none;stroke:#FFFFFF;stroke-width:1.15;stroke-miterlimit:10;}
	.st8{fill:none;stroke:#FFFFFF;stroke-miterlimit:10;}
	.st9{fill:none;stroke:#B8D0FF;stroke-miterlimit:10;}
	.st10{fill:none;stroke:#2E6ADB;stroke-width:2;stroke-miterlimit:10;}
	.st11{fill:#B8D0FF;}
	.st12{fill:none;stroke:#89A4D9;stroke-width:0.88;stroke-miterlimit:10;}
	.st13{fill:none;stroke:#89A4D9;stroke-width:0.76;stroke-miterlimit:10;}
	.st14{fill:none;stroke:#FFFFFF;stroke-width:0.88;stroke-miterlimit:10;}
	.st15{fill:none;stroke:#FFFFFF;stroke-width:0.75;stroke-linecap:round;stroke-linejoin:round;}
	.st16{fill:#E8F0FF;}
	.st17{fill:#141D30;}
	.st18{fill:#14387B;}
	.st19{fill:#DEDEDE;}
	.st20{fill:#ABABAB;}
	.st21{fill:#142F61;}
	.st22{fill:none;stroke:#141D30;stroke-width:0.76;stroke-miterlimit:10;}
	.st23{fill:#496EB5;}
	.st24{fill:none;stroke:#496EB5;stroke-width:0.69;stroke-miterlimit:10;}
	.st25{fill:#FF8C8C;}
	.st26{fill:#D45151;}
	.st27{fill:none;stroke:#D45151;stroke-miterlimit:10;}
	.st28{fill:#125EC9;}
	.st29{fill:none;stroke:#FF8C8C;stroke-width:0.71;stroke-miterlimit:10;}
	.st30{fill:none;stroke:#142F61;stroke-width:0.75;stroke-miterlimit:10;}
	.st31{fill:none;stroke:#142F61;stroke-miterlimit:10;}
	.st32{fill:#0E4899;}
</style>
<g id="Layer_2_00000073691455374431548660000004744170324896043699_">
	<g id="OBJECTS">
		<rect x="461.4" y="145.6" class="st0" width="85.4" height="58.2"/>
		<polygon class="st1" points="537.5,216.6 531.7,212.6 525.9,216.6 525.9,195.6 537.5,195.6 		"/>
		<circle class="st1" cx="531.7" cy="194.7" r="8.5"/>
		
			<ellipse transform="matrix(0.1602 -0.9871 0.9871 0.1602 255.5622 687.2972)" class="st2" cx="531.7" cy="193.5" rx="8.5" ry="8.5"/>
		<path class="st3" d="M537.7,193.4c0,3.3-2.7,6-6,6s-6-2.7-6-6s2.7-6,6-6S537.7,190.1,537.7,193.4z"/>
		<line class="st4" x1="468.3" y1="165.7" x2="537.7" y2="165.7"/>
		<line class="st4" x1="487" y1="160.3" x2="518.9" y2="160.3"/>
		<line class="st4" x1="468.3" y1="171.1" x2="537.7" y2="171.1"/>
		<line class="st4" x1="468.3" y1="176.5" x2="537.7" y2="176.5"/>
		<line class="st4" x1="468.3" y1="181.9" x2="537.7" y2="181.9"/>
		<line class="st4" x1="488.1" y1="187.2" x2="517.9" y2="187.2"/>
		<rect x="495.9" y="238.9" class="st5" width="13.8" height="66.6"/>
		<rect x="479" y="251.2" class="st0" width="13.8" height="54.3"/>
		<rect x="462.2" y="243.9" class="st6" width="13.8" height="61.6"/>
		<rect x="445.4" y="271.5" class="st1" width="13.8" height="34"/>
		<rect x="428.6" y="287.4" class="st2" width="13.8" height="18.1"/>
		<polyline class="st7" points="517.2,309 425.5,309 425.5,236.7 		"/>
		<path class="st0" d="M502.2,41.7c-25.7,0-46.5,20.8-46.5,46.5s20.8,46.5,46.5,46.5c25.7,0,46.5-20.8,46.5-46.5c0,0,0,0,0,0
			C548.7,62.5,527.9,41.7,502.2,41.7z M502.2,126.9c-21.4,0-38.8-17.4-38.8-38.8s17.4-38.8,38.8-38.8c21.4,0,38.8,17.4,38.8,38.8
			C541,109.6,523.7,127,502.2,126.9C502.3,127,502.2,127,502.2,126.9L502.2,126.9z"/>
		<path class="st0" d="M503.8,54.3c0,1-0.8,1.9-1.9,1.9c-1,0-1.9-0.8-1.9-1.9c0-1,0.8-1.9,1.9-1.9S503.8,53.2,503.8,54.3
			C503.8,54.3,503.8,54.3,503.8,54.3z"/>
		<path class="st0" d="M503.8,122.1c0,1-0.9,1.9-1.9,1.9c-1,0-1.9-0.9-1.9-1.9c0-1,0.9-1.9,1.9-1.9C503,120.2,503.8,121,503.8,122.1
			C503.8,122.1,503.8,122.1,503.8,122.1z"/>
		<path class="st0" d="M486.7,58c0.5,0.9,0.2,2.1-0.7,2.6c-0.9,0.5-2.1,0.2-2.6-0.7l0,0c-0.5-0.9-0.2-2.1,0.7-2.6
			C485,56.8,486.2,57.1,486.7,58z"/>
		<path class="st0" d="M520.6,116.7c0.5,0.9,0.2,2.1-0.7,2.6s-2.1,0.2-2.6-0.7l0,0c-0.5-0.9-0.2-2.1,0.7-2.6
			S520.1,115.8,520.6,116.7z"/>
		<path class="st0" d="M473.7,69.7c0.9,0.5,1.3,1.6,0.8,2.6c-0.5,0.9-1.6,1.3-2.6,0.8c0,0-0.1,0-0.1-0.1c-0.9-0.5-1.2-1.7-0.7-2.6
			C471.6,69.5,472.8,69.2,473.7,69.7L473.7,69.7L473.7,69.7z"/>
		<path class="st0" d="M532.4,103.7c0.9,0.5,1.2,1.7,0.7,2.6c-0.5,0.9-1.7,1.2-2.6,0.7c-0.9-0.5-1.2-1.7-0.7-2.6
			C530.4,103.4,531.5,103.1,532.4,103.7z"/>
		<path class="st0" d="M468.3,86.4c1,0,1.9,0.8,1.9,1.9c0,1-0.8,1.9-1.9,1.9c-1,0-1.9-0.8-1.9-1.9c0,0,0,0,0,0
			C466.4,87.3,467.3,86.4,468.3,86.4z"/>
		<path class="st0" d="M536.1,86.4c1,0,1.9,0.9,1.9,1.9c0,1-0.9,1.9-1.9,1.9c-1,0-1.9-0.9-1.9-1.9c0,0,0,0,0,0
			C534.2,87.3,535.1,86.4,536.1,86.4C536.1,86.4,536.1,86.4,536.1,86.4z"/>
		<path class="st0" d="M472,103.6c0.9-0.5,2.1-0.2,2.6,0.7c0.5,0.9,0.2,2.1-0.7,2.6s-2.1,0.2-2.6-0.7
			C470.8,105.3,471.1,104.1,472,103.6L472,103.6z"/>
		<path class="st0" d="M530.7,69.7c0.9-0.5,2.1-0.2,2.6,0.7c0.5,0.9,0.2,2.1-0.7,2.6c-0.9,0.5-2.1,0.2-2.6-0.7c0,0,0,0,0,0
			C529.5,71.3,529.8,70.2,530.7,69.7z"/>
		<path class="st0" d="M483.8,116.6c0.5-0.9,1.7-1.2,2.6-0.7c0.9,0.5,1.2,1.7,0.7,2.6c-0.5,0.9-1.7,1.2-2.6,0.7
			C483.6,118.6,483.2,117.5,483.8,116.6z"/>
		<path class="st0" d="M517.7,57.8c0.5-0.9,1.7-1.2,2.6-0.7s1.2,1.7,0.7,2.6c-0.5,0.9-1.7,1.2-2.6,0.7c0,0,0,0,0,0
			C517.5,59.9,517.2,58.7,517.7,57.8C517.7,57.8,517.7,57.8,517.7,57.8z"/>
		<polyline class="st8" points="502.2,58.8 502.2,88.2 485,99.2 		"/>
		<circle class="st0" cx="502.2" cy="88.2" r="3.2"/>
		<rect x="396.2" y="83.1" class="st2" width="77.3" height="93.5"/>
		<line class="st9" x1="407" y1="95.1" x2="430.4" y2="95.1"/>
		<line class="st9" x1="407" y1="101.7" x2="462.7" y2="101.7"/>
		<line class="st9" x1="407" y1="108.4" x2="462.7" y2="108.4"/>
		<line class="st9" x1="407" y1="115" x2="462.7" y2="115"/>
		<line class="st9" x1="407" y1="121.7" x2="462.7" y2="121.7"/>
		<line class="st9" x1="407" y1="128.4" x2="462.7" y2="128.4"/>
		<line class="st9" x1="407" y1="135" x2="462.7" y2="135"/>
		<line class="st9" x1="407" y1="141.7" x2="462.7" y2="141.7"/>
		<line class="st9" x1="407" y1="148.3" x2="462.7" y2="148.3"/>
		<line class="st9" x1="407" y1="155" x2="462.7" y2="155"/>
		<line class="st9" x1="407" y1="161.6" x2="430.4" y2="161.6"/>
		<path class="st10" d="M455.9,78.6v23c0,2.9-2.3,5.2-5.2,5.2l0,0l0,0c-2.9,0-5.2-2.3-5.2-5.2c0,0,0,0,0,0v-24c0-4.4,3.6-7.9,8-7.9
			l0,0c4.4,0,7.9,3.6,7.9,7.9c0,0,0,0,0,0V83"/>
		<path class="st0" d="M196.2,56l22.5,2.2c1.5-15.1-5.7-29.7-18.5-37.8l-12,19.1C193.7,43.1,196.8,49.5,196.2,56z"/>
		<path class="st5" d="M193.6,63.6c-5.1,8.1-15.9,10.6-24,5.5c-1.9-1.2-3.5-2.7-4.8-4.5l-18.3,13.3c13,17.8,38,21.8,55.9,8.7
			c9.2-6.7,15.1-17,16.2-28.3l-22.5-2.2C195.9,58.7,195,61.3,193.6,63.6z"/>
		<path class="st1" d="M146.5,77.9l18.2-13.3c-1.5-2.1-2.5-4.5-3-7.1l-22.2,4.1C140.6,67.4,143,73,146.5,77.9z"/>
		<path class="st6" d="M164.1,45c3.7-5.9,10.6-9,17.4-7.9l3.5-22.3c-21.8-3.4-42.3,11.5-45.7,33.4c-0.7,4.4-0.6,9,0.2,13.4l22.2-4.1
			C160.9,53.2,161.7,48.7,164.1,45z"/>
		<path class="st2" d="M181.5,37.1c2.3,0.4,4.6,1.2,6.6,2.5l12-19.1c-4.6-2.9-9.7-4.8-15.1-5.7L181.5,37.1z"/>
		<rect x="82.2" y="205.1" class="st2" width="86.3" height="114"/>
		<path class="st11" d="M96.5,306.9c-3.7-8.2-8.5-15.9-14.3-22.8v35h74.2C141.4,306.9,120.4,300.8,96.5,306.9z"/>
		<line class="st9" x1="89.5" y1="269.8" x2="161.2" y2="269.8"/>
		<line class="st9" x1="89.5" y1="276" x2="161.2" y2="276"/>
		<line class="st9" x1="89.5" y1="282.2" x2="161.2" y2="282.2"/>
		<line class="st9" x1="89.5" y1="288.4" x2="161.2" y2="288.4"/>
		<line class="st9" x1="89.5" y1="294.5" x2="161.2" y2="294.5"/>
		<line class="st9" x1="89.5" y1="300.7" x2="161.2" y2="300.7"/>
		<rect x="89.5" y="218" class="st11" width="15.2" height="8.6"/>
		<rect x="108.3" y="218" class="st11" width="15.2" height="8.6"/>
		<rect x="127.2" y="218" class="st11" width="15.2" height="8.6"/>
		<rect x="146" y="218" class="st11" width="15.2" height="8.6"/>
		<rect x="89.5" y="229.9" class="st11" width="15.2" height="8.6"/>
		<rect x="108.3" y="229.9" class="st11" width="15.2" height="8.6"/>
		<rect x="127.2" y="229.9" class="st11" width="15.2" height="8.6"/>
		<rect x="146" y="229.9" class="st11" width="15.2" height="8.6"/>
		<rect x="89.5" y="241.9" class="st11" width="15.2" height="8.6"/>
		<rect x="108.3" y="241.9" class="st11" width="15.2" height="8.6"/>
		<rect x="127.2" y="241.9" class="st11" width="15.2" height="8.6"/>
		<rect x="146" y="241.9" class="st11" width="15.2" height="8.6"/>
		<rect x="89.5" y="253.8" class="st11" width="15.2" height="8.6"/>
		<rect x="108.3" y="253.8" class="st11" width="15.2" height="8.6"/>
		<rect x="127.2" y="253.8" class="st11" width="15.2" height="8.6"/>
		<rect x="146" y="253.8" class="st11" width="15.2" height="8.6"/>
		<rect x="104" y="161.3" class="st6" width="123.4" height="4.7"/>
		<polygon class="st2" points="181.5,166 92.4,166 79.8,106.7 168.9,106.7 		"/>
		<line class="st12" x1="166" y1="108.1" x2="178.3" y2="166"/>
		<path class="st13" d="M138.5,135.7c1,4.7-2.5,8.5-7.9,8.5s-10.4-3.8-11.4-8.5s2.5-8.5,7.8-8.5C132.3,127.2,137.5,131,138.5,135.7z
			"/>
		<path class="st0" d="M115.7,60H63.2c-5.7,0-10.2,4.6-10.2,10.3v23.4c0,5.7,4.6,10.2,10.2,10.3h14.1c2.9,0,5.4,1.9,6.1,4.7l6,22.6
			l6-22.6c0.7-2.8,3.2-4.7,6.1-4.7h14.1c5.7,0,10.3-4.6,10.3-10.2c0,0,0,0,0,0V70.3C126,64.7,121.4,60,115.7,60
			C115.7,60,115.7,60,115.7,60z"/>
		<rect x="72.2" y="71" class="st14" width="37.2" height="24.7"/>
		<polyline class="st14" points="74.8,73.6 90.8,85.7 106.7,73.6 		"/>
		<line class="st14" x1="93.9" y1="83.3" x2="106.7" y2="93.1"/>
		<line class="st14" x1="74.8" y1="93.1" x2="87.7" y2="83.4"/>
		<path class="st5" d="M80.2,71c0,3.9-3.2,7.1-7.1,7.1C69.2,78.1,66,75,66,71c0-3.9,3.2-7.1,7.1-7.1c0,0,0,0,0,0
			C77.1,63.9,80.2,67.1,80.2,71z"/>
		<polyline class="st15" points="68.8,70.3 72.2,73.2 77.4,68.8 		"/>
		<polygon class="st1" points="383.5,33.6 388.9,63.4 438.4,63.4 433,33.6 		"/>
		<rect x="389.1" y="24.1" class="st2" width="48.7" height="39.3"/>
		<polygon class="st0" points="419.6,29.3 414.3,36 393.8,36 389.1,63.4 438.6,63.4 444.4,29.3 		"/>
		<circle class="st5" cx="61.6" cy="176.6" r="11.2"/>
		
			<ellipse transform="matrix(0.2287 -0.9735 0.9735 0.2287 332.9945 470.5874)" class="st5" cx="463.5" cy="25.2" rx="11.2" ry="11.2"/>
		
			<ellipse transform="matrix(0.2309 -0.973 0.973 0.2309 172.8294 710.9999)" class="st5" cx="536.2" cy="246.2" rx="11.2" ry="11.2"/>
		<circle class="st5" cx="200.9" cy="116.5" r="11.2"/>
		<circle class="st5" cx="301.5" cy="395.5" r="11.2"/>
		<path class="st2" d="M0,455.1h278c-0.4-40.4-45.6-79.4-97.9-79.2c-2-35.9-37.1-70.1-83.6-58.1C80.8,282.5,42.1,255.5,0,256.3
			V455.1z"/>
		<path class="st16" d="M0,455.1h219.5c-0.6-22.5-34.4-44.8-71.5-44.8c-15.8-36.9-47.2-46.9-87.7-39.6C46.2,339.7,16,335.8,0,336.1
			V455.1z"/>
		<path class="st2" d="M600,455.1H322c0.4-40.4,45.6-79.4,97.9-79.2c2-35.9,37.1-70.1,83.6-58.1c15.7-35.2,54.4-62.3,96.5-61.4
			L600,455.1z"/>
		<path class="st16" d="M600,455.1H380.5c0.6-22.5,34.4-44.8,71.5-44.8c15.8-36.9,47.2-46.9,87.7-39.6c14.1-31,44.3-34.9,60.3-34.6
			V455.1z"/>
		<circle class="st8" cx="300.1" cy="68.9" r="68.4"/>
		<circle class="st8" cx="300.1" cy="68.9" r="59.9"/>
		<polygon class="st17" points="300,221.2 185.1,244.3 300,316.5 415,244.3 		"/>
		<path class="st18" d="M356.6,223.6l-4.1-8.5l22.1-98l-57.4-17.3h-34.3l-57.4,17.2l22.1,98l-4.1,8.5l-22.9,12.5l53.3,38
			c6.6,3.9,15.1,1.8,19.1-4.8c0.7-1.1,1.2-2.3,1.5-3.5l5.5-20.5l5.6,20.6c2,7.4,9.7,11.8,17.1,9.8c1.2-0.3,2.4-0.8,3.5-1.5l53.3-38
			L356.6,223.6z"/>
		<polygon class="st19" points="282.9,102.2 317.2,102.2 300,185 		"/>
		<polygon class="st20" points="283.3,104.1 306.1,183.3 295.8,190.3 		"/>
		<path class="st17" d="M343.5,129.9c0,0-10.7-19.2-26.3-27.7L300,185l-17.1-82.8c-15.6,8.6-26.3,27.7-26.3,27.7l15.5,9l-15.5-0.3
			c0,0,13.8,31.2,47.1,60.6c8.5-9.6,29.4-34.8,39.8-60.6l-15.5,0.3L343.5,129.9z"/>
		<polygon class="st2" points="284.2,95.7 315.8,95.7 300,110.7 		"/>
		<path class="st21" d="M317.2,68.5c0,0,2-7.3,3.4-13.7s-1.7-9.4-4.1-10.5c-2.1-11.4-9.9-16.1-17.6-16.1c-0.4,0-0.7,0.3-0.7,0.7
			c0,0.2,0.1,0.5,0.3,0.6c1.8,1.2,3.2,2.8,4.1,4.7c-6.8-1.2-13.7,0-19.7,3.4c-9.8,5.7-8,9.9-3.4,12.6c0.3,6.1,1.3,12.2,2.9,18.2
			L317.2,68.5z"/>
		<path class="st22" d="M300,185c2.1,9.6,4.9,19,8.4,28.1l-7.7,29.7"/>
		<circle class="st19" cx="300.1" cy="212.9" r="3.1"/>
		<path class="st19" d="M296.9,241.1c0,1.7-1.4,3.1-3.1,3.1c-1.7,0-3.1-1.4-3.1-3.1c0-1.7,1.4-3.1,3.1-3.1
			C295.5,238,296.9,239.4,296.9,241.1z"/>
		<line class="st22" x1="286.7" y1="194.9" x2="301.8" y2="208.2"/>
		<line class="st22" x1="298.5" y1="217.7" x2="287.8" y2="224.7"/>
		
			<rect x="263.9" y="215.6" transform="matrix(0.256 -0.9667 0.9667 0.256 -24.9902 428.6732)" class="st23" width="4.1" height="30"/>
		
			<rect x="317" y="229.1" transform="matrix(0.9659 -0.2589 0.2589 0.9659 -48.5285 93.847)" class="st23" width="30.1" height="4.1"/>
		<polygon class="st2" points="343,325.6 364.7,338 360.6,364.1 333.1,347.8 		"/>
		<path class="st17" d="M358,332.9l1.4,20.6l-5-3.9l-10,8.7l10.7,7l8.3,21.9l3.7,13.6c0.4,1.3,1.7,2.1,3,1.7
			c0.4-0.1,0.8-0.3,1.1-0.6c4.8-4.8,7.5-11.2,7.7-18c0.3-9.1-0.5-18.2-2.5-27.1l3.9,0.6l1.5-17.6l-4.1-0.3
			C372.3,334.6,365.2,332.2,358,332.9z"/>
		<path class="st18" d="M159.9,265.8c4.1-21.3,33.4-30,61.1-15.1s128.6,71,128.6,71l-17.1,44.6c-11-3.7-12.1-8.8-21-12
			c-7.3-2.7-9.4,0.7-21-3.2s-15.3-8.2-21.9-10.5c-10.5-3.7-20.4-2.6-30.1-5.9c-16.5-5.6-30.6-10.4-37.8-12.9
			C171.5,311.5,155.7,287.2,159.9,265.8z"/>
		<path class="st17" d="M324.3,356.4l10.2-43.2l8.4,4.7L324.3,356.4z"/>
		<line class="st22" x1="342.9" y1="326.9" x2="237.4" y2="259.6"/>
		<line class="st24" x1="376.9" y1="341.4" x2="375.7" y2="354.5"/>
		<path class="st23" d="M332.5,366.3c-3.6-1.2-7.1-3-10.1-5.3l18-44.5l9.2,5.1L332.5,366.3z"/>
		<path class="st17" d="M380.4,355l1.2-15.2l-4.1-0.3c-5.2-5-12.3-7.4-19.5-6.6l0.1,1.3l-10.9-6.2l2.4-6.4c0,0-32.2-17.9-65.2-36.1
			l-66.3,42.1l20.4,6.9c9.8,3.3,19.6,2.3,30.1,5.9c6.6,2.3,10.4,6.6,21.9,10.5s13.7,0.6,21,3.2c8.8,3.2,10,8.3,21,12l5.9-15.4
			l8.5,5.1l-2.6,2.2l10.7,7l0.3,0.8l20.9-9.2l0,0L380.4,355z"/>
		<path class="st18" d="M440.2,265.8c-4.1-21.3-33.4-30-61.1-15.1s-128.6,71-128.6,71l17.1,44.6c11-3.7,12.1-8.8,21-12
			c7.3-2.7,9.4,0.7,21-3.2s15.3-8.2,21.9-10.5c10.5-3.7,20.4-2.6,30.1-5.9c16.5-5.6,30.6-10.4,37.8-12.9
			C428.6,311.5,444.3,287.2,440.2,265.8z"/>
		<path class="st17" d="M275.8,356.4l-10.2-43.2l-8.4,4.7L275.8,356.4z"/>
		<line class="st22" x1="257.2" y1="326.9" x2="362.7" y2="259.6"/>
		<polygon class="st2" points="257,325.6 235.3,338 239.5,364.1 267,347.8 		"/>
		<path class="st17" d="M242,332.9l-1.4,20.6l5-3.9l10,8.7l-10.7,7l-8.3,21.9l-3.6,13.6c-0.4,1.3-1.7,2.1-3,1.7
			c-0.4-0.1-0.8-0.3-1.1-0.6c-4.8-4.8-7.5-11.2-7.7-18c-0.3-9.1,0.5-18.2,2.5-27.1l-3.9,0.6l-1.4-17.6l4.1-0.3
			C227.8,334.6,234.9,332.2,242,332.9z"/>
		<line class="st24" x1="223.2" y1="341.4" x2="224.4" y2="354.5"/>
		<path class="st23" d="M267.5,366.3c3.6-1.2,7.1-3,10.1-5.3l-18-44.5l-9.2,5.1L267.5,366.3z"/>
		<path class="st20" d="M126.1,214.5c-5.7-3.1,6.1-30.8,6.1-30.8l9.9,4.3C142.1,188.1,131.9,217.7,126.1,214.5z"/>
		<path class="st25" d="M146.3,189.9l-21.8-9.4c0.7-4.1-0.7-8.3-3.7-11.2c-2.1-1.9-4.3-3.7-6.5-5.4l-2.3,2.1l3.9,4.6l-0.1,5.8h-10.6
			l-12.3-3.8l-0.9,3l-1.4-0.7l-1.6,4.3l2.6,1.6l-1.2,3.1l5.3,3.9l5.9,1.3L95,189l-3.8-2.3l-0.8,2.3l4.8,2.8c7.4,2.6,15.3,3,22.9,1.3
			l19.9,16.8L146.3,189.9z"/>
		<path class="st26" d="M138.1,209.9l8.2-20l-17-7.3c1.5,5.9,1.5,12.5,0.4,20.3L138.1,209.9z"/>
		<path class="st17" d="M128.1,230.6c-5-2.7,2.7-17.6,2.7-17.6l16.2,6.9C147,219.8,133.6,233.6,128.1,230.6z"/>
		<path class="st2" d="M150,190.9l-12.1-4.7c0,0-3.5,25.3-11.8,28.4l23.9,15.1V190.9z"/>
		<path class="st17" d="M209.6,248c0.5-0.5,0.9-1.1,1.1-1.8c-21.8-7.2-42.4-0.8-49.1,14.1C174.6,270.2,199.2,259.1,209.6,248z"/>
		<path class="st18" d="M225.5,117.1l14.6,64.8L222,231.4c-6.9,18.9-27.8,28.5-46.7,21.6c-1.1-0.4-2.1-0.8-3.1-1.3l-44.1-21.1
			c0,0,10.7,2.8,21.9-39.6l30.1,12.9l32.6-61.6C212.7,142.2,212.7,131.4,225.5,117.1z"/>
		<line class="st22" x1="139.9" y1="219" x2="172" y2="234.8"/>
		<circle class="st19" cx="150.4" cy="216.6" r="2.2"/>
		<path class="st19" d="M165.2,223.4c0,1.2-1,2.2-2.2,2.2s-2.2-1-2.2-2.2s1-2.2,2.2-2.2h0C164.2,221.2,165.2,222.2,165.2,223.4z"/>
		<line class="st22" x1="180.1" y1="203.8" x2="199.4" y2="212.5"/>
		<line class="st22" x1="185.1" y1="203" x2="205" y2="203.8"/>
		<path class="st17" d="M230,137.2c-1.3,4.2-4.3,16.9-1.6,36.6c0.3,2.4,0.1,4.9-0.6,7.3c-4.6,13.8-1.3,26.8,0.7,32.4l11.6-31.6
			L230,137.2z"/>
		<polyline class="st27" points="92,175.5 104.3,179.9 108.6,180.3 		"/>
		<polyline class="st27" points="91.7,180.7 99.9,184.3 107.2,184.9 		"/>
		<line class="st27" x1="109.2" y1="178.6" x2="106.6" y2="187.8"/>
		<path class="st27" d="M108.6,186.9c2.7-2.1,7.7-4.4,12.3-1.4"/>
		<path class="st20" d="M474,214.5c5.7-3.1-6.1-30.8-6.1-30.8l-10,4.3C457.9,188.1,468.2,217.7,474,214.5z"/>
		<path class="st25" d="M453.8,189.9l21.8-9.4c-0.7-4.1,0.7-8.3,3.7-11.2c2.1-1.9,4.3-3.7,6.5-5.4l2.2,2.1l-3.9,4.6l0.1,5.8h10.6
			l12.3-3.8l0.9,2.9l1.4-0.7l1.5,4.3l-2.6,1.6l1.2,3.1l-5.3,3.9l-5.9,1.3l6.7,0.1l3.8-2.3l0.8,2.3l-4.8,2.8
			c-7.4,2.6-15.3,3-22.9,1.3L462,209.9L453.8,189.9z"/>
		<path class="st26" d="M462,209.9l-8.2-20l17-7.3c-1.5,5.9-1.5,12.5-0.4,20.3L462,209.9z"/>
		<path class="st17" d="M472,230.6c5-2.7-2.7-17.6-2.7-17.6l-16.2,6.9C453.1,219.8,466.5,233.6,472,230.6z"/>
		<path class="st2" d="M450.1,190.9l12.1-4.7c0,0,3.5,25.3,11.8,28.4l-23.9,15.1V190.9z"/>
		<path class="st17" d="M390.5,248c-0.5-0.5-0.9-1.1-1.1-1.8c21.8-7.2,42.4-0.8,49.1,14.1C425.5,270.2,400.9,259.1,390.5,248z"/>
		<path class="st18" d="M374.6,117.1L360,181.9l18.1,49.4c6.9,18.9,27.8,28.5,46.7,21.6c1.1-0.4,2.1-0.8,3.1-1.3l44-21.1
			c0,0-10.7,2.8-21.9-39.6L420,203.8l-32.6-61.6C387.4,142.2,387.4,131.4,374.6,117.1z"/>
		<line class="st22" x1="460.2" y1="219" x2="428" y2="234.8"/>
		<circle class="st19" cx="449.7" cy="216.6" r="2.2"/>
		<path class="st19" d="M434.9,223.4c0,1.2,1,2.2,2.2,2.2s2.2-1,2.2-2.2c0-1.2-1-2.2-2.2-2.2l0,0
			C435.9,221.2,434.9,222.2,434.9,223.4z"/>
		<line class="st22" x1="420" y1="203.8" x2="400.7" y2="212.5"/>
		<line class="st22" x1="415" y1="203" x2="395.1" y2="203.8"/>
		<path class="st17" d="M370,137.2c1.3,4.2,4.3,16.9,1.6,36.6c-0.3,2.4-0.1,4.9,0.6,7.3c4.6,13.8,1.3,26.8-0.7,32.4L360,181.9
			L370,137.2z"/>
		<polyline class="st27" points="508.1,175.5 495.8,179.9 491.5,180.3 		"/>
		<polyline class="st27" points="508.4,180.7 500.2,184.3 492.9,184.9 		"/>
		<line class="st27" x1="490.9" y1="178.6" x2="493.5" y2="187.8"/>
		<path class="st27" d="M491.5,186.9c-2.7-2.1-7.7-4.4-12.3-1.4"/>
		<polygon class="st25" points="311.7,77.8 300,77.8 288.3,77.8 287.1,99.7 300,107.3 312.9,99.7 		"/>
		<polygon class="st28" points="303.1,113.5 296.9,113.5 293.9,103.4 306.1,103.4 		"/>
		<path class="st26" d="M304.5,93c2.8-0.1,5.5-0.7,8-1.8l-0.7-13.4h-23.4l-0.4,6.7C291.8,89.6,297.9,92.8,304.5,93z"/>
		<ellipse transform="matrix(0.8881 -0.4596 0.4596 0.8881 -0.426 137.4886)" class="st26" cx="282.2" cy="69.6" rx="5" ry="5.8"/>
		<path class="st29" d="M279.3,68.8c0.7-3.1,4.1-3.4,6.9,0.2"/>
		<path class="st26" d="M313.3,67.3c-1.5,2.9-0.7,6.2,1.8,7.5s5.7,0,7.2-2.9s0.7-6.2-1.8-7.5S314.8,64.4,313.3,67.3z"/>
		<path class="st29" d="M320.7,68.8c-0.7-3.1-4.1-3.4-6.9,0.2"/>
		<path class="st25" d="M315.8,61c-2-2.3-3-5.4-2.5-8.5l0,0c0.2-1.2-0.6-2.3-1.8-2.5c-0.1,0-0.2,0-0.3,0h-22.3c-1.2,0-2.1,1-2.1,2.2
			c0,0.1,0,0.2,0,0.3l0,0c0.5,3.1-0.4,6.2-2.5,8.5l-1.4,1.6c0.9,19.5,12.4,23.8,17.2,23.8s16.2-4.3,17.2-23.8L315.8,61z"/>
		<path class="st30" d="M289.5,63.3c1.5,2,4.7,1.9,6.9-0.2"/>
		<path class="st31" d="M288.4,58.7c2.6-1.6,5.8-1.6,8.3,0"/>
		<path class="st30" d="M310.5,63.3c-1.5,2-4.7,1.9-6.9-0.2"/>
		<path class="st31" d="M311.6,58.7c-2.6-1.6-5.8-1.6-8.3,0"/>
		<polyline class="st27" points="299.2,61.1 299.2,68.3 302.5,67.7 		"/>
		<path class="st31" d="M294.4,70.6c0,0,4.4,3,11.2,0"/>
		<line class="st27" x1="298.1" y1="75" x2="301.9" y2="75"/>
		<polygon class="st2" points="298.5,103.4 294.3,112.3 280.7,102.1 284.2,95.7 		"/>
		<polygon class="st2" points="301.5,103.4 305.7,112.3 319.3,102.1 315.8,95.7 		"/>
		<path class="st28" d="M303.1,113.5h-6.3c0,0,0.5,17.1,5.5,26.1c8.9,16.1,28.4,12.8,33.4,20.2s10.3,18.8,33.9,15.3l14.4-14.2
			l-15-6.9c0,0-10.2,4.3-17-3.4s-12.6-10.1-22-9.8S305.1,135.7,303.1,113.5z"/>
		<path class="st32" d="M304.1,119.5c-0.5-2-0.8-4-0.9-6h-6.3c0,0,0,0.2,0,0.6C299.5,115.5,301.9,117.4,304.1,119.5z"/>
	</g>
</g>
<rect x="-41.6" y="0.5" class="st18" width="33.5" height="33.5"/>
</svg>
