<svg xmlns="http://www.w3.org/2000/svg" viewBox="0 0 500 500.07"><defs><style>.cls-1{fill:#037cf9;}</style></defs><g id="Layer_2" data-name="Layer 2"><g id="Layer_1-2" data-name="Layer 1"><path class="cls-1" d="M58,250c-8,0-8.34,0-7.74-8.24,5.87-79.67,44.39-137.63,116.06-173.08,24.87-12.3,51.6-17.69,79.29-18.64,3.78-.13,4.78.93,4.45,4.52s1.09,7.89-.41,10.77c-1.77,3.41-6.49,1.26-9.88,1.54-62.52,5.15-111.21,33.69-145.25,86.46-17.27,26.76-25.88,56.49-27.62,88.22C66.43,250,66.56,250,58,250Z"/><path class="cls-1" d="M250,441.24c0-7.8,0-7.8,7.68-8.06,84.18-2.86,158-67,172.51-149.88,1.58-9.06,1.58-9.06,10.69-8.22,7.46.68,7.46.68,6.17,8.17A199.93,199.93,0,0,1,294,445a230.12,230.12,0,0,1-38.61,5c-4.12.23-6.24-.51-5.38-5.1A20.08,20.08,0,0,0,250,441.24Z"/><path class="cls-1" d="M466.57,225c0,9.89-.11,19.78.07,29.67.05,2.93-.77,3.7-3.71,3.74-13,.14-13,.25-13-12.58,0-16.66.1-33.31-.08-50,0-3.38.83-4.29,4.24-4.27,12.5.08,12.5-.06,12.5,12.59Z"/><path class="cls-1" d="M50.08,466.15c0,10.06-.12,20.13.07,30.18.06,3-.87,3.67-3.76,3.7-13,.14-13,.24-13-12.62,0-16.65.1-33.31-.09-50,0-3.47,1-4.25,4.29-4.23,12.46.08,12.46-.05,12.46,12.63Z"/><path class="cls-1" d="M500,177.74c.16-14.83-6.87-24.62-19.83-30.64-8.79-4.08-18.2-5.41-27.83-5.37-5.75,0-11.5,0-18.34,0,16.88-11.57,23.33-27.25,18.74-43.62C448.43,82.85,434.38,71.51,419,70.89c-17-.69-31.82,8.8-37.5,24.17a36.73,36.73,0,0,0-.14,26c3.16,8.7,9,15.27,16.9,20.54-15.19-1.09-29.68.76-43.73,6.44-8.31,3.36-17,5.65-25.52,8.65a11.31,11.31,0,0,1-8,0c-13.57-4.67-27.21-9.14-40.84-13.64-8.85-2.92-13.46.35-13.5,9.54,0,6.77.18,13.54-.07,20.3-.18,5.15,1.84,8.4,6.49,10.67,15.54,7.58,31,15.34,46.43,23.16a13.38,13.38,0,0,0,9.49,1.11c9.59-2.08,19.26-3.81,29.27-5.74v43.54c0,13.25,0,13.18,13.22,12.88,2.61-.05,3.52-.6,3.5-3.41-.12-20.65,0-41.29-.09-61.94,0-7.29-4.41-10.67-11.58-9.22-10.86,2.19-21.72,4.37-32.56,6.62a12.57,12.57,0,0,1-8.94-1.2c-10.71-5.61-21.45-11.24-32.49-16.18-5.19-2.32-7.16-5.3-5.56-11.3,11.82,3.93,23.67,7.72,35.39,11.84a16.6,16.6,0,0,0,11.58.07c13.9-4.79,27.86-9.38,41.81-14a20.35,20.35,0,0,1,6.56-1.35c25.15.08,50.31,0,75.46.11a46.42,46.42,0,0,1,18.7,3.84c6.7,2.94,10.13,7.64,10.05,15.32-.24,22.9-.09,45.8-.09,68.7,0,12.09,0,11.92,11.92,12.13,3.78.07,4.88-.73,4.85-4.73C499.78,228.4,499.69,203.07,500,177.74Zm-83.31-48.53a20.8,20.8,0,1,1,20.72-20.88A20.85,20.85,0,0,1,416.66,129.21Z"/><path class="cls-1" d="M233.31,393.09c-.09-7.8-4.92-11.24-12.43-8.78-12.16,4-24.4,7.76-36.35,12.28-6.58,2.49-12.37,2.18-18.94-.06-20.53-7-40.67-16.19-63.3-13.31-.08,0-.19-.21-.29-.32,17.4-14.19,22.84-29.46,16.49-46.32-5.81-15.39-20.48-24.81-37.56-24.11-15.2.63-29,11.7-33.48,26.83-4.89,16.55,1.38,32.06,18.62,44.08-8.2,0-15.11-.15-22,0a60.74,60.74,0,0,0-23.24,4.87C7.14,394.34-.24,404.3,0,419.83.36,442.56.1,465.29.1,488c0,12,0,11.79,12,12.05,4,.08,4.76-1.08,4.73-4.86-.18-25.33,0-50.66-.18-76-.07-7.68,3.34-12.4,10-15.32S40.67,400,48,400q35.91,0,71.82,0a19.93,19.93,0,0,1,6.62,1c10.81,3.64,21.93,6.53,32.43,10.92,10.86,4.54,20.93,5.06,31.82.15,8.17-3.69,17.05-5.8,25.77-8.67.39,8,.39,8-5.88,11.19-11,5.5-22,10.94-32.91,16.55a11.37,11.37,0,0,1-8,1.06c-10.69-2.2-21.39-4.29-32.08-6.44-8.89-1.79-12.59,1.26-12.6,10.49q0,25.5,0,51c0,12.94,0,12.8,12.79,12.82,3.29,0,4-.91,3.94-4.05-.16-15.79,0-31.58-.14-47.36,0-3.77.14-5.55,4.89-4.31,8.36,2.19,16.95,3.47,25.42,5.27a11.77,11.77,0,0,0,8-1.1q23.88-12,47.78-23.92a9.19,9.19,0,0,0,5.59-9.11C233.26,408,233.4,400.54,233.31,393.09ZM83.24,370.79a20.8,20.8,0,1,1,21-20.64A20.86,20.86,0,0,1,83.24,370.79Z"/><path class="cls-1" d="M250,316.67c0-7.45-.11-14.91,0-22.37.1-4.79-2-7.84-6.32-9.67q-19.56-8.33-39.07-16.75a10.65,10.65,0,0,0-9-.08q-19.5,8.47-39.09,16.73c-4.53,1.91-6.62,5-6.57,10q.22,22.11,0,44.22c0,5,2,8.13,6.57,10q19.35,8.16,38.61,16.53a11.18,11.18,0,0,0,9.49.14q19.5-8.44,39.06-16.76c4.3-1.84,6.43-4.89,6.32-9.68C249.88,331.59,250,324.13,250,316.67Zm-58.31,29c-8.15-3.5-15.85-6.87-23.6-10.09-1.57-.65-1.37-1.77-1.38-2.93,0-8.8,0-17.61,0-27.13,8.18,3.5,15.88,6.84,23.63,10.08,1.54.65,1.34,1.83,1.34,3C191.69,327.4,191.68,336.2,191.68,345.67Zm-10.82-53.26c5.7-2.49,11.92-5.24,18.2-7.88a3.61,3.61,0,0,1,2.49.19c6,2.53,11.95,5.15,18.52,8-.94.68-1.08.79-1.23.88C206,301.51,193.29,303.2,180.86,292.41Zm50.68,43.4c-7.61,3.13-15.16,6.42-23.19,9.86,0-9.44,0-18.23,0-27,0-1.41.07-2.49,1.81-3.2,7.62-3.1,15.15-6.42,23.18-9.87,0,9.44,0,18.24,0,27C233.35,334.07,233.2,335.12,231.54,335.81Z"/><path class="cls-1" d="M320.35,58.43c-1.69-.1-3.88.85-3.78-2.5.21-6.76.12-13.53,0-20.29,0-2,.81-2.36,2.5-2.08,4.93.83,10.46,2.24,12,7,2.1,6.26,6.19,5.55,10.72,5.41a36.1,36.1,0,0,1,5.2,0c2.95.34,3-1.11,2.49-3.37-2.9-12.77-10.48-21.06-23.09-24.9-3.24-1-8,.69-9.45-2.09s-.64-7.13-.3-10.74C317.07,1.06,316-.08,312,0c-12,.26-12.14.06-11.93,12,.07,3.73-.73,4.74-4.69,4.94-14.61.71-27.32,13.25-28.62,27.57-1.11,12.16,10,25.94,23.3,29.67,3.29.93,8.07-1.24,9.62,2.44,1.31,3.09.27,7.17.27,10.81h0c0,3.46-.09,6.94,0,10.4.07,2-.78,2.38-2.49,2.09-5.12-.87-10.8-2.45-12.36-7.37-1.83-5.76-5.39-5-9.36-5a49.57,49.57,0,0,1-5.72,0c-3.36-.38-3.55,1-2.93,3.87,2.84,13.21,13.16,23.6,26.58,24.91,5.44.52,6.63,2,6.38,7.14-.47,9.92-.14,9.94,9.7,9.94,6.82,0,6.8,0,6.83-6.71,0-3.11-.81-6.7.48-9.17,1.14-2.18,5.15-.23,7.7-1.42a12.92,12.92,0,0,1,2-.45c15.48-4.08,25.87-20.32,22-34.38A31.64,31.64,0,0,0,320.35,58.43Zm-24-.3A32,32,0,0,1,292.44,57c-6.3-2.45-10-7.86-9-12.89,1.12-5.25,8.9-10.77,14.58-10.59,1.79.06,1.94.83,1.92,2.18,0,3.45,0,6.9,0,10.35,0,3.11-.23,6.24.07,9.31C300.35,58.55,298.77,58.74,296.39,58.13ZM333.13,89.4c-1.1,5.29-8.72,10.71-14.52,10.66-2.3,0-2-1.3-2-2.64,0-3.28,0-6.56,0-9.84V81.37c0-7.05.48-7.4,7-5.09C330.05,78.55,334.2,84.28,333.13,89.4Z"/></g></g></svg>