<svg xmlns="http://www.w3.org/2000/svg" viewBox="0 0 500 500.12"><defs><style>.cls-1{fill:#037cf9;}</style></defs><g id="Layer_2" data-name="Layer 2"><g id="Layer_1-2" data-name="Layer 1"><path class="cls-1" d="M419.21,419.47c-4.19,0-8.4.11-12.59,0-2.42-.09-3.94.34-3.41,3.2a5.67,5.67,0,0,1,0,1c-.12,13.39-.11,13.32-13.75,12-2.11-.2-2.45-1-2.4-2.75.09-3.69-.15-7.4.09-11.08.16-2.49-.84-3.31-3.09-4.06-18.88-6.22-29.16-20.55-29.22-40.42,0-6.38.14-12.77-.07-19.14-.08-2.71.82-3.26,3.38-3.32,12.82-.26,12.81-.34,12.81,12.46,0,4.2-.09,8.4,0,12.59a24.1,24.1,0,0,0,23.18,23.33c7.39.23,14.78,0,22.16.12,2.5.06,3.08-.78,3-3.14-.15-7.38.12-14.78-.13-22.16-.41-12.42-10.45-23-22.91-23-22.31.13-42.74-17.71-41.59-43.9.47-10.56.27-21.16,0-31.73-.11-4,.6-5.53,5-5.29,7.87.43,15.78,0,23.67.18,2.68.06,4.18-.44,3.66-3.48a8,8,0,0,1,0-2c.29-3.46-1.5-9,.67-9.94,4-1.67,9.15-.64,13.82-.74,1.84-.05,1.61,1.26,1.62,2.41,0,4.54-1.35,9.73.42,13.42s7.87,3.2,11.68,5.62c12.54,8,19.48,19.14,20.08,34,.28,7.2-.08,14.44.14,21.65.09,2.91-.85,3.55-3.63,3.58-12.57.13-12.56.23-12.57-12.21,0-4.2.09-8.4,0-12.59a24.1,24.1,0,0,0-23.44-23.6c-7.22-.19-14.44.09-21.66-.12-2.73-.07-3.36.84-3.29,3.4.16,6.54,0,13.09.06,19.64.09,14.87,9.87,24.91,24.74,25.42,22.52.77,39.46,18,39.72,40.43.12,10.75,0,21.5,0,32.24,0,7.94,0,7.94-7.69,7.94Z"/><path class="cls-1" d="M88.82,266.28c8.05,0,8.05,0,8.05,8.08s0,8.05-8.08,8.05-8.05,0-8.05-8.08S80.74,266.28,88.82,266.28Z"/><path class="cls-1" d="M64.62,306.61c0,8.05,0,8.05-8.08,8.05s-8,0-8-8.08,0-8.05,8.08-8.05S64.62,298.53,64.62,306.61Z"/><path class="cls-1" d="M88.88,298.53c8,0,8,0,8,8.14,0,8,0,8-8.14,8s-8,0-8-8.14C80.74,298.53,80.74,298.53,88.88,298.53Z"/><path class="cls-1" d="M120.57,314.66c-7.58,0-7.58,0-7.58-7.55,0-8.58,0-8.58,8.55-8.58,7.58,0,7.58,0,7.58,7.54C129.12,314.66,129.12,314.66,120.57,314.66Z"/><path class="cls-1" d="M64.62,339.21c0,7.7,0,7.7-7.92,7.7-8.2,0-8.2,0-8.2-8.43,0-7.7,0-7.7,7.92-7.7C64.62,330.78,64.62,330.78,64.62,339.21Z"/><path class="cls-1" d="M89.23,330.78c7.64,0,7.64,0,7.64,7.49,0,8.64,0,8.64-8.49,8.64-7.64,0-7.64,0-7.64-7.49C80.74,330.78,80.74,330.78,89.23,330.78Z"/><path class="cls-1" d="M129.12,339.05c0,7.86,0,7.86-7.77,7.86-8.36,0-8.36,0-8.36-8.27,0-7.86,0-7.86,7.77-7.86C129.12,330.78,129.12,330.78,129.12,339.05Z"/><path class="cls-1" d="M88.57,379.16c-7.83,0-7.83,0-7.83-7.8,0-8.33,0-8.33,8.31-8.33,7.82,0,7.82,0,7.82,7.8C96.87,379.16,96.87,379.16,88.57,379.16Z"/><path class="cls-1" d="M495.29,346.7c-13-44.87-26.67-89.52-40.23-134.21-1.13-3.7-.56-5.39,2.61-7.54,6.51-4.38,9.77-10.93,10-18.79.16-5.71.15-11.42,0-17.13-.19-7.89-3.09-15.41-10.06-18.57-7.81-3.55-9.15-9.62-10.65-16.41-.62-2.78-1.37-5.53-2.15-8.26a23.86,23.86,0,0,0-12-14.85c-2.94-1.61-5.81-3.52-9-4.52-10.75-3.43-16.22-10.6-17.61-21.78-1.63-13.11-9.54-21.07-22.33-24-4-.91-5.29-2.8-5-6.92.71-10.17-2.9-18.83-11.93-23.81-6.49-3.57-11.69-8.3-16.75-13.42-3.19-3.22-6.3-6.54-9.67-9.56-11.42-10.24-29.1-9.19-36.86,3.87-7,11.83-16.27,18-29.37,19.48a12.16,12.16,0,0,0-2,.39c-7.84,2.35-13.58,7.13-16.79,14.73-2,4.77-4.42,9.49-5.65,14.48-2.75,11.2-9.61,16.66-20.95,18.09-12.21,1.54-20,9-23,20.91-1.65,6.63-5.65,9.91-12.4,10.71,0-6.6-.09-13.14,0-19.67a14.09,14.09,0,0,0-5.35-11.41,33.73,33.73,0,0,0-10-5.72,95.19,95.19,0,0,0-26.87-6c-4.49-.38-6.64-1.28-6.37-6.67.57-11.23,0-22.5.23-33.75.11-6.18-2.51-10.6-7.41-13.95A50.81,50.81,0,0,0,120.3,5.24C92.78-1,65.05-1.11,37.24,2.81,28.09,4.1,19.11,6.13,10.79,10.36,3.62,14,0,19.37,0,28Q.3,170,0,312.12c0,6.81,2.24,12.55,8.2,14.87,7.82,3,9.23,8,8.12,15.32-.6,3.94,1.38,9.24-.59,11.75C13.5,357,8,355,4,354.83c-3.68-.1-3.92,1.44-3.9,4.37q.16,25.44,0,50.89a86.31,86.31,0,0,0,1.54,17.52c8.83,43.44,44.4,72.46,88.9,72.48q143.58,0,287.16,0a130.68,130.68,0,0,0,19.08-1.26C468.71,488.38,515.45,416.47,495.29,346.7ZM193.55,140.84a40.76,40.76,0,0,0,.06-6.54c-.07-4.78,2-8.23,6.65-9.46,11.94-3.16,18.79-11,21.63-22.72C223,97.36,226.16,94.48,231,94c18.76-2,29-12.47,34.94-30.25,6.42-19.26,3.19-15.78,23.1-20.42,10.15-2.36,17.71-7.33,22.83-16.4,7.91-14,13.94-13,23.64-2.53,6.77,7.34,13.42,15,23,19.17,3.76,1.64,4.81,5.32,4.18,9.84-3.32-1.06-6.52-1.69-9.34-3.08-3.58-1.76-4.53-.09-5.51,2.91-3.62,11-3.69,11,7.36,14.7,8.72,2.91,17.38,6,26.18,8.73,5.06,1.54,8.15,4.45,8.8,9.72,2.08,16.88,10,29.47,26.88,34.54,12.41,3.72,14.26,13.64,15.78,24.44H398.6c-19.31,0-38.61-.08-57.91.08-3.23,0-4.75-.83-5.63-4-1.57-5.63-3.22-11.27-7.4-15.75-6.84-7.35-16.58-8.28-25.23-11.6a1.36,1.36,0,0,0-2,1c-.14.49-.29,1-.47,1.43-4.8,12.05-4.87,12.29,7.47,16.05,6.6,2,11.06,5.26,11.51,12.85H299.91c-33.91,0-67.81-.06-101.72.09C194.51,145.45,193,144.71,193.55,140.84Zm-5.33,20.63H440.49c8.58,0,11.08,2.5,11.1,11,0,3.52,0,7.05,0,10.57,0,7.93-2.67,10.64-10.49,10.64q-44.31,0-88.62,0H188.84c-8.93,0-11.34-2.41-11.35-11.29,0-3.36,0-6.71,0-10.07C177.51,164.08,180.06,161.47,188.22,161.47ZM177.53,134c0,2.84-2.16,3.19-3.86,3.89-8.45,3.44-17.37,5-26.38,5.93-23.83,2.54-47.56,2.37-71-3.39-11.71-2.89-11.68-3-11.68-14.74V106a224.89,224.89,0,0,0,112.87,0C177.49,115.28,177.41,124.64,177.53,134ZM117.08,242.09a9.39,9.39,0,0,1-4.61-1.67c-11.32-6.3-23.23-8.09-35.86-4.7-7.07,1.89-12-1.89-12-9v-24.4c20.12,6.21,40.44,7.71,60.94,7.44a190.9,190.9,0,0,0,41.86-4.69c5.52-1.31,8.29,1.62,6.69,6.88-2.18,7.2-4.54,14.35-6.48,21.61-.72,2.66-1.94,3.91-4.57,4.46A211.89,211.89,0,0,1,117.08,242.09ZM161.16,255,150.7,289.9c-5.39-11.48-11.2-21.74-19.36-31.7C141.68,257.24,151.22,256.66,161.16,255Zm.3-68.32c-.08,2,0,3.53-2.54,3.92-28.79,4.42-57.46,5.07-85.83-2.7-8.54-2.34-8.47-2.61-8.47-11.1V154.17c33.06,9.15,66.24,9,99.87,3.46C159.59,167.13,161.81,177,161.46,186.63ZM174,88.85c-35.25,10.69-70.53,10.51-105.85.06A181.7,181.7,0,0,1,174,88.85ZM125.6,24.34a180,180,0,0,1-105.84,0A182.33,182.33,0,0,1,125.6,24.34ZM16.25,41.5a224.66,224.66,0,0,0,112.87-.07c0,6.92-.16,13.79.06,20.65.12,3.48-2.05,2.68-3.92,2.67-17.33-.14-34.54.89-51.46,5-7.21,1.73-14.18,4.08-20,8.94a4.52,4.52,0,0,1-3.67,1.12C40,78.6,29.88,77.11,20.2,73.53c-2.79-1-4.16-2.53-4.05-5.87C16.44,59,16.25,50.27,16.25,41.5Zm0,51.19c0-2.33.27-3.44,3-2.49a102.63,102.63,0,0,0,25,5c3.17.29,4.73,1.19,4.36,4.8-.38,3.82-.08,7.7-.08,11.56,0,4.35-.08,8.71,0,13.06.06,2.39-.15,3.44-3.21,3C36.86,126.4,28.5,125,20.43,122c-3-1.09-4.45-2.62-4.29-6.2C16.49,108.12,16.31,100.4,16.21,92.69ZM48.5,176.27c-9.86-1-19.18-2.62-28.17-5.92-3-1.12-4.34-2.77-4.19-6.28.34-7.69.2-15.41.06-23.11,0-2.58.56-3.23,3.1-2.35a107.86,107.86,0,0,0,25.51,5.08c2.89.28,3.86,1.25,3.78,4.31C48.34,157.35,48.5,166.72,48.5,176.27ZM16.21,189.43c0-2.34.29-3.43,3-2.48a102.61,102.61,0,0,0,25,5c3.19.28,4.72,1.21,4.36,4.81-.38,3.82-.08,7.7-.08,11.55,0,4.36-.09,8.72,0,13.07.06,2.4-.17,3.43-3.22,3-8.46-1.23-16.82-2.69-24.88-5.63-3-1.09-4.45-2.62-4.29-6.2C16.49,204.86,16.31,197.14,16.21,189.43Zm0,71.95c.25-3.85.06-7.72.06-11.58h.21V235.23c4.5,1,9,2.08,13.5,2.92q7.9,1.46,15.88,2.5c2.1.27,2.32,1.19,2.77,3.11,2.73,11.65-5.93,18.37-11.09,26.62-.84,1.35-2,.93-3.12.67a88.4,88.4,0,0,1-14.9-4.4C16.93,265.55,16,264.14,16.19,261.38Zm0,50.26c.08-4.5,0-9,0-13.52v-5.51c0-10.14,0-10.09,9.77-7.05,2,.63,2.65,1.21,1.64,3.43a123.91,123.91,0,0,0-7.84,23.14c-.19.8.2,2.78-1.81,2.15A2.45,2.45,0,0,1,16.22,311.64ZM76.14,482.93c-29.06-4.72-54.55-30.28-58.83-59.28a75.51,75.51,0,0,1-1-10.5c-.12-13.73-.05-27.46-.05-41.63,24,3.37,42,15.07,54.31,35.3a70,70,0,0,1,10.17,37.32c0,11.57-.21,23.15.1,34.71C81,482.87,79.83,483.52,76.14,482.93ZM88.8,406.5c-7-14.17-16.18-25.52-28.31-34.37a88.91,88.91,0,0,0-24.91-12.77c-1.85-.6-3.17-.94-3.28-3.48-1.33-29.82,4.44-57.66,22.36-82.23a115.52,115.52,0,0,1,12.07-14.14c12.23-12.07,31.87-12.3,44-.16,21.48,21.59,32.8,47.79,34.44,78.16.32,5.85.07,11.74.13,17.61,0,1.91,0,3.26-2.48,4.07C118.44,367.12,100.71,382.78,88.8,406.5Zm8,72.71c.37-6.69.1-13.41.1-20.12.06-12-.88-24.19,3-35.91,9.1-27.66,28-44.5,56.31-51,3.88-.88,5.54-.36,5.31,4.34-.74,15.39,1,30.86-1.08,46.22-3.95,29.47-29.72,55.59-59.07,60.15C98.08,483.43,96.54,483.22,96.77,479.21ZM312.83,484q-56.38,0-112.78,0c-2.11,0-5.56,1-6.08-.67-.94-3-1.09-6.69.93-9.71a9.94,9.94,0,0,1,2.88-2.71c7.13-4.6,7.15-4.57,3.38-12.12-3.14-6.26-3.12-6.23-9.46-3-9.59,4.93-14.54,12.75-14.1,23.51.16,4.13-1.23,4.88-5,4.8-10.53-.25-21.06-.09-32.87-.09,8.24-6.23,14.83-12.49,20.26-19.88a87.88,87.88,0,0,0,17.45-52c.09-7,.22-14.11-.06-21.14-.12-3.23.92-3.87,3.93-3.82,4.8.08,9.61,0,12.89,4.14,7.68,9.66,18.16,14,29.85,15.92,7.49,1.25,13.36,4.09,17.14,11.39,3,5.82,8.87,9,15.2,10.8a60,60,0,0,0,7.31,1.8c8,1.24,14.28,4.38,18.15,12.33,3,6.07,9.11,9.48,15.63,11,8.27,1.88,13.06,6.6,15.36,14.65,1.41,4.93,3.76,9.58,5.87,14.84Zm78.91-.88c-17.73,2-35.56.4-53.34.94-2.64.08-2.93-1.66-3.58-3.29-2.95-7.29-6-14.55-8.74-21.91-3.5-9.28-9.84-15.53-19.38-18.15-6.62-1.83-11.65-4.92-15-11.39-3.16-6.19-9.08-9.71-15.78-11.65a60.4,60.4,0,0,0-7.79-2c-7.7-1.16-13.65-4.24-17.51-11.67-2.94-5.64-8.69-8.73-14.84-10.5a89.2,89.2,0,0,0-10.73-2.61,31,31,0,0,1-19.23-10.76c-6.27-7.18-14.69-9.75-24.05-9-3.51.29-4.54-.72-4.45-4.32.1-3.9,2-9.19-.9-11.42-2.45-1.86-7.46-.66-11.29-.28-3.16.32-4-.54-3.88-3.69a142.8,142.8,0,0,0-1.91-31.1c-.38-2.06.22-3.94.81-5.9,10-33.33,20.08-66.66,29.92-100.06,1-3.5,2.36-4.65,6.07-4.63,39.63.15,79.25.09,118.88.09,39.12,0,78.24.06,117.36-.08,3.7,0,5.42.71,6.58,4.64,13.64,46.23,28.22,92.2,41.17,138.62C497.15,413.88,454.57,475.87,391.74,483.09Z"/><path class="cls-1" d="M309.62,306.29c-5.69-5.47-11-11.31-16.85-16.61-3-2.7-2.53-4.22.18-6.6,3.64-3.21,6.93-6.83,10.37-10.27,9.4-9.41,9.34-9.34-.36-18.27-1.87-1.72-2.82-1.53-4.41.12-4.42,4.59-9,9.06-13.49,13.57-6.79,6.78-6.81,6.8-13.57,0-3.18-3.2-8.6-6.34-8.82-9.77-.24-3.95,5.58-6.88,8.82-10.18,8.55-8.72,8.5-8.56-.09-17.23-2.44-2.48-3.71-2.14-5.85.18-4.22,4.56-8.83,8.74-13.08,13.26-1.81,1.92-3,2.12-4.77.05-2.31-2.65-4.94-5-7.43-7.52-9.05-9.05-9-9-17.9.4-1.91,2-1.68,3,.12,4.75,4.73,4.53,9.24,9.28,14,13.81,1.67,1.61,2,2.67.13,4.41-4.28,4-8.47,8.15-12.45,12.46-2,2.14-3.09,1.55-4.77-.24-3.68-3.91-7.56-7.62-11.36-11.42-9-9.05-9-9-17.9.44-1.95,2-1.58,3,.17,4.75,5.9,5.73,11.55,11.72,17.53,17.35,2.33,2.2,2.23,3.43-.06,5.5-3.85,3.48-7.43,7.28-11.07,11-2.8,2.87-7.92,6.08-7.64,8.68.35,3.29,5.22,6,7.95,9.16,1.74,2,2.91,1.92,4.73,0,5.83-6,11.9-11.84,17.72-17.89,1.81-1.89,2.9-2.08,4.77-.06,3.75,4.06,7.66,8,11.74,11.74,2.25,2.05,2.49,3.31.09,5.5-4.7,4.3-9,9.05-13.62,13.42-2,1.86-1.68,2.91.08,4.74,8.88,9.24,8.77,9.24,17.91.27,3.18-3.14,6-8.74,9.81-8.54,3.28.17,6.35,5.36,9.43,8.42,9.41,9.34,9.32,9.29,18.26-.39,1.73-1.87,1.54-2.81-.11-4.41-4.72-4.54-9.21-9.31-14-13.8-1.88-1.79-2.12-2.88-.09-4.77,4.18-3.87,8.11-8,12.16-12.05.69-.69,1.42-1.33,2.36-2.2.87.79,1.62,1.41,2.31,2.09L292,311.54c9.1,9.09,9,9,17.89-.13C312,309.2,311.53,308.13,309.62,306.29ZM265.5,287.81c-4.78,4.68-9.47,9.44-14.2,14.15a8.5,8.5,0,0,1-1.41.9c-.62-.55-1.26-1.05-1.82-1.61-4.26-4.25-8.43-8.59-12.8-12.71-1.9-1.79-1.4-2.84.21-4.39,4.22-4,8.38-8.16,12.39-12.41,1.68-1.77,2.75-1.7,4.39,0,4.15,4.35,8.47,8.54,12.72,12.79C265.94,285.52,267,286.34,265.5,287.81Z"/></g></g></svg>