<svg xmlns="http://www.w3.org/2000/svg" viewBox="0 0 500 499.82"><defs><style>.cls-1{fill:#037cf9;}.cls-2{fill:#7fbef7;}.cls-3{fill:#fff;}</style></defs><g id="Layer_2" data-name="Layer 2"><g id="Layer_1-2" data-name="Layer 1"><path class="cls-1" d="M0,249.23C.27,111.42,112.62-.25,250.74,0,388.09.24,500.32,112.94,500,250.31,499.68,389.53,387.49,501,247.12,499.82,109.94,498.69,0,387.29,0,249.23Z"/><path class="cls-2" d="M50,250C50.23,139.8,139.2,48.34,253.78,50.09c106.35,1.62,198,88.48,196.08,203.8-1.8,106.54-88.52,198.6-205.54,195.94C139,447.43,50.58,361.88,50,250Z"/><path class="cls-2" d="M319.81,27.3l2.39.78c11.54,3.67,22.5,8.74,33.49,13.77,3.2,1.46,3.73,2.89,1.53,5.75-2.39,3.12-3,8.48-6.43,9.63s-7-2.88-10.67-4.33c-7.05-2.79-13.85-6.27-21.23-8.15-3.94-1-5-2.78-3.44-6.63a52.61,52.61,0,0,0,2.19-8.49C317.92,28.39,318,27.17,319.81,27.3Z"/><path class="cls-2" d="M41,314.71c2-.28,2.55.81,3,2.28a207.68,207.68,0,0,0,13.09,31.53c.08.15.22.32.2.47-.83,6.45-7.68,5.61-11.08,9-2.06,2.07-3.22-.1-4.08-1.91-5.33-11.23-10.42-22.55-14.23-34.42-.84-2.58-.7-3.69,2.26-4.21C33.86,316.84,37.48,315.63,41,314.71Z"/><path class="cls-2" d="M57.82,149.44c-2.26,5.07-4.14,9.52-6.22,13.88a122.42,122.42,0,0,0-7.06,18.34c-.85,2.92-1.91,4.12-5.49,3.18-13.15-3.43-13.24-3.26-7.88-15.88,3.51-8.26,7.24-16.41,10.7-24.69,1.4-3.36,3-3.56,5.77-1.47a85.93,85.93,0,0,0,8.45,5C57,148.35,58,148.78,57.82,149.44Z"/><path class="cls-2" d="M241.66,25c0,9.29,0,9.21-9.61,9.39-9,.16-17.77,1.87-26.54,3.57-1.42.28-3.18.95-3.68-.57a129.52,129.52,0,0,1-3.49-13.45c-.29-1.39,1.27-1.81,2.52-2,10.15-1.8,20.25-4,30.62-4.21a20.35,20.35,0,0,0,2.07-.07C241.66,16.6,241.66,16.59,241.66,25Z"/><path class="cls-2" d="M258.33,25c0-1.38.11-2.78,0-4.15-.3-3.07.77-4.61,4.07-4.16,12.08,1.62,24.28,2.36,36.22,5.1,2.6.59,3.29,1.27,2.72,4.12C298.9,38.08,299,38,287.44,36.54c-7.33-.94-14.61-2.22-22.06-2.28C258.46,34.2,258.33,33.69,258.33,25Z"/><path class="cls-2" d="M459.07,185.29c-1.87.3-2.54-.67-3-2.19-3.53-10.85-8.93-21-12.66-31.67-2.1-6,6.86-6.08,10.35-9.39,2.46-2.34,3.45.44,4.34,2.25A307.82,307.82,0,0,1,472,177.73c1,2.81,1.11,4.39-2.52,4.91S462.43,184.41,459.07,185.29Z"/><path class="cls-2" d="M459.61,314.84c2,.55,3.94,1.14,5.94,1.65,7.85,2,7.91,2,5.18,9.36-3.78,10.19-8,20.22-12.67,30-1.38,2.86-2.7,3.64-5.4,1.53-3.23-2.54-8.86-3.09-9.94-6.79-1-3.38,3-7,4.46-10.67,3-7.35,6.31-14.57,8.55-22.21C456.29,315.84,456.91,314,459.61,314.84Z"/><path class="cls-2" d="M320,472.69c-1.61.28-2-.68-2.33-2-.88-3.68-1.89-7.34-2.87-11-.57-2.15.38-3.1,2.38-3.74a202.75,202.75,0,0,0,31.06-12.85c1.17-.6,2.5-1.6,3.57.2q3.31,5.57,6.59,11.13c.82,1.4.16,2.25-1.11,2.88a283.09,283.09,0,0,1-36.8,15.23Z"/><path class="cls-2" d="M16.69,260.77c-.09-1.26.53-2.43,2.61-2.41,2.42,0,4.85,0,7.27,0,7,0,7.58.26,7.7,7,.17,9.87,1.86,19.51,3.69,29.14.27,1.42.92,3.18-.6,3.67a109.27,109.27,0,0,1-13.46,3.44c-1.64.31-1.79-1.63-2-3-2-10.49-4.14-20.93-4.21-31.67A46.61,46.61,0,0,0,16.69,260.77Z"/><path class="cls-2" d="M185.37,41.52c.2,1.28-.76,1.95-2.27,2.44-10.84,3.53-21,8.89-31.64,12.68-6.57,2.33-5.84-7-9.39-10.35-2.43-2.26.3-3.43,2.15-4.33a296.11,296.11,0,0,1,32.89-13.69c3.29-1.15,5.35-.79,5.88,3.28A95.48,95.48,0,0,0,185.37,41.52Z"/><path class="cls-2" d="M474.81,241.67c-8.66,0-8.87,0-9.11-8.26a160.61,160.61,0,0,0-3.63-27.58c-.66-3.24,0-4.54,3.15-4.89a31.56,31.56,0,0,0,4-1c8.44-2.07,8.21-2,10,6.68,2.09,10.13,2.46,20.46,4,30.64.44,2.88-.29,4.78-3.77,4.43A45.47,45.47,0,0,0,474.81,241.67Z"/><path class="cls-2" d="M258.33,474.94c0-9.13.06-9.18,9.17-9.29,8.82-.11,17.42-1.95,26.08-3.29.33-.05.67-.31,1-.27,7.94.84,4.31,8.1,6.6,12.09,1.79,3.13-.65,3.45-3.14,4.06-11.91,2.93-24.14,3.42-36.22,5-2.37.31-3.63-.57-3.49-3.13C258.41,478.4,258.34,476.67,258.33,474.94Z"/><path class="cls-2" d="M124.76,53.35c1.46-.21,2.29.19,2.73.95,2.07,3.58,4,7.23,6.1,10.82,1,1.76-.14,2.45-1.35,3.25a204.35,204.35,0,0,0-27.42,21.07c-1.31,1.22-2.41,1.08-3.55-.14-.36-.38-.73-.74-1.11-1.09-9.34-8.83-9.48-9,0-16.88A195.5,195.5,0,0,1,123,54.49C123.74,54.05,124.44,53.56,124.76,53.35Z"/><path class="cls-2" d="M420.29,92a3.18,3.18,0,0,1,2.81,1.54c7.74,9.46,15.64,18.79,22.26,29.13,2,3,1.44,4.37-1.52,6-10.65,5.88-10.6,5.95-17.53-4.19a162.09,162.09,0,0,0-14.8-18.56c-1.94-2.1-2.29-3.49,0-5.48,2.46-2.17,4.67-4.62,7-6.93C419.1,92.9,419.8,92.4,420.29,92Z"/><path class="cls-2" d="M434.41,366c3.64,2.17,7.85,4.51,11.87,7.16,1.1.73.35,2.16-.34,3.26-6.81,10.83-15,20.57-23.16,30.39-1.26,1.52-2.51,1.52-3.91.08-2.65-2.73-5.35-5.4-8.06-8.08-1.13-1.11-1.62-2.18-.35-3.54a214.63,214.63,0,0,0,21.4-27.84A2.37,2.37,0,0,1,434.41,366Z"/><path class="cls-2" d="M374.62,447a8.92,8.92,0,0,1-1.86-1,8.45,8.45,0,0,1-1.13-1.71c-6.55-10.8-6.54-10.79,3.93-17.95a162.4,162.4,0,0,0,18.56-14.81c2.12-2,3.51-2.22,5.49,0a97.36,97.36,0,0,0,6.95,7c1.82,1.68,1.86,3.06-.1,4.65C397.1,430.73,388,438.69,377.71,445,376.69,445.65,375.7,446.31,374.62,447Z"/><path class="cls-2" d="M179.1,472.18c-5.84-2.1-12.91-4.44-19.81-7.2-5.3-2.12-10.35-4.85-15.58-7.15-2.51-1.1-3-2.37-1.45-4.72,2.3-3.44,3.62-8.59,6.76-10.14,3.41-1.67,7.26,2.81,11.07,4.26,6.95,2.64,13.8,5.56,20.83,7.95,3.56,1.21,5.41,2.44,3.66,6.55-1.14,2.66-1.53,5.65-2.21,8.5C182.09,471.38,182.22,472.82,179.1,472.18Z"/><path class="cls-2" d="M241.66,475.06v1c0,7.17,0,6.74-7.11,6.37a236.72,236.72,0,0,1-32.72-4.21c-3.3-.63-4.05-1.67-3-4.77,1.19-3.57,1-8.23,3.21-10.68,2.67-2.88,7,.4,10.59.73,7.36.68,14.62,2.14,22.07,2.22C241.67,465.84,241.66,466.18,241.66,475.06Z"/><path class="cls-2" d="M475.29,258.35c1.73,0,3.46,0,5.19,0,2.34,0,2.89,1.14,2.65,3.31-1.38,12.11-2.13,24.28-4.82,36.25-.8,3.55-1.83,4.29-5.06,3.22-3.57-1.19-8.26-1-10.61-3.33-2.75-2.69.57-7,.92-10.65.65-7,2-13.94,2.2-21C466,258.33,466.33,258.34,475.29,258.35Z"/><path class="cls-2" d="M124.68,446.6c-.23-.14-.93-.62-1.65-1.07C112.39,439,103,430.86,93.34,423c-1.38-1.13-2-2.4-.42-3.89q.38-.36.72-.75c9.06-10.18,9-10.07,19.18-.88a122.71,122.71,0,0,0,18.44,13.39c2.51,1.53,3.42,3.06,1.52,5.76s-3.45,5.59-5.19,8.37C127.05,445.81,126.63,446.9,124.68,446.6Z"/><path class="cls-2" d="M78.87,91.87c2.27.57,3.28,2.31,4.6,3.61,7.49,7.4,7.65,7.57.83,15.36a159,159,0,0,0-14.81,20c-1.76,2.81-3.26,3.64-6.52,1.81-10.91-6.17-11-6-3.91-16.46,5.43-8,11.89-15.24,18-22.76A11.23,11.23,0,0,1,78.87,91.87Z"/><path class="cls-2" d="M24.5,241.67c-1.56,0-3.12-.08-4.67,0-2.6.15-3.39-1.21-3.08-3.53,1.59-12.08,2.18-24.29,5-36.22.74-3.15,1.49-4.2,4.7-3.11,3.72,1.25,8.68.67,11.07,3.47s-.69,7.09-1.07,10.76c-.79,7.69-2.32,15.32-2.63,23-.23,5.54-2.92,6.17-7.21,5.63A16,16,0,0,0,24.5,241.67Z"/><path class="cls-2" d="M90.45,396.76c-.92,2.4-2.89,3.66-4.44,5.23-6.43,6.52-6.55,6.59-12.54.11-7.17-7.77-13.23-16.39-19.12-25.16-1.67-2.48-1-3.67,1.17-4.92q4.5-2.59,8.93-5.28c1.59-1,2.67-.94,3.82.84a204.9,204.9,0,0,0,21.08,27.56A13.62,13.62,0,0,1,90.45,396.76Z"/><path class="cls-2" d="M409,80.33c-2.68,2.26-5.64,4.22-7.89,6.79-2.89,3.3-4.7,3.6-8.2.29-7.54-7.11-16.07-13.07-24.65-18.91-1.05-.71-3-1-2-2.94,2.09-3.78,4.36-7.47,6.59-11.17,1-1.63,2.18-1.23,3.52-.38,10.86,6.83,20.66,15.06,30.48,23.26C407.46,77.78,407.79,78.61,409,80.33Z"/><path class="cls-3" d="M150.15,229.75a22.75,22.75,0,0,1,8,13.47H145.49a11.68,11.68,0,0,0-4.31-5.4,12,12,0,0,0-6.91-2,10.51,10.51,0,0,0-8.48,3.86q-3.23,3.85-3.23,10.31t3.23,10.27a10.54,10.54,0,0,0,8.48,3.82,12,12,0,0,0,6.91-2,11.75,11.75,0,0,0,4.31-5.33h12.69a22.86,22.86,0,0,1-8,13.43q-6.19,5-15.67,5a24.71,24.71,0,0,1-12.69-3.19,21.69,21.69,0,0,1-8.45-8.94,30.33,30.33,0,0,1,0-26.22,21.66,21.66,0,0,1,8.45-8.95,24.81,24.81,0,0,1,12.69-3.19Q143.95,224.77,150.15,229.75Z"/><path class="cls-3" d="M190.37,274.84l-10.73-18.72H176.9v18.72h-12V225.27h20.48a22,22,0,0,1,10,2,14,14,0,0,1,6.1,5.57,15.93,15.93,0,0,1,2,8.1,14.46,14.46,0,0,1-3,9.19,15.32,15.32,0,0,1-8.66,5.19l11.78,19.49ZM176.9,247.91h7.44q3.57,0,5.25-1.57a6.09,6.09,0,0,0,1.69-4.67,6.19,6.19,0,0,0-1.72-4.62,7.17,7.17,0,0,0-5.22-1.69H176.9Z"/><path class="cls-3" d="M252.35,225.27l-17.18,33.09v16.48H223.11V258.36l-17.18-33.09h13.74l9.54,20.19,9.54-20.19Z"/><path class="cls-3" d="M269,257.45v17.39H257V225.27H276.4q8.84,0,13.46,4.38t4.63,11.81a16.27,16.27,0,0,1-2.07,8.24,14.33,14.33,0,0,1-6.13,5.68,21.64,21.64,0,0,1-9.89,2.07Zm13.32-16q0-6.51-7.22-6.52H269v12.9h6.1Q282.28,247.84,282.29,241.46Z"/><path class="cls-3" d="M336,225.27v9.53H322.54v40H310.48v-40H297.15v-9.53Z"/><path class="cls-3" d="M377.33,227.75a23.73,23.73,0,0,1,9,9.05,27.52,27.52,0,0,1,0,26.19,23.92,23.92,0,0,1-9.05,9.08,26.19,26.19,0,0,1-25.31,0,23.89,23.89,0,0,1-9-9.08,27.34,27.34,0,0,1,0-26.19,24,24,0,0,1,9-9.05,26.33,26.33,0,0,1,25.38,0Zm-22.08,11.71q-3.48,3.82-3.47,10.42t3.47,10.37a13.23,13.23,0,0,0,18.68,0q3.51-3.86,3.51-10.37T374,239.5a13.33,13.33,0,0,0-18.72,0Z"/></g></g></svg>