<svg xmlns="http://www.w3.org/2000/svg" viewBox="0 0 2541.35 1676.6"><defs><style>.cls-1{fill:#dbefff;}.cls-1,.cls-10,.cls-11,.cls-12,.cls-13,.cls-14,.cls-15,.cls-16,.cls-17,.cls-2,.cls-20,.cls-22,.cls-24,.cls-25,.cls-26,.cls-27,.cls-28,.cls-29,.cls-3,.cls-30,.cls-31,.cls-32,.cls-33,.cls-34,.cls-35,.cls-36,.cls-37,.cls-38,.cls-39,.cls-4,.cls-41,.cls-42,.cls-43,.cls-44,.cls-45,.cls-46,.cls-47,.cls-48,.cls-49,.cls-5,.cls-50,.cls-51,.cls-52,.cls-53,.cls-54,.cls-55,.cls-6,.cls-7,.cls-8,.cls-9{fill-rule:evenodd;}.cls-2{fill:#cfe9fd;}.cls-3{fill:#b9dcf8;}.cls-4{fill:#213254;}.cls-5{fill:#283b61;}.cls-6{fill:#17294c;}.cls-7{fill:#c85f5f;}.cls-8{fill:#b13d3d;}.cls-9{fill:#45945f;}.cls-10{fill:#3d835c;}.cls-11{fill:#c5d6f0;}.cls-12{fill:#f3f6fc;}.cls-13{fill:#fff;}.cls-14{fill:#dee9f7;}.cls-15{fill:#77c3f3;}.cls-16{fill:#44acef;}.cls-17{fill:#e77979;}.cls-18{fill:#e05252;}.cls-19{fill:#f5bc40;}.cls-20{fill:#ffd06b;}.cls-21{fill:#a86a00;}.cls-22{fill:#27b8c5;}.cls-23{fill:#2cccd5;}.cls-24{fill:#eafcfc;}.cls-25{fill:#6e90c9;}.cls-26{fill:#7a9ece;}.cls-27{fill:#93afd7;}.cls-28{fill:#acc2e0;}.cls-29{fill:#dee7f3;}.cls-30{fill:#65749d;}.cls-31{fill:#f1c2cd;}.cls-32{fill:#5c8df8;}.cls-33{fill:#4b7eea;}.cls-34{fill:#6e9af9;}.cls-35{fill:#523114;}.cls-36{fill:#d2808b;}.cls-37{fill:#f1b2bc;}.cls-38{fill:#dd6984;}.cls-39{fill:#9e5f26;}.cls-40{fill:#04205d;}.cls-41{fill:#7b4f28;}.cls-42{fill:#573015;}.cls-43{fill:#673e19;}.cls-44{fill:#c15f6f;}.cls-45{fill:#8bb0ff;}.cls-46{fill:#6b9aff;}.cls-47{fill:#87adff;}.cls-48{fill:#073aa8;}.cls-49{fill:#6b94ee;}.cls-50{fill:#97b8ff;}.cls-51{fill:#84abff;}.cls-52{fill:#9cbbff;}.cls-53{fill:#50679a;}.cls-54{fill:#7791c8;}.cls-55{fill:#c4e4ff;}.cls-56{fill:#5a81b1;}.cls-57{fill:#4a608f;}</style></defs><g id="Layer_2" data-name="Layer 2"><g id="Layer_1-2" data-name="Layer 1"><path class="cls-1" d="M50.62,1648.24s156.15-156,153.9-323.28S78.29,1047.64,146.39,857c60.38-169.21,320.1-178.22,298.28-358.06C417.44,274,441.22,85.71,768.89,10.17c315.38-72.7,384.53,266.89,596.18,301.24,324.82,52.72,500-227.89,751.57,0,138.6,125.53-37,423.59,33.53,590.31s514.95,242.31,345.07,746.52Z"/><path class="cls-2" d="M2171,440.21c7.65,120.65-48.67,276.86-36.45,396.69-8.4,7-16.42,14.09-24.22,21-187,165.51-174.6,491.57-387.53,619.25-286.87,172-568.72-125.87-864.3-43.92-85.05,23.59-142.2,85.44-206,142.11A953.43,953.43,0,0,1,560,1648.24H50.64s156.15-156,153.9-323.28c-1-73.06-25.2-135.2-46.43-197.88,163.13,3,316,98,488.48,83.07,112-9.69,235.2-40.41,325.65-110.72,51.07-39.68,84.22-89.22,148.5-109.84,189.3-60.69,327.82-6.43,509.47-35.14C1935.31,906.23,1939.06,574.48,2171,440.21Zm313.65,803.44c53,94.94,72.3,221.5,10.65,404.59H2055.84c-7.2-59.27,15.37-121.81,73.72-161.94,59.85-41.16,138.53-35.38,200.85-73C2400.16,1371.17,2438.26,1304.66,2484.61,1243.65ZM1141.74,1573.53a15.88,15.88,0,1,1-15.9,15.88A15.9,15.9,0,0,1,1141.74,1573.53Zm370.35,0a15.88,15.88,0,1,1-15.83,15.88A15.9,15.9,0,0,1,1512.09,1573.53Zm-547.2-107.38a53.69,53.69,0,1,1-53.7,53.69A53.73,53.73,0,0,1,964.89,1466.15Zm-168.08,53.69a15.88,15.88,0,1,1-15.9,15.88A15.89,15.89,0,0,1,796.81,1519.84Zm1564.43-319.41a53.69,53.69,0,1,1-53.7,53.68A53.72,53.72,0,0,1,2361.24,1200.43Zm-157.8,37.8a15.88,15.88,0,1,1-15.9,15.88A15.83,15.83,0,0,1,2203.44,1238.23Zm-8.18-191.51a32.66,32.66,0,1,1-32.62,32.66A32.72,32.72,0,0,1,2195.26,1046.72Zm-1955-91a53.69,53.69,0,1,1-53.62,53.68A53.67,53.67,0,0,1,240.31,955.74Zm169.8-60.25a15.88,15.88,0,1,1-15.9,15.88A15.9,15.9,0,0,1,410.11,895.49ZM1076.94,94c66.52,58.19,122.17,130.23,188.85,175.72-81.9,124.72-153,214.85-355.35,272-127.65,36-251.7-38.64-378.6,22.28-131.25,63-192,208.08-305,294.94-24.15,18.58-57.75,37-95.1,51.17A368.59,368.59,0,0,1,146.34,857c60.45-169.21,320.17-178.22,298.35-358.06-8.78-72.34-12.23-140.9-2-203.13,2.48-1.28,4.95-2.55,7.43-3.8,146.25-73.34,256.2,40.57,399.15-9.19C978.24,237.93,1024.59,167.6,1076.94,94Zm601.8,698.52A53.69,53.69,0,1,1,1625,846.2,53.72,53.72,0,0,1,1678.74,792.52Zm287-293.61a32.66,32.66,0,1,1-32.63,32.66A32.68,32.68,0,0,1,1965.69,498.91ZM2094,388.76a15.88,15.88,0,1,1-15.9,15.88A15.9,15.9,0,0,1,2094,388.76Zm-128.32-50.52a15.88,15.88,0,1,1-15.9,15.88A15.9,15.9,0,0,1,1965.69,338.24Zm-50.93-59.3a15.88,15.88,0,1,1-15.82,15.88A15.89,15.89,0,0,1,1914.76,278.94ZM743.11,155.67a53.69,53.69,0,1,1-53.7,53.68A53.72,53.72,0,0,1,743.11,155.67Zm160.13,0a15.88,15.88,0,1,1-15.9,15.88A15.9,15.9,0,0,1,903.24,155.67Zm8-103.91a15.88,15.88,0,1,1-15.9,15.88A15.9,15.9,0,0,1,911.19,51.76Z"/><path class="cls-3" d="M2389,1599.73a14.88,14.88,0,1,1-14.85,14.88A14.84,14.84,0,0,1,2389,1599.73Zm-155-62.92a30.9,30.9,0,1,1-30.9,30.9A30.93,30.93,0,0,1,2233.94,1536.81Zm-1752.37,16a14.89,14.89,0,1,1-14.93,14.89A14.89,14.89,0,0,1,481.57,1552.82Zm-187.5-89.12a59.45,59.45,0,1,1-59.48,59.44A59.46,59.46,0,0,1,294.07,1463.7Zm2155.57-32.11a45.78,45.78,0,1,1-45.82,45.77A45.76,45.76,0,0,1,2449.64,1431.59ZM2318.92,1495a6.65,6.65,0,1,1-6.6,6.65A6.67,6.67,0,0,1,2318.92,1495ZM669.07,1373.59a43.32,43.32,0,1,1-43.35,43.32A43.33,43.33,0,0,1,669.07,1373.59Zm-202.43,43.32a14.88,14.88,0,1,1-14.85,14.88A14.9,14.9,0,0,1,466.64,1416.91Zm918.08-90.4a52.64,52.64,0,1,1-52.58,52.64A52.65,52.65,0,0,1,1384.72,1326.51ZM1098.89,1370a10.38,10.38,0,1,1-10.42,10.38A10.38,10.38,0,0,1,1098.89,1370ZM2468,1356.66a6.65,6.65,0,1,1-6.68,6.65A6.67,6.67,0,0,1,2468,1356.66Zm-1242.75-99a18.51,18.51,0,1,1-18.45,18.51A18.49,18.49,0,0,1,1225.27,1257.64ZM992.54,1208a43.33,43.33,0,1,1-43.35,43.32A43.34,43.34,0,0,1,992.54,1208Zm-757.95-29.77a14.89,14.89,0,1,1-14.85,14.88A14.84,14.84,0,0,1,234.59,1178.24ZM1084.27,1071a20.76,20.76,0,1,1-20.78,20.76A20.75,20.75,0,0,1,1084.27,1071Zm947.32-218.37a18.51,18.51,0,1,1-18.52,18.51A18.55,18.55,0,0,1,2031.59,852.61ZM2109.52,784a6.66,6.66,0,1,1-6.68,6.65A6.67,6.67,0,0,1,2109.52,784Zm-114.08-57a6.65,6.65,0,1,1-6.6,6.65A6.67,6.67,0,0,1,1995.44,727Zm67-100.39a30.9,30.9,0,1,1-30.9,30.89A30.92,30.92,0,0,1,2062.49,626.64Zm47-77.83a6.66,6.66,0,1,1-6.68,6.65A6.67,6.67,0,0,1,2109.52,548.81ZM481.57,525.1A18.51,18.51,0,1,1,463,543.61,18.48,18.48,0,0,1,481.57,525.1ZM693.82,319.54a18.51,18.51,0,1,1-18.45,18.51A18.49,18.49,0,0,1,693.82,319.54ZM918.44,303.4a18.51,18.51,0,1,1-18.52,18.51A18.55,18.55,0,0,1,918.44,303.4Zm247.35,5.76a10.38,10.38,0,1,1-10.35,10.38A10.39,10.39,0,0,1,1165.79,309.16Zm-92-111a52.64,52.64,0,1,1-52.65,52.64A52.65,52.65,0,0,1,1073.84,198.12Z"/><path class="cls-4" d="M1899,103.06a19.55,19.55,0,0,0-19.52-19.54H1226.38a19.56,19.56,0,0,0-19.52,19.54V454.81a19.55,19.55,0,0,0,19.52,19.54h653.07A19.54,19.54,0,0,0,1899,454.81Z"/><path class="cls-5" d="M1879.29,102.09a18.56,18.56,0,0,0-18.57-18.57H1225.29a18.56,18.56,0,0,0-18.57,18.57V436.25a18.56,18.56,0,0,0,18.57,18.56h635.43a18.56,18.56,0,0,0,18.57-18.56Z"/><path class="cls-6" d="M1206.81,307.16V454.81a19.51,19.51,0,0,0,19.5,19.55h451.8V326.7a19.55,19.55,0,0,0-19.5-19.54Z"/><path class="cls-7" d="M1572.14,310h-38.55V423.88h38.55Zm-268.66-26.93h-38.55V397h38.55Zm201.45-56.95h-38.55V379.56h38.55ZM1773.59,253H1735V366.93h38.55Z"/><path class="cls-8" d="M1572.14,310h-38.55V423.88h38.55Zm-268.66-2.83h-38.55V397h38.55Zm201.45,0h-38.55v72.4h38.55Z"/><path class="cls-9" d="M1370.61,186.56h-38.55V340h38.55Zm470.18,0h-38.55V340h38.55ZM1639.26,158h-38.55V311.46h38.55Zm-201.45-17.39h-38.55V254.51h38.55ZM1706.46,134h-38.55V239.12h38.55Z"/><path class="cls-10" d="M1370.61,307.16h-38.55V340h38.55Zm268.65,0h-38.55v4.3h38.55Z"/><path class="cls-11" d="M1646.69,374.48a36.23,36.23,0,0,0-36.22-36.24H558a36.23,36.23,0,0,0-36.22,36.24v652.39A36.23,36.23,0,0,0,558,1063.11H1610.47a36.23,36.23,0,0,0,36.22-36.24Z"/><path class="cls-12" d="M1627.37,373.16a34.93,34.93,0,0,0-34.94-34.92H556.7a34.93,34.93,0,0,0-34.94,34.92v628.55a34.93,34.93,0,0,0,34.94,34.92H1592.43a34.93,34.93,0,0,0,34.94-34.92Z"/><path class="cls-13" d="M596.92,991.78h990.9V988H596.92Zm0-92.68h990.9v-3.75H596.92Zm0-92.69h990.9v-3.75H596.92Zm0-92.68h990.9V710H596.92Zm0-92.69h990.9v-3.75H596.92Zm0-92.68h990.9v-3.75H596.92Zm0-92.68h990.9v-3.75H596.92Z"/><path class="cls-14" d="M697.94,338.24H558a36.23,36.23,0,0,0-36.22,36.24V529.36H657.52A40.39,40.39,0,0,0,697.94,489Z"/><path class="cls-14" d="M521.77,632.42V876h34.57a24.33,24.33,0,0,0,24.3-24.36V656.77a24.32,24.32,0,0,0-24.3-24.35Z"/><path class="cls-14" d="M521.77,936.2v90.67A36.23,36.23,0,0,0,558,1063.11H1000V981.65a45.49,45.49,0,0,0-45.45-45.45Z"/><path class="cls-15" d="M713.24,541.18H613.12V987.35H713.24ZM1387,414h-100.2V987.35H1387Zm-336.9,359.29H949.94V987.35h100.13Z"/><path class="cls-16" d="M713.24,936.2H613.12v51.15H713.24Zm236.7,0v51.15H1000v-5.7a45.49,45.49,0,0,0-45.45-45.45Z"/><path class="cls-17" d="M881.69,694.35H781.49v293h100.2Zm673.65,0H1455.22v293h100.12ZM1218.52,588H1118.39V987.35h100.13Z"/><rect class="cls-18" x="781.49" y="936.2" width="100.14" height="51.15"/><rect class="cls-19" x="294.04" y="123.91" width="375" height="375" rx="37.5"/><path class="cls-20" d="M655.7,159.87a36,36,0,0,0-36-36H330a36,36,0,0,0-35.95,36V447.54a36,36,0,0,0,35.95,36H619.75a36,36,0,0,0,36-36Z"/><path class="cls-21" d="M405.19,401.9V382.82l12.25.8V237.39H405.19V219.11H436.9V201.48h15.66v17.63h12.23V201.48h15.66v17.63H482q33.4,0,49.41,12.41t16,31.43a39,39,0,0,1-2.48,13.78,34.93,34.93,0,0,1-8,12.27,48.06,48.06,0,0,1-14.53,9.79,96.77,96.77,0,0,1-22.09,6.61q30.79,3.87,44.18,16.13t13.36,29.64a44.25,44.25,0,0,1-4.06,18.19c-2.7,6.07-7.32,11.49-13.8,16.28s-15.13,8.67-25.88,11.71-24.07,4.55-40,4.55h6.34v19.43H464.79V401.9H452.56v19.43H436.9V401.9Zm61.25-79.82H455.23v30.39q0,14.11.5,27.78h11.71q20.93,0,31.54-7.27t10.6-21.38q0-15-10.36-22.25T466.44,322.08Zm4.76-81.68H455.8q-.58,13.83-.57,27.46v25.08h11.91q22.67,0,33-6.59t10.32-20.65q0-13.62-9.6-19.46T471.2,240.4Z"/><path class="cls-22" d="M560.65,672a20.57,20.57,0,0,0-20.57-20.56H71.26A20.57,20.57,0,0,0,50.69,672V836.41A20.57,20.57,0,0,0,71.26,857H540.08a20.57,20.57,0,0,0,20.57-20.56Z"/><rect class="cls-23" x="50.66" y="651.42" width="497.06" height="186.89" rx="18.69"/><path class="cls-24" d="M50.62,740.42v17a7.48,7.48,0,0,0,4.87-1.8,52.11,52.11,0,0,1,70.73,2.72c.6.64,1.27,1.3,1.95,1.95a70,70,0,0,0,99.07,0h0a57.62,57.62,0,0,1,81.53,0l1.8,1.75a72.69,72.69,0,0,0,102.82,0c.53-.57,1.13-1.13,1.65-1.69a55.39,55.39,0,0,1,78.3,0h0a70.29,70.29,0,0,0,67.28,18.37V763.45a6.88,6.88,0,0,0-2.1.3,56,56,0,0,1-15.45,2.2,55.29,55.29,0,0,1-39.15-16.21h0a70.33,70.33,0,0,0-99.45,0c-.6.57-1.13,1.13-1.73,1.69a57.68,57.68,0,0,1-81.6,0c-.6-.58-1.2-1.17-1.72-1.75a72.74,72.74,0,0,0-102.83,0h0a55,55,0,0,1-77.85,0c-.67-.65-1.27-1.3-2-1.95a67.06,67.06,0,0,0-86.17-7.31Z"/><path class="cls-25" d="M965.07,1008.27a42.51,42.51,0,0,0-42.5-42.5H304.67a42.51,42.51,0,0,0-42.5,42.5v340a42.5,42.5,0,0,0,42.5,42.49h617.9a42.5,42.5,0,0,0,42.5-42.49Z"/><path class="cls-26" d="M951.08,1007.17a41.42,41.42,0,0,0-41.38-41.39H303.55a41.41,41.41,0,0,0-41.38,41.39v331.17a41.41,41.41,0,0,0,41.38,41.4H909.7a41.42,41.42,0,0,0,41.38-41.4Z"/><path class="cls-27" d="M915.77,1013.37v-11H912v11H850.14v-11h-3.75v11h-61.8v-11h-3.75v11H719v-11h-3.75v11H653.34v-11h-3.75v11H587.71v-11H584v11H522.09v-11h-3.75v11H456.46v-11h-3.75v11H390.84v-11h-3.75v11h-61.8v-11h-3.75v11H295.29v3.75h26.25v60.78H295.29v3.75h26.25v60.78H295.29v3.75h26.25V1207H295.29v3.75h26.25v60.78H295.29v3.75h26.25V1336H295.29v3.75h26.25v14.38h3.75v-14.38h61.8v14.38h3.75v-14.38h61.87v14.38h3.75v-14.38h61.88v14.38h3.75v-14.38H584v14.38h3.75v-14.38h61.88v14.38h3.75v-14.38h61.88v14.38H719v-14.38h61.87v14.38h3.75v-14.38h61.8v14.38h3.75v-14.38H912v14.38h3.75v-14.38h16.12V1336H915.77v-60.78h16.12v-3.75H915.77v-60.78h16.12V1207H915.77v-60.78h16.12v-3.75H915.77v-60.78h16.12v-3.75H915.77v-60.78h16.12v-3.75ZM325.29,1275.24V1336h61.8v-60.78Zm459.3,0V1336h61.8v-60.78Zm-65.62,0V1336h61.87v-60.78Zm-65.63,0V1336h61.88v-60.78Zm-65.63,0V1336h61.88v-60.78Zm-65.62,0V1336H584v-60.78Zm-65.63,0V1336h61.88v-60.78Zm-65.62,0V1336h61.87v-60.78Zm459.3,0V1336H912v-60.78Zm-524.85-64.53v60.78h61.8v-60.78Zm65.55,0v60.78h61.87v-60.78Zm65.62,0v60.78h61.88v-60.78Zm65.63,0v60.78H584v-60.78Zm65.62,0v60.78h61.88v-60.78Zm65.63,0v60.78h61.88v-60.78Zm65.63,0v60.78h61.87v-60.78Zm65.62,0v60.78h61.8v-60.78Zm65.55,0v60.78H912v-60.78Zm-328-64.53V1207H584v-60.78Zm-196.8,0V1207h61.8v-60.78Zm65.55,0V1207h61.87v-60.78Zm65.62,0V1207h61.88v-60.78Zm393.68,0V1207H912v-60.78Zm-262.43,0V1207h61.88v-60.78Zm65.63,0V1207h61.88v-60.78Zm65.63,0V1207h61.87v-60.78Zm65.62,0V1207h61.8v-60.78Zm-459.3-64.53v60.78h61.8v-60.78Zm65.55,0v60.78h61.87v-60.78Zm65.62,0v60.78h61.88v-60.78Zm65.63,0v60.78H584v-60.78Zm65.62,0v60.78h61.88v-60.78Zm65.63,0v60.78h61.88v-60.78Zm65.63,0v60.78h61.87v-60.78Zm65.62,0v60.78h61.8v-60.78Zm65.55,0v60.78H912v-60.78Zm0-64.53v60.78H912v-60.78Zm-65.55,0v60.78h61.8v-60.78Zm-65.62,0v60.78h61.87v-60.78Zm-65.63,0v60.78h61.88v-60.78Zm-65.63,0v60.78h61.88v-60.78Zm-262.42,0v60.78h61.8v-60.78Zm196.8,0v60.78H584v-60.78Zm-65.63,0v60.78h61.88v-60.78Zm-65.62,0v60.78h61.87v-60.78Z"/><path class="cls-28" d="M333.77,1273.6l102-102,50,50a7.47,7.47,0,0,0,10.58,0l102.93-102.88,91.59-22.27c17.61,17.57,107,106.93,107,106.93a7.48,7.48,0,0,0,10.58,0L903.84,1108a7.5,7.5,0,1,0-10.59-10.61l-90.09,90.11-104.61-104.6a7.6,7.6,0,0,0-7.12-2l-97.77,23.77a7.24,7.24,0,0,0-3.47,2s-77.82,77.83-99.08,99.07l-50-50a7.59,7.59,0,0,0-10.68,0L323.19,1263a7.49,7.49,0,0,0,10.58,10.6Z"/><path class="cls-29" d="M328.53,1249.94a17.49,17.49,0,1,1-17.47,17.49A17.47,17.47,0,0,1,328.53,1249.94Zm162.15-54.11a17.49,17.49,0,1,1-17.47,17.49A17.47,17.47,0,0,1,490.68,1195.83ZM803.06,1176a17.49,17.49,0,1,1-17.55,17.49A17.53,17.53,0,0,1,803.06,1176Zm-367.8-30.32a17.49,17.49,0,1,1-17.48,17.49A17.52,17.52,0,0,1,435.26,1145.66Zm159.6-51.25a17.49,17.49,0,1,1-17.48,17.49A17.47,17.47,0,0,1,594.86,1094.41Zm303.75-8.6a17.49,17.49,0,1,1-17.47,17.49A17.47,17.47,0,0,1,898.61,1085.81Zm-207.83-14.23a17.49,17.49,0,1,1-17.55,17.49A17.53,17.53,0,0,1,690.78,1071.58Z"/><path class="cls-30" d="M2541.35,1662.42a14.32,14.32,0,0,0-14.41-14.19H14.41a14.19,14.19,0,1,0,0,28.37H2526.94A14.32,14.32,0,0,0,2541.35,1662.42Z"/><path class="cls-31" d="M1334.32,978.55l-20.4-30s-73.8-114.73-111.68-83.11c-19.87,16.55,19.88,36.39,28.43,52.5,0,0-122.4-85.92-178.28,23.09-26.1,50.93,55.35,147.13,112.28,130l37.57,24.71Z"/><path class="cls-32" d="M1740.59,887.09l-205.35,263.79L1342.79,949.66s-158.25,102.48-178.12,168.81c0,0,229.57,301.91,330.75,334.26s119.7,0,119.7,0Z"/><path class="cls-33" d="M1740.59,887.09l-205.35,263.79L1342.79,949.66s-158.25,102.48-178.12,168.81c0,0,229.57,301.91,330.75,334.26s119.7,0,119.7,0Z"/><path class="cls-32" d="M1307,974.34c-3.53,2.58-7.35,5.32-11.25,8.2V1068h-98.48q-5.05,5.65-9.67,11.25h108.15v110.57h-74.48l9.23,11.25h65.25v76.54q5.63,6.3,11.25,12.63v-89.17h110.62v110.57h-91.12c3.52,3.77,7,7.52,10.5,11.25h80.62v78.7q5.63,4.92,11.25,9.5v-88.2h110.55V1433.5h-80.85a197.63,197.63,0,0,0,18.53,11.25h62.32V1464q5.85,1.07,11.25,1.73v-20.94h66.23l2.47-11.25h-68.7V1322.93h93.23l2.47-11.25h-95.7V1201.11h110.55v43.64l12.15-54.89h-.9V1079.29h25.43l2.55-11.25h-28V974.56L1661.24,989v79h-61.5l-8.77,11.25h70.27v110.57H1550.69v-58.77l-11.25,14.45v44.32H1428.89V1079.29h37.88L1456,1068h-27.15v-28.41l-11.25-11.76V1068H1307Zm232.42,226.77H1428.89v110.57h110.55Zm-121.8-121.82H1307v110.57h110.62Zm-232.42,3.06a170.55,170.55,0,0,0-11.25,16.11v32.09c3.07,4,6.82,8.78,11.25,14.36ZM1725,957.47h-39.22l8.77-11.25h32.93Zm-374.7,0-7.5-7.81s-4.35,2.82-11.7,7.81Z"/><path class="cls-32" d="M1740.59,887.09l-205.35,263.79L1342.79,949.66s-158.25,102.48-178.12,168.81c0,0,235.65,281.44,336.82,313.8C1516.57,1437.07,1740.59,887.09,1740.59,887.09Z"/><path class="cls-34" d="M1304.62,976.1l-.38.26-1.12.81-.3.24-1.2.87-.23.14c-1.8,1.33-3.67,2.71-5.62,4.12V1068h-98.48l-3.15,3.51v0l-.52.64-.15.12-.53.61v0l-.07,0-.45.57-.15.18-.53.58-.07.15-.45.49-.15.16-.45.58-.15.16-.45.57-.08,0-.52.63-.08.12-.52.63-.08,0-.52.66v0l-.6.69h108.15v110.57H1227l10.13,11.25h58.65v62.82l11.25,11.61v-74.43h110.62v110.57h-74.47c3.82,3.78,7.72,7.53,11.62,11.25h62.85v56.22q5.63,4.68,11.25,9v-65.27h110.55v38.81c3.53-7.77,7.35-16,11.25-24.75v-14.06h6.3q2.48-5.54,5-11.25h-11.25V1201.11h59.18c1.57-3.73,3.15-7.49,4.8-11.25h-64v-58.77l-11.25,14.45v44.32H1428.89V1079.29h37.88L1456,1068h-27.15v-28.41l-11.25-11.76V1068H1307v-93.7C1306.27,974.92,1305.44,975.5,1304.62,976.1Zm234.82,225H1428.89v110.57h110.55Zm-121.8-121.82H1307v110.57h110.62Zm-235.72,7.38c-.38.52-.75,1-1.13,1.59l-.07.06-.23.37-.07.08-.3.37v.06c-.53.7-1,1.4-1.5,2.09v0l-.3.37v.08l-.3.36v.08l-.3.37v0l-.3.4-.23.43-.3.35v.09l-.22.31-.15.17-.15.27-.15.19-.15.26-.15.22-.15.23-.15.3-.15.16-.3.46v.1l-.3.37-.08.13-.22.35v.12l-.3.38v.09l-.3.45v31c3.07,3.6,6.82,8,11.25,13.08v-60.18l-.38.48-.07.07-.3.42-.08.09-.3.41-.07.09-.38.48v0l-.37.45-.15.21-.15.24-.23.26-.15.21-.22.27-.15.18-.15.3Zm490.57-34.49V974.56L1661.24,989v79h-61.5l-8.77,11.25h70.2C1665.07,1070.11,1668.82,1061.05,1672.49,1052.18Zm40.43-97.7-1.2,3h-26l8.77-11.25h21.83Zm-362.63,3-7.5-7.81-.3.21-.37.21-.15.15-.9.55v0l-.08,0-.82.52-.23.17-1,.68-.07.08-1.13.71-.37.24-1.28.9-1,.71-.15.08-1,.68-.23.12c-.82.54-1.65,1.11-2.55,1.72Z"/><path class="cls-35" d="M1643.1,610.3s13.72,41.47,31.27,57.35L1688.92,598Z"/><polygon class="cls-36" points="1763.16 781.95 1782.52 870.55 1931.71 811.46 1884.7 631.87 1763.16 781.95"/><path class="cls-37" d="M1884.7,631.87c-26.1,64.57-53.69,128.87-113.38,187.42l11.19,51.26,149.2-59.09Z"/><path class="cls-31" d="M1869.25,667.64c-26.3,52.67-53.55,105-97.93,151.65l11.19,51.26L1912,819.29Z"/><path class="cls-37" d="M1668.93,611.27a554,554,0,0,0,11.27,90c.94,4.26-6.34,29.42-6.34,29.42h13.42s7.69,48.51,39.39,54.64c48.9,9.45,83.09-37.36,93.28-52.44s49.3-86.58,49.3-86.58l-115.74-61Z"/><path class="cls-31" d="M1735.71,631.87c-9.38,10.29-71.5-9.07-65.83-4.36a546.4,546.4,0,0,0,10.32,73.8c.94,4.26-6.34,29.42-6.34,29.42h13.42s7.69,48.51,39.39,54.64c48.9,9.45,58.47-33.67,53-51-3.51-11.32-10.12-11.55-16.52-21.79C1752.3,695.29,1735.71,631.87,1735.71,631.87Z"/><path class="cls-38" d="M1719.79,755.62a2.58,2.58,0,0,0-3.17-1,2.66,2.66,0,0,0-1.42,3.45c.68,1.43,2.7,2.88,5.67,3,4.92.16,12.34-2.89,12.34-12.4a2.61,2.61,0,0,0-2.63-2.63,2.65,2.65,0,0,0-2.63,2.63c0,4.64-3,6.66-5.67,7.07A8.79,8.79,0,0,1,1719.79,755.62Z"/><path class="cls-39" d="M1724.24,655.36a23.84,23.84,0,0,0-11.67-9.28c-5.26-1.94-12.41-2.53-21.65,1.09a2.25,2.25,0,0,0,1.62,4.2c7.89-3.09,14-2.72,18.48-1.07a19.11,19.11,0,0,1,9.31,7.32,2.26,2.26,0,1,0,3.91-2.26Z"/><ellipse class="cls-40" cx="1705.79" cy="674.78" rx="5.06" ry="8.75"/><path class="cls-41" d="M1748.52,623.15s-28.73,9.4-37.7,3-29.14-10.49-41.55-7.85c-19.16,4.07-44.18-18.47-45.73-41.48-3.51-51.69,22.12-51.75,31.77-68.88s20.5-52.3,50.45-59.35,47.68,6.06,63.33,0c37.3-14.44,75.81-16.12,100.16,34.58,0,0,63.67,1.35,63.67,60.76,0,38.6-15.44,37.84,0,70.73,10.46,22.21-6,70.33-23.47,84.42s-57.6,35.7-87.82,31.33c0,0-10.92-28.52-10.25-36,0,0,26.71-8.38,23-37.89-2.36-19-20.84-24.32-36.42-14.31-6.07,3.89-9.85,12.15-9.85,23.84,0,19.58-3.71,42.62-8.5,42.62C1766,708.64,1741.17,644.78,1748.52,623.15Z"/><path class="cls-42" d="M1748.52,623.15s-30.42,10.05-39.32,3.61-27.52-11.15-39.93-8.51c-19.16,4.07-44.18-18.47-45.73-41.48-3.51-51.69,32.71-44.85,42.36-62s9.91-47.13,39.86-54.18,49.91,6.06,65.56,0c37.23-14.44,65.36-10.07,89.77,40.63,0,0,57.2-14.19,57.2,45.22,0,38.6-.81,35.25,14.63,68.14,10.46,22.21-6,70.33-23.47,84.42s-57.6,35.7-87.82,31.33c0,0-10.92-28.52-10.25-36,0,0,26.71-8.38,23-37.89-2.36-19-20.84-24.32-36.42-14.31-6.07,3.89-9.85,12.15-9.85,23.84,0,19.58-3.71,42.62-8.5,42.62C1766,708.64,1741.17,644.78,1748.52,623.15Z"/><path class="cls-43" d="M1758.57,607.43s-38.78,16.24-47.75,9.8-29.48-5.27-41.89-2.62c-19.09,4.07-43.84-14.83-45.39-37.84-3.51-51.69,32.71-44.85,42.36-62s9.91-47.13,39.86-54.18,49.91,6.06,65.56,0c37.23-14.44,65.36-10.07,89.77,40.63,0,0,57.2-14.19,57.2,45.22,0,38.6-.81,35.25,14.63,68.14,10.46,22.21-6,70.33-23.47,84.42s-44.38,26.25-74.6,21.89c0,0-18.61-14.43-17.94-21.89,0,0,26.85-13,23.14-42.54-2.36-19-25.57-33.7-41.15-23.68-6,3.89-14,19.56-14,31.26,0,19.59-2.7,35-7.49,35C1763.76,699,1751.15,629.06,1758.57,607.43Z"/><path class="cls-41" d="M1840.44,658.16a42.81,42.81,0,0,0,4.5,13.25c6.6,12.52,18.3,19.72,28.43,28.16,4.87,4.1,9.45,8.46,13,13.73-1.42.63-2.85,1.23-4.27,1.8A63,63,0,0,0,1870.44,703c-10.5-8.81-22.57-16.45-29.47-29.51a22.26,22.26,0,0,1-1.35-2.73A42.85,42.85,0,0,0,1840.44,658.16Zm77.48,31.65c-1.88-.87-3.75-1.74-5.55-2.62-12.38-5.83-24.9-12.06-33.38-22.61-11.77-14.58-12.52-35.76-15.45-55.05-2.85-18-7.65-34.38-27.75-40.71a39.12,39.12,0,0,0-13-1.74,2.23,2.23,0,0,1-2.32-2.19,2.19,2.19,0,0,1,2.17-2.31,44,44,0,0,1,14.55,1.95c22,6.94,27.75,24.56,30.83,44.31,2.85,18.51,3.22,38.93,14.47,52.91,8.1,10,20.1,15.83,31.8,21.37,2.1,1,4.13,1.93,6.15,2.91C1919.57,687.35,1918.74,688.61,1917.92,689.81Zm-146-68.66c-2.1,8.8-1,17.45-.3,26.06.67,8,.9,15.91-3,23.87a2.33,2.33,0,0,0,1,3,2.24,2.24,0,0,0,3-1.05c4.27-8.73,4.12-17.43,3.45-26.19-.68-8.14-1.8-16.34.15-24.66a2.24,2.24,0,1,0-4.35-1Zm63.15,22.38c0-1.23.07-2.45.15-3.67.45-10.32,1.57-20.43-2-30.45-3.83-10.68-13.5-20.78-25.43-21.06a2.28,2.28,0,0,1-2.17-2.31,2.23,2.23,0,0,1,2.32-2.19c13.73.33,25.13,11.73,29.48,24.06,3.75,10.58,2.77,21.27,2.25,32.16a91.47,91.47,0,0,0,.15,14.42A29.66,29.66,0,0,0,1835.12,643.53ZM1936,639.78a75.33,75.33,0,0,0-14.7-11.66c-3.67-2.22-7.87-3.74-11.85-5.51-4.35-1.92-8.55-4.12-11.92-7.56-8.78-9-12.9-17.67-16.2-26.58-3.08-8.53-5.4-17.28-10.58-26.72-5-9-13.87-18.61-25-16.84a2.25,2.25,0,1,1-.75-4.44c13-2.08,23.85,8.58,29.62,19.11,5.33,9.67,7.73,18.61,10.95,27.35,3.08,8.36,6.9,16.53,15.15,25,3,3,6.68,4.91,10.5,6.6,4.13,1.83,8.48,3.44,12.38,5.75a76.14,76.14,0,0,1,12.75,9.65C1936.29,635.82,1936.14,637.79,1936,639.78Zm-133-8.89a42.18,42.18,0,0,0-2.1-7.74c-1.72-4-4.5-7.28-9.52-7.75a2.25,2.25,0,1,1,.37-4.48c7,.65,11,4.94,13.28,10.49a43.65,43.65,0,0,1,2.32,8.37A18.89,18.89,0,0,0,1802.94,630.89Zm-179.4-56.64c5.85,6.24,13.43,8.12,21.83,8.63s17.55-.31,26.47.16c9.15.48,16.73,4.65,24.3,8.88,7,3.9,13.95,7.86,22.35,8.26,10.58.51,21.23-3.17,31.88-5.91,11.32-2.91,22.72-4.78,34.05-.46a2.26,2.26,0,0,1-1.65,4.2c-10.35-4-20.85-2.06-31.28.62-11.1,2.85-22.2,6.58-33.22,6-9.08-.44-16.73-4.59-24.3-8.82-7-3.9-14-7.87-22.35-8.31-8.93-.48-18.08.35-26.55-.17-7.73-.47-14.85-2-20.85-6.39a39,39,0,0,1-.53-4.21C1623.62,575.92,1623.62,575.08,1623.54,574.25Zm298.8,16.5c-5-3.42-9.9-7-13.2-11.79-6.75-9.82-7.65-24.45-11.17-37-1.88-6.85-4.58-13-10-17.06-3.52-2.66-8.25-4.35-14.55-4.76a35.65,35.65,0,0,0-11.92,1,2.25,2.25,0,1,1-1.2-4.34,40.25,40.25,0,0,1,13.42-1.17c7.35.47,12.83,2.54,17,5.65,6.15,4.63,9.45,11.6,11.63,19.45,3.37,12,4,26.16,10.57,35.61a32.52,32.52,0,0,0,7.35,7.32A58.55,58.55,0,0,0,1922.34,590.75Zm-289.57-51.47c9.6-1.28,19.5-3.44,29-.34s17.78,10.92,26,16.53c11.55,7.81,24.9,14.25,38.85,15.81,9.37,1,21.52-3,33.37-5.27,12.75-2.46,25.13-2.8,33.75,5.69a2.25,2.25,0,0,1-3.15,3.21c-7.57-7.47-18.52-6.64-29.77-4.47-12.23,2.35-24.9,6.39-34.65,5.31-14.7-1.64-28.8-8.34-40.88-16.56-7.95-5.37-15.82-13-25-16-10.13-3.32-20.85,0-31.13,1h0A31.52,31.52,0,0,1,1632.77,539.28ZM1666.44,514c1,.69,2,1.4,3,2.13,11.33,8.28,21.9,19.29,36.08,23.07,8.1,2.17,16.87,1.4,25.72-.34,9.3-1.8,18.68-4.64,27.9-6.55,19.28-4,37.58-3.88,51.45,16.61a2.24,2.24,0,0,1-.6,3.12,2.28,2.28,0,0,1-3.15-.6c-12.6-18.6-29.25-18.36-46.8-14.73-9.22,1.92-18.67,4.77-27.9,6.57-9.6,1.87-19.05,2.61-27.82.27-14.7-3.93-25.8-15.19-37.5-23.79-1-.69-2-1.38-2.93-2a15.1,15.1,0,0,0,2.1-3Zm10.13-26a137.22,137.22,0,0,1,13.2,8.82c9.45,6.95,18.82,14.49,29.17,17.3,7.43,2,14.7,1.27,21.83-.34,7.57-1.68,15-4.29,22.5-5.88,14.62-3.1,28.27-2,42.37,2.61,8.55,2.79,16.95,6.54,21.83,14.47a2.28,2.28,0,0,1-3.9,2.35c-4.28-7-11.78-10.08-19.28-12.54-13.35-4.38-26.25-5.42-40-2.49-7.5,1.59-14.92,4.2-22.5,5.88-7.87,1.76-15.82,2.5-24,.28-10.8-3-20.77-10.73-30.67-18a132.24,132.24,0,0,0-12.15-8.25C1675.44,490.79,1676,489.39,1676.57,488Zm22.65-25.23c6.45,2.49,11.92,6.7,17.25,11.13,7.35,6.14,14.47,12.74,24.15,14.66a74.77,74.77,0,0,0,23.4,1c12.07-1.5,23.55-6.89,34.8-9.46,11.92-2.75,23.62-2.43,35.17,8a52.24,52.24,0,0,1,9.53,10.7,34.24,34.24,0,0,1,5.85,17.52,2.25,2.25,0,0,1-4.5.23,30.7,30.7,0,0,0-5-15.25,52.09,52.09,0,0,0-8.85-9.84c-10.27-9.21-20.55-9.36-31.2-6.93-11.32,2.6-23,8-35.17,9.53a79.19,79.19,0,0,1-24.9-1.08c-10.43-2.07-18.15-9-26.18-15.61-6-5-12.15-9.85-20-11.65A40.8,40.8,0,0,1,1699.22,462.77Z"/><path class="cls-44" d="M1809.76,670.94c-1.62-2.7-.6-6.41,1.29-9.05,1.61-2.31,4.24-4,6.94-2.45a3.37,3.37,0,1,0,3.24-5.9c-5.94-3.34-12-.7-15.72,4.4-3.37,4.78-4.45,11.58-1.48,16.47a3.35,3.35,0,1,0,5.73-3.47Z"/><path class="cls-45" d="M1750.72,868.9c4.42,10,161.17-30,204.75-103.47,0,0,111.6,153.45,166.5,339.07s109.2,545.09,109.2,545.09H1575.29s32.7-344.63,47.93-447.16C1644.37,1060.33,1750.72,868.9,1750.72,868.9Z"/><path class="cls-46" d="M1750.72,868.9c4.42,10,146.77-10.81,190.35-84.32,0,0,104.1,142.11,159.07,327.74s131,537.27,131,537.27H1575.29s32.7-344.63,47.93-447.16C1644.37,1060.33,1750.72,868.9,1750.72,868.9Z"/><path class="cls-47" d="M1916.17,824.4H1994c2.25,3.61,4.5,7.36,6.82,11.25h-84.67V946.22h110.55V880.8q5.51,10.14,11.25,21v44.46h22.27c1.8,3.71,3.6,7.46,5.33,11.25H2038V1068h72.37q1.92,5.6,3.83,11.25H2038v110.57h106.57c.9,3.72,1.8,7.46,2.7,11.25H2038v110.57h110.55v-105.1c3.82,16.27,7.57,33,11.25,50v55.14h11.62c.75,3.76,1.5,7.52,2.25,11.25h-13.87V1433.5h35l.45,2.49c.38,1.78.68,3.57,1,5.35l.67,3.41h-37.12v110.58h56.32c.6,3.84,1.28,7.59,1.88,11.25h-58.2v83h-11.25v-83H2038v83h-11.25v-83H1916.17v83h-11.25v-83H1794.29v83H1783v-83H1672.49v83h-11.25v-83h-77.92q.56-5.49,1.12-11.25h76.8V1444.75h-65.7l.9-8.4.23-2.85h64.57V1322.93h-52.8l.38-3,.45-4.4.45-3.87h51.52V1201.11h-37.8q.8-5.58,1.8-11.25h36V1079.29h-5.32q1.9-5.64,4-11.25h1.27v-3.54c3.68-9.87,7.43-19.64,11.25-29.22V1068H1783V957.47h-76.8c1.8-3.84,3.53-7.6,5.25-11.25H1783v-80q5.4-1.26,11.25-2.89v82.88h110.63V835.65h-37.35c7.2-3.51,14.4-7.26,21.37-11.25h16v-9.83q5.73-3.83,11.25-7.89Zm232.35,620.35H2038v110.58h110.55Zm-121.8,0H1916.17v110.58h110.55Zm-121.8,0H1794.29v110.58h110.63Zm-121.88,0H1672.49v110.58H1783Zm365.48-121.82H2038V1433.5h110.55Zm-121.8,0H1916.17V1433.5h110.55Zm-121.8,0H1794.29V1433.5h110.63Zm-121.88,0H1672.49V1433.5H1783Zm0-121.82H1672.49v110.57H1783Zm243.68,0H1916.17v110.57h110.55Zm-121.8,0H1794.29v110.57h110.63Zm121.8-121.82H1916.17v110.57h110.55Zm-121.8,0H1794.29v110.57h110.63Zm-121.88,0H1672.49v110.57H1783Zm121.88-121.82H1794.29V1068h110.63Zm121.8,0H1916.17V1068h110.55Z"/><path class="cls-48" d="M1746.82,885.53s129.22,5.24,216.67-111a15,15,0,0,0-24-18c-77.4,103-191.55,99.06-191.55,99.06a15,15,0,1,0-1.12,30Z"/><path class="cls-33" d="M1770.67,1051.31c14.77-48.53,70.57-110.36,141.15-103.91s143.4,68.15,144.37,161.32-49.5,536.37-49.5,536.37H1654S1734.07,1171.43,1770.67,1051.31Z"/><path class="cls-49" d="M1853.77,957.47a114.9,114.9,0,0,1,58-10.07,149,149,0,0,1,41.4,10.07h-37V1068h110.55v-52.5a161.82,161.82,0,0,1,11.25,18.54v34h12.9c1,3.68,1.8,7.44,2.47,11.25H2038v110.57h14.17c-.22,3.67-.52,7.42-.82,11.25H2038v110.57h3.67c-.37,3.74-.67,7.49-1.05,11.25H2038v27c-3.68,37.44-7.5,75.33-11.25,110.91v-16.14H1916.17v110.58h100.5c-.45,3.84-.83,7.59-1.28,11.25h-99.22v78.51h-11.25v-78.51H1794.29v78.51H1783v-78.51H1672.49v78.51h-11.25v-42c3-17.36,6.83-39.35,11.25-64.55v16.79H1783V1444.75h-93.82q1-5.58,2-11.25H1783V1322.93h-71.25l1-5.64,1.05-5.61H1783V1201.11h-47.32c.75-3.78,1.5-7.54,2.32-11.25h45V1079.29h-20.1q1.47-5.89,2.93-11.25H1783v-44.77a178.25,178.25,0,0,1,11.25-17V1068h110.63V957.47Zm51.15,487.28H1794.29v110.58h110.63Zm121.8-121.82H1916.17V1433.5h110.55Zm-121.8,0H1794.29V1433.5h110.63Zm121.8-121.82H1916.17v110.57h110.55Zm-121.8,0H1794.29v110.57h110.63Zm121.8-121.82H1916.17v110.57h110.55Zm-121.8,0H1794.29v110.57h110.63Z"/><path class="cls-50" d="M1781.47,1050.64c14.77-48.53,59.77-109.69,130.35-103.24s143.4,68.15,144.37,161.32-82.35,536.37-82.35,536.37h-290.4S1744.87,1170.76,1781.47,1050.64Z"/><path class="cls-51" d="M1781.47,1050.64c14.77-48.53,59.77-86.1,130.35-79.65s117.37,68.16,118.27,161.32-56.25,512.78-56.25,512.78h-290.4S1744.87,1170.76,1781.47,1050.64Z"/><path class="cls-52" d="M1904.92,970.5c2.25.11,4.57.28,6.9.49,1.42.14,2.92.29,4.35.47V1068h104.77c1.13,3.66,2.1,7.41,3,11.25H1916.17v110.57h110.55v-96.93a252.21,252.21,0,0,1,3.37,39.38c.15,15.26-1.27,39.28-3.75,68.8H1916.17v110.57h99.22l-.3,2.12c-.15,1.8-.37,3.6-.52,5.4l-.45,3.73h-97.95V1433.5h85l-.15,1c-.22,1.81-.45,3.61-.67,5.42l-.6,4.81h-83.55v110.58h69.52l-.82,6.78-.6,4.47h-68.1v78.51h-11.25v-78.51H1794.29v78.51H1783v-78.51h-89.1q.8-5.49,1.58-11.25H1783V1444.75h-71.92c.52-3.72,1.05-7.46,1.65-11.25H1783V1322.93h-53.62c.6-3.75,1.12-7.5,1.72-11.25H1783V1201.11h-33.52c.6-3.78,1.27-7.54,2-11.25H1783V1079.29h-9.22c.9-3.93,1.87-7.68,2.77-11.25H1783v-22.27a120.27,120.27,0,0,1,11.25-23.29V1068h110.63Zm0,474.25H1794.29v110.58h110.63Zm0-121.82H1794.29V1433.5h110.63Zm0-121.82H1794.29v110.57h110.63Zm0-121.82H1794.29v110.57h110.63Z"/><path class="cls-53" d="M973.09,811.28c-7.3,3.09-10.72,8.82-11.55,17.69a31.75,31.75,0,0,0,7.87,23.83c28.17,31.58,130.31,146.05,168.51,188.89a28.7,28.7,0,0,0,34.15,6.62c21-10.36,54-26.73,75.78-37.46a41.62,41.62,0,0,0,23.08-34.73c.24-3.27.35-5.51.35-5.51l-3.87,10.72-114.91,43.34L970,823.73Z"/><path class="cls-54" d="M1096.23,772.68c-5.69-6.48-16.39-9-23.92-5.7l-96.55,42.79c-7.48,3.31-9,11.29-3.32,17.77l169.77,193.37c5.67,6.46,16.43,9,23.91,5.68l96.55-42.79c7.53-3.33,9-11.29,3.33-17.75Z"/><path class="cls-55" d="M1092.23,777.48c-4.69-5.34-13.49-7.47-19.7-4.71l-90,39.87c-6.21,2.75-7.45,9.33-2.75,14.67l160.24,182.51c4.69,5.35,13.54,7.45,19.75,4.7l90-39.87c6.21-2.75,7.4-9.31,2.71-14.65Z"/><path class="cls-56" d="M1116.1,947.33l-8-8.89,6.17-2.26L1053,868l-5.84,2.63-7.66-8.52,15.12-6.81-7.4-8.22,7.47-3.37,7.39,8.22,5.84-2.63-7.4-8.22,7.47-3.36,7.39,8.22.73-.33q15.93-7.18,28.75-4.83T1125.64,852a26.35,26.35,0,0,1,4.59,7,15.53,15.53,0,0,1,1.34,7.44,15.83,15.83,0,0,1-2.83,7.68,33.71,33.71,0,0,1-7.76,7.83q16.3-4.81,27.83-2a36.25,36.25,0,0,1,18.79,11,28.74,28.74,0,0,1,5.7,9.35,16.37,16.37,0,0,1,.24,10.56q-1.65,5.41-7.43,11T1149,932.52l3-1.36,8.15,9.06-7.47,3.36-8.15-9.06-5.83,2.63,8.15,9.06-7.47,3.36-8.15-9.05ZM1111.84,897l-5.35,2.41,12.74,14.17q5.93,6.57,11.89,12.84l5.58-2.52q10-4.5,12-10.17t-3.91-12.24q-6.27-7-14.26-8.15T1111.84,897Zm-32-39.1-7.35,3.31q5.54,6.57,11.24,12.92l10.52,11.69,5.68-2.56q10.8-4.86,13-10.16t-3.73-11.85q-5.71-6.35-12.74-7T1079.87,857.86Z"/><ellipse class="cls-57" cx="1031.15" cy="799.9" rx="2.28" ry="3.19" transform="translate(183.13 1791.85) rotate(-87.27)"/></g></g></svg>