<svg xmlns="http://www.w3.org/2000/svg" viewBox="0 0 110.36 104.08"><defs><style>.cls-1{fill:#037cf9;}.cls-2{fill:#fefefe;}</style></defs><g id="Layer_2" data-name="Layer 2"><g id="Layer_1-2" data-name="Layer 1"><g id="Layer_1-2-2" data-name="Layer 1-2"><path class="cls-1" d="M0,95.17V40c.55-5.68,6.2-9.2,10.89-9,2.69.14,5.39,0,8.08,0,1.53,0,1.56,0,1.79-1.49a33.75,33.75,0,0,1,5-13.31C31.86,6.9,40.45,1.48,51.55.24A33.44,33.44,0,0,1,76,7,34.18,34.18,0,0,1,89.44,29.11c0,.29.12.57.14.85.06.82.51,1.08,1.29,1.08,3,0,6-.06,8.93,0a10.53,10.53,0,0,1,9.83,6.38,8.24,8.24,0,0,1,.73,3.66v53c0,5.28-4.65,9.74-9.91,10H10.54c-4.55,0-7.83-2.17-9.89-6.23A14.55,14.55,0,0,1,0,95.17Z"/><path class="cls-2" d="M55.09,96.89h-44c-2.91,0-4.17-1.27-4.17-4.21V42.51c0-3,1.24-4.2,4.17-4.2H20c.67,0,.9.15,1,.85A28.59,28.59,0,0,0,22.15,45c.16.48.2.77-.41,1A10.32,10.32,0,0,0,26,65.83H84.27A10.32,10.32,0,0,0,88.6,46.07c-.6-.28-.76-.51-.54-1.15A25.21,25.21,0,0,0,89.28,39c.07-.7.34-.78.93-.78h9.36a3.47,3.47,0,0,1,3.77,3.14,3.87,3.87,0,0,1,0,.59V92.7c0,2.86-1.27,4.13-4.14,4.13Z"/><path class="cls-2" d="M55.15,59H42.88a3.54,3.54,0,0,1-2-.56,27.54,27.54,0,1,1,41.6-26.49c1.07,11.44-3.55,20.25-13.13,26.52a3.27,3.27,0,0,1-1.92.53C63.34,59,59.25,59,55.15,59Z"/><path class="cls-2" d="M79.73,59a35.06,35.06,0,0,0,4.89-6.41c.26-.44.49-.47.94-.32A3.46,3.46,0,0,1,84.77,59H84Z"/><path class="cls-2" d="M30.48,59H25.65a3.45,3.45,0,0,1-3.22-2.93,3.5,3.5,0,0,1,2.22-3.75c.4-.15.69-.25,1,.24A34.51,34.51,0,0,0,30.48,59Z"/><path class="cls-1" d="M79.28,83.11a3.45,3.45,0,1,1-3.47,3.43v-.08A3.46,3.46,0,0,1,79.28,83.11Z"/><path class="cls-1" d="M96.48,86.55A3.45,3.45,0,1,1,93,83.11h.07A3.48,3.48,0,0,1,96.48,86.55Z"/><path class="cls-1" d="M58.61,24.53H53.55A3.44,3.44,0,0,0,50,27.8V28a3.49,3.49,0,0,0,3.56,3.41,34.1,34.1,0,0,1,5,.16,10.32,10.32,0,0,1,1.11,20.07c-.69.19-1.1.38-1.25,1.23a3.29,3.29,0,0,1-3.33,2.65,3.39,3.39,0,0,1-3.32-2.7c-.13-.63-.34-.78-1-.76H46.6a3.44,3.44,0,0,1,0-6.88H56.4c2.28,0,3.84-1.4,3.85-3.43s-1.56-3.43-3.84-3.46c-2.11,0-4.22.17-6.29-.55a10.31,10.31,0,0,1,.46-19.7c.64-.18,1-.32,1.18-1.16a3.39,3.39,0,0,1,6.6-.16c.18.86.56.94,1.28.91h4A3.45,3.45,0,1,1,64,24.53h-5.4Z"/></g></g></g></svg>