<svg xmlns="http://www.w3.org/2000/svg" viewBox="0 0 200 193.93"><defs><style>.cls-1{fill:#037cf9;}.cls-2{opacity:0.3;}</style></defs><g id="Layer_2" data-name="Layer 2"><g id="Layer_1-2" data-name="Layer 1"><path class="cls-1" d="M154.19,63.14a1.59,1.59,0,0,1-.67-.15,1.54,1.54,0,0,1-.71-2.05L163,39.84a5.7,5.7,0,0,0-2.67-7.61L123,14.31A5.69,5.69,0,0,0,115.43,17L98.66,51.36A1.54,1.54,0,0,1,95.9,50l16.77-34.37a8.77,8.77,0,0,1,11.7-4.1l37.26,17.92a8.78,8.78,0,0,1,4.1,11.71l-10.16,21.1A1.52,1.52,0,0,1,154.19,63.14Z"/><path class="cls-1" d="M115.74,133.11a8.79,8.79,0,0,1-3.78-.86l-18.71-9a1.53,1.53,0,1,1,1.33-2.76l18.71,9a5.71,5.71,0,0,0,7.61-2.67l8.87-18.37a1.53,1.53,0,1,1,2.76,1.33l-8.87,18.38A8.79,8.79,0,0,1,115.74,133.11Z"/><path class="cls-1" d="M125.42,121.05a1.43,1.43,0,0,1-.66-.16L97.48,107.77A1.53,1.53,0,1,1,98.81,105l27.28,13.12a1.55,1.55,0,0,1,.72,2.05A1.57,1.57,0,0,1,125.42,121.05Z"/><path class="cls-1" d="M163.06,43.3a1.47,1.47,0,0,1-.67-.16L114.1,19.92a1.54,1.54,0,0,1,1.33-2.77l48.29,23.23a1.54,1.54,0,0,1-.66,2.92Z"/><path class="cls-1" d="M102.23,117.83a1.55,1.55,0,0,1-.66-.15l-5.16-2.48a1.53,1.53,0,0,1-.72-2,1.55,1.55,0,0,1,2-.72l5.16,2.49a1.53,1.53,0,0,1-.67,2.91Z"/><path class="cls-1" d="M42.16,148.49a1.55,1.55,0,0,1-.66-.15,1.53,1.53,0,0,1-.72-2.05L55.36,116l5.86-32.63a17.9,17.9,0,0,1,7.61-14.21l31-21.49a8.89,8.89,0,0,1,12.51,2.42,8.9,8.9,0,0,1-2.11,12L87.85,78.76a47.27,47.27,0,0,1,8.61,14.15,35.47,35.47,0,0,1,2.3,16.47c-.71,6.77-3.52,13.34-8.36,19.54A1.53,1.53,0,1,1,88,127a35.23,35.23,0,0,0,7.72-17.92,32.47,32.47,0,0,0-2.07-15,43.76,43.76,0,0,0-9.15-14.44,1.54,1.54,0,0,1,.15-2.33l23.75-17.74a5.81,5.81,0,0,0,1.38-7.85,5.82,5.82,0,0,0-8.19-1.58l-31,21.48a14.85,14.85,0,0,0-6.31,11.88,1.06,1.06,0,0,1,0,.25l-5.91,33a1.63,1.63,0,0,1-.13.39L43.54,147.62A1.52,1.52,0,0,1,42.16,148.49Z"/><path class="cls-1" d="M146.05,80.05a8.25,8.25,0,0,1-8-6h0a8.25,8.25,0,0,1,5.73-10.15l13.56-3.77A8.25,8.25,0,1,1,161.81,76l-13.56,3.77A8,8,0,0,1,146.05,80.05Zm13.56-17.19a5.12,5.12,0,0,0-1.39.19l-13.56,3.77a5.18,5.18,0,0,0-3.61,6.37h0a5.19,5.19,0,0,0,6.38,3.61L161,73a5.19,5.19,0,0,0,3.6-6.38,5.18,5.18,0,0,0-5-3.79Z"/><path class="cls-1" d="M143,95a8.25,8.25,0,0,1-7.95-6h0a8.24,8.24,0,0,1,5.73-10.15l13.56-3.77A8.25,8.25,0,0,1,158.8,91l-13.56,3.77A8.44,8.44,0,0,1,143,95Zm-5-6.86a5.19,5.19,0,0,0,6.38,3.6L158,88a5.18,5.18,0,0,0-2.77-10l-13.56,3.76A5.19,5.19,0,0,0,138,88.16Z"/><path class="cls-1" d="M135.26,111.2a8.26,8.26,0,0,1-7.95-6h0A8.24,8.24,0,0,1,133.05,95l13.56-3.77a8.25,8.25,0,0,1,4.41,15.9l-13.56,3.76A8,8,0,0,1,135.26,111.2Zm-5-6.87a5.19,5.19,0,0,0,6.38,3.61l13.56-3.77a5.19,5.19,0,0,0,3.6-6.38,5.17,5.17,0,0,0-6.37-3.6L133.87,98a5.19,5.19,0,0,0-3.61,6.37Z"/><path class="cls-1" d="M76.39,171.33a1.59,1.59,0,0,1-.67-.15,1.55,1.55,0,0,1-.72-2.05l13.76-28.59a1.54,1.54,0,0,1,1.41-.87c14.47.33,21.09-9.61,21.15-9.71a1.54,1.54,0,0,1,2.58,1.67,24.27,24.27,0,0,1-5.82,5.75,29.16,29.16,0,0,1-17,5.37L77.77,170.46A1.54,1.54,0,0,1,76.39,171.33Z"/><path class="cls-1" d="M103,177.45a80.49,80.49,0,1,1,0-161,1.54,1.54,0,1,1,0,3.07,77.4,77.4,0,1,0,62.62,31.88,1.53,1.53,0,1,1,2.48-1.8A80.45,80.45,0,0,1,103,177.45Z"/><g class="cls-2"><path class="cls-1" d="M4.81,130.83H1.53a1.53,1.53,0,1,1,0-3.06H4.81a1.53,1.53,0,0,1,0,3.06Z"/><path class="cls-1" d="M17.49,130.83H13.81a1.53,1.53,0,1,1,0-3.06h3.68a1.53,1.53,0,0,1,0,3.06Z"/><path class="cls-1" d="M9.41,138.91a1.53,1.53,0,0,1-1.54-1.53v-3.27a1.54,1.54,0,1,1,3.07,0v3.27A1.52,1.52,0,0,1,9.41,138.91Z"/><path class="cls-1" d="M9.41,126.64a1.54,1.54,0,0,1-1.54-1.53v-3.68a1.54,1.54,0,1,1,3.07,0v3.68A1.53,1.53,0,0,1,9.41,126.64Z"/><path class="cls-1" d="M134.27,148.42H131a1.54,1.54,0,1,1,0-3.07h3.27a1.54,1.54,0,0,1,0,3.07Z"/><path class="cls-1" d="M147,148.42h-3.68a1.54,1.54,0,1,1,0-3.07H147a1.54,1.54,0,0,1,0,3.07Z"/><path class="cls-1" d="M138.87,156.5a1.53,1.53,0,0,1-1.53-1.53v-3.28a1.53,1.53,0,0,1,3.06,0V155A1.53,1.53,0,0,1,138.87,156.5Z"/><path class="cls-1" d="M138.87,144.23a1.53,1.53,0,0,1-1.53-1.53V139a1.53,1.53,0,0,1,3.06,0v3.69A1.53,1.53,0,0,1,138.87,144.23Z"/><path class="cls-1" d="M182.13,27.34h-3.27a1.53,1.53,0,1,1,0-3.06h3.27a1.53,1.53,0,1,1,0,3.06Z"/><path class="cls-1" d="M194.81,27.34h-3.68a1.53,1.53,0,1,1,0-3.06h3.68a1.53,1.53,0,1,1,0,3.06Z"/><path class="cls-1" d="M186.73,35.42a1.52,1.52,0,0,1-1.53-1.53V30.62a1.53,1.53,0,1,1,3.06,0v3.27A1.52,1.52,0,0,1,186.73,35.42Z"/><path class="cls-1" d="M186.73,23.15a1.52,1.52,0,0,1-1.53-1.53V17.94a1.53,1.53,0,1,1,3.06,0v3.68A1.52,1.52,0,0,1,186.73,23.15Z"/><path class="cls-1" d="M27.52,166.21a5,5,0,1,1,5-5A5,5,0,0,1,27.52,166.21Zm0-6.87a1.91,1.91,0,1,0,1.9,1.9A1.9,1.9,0,0,0,27.52,159.34Z"/><path class="cls-1" d="M191.13,70a5,5,0,1,1,5-5A5,5,0,0,1,191.13,70Zm0-6.87A1.91,1.91,0,1,0,193,65,1.91,1.91,0,0,0,191.13,63.14Z"/></g><path class="cls-1" d="M114.18,82.92a1.53,1.53,0,0,1-1.09-.45l-8.23-8.23A1.53,1.53,0,0,1,107,72.07l7.15,7.15,25.68-25.68A1.53,1.53,0,0,1,142,55.7L115.26,82.47A1.52,1.52,0,0,1,114.18,82.92Z"/><g class="cls-2"><path class="cls-1" d="M159.16,21.31a1.58,1.58,0,0,1-.9-.29,94.67,94.67,0,0,0-9.2-5.92,1.53,1.53,0,1,1,1.51-2.67,97.56,97.56,0,0,1,9.49,6.11,1.53,1.53,0,0,1-.9,2.77Z"/><path class="cls-1" d="M74.65,7.36a1.53,1.53,0,0,1-.45-3,97.67,97.67,0,0,1,51.58-1.68,1.54,1.54,0,1,1-.71,3,94.58,94.58,0,0,0-50,1.62A1.47,1.47,0,0,1,74.65,7.36Z"/><path class="cls-1" d="M37.53,29.1a1.53,1.53,0,0,1-1.05-2.65c1.51-1.43,3.1-2.84,4.7-4.17a1.54,1.54,0,0,1,2,2.37c-1.55,1.28-3.09,2.64-4.56,4A1.51,1.51,0,0,1,37.53,29.1Z"/><path class="cls-1" d="M8.36,110.64a1.54,1.54,0,0,1-1.52-1.34,99.27,99.27,0,0,1,0-24.6,96.15,96.15,0,0,1,11.8-35.5,1.53,1.53,0,1,1,2.66,1.52A92.82,92.82,0,0,0,9.88,85.08a94.4,94.4,0,0,0,0,23.83,1.55,1.55,0,0,1-1.33,1.72Z"/><path class="cls-1" d="M55.37,181.2a1.54,1.54,0,0,1-.77-.21,97.65,97.65,0,0,1-10.74-7.2,1.53,1.53,0,1,1,1.87-2.43,94.5,94.5,0,0,0,10.41,7,1.53,1.53,0,0,1-.77,2.86Z"/><path class="cls-1" d="M103,193.93a97,97,0,0,1-25.48-3.38,1.53,1.53,0,0,1,.8-3,94.5,94.5,0,0,0,44.77,1.12,1.53,1.53,0,0,1,.65,3A97.29,97.29,0,0,1,103,193.93Z"/><path class="cls-1" d="M149.81,181.7a1.53,1.53,0,0,1-.75-2.87c2.29-1.29,4.56-2.7,6.74-4.18a1.53,1.53,0,1,1,1.72,2.54c-2.25,1.53-4.59,3-7,4.31A1.49,1.49,0,0,1,149.81,181.7Z"/><path class="cls-1" d="M173.84,162.49a1.5,1.5,0,0,1-1-.4,1.54,1.54,0,0,1-.11-2.17,94.06,94.06,0,0,0,21.6-40.77,1.53,1.53,0,1,1,3,.72A97.15,97.15,0,0,1,175,162,1.53,1.53,0,0,1,173.84,162.49Z"/><path class="cls-1" d="M198.47,98.5A1.54,1.54,0,0,1,196.93,97c0-2.83-.12-5.68-.37-8.48-.21-2.28-.5-4.59-.87-6.85a1.53,1.53,0,1,1,3-.5c.39,2.33.69,4.72.9,7.08.26,2.89.39,5.83.39,8.75A1.54,1.54,0,0,1,198.47,98.5Z"/></g></g></g></svg>