<svg xmlns="http://www.w3.org/2000/svg" viewBox="0 0 96.82 122"><defs><style>.cls-1{fill:#037cf9;}</style></defs><g id="Layer_2" data-name="Layer 2"><g id="Layer_1-2" data-name="Layer 1"><path class="cls-1" d="M86.23,39.85a1.16,1.16,0,0,1-.51-.12,1.17,1.17,0,0,1-.54-1.55l7.74-16a4.33,4.33,0,0,0-2-5.78h0L62.55,2.77a4.32,4.32,0,0,0-5.75,2L44.07,30.9a1.17,1.17,0,0,1-2.1-1L54.71,3.77A6.66,6.66,0,0,1,63.59.66L91.88,14.27A6.66,6.66,0,0,1,95,23.16l-7.72,16A1.16,1.16,0,0,1,86.23,39.85Z"/><path class="cls-1" d="M57,93a6.73,6.73,0,0,1-2.87-.65L40,85.49a1.16,1.16,0,0,1,1-2.09l14.21,6.83a4.32,4.32,0,0,0,5.77-2l6.74-14a1.16,1.16,0,0,1,1.55-.54,1.17,1.17,0,0,1,.55,1.55l-6.74,14A6.68,6.68,0,0,1,57,93Z"/><path class="cls-1" d="M64.39,83.82a1.06,1.06,0,0,1-.5-.12l-20.72-10a1.17,1.17,0,0,1,1-2.11h0l20.72,10a1.17,1.17,0,0,1,.54,1.55A1.18,1.18,0,0,1,64.39,83.82Z"/><path class="cls-1" d="M93,24.78a1.13,1.13,0,0,1-.51-.12L55.79,7a1.17,1.17,0,0,1,1-2.1L93.47,22.57a1.17,1.17,0,0,1-.5,2.21Z"/><path class="cls-1" d="M46.78,81.38a1.06,1.06,0,0,1-.5-.12l-3.92-1.88a1.14,1.14,0,0,1,1-2.07l3.92,1.89a1.16,1.16,0,0,1,.54,1.55,1.13,1.13,0,0,1-1,.66Z"/><path class="cls-1" d="M1.16,104.66a1.11,1.11,0,0,1-.5-.12A1.16,1.16,0,0,1,.11,103h0L11.19,80l4.45-24.78a13.58,13.58,0,0,1,5.78-10.79L45,28.1a6.74,6.74,0,0,1,9.39,1.69l.1.15a6.75,6.75,0,0,1-1.6,9.11l-17,12.66A36,36,0,0,1,42.4,62.45,27,27,0,0,1,44.14,75,29,29,0,0,1,37.79,89.8,1.17,1.17,0,1,1,36,88.34a26.67,26.67,0,0,0,5.86-13.61,24.46,24.46,0,0,0-1.57-11.39,33.12,33.12,0,0,0-6.95-11,1.18,1.18,0,0,1,0-1.66.69.69,0,0,1,.13-.11l18-13.47a4.42,4.42,0,0,0-5.07-7.23l-.1.07L22.75,46.29a11.3,11.3,0,0,0-4.79,9,.6.6,0,0,1,0,.19L13.47,80.56a1,1,0,0,1-.1.29L2.21,104A1.16,1.16,0,0,1,1.16,104.66Z"/><path class="cls-1" d="M80.05,52.69A6.27,6.27,0,0,1,74,48.13h0a6.26,6.26,0,0,1,4.35-7.71l10.29-2.86a6.27,6.27,0,1,1,3.87,11.92l-.47.13-10.3,2.87A6.22,6.22,0,0,1,80.05,52.69Zm10.3-13a3.47,3.47,0,0,0-1.06.14L79,42.64a3.93,3.93,0,0,0-2.74,4.84h0a3.94,3.94,0,0,0,4.84,2.74l10.3-2.89a3.93,3.93,0,0,0-1.06-7.72Z"/><path class="cls-1" d="M77.74,64a6.27,6.27,0,0,1-6-4.56h0a6.25,6.25,0,0,1,4.35-7.7h0l10.3-2.87A6.28,6.28,0,0,1,89.73,61L79.44,63.87A6.5,6.5,0,0,1,77.74,64Zm-3.8-5.21a3.94,3.94,0,0,0,4.84,2.73l10.35-2.84A3.94,3.94,0,0,0,87,51.13L76.73,54a3.93,3.93,0,0,0-2.8,4.82v0Z"/><path class="cls-1" d="M71.86,76.34a6.28,6.28,0,0,1-6-4.55h0a6.27,6.27,0,0,1,4.31-7.74h.05l10.3-2.86a6.26,6.26,0,1,1,3.35,12.07l-10.3,2.86A6.29,6.29,0,0,1,71.86,76.34Zm-3.8-5.22a4,4,0,0,0,4.85,2.75L83.2,71a3.93,3.93,0,0,0-2.09-7.58h0L70.8,66.32a3.94,3.94,0,0,0-2.74,4.84Z"/><path class="cls-1" d="M27.16,122a1.26,1.26,0,0,1-.51-.11,1.18,1.18,0,0,1-.55-1.56L36.55,98.62A1.17,1.17,0,0,1,37.62,98c11,.25,16-7.3,16.06-7.37a1.17,1.17,0,0,1,2,1.26,18.34,18.34,0,0,1-4.42,4.37,22.19,22.19,0,0,1-12.91,4.08l-10.11,21A1.16,1.16,0,0,1,27.16,122Z"/><path class="cls-1" d="M55.85,54.87a1.17,1.17,0,0,1-.83-.34l-6.25-6.25a1.16,1.16,0,0,1,1.63-1.65l5.43,5.43,19.5-19.5a1.16,1.16,0,0,1,1.64,0,1.17,1.17,0,0,1,0,1.65h0L56.67,54.53A1.17,1.17,0,0,1,55.85,54.87Z"/></g></g></svg>