<svg xmlns="http://www.w3.org/2000/svg" xmlns:xlink="http://www.w3.org/1999/xlink" viewBox="0 0 434.08 321.33"><defs><style>.cls-1{mask:url(#mask);filter:url(#luminosity-noclip-8);}.cls-10,.cls-12,.cls-14,.cls-2,.cls-4,.cls-6,.cls-8{mix-blend-mode:multiply;}.cls-2{fill:url(#linear-gradient);}.cls-3{mask:url(#mask-2);filter:url(#luminosity-noclip-13);}.cls-4{fill:url(#linear-gradient-2);}.cls-5{mask:url(#mask-3);filter:url(#luminosity-noclip-14);}.cls-6{fill:url(#linear-gradient-3);}.cls-7{mask:url(#mask-4);filter:url(#luminosity-noclip-9);}.cls-8{fill:url(#linear-gradient-4);}.cls-9{mask:url(#mask-5);filter:url(#luminosity-noclip-10);}.cls-10{fill:url(#linear-gradient-5);}.cls-11{mask:url(#mask-6);filter:url(#luminosity-noclip-11);}.cls-12{fill:url(#linear-gradient-6);}.cls-13{mask:url(#mask-7);filter:url(#luminosity-noclip-12);}.cls-14{fill:url(#linear-gradient-7);}.cls-15{fill:#55c0ea;}.cls-15,.cls-23,.cls-31,.cls-52,.cls-61{opacity:0.3;}.cls-16{mask:url(#mask-8);}.cls-17{fill:url(#linear-gradient-8);}.cls-18{fill:#d6f3ff;}.cls-19{fill:#c2e5ff;}.cls-20,.cls-46{fill:#0077cd;}.cls-20{opacity:0.1;}.cls-21{mask:url(#mask-9);}.cls-22{fill:url(#linear-gradient-9);}.cls-24{fill:#def5ff;}.cls-25{mask:url(#mask-10);}.cls-26{fill:url(#linear-gradient-10);}.cls-27{fill:#cef0ff;}.cls-28{fill:#cceaff;}.cls-29{fill:#b5e0ff;}.cls-30{fill:#abdcff;}.cls-31,.cls-32{fill:#fff;}.cls-33,.cls-43{opacity:0.5;}.cls-33{fill:url(#linear-gradient-11);}.cls-34{fill:#ef531a;}.cls-35,.cls-52{fill:#1c298f;}.cls-36{fill:url(#linear-gradient-12);}.cls-37{mask:url(#mask-11);}.cls-38{fill:url(#linear-gradient-13);}.cls-39{mask:url(#mask-12);}.cls-40{fill:url(#linear-gradient-14);}.cls-41{mask:url(#mask-13);}.cls-42{fill:url(#linear-gradient-15);}.cls-43{fill:#003052;}.cls-44{fill:#8cd3ef;}.cls-45{fill:#283558;}.cls-47{fill:#bccfe3;}.cls-48{fill:#80a0d1;}.cls-49{fill:#2a335c;opacity:0.2;}.cls-50{fill:#008df0;}.cls-50,.cls-51,.cls-53{opacity:0.9;}.cls-51{fill:#fafafa;}.cls-53,.cls-87{fill:#ecf3ff;}.cls-54{fill:url(#linear-gradient-16);}.cls-55{fill:#f5f6fa;}.cls-56{fill:url(#linear-gradient-17);}.cls-57{fill:url(#linear-gradient-18);}.cls-58{mask:url(#mask-14);}.cls-59{fill:url(#linear-gradient-19);}.cls-60{fill:url(#linear-gradient-20);}.cls-61{fill:#f7f7ff;}.cls-62{fill:#edf1fb;}.cls-63{fill:#1a52e0;}.cls-64{fill:url(#linear-gradient-21);}.cls-65{fill:url(#linear-gradient-22);}.cls-66{fill:url(#linear-gradient-23);}.cls-67{fill:url(#linear-gradient-24);}.cls-68{fill:url(#linear-gradient-25);}.cls-69{fill:#0093df;}.cls-70{fill:#00b1e2;}.cls-71{fill:#172b36;}.cls-72{fill:#c7deff;}.cls-73{fill:#e3efff;}.cls-74{fill:#ff8144;}.cls-75{fill:#ffcd85;}.cls-76{fill:#ffb74e;}.cls-77{fill:#e3733d;}.cls-78{fill:#ffa77d;}.cls-79{fill:#48a6a8;}.cls-80{fill:#72dfe3;}.cls-81{fill:#6ed7db;}.cls-82{fill:#3e9ed4;}.cls-83{fill:#75ceff;}.cls-84{fill:#47b5f2;}.cls-85{fill:#f2e9e4;}.cls-86{fill:url(#linear-gradient-26);}.cls-88{fill:url(#linear-gradient-27);}.cls-89{fill:url(#linear-gradient-28);}.cls-90{fill:url(#linear-gradient-29);}.cls-91{fill:#65bcf9;}.cls-92{fill:#54aaf3;}.cls-93{fill:#4497ee;}.cls-94{fill:#3385e8;}.cls-95{fill:#eadcdd;}.cls-96{fill:#ecdfdf;}.cls-97{fill:#eee3e1;}.cls-98{fill:#f0e6e2;}.cls-99{fill:#f87e42;}.cls-100{fill:#f17a41;}.cls-101{fill:#ea773f;}.cls-102{fill:#71dde1;}.cls-103{fill:#70dbdf;}.cls-104{fill:#6fd9dd;}.cls-105{fill:url(#linear-gradient-30);}.cls-106{fill:#1e70d3;}.cls-107{fill:#d5584d;}.cls-108{fill:url(#linear-gradient-31);}.cls-109{fill:url(#linear-gradient-32);}.cls-110{fill:url(#linear-gradient-33);}.cls-111{fill:url(#linear-gradient-34);}.cls-112{fill:url(#linear-gradient-35);}.cls-113{fill:url(#linear-gradient-36);}.cls-114{fill:url(#linear-gradient-37);}.cls-115{fill:#242c4f;}.cls-116{fill:url(#linear-gradient-38);}.cls-117{fill:url(#linear-gradient-39);}.cls-118{fill:url(#linear-gradient-40);}.cls-119{fill:url(#linear-gradient-41);}.cls-120{fill:#004a80;}.cls-121{fill:url(#linear-gradient-42);}.cls-122{fill:#005ff0;}.cls-123{fill:#0056ec;}.cls-124{fill:url(#linear-gradient-43);}.cls-125{filter:url(#luminosity-noclip-7);}.cls-126{filter:url(#luminosity-noclip-6);}.cls-127{filter:url(#luminosity-noclip-5);}.cls-128{filter:url(#luminosity-noclip-4);}.cls-129{filter:url(#luminosity-noclip-3);}.cls-130{filter:url(#luminosity-noclip-2);}.cls-131{filter:url(#luminosity-noclip);}</style><filter id="luminosity-noclip" x="393.34" y="-8460.05" width="40.73" height="32766" filterUnits="userSpaceOnUse" color-interpolation-filters="sRGB"><feFlood flood-color="#fff" result="bg"/><feBlend in="SourceGraphic" in2="bg"/></filter><mask id="mask" x="393.34" y="-8460.05" width="40.73" height="32766" maskUnits="userSpaceOnUse"><g class="cls-131"/></mask><linearGradient id="linear-gradient" x1="413.71" y1="41.23" x2="413.71" y2="285.15" gradientUnits="userSpaceOnUse"><stop offset="0" stop-color="gray"/><stop offset="0" stop-color="#818181"/><stop offset="0.15" stop-color="#a7a7a7"/><stop offset="0.3" stop-color="#c7c7c7"/><stop offset="0.45" stop-color="#e0e0e0"/><stop offset="0.61" stop-color="#f1f1f1"/><stop offset="0.79" stop-color="#fcfcfc"/><stop offset="0.99" stop-color="#fff"/></linearGradient><filter id="luminosity-noclip-2" x="172.07" y="-8460.05" width="66.3" height="32766" filterUnits="userSpaceOnUse" color-interpolation-filters="sRGB"><feFlood flood-color="#fff" result="bg"/><feBlend in="SourceGraphic" in2="bg"/></filter><mask id="mask-2" x="172.07" y="-8460.05" width="66.3" height="32766" maskUnits="userSpaceOnUse"><g class="cls-130"/></mask><linearGradient id="linear-gradient-2" x1="205.22" y1="137.15" x2="205.22" y2="248.5" gradientUnits="userSpaceOnUse"><stop offset="0" stop-color="#666"/><stop offset="1"/></linearGradient><filter id="luminosity-noclip-3" x="42.05" y="-8460.05" width="262.36" height="32766" filterUnits="userSpaceOnUse" color-interpolation-filters="sRGB"><feFlood flood-color="#fff" result="bg"/><feBlend in="SourceGraphic" in2="bg"/></filter><mask id="mask-3" x="42.05" y="-8460.05" width="262.36" height="32766" maskUnits="userSpaceOnUse"><g class="cls-129"/></mask><linearGradient id="linear-gradient-3" x1="42.05" y1="313.55" x2="304.41" y2="313.55" gradientUnits="userSpaceOnUse"><stop offset="0" stop-color="#999"/><stop offset="1" stop-color="gray"/></linearGradient><filter id="luminosity-noclip-4" x="351.82" y="-8460.05" width="30.81" height="32766" filterUnits="userSpaceOnUse" color-interpolation-filters="sRGB"><feFlood flood-color="#fff" result="bg"/><feBlend in="SourceGraphic" in2="bg"/></filter><mask id="mask-4" x="351.82" y="-8460.05" width="30.81" height="32766" maskUnits="userSpaceOnUse"><g class="cls-128"/></mask><linearGradient id="linear-gradient-4" x1="367.23" y1="105.96" x2="367.23" y2="283.93" xlink:href="#linear-gradient"/><filter id="luminosity-noclip-5" x="284.75" y="-8460.05" width="49.61" height="32766" filterUnits="userSpaceOnUse" color-interpolation-filters="sRGB"><feFlood flood-color="#fff" result="bg"/><feBlend in="SourceGraphic" in2="bg"/></filter><mask id="mask-5" x="284.75" y="-8460.05" width="49.61" height="32766" maskUnits="userSpaceOnUse"><g class="cls-127"/></mask><linearGradient id="linear-gradient-5" x1="309.55" y1="74.17" x2="309.55" y2="284.26" xlink:href="#linear-gradient"/><filter id="luminosity-noclip-6" x="165.11" y="-8460.05" width="107.4" height="32766" filterUnits="userSpaceOnUse" color-interpolation-filters="sRGB"><feFlood flood-color="#fff" result="bg"/><feBlend in="SourceGraphic" in2="bg"/></filter><mask id="mask-6" x="165.11" y="-8460.05" width="107.4" height="32766" maskUnits="userSpaceOnUse"><g class="cls-126"/></mask><linearGradient id="linear-gradient-6" x1="218.8" y1="30.33" x2="218.8" y2="48.18" gradientUnits="userSpaceOnUse"><stop offset="0" stop-color="#999"/><stop offset="1"/></linearGradient><filter id="luminosity-noclip-7" x="215.97" y="-8460.05" width="49.57" height="32766" filterUnits="userSpaceOnUse" color-interpolation-filters="sRGB"><feFlood flood-color="#fff" result="bg"/><feBlend in="SourceGraphic" in2="bg"/></filter><mask id="mask-7" x="215.97" y="-8460.05" width="49.57" height="32766" maskUnits="userSpaceOnUse"><g class="cls-125"/></mask><linearGradient id="linear-gradient-7" x1="240.76" y1="39.52" x2="240.76" y2="122.77" xlink:href="#linear-gradient-2"/><filter id="luminosity-noclip-8" x="393.34" y="43.74" width="40.73" height="236.9" filterUnits="userSpaceOnUse" color-interpolation-filters="sRGB"><feFlood flood-color="#fff" result="bg"/><feBlend in="SourceGraphic" in2="bg"/></filter><mask id="mask-8" x="393.34" y="43.74" width="40.73" height="236.9" maskUnits="userSpaceOnUse"><g class="cls-1"><rect class="cls-2" x="393.34" y="43.74" width="40.73" height="236.9"/></g></mask><linearGradient id="linear-gradient-8" x1="413.71" y1="41.23" x2="413.71" y2="285.15" gradientUnits="userSpaceOnUse"><stop offset="0" stop-color="#dff4ff"/><stop offset="0.02" stop-color="#dcf3ff"/><stop offset="0.24" stop-color="#c3e6fe"/><stop offset="0.46" stop-color="#b2defd"/><stop offset="0.71" stop-color="#a7d9fc"/><stop offset="0.99" stop-color="#a4d7fc"/></linearGradient><filter id="luminosity-noclip-9" x="351.82" y="107.79" width="30.81" height="172.85" filterUnits="userSpaceOnUse" color-interpolation-filters="sRGB"><feFlood flood-color="#fff" result="bg"/><feBlend in="SourceGraphic" in2="bg"/></filter><mask id="mask-9" x="351.82" y="107.79" width="30.81" height="172.85" maskUnits="userSpaceOnUse"><g class="cls-7"><rect class="cls-8" x="351.82" y="107.79" width="30.81" height="172.85"/></g></mask><linearGradient id="linear-gradient-9" x1="367.23" y1="105.96" x2="367.23" y2="283.93" xlink:href="#linear-gradient-8"/><filter id="luminosity-noclip-10" x="284.75" y="76.34" width="49.61" height="204.04" filterUnits="userSpaceOnUse" color-interpolation-filters="sRGB"><feFlood flood-color="#fff" result="bg"/><feBlend in="SourceGraphic" in2="bg"/></filter><mask id="mask-10" x="284.75" y="76.34" width="49.61" height="204.04" maskUnits="userSpaceOnUse"><g class="cls-9"><rect class="cls-10" x="284.75" y="76.34" width="49.61" height="204.04"/></g></mask><linearGradient id="linear-gradient-10" x1="309.55" y1="74.17" x2="309.55" y2="284.26" xlink:href="#linear-gradient-8"/><linearGradient id="linear-gradient-11" x1="171.1" y1="139.34" x2="278.5" y2="139.34" gradientUnits="userSpaceOnUse"><stop offset="0" stop-color="#fff"/><stop offset="1" stop-color="#cddbfe"/></linearGradient><linearGradient id="linear-gradient-12" x1="218.8" y1="42.74" x2="218.8" y2="245.53" gradientUnits="userSpaceOnUse"><stop offset="0" stop-color="#0781ff"/><stop offset="0.01" stop-color="#0781ff"/><stop offset="0.58" stop-color="#076fff"/><stop offset="1" stop-color="#0769ff"/></linearGradient><filter id="luminosity-noclip-11" x="165.11" y="29.73" width="107.4" height="17.42" filterUnits="userSpaceOnUse" color-interpolation-filters="sRGB"><feFlood flood-color="#fff" result="bg"/><feBlend in="SourceGraphic" in2="bg"/></filter><mask id="mask-11" x="165.11" y="29.73" width="107.4" height="17.42" maskUnits="userSpaceOnUse"><g class="cls-11"><path class="cls-12" d="M255.86,29.73H181.75a16.64,16.64,0,0,0-16.64,16.64v.77A16.64,16.64,0,0,1,181.75,30.5h74.11A16.64,16.64,0,0,1,272.5,47.14v-.77A16.64,16.64,0,0,0,255.86,29.73Z"/></g></mask><linearGradient id="linear-gradient-13" x1="218.8" y1="30.33" x2="218.8" y2="48.18" gradientUnits="userSpaceOnUse"><stop offset="0" stop-color="#fff"/><stop offset="1" stop-color="#72a2d5"/></linearGradient><filter id="luminosity-noclip-12" x="215.97" y="36.68" width="49.57" height="81.23" filterUnits="userSpaceOnUse" color-interpolation-filters="sRGB"><feFlood flood-color="#fff" result="bg"/><feBlend in="SourceGraphic" in2="bg"/></filter><mask id="mask-12" x="215.97" y="36.68" width="49.57" height="81.23" maskUnits="userSpaceOnUse"><g class="cls-13"><path class="cls-14" d="M265.54,46.37v71.54L216,36.68h39.89A9.7,9.7,0,0,1,265.54,46.37Z"/></g></mask><linearGradient id="linear-gradient-14" x1="240.76" y1="39.52" x2="240.76" y2="122.77" gradientUnits="userSpaceOnUse"><stop offset="0" stop-color="#fff"/><stop offset="1" stop-color="#0077cd"/></linearGradient><filter id="luminosity-noclip-13" x="172.07" y="133.34" width="66.3" height="108.65" filterUnits="userSpaceOnUse" color-interpolation-filters="sRGB"><feFlood flood-color="#fff" result="bg"/><feBlend in="SourceGraphic" in2="bg"/></filter><mask id="mask-13" x="172.07" y="133.34" width="66.3" height="108.65" maskUnits="userSpaceOnUse"><g class="cls-3"><path class="cls-4" d="M181.75,242h56.62l-66.3-108.65v99A9.68,9.68,0,0,0,181.75,242Z"/></g></mask><linearGradient id="linear-gradient-15" x1="205.22" y1="137.15" x2="205.22" y2="248.5" xlink:href="#linear-gradient-14"/><linearGradient id="linear-gradient-16" x1="219.77" y1="82.62" x2="219.77" y2="108.54" gradientUnits="userSpaceOnUse"><stop offset="0" stop-color="#fff"/><stop offset="0.35" stop-color="#fcfeff"/><stop offset="0.56" stop-color="#f4f9ff"/><stop offset="0.74" stop-color="#e5f1fe"/><stop offset="0.9" stop-color="#d1e5fd"/><stop offset="0.99" stop-color="#c2ddfd"/></linearGradient><linearGradient id="linear-gradient-17" x1="51.09" y1="41.23" x2="83.02" y2="22.63" gradientUnits="userSpaceOnUse"><stop offset="0" stop-color="#fa902f"/><stop offset="0.17" stop-color="#f7a030"/><stop offset="0.45" stop-color="#f3b530"/><stop offset="0.73" stop-color="#f1c231"/><stop offset="1" stop-color="#f0c631"/></linearGradient><linearGradient id="linear-gradient-18" x1="82.31" y1="39.18" x2="82.31" y2="62.79" xlink:href="#linear-gradient-16"/><filter id="luminosity-noclip-14" x="42.05" y="305.77" width="262.36" height="15.56" filterUnits="userSpaceOnUse" color-interpolation-filters="sRGB"><feFlood flood-color="#fff" result="bg"/><feBlend in="SourceGraphic" in2="bg"/></filter><mask id="mask-14" x="42.05" y="305.77" width="262.36" height="15.56" maskUnits="userSpaceOnUse"><g class="cls-5"><ellipse class="cls-6" cx="173.23" cy="313.55" rx="131.18" ry="7.78"/></g></mask><linearGradient id="linear-gradient-19" x1="42.05" y1="313.55" x2="304.41" y2="313.55" gradientUnits="userSpaceOnUse"><stop offset="0" stop-color="#cddbfe"/><stop offset="1" stop-color="#8cd3ef"/></linearGradient><linearGradient id="linear-gradient-20" x1="38.91" y1="293.94" x2="83.65" y2="293.94" gradientUnits="userSpaceOnUse"><stop offset="0" stop-color="#fff"/><stop offset="1" stop-color="#7dc9ff"/></linearGradient><linearGradient id="linear-gradient-21" x1="1196.85" y1="252.54" x2="1218.46" y2="217.28" gradientTransform="matrix(-1, 0, 0, 1, 1308.29, 0)" gradientUnits="userSpaceOnUse"><stop offset="0" stop-color="#0056ec"/><stop offset="1" stop-color="#00c2ec"/></linearGradient><linearGradient id="linear-gradient-22" x1="1211.66" y1="204.24" x2="1247.94" y2="204.24" gradientTransform="matrix(-1, 0, 0, 1, 1308.29, 0)" gradientUnits="userSpaceOnUse"><stop offset="0" stop-color="#0056ec"/><stop offset="1" stop-color="#008bec"/></linearGradient><linearGradient id="linear-gradient-23" x1="1264.47" y1="215.58" x2="1281.58" y2="187.67" xlink:href="#linear-gradient-21"/><linearGradient id="linear-gradient-24" x1="1271.92" y1="250.73" x2="1298.28" y2="250.73" xlink:href="#linear-gradient-22"/><linearGradient id="linear-gradient-25" x1="57.95" y1="250.67" x2="67.35" y2="235.34" gradientTransform="matrix(1, 0, 0, 1, 0, 0)" xlink:href="#linear-gradient-21"/><linearGradient id="linear-gradient-26" x1="113.39" y1="119.06" x2="124.05" y2="119.06" gradientUnits="userSpaceOnUse"><stop offset="0" stop-color="#d1e2ff"/><stop offset="1" stop-color="#ecf3ff"/></linearGradient><linearGradient id="linear-gradient-27" x1="97.05" y1="123.48" x2="107.71" y2="123.48" xlink:href="#linear-gradient-26"/><linearGradient id="linear-gradient-28" x1="80.71" y1="127.65" x2="91.37" y2="127.65" xlink:href="#linear-gradient-26"/><linearGradient id="linear-gradient-29" x1="64.37" y1="131.8" x2="75.03" y2="131.8" xlink:href="#linear-gradient-26"/><linearGradient id="linear-gradient-30" x1="144.58" y1="199.48" x2="135.06" y2="198.87" gradientUnits="userSpaceOnUse"><stop offset="0" stop-color="#e89492"/><stop offset="0.07" stop-color="#e99a98"/><stop offset="0.43" stop-color="#ecb4b3"/><stop offset="0.75" stop-color="#edc4c2"/><stop offset="1" stop-color="#eec9c8"/></linearGradient><linearGradient id="linear-gradient-31" x1="140.74" y1="203.92" x2="138.47" y2="203.78" xlink:href="#linear-gradient-30"/><linearGradient id="linear-gradient-32" x1="142.3" y1="204.08" x2="140.07" y2="203.94" xlink:href="#linear-gradient-30"/><linearGradient id="linear-gradient-33" x1="144.17" y1="204.35" x2="142.16" y2="204.22" xlink:href="#linear-gradient-30"/><linearGradient id="linear-gradient-34" x1="146.13" y1="203.73" x2="142.24" y2="203.48" xlink:href="#linear-gradient-30"/><linearGradient id="linear-gradient-35" x1="178.51" y1="107.64" x2="159.96" y2="106.45" xlink:href="#linear-gradient-30"/><linearGradient id="linear-gradient-36" x1="175.64" y1="118.28" x2="166.25" y2="117.68" xlink:href="#linear-gradient-30"/><linearGradient id="linear-gradient-37" x1="166.61" y1="127.18" x2="181.55" y2="118.48" xlink:href="#linear-gradient-17"/><linearGradient id="linear-gradient-38" x1="174.72" y1="315.33" x2="190.5" y2="306.13" gradientUnits="userSpaceOnUse"><stop offset="0" stop-color="#d0471e"/><stop offset="0.22" stop-color="#d95e13"/><stop offset="0.49" stop-color="#e17308"/><stop offset="0.75" stop-color="#e68002"/><stop offset="1" stop-color="#e88400"/></linearGradient><linearGradient id="linear-gradient-39" x1="174.93" y1="318.16" x2="192.04" y2="308.2" xlink:href="#linear-gradient-38"/><linearGradient id="linear-gradient-40" x1="144.36" y1="315.17" x2="159.67" y2="306.25" xlink:href="#linear-gradient-38"/><linearGradient id="linear-gradient-41" x1="144.57" y1="317.92" x2="161.17" y2="308.25" xlink:href="#linear-gradient-38"/><linearGradient id="linear-gradient-42" x1="227.98" y1="129.27" x2="218.51" y2="128.66" xlink:href="#linear-gradient-30"/><linearGradient id="linear-gradient-43" x1="175.02" y1="121.1" x2="173.68" y2="191.1" gradientTransform="matrix(1, 0, 0, 1, 0, 0)" xlink:href="#linear-gradient-22"/></defs><g id="Layer_2" data-name="Layer 2"><g id="shadow"><path class="cls-15" d="M418.42,280.65H138.92A138.92,138.92,0,0,1,0,141.73v-2.81A138.92,138.92,0,0,1,138.92,0h79.7Z"/></g><g id="building"><g class="cls-16"><rect class="cls-17" x="393.34" y="43.74" width="40.73" height="236.9"/></g><polygon class="cls-18" points="393.35 43.74 413.71 120.03 413.71 280.65 393.35 280.65 393.35 43.74"/><polygon class="cls-19" points="434.08 43.74 413.71 120.03 413.71 280.65 434.08 280.65 434.08 43.74"/><polygon class="cls-20" points="393.35 280.65 404.62 280.65 404.62 142.63 393.35 136.45 393.35 280.65"/><g class="cls-21"><rect class="cls-22" x="351.82" y="107.79" width="30.81" height="172.85"/></g><g class="cls-23"><rect class="cls-24" x="354.61" y="107.79" width="0.98" height="172.5"/></g><g class="cls-23"><rect class="cls-24" x="359.46" y="107.79" width="0.98" height="172.5"/></g><g class="cls-23"><rect class="cls-24" x="364.31" y="107.79" width="0.98" height="172.5"/></g><g class="cls-23"><rect class="cls-24" x="369.16" y="107.79" width="0.98" height="172.5"/></g><g class="cls-23"><rect class="cls-24" x="374.01" y="107.79" width="0.98" height="172.5"/></g><g class="cls-23"><rect class="cls-24" x="378.86" y="107.79" width="0.98" height="172.5"/></g><g class="cls-25"><rect class="cls-26" x="284.75" y="76.34" width="49.61" height="204.04"/></g><rect class="cls-24" x="295.72" y="61.02" width="29.24" height="15.32"/><rect class="cls-27" x="295.72" y="61.02" width="5.22" height="15.32"/><rect class="cls-19" x="315.69" y="61.02" width="9.27" height="15.32"/><rect class="cls-19" x="317.91" y="76.34" width="16.45" height="204.04"/><rect class="cls-27" x="284.75" y="76.34" width="8.49" height="204.31"/><rect class="cls-28" x="356.78" y="99.17" width="20.11" height="8.62"/><rect class="cls-29" x="345.03" y="99.17" width="11.75" height="8.62"/><polygon class="cls-30" points="365.14 90.24 352.08 90.24 345.03 99.17 365.14 99.17 365.14 90.24"/><rect class="cls-27" x="340.79" y="107.79" width="11.03" height="172.85"/><polygon class="cls-24" points="369.84 90.24 363.83 90.24 356.78 99.17 376.89 99.17 369.84 90.24"/><rect class="cls-31" x="293.24" y="83.49" width="24.67" height="1.54"/><rect class="cls-31" x="293.24" y="145.49" width="24.67" height="1.54"/><rect class="cls-31" x="393.32" y="90.19" width="40.76" height="0.87"/><rect class="cls-31" x="393.32" y="104.47" width="40.76" height="0.87"/><rect class="cls-31" x="393.32" y="118.76" width="40.76" height="0.87"/><rect class="cls-31" x="393.32" y="133.05" width="40.76" height="0.87"/><rect class="cls-31" x="393.32" y="147.33" width="40.76" height="0.87"/><rect class="cls-31" x="393.32" y="161.62" width="40.76" height="0.87"/><rect class="cls-31" x="393.32" y="175.91" width="40.76" height="0.87"/><rect class="cls-31" x="393.32" y="190.19" width="40.76" height="0.87"/><rect class="cls-31" x="393.32" y="204.48" width="40.76" height="0.87"/><rect class="cls-31" x="393.32" y="218.77" width="40.76" height="0.87"/><rect class="cls-31" x="393.32" y="233.05" width="40.76" height="0.87"/><rect class="cls-31" x="393.32" y="247.34" width="40.76" height="0.87"/><rect class="cls-31" x="393.32" y="261.63" width="40.76" height="0.87"/><rect class="cls-31" x="393.32" y="275.91" width="40.76" height="0.87"/><rect class="cls-31" x="293.24" y="207.48" width="24.67" height="1.54"/><rect class="cls-31" x="293.24" y="269.48" width="24.67" height="1.54"/><path class="cls-20" d="M334.36,76.34S340.29,198,284.75,247.57v33.08h49.61Z"/><rect class="cls-30" x="364.71" y="247.5" width="49" height="33.15"/><rect class="cls-20" x="372.63" y="255.41" width="33.17" height="17.32"/><rect class="cls-18" x="358.55" y="247.5" width="6.16" height="33.15"/><rect class="cls-30" x="382.63" y="236.43" width="24.8" height="11.07"/><rect class="cls-28" x="376.07" y="236.43" width="6.56" height="11.07"/><rect class="cls-19" x="296.89" y="88.33" width="4.05" height="1.91"/><rect class="cls-19" x="296.89" y="122.04" width="4.05" height="1.91"/><rect class="cls-19" x="303.12" y="122.04" width="4.05" height="1.91"/><rect class="cls-19" x="309.35" y="122.04" width="4.05" height="1.91"/><rect class="cls-19" x="303.12" y="94.7" width="4.05" height="1.91"/><rect class="cls-19" x="309.35" y="101.08" width="4.05" height="1.91"/><rect class="cls-31" x="309.35" y="162.66" width="4.05" height="1.91"/><rect class="cls-20" x="405.12" y="54.78" width="17.18" height="11.34"/><rect class="cls-30" x="343.01" y="116.85" width="4.05" height="1.91"/><rect class="cls-30" x="347.06" y="132.96" width="4.05" height="1.91"/><rect class="cls-32" x="343.01" y="152.6" width="4.05" height="1.91"/><rect class="cls-32" x="395.71" y="101.08" width="4.05" height="1.91"/><rect class="cls-19" x="395.71" y="115.9" width="4.05" height="1.91"/><rect class="cls-32" x="402.59" y="115.9" width="4.05" height="1.91"/><rect class="cls-32" x="416.84" y="144.53" width="4.05" height="1.91"/><rect class="cls-32" x="423.72" y="144.53" width="4.05" height="1.91"/><rect class="cls-32" x="427.77" y="138.23" width="4.05" height="1.91"/><polygon class="cls-20" points="390.58 247.5 382.63 247.5 382.63 236.43 390.58 247.5"/><rect class="cls-32" x="277.79" y="255.41" width="156.29" height="4.3"/><path class="cls-19" d="M365,48.08l-.12,0-8.43-3.38a.29.29,0,0,1-.19-.28v-11a.3.3,0,0,1,.12-.24.3.3,0,0,1,.27,0L365,35.65l8.34-2.51a.28.28,0,0,1,.27,0,.31.31,0,0,1,.13.24v11a.3.3,0,0,1-.2.28l-8.43,3.38Zm-8.13-3.89L365,47.44l8.12-3.25V33.85l-8,2.41a.25.25,0,0,1-.17,0l-8-2.41Z"/><path class="cls-19" d="M373.43,33.74h-.09L365,31.22l-8.35,2.51a.32.32,0,0,1-.38-.21.3.3,0,0,1,.21-.38l8.43-2.53a.25.25,0,0,1,.17,0l8.44,2.53a.3.3,0,0,1,.2.38A.3.3,0,0,1,373.43,33.74Z"/><polygon class="cls-19" points="365 47.71 365 35.9 373.43 33.44 373.43 44.4 365 47.71"/><path class="cls-19" d="M375.12,62.42a.33.33,0,0,1-.14,0L368.23,59a.31.31,0,0,1-.17-.27V51.15a.31.31,0,0,1,.14-.26.31.31,0,0,1,.28,0l6.64,2.49,6.64-2.49a.31.31,0,0,1,.28,0,.33.33,0,0,1,.13.26v7.59A.31.31,0,0,1,382,59l-6.75,3.37A.33.33,0,0,1,375.12,62.42Zm-6.44-3.87,6.44,3.22,6.44-3.22v-7L375.22,54a.26.26,0,0,1-.21,0l-6.33-2.37Z"/><path class="cls-19" d="M381.86,51.45a.18.18,0,0,1-.1,0l-6.64-2.49-6.64,2.49a.31.31,0,0,1-.4-.18.3.3,0,0,1,.18-.39L375,48.33a.26.26,0,0,1,.21,0L382,50.86a.3.3,0,0,1,.18.39A.3.3,0,0,1,381.86,51.45Z"/><polygon class="cls-19" points="375.12 62.05 375.12 53.61 381.86 51.15 381.86 58.74 375.12 62.05"/><path class="cls-19" d="M354.88,70l-.1,0-10.12-3.37a.3.3,0,0,1-.21-.29V52.83a.31.31,0,0,1,.13-.25.32.32,0,0,1,.27,0l10,3.34,10-3.34a.35.35,0,0,1,.28,0,.3.3,0,0,1,.12.25v13.5a.3.3,0,0,1-.21.29L355,70Zm-9.82-3.9,9.82,3.27,9.81-3.27V53.26L355,56.5a.31.31,0,0,1-.19,0l-9.72-3.24Z"/><path class="cls-19" d="M365,53.14l-.1,0-10-3.34-10,3.34a.29.29,0,0,1-.38-.19.3.3,0,0,1,.19-.39l10.12-3.37a.31.31,0,0,1,.19,0l10.12,3.37a.31.31,0,0,1-.09.6Z"/><polygon class="cls-19" points="354.88 56.14 354.88 69.64 365 66.33 365 52.83 354.88 56.14"/></g><g id="phone"><rect class="cls-33" x="171.1" y="29.73" width="107.4" height="219.23" rx="16.64"/><rect class="cls-34" x="167.23" y="29.73" width="107.4" height="219.23" rx="16.64"/><rect class="cls-35" x="165.11" y="29.73" width="107.4" height="219.23" rx="16.64"/><path class="cls-36" d="M265.54,46.37V232.31a9.68,9.68,0,0,1-9.68,9.68H181.75a9.68,9.68,0,0,1-9.68-9.68V46.37a9.7,9.7,0,0,1,9.68-9.69h74.11A9.7,9.7,0,0,1,265.54,46.37Z"/><g class="cls-37"><path class="cls-38" d="M255.86,29.73H181.75a16.64,16.64,0,0,0-16.64,16.64v.77A16.64,16.64,0,0,1,181.75,30.5h74.11A16.64,16.64,0,0,1,272.5,47.14v-.77A16.64,16.64,0,0,0,255.86,29.73Z"/></g><g class="cls-39"><path class="cls-40" d="M265.54,46.37v71.54L216,36.68h39.89A9.7,9.7,0,0,1,265.54,46.37Z"/></g><g class="cls-41"><path class="cls-42" d="M181.75,242h56.62l-66.3-108.65v99A9.68,9.68,0,0,0,181.75,242Z"/></g><path class="cls-43" d="M250.88,218a2.88,2.88,0,0,0-2.84,2.5H221.65a2.87,2.87,0,0,0-5.69,0H189.57a2.89,2.89,0,1,0,0,.77H216a2.87,2.87,0,0,0,5.69,0H248a2.88,2.88,0,1,0,2.84-3.27Z"/><path class="cls-44" d="M250.88,220.58H186.72a.5.5,0,0,1,0-1h64.16a.5.5,0,0,1,0,1Z"/><path class="cls-45" d="M186.72,223a2.88,2.88,0,1,1,2.89-2.88A2.88,2.88,0,0,1,186.72,223Z"/><path class="cls-44" d="M218.8,223a2.88,2.88,0,1,1,2.89-2.88A2.88,2.88,0,0,1,218.8,223Z"/><path class="cls-46" d="M218.8,221.31a1.23,1.23,0,1,1,1.23-1.23A1.23,1.23,0,0,1,218.8,221.31Z"/><path class="cls-44" d="M250.88,223a2.88,2.88,0,1,1,2.89-2.88A2.88,2.88,0,0,1,250.88,223Z"/><path class="cls-32" d="M186.52,221.7a.6.6,0,0,1-.39-.18l-1.06-1.26a.49.49,0,0,1,.06-.7.48.48,0,0,1,.7.06l.69.81,1.26-1.48a.51.51,0,0,1,.71,0,.49.49,0,0,1,0,.7l-1.65,1.92A.49.49,0,0,1,186.52,221.7Z"/><path class="cls-47" d="M266.22,110.17H171.76a.25.25,0,0,1,0-.5h94.46a.25.25,0,0,1,0,.5Z"/><path class="cls-47" d="M248,173a.25.25,0,0,1-.25-.25V96.29a.25.25,0,0,1,.5,0v76.42A.25.25,0,0,1,248,173Z"/></g><g id="web"><path class="cls-48" d="M192.12,107.68a2.69,2.69,0,1,1,2.69-2.69A2.69,2.69,0,0,1,192.12,107.68Zm0-4.38a1.69,1.69,0,1,0,1.69,1.69A1.69,1.69,0,0,0,192.12,103.3Z"/><path class="cls-49" d="M272.5,127H235.85a4.31,4.31,0,0,0-4.31,4.32v75.11a4.31,4.31,0,0,0,4.31,4.31H272.5Z"/><rect class="cls-50" x="229.27" y="125.4" width="145.13" height="83.74" rx="4.31"/><path class="cls-49" d="M205.17,87.39H165.11v85.67h40.06a4.41,4.41,0,0,0,4.41-4.42V91.8A4.41,4.41,0,0,0,205.17,87.39Z"/><rect class="cls-51" x="58.02" y="84.3" width="148.47" height="85.66" rx="4.41"/><path class="cls-52" d="M233.58,125.4a4.31,4.31,0,0,0-4.31,4.31v24.45h35.62a3.87,3.87,0,0,0,3.87-3.87V125.4Z"/><rect class="cls-53" x="175.22" y="64" width="89.63" height="85.52" rx="3.87"/><circle class="cls-54" cx="219.77" cy="89.43" r="11.88"/><path class="cls-50" d="M224.37,85.49a4.6,4.6,0,1,1-4.6-4.6A4.6,4.6,0,0,1,224.37,85.49Zm1.14,10.13a4.91,4.91,0,0,0-4.91-4.91h-1.66A4.91,4.91,0,0,0,214,95.62s11.48,0,11.48,0Z"/><path class="cls-55" d="M242.48,110.17H197.59a.27.27,0,1,1,0-.53h44.89a.27.27,0,0,1,0,.53Z"/><path class="cls-55" d="M242.48,116.51H197.59a.26.26,0,1,1,0-.52h44.89a.26.26,0,0,1,0,.52Z"/><path class="cls-55" d="M242.48,122.86H197.59a.27.27,0,1,1,0-.53h44.89a.27.27,0,0,1,0,.53Z"/><path class="cls-55" d="M255.2,75.27h-.08a2.73,2.73,0,0,1-1.09-.63.27.27,0,0,1-.08-.19.25.25,0,0,1,.09-.2.52.52,0,0,0,.1-.64.54.54,0,0,0-.61-.24.22.22,0,0,1-.21,0,.25.25,0,0,1-.13-.17,2.83,2.83,0,0,1,0-1.25.27.27,0,0,1,.13-.17.22.22,0,0,1,.21,0,.53.53,0,0,0,.61-.24.52.52,0,0,0-.1-.64.25.25,0,0,1-.09-.2.27.27,0,0,1,.08-.19,2.78,2.78,0,0,1,1.09-.63.26.26,0,0,1,.21,0,.26.26,0,0,1,.12.18.52.52,0,0,0,.51.41.52.52,0,0,0,.51-.41.27.27,0,0,1,.13-.18.22.22,0,0,1,.21,0,2.82,2.82,0,0,1,1.08.63.24.24,0,0,1,.08.19.28.28,0,0,1-.08.2.52.52,0,0,0-.11.64.55.55,0,0,0,.62.24.23.23,0,0,1,.21,0,.26.26,0,0,1,.12.17,2.48,2.48,0,0,1,0,1.25.24.24,0,0,1-.12.17.23.23,0,0,1-.21,0,.55.55,0,0,0-.62.24.52.52,0,0,0,.11.64.28.28,0,0,1,.08.2.24.24,0,0,1-.08.19,2.82,2.82,0,0,1-1.08.63.28.28,0,0,1-.22,0,.29.29,0,0,1-.12-.18.52.52,0,0,0-.51-.41.52.52,0,0,0-.51.41.26.26,0,0,1-.12.18A.31.31,0,0,1,255.2,75.27Zm-.62-.87a2.69,2.69,0,0,0,.46.28,1,1,0,0,1,1.84,0,3.24,3.24,0,0,0,.47-.28,1,1,0,0,1,0-1.06,1.08,1.08,0,0,1,.94-.53,2.35,2.35,0,0,0,0-.26,2.44,2.44,0,0,0,0-.27,1,1,0,0,1-.94-.53,1,1,0,0,1,0-1.06,2.2,2.2,0,0,0-.47-.27,1.05,1.05,0,0,1-1.84,0,2.13,2.13,0,0,0-.46.27,1.05,1.05,0,0,1,0,1.07,1,1,0,0,1-.93.52,1.77,1.77,0,0,0,0,.53,1.1,1.1,0,0,1,.93.53A1,1,0,0,1,254.58,74.4Zm1.38-.72a1.14,1.14,0,1,1,1.14-1.13A1.13,1.13,0,0,1,256,73.68Zm0-1.75a.62.62,0,1,0,.61.62A.61.61,0,0,0,256,71.93Z"/></g><g id="sun"><circle class="cls-31" cx="68.71" cy="30.97" r="22.45" transform="translate(15.05 83.89) rotate(-68.86)"/><circle class="cls-56" cx="68.71" cy="30.97" r="16.01"/><path class="cls-57" d="M17.3,56.2s21-18.43,30-17.79,1.37,9.47,6.38,10.09S72.17,34.77,79,34.56,82.25,50,85.25,50s18.86-6.37,24.43-6,4.49,9,7.39,9.61,8.55-4.63,15.37-4.46,14.88,7,14.88,7Z"/></g><g id="plant"><g class="cls-58"><ellipse class="cls-59" cx="173.23" cy="313.55" rx="131.18" ry="7.78"/></g><path class="cls-60" d="M77.27,314.34c4.77-14.49,6.38-40.8,6.38-40.8H38.91s1.61,26.31,6.38,40.8Z"/><path class="cls-61" d="M50.65,312.33c-2.59-8.94-4.16-21.25-5-29.59H44.35c.83,8.34,2.39,20.65,5,29.59Z"/><path class="cls-62" d="M83.65,273.54c0,1-10,1.84-22.37,1.84s-22.37-.82-22.37-1.84,10-1.84,22.37-1.84S83.65,272.52,83.65,273.54Z"/><path class="cls-20" d="M83.34,273.54c-.75.64-7.72,1.46-19.58,1.56H58.47l-1.61,0c-10.69-.17-16.94-.94-17.65-1.54.66-.56,6.22-1.27,15.75-1.5L57,272h7.17l2,0C76.59,272.2,82.64,273,83.34,273.54Z"/><path class="cls-63" d="M60.44,275.11H58.57q-.06-.44-.12-1c0-.1,0-.2,0-.3,0-.32-.08-.68-.13-1.07q0-.34-.09-.72c-.12-1-.25-2.06-.4-3.28-.18-1.54-.46-3.27-.73-5.16s-.55-3.95-.93-6.11S55.41,253,55,250.65c-.24-1.21-.46-2.44-.7-3.69s-.44-2.37-.69-3.56c-.18-.81-.35-1.63-.52-2.45-.34-1.66-.68-3.33-1.07-5-.57-2.49-1.12-5-1.74-7.42-.3-1.22-.59-2.43-.89-3.63s-.62-2.37-.93-3.52c-.59-2.32-1.24-4.54-1.82-6.66l-.45-1.52c-.45-1.55-.88-3-1.31-4.41-.56-1.83-1.08-3.51-1.57-5S42.35,201.05,42,200c-.59-1.72-1-2.83-1.13-3.19.14.35.58,1.45,1.22,3.16.38,1,.86,2.32,1.37,3.79s1.09,3.13,1.69,4.95c.43,1.27.86,2.61,1.31,4,.2.61.4,1.23.6,1.87.63,2.1,1.34,4.31,2,6.62l1,3.5c.33,1.19.66,2.4,1,3.61.68,2.43,1.29,4.91,1.92,7.39.36,1.41.7,2.84,1,4.25l.75,3.18c.33,1.43.64,2.86.94,4.26q.32,1.5.63,3c.51,2.35.91,4.64,1.34,6.79s.74,4.05,1.05,5.87c0,.08,0,.16,0,.24.32,1.89.64,3.63.86,5.17.12.83.24,1.59.34,2.3.07.44.13.84.18,1.22,0,.17.05.33.07.48q.06.45.12.84c.12.77.21,1.38.27,1.82Z"/><path class="cls-63" d="M59,275l.09.14h-.66l-1.61,0-.55-.92c-.4-.63-.86-1.34-1.35-2.12l-.13-.2L54,270.51l-1-1.39c-.65-.95-1.34-2-2.1-3s-1.51-2.08-2.33-3.12-1.64-2.13-2.5-3.17-1.72-2.09-2.58-3.1-1.74-2-2.58-2.94c-1.7-1.89-3.32-3.62-4.74-5.07-.92-.93-1.75-1.75-2.45-2.44-1.22-1.17-2.06-1.94-2.33-2.19.26.21,1.16.95,2.46,2.1.73.65,1.59,1.42,2.54,2.31,1.49,1.38,3.19,3,5,4.85.88.92,1.81,1.85,2.72,2.83s1.84,2,2.74,3,1.79,2,2.66,3.07,1.7,2,2.5,3,1.55,2,2.26,2.91c.36.46.7.92,1,1.36l.93,1.3L57,272l.83,1.16.57.87,0,.05Z"/><path class="cls-63" d="M68.55,196.15c-.08.46-.26,1.59-.54,3.26s-.61,3.89-1,6.51c-.13.85-.27,1.75-.42,2.69-1.16,7.63-2.63,17.81-3.84,28-.06.53-.13,1.07-.19,1.6-.38,3.29-.74,6.56-1.05,9.74-.12,1.24-.23,2.46-.34,3.67-.21,2.39-.39,4.71-.53,6.91-.07,1.1-.14,2.17-.19,3.2s-.1,2-.12,3-.07,1.87-.07,2.74v.27c0,.78,0,1.52,0,2.21s0,1.38,0,2q0,.7.06,1.32c0,.25,0,.47,0,.68q0,.61.09,1.14h-2c0-.31,0-.66,0-1,0-.12,0-.2,0-.29,0-.54,0-1.15,0-1.8s0-1.31,0-2,0-1.63.07-2.51.07-1.82.14-2.78c0-.53.06-1.08.1-1.63s.06-.92.1-1.39c.07-1,.16-2.12.27-3.22.19-2.21.43-4.53.7-6.93.12-1,.24-2.09.37-3.16.39-3.21.82-6.51,1.29-9.82.1-.67.19-1.35.29-2,1.47-10.19,3.18-20.34,4.53-27.94.18-1,.36-1.94.52-2.84.47-2.54.86-4.7,1.16-6.33S68.46,196.61,68.55,196.15Z"/><path class="cls-63" d="M91.66,230.77c-.82.86-2.91,3.08-5.58,6.2-1,1.2-2.15,2.54-3.32,4-2.76,3.39-5.79,7.36-8.57,11.49-1,1.47-2,3-2.86,4.44s-1.78,3-2.58,4.42l-1.14,2.15c-.36.71-.7,1.41-1,2.09s-.62,1.35-.92,2-.54,1.28-.79,1.89c-.35.91-.68,1.76-1,2.55,0,.16-.11.32-.15.47s-.08.24-.12.35c-.3.85-.5,1.64-.69,2.3h-2l.06-.2c.16-.47.32-1,.51-1.6.12-.36.25-.72.4-1.11A2.18,2.18,0,0,1,62,272c.35-1,.8-2.05,1.3-3.2.28-.62.58-1.25.88-1.92s.67-1.32,1-2,.75-1.37,1.13-2.08l1.25-2.15c.86-1.44,1.78-2.91,2.76-4.37s2-2.93,3.05-4.37c3-4.1,6.17-8,9.07-11.32,1.2-1.37,2.35-2.64,3.41-3.79C88.63,233.74,90.8,231.59,91.66,230.77Z"/><path class="cls-63" d="M62.81,240.88l-.28,7-1,24.12-.06,1.33-.06,1.58v.23H59.52l.3-3.12.12-1.22.29-3s1.91-19.87,1.91-19.87Z"/><path class="cls-64" d="M111.56,234.89a27.56,27.56,0,0,1,7.53,7.22c1.33-1.85,2.22-11-3.09-17.84-6.75-8.72-12.54-7.27-14.75-6.73-4.46,1.08-6.33,9.78-6.42,10.18a1,1,0,0,1-1-.8c-.28-.92-1.07-4.47-4.17-5.86a6,6,0,0,0-6.26.59c-.68.61-4.45,3-5.07,6.66a12.85,12.85,0,0,0,2.81,10.41c.41.5.83,1.15,1.35,1.83.1.13.2.27.32.4,1.42,1.75,3.55,3.46,7.69,2.7,0,0-1.39-2.1-.68-4s2.62-5.77,4.84-5-1.2,8.21-4.47,9.41a25.43,25.43,0,0,1,3.11,2.07c.9.8,1.49,2.19,2.72,3,.7.47,4,2.18,6,4.35a7.16,7.16,0,0,1,1.82,4.23c1-2.56,8.33-7.32,10.87-8.8s4-6,4-6a30.1,30.1,0,0,0-6.55-5.92c-3.33-2-10.68-3.52-10.12-4.39S106.43,231.86,111.56,234.89Zm-2.16-8.06c2.31-.09,4.13.68,4.07,1.48s-6.51.78-7.35-.27C105.68,227.47,107.08,226.92,109.4,226.83Z"/><path class="cls-65" d="M88.9,204.18c-4.09-2.22-8.73-3.18-8.73-3.68,0-.95,6.18.4,9,2s6,4.38,7.22,6.58c0,0,.74-3.86-.28-5.47-.87-1.37-4.91-3.45-7.76-4.66-4.74-2-8.84-1.51-8.87-2.28s4.89-.09,6.66.46a24.24,24.24,0,0,1,7.57,4.29,12,12,0,0,0-4.2-8.05,21.06,21.06,0,0,0-16.08-4.6c-3.46.49-4.14,3.48-3.64,5.77,0,.08,0,.1-.09.08a34.57,34.57,0,0,1-3.9-3.23c-1.76-1.53-3.65-1.71-4.53-.93s-1.48,4.36,0,8.06c1.13,2.83,4.16,5.88,5.52,7.16l.21.2.47.42s.14-8.75,1.48-8.71-.69,9.82-.69,9.82,6.27,5.12,8.23,6.66a22.44,22.44,0,0,1-3-6.75c-.65-3.29-1-5.93.5-5.51s1.16,3.65,1.53,5.92S78.33,215,78.33,215l6.85,1a30.17,30.17,0,0,1-4.72-4.35c-1.34-1.72-2.13-3.71-1-4,.47-.14,2,1.23,3.61,3.19l.49.63c2.09,2.72,4,6.09,3.82,8.45,0,0,5.77-2.94,6.26-4.48s-3-4.75-4.53-6.08-7.66-3.83-6.73-4.88,6.39,1.73,7.78,3.4,3.33,5.59,5.74,7.31a7.08,7.08,0,0,0,.55-4.5C96.12,209.64,92.78,206.28,88.9,204.18Zm-25.1-9.6c-1.17,0-2.32.63-2.44.32a2.16,2.16,0,0,1,1.76-2.24c1.67,0,3.18,1.42,3.15,1.85S65,194.52,63.8,194.58Zm19.42-2.5c2,0,4.72.29,4.85.95.08.42-2.4.39-4.88.44s-4.89.18-4.87-.13C78.35,192.73,80.11,192.08,83.22,192.08Z"/><path class="cls-66" d="M54.21,186.12c-3.4-1.6-6.85.43-8.09,1.85s-3.7,6.67-4.57,6.42a.49.49,0,0,1-.25-.17c-.74-.75-1.46-3.73-4.8-5.3-2.94-1.38-9.74-.89-15,2.23-4.36,2.58-6.89,8-7,10.37a13.17,13.17,0,0,0-1.81,6.76,13.75,13.75,0,0,0,1.67,6.48A14.15,14.15,0,0,1,18,206.62c3.38-3.62,8.93-5.61,10.23-4.77s-11.07,14.63-11.07,14.63,7.78,7.59,8.85,9.21a15.75,15.75,0,0,1,5.55-5.37,21.33,21.33,0,0,1,7.6-2.45,68.11,68.11,0,0,0,.41-7c-.18-3.06-1.71-6.48-.32-7s2.41,3,2.55,5c.26,3.91-1.4,9-1.49,9.31a29.36,29.36,0,0,0,5.11-4,5.57,5.57,0,0,0,.77-.94,4.2,4.2,0,0,0,.3-.48,7.62,7.62,0,0,0-.2-7c-1.3-2.65-3.89-6.54-3-6.85s3.15,1,4.26,2.16S50,206.92,50,206.92a13.24,13.24,0,0,0,2.41-4.56c.37-2,.62-5.37,1.42-6.86S57.6,187.73,54.21,186.12ZM22.5,198.93c-3.5,1.2-7,2.74-7.09,2.13-.18-1.25,4.82-3.15,6.85-3.84s7.06-1.79,7.32-1.07S26.14,197.68,22.5,198.93Zm1.92,13.66c-.56-.42,1.15-3.15,2.47-4.45s3-1.8,3.36-1.34-1.12,1.76-2.55,3.1S24.7,212.8,24.42,212.59Zm28-17.73c-.35.95-2.38.44-3.38.25s-3.19.3-3.43-.46c-.14-.47,2.5-1.67,4.29-1.65S52.66,194.09,52.38,194.86Z"/><path class="cls-67" d="M10.51,262.48A9.12,9.12,0,0,1,14.1,255c3.88-2.78,8.69-4.26,13-5.8s9.39-3.4,9.26-6.86-3.45-4.07-5.55-2.65a18.48,18.48,0,0,0-2.9,2.9s2.71-3.46,1-3.61-4.87,5.34-8.83,7.86C18.29,248,7.61,254.76,10.51,262.48Z"/><path class="cls-68" d="M62,240.13a2.26,2.26,0,0,0-1.81-2.36c-2.87-.6-7.64,2.32-8.06,5.23s1.9,4,3.2,4.31,3.15.41,3.29,1.62a5.66,5.66,0,0,0,.78,2.82s-.37-2.31.56-3.24,4.63-.46,8.19-1.43,5.79-3.2,5.47-5.61S70,236,66,236.34,62,240.13,62,240.13Z"/><path class="cls-69" d="M94.56,227.83s.17.47.52,1.29c.17.41.38.91.64,1.47s.54,1.2.89,1.88l.54,1.06.29.55.34.56c.22.37.48.74.75,1.12s.55.75.84,1.12c.57.76,1.18,1.52,1.74,2.34.29.4.57.81.83,1.24s.54.85.75,1.3a14,14,0,0,1,.64,1.36c.17.46.36.93.51,1.39a21.51,21.51,0,0,1,.58,2.85c0,.47.14.92.16,1.38l.06,1.33c0,.43,0,.85,0,1.26s0,.8,0,1.18c-.08.75-.11,1.45-.21,2.05s-.15,1.15-.24,1.58-.15.77-.22,1-.08.35-.08.35l.09-.35a8.66,8.66,0,0,0,.23-1c.1-.43.18-1,.28-1.57s.15-1.3.24-2c0-.38,0-.78.06-1.19a10.53,10.53,0,0,0,0-1.26l0-1.34c0-.46-.09-.92-.14-1.4a20.92,20.92,0,0,0-.53-2.87c-.15-.5-.33-1-.49-1.44a13.41,13.41,0,0,0-.63-1.39,14.2,14.2,0,0,0-.74-1.33c-.25-.45-.53-.86-.81-1.28-.55-.83-1.15-1.61-1.71-2.38-.28-.38-.55-.75-.8-1.12a12.32,12.32,0,0,1-.72-1.11l-.32-.55-.28-.55c-.17-.37-.34-.72-.51-1.06-.34-.67-.6-1.31-.85-1.87s-.45-1.06-.61-1.47c-.32-.81-.49-1.29-.49-1.29Z"/><path class="cls-63" d="M69.55,194.77l.63.7c.41.44,1,1.07,1.66,1.84l2.33,2.62c.86.95,1.72,2,2.61,3l2.6,3.07,2.15,2.76c1.26,1.63,2.11,2.71,2.11,2.71l-2-2.76-2.08-2.83L77,202.8c-.87-1.07-1.7-2.15-2.54-3.13L72.21,197c-.65-.79-1.21-1.43-1.61-1.89l-.61-.71Z"/><path class="cls-70" d="M41.4,194.15a3.61,3.61,0,0,0-.34.24c-.21.17-.51.41-.87.76s-.77.77-1.24,1.26-1,1.1-1.46,1.77-1,1.42-1.58,2.2l-.78,1.25c-.27.42-.54.86-.78,1.32l-.78,1.39c-.26.47-.48,1-.73,1.45s-.5,1-.73,1.49-.45,1-.67,1.52c-.47,1-.87,2-1.26,3.07-.2.51-.4,1-.59,1.52s-.35,1-.51,1.5c-.33,1-.69,1.93-.94,2.85s-.53,1.78-.77,2.58-.42,1.54-.59,2.19l-.43,1.7L26,225.69s.15-.54.4-1.48c.13-.46.28-1,.46-1.69s.37-1.39.63-2.18l.81-2.56c.26-.92.64-1.85,1-2.83l.54-1.49c.2-.49.4-1,.61-1.5.41-1,.82-2,1.3-3,.24-.5.47-1,.7-1.5s.5-1,.75-1.47.49-1,.75-1.43l.79-1.36c.26-.46.53-.89.8-1.3l.8-1.23c.56-.76,1.06-1.51,1.59-2.14s1-1.21,1.46-1.71.87-.9,1.23-1.22.65-.55.84-.7l.31-.23Z"/><path class="cls-63" d="M77.82,257.64l-3,3.68L66.24,272l-2.48,3.09H61.22l.22-.23,2.31-2.43.44-.47,10.33-10.87Z"/><path class="cls-71" d="M78.41,256.67a2.46,2.46,0,0,1,2.13-2.55c2.33-.57,7.17,1.17,9.11,3.2s1.5,5,0,5.74-4,1.14-4.53,1.85a12.77,12.77,0,0,0-1.24,2.36s-.67-3.9-2-4.86-5.16.08-7.18-1.16c-2.66-1.62-3-4.55-1.28-6C76,253.18,78.41,256.67,78.41,256.67Z"/></g><g id="garph"><polygon class="cls-72" points="313.4 157.67 317.76 159.72 317.76 200.99 313.4 198.95 313.4 157.67"/><polygon class="cls-73" points="322.13 157.67 317.76 159.72 317.76 200.99 322.13 198.95 322.13 157.67"/><polygon class="cls-74" points="313.4 157.67 317.76 159.72 317.76 176.59 313.4 174.54 313.4 157.67"/><polygon class="cls-75" points="317.76 155.72 313.4 157.67 317.76 159.72 322.13 157.67 317.76 155.72"/><polygon class="cls-76" points="322.13 157.67 317.76 159.72 317.76 176.59 322.13 174.54 322.13 157.67"/><polygon class="cls-72" points="326.89 167.13 326.89 185.62 326.89 198.95 331.25 200.99 331.25 185.62 331.25 169.17 326.89 167.13"/><polygon class="cls-73" points="331.25 169.17 331.25 185.62 331.25 200.99 335.62 198.95 335.62 185.62 335.62 167.13 331.25 169.17"/><polygon class="cls-77" points="326.89 167.13 326.89 173.08 331.25 175.13 331.25 169.17 326.89 167.13"/><polygon class="cls-78" points="331.25 165.18 326.89 167.13 331.25 169.17 335.62 167.13 331.25 165.18"/><polygon class="cls-74" points="331.25 169.17 331.25 175.13 335.62 173.08 335.62 167.13 331.25 169.17"/><polygon class="cls-72" points="340.38 173.08 340.38 183.97 340.38 188.69 340.38 198.95 344.74 200.99 344.74 188.69 344.74 183.97 344.74 175.12 340.38 173.08"/><polygon class="cls-73" points="344.74 175.12 344.74 183.97 344.74 188.69 344.74 200.99 349.11 198.95 349.11 188.69 349.11 183.97 349.11 173.08 344.74 175.12"/><polygon class="cls-79" points="340.38 173.08 344.74 175.12 344.74 178.73 340.38 176.69 340.38 173.08"/><polygon class="cls-80" points="344.74 171.13 340.38 173.08 344.74 175.12 349.11 173.08 344.74 171.13"/><polygon class="cls-81" points="349.11 173.08 344.74 175.12 344.74 178.73 349.11 176.69 349.11 173.08"/><polygon class="cls-72" points="353.87 157.67 358.23 159.72 358.23 200.99 353.87 198.95 353.87 157.67"/><polygon class="cls-73" points="362.6 157.67 358.24 159.72 358.24 200.99 362.6 198.95 362.6 157.67"/><polygon class="cls-82" points="353.87 157.67 358.23 159.72 358.23 173.18 353.87 171.13 353.87 157.67"/><polygon class="cls-83" points="358.24 155.72 353.87 157.67 358.24 159.72 362.6 157.67 358.24 155.72"/><polygon class="cls-84" points="362.6 157.67 358.24 159.72 358.24 173.08 362.6 171.03 362.6 157.67"/><polygon class="cls-85" points="335.62 157.02 326.89 157.02 326.89 161.26 330.63 161.26 331.25 162.12 331.88 161.26 335.62 161.26 335.62 157.02"/><path class="cls-86" d="M113.39,100.78V134.9c0,1.35,2.39,2.44,5.33,2.44s5.33-1.09,5.33-2.44V100.78Z"/><path class="cls-87" d="M124.05,100.78c0,1.34-2.38,2.44-5.33,2.44s-5.33-1.1-5.33-2.44,2.39-2.44,5.33-2.44S124.05,99.43,124.05,100.78Z"/><path class="cls-88" d="M97.05,109.62V134.9c0,1.35,2.39,2.44,5.33,2.44s5.33-1.09,5.33-2.44V109.62Z"/><path class="cls-87" d="M107.71,109.62c0,1.35-2.38,2.44-5.33,2.44s-5.33-1.09-5.33-2.44,2.39-2.44,5.33-2.44S107.71,108.27,107.71,109.62Z"/><path class="cls-89" d="M80.71,118v17c0,1.35,2.39,2.44,5.33,2.44s5.33-1.09,5.33-2.44V118Z"/><path class="cls-87" d="M91.37,118c0,1.35-2.38,2.44-5.33,2.44s-5.33-1.09-5.33-2.44,2.39-2.43,5.33-2.43S91.37,116.61,91.37,118Z"/><path class="cls-90" d="M64.37,126.26v8.64c0,1.35,2.39,2.44,5.33,2.44S75,136.25,75,134.9v-8.64Z"/><path class="cls-87" d="M75,126.26c0,1.35-2.38,2.44-5.33,2.44s-5.33-1.09-5.33-2.44,2.39-2.43,5.33-2.43S75,124.92,75,126.26Z"/><polygon class="cls-81" points="73.89 117.4 65.51 117.4 65.51 121.47 69.1 121.47 69.7 122.29 70.3 121.47 73.89 121.47 73.89 117.4"/><polygon class="cls-77" points="90.23 108.96 81.85 108.96 81.85 113.03 85.44 113.03 86.04 113.86 86.64 113.03 90.23 113.03 90.23 108.96"/><polygon class="cls-76" points="106.57 100.63 98.19 100.63 98.19 104.7 101.78 104.7 102.38 105.52 102.98 104.7 106.57 104.7 106.57 100.63"/><polygon class="cls-84" points="122.91 91.78 114.53 91.78 114.53 95.85 118.12 95.85 118.72 96.68 119.32 95.85 122.91 95.85 122.91 91.78"/><rect class="cls-83" x="82.18" y="149.47" width="9.01" height="1.71"/><rect class="cls-91" x="82.18" y="152.17" width="9.01" height="1.71"/><rect class="cls-92" x="82.18" y="154.87" width="9.01" height="1.71"/><rect class="cls-93" x="82.18" y="157.57" width="9.01" height="1.71"/><rect class="cls-94" x="82.18" y="160.27" width="9.01" height="1.71"/><rect class="cls-95" x="96.2" y="149.47" width="9.01" height="1.71"/><rect class="cls-96" x="96.2" y="152.17" width="9.01" height="1.71"/><rect class="cls-97" x="96.2" y="154.87" width="9.01" height="1.71"/><rect class="cls-98" x="96.2" y="157.57" width="9.01" height="1.71"/><rect class="cls-85" x="96.2" y="160.27" width="9.01" height="1.71"/><rect class="cls-74" x="110.21" y="149.47" width="9.01" height="1.71"/><rect class="cls-99" x="110.21" y="152.17" width="9.01" height="1.71"/><rect class="cls-100" x="110.21" y="154.87" width="9.01" height="1.71"/><rect class="cls-101" x="110.21" y="157.57" width="9.01" height="1.71"/><rect class="cls-77" x="110.21" y="160.27" width="9.01" height="1.71"/><rect class="cls-80" x="124.23" y="149.47" width="9.01" height="1.71"/><rect class="cls-102" x="124.23" y="152.17" width="9.01" height="1.71"/><rect class="cls-103" x="124.23" y="154.87" width="9.01" height="1.71"/><rect class="cls-104" x="124.23" y="157.57" width="9.01" height="1.71"/><rect class="cls-81" x="124.23" y="160.27" width="9.01" height="1.71"/><path class="cls-19" d="M291.83,203.32h-54v-54h54Zm-53.47-.5h53v-53h-53Z"/><path class="cls-19" d="M350.6,143.76H316.1v-11h34.5Zm-34-.5h33.5v-10H316.6Z"/><path class="cls-19" d="M369,136.53H351.77v-3.82H369Zm-16.75-.5h16.25v-2.82H352.27Z"/><path class="cls-19" d="M369,143.76H351.77V138H369Zm-16.75-.5h16.25v-4.78H352.27Z"/><path class="cls-19" d="M166.17,94.7H150.32V87.87h15.85Zm-15.35-.5h14.85V88.37H150.82Z"/><path class="cls-19" d="M143.13,94.7h-6.58V87.87h6.58Zm-6.08-.5h5.58V88.37h-5.58Z"/><path class="cls-19" d="M264.74,192.56a16.32,16.32,0,1,1,16.32-16.32A16.34,16.34,0,0,1,264.74,192.56Zm0-29.46a13.14,13.14,0,1,0,13.14,13.14A13.16,13.16,0,0,0,264.74,163.1Z"/><path class="cls-83" d="M247.15,175.24a17.65,17.65,0,0,1,16.59-16.59v5.79a11.86,11.86,0,0,0-10.8,10.8Z"/></g><g id="character"><path class="cls-105" d="M139.35,192.48l0,5a7.63,7.63,0,0,0-.67,2.42,14.65,14.65,0,0,0,.18,5.19,1.37,1.37,0,0,0,1.67.8,2.32,2.32,0,0,0,1,.55,1.87,1.87,0,0,0,1.09-.31,1.74,1.74,0,0,0,1.19.7,1,1,0,0,0,1-.4.88.88,0,0,0,.92.53c.76,0,1.3-1.18,1.3-1.18s.4-.1.52-.31a41.85,41.85,0,0,0,.64-4.73c-.07-.15-3.54-3.36-3.54-3.36l-.05-5.37Z"/><path class="cls-71" d="M148.71,209.54H137.79a1,1,0,0,1-1-1v-4.65a1,1,0,0,1,1-1h10.92a1,1,0,0,1,1,1v4.65A1,1,0,0,1,148.71,209.54Zm-9.92-2h8.92v-2.65h-8.92Z"/><rect class="cls-71" x="121.68" y="208.25" width="43.36" height="34.68"/><rect class="cls-106" x="121.68" y="208.25" width="3.66" height="34.68"/><path class="cls-45" d="M123.51,243.09a.17.17,0,0,1-.17-.17V208.25a.17.17,0,0,1,.34,0v34.67A.17.17,0,0,1,123.51,243.09Z"/><path class="cls-107" d="M142.25,200.28a.11.11,0,0,1-.11-.1l0-1.34a.1.1,0,0,1,.1-.11.11.11,0,0,1,.11.1l0,1.34a.1.1,0,0,1-.1.11Z"/><path class="cls-108" d="M139.26,205.13s1.08-2.41,1.3-2.66c.38-.45,1.05.05,1.12.39l-.8,2.71Z"/><path class="cls-109" d="M140.8,205.85a34.21,34.21,0,0,1,1.16-3.6.76.76,0,0,1,1.29.31c0,.38-.47,3.66-.47,3.66Z"/><path class="cls-110" d="M144.78,206.46c.32-2.3-.12-3.76-.39-4.07s-1.14.17-1.14.17l-.42,3.34Z"/><path class="cls-111" d="M147.75,201.81a1.54,1.54,0,0,0-1.9,1.29s-1.39-.09-1.85.39-.35,1-.05,1.14c0,0,2.77,1.15,3.05,1.18Z"/><path class="cls-32" d="M129.89,209.86H128a.19.19,0,0,1-.19-.19.18.18,0,0,1,.19-.19h1.88a.19.19,0,0,1,.19.19A.2.2,0,0,1,129.89,209.86Z"/><path class="cls-32" d="M147.31,209.86H131.77a.19.19,0,0,1-.19-.19.18.18,0,0,1,.19-.19h15.54a.19.19,0,0,1,.19.19A.2.2,0,0,1,147.31,209.86Z"/><path class="cls-112" d="M179.94,118.91c-2.64-1-9.65-6.25-11.18-9.66s-2.26-7.61,0-10,7-4,10.8-2.51a8.47,8.47,0,0,1,5.27,5.27c.44,1.24,1.37,3.16.79,4s-1.14,1.66-1,2.23a8.56,8.56,0,0,1,.32,3.58c-.32,1.18-1.78,6.16-2.07,6.76S181.25,119.41,179.94,118.91Z"/><rect class="cls-113" x="170.16" y="108.94" width="8.79" height="18.54" rx="4.35"/><path class="cls-71" d="M184.88,101.66c-.92,1-1.15,5.83-1.9,6s-1.31-2.84-3.24-2.88-2.89,9.77-7.28,9.77-7.23-8.77-6.4-13.59,6.37-6.43,8.91-6.4,3-1.63,5.32-1.34a5.92,5.92,0,0,1,4.33,3.35s.68-1.29,1.45-.68C187,96.63,186.93,99.36,184.88,101.66Z"/><path class="cls-114" d="M166.49,122.9s2.57-5.9,7.64-5.41,10.08,6.06,10.08,6.06Z"/><path class="cls-115" d="M175.5,183.09,152.84,309.64a4,4,0,0,1-7.83-1.25l17.65-127.34a6.5,6.5,0,1,1,12.88,1.78C175.53,182.91,175.51,183,175.5,183.09Z"/><path class="cls-115" d="M190.65,184.1l-6.89,125.17a4,4,0,0,1-7.92-.27l1.82-125.35a6.5,6.5,0,1,1,13,.19C190.66,183.92,190.65,184,190.65,184.1Z"/><path class="cls-116" d="M175.28,307.42V312h18.18L193,311a1.64,1.64,0,0,0-1.49-1h-1a1.65,1.65,0,0,1-.72-.17l-7-3.43s-1.51,2.59-4.25,2.43S175.28,307.42,175.28,307.42Z"/><rect class="cls-117" x="174.84" y="311.99" width="19.07" height="1.35"/><path class="cls-118" d="M144.9,307.49v4.44h17.65l-.42-.92a1.55,1.55,0,0,0-1.43-.93h-1a1.49,1.49,0,0,1-.69-.16l-6.84-3.33a4.85,4.85,0,0,1-4.12,2.36C145.43,308.79,144.9,307.49,144.9,307.49Z"/><rect class="cls-119" x="144.48" y="311.93" width="18.51" height="1.31"/><circle class="cls-120" cx="176.01" cy="186.11" r="16.68"/><path class="cls-32" d="M169.08,182.07,149.6,303.72Z"/><path class="cls-71" d="M169.71,172.44a9.57,9.57,0,0,0-9.92,8.46s-14.31,121.5-14.95,126.4,9.15,2.19,10-2.3l23.47-121.45a5.25,5.25,0,0,0,.09-.55A9.37,9.37,0,0,0,169.71,172.44Z"/><path class="cls-107" d="M144.62,197.51l-.07,0a2.81,2.81,0,0,0-2.14-.49.11.11,0,0,1,0-.21,3,3,0,0,1,2.32.54.11.11,0,0,1,0,.15A.13.13,0,0,1,144.62,197.51Z"/><path class="cls-107" d="M225.69,124.89s-.26-2-.83-2c-.25,0-.37.87-.63,1.82-.33,1.17-.79,2.5-.91,2.79a5.44,5.44,0,0,0,.44,2.58C223.93,130.4,225.69,124.89,225.69,124.89Z"/><path class="cls-121" d="M221.55,138.14l1.6-5.07s.56-5.54,1.17-6.75a47.85,47.85,0,0,1,2.54-4.11c.36-.49,1.47-2.12,2.12-3s1.33-.21.9.58l-3,5.88s2.29-3.73,2.5-3.94,1.33,0,1,1.15l-1.8,3.67,1.63-3.32c.17-.35,1.29.15,1.06,1-.12.47-1.33,3.32-1.33,3.32s.82-2.56,1.05-2.54a2,2,0,0,1,.87,1.59,21.59,21.59,0,0,1-1.64,3.76c-.55,1.07-3.17,6.31-3.17,6.31l-.85,3Z"/><path class="cls-107" d="M230.13,129a5.64,5.64,0,0,1-2.39-1.37,4.43,4.43,0,0,0-2-.79.89.89,0,0,1-.57-.36.64.64,0,0,1-.07-.45.11.11,0,0,1,.14-.08.11.11,0,0,1,.08.14.4.4,0,0,0,.05.27.62.62,0,0,0,.41.25,4.73,4.73,0,0,1,2.13.86,5.36,5.36,0,0,0,2.24,1.3.11.11,0,0,1,.09.13A.11.11,0,0,1,230.13,129Z"/><path class="cls-122" d="M209.64,163.71c2.1,1.3,5.25.78,10.24-7.52,3.83-6.37,8-19.56,8.37-20.67,1-2.57-4.62-4.84-5.28-3.48a60.9,60.9,0,0,1-4.26,7.9c-4.09,6.78-9.11,14.51-9.81,16.16C207.26,160,207.87,162.61,209.64,163.71Z"/><path class="cls-123" d="M147.11,158c-2.59-.55-5.56,1.12-7.56,11.27-1.54,7.79-.53,26.08-.41,27.33s5.6,1.15,5.74-.17a107.57,107.57,0,0,1,1.74-11.25c1.65-8.3,3.89-17.89,4-19.81C150.85,160.83,149.29,158.43,147.11,158Z"/><path class="cls-123" d="M150.4,167.43c3.52-9.49,6.2-16.75,10.62-28.67a6.38,6.38,0,0,0-9.63-7.49,6.33,6.33,0,0,0-2.48,3.51c-3.39,12.31-5.45,19.77-8.15,29.54a5.07,5.07,0,0,0,9.64,3.11Z"/><path class="cls-71" d="M184.13,174.65A9.37,9.37,0,0,0,174.7,184s.49,126.11.55,126.43l10-3.45c0-.18,8.18-122.3,8.18-122.3,0-.18,0-.39,0-.57A9.37,9.37,0,0,0,184.13,174.65Z"/><path class="cls-124" d="M193.61,188.91V165.15s6.3-30.61,5.51-32.82c-1.66-4.58-16.41-11.41-26.22-11.41-9.32,0-21.19,9.21-22.42,11.41s10.4,32.94,10.4,32.94-1.94,18.4-2.17,21.68C158.38,191.47,193.61,194.4,193.61,188.91Z"/><path class="cls-122" d="M215.64,156.31l-17.33-25.2a6.38,6.38,0,1,0-10.22,7.61l19.45,23.68a5.13,5.13,0,0,0,3.92,1.85,5.07,5.07,0,0,0,4.18-7.94Z"/></g></g></svg>