<svg xmlns="http://www.w3.org/2000/svg" viewBox="0 0 125.05 11.79"><defs><style>.cls-1{fill:#f2c438;}</style></defs><g id="Layer_2" data-name="Layer 2"><g id="Layer_1-2" data-name="Layer 1"><path class="cls-1" d="M.58,11.71a.56.56,0,0,1-.41-.17A.57.57,0,0,1,0,11.13V.58A.55.55,0,0,1,.17.17.52.52,0,0,1,.58,0h7A.57.57,0,0,1,8,.16a.53.53,0,0,1,.17.41A.54.54,0,0,1,8,1a.57.57,0,0,1-.42.16H1.17V5.26h4.7a.59.59,0,0,1,.42.17.54.54,0,0,1,.16.4.54.54,0,0,1-.16.41.58.58,0,0,1-.42.16H1.17v4.73a.56.56,0,0,1-.59.58Z"/><path class="cls-1" d="M11,2a.78.78,0,0,1-.57-.24.77.77,0,0,1-.24-.59A.78.78,0,0,1,10.4.53.89.89,0,0,1,11,.31a.84.84,0,0,1,.56.22.75.75,0,0,1,.25.59.81.81,0,0,1-.24.59A.78.78,0,0,1,11,2Zm0,9.76a.52.52,0,0,1-.58-.58v-7a.58.58,0,0,1,.15-.42A.57.57,0,0,1,11,3.51a.53.53,0,0,1,.41.16.55.55,0,0,1,.16.42v7a.57.57,0,0,1-.16.43A.56.56,0,0,1,11,11.71Z"/><path class="cls-1" d="M15.08,11.71a.59.59,0,0,1-.43-.15.56.56,0,0,1-.16-.41V4.09a.55.55,0,0,1,.16-.42.56.56,0,0,1,.43-.16.54.54,0,0,1,.41.16.59.59,0,0,1,.16.42v7.06a.6.6,0,0,1-.16.41A.58.58,0,0,1,15.08,11.71Zm6.44,0a.57.57,0,0,1-.42-.16.59.59,0,0,1-.16-.4V7.24a3,3,0,0,0-.35-1.53,2.37,2.37,0,0,0-1-.9,3.06,3.06,0,0,0-1.37-.3,3,3,0,0,0-1.33.29,2.34,2.34,0,0,0-.94.78,1.91,1.91,0,0,0-.34,1.13h-.83A3.2,3.2,0,0,1,15.33,5,3.4,3.4,0,0,1,16.6,3.85a3.69,3.69,0,0,1,1.78-.43,4.09,4.09,0,0,1,1.9.44,3.32,3.32,0,0,1,1.33,1.3,4.18,4.18,0,0,1,.49,2.08v3.91a.56.56,0,0,1-.17.4A.54.54,0,0,1,21.52,11.71Z"/><path class="cls-1" d="M28.26,11.79a3.91,3.91,0,0,1-2.07-.55,4,4,0,0,1-1.45-1.49,4.31,4.31,0,0,1-.53-2.13,4.17,4.17,0,0,1,.55-2.15A4,4,0,0,1,26.25,4a4.22,4.22,0,0,1,2.13-.54A4.15,4.15,0,0,1,30.5,4,4.09,4.09,0,0,1,32,5.47a4.38,4.38,0,0,1,.56,2.15L32.08,8a3.76,3.76,0,0,1-1.86,3.31A3.89,3.89,0,0,1,28.26,11.79Zm.12-1a3,3,0,0,0,1.55-.41A2.88,2.88,0,0,0,31,9.22a3.19,3.19,0,0,0,.4-1.6A3.18,3.18,0,0,0,31,6a3,3,0,0,0-2.63-1.53,2.93,2.93,0,0,0-1.55.42A3.05,3.05,0,0,0,25.74,6a3.19,3.19,0,0,0-.41,1.61,3.2,3.2,0,0,0,.41,1.6,3.05,3.05,0,0,0,1.09,1.11A3,3,0,0,0,28.38,10.74Zm3.58,1a.6.6,0,0,1-.42-.15.56.56,0,0,1-.16-.41V8.58l.29-1.18.88.22v3.53a.57.57,0,0,1-.17.41A.6.6,0,0,1,32,11.71Z"/><path class="cls-1" d="M35.38,11.71a.57.57,0,0,1-.42-.15.56.56,0,0,1-.16-.41V4.09A.55.55,0,0,1,35,3.67a.54.54,0,0,1,.42-.16.57.57,0,0,1,.42.16.58.58,0,0,1,.15.42v7.06a.59.59,0,0,1-.15.41A.6.6,0,0,1,35.38,11.71Zm6.45,0a.57.57,0,0,1-.42-.16.55.55,0,0,1-.16-.4V7.24a3,3,0,0,0-.35-1.53,2.37,2.37,0,0,0-1-.9,3.11,3.11,0,0,0-1.38-.3,3,3,0,0,0-1.32.29,2.34,2.34,0,0,0-.94.78A1.92,1.92,0,0,0,36,6.71h-.82A3.2,3.2,0,0,1,35.64,5a3.33,3.33,0,0,1,1.27-1.17,3.62,3.62,0,0,1,1.77-.43,4.1,4.1,0,0,1,1.91.44,3.32,3.32,0,0,1,1.33,1.3,4.18,4.18,0,0,1,.48,2.08v3.91a.55.55,0,0,1-.16.4A.56.56,0,0,1,41.83,11.71Z"/><path class="cls-1" d="M48.61,11.79a4,4,0,0,1-3.56-2,4.31,4.31,0,0,1-.53-2.13A4.46,4.46,0,0,1,45,5.47,3.91,3.91,0,0,1,46.42,4a3.84,3.84,0,0,1,2-.54,3.94,3.94,0,0,1,1.69.35,3.82,3.82,0,0,1,1.36,1.09.4.4,0,0,1,.12.38.61.61,0,0,1-.26.35.43.43,0,0,1-.36.08.58.58,0,0,1-.36-.22,2.79,2.79,0,0,0-2.19-1A2.68,2.68,0,0,0,46,6a3.51,3.51,0,0,0-.36,1.62A3.35,3.35,0,0,0,46,9.22a2.81,2.81,0,0,0,1,1.11,2.93,2.93,0,0,0,1.54.41,3.4,3.4,0,0,0,1.08-.16,2.38,2.38,0,0,0,.86-.49.71.71,0,0,1,.37-.16.49.49,0,0,1,.36.12.64.64,0,0,1,.21.37.41.41,0,0,1-.15.36A3.84,3.84,0,0,1,48.61,11.79Z"/><path class="cls-1" d="M54.7,2a.78.78,0,0,1-.57-.24.81.81,0,0,1-.24-.59.78.78,0,0,1,.25-.59.89.89,0,0,1,.58-.22.84.84,0,0,1,.56.22.75.75,0,0,1,.25.59A.82.82,0,0,1,54.7,2Zm0,9.76a.54.54,0,0,1-.59-.58v-7a.59.59,0,0,1,.16-.42.57.57,0,0,1,.43-.16.53.53,0,0,1,.41.16.55.55,0,0,1,.16.42v7a.57.57,0,0,1-.16.43A.56.56,0,0,1,54.72,11.71Z"/><path class="cls-1" d="M61.84,11.79a3.93,3.93,0,0,1-3.51-2,4.22,4.22,0,0,1-.54-2.13,4.27,4.27,0,0,1,.55-2.15A4.09,4.09,0,0,1,59.83,4a4.47,4.47,0,0,1,4.26,0,4.07,4.07,0,0,1,1.48,1.49,4.28,4.28,0,0,1,.56,2.15L65.67,8a3.81,3.81,0,0,1-.5,1.94,3.75,3.75,0,0,1-1.37,1.37A3.86,3.86,0,0,1,61.84,11.79Zm.12-1A3,3,0,0,0,64.6,9.22,3.3,3.3,0,0,0,65,7.62,3.28,3.28,0,0,0,64.6,6,3,3,0,0,0,63.52,4.9,2.94,2.94,0,0,0,62,4.48a2.9,2.9,0,0,0-1.54.42A3,3,0,0,0,59.32,6a3.18,3.18,0,0,0-.4,1.61,3.19,3.19,0,0,0,.4,1.6A3,3,0,0,0,62,10.74Zm3.59,1a.6.6,0,0,1-.42-.15.57.57,0,0,1-.17-.41V8.58l.29-1.18.88.22v3.53a.56.56,0,0,1-.16.41A.6.6,0,0,1,65.55,11.71Z"/><path class="cls-1" d="M70.15,11.71a1.83,1.83,0,0,1-1.07-.33,2.08,2.08,0,0,1-.73-.91,3.19,3.19,0,0,1-.27-1.35V.57a.57.57,0,0,1,.16-.41A.54.54,0,0,1,68.65,0a.57.57,0,0,1,.42.16.56.56,0,0,1,.15.41V9.12a1.86,1.86,0,0,0,.27,1.05.75.75,0,0,0,.66.4h.38a.47.47,0,0,1,.36.16.64.64,0,0,1,.13.42.54.54,0,0,1-.18.41.77.77,0,0,1-.49.15Z"/><path class="cls-1" d="M76.51,11.71a.51.51,0,0,1-.49-.28.6.6,0,0,1,0-.55L80.4.4A.57.57,0,0,1,81,0a.56.56,0,0,1,.55.4L86,10.89a.52.52,0,0,1,0,.55.55.55,0,0,1-.49.27.52.52,0,0,1-.32-.09.69.69,0,0,1-.23-.27l-4.13-10h.47l-4.16,10a.58.58,0,0,1-.21.27A.55.55,0,0,1,76.51,11.71Zm1-2.79.45-1H84l.45,1Z"/><path class="cls-1" d="M90.42,11.79a5.38,5.38,0,0,1-1.76-.3,3.3,3.3,0,0,1-1.41-.9.48.48,0,0,1-.13-.4.6.6,0,0,1,.22-.4.61.61,0,0,1,.44-.12.59.59,0,0,1,.37.2,2.29,2.29,0,0,0,1,.64,3.43,3.43,0,0,0,1.31.23,2.67,2.67,0,0,0,1.6-.38,1.2,1.2,0,0,0,.51-.92,1.06,1.06,0,0,0-.51-.9A4.42,4.42,0,0,0,90.34,8a4.52,4.52,0,0,1-2.22-.84,1.8,1.8,0,0,1-.7-1.42,2,2,0,0,1,.4-1.27,2.46,2.46,0,0,1,1.08-.77,4.2,4.2,0,0,1,1.49-.25,4,4,0,0,1,1.73.34,3.14,3.14,0,0,1,1.18.93.53.53,0,0,1,.12.4.49.49,0,0,1-.24.35.63.63,0,0,1-.41.07.69.69,0,0,1-.4-.22,2.34,2.34,0,0,0-.87-.64,3.09,3.09,0,0,0-1.14-.2A2.27,2.27,0,0,0,89,4.81a1,1,0,0,0-.5.84,1,1,0,0,0,.19.6,1.55,1.55,0,0,0,.65.46A6.37,6.37,0,0,0,90.66,7a5.61,5.61,0,0,1,1.78.54,2.37,2.37,0,0,1,.93.82,2.06,2.06,0,0,1,.27,1,2,2,0,0,1-.41,1.24,2.68,2.68,0,0,1-1.14.83A4.33,4.33,0,0,1,90.42,11.79Z"/><path class="cls-1" d="M98.5,11.79a5.32,5.32,0,0,1-1.75-.3,3.3,3.3,0,0,1-1.41-.9.49.49,0,0,1-.14-.4.61.61,0,0,1,.23-.4.58.58,0,0,1,.43-.12.62.62,0,0,1,.38.2,2.32,2.32,0,0,0,1,.64,3.47,3.47,0,0,0,1.31.23,2.7,2.7,0,0,0,1.61-.38,1.2,1.2,0,0,0,.51-.92,1.06,1.06,0,0,0-.51-.9A4.42,4.42,0,0,0,98.43,8a4.52,4.52,0,0,1-2.22-.84,1.81,1.81,0,0,1-.71-1.42,2,2,0,0,1,.41-1.27A2.46,2.46,0,0,1,97,3.69a4.14,4.14,0,0,1,1.48-.25,4.06,4.06,0,0,1,1.74.34,3.18,3.18,0,0,1,1.17.93.53.53,0,0,1,.12.4.49.49,0,0,1-.24.35.62.62,0,0,1-.41.07.73.73,0,0,1-.4-.22,2.34,2.34,0,0,0-.87-.64,3.09,3.09,0,0,0-1.14-.2,2.27,2.27,0,0,0-1.32.34,1,1,0,0,0-.49.84,1,1,0,0,0,.19.6,1.51,1.51,0,0,0,.64.46A6.55,6.55,0,0,0,98.74,7a5.53,5.53,0,0,1,1.78.54,2.24,2.24,0,0,1,.93.82,2,2,0,0,1,.28,1,2,2,0,0,1-.41,1.24,2.81,2.81,0,0,1-1.14.83A4.42,4.42,0,0,1,98.5,11.79Z"/><path class="cls-1" d="M107.44,11.79a4.34,4.34,0,0,1-2.15-.53,3.94,3.94,0,0,1-1.47-1.48,4.37,4.37,0,0,1-.53-2.16,4.6,4.6,0,0,1,.5-2.17A3.88,3.88,0,0,1,105.18,4a4.16,4.16,0,0,1,4,0,3.55,3.55,0,0,1,1.31,1.43A4.59,4.59,0,0,1,111,7.47a.49.49,0,0,1-.15.38.52.52,0,0,1-.39.14h-6.37V7h6.49l-.64.47a3.43,3.43,0,0,0-.32-1.56,2.59,2.59,0,0,0-.93-1.08,2.64,2.64,0,0,0-1.45-.39,2.68,2.68,0,0,0-1.5.41,2.76,2.76,0,0,0-1,1.11,3.72,3.72,0,0,0-.35,1.63,3.19,3.19,0,0,0,.4,1.62,2.88,2.88,0,0,0,1.08,1.11,3.08,3.08,0,0,0,1.59.4,3.46,3.46,0,0,0,1.09-.18,2.52,2.52,0,0,0,.88-.48.63.63,0,0,1,.37-.14.55.55,0,0,1,.36.11.61.61,0,0,1,.21.4.44.44,0,0,1-.18.35,4,4,0,0,1-1.26.7A4.19,4.19,0,0,1,107.44,11.79Z"/><path class="cls-1" d="M112.41,4.81a.51.51,0,0,1-.38-.14.45.45,0,0,1-.15-.35A.5.5,0,0,1,112,4a.56.56,0,0,1,.38-.14h3.82a.56.56,0,0,1,.38.14.5.5,0,0,1,.15.37.45.45,0,0,1-.15.35.51.51,0,0,1-.38.14Zm3.73,6.9a2.66,2.66,0,0,1-2.4-1.4,3,3,0,0,1-.36-1.49V1.48a.61.61,0,0,1,.16-.42A.58.58,0,0,1,114,.9a.61.61,0,0,1,.42.16.57.57,0,0,1,.17.42V8.82a1.76,1.76,0,0,0,.45,1.25,1.48,1.48,0,0,0,1.15.49h.41a.5.5,0,0,1,.39.16.63.63,0,0,1,.15.43.54.54,0,0,1-.18.41.68.68,0,0,1-.45.15Z"/><path class="cls-1" d="M121.83,11.79a5.38,5.38,0,0,1-1.76-.3,3.3,3.3,0,0,1-1.41-.9.48.48,0,0,1-.13-.4.6.6,0,0,1,.22-.4.61.61,0,0,1,.44-.12.59.59,0,0,1,.37.2,2.29,2.29,0,0,0,1,.64,3.43,3.43,0,0,0,1.31.23,2.67,2.67,0,0,0,1.6-.38,1.2,1.2,0,0,0,.51-.92,1.06,1.06,0,0,0-.51-.9A4.42,4.42,0,0,0,121.75,8a4.52,4.52,0,0,1-2.22-.84,1.8,1.8,0,0,1-.7-1.42,2,2,0,0,1,.4-1.27,2.46,2.46,0,0,1,1.08-.77,4.2,4.2,0,0,1,1.49-.25,4,4,0,0,1,1.73.34,3.14,3.14,0,0,1,1.18.93.53.53,0,0,1,.12.4.49.49,0,0,1-.24.35.63.63,0,0,1-.41.07.69.69,0,0,1-.4-.22,2.34,2.34,0,0,0-.87-.64,3.09,3.09,0,0,0-1.14-.2,2.27,2.27,0,0,0-1.32.34,1,1,0,0,0-.5.84,1,1,0,0,0,.19.6,1.55,1.55,0,0,0,.65.46,6.37,6.37,0,0,0,1.28.32,5.61,5.61,0,0,1,1.78.54,2.37,2.37,0,0,1,.93.82,2.06,2.06,0,0,1,.27,1,2,2,0,0,1-.41,1.24,2.68,2.68,0,0,1-1.14.83A4.33,4.33,0,0,1,121.83,11.79Z"/></g></g></svg>