<svg xmlns="http://www.w3.org/2000/svg" xmlns:xlink="http://www.w3.org/1999/xlink" viewBox="0 0 47.75 44.6"><defs><style>.cls-1{mask:url(#mask);filter:url(#luminosity-noclip-2);}.cls-2{mix-blend-mode:multiply;fill:url(#linear-gradient);}.cls-3{fill:#adc5db;}.cls-4{fill:url(#linear-gradient-2);}.cls-5{fill:#d8a5ff;}.cls-6{fill:url(#linear-gradient-3);}.cls-7{fill:url(#linear-gradient-4);}.cls-8{fill:url(#linear-gradient-5);}.cls-9{fill:url(#linear-gradient-6);}.cls-10{fill:#446bb5;}.cls-11{fill:#cfdfff;}.cls-12{fill:#7097d6;}.cls-13{fill:#2d1a2d;}.cls-14{fill:url(#linear-gradient-7);}.cls-15{fill:url(#linear-gradient-8);}.cls-16{fill:#17101c;}.cls-17{mask:url(#mask-2);}.cls-18{fill:url(#linear-gradient-9);}.cls-19{fill:#ffd345;opacity:0.3;}.cls-20,.cls-21{fill:none;stroke-linecap:round;stroke-miterlimit:10;stroke-width:0.19px;}.cls-20{stroke:#ffb22a;}.cls-21{stroke:#8feaff;}.cls-22{fill:#8feaff;}.cls-23{fill:url(#linear-gradient-10);}.cls-24{fill:url(#linear-gradient-11);}.cls-25{fill:url(#linear-gradient-12);}.cls-26{fill:url(#linear-gradient-13);}.cls-27{fill:url(#linear-gradient-14);}.cls-28{fill:url(#linear-gradient-15);}.cls-29{fill:url(#linear-gradient-16);}.cls-30{fill:url(#linear-gradient-17);}.cls-31{fill:url(#linear-gradient-18);}.cls-32{fill:url(#linear-gradient-19);}.cls-33{fill:url(#linear-gradient-20);}.cls-34{fill:url(#linear-gradient-21);}.cls-35{fill:url(#linear-gradient-22);}.cls-36{fill:url(#linear-gradient-23);}.cls-37{fill:#b1fff7;}.cls-38{fill:#6ef4c0;}.cls-39{fill:url(#linear-gradient-24);}.cls-40{fill:#ffcc3e;}.cls-41{fill:url(#linear-gradient-25);}.cls-42{fill:url(#linear-gradient-26);}.cls-43{fill:url(#linear-gradient-27);}.cls-44{fill:url(#linear-gradient-28);}.cls-45{fill:url(#linear-gradient-29);}.cls-46{fill:url(#linear-gradient-30);}.cls-47{fill:url(#linear-gradient-31);}.cls-48{fill:url(#linear-gradient-32);}.cls-49{fill:url(#linear-gradient-33);}.cls-50{fill:url(#linear-gradient-34);}.cls-51{fill:url(#linear-gradient-35);}.cls-52{fill:url(#linear-gradient-36);}.cls-53{fill:url(#linear-gradient-37);}.cls-54{fill:url(#linear-gradient-38);}.cls-55{fill:url(#linear-gradient-39);}.cls-56{fill:url(#linear-gradient-40);}.cls-57{fill:url(#linear-gradient-41);}.cls-58{fill:url(#linear-gradient-42);}.cls-59{fill:url(#linear-gradient-43);}.cls-60{fill:url(#linear-gradient-44);}.cls-61{fill:url(#linear-gradient-45);}.cls-62{fill:url(#linear-gradient-46);}.cls-63{fill:url(#linear-gradient-47);}.cls-64{fill:url(#linear-gradient-48);}.cls-65{fill:url(#linear-gradient-49);}.cls-66{fill:url(#linear-gradient-50);}.cls-67{fill:url(#linear-gradient-51);}.cls-68{fill:url(#linear-gradient-52);}.cls-69{fill:url(#linear-gradient-53);}.cls-70{fill:url(#linear-gradient-54);}.cls-71{fill:url(#linear-gradient-55);}.cls-72{fill:url(#linear-gradient-56);}.cls-73{fill:url(#linear-gradient-57);}.cls-74{fill:url(#linear-gradient-58);}.cls-75{fill:url(#linear-gradient-59);}.cls-76{fill:url(#linear-gradient-60);}.cls-77{fill:url(#linear-gradient-61);}.cls-78{fill:url(#linear-gradient-62);}.cls-79{fill:url(#linear-gradient-63);}.cls-80{fill:url(#linear-gradient-64);}.cls-81{filter:url(#luminosity-noclip);}</style><filter id="luminosity-noclip" x="7.99" y="-8214.86" width="33.98" height="32766" filterUnits="userSpaceOnUse" color-interpolation-filters="sRGB"><feFlood flood-color="#fff" result="bg"/><feBlend in="SourceGraphic" in2="bg"/></filter><mask id="mask" x="7.99" y="-8214.86" width="33.98" height="32766" maskUnits="userSpaceOnUse"><g class="cls-81"/></mask><linearGradient id="linear-gradient" x1="24.48" y1="28.92" x2="26.7" y2="13.41" gradientUnits="userSpaceOnUse"><stop offset="0" stop-color="#fff"/><stop offset="0.07" stop-color="#f5f5f5"/><stop offset="0.19" stop-color="#dbdbdb"/><stop offset="0.35" stop-color="#b1b1b1"/><stop offset="0.53" stop-color="#767676"/><stop offset="0.73" stop-color="#2c2c2c"/><stop offset="0.84"/></linearGradient><linearGradient id="linear-gradient-2" x1="29.72" y1="39.08" x2="46.56" y2="39.08" gradientUnits="userSpaceOnUse"><stop offset="0" stop-color="#9b55cc"/><stop offset="0.18" stop-color="#9954c9"/><stop offset="0.34" stop-color="#9351bf"/><stop offset="0.47" stop-color="#884cad"/><stop offset="0.61" stop-color="#794495"/><stop offset="0.74" stop-color="#663a76"/><stop offset="0.86" stop-color="#4e2f50"/><stop offset="0.98" stop-color="#332123"/><stop offset="1" stop-color="#2d1e1a"/></linearGradient><linearGradient id="linear-gradient-3" x1="29.26" y1="33" x2="40.81" y2="36.07" xlink:href="#linear-gradient-2"/><linearGradient id="linear-gradient-4" x1="38.26" y1="28.2" x2="42.27" y2="36.38" xlink:href="#linear-gradient-2"/><linearGradient id="linear-gradient-5" x1="45.96" y1="33.5" x2="35.73" y2="37.71" xlink:href="#linear-gradient-2"/><linearGradient id="linear-gradient-6" x1="16.14" y1="30.88" x2="-2.87" y2="45.71" gradientUnits="userSpaceOnUse"><stop offset="0" stop-color="#01257a"/><stop offset="0.28" stop-color="#032577"/><stop offset="0.49" stop-color="#08236e"/><stop offset="0.67" stop-color="#11215d"/><stop offset="0.84" stop-color="#1e1e47"/><stop offset="0.98" stop-color="#2d1a2d"/></linearGradient><linearGradient id="linear-gradient-7" x1="1.81" y1="33.19" x2="9.75" y2="33.19" xlink:href="#linear-gradient-6"/><linearGradient id="linear-gradient-8" x1="24.17" y1="31.33" x2="25.77" y2="20.19" gradientUnits="userSpaceOnUse"><stop offset="0" stop-color="#25667a"/><stop offset="0.27" stop-color="#256377"/><stop offset="0.48" stop-color="#255a6e"/><stop offset="0.66" stop-color="#24495f"/><stop offset="0.83" stop-color="#243349"/><stop offset="0.98" stop-color="#23162d"/></linearGradient><filter id="luminosity-noclip-2" x="7.99" y="15.08" width="33.98" height="20.33" filterUnits="userSpaceOnUse" color-interpolation-filters="sRGB"><feFlood flood-color="#fff" result="bg"/><feBlend in="SourceGraphic" in2="bg"/></filter><mask id="mask-2" x="7.99" y="15.08" width="33.98" height="20.33" maskUnits="userSpaceOnUse"><g class="cls-1"><path class="cls-2" d="M22.21,35.41A3.17,3.17,0,0,1,20.63,35l-12-7a1.21,1.21,0,0,1,0-2.11L27.18,15.25a1.19,1.19,0,0,1,1.21,0l13,7.49A1.18,1.18,0,0,1,42,23.79a1.2,1.2,0,0,1-.61,1.06L23.78,35A3.16,3.16,0,0,1,22.21,35.41Zm-1.48-.59a2.94,2.94,0,0,0,2.95,0L41.27,24.68a1,1,0,0,0,0-1.78l-13-7.49a1,1,0,0,0-1,0L8.7,26.1a1,1,0,0,0-.51.89,1,1,0,0,0,.51.89Z"/></g></mask><linearGradient id="linear-gradient-9" x1="24.48" y1="28.92" x2="26.7" y2="13.41" gradientUnits="userSpaceOnUse"><stop offset="0" stop-color="#8feaff"/><stop offset="0.08" stop-color="#8ae0f6"/><stop offset="0.22" stop-color="#7ec6dd"/><stop offset="0.39" stop-color="#699cb5"/><stop offset="0.6" stop-color="#4d617e"/><stop offset="0.83" stop-color="#291738"/><stop offset="0.84" stop-color="#271233"/></linearGradient><linearGradient id="linear-gradient-10" x1="17.74" y1="23.62" x2="23.52" y2="33.21" gradientUnits="userSpaceOnUse"><stop offset="0" stop-color="#55ccc0"/><stop offset="0.18" stop-color="#54c9bd"/><stop offset="0.33" stop-color="#51bfb5"/><stop offset="0.47" stop-color="#4cada7"/><stop offset="0.6" stop-color="#459594"/><stop offset="0.73" stop-color="#3d767b"/><stop offset="0.85" stop-color="#32505c"/><stop offset="0.97" stop-color="#252338"/><stop offset="1" stop-color="#21152d"/></linearGradient><linearGradient id="linear-gradient-11" x1="21.54" y1="21.33" x2="27.32" y2="30.92" xlink:href="#linear-gradient-10"/><linearGradient id="linear-gradient-12" x1="24.99" y1="19.25" x2="30.77" y2="28.85" xlink:href="#linear-gradient-10"/><linearGradient id="linear-gradient-13" x1="26.67" y1="18.24" x2="32.45" y2="27.83" xlink:href="#linear-gradient-10"/><linearGradient id="linear-gradient-14" x1="30.11" y1="16.16" x2="35.89" y2="25.76" xlink:href="#linear-gradient-10"/><linearGradient id="linear-gradient-15" x1="33.56" y1="14.09" x2="39.34" y2="23.68" xlink:href="#linear-gradient-10"/><linearGradient id="linear-gradient-16" x1="37.01" y1="12.01" x2="42.79" y2="21.6" xlink:href="#linear-gradient-10"/><linearGradient id="linear-gradient-17" x1="22.21" y1="30.99" x2="20.82" y2="33.39" gradientUnits="userSpaceOnUse"><stop offset="0" stop-color="#097a6d"/><stop offset="0.25" stop-color="#0a776b"/><stop offset="0.44" stop-color="#0c6e65"/><stop offset="0.6" stop-color="#105d5b"/><stop offset="0.76" stop-color="#15474d"/><stop offset="0.9" stop-color="#1c2a3a"/><stop offset="0.98" stop-color="#21152d"/></linearGradient><linearGradient id="linear-gradient-18" x1="26.02" y1="25.19" x2="22.55" y2="31.19" xlink:href="#linear-gradient-17"/><linearGradient id="linear-gradient-19" x1="29.48" y1="20.79" x2="24.63" y2="29.19" xlink:href="#linear-gradient-17"/><linearGradient id="linear-gradient-20" x1="31.21" y1="23.39" x2="28.44" y2="28.19" xlink:href="#linear-gradient-17"/><linearGradient id="linear-gradient-21" x1="34.68" y1="18.99" x2="30.52" y2="26.19" xlink:href="#linear-gradient-17"/><linearGradient id="linear-gradient-22" x1="38.14" y1="14.59" x2="32.6" y2="24.19" xlink:href="#linear-gradient-17"/><linearGradient id="linear-gradient-23" x1="41.61" y1="10.19" x2="34.68" y2="22.19" xlink:href="#linear-gradient-17"/><linearGradient id="linear-gradient-24" x1="24.8" y1="40.3" x2="28.06" y2="40.3" gradientUnits="userSpaceOnUse"><stop offset="0" stop-color="#cc9903"/><stop offset="0.26" stop-color="#ca9604"/><stop offset="0.48" stop-color="#c48c08"/><stop offset="0.67" stop-color="#ba7a0f"/><stop offset="0.86" stop-color="#ac6218"/><stop offset="1" stop-color="#9e4b21"/></linearGradient><linearGradient id="linear-gradient-25" x1="24.8" y1="39.91" x2="28.06" y2="39.91" xlink:href="#linear-gradient-24"/><linearGradient id="linear-gradient-26" x1="24.8" y1="39.53" x2="28.06" y2="39.53" xlink:href="#linear-gradient-24"/><linearGradient id="linear-gradient-27" x1="24.8" y1="39.14" x2="28.06" y2="39.14" xlink:href="#linear-gradient-24"/><linearGradient id="linear-gradient-28" x1="24.8" y1="38.75" x2="28.06" y2="38.75" xlink:href="#linear-gradient-24"/><linearGradient id="linear-gradient-29" x1="24.8" y1="38.36" x2="28.06" y2="38.36" xlink:href="#linear-gradient-24"/><linearGradient id="linear-gradient-30" x1="24.8" y1="37.97" x2="28.06" y2="37.97" xlink:href="#linear-gradient-24"/><linearGradient id="linear-gradient-31" x1="24.8" y1="37.59" x2="28.06" y2="37.59" xlink:href="#linear-gradient-24"/><linearGradient id="linear-gradient-32" x1="24.8" y1="37.2" x2="28.06" y2="37.2" xlink:href="#linear-gradient-24"/><linearGradient id="linear-gradient-33" x1="24.8" y1="36.81" x2="28.06" y2="36.81" xlink:href="#linear-gradient-24"/><linearGradient id="linear-gradient-34" x1="24.8" y1="36.42" x2="28.06" y2="36.42" xlink:href="#linear-gradient-24"/><linearGradient id="linear-gradient-35" x1="24.8" y1="36.04" x2="28.06" y2="36.04" xlink:href="#linear-gradient-24"/><linearGradient id="linear-gradient-36" x1="24.8" y1="35.65" x2="28.06" y2="35.65" xlink:href="#linear-gradient-24"/><linearGradient id="linear-gradient-37" x1="24.8" y1="35.26" x2="28.06" y2="35.26" xlink:href="#linear-gradient-24"/><linearGradient id="linear-gradient-38" x1="24.8" y1="34.87" x2="28.06" y2="34.87" xlink:href="#linear-gradient-24"/><linearGradient id="linear-gradient-39" x1="18.27" y1="41.12" x2="21.53" y2="41.12" xlink:href="#linear-gradient-24"/><linearGradient id="linear-gradient-40" x1="18.27" y1="40.73" x2="21.53" y2="40.73" xlink:href="#linear-gradient-24"/><linearGradient id="linear-gradient-41" x1="18.27" y1="40.35" x2="21.53" y2="40.35" xlink:href="#linear-gradient-24"/><linearGradient id="linear-gradient-42" x1="18.27" y1="39.96" x2="21.53" y2="39.96" xlink:href="#linear-gradient-24"/><linearGradient id="linear-gradient-43" x1="21.89" y1="41.39" x2="25.15" y2="41.39" xlink:href="#linear-gradient-24"/><linearGradient id="linear-gradient-44" x1="21.89" y1="41" x2="25.15" y2="41" xlink:href="#linear-gradient-24"/><linearGradient id="linear-gradient-45" x1="21.89" y1="40.61" x2="25.15" y2="40.61" xlink:href="#linear-gradient-24"/><linearGradient id="linear-gradient-46" x1="21.89" y1="40.22" x2="25.15" y2="40.22" xlink:href="#linear-gradient-24"/><linearGradient id="linear-gradient-47" x1="21.89" y1="39.84" x2="25.15" y2="39.84" xlink:href="#linear-gradient-24"/><linearGradient id="linear-gradient-48" x1="21.89" y1="39.45" x2="25.15" y2="39.45" xlink:href="#linear-gradient-24"/><linearGradient id="linear-gradient-49" x1="21.89" y1="39.06" x2="25.15" y2="39.06" xlink:href="#linear-gradient-24"/><linearGradient id="linear-gradient-50" x1="21.89" y1="38.67" x2="25.15" y2="38.67" xlink:href="#linear-gradient-24"/><linearGradient id="linear-gradient-51" x1="21.89" y1="38.28" x2="25.15" y2="38.28" xlink:href="#linear-gradient-24"/><linearGradient id="linear-gradient-52" x1="21.89" y1="37.9" x2="25.15" y2="37.9" xlink:href="#linear-gradient-24"/><linearGradient id="linear-gradient-53" x1="25.16" y1="41.67" x2="28.41" y2="41.67" xlink:href="#linear-gradient-24"/><linearGradient id="linear-gradient-54" x1="25.16" y1="41.28" x2="28.41" y2="41.28" xlink:href="#linear-gradient-24"/><linearGradient id="linear-gradient-55" x1="25.16" y1="40.9" x2="28.41" y2="40.9" xlink:href="#linear-gradient-24"/><linearGradient id="linear-gradient-56" x1="25.16" y1="40.51" x2="28.41" y2="40.51" xlink:href="#linear-gradient-24"/><linearGradient id="linear-gradient-57" x1="25.16" y1="40.12" x2="28.41" y2="40.12" xlink:href="#linear-gradient-24"/><linearGradient id="linear-gradient-58" x1="25.16" y1="39.73" x2="28.41" y2="39.73" xlink:href="#linear-gradient-24"/><linearGradient id="linear-gradient-59" x1="22.89" y1="43.43" x2="26.15" y2="43.43" xlink:href="#linear-gradient-24"/><linearGradient id="linear-gradient-60" x1="22.89" y1="43.04" x2="26.15" y2="43.04" xlink:href="#linear-gradient-24"/><linearGradient id="linear-gradient-61" x1="22.89" y1="42.65" x2="26.15" y2="42.65" xlink:href="#linear-gradient-24"/><linearGradient id="linear-gradient-62" x1="19.09" y1="43.48" x2="22.35" y2="43.48" xlink:href="#linear-gradient-24"/><linearGradient id="linear-gradient-63" x1="19.09" y1="43.09" x2="22.35" y2="43.09" xlink:href="#linear-gradient-24"/><linearGradient id="linear-gradient-64" x1="14.69" y1="42.94" x2="17.95" y2="42.94" xlink:href="#linear-gradient-24"/></defs><g id="Layer_2" data-name="Layer 2"><g id="Design"><g id="shadow"><path class="cls-3" d="M38.21,43.4a12,12,0,0,1-6.09-1.63c-2-1.15-3-2.46-3-3.91,0-2.42,2.87-4.11,3-4.18a14.24,14.24,0,0,1,6.53-1.62,12,12,0,0,1,6.1,1.62c2,1.15,3,2.47,3,3.92,0,2.41-2.88,4.1-3,4.17A14.15,14.15,0,0,1,38.21,43.4Z"/><path class="cls-3" d="M10.67,42.33A2.36,2.36,0,0,1,9.48,42L.71,36.94A1.4,1.4,0,0,1,0,35.71a1.42,1.42,0,0,1,.71-1.23L6.8,31a2.35,2.35,0,0,1,2.37,0l8.88,5.12a1.36,1.36,0,0,1,0,2.34L11.86,42a2.39,2.39,0,0,1-1.19.32Z"/><path class="cls-3" d="M22.22,36.93a3.58,3.58,0,0,1-1.81-.48l-12-6.92a1.67,1.67,0,0,1-.85-1.47,1.69,1.69,0,0,1,.85-1.47L26.93,16a1.75,1.75,0,0,1,.84-.22,1.79,1.79,0,0,1,.85.22l12.92,7.46a1.7,1.7,0,0,1,0,2.94L24,36.45a3.54,3.54,0,0,1-1.8.48Z"/><path class="cls-3" d="M16.4,44.05a2.73,2.73,0,0,1-1.26-.31c-.61-.33-.74-.72-.74-1a1.34,1.34,0,0,1,.74-1,3,3,0,0,1,1.33-.31,2.73,2.73,0,0,1,1.26.31c.61.33.74.72.74,1a1.34,1.34,0,0,1-.74,1A3,3,0,0,1,16.4,44.05Z"/><path class="cls-3" d="M28.75,40.39a2.66,2.66,0,0,0-1.25-.31,3.11,3.11,0,0,0-1.34.31,2.5,2.5,0,0,0-.35.25,1.69,1.69,0,0,0-.54-.43A2.73,2.73,0,0,0,24,39.9a3,3,0,0,0-1.33.31,1.72,1.72,0,0,0-.52.43,1.35,1.35,0,0,0-.69-.68,2.58,2.58,0,0,0-1.26-.31,2.94,2.94,0,0,0-1.33.31,1.3,1.3,0,0,0-.74,1c0,.27.13.66.74,1a2.63,2.63,0,0,0,.86.28h0a1.33,1.33,0,0,0-.75,1c0,.27.13.67.75,1A2.55,2.55,0,0,0,21,44.6a3.11,3.11,0,0,0,1.34-.31,1.49,1.49,0,0,0,.7-.76,1.24,1.24,0,0,0,.71.76A2.58,2.58,0,0,0,25,44.6a3,3,0,0,0,1.33-.31,1.3,1.3,0,0,0,.74-1,.9.9,0,0,0-.24-.6,3.08,3.08,0,0,0,.61.06,2.85,2.85,0,0,0,1.33-.31,1.29,1.29,0,0,0,.75-1C29.5,41.11,29.37,40.72,28.75,40.39ZM25.59,42l0,0,0,.05Z"/></g><g id="Design-2" data-name="Design"><g id="Chart"><path class="cls-4" d="M46.56,35.71v1.85C46.48,39.51,44,41,44,41s-5.83,3.37-11.66,0c-2-1.17-2.59-2.34-2.59-3.37V36Z"/><path class="cls-5" d="M32.31,32.65s5.83-3.36,11.66,0,0,6.74,0,6.74-5.83,3.36-11.66,0S32.31,32.65,32.31,32.65Z"/><path class="cls-6" d="M38,36l-8.14,1c-.91-2.4,2.43-4.33,2.43-4.33A13.13,13.13,0,0,1,37,31.24Z"/><path class="cls-5" d="M38,35.69l-8.14,1c-.91-2.4,2.43-4.33,2.43-4.33A13.25,13.25,0,0,1,37,30.92Z"/><path class="cls-7" d="M43.94,31.48v1.15L38,36l-1-4.76V30.08Z"/><path class="cls-5" d="M43.94,31.48,38,34.85l-1-4.77A11.32,11.32,0,0,1,43.94,31.48Z"/><path class="cls-8" d="M46.23,34.68,38,36v-.52c3.06-1.22,7.82-1.71,8.21-1.32Z"/><path class="cls-5" d="M46.23,34.16,38,35.48l5.92-3.37,0,0A5.81,5.81,0,0,1,46.23,34.16Z"/></g><g id="Calculator"><path class="cls-9" d="M1,36.12l8.86,5.12a1.71,1.71,0,0,0,1.72,0l6.26-3.61a.67.67,0,0,0,.34-.58v-.57L.58,35v.56A.7.7,0,0,0,1,36.12Z"/><path class="cls-10" d="M1,35.64l8.86,5.12a1.71,1.71,0,0,0,1.72,0l6.26-3.62a.69.69,0,0,0,0-1.19l-9-5.18a1.76,1.76,0,0,0-1.72,0L1,34.33A.75.75,0,0,0,1,35.64Z"/><path class="cls-11" d="M4.41,36.57l1.2.69a.08.08,0,0,0,.09,0l1.2-.69a.09.09,0,0,0,0-.16l-1.2-.7H5.61l-1.2.7A.09.09,0,0,0,4.41,36.57Z"/><path class="cls-11" d="M6.06,35.62l1.2.69h.09l1.2-.69a.1.1,0,0,0,0-.17l-1.2-.69a.07.07,0,0,0-.09,0l-1.2.69A.1.1,0,0,0,6.06,35.62Z"/><path class="cls-11" d="M7.71,34.66l1.2.69a.09.09,0,0,0,.1,0l1.2-.69a.09.09,0,0,0,0-.16L9,33.81a.09.09,0,0,0-.1,0l-1.2.69A.09.09,0,0,0,7.71,34.66Z"/><path class="cls-12" d="M9.36,33.71l1.21.69a.07.07,0,0,0,.09,0l1.2-.69a.09.09,0,0,0,0-.16l-1.2-.7h-.09l-1.21.7A.09.09,0,0,0,9.36,33.71Z"/><path class="cls-11" d="M6.06,37.52l1.2.7h.09l1.2-.7a.09.09,0,0,0,0-.16l-1.2-.69a.07.07,0,0,0-.09,0l-1.2.69A.09.09,0,0,0,6.06,37.52Z"/><path class="cls-11" d="M7.71,36.57l1.2.69a.09.09,0,0,0,.1,0l1.2-.69a.09.09,0,0,0,0-.16L9,35.71h-.1l-1.2.7A.09.09,0,0,0,7.71,36.57Z"/><path class="cls-11" d="M9.36,35.62l1.21.69h.09l1.2-.69a.1.1,0,0,0,0-.17l-1.2-.69a.07.07,0,0,0-.09,0l-1.21.69A.1.1,0,0,0,9.36,35.62Z"/><path class="cls-11" d="M11,34.66l1.2.69a.08.08,0,0,0,.09,0l1.2-.69a.09.09,0,0,0,0-.16l-1.2-.69a.07.07,0,0,0-.09,0L11,34.5A.09.09,0,0,0,11,34.66Z"/><path class="cls-11" d="M7.71,38.48l1.2.69a.09.09,0,0,0,.1,0l1.2-.69a.09.09,0,0,0,0-.16L9,37.62h-.1l-1.2.7A.09.09,0,0,0,7.71,38.48Z"/><path class="cls-11" d="M9.36,37.52l1.21.7h.09l1.2-.7a.09.09,0,0,0,0-.16l-1.2-.69a.07.07,0,0,0-.09,0l-1.21.69A.09.09,0,0,0,9.36,37.52Z"/><path class="cls-11" d="M11,36.57l1.2.69a.08.08,0,0,0,.09,0l1.2-.69a.09.09,0,0,0,0-.16l-1.2-.7h-.09l-1.2.7A.09.09,0,0,0,11,36.57Z"/><path class="cls-11" d="M12.67,35.62l1.2.69H14l1.2-.69a.1.1,0,0,0,0-.17L14,34.76a.07.07,0,0,0-.09,0l-1.2.69A.1.1,0,0,0,12.67,35.62Z"/><path class="cls-11" d="M9.36,39.43l1.2.69a.08.08,0,0,0,.09,0l1.2-.69a.09.09,0,0,0,0-.16l-1.2-.7h-.09l-1.2.7A.09.09,0,0,0,9.36,39.43Z"/><path class="cls-11" d="M11,38.47l1.2.7h.09l1.2-.7a.09.09,0,0,0,0-.16l-1.2-.69a.08.08,0,0,0-.09,0l-1.2.69A.09.09,0,0,0,11,38.47Z"/><path class="cls-11" d="M12.66,37.52l1.2.69a.09.09,0,0,0,.1,0l1.2-.69a.09.09,0,0,0,0-.16l-1.2-.7h-.1l-1.2.7A.09.09,0,0,0,12.66,37.52Z"/><path class="cls-11" d="M14.31,36.56l1.2.7a.17.17,0,0,0,.1,0l1.2-.7a.09.09,0,0,0,0-.16l-1.2-.69a.09.09,0,0,0-.1,0l-1.2.69A.09.09,0,0,0,14.31,36.56Z"/><path class="cls-13" d="M3.48,35.87l6.2-3.58a.13.13,0,0,0,0-.23l-1.25-.72a.41.41,0,0,0-.4,0L1.91,34.87a.19.19,0,0,0,0,.33l1.16.67A.38.38,0,0,0,3.48,35.87Z"/><path class="cls-14" d="M9.74,32.23a.13.13,0,0,0-.06-.07l-1.25-.72a.41.41,0,0,0-.4,0L1.91,35a.16.16,0,0,0-.09.11.2.2,0,0,1,.09-.22L8,31.34a.41.41,0,0,1,.4,0l1.25.72A.14.14,0,0,1,9.74,32.23Z"/></g><g id="Graph"><path class="cls-15" d="M22.21,35.94a3.08,3.08,0,0,1-1.58-.43l-12-6.94A1.22,1.22,0,0,1,8,27.51c0-.44,0,0,0-.62l34-3.3v.73a1.16,1.16,0,0,1-.61,1.05L23.78,35.52A3.16,3.16,0,0,1,22.21,35.94Z"/><path class="cls-16" d="M20.73,34.82a2.94,2.94,0,0,0,2.95,0L41.27,24.68a1,1,0,0,0,0-1.78l-13-7.49a1,1,0,0,0-1,0L8.7,26.1a1,1,0,0,0-.51.89,1,1,0,0,0,.51.89Z"/><g class="cls-17"><path class="cls-18" d="M22.21,35.41A3.17,3.17,0,0,1,20.63,35l-12-7a1.21,1.21,0,0,1,0-2.11L27.18,15.25a1.19,1.19,0,0,1,1.21,0l13,7.49A1.18,1.18,0,0,1,42,23.79a1.2,1.2,0,0,1-.61,1.06L23.78,35A3.16,3.16,0,0,1,22.21,35.41Zm-1.48-.59a2.94,2.94,0,0,0,2.95,0L41.27,24.68a1,1,0,0,0,0-1.78l-13-7.49a1,1,0,0,0-1,0L8.7,26.1a1,1,0,0,0-.51.89,1,1,0,0,0,.51.89Z"/></g><polygon class="cls-19" points="13.89 29.39 15.28 23.79 16.66 24.59 18.05 20.59 19.44 21.39 20.82 20.59 22.21 14.99 23.59 17.39 24.98 16.59 26.36 12.59 27.75 11.79 29.14 7.79 30.52 10.19 33.29 3.79 34.68 6.19 34.68 17.39 13.89 29.39"/><polyline class="cls-20" points="13.89 29.39 15.28 23.79 16.66 24.59 18.05 20.59 19.44 21.39 20.82 20.59 22.21 14.99 23.59 17.39 24.98 16.59 26.36 12.59 27.75 11.79 29.14 7.79 30.52 10.19 33.29 3.79 34.68 6.19"/><path class="cls-21" d="M38.85,10.18c-1.39.8-1.39-4-2.77-3.2s-1.39,7.2-2.78,8-1.38-2.4-2.77-1.6-1.38,7.2-2.77,8-1.38-4-2.77-3.2-1.38,8.78-2.77,9.6-1.37-4-2.77-3.18-1.4,5.56-2.78,6.37"/><path class="cls-22" d="M19.46,25.11c-.47.27-.47-.81,0-1.07S19.92,24.84,19.46,25.11Z"/><path class="cls-22" d="M22.2,28.32c-.46.27-.46-.81,0-1.07S22.67,28.05,22.2,28.32Z"/><path class="cls-22" d="M25,18.72c-.46.27-.46-.81,0-1.07S25.44,18.45,25,18.72Z"/><path class="cls-22" d="M27.79,21.93c-.47.27-.47-.81,0-1.07S28.25,21.66,27.79,21.93Z"/><path class="cls-22" d="M30.53,13.92c-.46.27-.46-.81,0-1.07S31,13.65,30.53,13.92Z"/><path class="cls-22" d="M33.31,15.51c-.46.27-.46-.81,0-1.07S33.77,15.24,33.31,15.51Z"/><path class="cls-22" d="M36.09,7.53c-.47.27-.47-.81,0-1.07S36.55,7.26,36.09,7.53Z"/><polygon class="cls-23" points="22.21 30.99 23.59 30.19 23.6 33.39 22.21 34.19 22.21 30.99"/><polygon class="cls-24" points="24.98 24.59 26.36 23.79 26.36 31.79 24.98 32.59 24.98 24.59"/><polygon class="cls-25" points="27.75 19.79 29.14 18.99 29.14 30.19 27.75 30.99 27.75 19.79"/><polygon class="cls-26" points="30.52 22.99 31.91 22.19 31.91 28.59 30.52 29.39 30.52 22.99"/><polygon class="cls-27" points="33.29 18.19 34.68 17.39 34.68 26.99 33.29 27.79 33.29 18.19"/><polygon class="cls-28" points="36.06 13.39 37.45 12.59 37.45 25.39 36.06 26.19 36.06 13.39"/><polygon class="cls-29" points="38.83 8.59 40.22 7.79 40.22 23.79 38.83 24.59 38.83 8.59"/><polygon class="cls-30" points="22.21 30.99 22.21 34.19 20.82 33.39 20.82 30.19 22.21 30.99"/><polygon class="cls-31" points="23.59 31.79 23.59 23.79 24.98 24.59 24.98 32.59 23.59 31.79"/><polygon class="cls-32" points="27.75 30.99 26.36 30.19 26.36 18.99 27.75 19.79 27.75 30.99"/><polygon class="cls-33" points="29.14 22.19 30.52 22.99 30.52 29.39 29.14 28.59 29.14 22.19"/><polygon class="cls-34" points="31.91 26.99 33.29 27.79 33.29 18.19 31.91 17.39 31.91 26.99"/><polygon class="cls-35" points="36.06 26.19 34.68 25.39 34.68 12.59 36.06 13.39 36.06 26.19"/><polygon class="cls-36" points="38.83 24.59 37.45 23.79 37.45 7.79 38.83 8.59 38.83 24.59"/><polygon class="cls-37" points="20.82 30.19 22.21 30.99 23.59 30.19 22.21 29.39 20.82 30.19"/><polygon class="cls-37" points="23.59 23.79 24.98 24.59 26.36 23.79 24.98 22.99 23.59 23.79"/><polygon class="cls-37" points="26.36 18.99 27.75 19.79 29.14 18.99 27.75 18.19 26.36 18.99"/><polygon class="cls-37" points="29.14 22.19 30.52 22.99 31.91 22.19 30.52 21.39 29.14 22.19"/><polygon class="cls-37" points="31.91 17.39 33.29 18.19 34.68 17.39 33.29 16.59 31.91 17.39"/><polygon class="cls-37" points="34.68 12.59 36.06 11.79 37.45 12.59 36.06 13.39 34.68 12.59"/><polygon class="cls-37" points="37.45 7.79 38.83 8.59 40.22 7.79 38.83 6.99 37.45 7.79"/><polygon class="cls-38" points="11.12 26.17 11.12 22.97 12.51 22.17 12.51 25.37 11.12 26.17"/><path class="cls-38" d="M11.89,21.91v4.36s0,.16-.07.2-.07-.12-.07-.12V22s0-.16.07-.2S11.89,21.91,11.89,21.91Z"/><polygon class="cls-38" points="13.89 22.97 13.89 19.77 15.28 18.97 15.28 22.17 13.89 22.97"/><path class="cls-38" d="M14.66,18.7v4.36s0,.16-.07.2-.07-.12-.07-.12V18.78s0-.16.07-.2S14.66,18.7,14.66,18.7Z"/><polygon class="cls-38" points="16.66 18.17 16.66 13.37 18.05 12.57 18.05 17.37 16.66 18.17"/><path class="cls-38" d="M17.43,12.12v6.3s0,.16-.07.2-.07-.12-.07-.12V12.2s0-.16.07-.2S17.43,12.12,17.43,12.12Z"/><polygon class="cls-38" points="19.44 14.97 19.44 8.57 20.82 7.77 20.82 14.17 19.44 14.97"/><path class="cls-38" d="M20.2,6.71V16.1s0,.16-.07.2-.07-.12-.07-.12V6.79s0-.17.07-.21S20.2,6.71,20.2,6.71Z"/><polygon class="cls-38" points="22.2 8.57 22.2 11.77 23.59 10.97 23.59 7.77 22.2 8.57"/><path class="cls-38" d="M23,7.48v4.36s0,.16-.07.2-.07-.12-.07-.12V7.56s0-.16.07-.2S23,7.48,23,7.48Z"/><polygon class="cls-38" points="24.98 8.57 24.98 3.77 26.36 2.97 26.36 7.77 24.98 8.57"/><path class="cls-38" d="M25.74,2.06V9.52s0,.16-.07.2-.07-.12-.07-.12V2.14s0-.16.07-.2S25.74,2.06,25.74,2.06Z"/><polygon class="cls-38" points="27.76 3.77 29.14 2.97 29.14 6.17 27.76 6.97 27.76 3.77"/><path class="cls-38" d="M28.52,2.45V7.2s0,.16-.07.2-.07-.12-.07-.12V2.53s0-.16.07-.2S28.52,2.45,28.52,2.45Z"/><polygon class="cls-38" points="30.52 4.55 30.52 1.35 31.91 0.55 31.91 3.75 30.52 4.55"/><path class="cls-38" d="M31.28.13V4.88s0,.16-.07.2S31.14,5,31.14,5V.21s0-.16.07-.2S31.28.13,31.28.13Z"/></g><g id="Coins"><path class="cls-39" d="M28.06,39.65V40c0,.37-.5.65-.5.65a2.38,2.38,0,0,1-2.26,0c-.39-.22-.5-.45-.5-.65v-.3Z"/><path class="cls-40" d="M25.3,39.06a2.38,2.38,0,0,1,2.26,0c1.12.65,0,1.3,0,1.3a2.41,2.41,0,0,1-2.26,0C24.17,39.71,25.3,39.06,25.3,39.06Z"/><path class="cls-41" d="M28.06,39.26v.36c0,.38-.5.66-.5.66a2.41,2.41,0,0,1-2.26,0c-.39-.23-.5-.46-.5-.66v-.3Z"/><path class="cls-40" d="M25.3,38.67a2.41,2.41,0,0,1,2.26,0c1.12.65,0,1.3,0,1.3a2.41,2.41,0,0,1-2.26,0C24.17,39.32,25.3,38.67,25.3,38.67Z"/><path class="cls-42" d="M28.06,38.87v.36c0,.38-.5.66-.5.66a2.41,2.41,0,0,1-2.26,0c-.39-.23-.5-.45-.5-.65v-.31Z"/><path class="cls-40" d="M25.3,38.28a2.41,2.41,0,0,1,2.26,0c1.12.65,0,1.3,0,1.3a2.38,2.38,0,0,1-2.26,0C24.17,38.93,25.3,38.28,25.3,38.28Z"/><path class="cls-43" d="M28.06,38.49v.35c0,.38-.5.66-.5.66a2.41,2.41,0,0,1-2.26,0c-.39-.23-.5-.45-.5-.65v-.31Z"/><path class="cls-40" d="M25.3,37.89a2.41,2.41,0,0,1,2.26,0c1.12.65,0,1.31,0,1.31a2.41,2.41,0,0,1-2.26,0C24.17,38.54,25.3,37.89,25.3,37.89Z"/><path class="cls-44" d="M28.06,38.1v.36c0,.37-.5.65-.5.65a2.41,2.41,0,0,1-2.26,0c-.39-.22-.5-.45-.5-.65v-.3Z"/><path class="cls-40" d="M25.3,37.51a2.38,2.38,0,0,1,2.26,0c1.12.65,0,1.3,0,1.3a2.41,2.41,0,0,1-2.26,0C24.17,38.16,25.3,37.51,25.3,37.51Z"/><path class="cls-45" d="M28.06,37.71v.36c0,.37-.5.66-.5.66a2.41,2.41,0,0,1-2.26,0c-.39-.23-.5-.46-.5-.66v-.3Z"/><path class="cls-40" d="M25.3,37.12a2.41,2.41,0,0,1,2.26,0c1.12.65,0,1.3,0,1.3a2.41,2.41,0,0,1-2.26,0C24.17,37.77,25.3,37.12,25.3,37.12Z"/><path class="cls-46" d="M28.06,37.32v.36c0,.38-.5.66-.5.66a2.41,2.41,0,0,1-2.26,0c-.39-.23-.5-.45-.5-.65v-.31Z"/><path class="cls-40" d="M25.3,36.73a2.41,2.41,0,0,1,2.26,0c1.12.65,0,1.3,0,1.3a2.41,2.41,0,0,1-2.26,0C24.17,37.38,25.3,36.73,25.3,36.73Z"/><path class="cls-47" d="M28.06,36.93v.36c0,.38-.5.66-.5.66a2.41,2.41,0,0,1-2.26,0c-.39-.23-.5-.45-.5-.65V37Z"/><path class="cls-40" d="M25.3,36.34a2.41,2.41,0,0,1,2.26,0c1.12.65,0,1.31,0,1.31a2.41,2.41,0,0,1-2.26,0C24.17,37,25.3,36.34,25.3,36.34Z"/><path class="cls-48" d="M28.06,36.55v.35c0,.38-.5.66-.5.66a2.41,2.41,0,0,1-2.26,0c-.39-.22-.5-.45-.5-.65v-.3Z"/><path class="cls-40" d="M25.3,36a2.41,2.41,0,0,1,2.26,0c1.12.66,0,1.31,0,1.31a2.41,2.41,0,0,1-2.26,0C24.17,36.61,25.3,36,25.3,36Z"/><path class="cls-49" d="M28.06,36.16v.36c0,.37-.5.65-.5.65a2.38,2.38,0,0,1-2.26,0c-.39-.22-.5-.45-.5-.65v-.3Z"/><path class="cls-40" d="M25.3,35.57a2.41,2.41,0,0,1,2.26,0c1.12.65,0,1.3,0,1.3a2.41,2.41,0,0,1-2.26,0C24.17,36.22,25.3,35.57,25.3,35.57Z"/><path class="cls-50" d="M28.06,35.77v.36c0,.38-.5.66-.5.66a2.41,2.41,0,0,1-2.26,0c-.39-.23-.5-.46-.5-.65v-.31Z"/><path class="cls-40" d="M25.3,35.18a2.41,2.41,0,0,1,2.26,0c1.12.65,0,1.3,0,1.3a2.41,2.41,0,0,1-2.26,0C24.17,35.83,25.3,35.18,25.3,35.18Z"/><path class="cls-51" d="M28.06,35.38v.36c0,.38-.5.66-.5.66a2.41,2.41,0,0,1-2.26,0c-.39-.23-.5-.45-.5-.65v-.31Z"/><path class="cls-40" d="M25.3,34.79a2.41,2.41,0,0,1,2.26,0c1.12.65,0,1.3,0,1.3a2.38,2.38,0,0,1-2.26,0C24.17,35.44,25.3,34.79,25.3,34.79Z"/><path class="cls-52" d="M28.06,35v.35c0,.38-.5.66-.5.66a2.41,2.41,0,0,1-2.26,0c-.39-.22-.5-.45-.5-.65v-.3Z"/><path class="cls-40" d="M25.3,34.4a2.41,2.41,0,0,1,2.26,0c1.12.66,0,1.31,0,1.31a2.41,2.41,0,0,1-2.26,0C24.17,35.06,25.3,34.4,25.3,34.4Z"/><path class="cls-53" d="M28.06,34.61V35c0,.37-.5.65-.5.65a2.38,2.38,0,0,1-2.26,0c-.39-.22-.5-.45-.5-.65v-.3Z"/><path class="cls-40" d="M25.3,34a2.38,2.38,0,0,1,2.26,0c1.12.65,0,1.3,0,1.3a2.41,2.41,0,0,1-2.26,0C24.17,34.67,25.3,34,25.3,34Z"/><path class="cls-54" d="M28.06,34.22v.36c0,.38-.5.66-.5.66a2.41,2.41,0,0,1-2.26,0c-.39-.23-.5-.46-.5-.66v-.3Z"/><path class="cls-40" d="M25.3,33.63a2.41,2.41,0,0,1,2.26,0c1.12.65,0,1.3,0,1.3a2.41,2.41,0,0,1-2.26,0C24.17,34.28,25.3,33.63,25.3,33.63Z"/><path class="cls-55" d="M21.53,40.47v.36c0,.37-.5.66-.5.66a2.39,2.39,0,0,1-2.25,0c-.4-.23-.5-.46-.5-.66v-.3Z"/><path class="cls-40" d="M18.77,39.88a2.39,2.39,0,0,1,2.25,0c1.13.65,0,1.3,0,1.3a2.39,2.39,0,0,1-2.25,0C17.64,40.53,18.77,39.88,18.77,39.88Z"/><path class="cls-56" d="M21.53,40.08v.36c0,.38-.5.66-.5.66a2.39,2.39,0,0,1-2.25,0c-.4-.23-.5-.45-.5-.65v-.31Z"/><path class="cls-40" d="M18.77,39.49a2.39,2.39,0,0,1,2.25,0c1.13.65,0,1.3,0,1.3a2.39,2.39,0,0,1-2.25,0C17.64,40.14,18.77,39.49,18.77,39.49Z"/><path class="cls-57" d="M21.53,39.69v.36c0,.38-.5.66-.5.66a2.39,2.39,0,0,1-2.25,0c-.4-.23-.5-.45-.5-.65v-.31Z"/><path class="cls-40" d="M18.77,39.1a2.39,2.39,0,0,1,2.25,0c1.13.65,0,1.31,0,1.31a2.39,2.39,0,0,1-2.25,0C17.64,39.75,18.77,39.1,18.77,39.1Z"/><path class="cls-58" d="M21.53,39.31v.35c0,.38-.5.66-.5.66a2.39,2.39,0,0,1-2.25,0c-.4-.22-.5-.45-.5-.65v-.3Z"/><path class="cls-40" d="M18.77,38.71a2.39,2.39,0,0,1,2.25,0c1.13.66,0,1.31,0,1.31a2.39,2.39,0,0,1-2.25,0C17.64,39.37,18.77,38.71,18.77,38.71Z"/><path class="cls-59" d="M25.15,40.73v.36c0,.38-.5.66-.5.66a2.39,2.39,0,0,1-2.25,0c-.4-.23-.51-.45-.51-.65v-.31Z"/><path class="cls-40" d="M22.4,40.14a2.39,2.39,0,0,1,2.25,0c1.13.65,0,1.3,0,1.3a2.36,2.36,0,0,1-2.25,0C21.27,40.79,22.4,40.14,22.4,40.14Z"/><path class="cls-60" d="M25.15,40.35v.35c0,.38-.5.66-.5.66a2.39,2.39,0,0,1-2.25,0c-.4-.23-.51-.45-.51-.65v-.3Z"/><path class="cls-40" d="M22.4,39.75a2.39,2.39,0,0,1,2.25,0c1.13.66,0,1.31,0,1.31a2.39,2.39,0,0,1-2.25,0C21.27,40.41,22.4,39.75,22.4,39.75Z"/><path class="cls-61" d="M25.15,40v.36c0,.37-.5.65-.5.65a2.36,2.36,0,0,1-2.25,0c-.4-.22-.51-.45-.51-.65V40Z"/><path class="cls-40" d="M22.4,39.37a2.36,2.36,0,0,1,2.25,0c1.13.65,0,1.3,0,1.3a2.39,2.39,0,0,1-2.25,0C21.27,40,22.4,39.37,22.4,39.37Z"/><path class="cls-62" d="M25.15,39.57v.36c0,.38-.5.66-.5.66a2.39,2.39,0,0,1-2.25,0c-.4-.23-.51-.46-.51-.66v-.3Z"/><path class="cls-40" d="M22.4,39a2.39,2.39,0,0,1,2.25,0c1.13.65,0,1.3,0,1.3a2.39,2.39,0,0,1-2.25,0C21.27,39.63,22.4,39,22.4,39Z"/><path class="cls-63" d="M25.15,39.18v.36c0,.38-.5.66-.5.66a2.39,2.39,0,0,1-2.25,0c-.4-.23-.51-.45-.51-.65v-.31Z"/><path class="cls-40" d="M22.4,38.59a2.39,2.39,0,0,1,2.25,0c1.13.65,0,1.3,0,1.3a2.36,2.36,0,0,1-2.25,0C21.27,39.24,22.4,38.59,22.4,38.59Z"/><path class="cls-64" d="M25.15,38.79v.36c0,.38-.5.66-.5.66a2.39,2.39,0,0,1-2.25,0c-.4-.23-.51-.45-.51-.65v-.31Z"/><path class="cls-40" d="M22.4,38.2a2.39,2.39,0,0,1,2.25,0c1.13.65,0,1.31,0,1.31a2.39,2.39,0,0,1-2.25,0C21.27,38.85,22.4,38.2,22.4,38.2Z"/><path class="cls-65" d="M25.15,38.41v.36c0,.37-.5.65-.5.65a2.39,2.39,0,0,1-2.25,0c-.4-.22-.51-.45-.51-.65v-.3Z"/><path class="cls-40" d="M22.4,37.82a2.36,2.36,0,0,1,2.25,0c1.13.65,0,1.3,0,1.3a2.39,2.39,0,0,1-2.25,0C21.27,38.47,22.4,37.82,22.4,37.82Z"/><path class="cls-66" d="M25.15,38v.36c0,.37-.5.66-.5.66a2.39,2.39,0,0,1-2.25,0c-.4-.23-.51-.46-.51-.66v-.3Z"/><path class="cls-40" d="M22.4,37.43a2.39,2.39,0,0,1,2.25,0c1.13.65,0,1.3,0,1.3a2.39,2.39,0,0,1-2.25,0C21.27,38.08,22.4,37.43,22.4,37.43Z"/><path class="cls-67" d="M25.15,37.63V38c0,.38-.5.66-.5.66a2.39,2.39,0,0,1-2.25,0c-.4-.23-.51-.45-.51-.65v-.31Z"/><path class="cls-40" d="M22.4,37a2.39,2.39,0,0,1,2.25,0c1.13.65,0,1.3,0,1.3a2.39,2.39,0,0,1-2.25,0C21.27,37.69,22.4,37,22.4,37Z"/><path class="cls-68" d="M25.15,37.24v.36c0,.38-.5.66-.5.66a2.39,2.39,0,0,1-2.25,0c-.4-.23-.51-.45-.51-.65V37.3Z"/><path class="cls-40" d="M22.4,36.65a2.39,2.39,0,0,1,2.25,0c1.13.65,0,1.31,0,1.31a2.39,2.39,0,0,1-2.25,0C21.27,37.3,22.4,36.65,22.4,36.65Z"/><path class="cls-69" d="M28.41,41v.36c0,.37-.5.65-.5.65a2.36,2.36,0,0,1-2.25,0c-.4-.22-.5-.45-.5-.65v-.3Z"/><path class="cls-40" d="M25.66,40.43a2.36,2.36,0,0,1,2.25,0c1.13.65,0,1.3,0,1.3a2.39,2.39,0,0,1-2.25,0C24.53,41.08,25.66,40.43,25.66,40.43Z"/><path class="cls-70" d="M28.41,40.63V41c0,.38-.5.66-.5.66a2.39,2.39,0,0,1-2.25,0c-.4-.23-.5-.46-.5-.66v-.3Z"/><path class="cls-40" d="M25.66,40a2.39,2.39,0,0,1,2.25,0c1.13.65,0,1.3,0,1.3a2.39,2.39,0,0,1-2.25,0C24.53,40.69,25.66,40,25.66,40Z"/><path class="cls-71" d="M28.41,40.24v.36c0,.38-.5.66-.5.66a2.39,2.39,0,0,1-2.25,0c-.4-.23-.5-.45-.5-.65V40.3Z"/><path class="cls-40" d="M25.66,39.65a2.39,2.39,0,0,1,2.25,0c1.13.65,0,1.3,0,1.3a2.36,2.36,0,0,1-2.25,0C24.53,40.3,25.66,39.65,25.66,39.65Z"/><path class="cls-72" d="M28.41,39.86v.35c0,.38-.5.66-.5.66a2.39,2.39,0,0,1-2.25,0c-.4-.23-.5-.45-.5-.65v-.3Z"/><path class="cls-40" d="M25.66,39.26a2.39,2.39,0,0,1,2.25,0c1.13.66,0,1.31,0,1.31a2.39,2.39,0,0,1-2.25,0C24.53,39.92,25.66,39.26,25.66,39.26Z"/><path class="cls-73" d="M28.41,39.47v.36c0,.37-.5.65-.5.65a2.36,2.36,0,0,1-2.25,0c-.4-.22-.5-.45-.5-.65v-.3Z"/><path class="cls-40" d="M25.66,38.88a2.36,2.36,0,0,1,2.25,0c1.13.65,0,1.3,0,1.3a2.39,2.39,0,0,1-2.25,0C24.53,39.53,25.66,38.88,25.66,38.88Z"/><path class="cls-74" d="M28.41,39.08v.36c0,.38-.5.66-.5.66a2.39,2.39,0,0,1-2.25,0c-.4-.23-.5-.46-.5-.66v-.3Z"/><path class="cls-40" d="M25.66,38.49a2.39,2.39,0,0,1,2.25,0c1.13.65,0,1.3,0,1.3a2.39,2.39,0,0,1-2.25,0C24.53,39.14,25.66,38.49,25.66,38.49Z"/><path class="cls-75" d="M26.15,42.78v.35c0,.38-.5.66-.5.66a2.41,2.41,0,0,1-2.26,0c-.39-.22-.5-.45-.5-.65v-.3Z"/><path class="cls-40" d="M23.39,42.18a2.41,2.41,0,0,1,2.26,0c1.12.66,0,1.31,0,1.31a2.41,2.41,0,0,1-2.26,0C22.26,42.84,23.39,42.18,23.39,42.18Z"/><path class="cls-76" d="M26.15,42.39v.36c0,.37-.5.65-.5.65a2.38,2.38,0,0,1-2.26,0c-.39-.22-.5-.45-.5-.65v-.3Z"/><path class="cls-40" d="M23.39,41.8a2.41,2.41,0,0,1,2.26,0c1.12.65,0,1.3,0,1.3a2.41,2.41,0,0,1-2.26,0C22.26,42.45,23.39,41.8,23.39,41.8Z"/><path class="cls-77" d="M26.15,42v.36c0,.38-.5.66-.5.66a2.41,2.41,0,0,1-2.26,0c-.39-.23-.5-.46-.5-.65v-.31Z"/><path class="cls-40" d="M23.39,41.41a2.41,2.41,0,0,1,2.26,0c1.12.65,0,1.3,0,1.3a2.41,2.41,0,0,1-2.26,0C22.26,42.06,23.39,41.41,23.39,41.41Z"/><path class="cls-78" d="M22.35,42.83v.36c0,.37-.5.66-.5.66a2.41,2.41,0,0,1-2.26,0c-.39-.23-.5-.46-.5-.66v-.3Z"/><path class="cls-40" d="M19.59,42.24a2.41,2.41,0,0,1,2.26,0c1.13.65,0,1.3,0,1.3a2.41,2.41,0,0,1-2.26,0C18.46,42.89,19.59,42.24,19.59,42.24Z"/><path class="cls-79" d="M22.35,42.44v.36c0,.38-.5.66-.5.66a2.41,2.41,0,0,1-2.26,0c-.39-.23-.5-.45-.5-.65V42.5Z"/><path class="cls-40" d="M19.59,41.85a2.41,2.41,0,0,1,2.26,0c1.13.65,0,1.3,0,1.3a2.41,2.41,0,0,1-2.26,0C18.46,42.5,19.59,41.85,19.59,41.85Z"/><path class="cls-80" d="M18,42.29v.36c0,.38-.5.66-.5.66a2.41,2.41,0,0,1-2.26,0c-.39-.23-.5-.46-.5-.66v-.3Z"/><path class="cls-40" d="M15.19,41.7a2.41,2.41,0,0,1,2.26,0c1.12.65,0,1.3,0,1.3a2.41,2.41,0,0,1-2.26,0C14.06,42.35,15.19,41.7,15.19,41.7Z"/></g></g></g></g></svg>