<svg xmlns="http://www.w3.org/2000/svg" viewBox="0 0 499.81 499.8"><defs><style>.cls-1{fill:#037cf9;}</style></defs><g id="Layer_2" data-name="Layer 2"><g id="Layer_1-2" data-name="Layer 1"><path class="cls-1" d="M0,81C2.19,76.66,5.58,74.93,10.58,75c29.08.17,58.15.08,87.23.09.81,0,1.62,0,2.43,0,4.68.37,8,3.74,8.06,8.13a8.47,8.47,0,0,1-7.38,8.35,30.45,30.45,0,0,1-4.38.11c-28.27,0-56.53-.1-84.79.1C6.53,91.82,2.62,90.47,0,85.9Z"/><path class="cls-1" d="M499.81,418.78c-2.19,4.34-5.56,6.09-10.57,6.06-29.07-.17-58.15-.08-87.23-.08a21.52,21.52,0,0,1-3.41-.12,7.83,7.83,0,0,1-7-7.08c-.56-4,1.32-6.86,4.93-8.63,2-1,4.11-.81,6.21-.81,28.59,0,57.18.09,85.77-.09,5.07,0,8.74,1.55,11.26,5.87Z"/><path class="cls-1" d="M493.8,69.85c-2.79-2.74-6-5-8.74-7.74-19.35-19.19-39-38-58.75-56.85C423.51,2.6,420.63.61,416.84,0H410c-7.7,3.52-10.95,9.5-10.14,17.91.3,3.23-.31,6.55.13,9.75.67,4.91-1.32,5.72-5.86,5.71q-166.65-.19-333.29-.1c-6.85,0-10.92,3.2-10.88,8.44s3.91,8.19,10.5,8.19H406c7.78,0,10.56-2.77,10.62-10.56.05-5.9,0-11.81,0-18.3,1.11.78,1.52,1,1.84,1.3Q449,51.79,479.61,81.19c2.24,2.13,1.6,3.1-.25,4.86q-29.87,28.42-59.64,57c-.8.76-1.31,2.32-3.14,1.81,0-5.37,0-10.73,0-16.09,0-9.69-2.43-12.13-12.11-12.14q-40.75,0-81.49,0a20.41,20.41,0,0,1-8.88-2q-64.23-29.55-128.48.08a19.43,19.43,0,0,1-8.4,1.9q-57.34-.09-114.68,0a35.27,35.27,0,0,0-5.82.35c-4.29.77-6.4,3.71-6.71,7.83A8,8,0,0,0,56.83,133a29.75,29.75,0,0,0,5.34.3q43.68,0,87.35,0h6.07c-36.43,31.34-55.53,69.9-55.48,116.76s19.23,85.31,55.41,116.42c-18.45,0-35.81,0-53.18,0-2.44,0-2.46-1.45-2.44-3.21,0-4.72-.1-9.44,0-14.15.19-6.6-2-11.82-8.25-14.7-5.75-2.65-11.16-1.27-16.74,4.11Q42.12,370.24,9.29,401.93c-3.48,3.35-7,6.63-9.29,11v7.81a17.44,17.44,0,0,0,5.3,8.47q8.52,8,16.91,16.12c16.91,16.37,34,32.57,50.95,48.87,2.89,2.77,5.8,5,9.82,5.61h6.83c8-3.6,11-9.89,10.14-18.4-.29-3.06.3-6.22-.12-9.25-.69-4.91,1.31-5.72,5.85-5.72q165.69.21,331.39.1a38.31,38.31,0,0,0,5.36-.12,8.53,8.53,0,0,0,7.42-8.36c-.06-4.35-3.48-7.77-8.12-8.11-1.14-.08-2.28,0-3.42,0H94.73c-9,0-11.48,2.5-11.5,11.66,0,5.55,0,11.1,0,17.66C62,458.88,41.71,439.39,21.29,420.07c-2.72-2.57-3-3.88-.11-6.62,19.92-18.94,39.65-38.09,59.45-57.16.63-.6,1-1.7,2.6-1.4,0,5.45,0,10.93,0,16.41,0,9.38,2.5,11.9,11.84,11.91q40.74,0,81.5,0a21.54,21.54,0,0,1,9.34,2.05q64,29.36,128.08,0a21.51,21.51,0,0,1,9.33-2.06q56.87.07,113.72,0c1.46,0,2.93.06,4.39-.07,5.08-.44,8.47-3.86,8.41-8.37s-3.42-7.8-8.57-8.22c-1.46-.12-2.93-.06-4.39-.06q-43.2,0-86.39,0c-1.68,0-3.35-.13-5.91-.25,36-31.1,55.07-69.52,55.11-116.18s-19.05-85.36-54.44-115.91c.57-.41.8-.72,1-.72,16.91,0,33.83,0,50.75-.15,2.54,0,2.93,1.16,2.9,3.29-.09,5.36,0,10.73,0,16.1a13.45,13.45,0,0,0,3.83,9.71c5.87,6.08,14,5.66,21.12-1.17q33.17-31.71,66.3-63.42c3.42-3.25,6.59-6.61,8.63-10.9V81C499.53,76.37,497,73,493.8,69.85ZM383.17,249.61c.57,73.17-59.27,133.23-133.08,133.59-73.29.36-133.31-59.54-133.46-133.2-.15-73.48,59.75-133.42,133.28-133.37C323.28,116.68,382.61,175.88,383.17,249.61Z"/><path class="cls-1" d="M295.88,231.15c7.18-14.42,13.92-27.91,20.63-41.41,1.49-3,3.24-5.68,6.9-6.25a7.93,7.93,0,0,1,8.17,3.21c2.22,3.09,1.93,6.39.29,9.67-7.35,14.64-14.25,29.53-22.22,43.82-3.93,7.06-3.83,12.55,0,19.56,7.68,13.89,14.36,28.35,21.43,42.59,3.16,6.38,2.18,11-2.74,13.36s-9,.29-12.23-6.16c-6.68-13.32-13.33-26.64-20.06-40.09-1.63.55-1.77,1.94-2.28,3q-9.49,18.91-18.92,37.88c-1.42,2.86-3.13,5.39-6.53,6s-6.19-.19-8.28-2.92c-2.47-3.21-2.12-6.6-.39-10.06,8.21-16.39,16.29-32.83,24.64-49.14a8.17,8.17,0,0,0,0-8.49C276,229.36,268,212.9,259.79,196.5c-1.63-3.28-2-6.56.15-9.69a7.93,7.93,0,0,1,8.12-3.33c3.65.51,5.49,3.14,7,6.14q9.33,18.72,18.68,37.43C294.29,228.16,294.89,229.26,295.88,231.15Z"/><path class="cls-1" d="M166.69,249.68q0-27.81,0-55.62c0-8.16,2.58-10.7,10.82-10.71q26.83,0,53.67,0c6.63,0,10.32,3.05,10.28,8.32s-3.77,8.3-10.4,8.32c-14.15,0-28.3.24-42.44-.13-4.7-.12-5.49,1.45-5.38,5.65.29,10.24.39,20.5,0,30.73-.19,4.71,1.46,5.47,5.66,5.39,14.14-.24,28.3-.08,42.44-.1,4.6,0,8.47,1.22,9.83,6.17,1.6,5.86-2.37,10.47-9.27,10.53-13.66.11-27.32,0-41,0-7.55,0-7.55,0-7.55,7.67,0,13.66.06,27.32,0,41,0,6.29-3.74,9.93-9.18,9.47-4.75-.39-7.42-3.72-7.43-9.62C166.66,287.73,166.69,268.71,166.69,249.68Z"/></g></g></svg>