<svg xmlns="http://www.w3.org/2000/svg" xmlns:xlink="http://www.w3.org/1999/xlink" viewBox="0 0 252.91 286.76"><defs><style>.cls-1{fill:none;}.cls-2{isolation:isolate;}.cls-3{clip-path:url(#clip-path);}.cls-4{fill:#4a7723;}.cls-5{clip-path:url(#clip-path-2);}.cls-6{fill:#56872a;}.cls-7{fill:#598a2b;}.cls-8{fill:#5b8d2c;}.cls-9{fill:#538428;}.cls-10{fill:#518127;}.cls-11{fill:#4f7e26;}.cls-12{fill:#4c7a24;}.cls-13{clip-path:url(#clip-path-3);}.cls-14{clip-path:url(#clip-path-4);}.cls-15{clip-path:url(#clip-path-5);}.cls-16{clip-path:url(#clip-path-6);}.cls-17{clip-path:url(#clip-path-7);}.cls-18{clip-path:url(#clip-path-8);}.cls-19{clip-path:url(#clip-path-9);}.cls-20{fill:#75af39;}.cls-21{clip-path:url(#clip-path-10);}.cls-22{clip-path:url(#clip-path-11);}.cls-23{clip-path:url(#clip-path-12);}.cls-24{clip-path:url(#clip-path-13);}.cls-25{clip-path:url(#clip-path-14);}.cls-26{clip-path:url(#clip-path-15);}.cls-27{clip-path:url(#clip-path-16);}.cls-28{clip-path:url(#clip-path-17);}.cls-29{clip-path:url(#clip-path-18);}.cls-30{clip-path:url(#clip-path-19);}.cls-31{clip-path:url(#clip-path-20);}.cls-32{clip-path:url(#clip-path-21);}.cls-33{clip-path:url(#clip-path-22);}.cls-34{clip-path:url(#clip-path-23);}.cls-35{clip-path:url(#clip-path-24);}.cls-36{clip-path:url(#clip-path-25);}</style><clipPath id="clip-path" transform="translate(0)"><path class="cls-1" d="M30.76,285.77l-6.84-3.71a4.94,4.94,0,0,1-2.7-5.14c.88-6.33-1.54-8.87-5.25-10.89l6.84,3.72c3.71,2,6.12,4.56,5.25,10.89A4.89,4.89,0,0,0,30.76,285.77Z"/></clipPath><clipPath id="clip-path-2" transform="translate(0)"><path class="cls-1" d="M27.69,254.74,20.85,251a11.55,11.55,0,0,0,7.2,1.24q.35,0,.69-.12c7.53-1.46,13.53-8.94,13.59-16.94,0-5.32-2.42-9.53-6.33-11.66l6.84,3.72c3.91,2.13,6.37,6.34,6.32,11.66,0,8-6,15.48-13.58,16.94l-.7.12A11.53,11.53,0,0,1,27.69,254.74Z"/></clipPath><clipPath id="clip-path-3" transform="translate(0)"><path class="cls-1" d="M18.56,267.65l-6.84-3.72C4.39,260,.77,252.54.2,245.17L7,248.89C7.61,256.25,11.23,263.67,18.56,267.65Z"/></clipPath><clipPath id="clip-path-4" transform="translate(0)"><path class="cls-1" d="M27.45,208.81l-6.84-3.72a12.61,12.61,0,0,0,6.82,1.44c6.67-.36,12.25.69,16.69,3.11L51,213.36c-4.44-2.42-10-3.47-16.69-3.11A12.61,12.61,0,0,1,27.45,208.81Z"/></clipPath><clipPath id="clip-path-5" transform="translate(0)"><path class="cls-1" d="M52.52,199.29l-6.84-3.72c-1.83-1-3-3.2-3.27-6.53-.52-5.5-3.16-9.54-6.81-11.52l6.84,3.72c3.64,2,6.29,6,6.81,11.52C49.57,196.09,50.69,198.29,52.52,199.29Z"/></clipPath><clipPath id="clip-path-6" transform="translate(0)"><path class="cls-1" d="M47.54,166.37l-6.84-3.72c.81.44,1.7.85,2.65,1.27.58.26,1.15.53,1.7.83l6.83,3.72c-.54-.3-1.11-.57-1.69-.83C49.23,167.22,48.35,166.81,47.54,166.37Z"/></clipPath><clipPath id="clip-path-7" transform="translate(0)"><path class="cls-1" d="M10.75,232.94l6.84,3.72A5.66,5.66,0,0,0,14,236.1c-.19,0-.4.06-.6.11-4.3.94-6.66,4.74-6.39,12.68L.2,245.17c-.26-7.94,2.09-11.74,6.39-12.68.21-.05.41-.08.61-.11A5.64,5.64,0,0,1,10.75,232.94Z"/></clipPath><clipPath id="clip-path-8" transform="translate(0)"><path class="cls-1" d="M32.51,146.39l6.84,3.72a6.73,6.73,0,0,0-4.17-.72l-6.84-3.72A6.73,6.73,0,0,1,32.51,146.39Z"/></clipPath><clipPath id="clip-path-9" transform="translate(0)"><path class="cls-1" d="M19.68,222.8l-6.84-3.72c-6.51-3.54-11-9.91-12.4-18.2-2.36-14.43,4.83-28.75,18.68-36.8,1.62-.94,2.1-1.75,2-3.42a56.72,56.72,0,0,1,.05-6.25c.36-4.55,3.37-8.16,7.13-8.74l6.84,3.72c-3.76.58-6.77,4.19-7.14,8.74a56.69,56.69,0,0,0,0,6.25c.06,1.67-.42,2.48-2,3.42-13.85,8-21,22.37-18.68,36.8C8.63,212.89,13.17,219.26,19.68,222.8Z"/></clipPath><clipPath id="clip-path-10" transform="translate(0)"><path class="cls-1" d="M226.31,238.59l-6.84-3.72c1.47.81,4.16.44,9-.23l.93-.13a21.94,21.94,0,0,1,2.78-.26,7.3,7.3,0,0,1,3.59.78l6.83,3.72A7.23,7.23,0,0,0,239,238a21.77,21.77,0,0,0-2.78.26l-.93.13C230.47,239,227.78,239.4,226.31,238.59Z"/></clipPath><clipPath id="clip-path-11" transform="translate(0)"><path class="cls-1" d="M213.53,286l-6.84-3.72c-2-1.09-3.27-3.4-3.35-6.6-.18-6.35-.13-12.75,0-19.16,0-1.38-.18-2.17-.79-2.5l6.83,3.72c.62.33.83,1.12.79,2.5-.15,6.41-.2,12.81,0,19.16C210.26,282.64,211.52,285,213.53,286Z"/></clipPath><clipPath id="clip-path-12" transform="translate(0)"><path class="cls-1" d="M225.34,209l-6.84-3.72a1.39,1.39,0,0,0,.86.11l.5-.1a3.45,3.45,0,0,1,.54-.11l2.19-.29,2.2-.32,2.43-.36c1.16-.16,2.33-.31,3.5-.44a8.67,8.67,0,0,1,5.09.76l6.84,3.72a8.67,8.67,0,0,0-5.09-.76c-1.17.13-2.34.28-3.5.44l-2.43.36-2.2.32-2.19.29a3.45,3.45,0,0,0-.54.11l-.5.1A1.39,1.39,0,0,1,225.34,209Z"/></clipPath><clipPath id="clip-path-13" transform="translate(0)"><path class="cls-1" d="M192.31,258.45l-6.83-3.72c-1.94-1-3-3.08-3.06-5.83,0-4.68,2.76-8,7.76-8.86,1.72-.31,3.44-.58,5.16-.83s3.44-.44,5.16-.62l.35,0c1.81-.25,2.48-1,2.56-3.31.28-6.77.42-9.74-1.47-10.77l6.84,3.72c1.89,1,1.75,4,1.47,10.77-.08,2.28-.75,3.06-2.56,3.31l-.35,0c-1.72.17-3.44.38-5.16.62s-3.44.52-5.16.83c-5,.91-7.79,4.18-7.77,8.86C189.27,255.37,190.38,257.4,192.31,258.45Z"/></clipPath><clipPath id="clip-path-14" transform="translate(0)"><path class="cls-1" d="M216.52,183.4l-6.83-3.72a1.59,1.59,0,0,0,1,.23c.66-.09,1.34-.66,2.23-1.78,6.5-8.2,13.18-16.22,19.84-24.28,2.08-2.52,4.3-3.95,6.38-4.25a5.33,5.33,0,0,1,3.35.6l6.84,3.72a5.33,5.33,0,0,0-3.35-.6c-2.08.3-4.3,1.73-6.38,4.25-6.66,8.06-13.34,16.08-19.85,24.28-.88,1.12-1.56,1.69-2.22,1.78A1.62,1.62,0,0,1,216.52,183.4Z"/></clipPath><clipPath id="clip-path-15" transform="translate(0)"><path class="cls-1" d="M192.08,227.8l-6.84-3.72a5.49,5.49,0,0,1-2.74-4.61c-.53-4.92,2.46-8.95,7.61-9.94,1.7-.33,3.39-.6,5.09-.84,1.88-.27,3.77-.48,5.65-.68l6.83,3.72c-1.87.2-3.76.41-5.64.68-1.7.24-3.4.51-5.09.84-5.15,1-8.15,5-7.61,9.94A5.49,5.49,0,0,0,192.08,227.8Z"/></clipPath><clipPath id="clip-path-16" transform="translate(0)"><path class="cls-1" d="M186.51,158.44l6.84,3.72a6.75,6.75,0,0,0-4.19-.85l-6.84-3.72A6.75,6.75,0,0,1,186.51,158.44Z"/></clipPath><clipPath id="clip-path-17" transform="translate(0)"><path class="cls-1" d="M207.68,211.73,200.85,208c2-.27,2.47-1,2.64-3.08.48-6.14-.71-10.79-5.3-14.48-6.93-5.55-13.15-12.07-19.63-18.23-3.77-3.57-4.12-7.7-1.07-11.57a7.66,7.66,0,0,1,4.83-3.06l6.84,3.72a7.63,7.63,0,0,0-4.83,3.06c-3.06,3.87-2.7,8,1.07,11.57,6.48,6.16,12.7,12.68,19.63,18.23,4.59,3.69,5.78,8.34,5.29,14.48C210.16,210.7,209.67,211.46,207.68,211.73Z"/></clipPath><clipPath id="clip-path-18" transform="translate(0)"><path class="cls-1" d="M125.58,108.47l-6.83-3.72a18.84,18.84,0,0,0,4.69,1.77,19.25,19.25,0,0,0,7.25.39c5-.7,9.64-3.45,13.83-8a24.74,24.74,0,0,0,6.67-15.27,16.7,16.7,0,0,1,1.18-6.21c1.43-2.94,3.54-4.51,6.08-4.87a9.3,9.3,0,0,1,2,0,5,5,0,0,1,2,.6l6.84,3.72a5.08,5.08,0,0,0-2-.6,9.3,9.3,0,0,0-2,0c-2.54.36-4.66,1.93-6.08,4.87A16.7,16.7,0,0,0,158,87.35a24.85,24.85,0,0,1-6.67,15.27c-4.19,4.56-8.83,7.31-13.83,8a19.25,19.25,0,0,1-7.25-.39A18.92,18.92,0,0,1,125.58,108.47Z"/></clipPath><clipPath id="clip-path-19" transform="translate(0)"><path class="cls-1" d="M161.69,45.37l-6.84-3.72c-1.88-1-3.13-3.2-3.33-6.4-.4-6.66-2.54-12-7.21-15.82a16.17,16.17,0,0,0-2.65-1.78l6.84,3.71a17.37,17.37,0,0,1,2.65,1.79C155.82,27,158,32.31,158.36,39,158.56,42.17,159.81,44.35,161.69,45.37Z"/></clipPath><clipPath id="clip-path-20" transform="translate(0)"><path class="cls-1" d="M117.84,74.16,111,70.44c1.45.79,4.07.42,8.79-.24,1.92-.27,3.79-.56,5.67-.83,1.29-.18,2.58-.35,3.87-.49a8.53,8.53,0,0,1,5.07.83l6.84,3.72a8.55,8.55,0,0,0-5.08-.83c-1.28.14-2.57.31-3.86.49-1.88.27-3.75.56-5.68.83C121.91,74.58,119.28,75,117.84,74.16Z"/></clipPath><clipPath id="clip-path-21" transform="translate(0)"><path class="cls-1" d="M118.31,122.78l-6.84-3.72c-8.21-4.47-14.21-12.94-15.8-24.24-.36-2.53-.91-4.08-2.15-4.76l6.84,3.72c1.24.68,1.79,2.23,2.15,4.76C104.1,109.84,110.1,118.31,118.31,122.78Z"/></clipPath><clipPath id="clip-path-22" transform="translate(0)"><path class="cls-1" d="M117.3,44.51l-6.84-3.72a3.47,3.47,0,0,0,2.1.2,9.14,9.14,0,0,0,1-.2c2.13-.51,4.27-.88,6.42-1.18,3.08-.44,6.18-.73,9.26-1.12a8.65,8.65,0,0,1,5.26.78L141.33,43a8.65,8.65,0,0,0-5.26-.78c-3.08.39-6.18.68-9.26,1.12-2.15.3-4.29.67-6.42,1.18a8.83,8.83,0,0,1-1,.2A3.45,3.45,0,0,1,117.3,44.51Z"/></clipPath><clipPath id="clip-path-23" transform="translate(0)"><path class="cls-1" d="M149.37,3.63l6.83,3.72A30.06,30.06,0,0,0,137.51,4L130.68.31A30.07,30.07,0,0,1,149.37,3.63Z"/></clipPath><clipPath id="clip-path-24" transform="translate(0)"><path class="cls-1" d="M90.92,93.19l-6.84-3.72a6.48,6.48,0,0,1-3.16-5.78c-.13-4.63,3.31-8.33,8.58-9.23C95,73.53,95,73.53,95,67.53V65.74c0-3.67,0-5.26-1.1-5.87l6.84,3.72c1.11.61,1.11,2.2,1.1,5.87v1.79c0,6,0,6-5.5,6.93-5.27.9-8.72,4.6-8.58,9.23A6.46,6.46,0,0,0,90.92,93.19Z"/></clipPath><clipPath id="clip-path-25" transform="translate(0)"><path class="cls-1" d="M90.94,62.55,84.1,58.83A6.14,6.14,0,0,1,81,53.08c0-4.53,3.34-8.15,8.32-9,.49-.08,1-.18,1.47-.24a6.76,6.76,0,0,1,1-.09,6.86,6.86,0,0,0,.94-.06c1.57-.22,2.28-1.08,2.59-3.58C97.63,21.9,107.38,8.7,122.67,2.48a33.53,33.53,0,0,1,8-2.17L137.51,4a33.45,33.45,0,0,0-8,2.17c-15.3,6.22-25,19.42-27.37,37.63-.31,2.5-1,3.36-2.6,3.58a6.61,6.61,0,0,1-.93.06,6.76,6.76,0,0,0-1,.09c-.49.06-1,.16-1.47.24-5,.85-8.34,4.47-8.32,9A6.15,6.15,0,0,0,90.94,62.55Z"/></clipPath></defs><g id="Layer_2" data-name="Layer 2"><g id="Layer_1-2" data-name="Layer 1"><g class="cls-2"><g class="cls-2"><g class="cls-3"><g class="cls-2"><path class="cls-4" d="M30.76,285.77l-6.84-3.71a4.94,4.94,0,0,1-2.7-5.14c.88-6.33-1.54-8.87-5.25-10.89l6.84,3.72c3.71,2,6.12,4.56,5.25,10.89a4.89,4.89,0,0,0,2.7,5.13" transform="translate(0)"/></g></g></g><g class="cls-2"><g class="cls-5"><g class="cls-2"><path class="cls-6" d="M27.69,254.74,20.85,251l.42.21L28.1,255l-.41-.21" transform="translate(0)"/><path class="cls-7" d="M28.1,255l-6.83-3.72a10.46,10.46,0,0,0,2.13.79l6.84,3.72A11.43,11.43,0,0,1,28.1,255" transform="translate(0)"/><path class="cls-8" d="M30.24,255.74,23.4,252a11.8,11.8,0,0,0,4.65.24q.35,0,.69-.12A14.29,14.29,0,0,0,32.23,251l6.84,3.72a14.29,14.29,0,0,1-3.49,1.15l-.7.12a11.75,11.75,0,0,1-4.64-.24" transform="translate(0)"/><path class="cls-7" d="M39.07,254.71,32.23,251a16.34,16.34,0,0,0,2.33-1.34l6.84,3.72a16.34,16.34,0,0,1-2.33,1.34" transform="translate(0)"/><path class="cls-6" d="M41.4,253.37l-6.84-3.72a17.67,17.67,0,0,0,1.75-1.38L43.15,252a17.67,17.67,0,0,1-1.75,1.38" transform="translate(0)"/><path class="cls-9" d="M43.15,252l-6.84-3.72a20.39,20.39,0,0,0,1.46-1.48l6.84,3.72A20.39,20.39,0,0,1,43.15,252" transform="translate(0)"/><path class="cls-10" d="M44.61,250.51l-6.84-3.72a16.68,16.68,0,0,0,1.28-1.63l6.84,3.72a18.35,18.35,0,0,1-1.28,1.63" transform="translate(0)"/><path class="cls-11" d="M45.89,248.88l-6.84-3.72a18.82,18.82,0,0,0,1.16-1.87L47.05,247a18.82,18.82,0,0,1-1.16,1.87" transform="translate(0)"/><path class="cls-12" d="M47.05,247l-6.84-3.72a19.15,19.15,0,0,0,1.06-2.35l6.83,3.72A17.7,17.7,0,0,1,47.05,247" transform="translate(0)"/><path class="cls-4" d="M48.1,244.66l-6.83-3.72a17.21,17.21,0,0,0,1.06-5.74c0-5.32-2.42-9.53-6.33-11.66l6.84,3.72c3.91,2.13,6.37,6.34,6.32,11.66a16.73,16.73,0,0,1-1.06,5.74" transform="translate(0)"/></g></g></g><g class="cls-2"><g class="cls-13"><g class="cls-2"><path class="cls-4" d="M18.56,267.65l-6.84-3.72C4.39,260,.77,252.54.2,245.17L7,248.89c.57,7.36,4.19,14.78,11.52,18.76" transform="translate(0)"/></g></g></g><g class="cls-2"><g class="cls-14"><g class="cls-2"><path class="cls-6" d="M27.45,208.81l-6.84-3.72.41.22L27.86,209c-.14-.07-.28-.14-.41-.22" transform="translate(0)"/><path class="cls-7" d="M27.86,209,21,205.31a11.6,11.6,0,0,0,2.27.83l6.84,3.72a11.37,11.37,0,0,1-2.27-.83" transform="translate(0)"/><path class="cls-8" d="M30.13,209.86l-6.84-3.72a13.32,13.32,0,0,0,4.14.39,36.92,36.92,0,0,1,11.12.94l6.84,3.72a36.92,36.92,0,0,0-11.12-.94,13.29,13.29,0,0,1-4.14-.39" transform="translate(0)"/><path class="cls-7" d="M45.39,211.19l-6.84-3.72a24.45,24.45,0,0,1,4.76,1.75l6.84,3.72a24.45,24.45,0,0,0-4.76-1.75" transform="translate(0)"/><path class="cls-6" d="M50.15,212.94l-6.84-3.72c.27.13.55.27.81.42L51,213.36q-.41-.23-.81-.42" transform="translate(0)"/></g></g></g><g class="cls-2"><g class="cls-15"><g class="cls-2"><path class="cls-4" d="M52.52,199.29l-6.84-3.72c-1.83-1-3-3.2-3.27-6.53-.52-5.5-3.16-9.54-6.81-11.52l6.84,3.72c3.64,2,6.29,6,6.81,11.52.32,3.33,1.44,5.53,3.27,6.53" transform="translate(0)"/></g></g></g><g class="cls-2"><g class="cls-16"><g class="cls-2"><path class="cls-6" d="M47.54,166.37l-6.84-3.72.94.48,6.84,3.72-.94-.48" transform="translate(0)"/><path class="cls-7" d="M48.48,166.85l-6.84-3.72c.54.27,1.11.53,1.71.79l.91.42,6.83,3.72-.9-.42c-.6-.26-1.17-.52-1.71-.79" transform="translate(0)"/><path class="cls-6" d="M51.09,168.06l-6.83-3.72.79.41,6.83,3.72c-.25-.14-.52-.28-.79-.41" transform="translate(0)"/></g></g></g><g class="cls-2"><g class="cls-17"><g class="cls-2"><path class="cls-4" d="M7,248.89.2,245.17a20.73,20.73,0,0,1,.93-7.72L8,241.17A20.73,20.73,0,0,0,7,248.89" transform="translate(0)"/><path class="cls-12" d="M8,241.17l-6.84-3.72a9.51,9.51,0,0,1,.58-1.29l6.83,3.72A10.9,10.9,0,0,0,8,241.17" transform="translate(0)"/><path class="cls-11" d="M8.54,239.88l-6.83-3.72a7.46,7.46,0,0,1,.5-.82l6.84,3.72a9.47,9.47,0,0,0-.51.82" transform="translate(0)"/><path class="cls-10" d="M9.05,239.06l-6.84-3.72a6.65,6.65,0,0,1,.51-.65l6.84,3.72a6.65,6.65,0,0,0-.51.65" transform="translate(0)"/><path class="cls-9" d="M9.56,238.41l-6.84-3.72a5.71,5.71,0,0,1,.55-.55l6.84,3.72a4.76,4.76,0,0,0-.55.55" transform="translate(0)"/><path class="cls-6" d="M10.11,237.86l-6.84-3.72a5.56,5.56,0,0,1,.67-.53l6.84,3.72a4.88,4.88,0,0,0-.67.53" transform="translate(0)"/><path class="cls-7" d="M10.78,237.33l-6.84-3.72a5.92,5.92,0,0,1,1-.56l6.83,3.72a6.26,6.26,0,0,0-1,.56" transform="translate(0)"/><path class="cls-8" d="M11.75,236.77l-6.83-3.72a7.45,7.45,0,0,1,1.67-.56c.21-.05.41-.08.61-.11a6.3,6.3,0,0,1,2.39.1l6.84,3.72a6.34,6.34,0,0,0-2.4-.1c-.19,0-.4.06-.6.11a7.54,7.54,0,0,0-1.68.56" transform="translate(0)"/><path class="cls-7" d="M16.43,236.2l-6.84-3.72a5.46,5.46,0,0,1,1,.36l6.84,3.72a5.46,5.46,0,0,0-1-.36" transform="translate(0)"/><path class="cls-6" d="M17.41,236.56l-6.84-3.72.18.1,6.84,3.72-.18-.1" transform="translate(0)"/></g></g></g><g class="cls-2"><g class="cls-18"><g class="cls-2"><path class="cls-8" d="M35.18,149.39l-6.84-3.72a6.89,6.89,0,0,1,2.72.15l6.84,3.72a6.89,6.89,0,0,0-2.72-.15" transform="translate(0)"/><path class="cls-7" d="M37.9,149.54l-6.84-3.72a6.61,6.61,0,0,1,1.22.45L39.12,150a6.61,6.61,0,0,0-1.22-.45" transform="translate(0)"/><path class="cls-6" d="M39.12,150l-6.84-3.72a1.27,1.27,0,0,1,.23.12l6.84,3.72-.23-.12" transform="translate(0)"/></g></g></g><g class="cls-2"><g class="cls-19"><g class="cls-2"><path class="cls-4" d="M19.68,222.8l-6.84-3.72c-6.51-3.54-11-9.91-12.4-18.2a33.65,33.65,0,0,1,1.64-17.06l6.84,3.72A33.53,33.53,0,0,0,7.28,204.6c1.35,8.29,5.89,14.66,12.4,18.2" transform="translate(0)"/><path class="cls-12" d="M8.92,187.54l-6.84-3.72a33.66,33.66,0,0,1,2-4.51L11,183a33.66,33.66,0,0,0-2,4.51" transform="translate(0)"/><path class="cls-11" d="M11,183l-6.84-3.72a36.82,36.82,0,0,1,2.26-3.66l6.83,3.72A35.6,35.6,0,0,0,11,183" transform="translate(0)"/><path class="cls-10" d="M13.2,179.37l-6.83-3.72A40.62,40.62,0,0,1,9,172.34l6.84,3.72a38.67,38.67,0,0,0-2.61,3.31" transform="translate(0)"/><path class="cls-9" d="M15.81,176.06,9,172.34a41.45,41.45,0,0,1,3.17-3.19L19,172.87a39.72,39.72,0,0,0-3.17,3.19" transform="translate(0)"/><path class="cls-6" d="M19,172.87l-6.84-3.72a44.54,44.54,0,0,1,4.13-3.26l6.84,3.72A42,42,0,0,0,19,172.87" transform="translate(0)"/><path class="cls-7" d="M23.11,169.61l-6.84-3.72c.92-.63,1.87-1.23,2.85-1.81a4.9,4.9,0,0,0,.56-.35l6.84,3.72a6,6,0,0,1-.56.35c-1,.58-1.93,1.18-2.85,1.81" transform="translate(0)"/><path class="cls-6" d="M26.52,167.45l-6.84-3.72a4.3,4.3,0,0,0,.51-.4L27,167.05a4.3,4.3,0,0,1-.51.4" transform="translate(0)"/><path class="cls-9" d="M27,167.05l-6.84-3.72a1.85,1.85,0,0,0,.28-.28l6.84,3.72a2.47,2.47,0,0,1-.28.28" transform="translate(0)"/><path class="cls-10" d="M27.31,166.77l-6.84-3.72a2.43,2.43,0,0,0,.2-.25l6.84,3.72a2.43,2.43,0,0,1-.2.25" transform="translate(0)"/><path class="cls-11" d="M27.51,166.52l-6.84-3.72a2.13,2.13,0,0,0,.16-.25l6.84,3.72c-.05.08-.1.17-.16.25" transform="translate(0)"/><path class="cls-12" d="M27.67,166.27l-6.84-3.72c.05-.11.1-.22.14-.33l6.84,3.72c0,.11-.09.22-.14.33" transform="translate(0)"/><path class="cls-4" d="M27.81,165.94,21,162.22a3.93,3.93,0,0,0,.19-1.56,56.72,56.72,0,0,1,.05-6.25,10.76,10.76,0,0,1,.64-2.94l6.83,3.72a11.56,11.56,0,0,0-.64,2.94,56.69,56.69,0,0,0,0,6.25,4.12,4.12,0,0,1-.19,1.56" transform="translate(0)"/><path class="cls-12" d="M28.68,155.19l-6.83-3.72a10.25,10.25,0,0,1,.6-1.35l6.84,3.72a11.8,11.8,0,0,0-.61,1.35" transform="translate(0)"/><path class="cls-11" d="M29.29,153.84l-6.84-3.72a11.1,11.1,0,0,1,.61-1l6.84,3.72a11.1,11.1,0,0,0-.61,1" transform="translate(0)"/><path class="cls-10" d="M29.9,152.84l-6.84-3.72c.21-.29.42-.56.65-.82L30.55,152c-.23.26-.44.53-.65.82" transform="translate(0)"/><path class="cls-9" d="M30.55,152l-6.84-3.72a9.93,9.93,0,0,1,.72-.73l6.84,3.72a9.93,9.93,0,0,0-.72.73" transform="translate(0)"/><path class="cls-6" d="M31.27,151.29l-6.84-3.72a8.69,8.69,0,0,1,.84-.66l6.83,3.72a7.51,7.51,0,0,0-.83.66" transform="translate(0)"/><path class="cls-7" d="M32.1,150.63l-6.83-3.72a7.25,7.25,0,0,1,1.11-.64L33.22,150a7.34,7.34,0,0,0-1.12.64" transform="translate(0)"/><path class="cls-8" d="M33.22,150l-6.84-3.72a7.07,7.07,0,0,1,2-.6l6.84,3.72a6.75,6.75,0,0,0-2,.6" transform="translate(0)"/></g></g></g><path class="cls-20" d="M35.18,149.39c3.69-.52,7.41,1.92,7,6.16-.71,7.39,2.57,9.71,8,12.09,8.5,3.71,12.74,11.81,13.11,22.3.19,5.37-2.37,9-6.6,9.8l-.47.08c-4,.57-6.49-1.88-7-7.06-.82-8.71-7-13.76-14-12.77a15,15,0,0,0-5.93,2.26c-5.63,3.59-9.09,10.95-8.09,17.2,1.11,6.92,6.22,11.17,13,10.8,15.44-.83,25,5.87,28.25,19.7s-3.7,29.9-16.51,37.19c-3.18,1.81-4.14,3.68-3.78,7A18.46,18.46,0,0,1,42,279c-.73,4.15-3.5,7.06-7,7.55-3.73.41-7.51-2-7-5.94,1.09-7.92-3-9.91-8.26-12.36C11.64,264.48,7.64,256.66,7,248.89c-.27-7.94,2.09-11.74,6.39-12.68.2-.05.41-.08.6-.11,4-.56,6.63,2.23,7,7.43.64,8.17,6.59,13.46,13.8,12.45l.7-.12c7.53-1.46,13.53-8.94,13.58-16.94.07-8.21-5.83-13.79-13.83-13.11-14.5,1.23-25.78-7.28-28-21.21C4.92,190.17,12.11,175.85,26,167.8c1.62-.94,2.1-1.75,2-3.42a56.69,56.69,0,0,1,0-6.25C28.41,153.58,31.42,150,35.18,149.39Z" transform="translate(0)"/></g><g class="cls-2"><g class="cls-2"><g class="cls-21"><g class="cls-2"><path class="cls-6" d="M226.31,238.59l-6.84-3.72.12.07,6.84,3.72-.12-.07" transform="translate(0)"/><path class="cls-7" d="M226.43,238.66l-6.84-3.72a3.1,3.1,0,0,0,.65.22l6.84,3.72a3.1,3.1,0,0,1-.65-.22" transform="translate(0)"/><path class="cls-8" d="M227.08,238.88l-6.84-3.72c1.58.39,4.13,0,8.21-.52l.93-.13a21.94,21.94,0,0,1,2.78-.26,8.33,8.33,0,0,1,2.18.24l6.84,3.72A8.33,8.33,0,0,0,239,238a21.77,21.77,0,0,0-2.78.26l-.93.13c-4.08.56-6.63.91-8.21.52" transform="translate(0)"/><path class="cls-7" d="M241.18,238.21l-6.84-3.72a6,6,0,0,1,1.19.44l6.84,3.72a5.61,5.61,0,0,0-1.19-.44" transform="translate(0)"/><path class="cls-6" d="M242.37,238.65l-6.84-3.72.22.1,6.83,3.72-.21-.1" transform="translate(0)"/></g></g></g><g class="cls-2"><g class="cls-22"><g class="cls-2"><path class="cls-4" d="M213.53,286l-6.84-3.72c-2-1.09-3.27-3.4-3.35-6.6-.18-6.35-.13-12.75,0-19.16,0-1.38-.18-2.17-.79-2.5l6.83,3.72c.62.33.83,1.12.79,2.5-.15,6.41-.2,12.81,0,19.16.08,3.2,1.34,5.51,3.35,6.6" transform="translate(0)"/></g></g></g><g class="cls-2"><g class="cls-23"><g class="cls-2"><path class="cls-6" d="M225.34,209l-6.84-3.72,0,0,6.84,3.72,0,0" transform="translate(0)"/><path class="cls-7" d="M225.37,209.05l-6.84-3.72.2.07,6.83,3.72-.19-.07" transform="translate(0)"/><path class="cls-8" d="M225.56,209.12l-6.83-3.72a1.66,1.66,0,0,0,.63,0l.5-.1a3.45,3.45,0,0,1,.54-.11l2.19-.29,2.2-.32,2.43-.36c1.16-.16,2.33-.31,3.5-.44a10.07,10.07,0,0,1,3.62.19l6.84,3.72a10.07,10.07,0,0,0-3.62-.19c-1.17.13-2.34.28-3.5.44l-2.43.36-2.2.32-2.19.29a3.45,3.45,0,0,0-.54.11l-.5.1a1.71,1.71,0,0,1-.64,0" transform="translate(0)"/><path class="cls-7" d="M241.18,207.71,234.34,204a6.59,6.59,0,0,1,1.25.46l6.84,3.72a6.59,6.59,0,0,0-1.25-.46" transform="translate(0)"/><path class="cls-6" d="M242.43,208.17l-6.84-3.72.22.11,6.84,3.72-.22-.11" transform="translate(0)"/></g></g></g><g class="cls-2"><g class="cls-24"><g class="cls-2"><path class="cls-4" d="M192.31,258.45l-6.83-3.72c-1.94-1-3-3.08-3.06-5.83a9.63,9.63,0,0,1,.55-3.38l6.84,3.72a9.86,9.86,0,0,0-.56,3.38c0,2.75,1.13,4.78,3.06,5.83" transform="translate(0)"/><path class="cls-12" d="M189.81,249.24,183,245.52a8.21,8.21,0,0,1,.47-1.05l6.84,3.72a7.63,7.63,0,0,0-.47,1.05" transform="translate(0)"/><path class="cls-11" d="M190.28,248.19l-6.84-3.72a6.17,6.17,0,0,1,.48-.77l6.84,3.72a6.17,6.17,0,0,0-.48.77" transform="translate(0)"/><path class="cls-10" d="M190.76,247.42l-6.84-3.72a5.89,5.89,0,0,1,.53-.68l6.84,3.72a5.89,5.89,0,0,0-.53.68" transform="translate(0)"/><path class="cls-9" d="M191.29,246.74,184.45,243a7.84,7.84,0,0,1,.64-.65l6.84,3.72a7.84,7.84,0,0,0-.64.65" transform="translate(0)"/><path class="cls-6" d="M191.93,246.09l-6.84-3.72a9.41,9.41,0,0,1,.84-.66l6.84,3.72a9.41,9.41,0,0,0-.84.66" transform="translate(0)"/><path class="cls-7" d="M192.77,245.43l-6.84-3.72a10,10,0,0,1,1.33-.76l6.84,3.72a10,10,0,0,0-1.33.76" transform="translate(0)"/><path class="cls-8" d="M194.1,244.67,187.26,241a12.34,12.34,0,0,1,2.92-.91c1.72-.31,3.44-.58,5.16-.83s3.44-.44,5.16-.62l.35,0a3.68,3.68,0,0,0,1.18-.32l6.84,3.72a4,4,0,0,1-1.18.32l-.35,0c-1.72.17-3.44.38-5.16.62s-3.44.52-5.16.83a12.19,12.19,0,0,0-2.92.91" transform="translate(0)"/><path class="cls-7" d="M208.87,242,202,238.23a1.74,1.74,0,0,0,.33-.18l6.84,3.72a1.74,1.74,0,0,1-.33.18" transform="translate(0)"/><path class="cls-6" d="M209.2,241.77l-6.84-3.72.2-.16,6.83,3.72-.19.16" transform="translate(0)"/><path class="cls-9" d="M209.39,241.61l-6.83-3.72.15-.15,6.84,3.72-.16.15" transform="translate(0)"/><path class="cls-10" d="M209.55,241.46l-6.84-3.72.14-.18,6.83,3.72-.13.18" transform="translate(0)"/><path class="cls-11" d="M209.68,241.28l-6.83-3.72.13-.21,6.84,3.72-.14.21" transform="translate(0)"/><path class="cls-12" d="M209.82,241.07,203,237.35a2.17,2.17,0,0,0,.15-.35l6.84,3.72a2.17,2.17,0,0,1-.15.35" transform="translate(0)"/><path class="cls-4" d="M210,240.72,203.13,237a5.48,5.48,0,0,0,.28-1.76c.28-6.77.42-9.74-1.47-10.77l6.84,3.72c1.89,1,1.75,4,1.47,10.77a5.78,5.78,0,0,1-.28,1.76" transform="translate(0)"/></g></g></g><g class="cls-2"><g class="cls-25"><g class="cls-2"><path class="cls-6" d="M216.52,183.4l-6.83-3.72.09,0,6.84,3.72-.1,0" transform="translate(0)"/><path class="cls-7" d="M216.62,183.45l-6.84-3.72a2,2,0,0,0,.38.15l6.83,3.71a1.54,1.54,0,0,1-.37-.14" transform="translate(0)"/><path class="cls-8" d="M217,183.59l-6.83-3.71a1.51,1.51,0,0,0,.56,0,1.68,1.68,0,0,0,.47-.14l6.84,3.72a1.79,1.79,0,0,1-.47.14,1.38,1.38,0,0,1-.57,0" transform="translate(0)"/><path class="cls-7" d="M218,183.49l-6.84-3.72a2.7,2.7,0,0,0,.35-.21l6.83,3.72a3.13,3.13,0,0,1-.34.21" transform="translate(0)"/><path class="cls-6" d="M218.37,183.28l-6.83-3.72a3.25,3.25,0,0,0,.38-.31l6.84,3.72a2.64,2.64,0,0,1-.39.31" transform="translate(0)"/><path class="cls-9" d="M218.76,183l-6.84-3.72a6.34,6.34,0,0,0,.58-.58l6.83,3.72a7.92,7.92,0,0,1-.57.58" transform="translate(0)"/><path class="cls-10" d="M219.33,182.39l-6.83-3.72.45-.54c6.5-8.2,13.18-16.22,19.84-24.28.14-.17.27-.33.41-.48l6.84,3.72c-.14.15-.28.31-.41.48-6.66,8.06-13.34,16.08-19.85,24.28l-.45.54" transform="translate(0)"/><path class="cls-9" d="M240,157.09l-6.84-3.72a16.8,16.8,0,0,1,1.32-1.34l6.84,3.72a16.8,16.8,0,0,0-1.32,1.34" transform="translate(0)"/><path class="cls-6" d="M241.36,155.75,234.52,152a13.93,13.93,0,0,1,1.26-1l6.84,3.72a13.93,13.93,0,0,0-1.26,1" transform="translate(0)"/><path class="cls-7" d="M242.62,154.74,235.78,151a9.81,9.81,0,0,1,1.38-.8l6.84,3.72a9.81,9.81,0,0,0-1.38.8" transform="translate(0)"/><path class="cls-8" d="M244,153.94l-6.84-3.72a7.25,7.25,0,0,1,2-.62,5.57,5.57,0,0,1,2.12.11l6.84,3.72a5.57,5.57,0,0,0-2.12-.11,7.25,7.25,0,0,0-2,.62" transform="translate(0)"/><path class="cls-7" d="M248.13,153.43l-6.84-3.72a5.46,5.46,0,0,1,1,.38l6.84,3.72a5.46,5.46,0,0,0-1-.38" transform="translate(0)"/><path class="cls-6" d="M249.15,153.81l-6.84-3.72.21.11,6.84,3.72-.21-.11" transform="translate(0)"/></g></g></g><g class="cls-2"><g class="cls-26"><g class="cls-2"><path class="cls-4" d="M192.08,227.8l-6.84-3.72a5.49,5.49,0,0,1-2.74-4.61,9.5,9.5,0,0,1,.48-4.26l6.84,3.72a9.36,9.36,0,0,0-.48,4.26,5.49,5.49,0,0,0,2.74,4.61" transform="translate(0)"/><path class="cls-12" d="M189.82,218.93,183,215.21a9.92,9.92,0,0,1,.49-1.1l6.84,3.72a8.36,8.36,0,0,0-.49,1.1" transform="translate(0)"/><path class="cls-11" d="M190.31,217.83l-6.84-3.72c.16-.28.33-.56.52-.83l6.84,3.72c-.19.27-.36.55-.52.83" transform="translate(0)"/><path class="cls-10" d="M190.83,217,184,213.28a8.2,8.2,0,0,1,.58-.74l6.84,3.72a8.2,8.2,0,0,0-.58.74" transform="translate(0)"/><path class="cls-9" d="M191.41,216.26l-6.84-3.72a9,9,0,0,1,.69-.69l6.84,3.72a7.49,7.49,0,0,0-.69.69" transform="translate(0)"/><path class="cls-6" d="M192.1,215.57l-6.84-3.72a7.62,7.62,0,0,1,.89-.7l6.83,3.72a8.44,8.44,0,0,0-.88.7" transform="translate(0)"/><path class="cls-7" d="M193,214.87l-6.83-3.72a9.11,9.11,0,0,1,1.36-.79l6.84,3.72a9.22,9.22,0,0,0-1.37.79" transform="translate(0)"/><path class="cls-8" d="M194.35,214.08l-6.84-3.72a11,11,0,0,1,2.6-.83c1.7-.33,3.39-.6,5.09-.84,1.88-.27,3.77-.48,5.65-.68l6.83,3.72c-1.87.2-3.76.41-5.64.68-1.7.24-3.4.51-5.09.84a11,11,0,0,0-2.6.83" transform="translate(0)"/></g></g></g><g class="cls-2"><g class="cls-27"><g class="cls-2"><path class="cls-8" d="M189.16,161.31l-6.84-3.72a6.32,6.32,0,0,1,2.44.15l6.84,3.72a6.32,6.32,0,0,0-2.44-.15" transform="translate(0)"/><path class="cls-7" d="M191.6,161.46l-6.84-3.72a8.44,8.44,0,0,1,1.44.54L193,162a8.44,8.44,0,0,0-1.44-.54" transform="translate(0)"/><path class="cls-6" d="M193,162l-6.84-3.72.31.16,6.84,3.72L193,162" transform="translate(0)"/></g></g></g><path class="cls-20" d="M189.16,161.31c2.08-.29,4.28.51,6.36,2.44,6.64,6.17,13.29,12.34,19.79,18.68.88.87,1.56,1.3,2.25,1.2s1.34-.66,2.22-1.78c6.51-8.2,13.19-16.22,19.85-24.28,2.08-2.52,4.3-3.95,6.38-4.25a5.55,5.55,0,0,1,4.8,1.69c3.09,3.05,2.78,7.16-1.05,11.86q-11.23,13.75-22.52,27.44c-2,2.39-3.53,11.59-2.46,14.05a1.19,1.19,0,0,0,1.42.78l.5-.1a3.45,3.45,0,0,1,.54-.11l2.19-.29,2.2-.32,2.43-.36c1.16-.16,2.33-.31,3.5-.44,5.21-.55,8.14,2,8.07,6.82s-3.19,8-8.38,8.83c-1.7.27-3.4.55-5.1.79-1.46.2-2.93.38-4.39.51l-.55.06c-1.77.25-2.53.94-2.58,3.43-.22,11.9-.32,11.92,10.66,10.4l.93-.13A21.77,21.77,0,0,1,239,238c4.14-.07,6.58,2.46,6.57,6.66a8.67,8.67,0,0,1-7,8.7q-2.69.51-5.36.88c-1.93.27-3.87.5-5.8.69l-.37,0c-1.79.25-2.6,1-2.45,3.24.19,3.08,0,6.23,0,9.35s.08,6.53,0,9.82c-.19,4.91-3,8.61-7,9.31-4.27.61-7.28-2.22-7.41-7.23-.18-6.35-.13-12.75,0-19.16.06-2.21-.52-2.9-2.34-2.64l-.43.07c-1.55.3-3.11.55-4.66.77-1.89.26-3.77.49-5.66.71-4.8.56-7.83-2-7.86-6.57s2.77-8,7.77-8.86c1.72-.31,3.44-.58,5.16-.83s3.44-.45,5.16-.62l.35,0c1.81-.25,2.48-1,2.56-3.31.49-12.05.56-12.05-10.48-10.51-6.69.94-9.93-.71-10.43-5.26-.54-4.92,2.46-8.95,7.61-9.94,1.69-.33,3.39-.6,5.09-.84,1.88-.27,3.77-.48,5.64-.68s2.48-1,2.64-3.08c.49-6.14-.7-10.79-5.29-14.48-6.93-5.55-13.15-12.07-19.63-18.23-3.77-3.57-4.13-7.7-1.07-11.57A7.63,7.63,0,0,1,189.16,161.31Z" transform="translate(0)"/><g class="cls-2"><g class="cls-28"><g class="cls-2"><path class="cls-8" d="M207.68,211.73,200.85,208a4.44,4.44,0,0,0,1.3-.34l6.83,3.72a4.36,4.36,0,0,1-1.3.34" transform="translate(0)"/><path class="cls-7" d="M209,211.39l-6.83-3.72a2,2,0,0,0,.32-.18l6.84,3.72a1.74,1.74,0,0,1-.33.18" transform="translate(0)"/><path class="cls-6" d="M209.31,211.21l-6.84-3.72a1.39,1.39,0,0,0,.19-.15l6.84,3.72-.19.15" transform="translate(0)"/><path class="cls-9" d="M209.5,211.06l-6.84-3.72a.93.93,0,0,0,.14-.14l6.84,3.71a.67.67,0,0,1-.14.15" transform="translate(0)"/><path class="cls-10" d="M209.64,210.91l-6.84-3.71.13-.17,6.84,3.72a1,1,0,0,1-.13.16" transform="translate(0)"/><path class="cls-11" d="M209.77,210.75,202.93,207a1.37,1.37,0,0,0,.13-.2l6.83,3.72a1.32,1.32,0,0,1-.12.2" transform="translate(0)"/><path class="cls-12" d="M209.89,210.55l-6.83-3.72a2.52,2.52,0,0,0,.14-.33l6.84,3.72a1.66,1.66,0,0,1-.15.33" transform="translate(0)"/><path class="cls-4" d="M210,210.22l-6.84-3.72a6,6,0,0,0,.29-1.57c.48-6.14-.71-10.79-5.3-14.48-6.93-5.55-13.15-12.07-19.63-18.23-2.88-2.73-3.77-5.78-2.66-8.79l6.84,3.72c-1.11,3-.22,6.06,2.66,8.79,6.48,6.16,12.7,12.68,19.63,18.23,4.59,3.69,5.78,8.34,5.29,14.48a6.07,6.07,0,0,1-.28,1.57" transform="translate(0)"/><path class="cls-12" d="M182.74,167.15l-6.84-3.72a7.83,7.83,0,0,1,.52-1.15l6.84,3.72a7.83,7.83,0,0,0-.52,1.15" transform="translate(0)"/><path class="cls-11" d="M183.26,166l-6.84-3.72a10.32,10.32,0,0,1,.66-1.07l6.84,3.72a10.32,10.32,0,0,0-.66,1.07" transform="translate(0)"/><path class="cls-10" d="M183.92,164.93l-6.84-3.72.41-.56.39-.46,6.84,3.72-.39.46-.41.56" transform="translate(0)"/><path class="cls-9" d="M184.72,163.91l-6.84-3.72a10,10,0,0,1,.79-.8l6.84,3.72a10,10,0,0,0-.79.8" transform="translate(0)"/><path class="cls-6" d="M185.51,163.11l-6.84-3.72a8.5,8.5,0,0,1,.84-.67l6.84,3.72a7.47,7.47,0,0,0-.84.67" transform="translate(0)"/><path class="cls-7" d="M186.35,162.44l-6.84-3.72a7.48,7.48,0,0,1,1-.59l6.84,3.72a7.48,7.48,0,0,0-1,.59" transform="translate(0)"/><path class="cls-8" d="M187.37,161.85l-6.84-3.72a6.47,6.47,0,0,1,1.79-.54l6.84,3.72a6.47,6.47,0,0,0-1.79.54" transform="translate(0)"/></g></g></g></g><g class="cls-2"><g class="cls-2"><g class="cls-29"><g class="cls-2"><path class="cls-6" d="M125.58,108.47l-6.83-3.72.62.33,6.84,3.72-.63-.33" transform="translate(0)"/><path class="cls-7" d="M126.21,108.8l-6.84-3.72a19.53,19.53,0,0,0,3.68,1.34l6.83,3.72a19.69,19.69,0,0,1-3.67-1.34" transform="translate(0)"/><path class="cls-8" d="M129.88,110.14l-6.83-3.72.39.1a18.88,18.88,0,0,0,12.78-1.28l6.84,3.72a18.88,18.88,0,0,1-12.78,1.28l-.4-.1" transform="translate(0)"/><path class="cls-7" d="M143.06,109l-6.84-3.72a24.65,24.65,0,0,0,3.27-1.89l6.83,3.72a23.93,23.93,0,0,1-3.26,1.89" transform="translate(0)"/><path class="cls-6" d="M146.32,107.07l-6.83-3.72a29.13,29.13,0,0,0,2.77-2.21l6.84,3.72a28,28,0,0,1-2.78,2.21" transform="translate(0)"/><path class="cls-9" d="M149.1,104.86l-6.84-3.72c.77-.69,1.52-1.44,2.26-2.24l.35-.39,6.84,3.72-.35.39c-.74.8-1.49,1.55-2.26,2.24" transform="translate(0)"/><path class="cls-10" d="M151.71,102.23l-6.84-3.72a28.29,28.29,0,0,0,1.89-2.39l6.84,3.72a28.29,28.29,0,0,1-1.89,2.39" transform="translate(0)"/><path class="cls-11" d="M153.6,99.84l-6.84-3.72a26.09,26.09,0,0,0,1.57-2.55l6.84,3.72a26.09,26.09,0,0,1-1.57,2.55" transform="translate(0)"/><path class="cls-12" d="M155.17,97.29l-6.84-3.72a24,24,0,0,0,1.42-3.14l6.83,3.72a23.19,23.19,0,0,1-1.41,3.14" transform="translate(0)"/><path class="cls-4" d="M156.58,94.15l-6.83-3.72a25,25,0,0,0,1.44-6.8,19.79,19.79,0,0,1,.85-5.44l6.84,3.72a19.79,19.79,0,0,0-.85,5.44,24.59,24.59,0,0,1-1.45,6.8" transform="translate(0)"/><path class="cls-12" d="M158.88,81.91,152,78.19a7.43,7.43,0,0,1,.33-.77,4.16,4.16,0,0,1,.24-.47l6.83,3.72c-.08.15-.16.31-.23.47a7.43,7.43,0,0,0-.33.77" transform="translate(0)"/><path class="cls-11" d="M159.44,80.67,152.61,77a9.93,9.93,0,0,1,.68-1.11l6.84,3.72a11.7,11.7,0,0,0-.69,1.11" transform="translate(0)"/><path class="cls-10" d="M160.13,79.56l-6.84-3.72a7.76,7.76,0,0,1,.64-.82l6.84,3.72a7.76,7.76,0,0,0-.64.82" transform="translate(0)"/><path class="cls-9" d="M160.77,78.74,153.93,75a8.47,8.47,0,0,1,.67-.67l6.84,3.72a7.06,7.06,0,0,0-.67.67" transform="translate(0)"/><path class="cls-6" d="M161.44,78.07l-6.84-3.72a7,7,0,0,1,.75-.6l6.84,3.72a7,7,0,0,0-.75.6" transform="translate(0)"/><path class="cls-7" d="M162.19,77.47l-6.84-3.72a7.38,7.38,0,0,1,1-.59l6.84,3.72a6.83,6.83,0,0,0-1,.59" transform="translate(0)"/><path class="cls-8" d="M163.2,76.88l-6.84-3.72a7.51,7.51,0,0,1,2.09-.61,9.3,9.3,0,0,1,2,0,5.71,5.71,0,0,1,.86.15l6.84,3.72a5.94,5.94,0,0,0-.86-.15,9.3,9.3,0,0,0-2,0,7.51,7.51,0,0,0-2.09.61" transform="translate(0)"/><path class="cls-7" d="M168.13,76.37l-6.84-3.72a5.14,5.14,0,0,1,1,.35l6.84,3.72a5.14,5.14,0,0,0-1-.35" transform="translate(0)"/><path class="cls-6" d="M169.08,76.72,162.24,73l.18.1,6.84,3.72-.18-.1" transform="translate(0)"/></g></g></g><g class="cls-2"><g class="cls-30"><g class="cls-2"><path class="cls-4" d="M161.69,45.37l-6.84-3.72c-1.88-1-3.13-3.2-3.33-6.4-.4-6.66-2.54-12-7.21-15.82a16.17,16.17,0,0,0-2.65-1.78l6.84,3.71a17.37,17.37,0,0,1,2.65,1.79C155.82,27,158,32.31,158.36,39c.2,3.2,1.45,5.38,3.33,6.4" transform="translate(0)"/></g></g></g><g class="cls-2"><g class="cls-31"><g class="cls-2"><path class="cls-6" d="M117.84,74.16,111,70.44l.13.06L118,74.22l-.12-.06" transform="translate(0)"/><path class="cls-7" d="M118,74.22l-6.83-3.72a2.92,2.92,0,0,0,.63.22l6.84,3.72a3.22,3.22,0,0,1-.64-.22" transform="translate(0)"/><path class="cls-8" d="M118.6,74.44l-6.84-3.72c1.55.39,4,0,8-.52,1.92-.27,3.79-.56,5.67-.83,1.29-.18,2.58-.35,3.87-.49a9.8,9.8,0,0,1,3.47.2l6.84,3.72a9.85,9.85,0,0,0-3.48-.2c-1.28.14-2.57.31-3.86.49-1.88.27-3.75.56-5.68.83-4,.56-6.48.91-8,.52" transform="translate(0)"/><path class="cls-7" d="M139.64,72.8l-6.84-3.72a7.07,7.07,0,0,1,1.36.5L141,73.3a7.32,7.32,0,0,0-1.36-.5" transform="translate(0)"/><path class="cls-6" d="M141,73.3l-6.84-3.72.24.13,6.84,3.72L141,73.3" transform="translate(0)"/></g></g></g><g class="cls-2"><g class="cls-32"><g class="cls-2"><path class="cls-4" d="M118.31,122.78l-6.84-3.72c-8.21-4.47-14.21-12.94-15.8-24.24-.36-2.53-.91-4.08-2.15-4.76l6.84,3.72c1.24.68,1.79,2.23,2.15,4.76,1.59,11.3,7.59,19.77,15.8,24.24" transform="translate(0)"/></g></g></g><g class="cls-2"><g class="cls-33"><g class="cls-2"><path class="cls-6" d="M117.3,44.51l-6.84-3.72.07,0,6.84,3.72-.07,0" transform="translate(0)"/><path class="cls-7" d="M117.37,44.54l-6.84-3.72a1.42,1.42,0,0,0,.38.14l6.84,3.72a1.42,1.42,0,0,1-.38-.14" transform="translate(0)"/><path class="cls-8" d="M117.75,44.68,110.91,41a4.41,4.41,0,0,0,1.65,0,9.14,9.14,0,0,0,1-.2c2.13-.51,4.27-.88,6.42-1.18,3.08-.44,6.18-.73,9.26-1.12a9.64,9.64,0,0,1,3.68.17l6.83,3.72a9.59,9.59,0,0,0-3.67-.17c-3.08.39-6.18.68-9.26,1.12-2.15.3-4.29.67-6.42,1.18a8.83,8.83,0,0,1-1,.2,4.36,4.36,0,0,1-1.64,0" transform="translate(0)"/><path class="cls-7" d="M139.74,42.38l-6.83-3.72a6.27,6.27,0,0,1,1.34.49l6.84,3.72a6.56,6.56,0,0,0-1.35-.49" transform="translate(0)"/><path class="cls-6" d="M141.09,42.87l-6.84-3.72.24.12L141.33,43l-.24-.12" transform="translate(0)"/></g></g></g><g class="cls-2"><g class="cls-34"><g class="cls-2"><path class="cls-8" d="M137.51,4,130.68.31A30.36,30.36,0,0,1,142.55,1l6.84,3.72A30.4,30.4,0,0,0,137.51,4" transform="translate(0)"/><path class="cls-7" d="M149.39,4.67,142.55,1a29.52,29.52,0,0,1,5.72,2.12l6.84,3.72a29.77,29.77,0,0,0-5.72-2.12" transform="translate(0)"/><path class="cls-6" d="M155.11,6.79l-6.84-3.72,1.1.56,6.83,3.72c-.36-.19-.72-.38-1.09-.56" transform="translate(0)"/></g></g></g><g class="cls-2"><g class="cls-35"><g class="cls-2"><path class="cls-4" d="M90.92,93.19l-6.84-3.72a6.48,6.48,0,0,1-3.16-5.78,8.31,8.31,0,0,1,.51-3.17l6.83,3.72a8.51,8.51,0,0,0-.5,3.17,6.46,6.46,0,0,0,3.16,5.78" transform="translate(0)"/><path class="cls-12" d="M88.26,84.24l-6.83-3.72a7.76,7.76,0,0,1,.47-1.06l6.84,3.72a9.25,9.25,0,0,0-.48,1.06" transform="translate(0)"/><path class="cls-11" d="M88.74,83.18,81.9,79.46a6.72,6.72,0,0,1,.53-.85l6.83,3.72a8,8,0,0,0-.52.85" transform="translate(0)"/><path class="cls-10" d="M89.26,82.33l-6.83-3.72a7.25,7.25,0,0,1,.6-.77l6.84,3.72a9,9,0,0,0-.61.77" transform="translate(0)"/><path class="cls-9" d="M89.87,81.56,83,77.84a8.61,8.61,0,0,1,.74-.74l6.83,3.72a10.18,10.18,0,0,0-.73.74" transform="translate(0)"/><path class="cls-6" d="M90.6,80.82,83.77,77.1a9.38,9.38,0,0,1,1-.77l6.83,3.72a12.14,12.14,0,0,0-1,.77" transform="translate(0)"/><path class="cls-7" d="M91.57,80.05l-6.83-3.72a10.3,10.3,0,0,1,1.53-.87l6.84,3.72a11,11,0,0,0-1.54.87" transform="translate(0)"/><path class="cls-8" d="M93.11,79.18l-6.84-3.72a12.44,12.44,0,0,1,3.23-1,17.49,17.49,0,0,0,3.93-.91l6.84,3.72a17.63,17.63,0,0,1-3.93.91,12.32,12.32,0,0,0-3.23,1" transform="translate(0)"/><path class="cls-7" d="M100.27,77.27l-6.84-3.72a2.86,2.86,0,0,0,.42-.24L100.68,77a2.33,2.33,0,0,1-.41.24" transform="translate(0)"/><path class="cls-6" d="M100.68,77l-6.83-3.72a1.84,1.84,0,0,0,.22-.17l6.84,3.72a1.37,1.37,0,0,1-.23.17" transform="translate(0)"/><path class="cls-9" d="M100.91,76.86l-6.84-3.72.16-.17,6.84,3.72-.16.17" transform="translate(0)"/><path class="cls-10" d="M101.07,76.69,94.23,73a1.43,1.43,0,0,0,.15-.18l6.83,3.72a.86.86,0,0,1-.14.18" transform="translate(0)"/><path class="cls-11" d="M101.21,76.51l-6.83-3.72a1.93,1.93,0,0,0,.13-.21l6.83,3.72a1.48,1.48,0,0,1-.13.21" transform="translate(0)"/><path class="cls-12" d="M101.34,76.3l-6.83-3.72a2.52,2.52,0,0,0,.14-.33L101.49,76a1.66,1.66,0,0,1-.15.33" transform="translate(0)"/><path class="cls-4" d="M101.49,76l-6.84-3.72A16.41,16.41,0,0,0,95,67.53V65.74c0-3.67,0-5.26-1.1-5.87l6.84,3.72c1.11.61,1.11,2.2,1.1,5.87v1.79a16.41,16.41,0,0,1-.35,4.72" transform="translate(0)"/></g></g></g><g class="cls-2"><g class="cls-36"><g class="cls-2"><path class="cls-4" d="M90.94,62.55,84.1,58.83A6.14,6.14,0,0,1,81,53.08a8.36,8.36,0,0,1,.52-3l6.84,3.72a8.36,8.36,0,0,0-.52,3,6.15,6.15,0,0,0,3.12,5.75" transform="translate(0)"/><path class="cls-12" d="M88.34,53.79,81.5,50.07A8.86,8.86,0,0,1,82,49l6.83,3.72a8.8,8.8,0,0,0-.48,1.09" transform="translate(0)"/><path class="cls-11" d="M88.82,52.7,82,49a8.66,8.66,0,0,1,.53-.86l6.84,3.72a8.78,8.78,0,0,0-.54.86" transform="translate(0)"/><path class="cls-10" d="M89.36,51.84l-6.84-3.72a9,9,0,0,1,.61-.77L90,51.07a8.84,8.84,0,0,0-.6.77" transform="translate(0)"/><path class="cls-9" d="M90,51.07l-6.83-3.72a8.5,8.5,0,0,1,.73-.74l6.84,3.72a8.61,8.61,0,0,0-.74.74" transform="translate(0)"/><path class="cls-6" d="M90.7,50.33l-6.84-3.72a8.82,8.82,0,0,1,1-.75l6.83,3.72a9.78,9.78,0,0,0-1,.75" transform="translate(0)"/><path class="cls-7" d="M91.65,49.58l-6.83-3.72A10.07,10.07,0,0,1,86.29,45l6.84,3.72a10.18,10.18,0,0,0-1.48.85" transform="translate(0)"/><path class="cls-8" d="M93.13,48.73,86.29,45a11.76,11.76,0,0,1,3-.93c.49-.08,1-.18,1.47-.24a6.76,6.76,0,0,1,1-.09,6.86,6.86,0,0,0,.94-.06,3.58,3.58,0,0,0,.94-.26l6.84,3.72a3.66,3.66,0,0,1-.95.26,6.61,6.61,0,0,1-.93.06,6.76,6.76,0,0,0-1,.09c-.49.06-1,.16-1.47.24a11.76,11.76,0,0,0-3,.93" transform="translate(0)"/><path class="cls-7" d="M100.49,47.15l-6.84-3.72a3.37,3.37,0,0,0,.32-.19L100.81,47a3.37,3.37,0,0,1-.32.19" transform="translate(0)"/><path class="cls-6" d="M100.81,47,94,43.24l.21-.16L101,46.8l-.21.16" transform="translate(0)"/><path class="cls-9" d="M101,46.8l-6.84-3.72.18-.18,6.83,3.72-.17.18" transform="translate(0)"/><path class="cls-10" d="M101.19,46.62,94.36,42.9a1.92,1.92,0,0,0,.16-.21l6.84,3.72a1.2,1.2,0,0,1-.17.21" transform="translate(0)"/><path class="cls-11" d="M101.36,46.41l-6.84-3.72a2.61,2.61,0,0,0,.17-.28l6.84,3.72a2.61,2.61,0,0,1-.17.28" transform="translate(0)"/><path class="cls-12" d="M101.53,46.13l-6.84-3.72a3.61,3.61,0,0,0,.22-.48l6.83,3.72a3,3,0,0,1-.21.48" transform="translate(0)"/><path class="cls-4" d="M101.74,45.65l-6.83-3.72a8.65,8.65,0,0,0,.39-1.82A56.33,56.33,0,0,1,98.21,28l6.84,3.72a56.33,56.33,0,0,0-2.91,12.16,8,8,0,0,1-.4,1.82" transform="translate(0)"/><path class="cls-12" d="M105.05,31.67,98.21,28a48.6,48.6,0,0,1,2.73-6.08l6.84,3.72a45.87,45.87,0,0,0-2.73,6.08" transform="translate(0)"/><path class="cls-11" d="M107.78,25.59l-6.84-3.72a42.64,42.64,0,0,1,2.71-4.41l6.84,3.72a42.64,42.64,0,0,0-2.71,4.41" transform="translate(0)"/><path class="cls-10" d="M110.49,21.18l-6.84-3.72a41.52,41.52,0,0,1,2.9-3.68l6.84,3.72a40.11,40.11,0,0,0-2.9,3.68" transform="translate(0)"/><path class="cls-9" d="M113.39,17.5l-6.84-3.72a40.85,40.85,0,0,1,3.34-3.37l6.83,3.72a42.37,42.37,0,0,0-3.33,3.37" transform="translate(0)"/><path class="cls-6" d="M116.72,14.13l-6.83-3.72a42,42,0,0,1,4.17-3.3l6.84,3.72a43.3,43.3,0,0,0-4.18,3.3" transform="translate(0)"/><path class="cls-7" d="M120.9,10.83l-6.84-3.72a45,45,0,0,1,6.28-3.61l6.84,3.72a44.39,44.39,0,0,0-6.28,3.61" transform="translate(0)"/><path class="cls-8" d="M127.18,7.22,120.34,3.5c.76-.35,1.54-.7,2.33-1a33.53,33.53,0,0,1,8-2.17L137.51,4a33.45,33.45,0,0,0-8,2.17c-.8.32-1.57.67-2.33,1" transform="translate(0)"/></g></g></g><path class="cls-20" d="M137.51,4c18.28-2.57,34.73,11.27,35.19,31.81.11,5-2.6,9.09-6.68,10l-.63.12c-3.82.54-6.72-2-7-7-.4-6.66-2.54-12-7.21-15.82a17.34,17.34,0,0,0-13.63-3.65c-9.3,1.31-18.42,9.15-20.72,20.31-.61,2.93-.94,5.39,2.59,4.9a8.83,8.83,0,0,0,1-.2c2.13-.51,4.27-.88,6.42-1.18,3.08-.44,6.18-.73,9.26-1.12,5-.65,8.39,2,8.42,6.51s-3.27,8.18-8.34,9c-2.82.46-5.64.9-8.46,1.29s-5.64.76-8.46,1.07c-2.43.34-3,1.31-3,3.7-.25,11.61-.32,11.63,10.39,10.13,1.93-.27,3.8-.56,5.68-.83,1.29-.18,2.58-.35,3.86-.49,5-.55,8.35,2.23,8.27,6.74S141,87.4,136,88.25c-1.08.18-2.15.34-3.23.49-1.67.24-3.35.45-5,.69s-3.38.57-5.07.81a26.61,26.61,0,0,1-3.18.28,5.31,5.31,0,0,0-.83.06c-2.82.4-2.5,2.54-2,4.68,1.72,8,6.25,13.21,13.69,15a19.25,19.25,0,0,0,7.25.39c5-.7,9.64-3.45,13.83-8A24.85,24.85,0,0,0,158,87.35a16.7,16.7,0,0,1,1.18-6.21c1.42-2.94,3.54-4.51,6.08-4.87a9.3,9.3,0,0,1,2,0c3.4.3,5.47,3.65,5.33,8.17-.51,16.36-11.68,33-26.29,39.06a37.65,37.65,0,0,1-9.18,2.56c-17,2.39-32-8.6-34.62-27.47-.56-4-1.62-5.55-5.07-5.06-.36,0-.75.12-1.17.22s-.6.12-.9.16c-4.57.65-7.5-2.19-7.61-6.45-.14-4.63,3.31-8.33,8.58-9.23,5.48-.93,5.48-.93,5.5-6.93V69.46c0-6.47,0-6.47-6.07-6-4.87.35-8-2.22-8-6.63s3.33-8.15,8.32-9c.49-.08,1-.18,1.47-.24a6.76,6.76,0,0,1,1-.09,6.61,6.61,0,0,0,.93-.06c1.57-.22,2.29-1.08,2.6-3.58,2.33-18.21,12.07-31.41,27.37-37.63A33.45,33.45,0,0,1,137.51,4Z" transform="translate(0)"/></g></g></g></svg>