<svg xmlns="http://www.w3.org/2000/svg" xmlns:xlink="http://www.w3.org/1999/xlink" viewBox="0 0 252.89 286.72"><defs><style>.cls-1{fill:url(#Áåçûìÿííûé_ãðàäèåíò_3);}.cls-2{fill:url(#Áåçûìÿííûé_ãðàäèåíò_3-2);}.cls-3{fill:url(#Áåçûìÿííûé_ãðàäèåíò_3-3);}.cls-4{fill:url(#Áåçûìÿííûé_ãðàäèåíò_3-4);}.cls-5{fill:url(#Áåçûìÿííûé_ãðàäèåíò_3-5);}.cls-6{fill:url(#Áåçûìÿííûé_ãðàäèåíò_3-6);}.cls-7{fill:url(#Áåçûìÿííûé_ãðàäèåíò_3-7);}.cls-8{fill:url(#Áåçûìÿííûé_ãðàäèåíò_3-8);}.cls-9{fill:url(#Áåçûìÿííûé_ãðàäèåíò_3-9);}.cls-10{fill:url(#Áåçûìÿííûé_ãðàäèåíò_3-10);}.cls-11{fill:url(#Áåçûìÿííûé_ãðàäèåíò_3-11);}.cls-12{fill:url(#Áåçûìÿííûé_ãðàäèåíò_3-12);}.cls-13{fill:url(#Áåçûìÿííûé_ãðàäèåíò_3-13);}.cls-14{fill:url(#Áåçûìÿííûé_ãðàäèåíò_3-14);}.cls-15{fill:url(#Áåçûìÿííûé_ãðàäèåíò_3-15);}.cls-16{fill:url(#Áåçûìÿííûé_ãðàäèåíò_3-16);}.cls-17{fill:url(#Áåçûìÿííûé_ãðàäèåíò_3-17);}.cls-18{fill:url(#Áåçûìÿííûé_ãðàäèåíò_3-18);}.cls-19{fill:url(#Áåçûìÿííûé_ãðàäèåíò_3-19);}.cls-20{fill:url(#Áåçûìÿííûé_ãðàäèåíò_3-20);}.cls-21{fill:url(#Áåçûìÿííûé_ãðàäèåíò_3-21);}.cls-22{fill:url(#Áåçûìÿííûé_ãðàäèåíò_3-22);}.cls-23{fill:url(#Áåçûìÿííûé_ãðàäèåíò_3-23);}.cls-24{fill:url(#Áåçûìÿííûé_ãðàäèåíò_3-24);}.cls-25{fill:url(#Áåçûìÿííûé_ãðàäèåíò_3-25);}</style><linearGradient id="Áåçûìÿííûé_ãðàäèåíò_3" x1="0.14" y1="259.03" x2="30.75" y2="259.03" gradientUnits="userSpaceOnUse"><stop offset="0" stop-color="#fcee8c"/><stop offset="0.12" stop-color="#a16e00"/><stop offset="0.13" stop-color="#ac7e11"/><stop offset="0.17" stop-color="#caa73c"/><stop offset="0.2" stop-color="#e1c75e"/><stop offset="0.24" stop-color="#f1de77"/><stop offset="0.27" stop-color="#fcec86"/><stop offset="0.29" stop-color="#fff18b"/><stop offset="0.34" stop-color="#fbec86"/><stop offset="0.41" stop-color="#f1de76"/><stop offset="0.48" stop-color="#e0c65d"/><stop offset="0.55" stop-color="#c8a43a"/><stop offset="0.63" stop-color="#aa7a0d"/><stop offset="0.65" stop-color="#a16e00"/><stop offset="0.65" stop-color="#a57203"/><stop offset="0.67" stop-color="#ba8812"/><stop offset="0.7" stop-color="#cb991d"/><stop offset="0.73" stop-color="#d6a425"/><stop offset="0.77" stop-color="#ddab2a"/><stop offset="0.88" stop-color="#dfad2b"/><stop offset="0.94" stop-color="#a16e00"/><stop offset="0.95" stop-color="#b3810d"/><stop offset="0.97" stop-color="#cb991d"/><stop offset="0.99" stop-color="#daa827"/><stop offset="1" stop-color="#dfad2b"/></linearGradient><linearGradient id="Áåçûìÿííûé_ãðàäèåíò_3-2" x1="20.84" y1="239.81" x2="49.15" y2="239.81" xlink:href="#Áåçûìÿííûé_ãðàäèåíò_3"/><linearGradient id="Áåçûìÿííûé_ãðàäèåíò_3-3" x1="20.6" y1="209.21" x2="50.99" y2="209.21" xlink:href="#Áåçûìÿííûé_ãðàäèåíò_3"/><linearGradient id="Áåçûìÿííûé_ãðàäèåíò_3-4" x1="35.59" y1="188.39" x2="52.51" y2="188.39" xlink:href="#Áåçûìÿííûé_ãðàäèåíò_3"/><linearGradient id="Áåçûìÿííûé_ãðàäèåíò_3-5" x1="40.69" y1="165.55" x2="51.87" y2="165.55" xlink:href="#Áåçûìÿííûé_ãðàäèåíò_3"/><linearGradient id="Áåçûìÿííûé_ãðàäèåíò_3-6" x1="0" y1="184.19" x2="39.34" y2="184.19" xlink:href="#Áåçûìÿííûé_ãðàäèåíò_3"/><linearGradient id="Áåçûìÿííûé_ãðàäèåíò_3-7" x1="6.8" y1="217.95" x2="63.29" y2="217.95" xlink:href="#Áåçûìÿííûé_ãðàäèåíò_3"/><linearGradient id="Áåçûìÿííûé_ãðàäèåíò_3-8" x1="219.46" y1="236.65" x2="242.59" y2="236.65" xlink:href="#Áåçûìÿííûé_ãðàäèåíò_3"/><linearGradient id="Áåçûìÿííûé_ãðàäèåíò_3-9" x1="202.54" y1="270" x2="213.52" y2="270" xlink:href="#Áåçûìÿííûé_ãðàäèåíò_3"/><linearGradient id="Áåçûìÿííûé_ãðàäèåíò_3-10" x1="218.49" y1="206.4" x2="242.64" y2="206.4" xlink:href="#Áåçûìÿííûé_ãðàäèåíò_3"/><linearGradient id="Áåçûìÿííûé_ãðàäèåíò_3-11" x1="182.4" y1="241.45" x2="210.4" y2="241.45" xlink:href="#Áåçûìÿííûé_ãðàäèåíò_3"/><linearGradient id="Áåçûìÿííûé_ãðàäèåíò_3-12" x1="209.68" y1="166.58" x2="249.32" y2="166.58" xlink:href="#Áåçûìÿííûé_ãðàäèåíò_3"/><linearGradient id="Áåçûìÿííûé_ãðàäèåíò_3-13" x1="242.3" y1="151.99" x2="249.35" y2="151.99" xlink:href="#Áåçûìÿííûé_ãðàäèåíò_3"/><linearGradient id="Áåçûìÿííûé_ãðàäèåíò_3-14" x1="182.43" y1="217.89" x2="207.67" y2="217.89" xlink:href="#Áåçûìÿííûé_ãðàäèåíò_3"/><linearGradient id="Áåçûìÿííûé_ãðàäèåíò_3-15" x1="175.38" y1="184.62" x2="210.41" y2="184.62" xlink:href="#Áåçûìÿííûé_ãðàäèåíò_3"/><linearGradient id="Áåçûìÿííûé_ãðàäèåíò_3-16" x1="182.24" y1="219.99" x2="252.89" y2="219.99" xlink:href="#Áåçûìÿííûé_ãðàäèåíò_3"/><linearGradient id="Áåçûìÿííûé_ãðàäèåíò_3-17" x1="118.74" y1="91.64" x2="169.28" y2="91.64" xlink:href="#Áåçûìÿííûé_ãðàäèåíò_3"/><linearGradient id="Áåçûìÿííûé_ãðàäèåíò_3-18" x1="141.65" y1="31.51" x2="161.68" y2="31.51" xlink:href="#Áåçûìÿííûé_ãðàäèåíò_3"/><linearGradient id="Áåçûìÿííûé_ãðàäèåíò_3-19" x1="110.99" y1="71.71" x2="141.23" y2="71.71" xlink:href="#Áåçûìÿííûé_ãðàäèåíò_3"/><linearGradient id="Áåçûìÿííûé_ãðàäèåíò_3-20" x1="93.51" y1="106.41" x2="118.3" y2="106.41" xlink:href="#Áåçûìÿííûé_ãðàäèåíò_3"/><linearGradient id="Áåçûìÿííûé_ãðàäèåíò_3-21" x1="110.45" y1="41.58" x2="141.32" y2="41.58" xlink:href="#Áåçûìÿííûé_ãðàäèåíò_3"/><linearGradient id="Áåçûìÿííûé_ãðàäèåíò_3-22" x1="130.67" y1="3.67" x2="156.19" y2="3.67" xlink:href="#Áåçûìÿííûé_ãðàäèåíò_3"/><linearGradient id="Áåçûìÿííûé_ãðàäèåíò_3-23" x1="80.9" y1="76.52" x2="101.86" y2="76.52" xlink:href="#Áåçûìÿííûé_ãðàäèåíò_3"/><linearGradient id="Áåçûìÿííûé_ãðàäèåíò_3-24" x1="80.97" y1="31.42" x2="137.5" y2="31.42" xlink:href="#Áåçûìÿííûé_ãðàäèåíò_3"/><linearGradient id="Áåçûìÿííûé_ãðàäèåíò_3-25" x1="87.73" y1="65.03" x2="172.69" y2="65.03" xlink:href="#Áåçûìÿííûé_ãðàäèåíò_3"/></defs><g id="Layer_2" data-name="Layer 2"><g id="Layer_1-2" data-name="Layer 1"><g id="Layer_2-2" data-name="Layer 2"><g id="Layer_1-2-2" data-name="Layer 1-2"><path class="cls-1" d="M28.05,280.63c.87-6.33-1.54-8.89-5.25-10.89l-6.6-3.59A23.42,23.42,0,0,1,7,248.88H7c0-.91,0-1.76,0-2.56a20.21,20.21,0,0,1,1-5.16l0,0h0l0,0a10.54,10.54,0,0,1,.57-1.29h0a8.48,8.48,0,0,1,.51-.81,5.2,5.2,0,0,1,.51-.65,4.08,4.08,0,0,1,.55-.55,4.34,4.34,0,0,1,.67-.53h0a5.45,5.45,0,0,1,1-.56h0a8,8,0,0,1,1.67-.55,2.63,2.63,0,0,1,.6-.11l.24,0c.13,0,.27,0,.41,0h.5l.32,0,.45,0a5.78,5.78,0,0,1,.69.17c.09,0,.18.06.27.09a5.79,5.79,0,0,1,.68.29l-.18-.1,0,0,.06,0-6.84-3.72a4.76,4.76,0,0,0-.53-.19l-.24-.09-.23-.08-.5-.09-.18,0c-.2,0-.4,0-.6,0H7.9a5.51,5.51,0,0,0-.71.06c-.2,0-.4.06-.61.11a6.23,6.23,0,0,0-.8.22l-.29.1L5,233l0,0h0a8.36,8.36,0,0,0-.88.5l-.1.06-.08.06L3.4,234l-.14.12s0,0,0,.05a3.19,3.19,0,0,0-.26.26,2.72,2.72,0,0,0-.24.24l-.07.09a2.23,2.23,0,0,0-.19.24,2.51,2.51,0,0,0-.25.32.22.22,0,0,0-.05.08,6.18,6.18,0,0,0-.37.61.57.57,0,0,0-.08.13h0a9.1,9.1,0,0,0-.57,1.3h0a.83.83,0,0,0,0,.15,15.16,15.16,0,0,0-.76,3.46,20.15,20.15,0,0,0-.13,4.11c.57,7.37,4.19,14.83,11.52,18.76L18,267.36l.08.05c2.42,1.88,3.78,4.52,3.09,9.5a4.93,4.93,0,0,0,2.7,5.14l6.84,3.71A4.89,4.89,0,0,1,28.05,280.63Zm-11.8-14.44A14.73,14.73,0,0,1,18,267.32C17.39,267,16.81,266.59,16.25,266.19Z"/><path class="cls-2" d="M42.83,227.23,36,223.51l.2.13-.2-.11c3.9,2.13,6.32,6.33,6.33,11.65,0,.25,0,.49,0,.74,0,.42-.06.84-.12,1.26a17.38,17.38,0,0,1-1.48,5.1l-.13.27c-.16.32-.32.65-.5,1-.29.51-.59,1-.93,1.5l-.37.51c-.23.3-.46.6-.7.88s-.41.5-.63.73l-.27.28a16.2,16.2,0,0,1-8.42,4.7,2.09,2.09,0,0,1-.69.12c-.37.05-.75.09-1.12.11h-.16a7.85,7.85,0,0,1-1,0h-.18c-.32,0-.65-.05-1-.1l-.15,0a10.34,10.34,0,0,1-1.08-.22,11.51,11.51,0,0,1-2.57-1l.86.47-.44-.19,6.42,3.5h0l.41.21a11.43,11.43,0,0,0,2.14.79l-.25-.13.21.06,0,0h0a11.7,11.7,0,0,0,4.64.24l.7-.12a14.43,14.43,0,0,0,3.49-1.15l0,0h0l.55-.29,0,0c.38-.2.75-.41,1.11-.64l.21-.13c.14-.08.28-.16.41-.25h0l.59-.44.14-.1q.52-.41,1-.84l0,0c.49-.45,1-.93,1.4-1.42a.08.08,0,0,1,0,0h0a17.77,17.77,0,0,0,4.55-11.41c0-.06,0-.13,0-.19h0C49.2,233.57,46.74,229.36,42.83,227.23Z"/><path class="cls-3" d="M44.11,209.63c-.26-.15-.54-.29-.81-.42l-.71-.33-.3-.13c-.54-.24-1.09-.45-1.65-.65l-.19-.06c-.63-.22-1.27-.42-1.91-.58l-.27-.05c-.79-.2-1.61-.36-2.46-.5h-.06c-.75-.12-1.53-.21-2.32-.28l-.8-.07c-.41,0-.83,0-1.26-.06a37.2,37.2,0,0,0-3.95,0,13.41,13.41,0,0,1-4-.36l-.35-.08-.16-.05a13,13,0,0,1-2.32-.95l.45.25-.06,0,1.32.71,5.13,2.79.4.2v0a11.54,11.54,0,0,0,1.91.72l.21.06.15,0,0,0h.05l.11,0a12.63,12.63,0,0,0,4.07.37c1.33-.07,2.61-.07,3.85,0,.47,0,1,0,1.42.06l.59,0a38.65,38.65,0,0,1,5.22.86l.7.2.84.25c.29.1.58.19.87.3l.13,0c.72.27,1.44.57,2.13.91.31.15.63.29.94.46Z"/><path class="cls-4" d="M49.24,192.75c-.52-5.52-3.17-9.52-6.81-11.52l-6.84-3.72c3.65,2,6.29,6,6.81,11.52.27,3.33,1.44,5.53,3.27,6.53l6.84,3.72C50.68,198.28,49.56,196.08,49.24,192.75Z"/><path class="cls-5" d="M47.53,166.36l.94.48.08,0c.52.25,1.05.5,1.63.75s1.15.53,1.69.83L45,164.74l-.79-.41-.91-.42c-.56-.24-1.08-.48-1.59-.73l-1.06-.54Z"/><path class="cls-6" d="M0,196c0,.51,0,1,.07,1.51,0,.31,0,.62.06.92.07.82.16,1.63.3,2.44,1.4,8.29,5.89,14.66,12.4,18.2l6.84,3.72c-6.51-3.54-11.05-9.91-12.36-18.2a33.71,33.71,0,0,1,1.76-17.3c.21-.56.43-1.12.67-1.67s.36-.81.56-1.22.29-.61.44-.91c.36-.7.73-1.38,1.14-2.06h0a34.84,34.84,0,0,1,3-4.23c.13-.17.27-.33.41-.5.45-.54.92-1.06,1.41-1.58l.33-.35c.57-.59,1.16-1.17,1.78-1.74l.13-.12c.68-.61,1.38-1.2,2.11-1.77l.55-.41A40.86,40.86,0,0,1,26,167.79a4.81,4.81,0,0,0,1.45-1.21l.06-.07.05-.09a.33.33,0,0,0,.06-.1l.05-.06a1.2,1.2,0,0,0,.13-.31v0h.07a4.32,4.32,0,0,0,.19-1.56,54.3,54.3,0,0,1,0-6.25,11.45,11.45,0,0,1,.64-2.94h0a12.48,12.48,0,0,1,.61-1.34,8.62,8.62,0,0,1,.61-1v0c.21-.29.42-.56.65-.82h0c.22-.25.46-.49.7-.72h0a6.68,6.68,0,0,1,.83-.66h0a6.5,6.5,0,0,1,1.12-.64,6.61,6.61,0,0,1,2-.6h0a5.26,5.26,0,0,1,.89-.06h.3a6.4,6.4,0,0,1,.87.08l.2,0c.21,0,.42.1.63.16l.39.12a6.31,6.31,0,0,1,.75.33l.12.06-.1-.05.1,0-6.84-3.72,0,0-.18-.1a7.22,7.22,0,0,0-.72-.29l-.13,0-.37-.12-.44-.09-.2,0a6.4,6.4,0,0,0-.87-.08h-.3a7,7,0,0,0-.91.06h0l0,0c-3.76.58-6.77,4.19-7.13,8.74a54.3,54.3,0,0,0-.05,6.25,3.06,3.06,0,0,1-.62,2.35l0,0,0,0h0a2.47,2.47,0,0,1-.28.28h0a3.57,3.57,0,0,1-.38.3c-.2.14-.41.28-.66.43-.94.54-1.84,1.12-2.71,1.72l-.14.09h0a40.8,40.8,0,0,0-7.13,6.28l-.15.17-.14.16c-.39.45-.77.9-1.14,1.36l-.45.59c-.3.39-.6.77-.87,1.16l0,0h0a35.87,35.87,0,0,0-2.25,3.68l0,0c-.51.95-1,1.94-1.37,2.93-.12.27-.22.54-.32.8s-.22.52-.31.78-.15.43-.22.65-.22.64-.32,1c-.15.49-.29,1-.42,1.49-.08.29-.16.58-.23.87-.16.7-.31,1.4-.42,2.11-.06.32-.1.64-.14,1-.07.54-.15,1.08-.19,1.62,0,.36,0,.72-.07,1.07s0,.92-.06,1.39Z"/><path class="cls-7" d="M35.17,149.38c3.69-.52,7.41,1.92,7,6.16-.71,7.39,2.57,9.71,8,12.09,8.5,3.71,12.74,11.81,13.11,22.3.19,5.37-2.37,9-6.6,9.8l-.47.08c-4,.57-6.49-1.88-7-7.06-.82-8.71-7-13.76-14-12.77a14.89,14.89,0,0,0-5.93,2.26c-5.63,3.59-9.09,10.95-8.09,17.2,1.11,6.92,6.22,11.17,13,10.8,15.44-.83,25,5.87,28.25,19.7s-3.7,29.9-16.51,37.19c-3.18,1.81-4.14,3.68-3.78,7A18.84,18.84,0,0,1,42,279c-.73,4.15-3.5,7.06-7,7.55-3.73.41-7.51-2-7-5.94,1.09-7.92-3-9.91-8.26-12.36-8.1-3.77-12.1-11.59-12.74-19.36-.27-7.94,2.09-11.74,6.39-12.68.2,0,.41-.08.6-.11,4-.56,6.63,2.23,7,7.43.64,8.17,6.59,13.46,13.8,12.45l.7-.12C43,254.39,49,246.91,49.06,238.91c.07-8.21-5.83-13.79-13.83-13.11-14.5,1.23-25.78-7.28-28-21.21C4.91,190.16,12.1,175.84,26,167.79c1.62-.94,2.1-1.75,2-3.42a54.3,54.3,0,0,1,0-6.25C28.4,153.57,31.41,150,35.17,149.38Z"/><path class="cls-8" d="M235.76,235a8.38,8.38,0,0,0-1-.42l-.39-.12-.1,0a7.16,7.16,0,0,0-2.06-.22h0a21.44,21.44,0,0,0-2.78.26l-.93.13c-3.89.49-6.38.86-8,.56a2.65,2.65,0,0,1-.3-.06c-.1,0-.2-.07-.3-.1a2.52,2.52,0,0,1-.41-.17l.12.07,6.84,3.72.3.1.28.1.07,0v0c1.58.39,4.13,0,8.21-.52l.93-.13A21.44,21.44,0,0,1,239,238a9.56,9.56,0,0,1,1.07,0l.14,0,.75.12a7.52,7.52,0,0,1,1.47.51l.15.07-.07,0,.09,0Z"/><path class="cls-9" d="M210.43,281.62a11,11,0,0,1-.27-2.23c-.2-6.35-.15-12.75,0-19.16,0-1.38-.17-2.17-.79-2.5L202.54,254c.61.33.79,1.12.79,2.5-.13,6.41-.18,12.81,0,19.16.08,3.2,1.35,5.51,3.35,6.6l6.77,3.69.06,0h0l-.17-.1A6.52,6.52,0,0,1,210.43,281.62Z"/><path class="cls-10" d="M242.64,208.24l-6.84-3.72c-.23-.11-.47-.19-.7-.28l-.19-.07-.51-.17-.07,0-.68-.13a8.79,8.79,0,0,0-2.94-.07c-1.17.13-2.34.28-3.5.44l-2.43.36-2.2.32-2.19.29a3,3,0,0,0-.54.11l-.5.1a1.33,1.33,0,0,1-.86-.11l.2.11-.17-.06,6.84,3.72.19.07-.46-.25h0l.46.25a1.72,1.72,0,0,0,.64,0l.5-.1a3,3,0,0,1,.54-.11l2.19-.29,2.2-.32,2.43-.36c1.16-.16,2.33-.31,3.5-.44a10,10,0,0,1,2.94.06c.23,0,.45.09.68.15h0c.19,0,.39.11.58.18l.19.07.48.21-.11-.06.06,0,0,0,.22.11-.2-.11Z"/><path class="cls-11" d="M207.68,242.35a4.14,4.14,0,0,0,1.18-.32l-.05,0h0a2,2,0,0,0,1-.92h0l0-.06,0-.09.09-.2h0a5.85,5.85,0,0,0,.28-1.71c.08-2.13.16-3.88.16-5.32,0-3.16-.33-4.8-1.63-5.49l-6.84-3.72.34.22-.34-.18c1.29.71,1.63,2.33,1.63,5.46,0,1.42-.08,3.16-.16,5.27a6.4,6.4,0,0,1-.07.88v0a5,5,0,0,1-.2.85h0a.58.58,0,0,1-.05.14,1.08,1.08,0,0,1-.08.19v0h0l-.13.21h0l-.14.18-.15.15-.2.16,0,0h0l0,0a2.68,2.68,0,0,1-.33.18l0,0a4.08,4.08,0,0,1-1.2.33h-.35c-1.72.18-3.44.37-5.16.62s-3.44.52-5.16.83a9.83,9.83,0,0,0-5.08,2.32h0a1.14,1.14,0,0,0-.11.11l-.2.2c-.11.12-.23.22-.33.34h0a8.36,8.36,0,0,0-.94,1.35l-.07.12h0a7.13,7.13,0,0,0-.47,1.05h0a9.48,9.48,0,0,0-.55,3.38c.06,2.75,1.12,4.83,3.06,5.83l6.83,3.72c-1.93-1.05-3-3.08-3.06-5.83,0-.31,0-.62,0-.92a9.75,9.75,0,0,1,.52-2.44v0h0a7,7,0,0,1,.47-1h0v0a5.58,5.58,0,0,1,.46-.73,5,5,0,0,1,.53-.68h0A7.49,7.49,0,0,1,192,246a7.57,7.57,0,0,1,.63-.49l.15-.11a10.1,10.1,0,0,1,1.2-.69l.08,0v0a11.93,11.93,0,0,1,2.92-.91c1.72-.31,3.44-.59,5.16-.83s3.44-.45,5.16-.62Z"/><path class="cls-12" d="M247.89,153.39l.47.12.45.17c.17.08.34.14.51.23l-.21-.11h0l-6.84-3.72c-.1-.05-.21-.07-.31-.12l-.45-.17-.24-.09.1.05h0l-.09-.05-.22,0a4.49,4.49,0,0,0-.64-.1l-.27,0a4.85,4.85,0,0,0-1,0,7.08,7.08,0,0,0-1,.23l0,0a6.13,6.13,0,0,0-.91.36h0c-.14.06-.26.14-.39.2l0,0a10.19,10.19,0,0,0-1,.58l-.24.18c-.27.21-.55.43-.83.67-.06,0-.13.09-.19.15h0l0,0h0l-.11.11c-.34.31-.67.65-1,1l-.2.21h0c-.14.15-.28.3-.41.47-6.66,8.06-13.34,16.08-19.84,24.28a5.8,5.8,0,0,1-1.72,1.61h0a1.59,1.59,0,0,1-.47.14,1.57,1.57,0,0,1-.53,0l-.14-.05-.28-.15h-.09l.09.05h0l1.21.66,5.53,3h0l.07,0a1.75,1.75,0,0,0,.32.12l.06,0h0a1.14,1.14,0,0,0,.37,0h.16a1.45,1.45,0,0,0,.46-.15h0l0,0h0l.29-.18h0a3.51,3.51,0,0,0,.36-.29h0a7.8,7.8,0,0,0,.57-.58l0,0,0,0h0l.45-.54c6.51-8.2,13.19-16.22,19.85-24.28.13-.17.27-.33.41-.48h0l.18-.2c.32-.35.66-.7,1-1l.13-.12h0v0l.19-.16c.27-.24.55-.46.83-.67l.23-.16h0a8.4,8.4,0,0,1,1-.6h0c.15-.08.29-.14.43-.2a7.82,7.82,0,0,1,.91-.36l0,0a6.73,6.73,0,0,1,1-.23,4.66,4.66,0,0,1,1,0l.28,0A4.58,4.58,0,0,1,247.89,153.39Z"/><polygon class="cls-13" points="249.35 153.91 242.51 150.19 242.3 150.08 249.14 153.8 249.35 153.91"/><path class="cls-14" d="M200.84,208h0l-2.83.31c-.94.11-1.88.23-2.82.37l-2.55.39c-.85.13-1.69.28-2.54.45-.41.08-.79.18-1.16.29l-.36.12q-.45.15-.87.33a1.89,1.89,0,0,1-.21.09h0a10.07,10.07,0,0,0-1.36.79h0l0,0c-.3.21-.58.43-.85.66h0l-.07.06c-.19.18-.37.36-.54.55l-.08.08h0l0,.06a8.38,8.38,0,0,0-.52.66v0h0a1.37,1.37,0,0,0-.13.2c-.08.13-.17.26-.24.39s-.11.16-.15.24h0a8.28,8.28,0,0,0-.5,1.09h0a1.27,1.27,0,0,0-.06.18c-.08.26-.16.52-.22.78,0,.07,0,.15-.05.22,0,.25-.1.5-.13.76,0,.1,0,.2,0,.31s0,.42,0,.64,0,.26,0,.4a8,8,0,0,0,.06,1,5.48,5.48,0,0,0,2.74,4.61l6.84,3.72a5.48,5.48,0,0,1-2.74-4.61,7.77,7.77,0,0,1-.06-1,3,3,0,0,1,0-.42c0-.21,0-.42,0-.62a2.91,2.91,0,0,1,0-.31,7.81,7.81,0,0,1,.14-.82s0-.08,0-.12a8.83,8.83,0,0,1,.3-1h0a7.23,7.23,0,0,1,.49-1.1h0l.08-.15c.12-.2.24-.41.38-.6a.22.22,0,0,1,0-.08h0a5.9,5.9,0,0,1,.58-.74h0l0-.05c.21-.22.42-.44.65-.64a9.6,9.6,0,0,1,.79-.64l.1-.06h0c.21-.15.43-.29.65-.42l.13-.07.58-.3.25-.1a7.61,7.61,0,0,1,.79-.31l.41-.13a8.65,8.65,0,0,1,1.14-.29c.84-.17,1.69-.32,2.54-.45l2.55-.39c.94-.14,1.88-.26,2.82-.37l2.82-.31L200.84,208Z"/><path class="cls-15" d="M203.44,204.92a6.49,6.49,0,0,1-.29,1.57h0l0,.1c0,.05,0,.11-.07.17l0,0h0l-.13.2h0l-.05.07-.07.1a1.76,1.76,0,0,1-.28.26l0,0a2.43,2.43,0,0,1-.35.2,4.83,4.83,0,0,1-.64.22,5.59,5.59,0,0,1-.66.12l6.83,3.73a4.34,4.34,0,0,0,1.3-.35h0a2.68,2.68,0,0,0,.33-.18h0l.19-.14h0a.67.67,0,0,0,.14-.15l0,0,0,0,.08-.09h0v0c0-.06.07-.11.11-.18h0l0-.07,0-.08.09-.18h0a5.91,5.91,0,0,0,.3-1.57c.49-6.14-.7-10.79-5.29-14.48-6.93-5.55-13.15-12.07-19.63-18.23-2.88-2.72-3.76-5.77-2.67-8.78h0a7,7,0,0,1,.52-1.15,7.9,7.9,0,0,1,.66-1.07l.41-.56.39-.46a8.51,8.51,0,0,1,.79-.8,6.86,6.86,0,0,1,.84-.67h0a7.83,7.83,0,0,1,.79-.47,5.22,5.22,0,0,1,.54-.24l.15-.06a5.62,5.62,0,0,1,.58-.19,5.86,5.86,0,0,1,.75-.17h0a6.6,6.6,0,0,1,2.08.07l.18,0,.2.06A8.87,8.87,0,0,1,193,162l.31.16L193,162c.1.06.21.09.31.15l-6.84-3.72-.13-.06-.18-.1-.31-.13a6.61,6.61,0,0,0-.74-.28l-.39-.13-.18,0-.18,0a6.53,6.53,0,0,0-2.07-.07h0a6.14,6.14,0,0,0-.74.18,4.65,4.65,0,0,0-.63.21l-.08,0-.34.13h0l0,0-.23.13a7.61,7.61,0,0,0-2.79,2.38,9.9,9.9,0,0,0-1.6,2.81l0,0c-1.11,3-.22,6.06,2.66,8.79,6.48,6.16,12.7,12.68,19.63,18.23C202.73,194.13,203.92,198.78,203.44,204.92Z"/><path class="cls-16" d="M189.15,161.3c2.08-.29,4.28.51,6.36,2.44,6.64,6.17,13.29,12.34,19.79,18.68.88.87,1.56,1.3,2.25,1.2s1.34-.66,2.22-1.78c6.51-8.2,13.19-16.22,19.85-24.28,2.08-2.52,4.3-3.95,6.38-4.25a5.55,5.55,0,0,1,4.8,1.69c3.09,3.05,2.78,7.16-1.05,11.86q-11.24,13.75-22.52,27.44c-2,2.39-3.53,11.59-2.46,14a1.19,1.19,0,0,0,1.42.78l.5-.1a3,3,0,0,1,.54-.11l2.19-.29,2.2-.32,2.43-.36c1.16-.16,2.33-.31,3.5-.44,5.21-.55,8.14,2,8.07,6.82s-3.19,8-8.38,8.83c-1.7.27-3.4.55-5.1.79-1.46.2-2.93.38-4.39.51l-.55.06c-1.77.25-2.53.94-2.58,3.43-.22,11.9-.32,11.92,10.66,10.4l.93-.13A21.56,21.56,0,0,1,239,238c4.14-.07,6.58,2.46,6.57,6.66a8.68,8.68,0,0,1-7,8.7c-1.8.34-3.58.63-5.36.88s-3.87.5-5.8.69H227c-1.79.25-2.6,1-2.45,3.24.19,3.08,0,6.23,0,9.35s.08,6.53,0,9.82c-.19,4.91-3,8.61-7,9.31-4.27.61-7.28-2.22-7.41-7.23-.18-6.35-.13-12.75,0-19.16.06-2.21-.52-2.9-2.34-2.64l-.43.07c-1.55.3-3.11.55-4.66.77-1.89.26-3.77.49-5.66.71-4.8.56-7.83-2-7.86-6.57s2.77-8,7.77-8.86c1.72-.31,3.44-.58,5.16-.83s3.44-.45,5.16-.62h.35c1.81-.25,2.48-1,2.56-3.31.49-12.05.56-12.05-10.48-10.51-6.69.94-9.93-.71-10.43-5.26-.54-4.92,2.46-8.95,7.61-9.94,1.69-.33,3.39-.6,5.09-.84,1.88-.27,3.77-.48,5.64-.68s2.48-1,2.64-3.08c.49-6.14-.7-10.79-5.29-14.48-6.93-5.55-13.15-12.07-19.63-18.23-3.77-3.57-4.13-7.7-1.07-11.57A7.59,7.59,0,0,1,189.15,161.3Z"/><path class="cls-17" d="M168.74,76.58a2,2,0,0,1,.22.08l.29.15-.18-.1-.09,0,.14,0L162.28,73a5.16,5.16,0,0,0-1-.35l.19.1-.11,0-.06,0a6.45,6.45,0,0,0-.86-.15,9.55,9.55,0,0,0-2,0,7.57,7.57,0,0,0-1.82.51h0l-.26.1,0,0h0l0,0c-.17.08-.31.18-.47.27l-.18.11a4.05,4.05,0,0,0-.35.21,3.67,3.67,0,0,0-.29.23l-.15.12c-.1.08-.2.15-.3.24h0a7.06,7.06,0,0,0-.67.67l0,0h0c-.12.13-.21.27-.32.4l-.09.12a3.4,3.4,0,0,0-.23.3h0a10.32,10.32,0,0,0-.7,1.13l0,0a4.16,4.16,0,0,0-.24.47,5.75,5.75,0,0,0-.33.77l0,0c-.19.62-.33,1.25-.46,1.88-.05.25-.1.5-.14.75,0,0,0,.09,0,.14a15.61,15.61,0,0,0-.22,2.56v.09a.77.77,0,0,0,0,.15c0,.59-.11,1.18-.2,1.77,0,.25-.09.51-.13.76s-.15.78-.24,1.17-.12.52-.19.78-.22.79-.34,1.18c-.07.22-.14.45-.22.67-.14.41-.3.8-.47,1.2-.09.23-.18.47-.28.7l-.09.18c-.22.47-.44.93-.68,1.38a27.67,27.67,0,0,1-1.57,2.55h0c-.55.77-1.13,1.51-1.75,2.22l-.27.31-.22.25-.51.52-.78.8-.7.66-.68.61c-.27.23-.53.46-.81.68s-.71.56-1.07.82l-.39.29a23.35,23.35,0,0,1-3.38,2l-.33.14c-.46.2-.93.4-1.4.57l-.43.14c-.42.14-.84.27-1.26.38l-.62.15q-.56.12-1.11.21l-.68.1c-.39,0-.78.08-1.18.1l-.49,0c-.48,0-1,0-1.44,0H127c-.55,0-1.09-.09-1.63-.16l-.13,0c-.6-.09-1.19-.21-1.77-.35l-.49-.13c-.57-.15-1.13-.32-1.68-.52l-.14,0c-.5-.19-1-.4-1.47-.63-.31-.14-.61-.29-.91-.45l6.83,3.72.63.33.25.11q.73.34,1.5.63l.18.06c.5.18,1,.34,1.52.47l.22.07.4.1a18.79,18.79,0,0,0,7.16.38h.12c.59-.09,1.17-.2,1.74-.34l.09,0A18.75,18.75,0,0,0,143,109l.05,0a24.66,24.66,0,0,0,3.26-1.89l-.06,0,0,0h0a29.61,29.61,0,0,0,2.78-2.21c.77-.69,1.52-1.44,2.26-2.24l.35-.39a29.17,29.17,0,0,0,1.89-2.39l0,0h0l0,0a27.67,27.67,0,0,0,1.57-2.55h0a25.28,25.28,0,0,0,1.41-3.14,24.8,24.8,0,0,0,1.45-6.8,20.4,20.4,0,0,1,.43-3.81,17,17,0,0,1,.75-2.39c.08-.17.17-.32.26-.48a11.68,11.68,0,0,1,.66-1.06h0a3.37,3.37,0,0,1,.21-.31l.16-.21a8.57,8.57,0,0,1,1.23-1.25l.2-.16c.19-.14.39-.28.6-.41l.21-.12a7.14,7.14,0,0,1,.73-.37h0a7.26,7.26,0,0,1,1.8-.49,9.55,9.55,0,0,1,2,0,5,5,0,0,1,2,.6Z"/><path class="cls-18" d="M151.14,23.14a17.35,17.35,0,0,0-2.65-1.79l-6.84-3.71a16.16,16.16,0,0,1,2.65,1.78c4.67,3.82,6.81,9.16,7.21,15.82.2,3.2,1.45,5.4,3.33,6.4l6.55,3.56c.09.06.18.13.29.19v0c-1.88-1-3.13-3.2-3.33-6.37C158,32.3,155.81,27,151.14,23.14Z"/><path class="cls-19" d="M117.83,74.15c1.44.84,4.07.42,8.78-.24,1.93-.27,3.8-.56,5.68-.83,1.29-.18,2.58-.35,3.86-.49a7.75,7.75,0,0,1,1-.07h.72l.2,0c.33,0,.66.07,1,.13a8.41,8.41,0,0,1,2.22.74l-6.84-3.72-.24-.13a7.4,7.4,0,0,0-1.36-.5l.12.06h-.06l-.09-.05c-.2,0-.39-.08-.58-.11a7.8,7.8,0,0,0-1-.13l-.22,0h-.71c-.33,0-.66,0-1,.07-1.29.14-2.58.31-3.87.49-1.88.27-3.75.56-5.67.83-3.86.5-6.26.87-7.82.55l-.13,0h0a2.77,2.77,0,0,1-.63-.22l.06,0a1.57,1.57,0,0,1-.23-.09Z"/><path class="cls-20" d="M113.93,119.84c-.46-.37-.91-.76-1.34-1.16a28.69,28.69,0,0,1-3.62-4c-.36-.48-.72-1-1.06-1.49A31.9,31.9,0,0,1,106,110a36.21,36.21,0,0,1-1.55-3.53,35.38,35.38,0,0,1-1.63-5.85c-.14-.68-.25-1.37-.35-2.08-.36-2.53-.91-4.08-2.15-4.76l-6.84-3.72c1.24.68,1.79,2.23,2.15,4.76,1.59,11.3,7.59,19.77,15.8,24.24l6.84,3.72c-.52-.28-1-.58-1.52-.89A28.43,28.43,0,0,1,113.93,119.84Z"/><path class="cls-21" d="M137.77,42.12c.18,0,.36,0,.53,0l.54.06a8.52,8.52,0,0,1,2.48.78l-6.83-3.73-.05,0-.2-.1a6.53,6.53,0,0,0-1.34-.49l.09.05h0l-.07,0-.61-.12a8.62,8.62,0,0,0-2.15-.14h0a8.65,8.65,0,0,0-.89.08c-3.08.39-6.18.68-9.26,1.12-2.15.3-4.29.67-6.42,1.18-.33.08-.67.15-1,.2a2,2,0,0,1-.24,0l-.41,0a3.46,3.46,0,0,1-1.27-.21l-.11-.06h-.07l6.84,3.72h0l0,0a1.57,1.57,0,0,0,.38.14v0a4.36,4.36,0,0,0,.52,0h.42a3.7,3.7,0,0,0,.66-.07h0a8.85,8.85,0,0,0,1-.2c2.13-.51,4.27-.88,6.42-1.18,3.08-.44,6.18-.73,9.26-1.12h.07a7.77,7.77,0,0,1,1-.08Z"/><path class="cls-22" d="M149.38,4.71l-.19-.1.16,0,0,0v0a30,30,0,0,1,5.72,2.12l-.55-.3c.55.26,1.1.52,1.64.81l-6.83-3.72-1.1-.56.37.2a30.07,30.07,0,0,0-15-3.23h0c-.38,0-.76,0-1.14.08-.62,0-1.23.1-1.84.19L137.5,4c.59-.09,1.19-.14,1.79-.19A30.42,30.42,0,0,1,149.38,4.71Z"/><path class="cls-23" d="M87.75,87.4a7.85,7.85,0,0,1,0-.84l0-.23a5.42,5.42,0,0,1,.06-.58c0-.11.05-.22.07-.34A3.84,3.84,0,0,1,88,85c0-.09,0-.17.07-.25s.11-.36.18-.54a7.3,7.3,0,0,1,.41-.9l.15-.28c.09-.16.19-.32.29-.47l.25-.36a3.47,3.47,0,0,1,.3-.37,7.93,7.93,0,0,1,1-1.06c.28-.24.56-.46.86-.67l.32-.22.18-.11.47-.27.42-.21.32-.15.47-.2.42-.16.37-.13.71-.2.13,0a9.39,9.39,0,0,1,1-.2,18.43,18.43,0,0,0,2.22-.4,9.16,9.16,0,0,0,1.69-.5h0a2.56,2.56,0,0,0,.8-.57v0a.86.86,0,0,0,.07-.1l0,0,0-.06h0l.14-.22h0a0,0,0,0,1,0,0,1.42,1.42,0,0,0,.08-.18l.06-.12v0a7.28,7.28,0,0,0,.32-2.12,17.48,17.48,0,0,0,0-2.61V69.45c0-3.67,0-5.26-1.1-5.87l-6.84-3.72c1.1.61,1.1,2.2,1.1,5.87v1.79c0,1.07,0,1.94,0,2.66a16,16,0,0,1-.31,2.06h0c0,.11-.09.22-.14.33l-.13.21h0l-.15.18h0l-.15.15h0l-.22.17h0l0,0a1.87,1.87,0,0,1-.39.22l0,0c-.55.19-1.11.35-1.67.49s-1.36.26-2.24.41c-.32,0-.63.12-.93.19l-.21.06-.63.18L87.3,75l-.38.14-.47.2-.19.08-.15.08c-.14.06-.26.13-.39.2l-.47.26-.24.15c-.09.06-.19.11-.28.18h0a8.94,8.94,0,0,0-1,.75h0a7.38,7.38,0,0,0-.74.74h0c-.07.07-.12.16-.18.23l-.32.4-.09.13a1.1,1.1,0,0,0-.09.14q-.17.24-.3.48c0,.08-.1.15-.14.23l-.06.12a9.52,9.52,0,0,0-.41.92v0a1.87,1.87,0,0,0-.07.22,4.32,4.32,0,0,0-.16.51c0,.17-.08.34-.12.52s0,.16,0,.25a8.48,8.48,0,0,0-.11,1.67,6.47,6.47,0,0,0,3.16,5.78l6.84,3.72A6.45,6.45,0,0,1,87.75,87.4Z"/><path class="cls-24" d="M81.33,50.63A8.36,8.36,0,0,0,81,53.07a6.12,6.12,0,0,0,3.1,5.75l6.84,3.72h0a6.14,6.14,0,0,1-3.12-5.75,8.11,8.11,0,0,1,.52-3h0a8.66,8.66,0,0,1,.48-1.08h0v0a7.73,7.73,0,0,1,.54-.86l0,0h.06a6.36,6.36,0,0,1,.6-.77l0,0h0l0,0a7.38,7.38,0,0,1,.74-.74l0,0a8.9,8.9,0,0,1,1-.73l0,0a10,10,0,0,1,1.46-.84h0a11.61,11.61,0,0,1,3-.93c.47-.08,1-.18,1.47-.24a5.55,5.55,0,0,1,1-.09,7.26,7.26,0,0,0,.93-.06,3.46,3.46,0,0,0,.94-.26h0v0l.32-.19-.07,0h0l.07,0,0,0,.21-.16.17-.18h0a1.2,1.2,0,0,0,.17-.21,2.61,2.61,0,0,0,.17-.28s0-.09,0-.13a1.17,1.17,0,0,0,.05-.11c0-.08.08-.16.11-.24v0a8.7,8.7,0,0,0,.4-1.82c.1-.81.23-1.61.36-2.41.05-.25.08-.51.12-.76.16-.87.35-1.74.55-2.6l.09-.44a58.19,58.19,0,0,1,1.67-5.61l.15-.43a45.34,45.34,0,0,1,2.7-6h0l0,0h0c.14-.27.3-.53.45-.8.31-.54.62-1.09.94-1.61s.49-.75.73-1.12.52-.78.79-1.16.51-.69.77-1,.53-.7.81-1,.64-.79,1-1.17l.51-.56a41.75,41.75,0,0,1,3-3h0a41.5,41.5,0,0,1,4.18-3.3,44.42,44.42,0,0,1,6.28-3.61h0c.76-.36,1.53-.72,2.33-1a33.48,33.48,0,0,1,8-2.17L130.66.3a33.48,33.48,0,0,0-8,2.17l-.56.25c-.6.24-1.19.5-1.77.77a3.59,3.59,0,0,0-.34.17l-.36.17c-.78.39-1.55.79-2.3,1.22l-.19.1c-.77.44-1.52.91-2.26,1.4l-.38.25-.45.3c-.42.29-.82.6-1.22.9l-.72.53c-.54.42-1.06.87-1.58,1.32-.2.17-.4.32-.59.49l-.06.06c-.65.58-1.28,1.19-1.89,1.81-.14.15-.28.31-.43.46-.34.36-.69.72-1,1.1-.14.15-.26.3-.38.45s-.34.41-.51.61c-.44.53-.86,1.07-1.27,1.62L104,17c-.11.15-.23.3-.33.45-.33.46-.62.93-.93,1.41-.1.16-.22.32-.32.49-.51.82-1,1.65-1.46,2.51h0a47.64,47.64,0,0,0-2.68,6c0,.05,0,.1,0,.15h0c-.09.23-.15.46-.23.69-.25.71-.49,1.42-.71,2.15-.11.36-.2.73-.3,1.09-.17.59-.34,1.18-.48,1.78a55.46,55.46,0,0,0-1.19,6.4,9.36,9.36,0,0,1-.39,1.82h0c-.07.16-.14.32-.22.48a2.61,2.61,0,0,1-.17.28l-.16.21h0l-.18.18h0l-.21.15h0l-.32.19h0a3.46,3.46,0,0,1-.94.26,7.54,7.54,0,0,1-.94.06,5.55,5.55,0,0,0-1,.09c-.47.06-1,.16-1.47.24-.2,0-.38.09-.57.13l-.49.12a11.83,11.83,0,0,0-1.15.37l-.42.16c-.12.06-.25.09-.37.15a9,9,0,0,0-1.47.86h0a7.89,7.89,0,0,0-.65.49,4.08,4.08,0,0,0-.33.25h0a8.5,8.5,0,0,0-.73.74h0a6.44,6.44,0,0,0-.61.77l0,0h0l-.13.2c-.07.11-.14.22-.2.33s-.14.22-.2.33h0l-.08.15v0a7.36,7.36,0,0,0-.42.9h0c-.07.18-.13.37-.18.55Z"/><path class="cls-25" d="M137.5,4c18.28-2.57,34.73,11.27,35.19,31.81.11,5-2.6,9.09-6.68,10l-.63.12c-3.82.54-6.72-2-7-7-.4-6.66-2.54-12-7.21-15.82a17.36,17.36,0,0,0-13.63-3.65c-9.3,1.31-18.42,9.15-20.72,20.31-.61,2.93-.94,5.39,2.59,4.9a8.85,8.85,0,0,0,1-.2c2.13-.51,4.27-.88,6.42-1.18,3.08-.44,6.18-.73,9.26-1.12,5-.65,8.39,2,8.42,6.51s-3.27,8.18-8.34,9c-2.82.46-5.64.9-8.46,1.29s-5.64.76-8.46,1.07c-2.43.34-3,1.31-3,3.7-.25,11.61-.32,11.63,10.39,10.13,1.93-.27,3.8-.56,5.68-.83,1.29-.18,2.58-.35,3.86-.49,5-.55,8.35,2.23,8.27,6.74s-3.46,8.11-8.46,9c-1.08.18-2.15.34-3.23.49-1.67.24-3.35.45-5,.69s-3.38.57-5.07.81a26.26,26.26,0,0,1-3.18.28,5.69,5.69,0,0,0-.83.06c-2.82.4-2.5,2.54-2,4.68,1.72,8,6.25,13.21,13.69,15a19.24,19.24,0,0,0,7.25.39c5-.7,9.64-3.45,13.83-8A24.89,24.89,0,0,0,158,87.34a16.52,16.52,0,0,1,1.18-6.21c1.42-2.94,3.54-4.51,6.08-4.87a9.55,9.55,0,0,1,2,0c3.4.3,5.47,3.65,5.33,8.17-.51,16.36-11.68,33-26.29,39.06a37.63,37.63,0,0,1-9.18,2.56c-17,2.39-32-8.6-34.62-27.47-.56-4-1.62-5.55-5.07-5.06a5.42,5.42,0,0,0-1.17.22,7.24,7.24,0,0,1-.9.16c-4.57.65-7.5-2.19-7.61-6.45-.14-4.63,3.31-8.33,8.58-9.23,5.48-.93,5.48-.93,5.5-6.93V69.45c0-6.47,0-6.47-6.07-6-4.87.35-8-2.22-8-6.63s3.33-8.15,8.32-9c.49-.08,1-.18,1.47-.24a5.55,5.55,0,0,1,1-.09,7.26,7.26,0,0,0,.93-.06c1.57-.22,2.29-1.08,2.6-3.58,2.33-18.21,12.07-31.41,27.37-37.63A33.15,33.15,0,0,1,137.5,4Z"/></g></g></g></g></svg>