<svg xmlns="http://www.w3.org/2000/svg" xmlns:xlink="http://www.w3.org/1999/xlink" viewBox="0 0 1365.26 893.22"><defs><style>.cls-1{fill:none;clip-rule:evenodd;}.cls-2{fill:#f1f8ff;}.cls-10,.cls-13,.cls-16,.cls-19,.cls-2,.cls-20,.cls-21,.cls-29,.cls-38,.cls-39,.cls-6{fill-rule:evenodd;}.cls-20,.cls-3{fill:#c3dcfa;}.cls-4{clip-path:url(#clip-path);}.cls-5{fill:url(#linear-gradient);}.cls-6{fill:#56b7fa;}.cls-7{fill:#399bdd;}.cls-8{fill:#52b9ff;}.cls-9{fill:#0482d7;}.cls-10,.cls-15{fill:#fff;}.cls-11{fill:#cee1ff;}.cls-12{fill:#8ab3ef;}.cls-13{fill:#bde2ff;}.cls-14,.cls-21{fill:#7ba9e3;}.cls-16,.cls-35{fill:#3d7dda;}.cls-17{fill:#0e57bf;}.cls-18,.cls-19{fill:#427dbc;}.cls-22{fill:#000446;}.cls-23{fill:#fda600;}.cls-24{fill:#ffd115;}.cls-25{fill:#fca700;}.cls-26{fill:#ec830e;}.cls-27{fill:#df641e;}.cls-28{fill:#ffc045;}.cls-29{fill:#ffcc69;}.cls-30{fill:#476dcf;}.cls-31{fill:#71bdf8;}.cls-32{fill:#f48120;}.cls-33{fill:#ef5b72;}.cls-34{fill:#2b3b8f;}.cls-36{fill:#d53356;}.cls-37{fill:#ddeaf8;}.cls-38{fill:#105dc4;}.cls-39{fill:#e7eff9;}</style><clipPath id="clip-path"><path class="cls-1" d="M402.62,276.38c6.27-.58,33.4,7,47.84,16.58,21.73,14.38,31.22-4.57,53.37-12.17s46.16,0,56.28,13.28c19,25-26.8,68.05-38.78,82.42-19,22.78-15.18,26.58-10.75,43.67,30.66,118.3,314.65,457.18-14,470.59-40.88,1.67-176.5,2.47-204-4-227.15-53.2,11.1-356.87,39.54-466.61,4.42-17.09,8.22-20.89-10.76-43.67-10-12-25.36-25.41-30.77-41.85-4.86-14.75-.6-32.87,4.19-39.15,10.12-13.29,10.77-4.95,32.92,2.64s24.1,3.53,45.83-10.85c14.43-9.55,22.85-11.48,29.13-10.9"/></clipPath><linearGradient id="linear-gradient" x1="445.31" y1="1410.34" x2="445.31" y2="-94.12" gradientUnits="userSpaceOnUse"><stop offset="0" stop-color="#1e9df8"/><stop offset="1" stop-color="#b9e4ff"/></linearGradient></defs><g id="Layer_2" data-name="Layer 2"><g id="Layer_1-2" data-name="Layer 1"><path class="cls-2" d="M727.12,31.33c68.71,25.89,134,81.32,185.47,133C1019.71,272,1035.7,294.59,1167.86,384.94c77,52.66,137.75,97.2,167.67,156.77,84,167.32-16.06,348-225.84,348H256.92s-100.31,2.3-173.51-87.13C-164.69,499.5,246.8-149.67,727.12,31.33"/><path class="cls-3" d="M174.74,494.79c-11.92-33.51-43.27-60.26-76.23-64.32a184.4,184.4,0,0,0,76.91,69.16q4.74,5.5,9.42,11c-25.73-18.71-60.36-21.25-85-5.81,28.83,14.31,61.77,16.89,87.42,8.61q8.08,9.59,16,19.27c-27.36-15.61-61.53-14.65-84.82,2.94,28,10.17,58.22,10.57,88.06,1q7.78,9.54,15.45,19.19c-11.78-7.78-26.37-9.86-39.41-7.55-15.15,2.68-28.54,10.6-41,19.4,27.77,7.5,56.85,5.94,84.3-6.91q8.38,10.65,16.63,21.41c-28.31-9.63-59.71-3.21-80.1,16.54,29.22,7.09,59.7,3.41,81.06-15.28q9.86,12.88,19.49,26c-32.66-11.86-69.39-4.79-92.88,18.29,31.75,4,63.65-.66,95-15.43q8,10.89,15.83,21.9c-15.93-4.63-32.74-3.91-47.27,2.13a68.8,68.8,0,0,0-36,35.6C227,667,254.9,656.07,282.9,637.08q5.76,8.11,11.44,16.31a88.71,88.71,0,0,0-74,41.32c28-3.9,54.07-16.52,74.68-40.35q9.6,13.85,18.94,27.87a79.44,79.44,0,0,0-69.58,38.31c-1.53,2.53-2.22,7,.68,8a4.35,4.35,0,0,0,2.92-.33c23.4-8.41,45.4-20.35,66.59-45.07q14.76,22.2,28.91,44.81c-27.33-10.05-58.08-4.76-78.36,13.89,28,7.11,57,6.57,80.73-10.07q8.45,13.58,16.67,27.31c-26.4-11.3-57.7-2.55-72.56,20.58,26.24,3.49,52.65-1.28,73.45-19.09q13,21.79,25.45,43.94l7.06,1.49q-9.3-16.63-18.84-33.12c15.54-2.82,27.4-16.9,32.08-34-15.52,3.07-28.64,14.3-34.8,29.35q-6.54-11.24-13.2-22.39c18.71-9.8,31.52-30,35.32-53-19.71,7.71-34.19,26.75-37.71,49q-9-15-18.28-29.84c22.22-7.41,37.77-24,46.13-44.49-22.64,1.05-42.47,17.39-49.16,39.66q-5.25-8.37-10.6-16.66c20.87-18.54,36.8-37.87,49.07-59.74-14.21,4-28.38,9.37-38.91,19.73-8.71,8.54-14.54,21.11-14,34.11q-8.91-13.71-18.07-27.21c24-14.46,39.54-36.81,43.75-62.65-25,6.74-43.93,30-47.38,57.33q-8-11.62-16.12-23.07C307.36,607,319,582,321,555a62,62,0,0,0-32.79,30A73.11,73.11,0,0,0,281,623.14q-8.21-11.4-16.64-22.6a99.88,99.88,0,0,0,31.94-76.39c-24.3,12.05-38.86,41-36.4,70.49q-7.92-10.42-16-20.65a102.08,102.08,0,0,0,18.31-87.59C241.72,505.78,232.91,537.71,239,568q-8.59-10.68-17.42-21.14c13.79-26.26,13.26-62.1-2.5-90.36-10.77,25.93-11.22,57.26-1.46,85.68q-10.35-12.12-21-23.92A140.14,140.14,0,0,0,179.05,422c-8.44,28.35-4.1,61.73,11.15,89.18q-7.63-8.29-15.46-16.41"/><g class="cls-4"><rect class="cls-5" x="65.39" y="273.2" width="759.84" height="620.02"/></g><path class="cls-6" d="M562.28,297.53c2.88,8.45,5.87,11.8,2.3,22.65-5.41,16.44-31.48,47-41.47,59-19,22.78-21.2,46-8.44,58.16,50.06,47.78,303.94,439.1,21,447.3,55.73-68.9,55.69-109.41,36.73-183.09-19.77-76.87-60.42-187.09-93-267.61,0,0-5-2.43-1.52-26.4,7.05-48.66,74.65-68.46,84.45-110"/><rect class="cls-7" x="316.9" y="398.21" width="207.08" height="35.7"/><rect class="cls-8" x="369.69" y="398.21" width="95.48" height="35.7"/><rect class="cls-9" x="327.01" y="433.91" width="187.16" height="7.22"/><path class="cls-10" d="M364.84,628a62.32,62.32,0,0,0-.47,12l-.18.49c.63.91,1.77,7.82,2.39,9.67,1.05,3.08,3,6,3.76,8.43.57.4,3.73,4.82,4.51,5.74,1.85,2.16,3.13,2.84,5.35,5,2.16,1.43,4.08,3,6.71,4.7a113.52,113.52,0,0,0,22.78,10.91c10.35,3.69,24.46,8.64,29.78,15.54,7.47,9.67,2.18,23.61-13.17,25.85-8.79,1.28-22.28.56-31.25-1.61-2.85-.68-5.75-1.76-8.58-2.44-2.55-1.13-12.24-4.62-13.5-5.82l-2.47-.61a5.88,5.88,0,0,1-1,3c.28,1.44-.8,5.34-1.41,6.55-.18,1.14-3.23,14.32-4.24,15.79.1,1.26-.37,4.68-.39,6.57a4.41,4.41,0,0,1,.78.52l1.3,1.21a24.54,24.54,0,0,1,6.66,2.51l15.34,4.39,7.13,1.46,10.78,1.4a5,5,0,0,1,2.2,0l.81.25c.75.3.37.15.61.38l.41,1.1c.31,2-.43,20.29.16,24.21h26.77c.55-8.13.26-17.61.32-25.77,0-2.88.6-2.22,3.35-2.87,7.48-1.77,10.82-3.9,15.08-5,.81-.75,5.88-3.18,7.47-4.23,1.25-.83,2.36-1.52,3.53-2.46a12.74,12.74,0,0,1,3.17-2.33c.63-1.18,5.83-6,9.88-13.08,5.62-9.84,4.18-13.84,5.71-17.27V701c-.66-1.67-.54-4.51-.92-6.48-2.4-12.21-12.08-22.75-22.25-29.08-17.84-11.1-53.41-17.64-55.35-32.92-1.11-8.78,6.48-13.77,13.62-15.47,8.31-2,18.92-1.22,26.94.53,5.79,1.27,21.77,7,22.23,7,1.27-1.62.93-3.47,2-4.73a18.8,18.8,0,0,1,1.41-6.08c.64-3.84,4.48-16.67,4-19.85-3-2.06-4.63-1.79-6.17-3.07l-.2.12c-1.73-.38-7.75-1.68-8.83-2.73-1.65.36-8.45-1.51-10.89-1.91s-10-.71-11.3-1.46c-2.84-1.67-.93-17.27-1.59-23.9H410.88c-.36,4.91.78,23.07-.84,25.81-2.23,2.46-37.43,4.67-45.2,41.22"/><path class="cls-3" d="M1239.84,545.24c18-22.28,49-34.23,75.08-28.51a148.4,148.4,0,0,1-76.89,32q-5.05,2.91-10.1,5.87c24.54-7.35,51.53,0,66.16,18.29-25.72,3.17-51.44-3.66-68.71-16.8q-8.7,5.11-17.32,10.35c24.94-4.55,50.64,5.3,63.64,24.89-24,.24-47-7.52-67.17-22.74q-8.46,5.17-16.86,10.45c11-2.76,22.66-.45,32,4.79,10.78,6.09,18.84,15.68,25.94,25.68-23.1-1.72-44.77-10.67-62.2-27.76q-9.21,5.85-18.35,11.82c24.08.25,46.22,13.51,56.43,34-24.08-2.42-46.26-13.36-57.49-33.26q-10.93,7.17-21.74,14.52c28-.29,54,14.89,65.67,38.69a136.5,136.5,0,0,1-68-37.08q-9,6.14-17.88,12.41a57.59,57.59,0,0,1,35.34,14.24,55.44,55.44,0,0,1,17.85,36.65c-21-11.57-39.29-27.36-55.49-49.26q-6.56,4.63-13,9.33a71.48,71.48,0,0,1,45.19,51.15c-20.22-10.43-36.67-27-46-50.59q-11,8-21.82,16.12a64,64,0,0,1,42.62,47.68c.48,2.33-.19,5.93-2.66,5.9a3.58,3.58,0,0,1-2.13-1c-15.53-12.64-29.05-27.58-38.55-52q-17.14,12.91-33.92,26.32c23.44-.34,45.39,11.9,55.81,31.47-23.13-2.06-45-10.21-58.63-29.2q-10,8.05-20,16.3c23.07-1.55,44.51,13.47,49.63,35-20.87-4.36-39.66-15-50.7-34.11q-15.7,13.08-31.07,26.58l-5.76-.76q11.5-10.14,23.16-20.12c-11.06-6.3-16.3-20.15-15.29-34.41,11,6.48,17.94,18.51,18.6,31.58q8-6.78,16-13.48c-11.6-12.44-15.92-31.23-12.69-49.66,12.91,11.12,18.82,29.45,15.57,47.28q10.86-9,21.85-17.79c-14.9-11.56-22.3-28.29-23.16-46.11,16.92,6.84,27.61,24.55,26.75,43.25q6.23-4.95,12.5-9.82c-10.9-19.66-17.85-38.59-21.32-58.49,9.73,6.83,19,14.7,24.29,25.39,4.33,8.81,5.4,19.91,1.51,29.63q10.42-8,21-15.84c-14.34-17.38-20.2-38.52-16.51-59.27,17.23,11.81,25.35,34.54,20.69,56.2q9.15-6.7,18.4-13.22c-10.94-22.65-13.12-44.78-7.39-65.8a49.84,49.84,0,0,1,16.89,31.55,58.75,58.75,0,0,1-4.73,30.91q9.29-6.47,18.68-12.73a80.4,80.4,0,0,1-3.86-66.55c15.24,15.64,18.56,41.54,8.83,63.26q8.79-5.79,17.7-11.39a82.23,82.23,0,0,1,9.48-71.43c10.35,20.18,8.51,46.79-4.2,68.13q9.39-5.82,18.88-11.41c-3.46-23.63,6.51-50.72,26-68,1.25,22.57-6.76,46.49-21.77,65.47q11.1-6.43,22.36-12.55a112.81,112.81,0,0,1,39-68.38c-1.17,23.79-13.37,48-32.29,64.76q8-4.26,16.13-8.33"/><path class="cls-11" d="M964.13,544.22a368.85,368.85,0,0,0-8.56,54.51,252.29,252.29,0,0,1,37.72,11.43,134.38,134.38,0,0,0-38.47.27c-1.92,37.82-4.56,88.08,6.62,122.78,23.76-10.5,54-37,76-53.68q-14.07-9.85-28.72-18.65a292.85,292.85,0,0,1,40.45,9.39A404.63,404.63,0,0,0,1109,610.05c-15.91-9.86-33.23-17.62-50.4-25.3a219.89,219.89,0,0,1,64.13,7.21,378.23,378.23,0,0,0,20.78-32.2c1.06-1.84,2.09-3.69,3.12-5.57a418.3,418.3,0,0,0,21-43.23l-10.5-4.08c-18.17-7.06-36.41-14.18-54.59-21.24,23-3.31,44.5,2.43,67.77,3.7,1.88.1,3.78.24,5.65.37v0c9.28-29.54,16.59-67.45,19.43-105.57-4.26-.91-8.58-1.6-12.93-2.09s-8.81-.93-13.17-1.1q6.95-3.3,14.12-6.27c4.26-1.77,8.59-3.49,13-5.06,1-18.21,1.61-38,1.86-59.89-25.9,9.66-49.67,19.12-71.4,29.39.7,4.38,1.3,8.77,1.83,13.17,1,7.84,1.7,15.71,2.11,23.59a167.75,167.75,0,0,0-11.41-16.08c-3.3-4-6.74-8-10.39-11.76-22.82,12-43.14,25.49-61.15,41.87,3.3,5,6.52,10.09,9.81,15.1,8.41,13,16.84,25.87,25.23,38.86q-14.56-14.28-30.33-27.22-8.68-7.12-17.73-13.86a241,241,0,0,0-36.69,51.12,341.86,341.86,0,0,0-16.31,34.6q6.51,6.06,13.06,12.14,15.6,14.56,31.19,29.06c-14.76-5.32-29.53-10.72-44.29-16l-8.13-2.94q-5.52,16.45-9.51,33.52"/><path class="cls-12" d="M1156.87,368.53l-.67,1,.73-.05-.06-.93M1061.06,523l-.13.23.2-.09Zm124.12-194.45c-2.24,3.2-24.93,35.09-27.15,38.31a109.32,109.32,0,0,1,38.82-6.15l-.16,3.22a105.88,105.88,0,0,0-40.78,7.15l-1.07.42q-10,14.52-19.67,29.24a134,134,0,0,1,56,3.78l2.31.68c-.12,1.09-.24,2.18-.36,3.25l-2.83-.83a130.54,130.54,0,0,0-57.53-3.25q-3.48,5.29-6.91,10.63a186.74,186.74,0,0,1,57,7.31q4.11,1.17,8.17,2.5c-.16,1.08-.32,2.16-.49,3.23-2.83-.94-5.69-1.82-8.56-2.63a183.17,183.17,0,0,0-58.22-7.11q-7.2,11.21-14.25,22.5A348.76,348.76,0,0,1,1184,461.16c-.26,1.06-.52,2.11-.79,3.16a345.41,345.41,0,0,0-75.53-20.57q-16.53,26.63-32.17,53.77a285.35,285.35,0,0,1,53.93,9.8,277.87,277.87,0,0,1,34.54,12.3c-.43,1-.87,2-1.31,2.94a276.23,276.23,0,0,0-34.1-12.14,282.59,282.59,0,0,0-54.84-9.81q-6.15,10.71-12.15,21.5a208.74,208.74,0,0,1,66.91,7.75,211.12,211.12,0,0,1,26.18,9.33l-1.47,2.87a207.11,207.11,0,0,0-93.38-16.63h-.08q-11.42,20.61-22.3,41.47a317.91,317.91,0,0,1,74.46,11.83q8.34,2.37,16.54,5.19l-1.89,2.75q-7.69-2.61-15.53-4.84a314.44,314.44,0,0,0-75.23-11.76q-5.25,10.13-10.4,20.31,11.42,2.05,22.57,5.22A236.78,236.78,0,0,1,1102,618.52l-2.13,2.49a233.73,233.73,0,0,0-52.86-22.31,230.6,230.6,0,0,0-23.21-5.31q-5.25,10.47-10.39,21a178,178,0,0,1,75.37,18.92l-2.31,2.44a175.13,175.13,0,0,0-30-11.58,172.6,172.6,0,0,0-44.58-6.58q-7.14,14.71-14,29.57a143.54,143.54,0,0,1,65.92,10.62l-2.68,2.38a140.37,140.37,0,0,0-64.8-9.63q-8.16,17.72-16,35.6A85.65,85.65,0,0,1,1021,692.4l-2.9,2.3q-3.71-1.46-7.55-2.54a81.86,81.86,0,0,0-31.66-2.62c-17.7,40.77-13.79,33.37-28.58,75.28l-3.51.28c14.94-42.43,11.21-35.54,29.13-76.82A68.6,68.6,0,0,0,953.13,668l0-3.67a72.13,72.13,0,0,1,24.31,20.52q7.82-17.91,16-35.67a141.29,141.29,0,0,0-39.35-23.36l.16-3.39a144.55,144.55,0,0,1,40.59,23.72q7-15.17,14.33-30.22a127.23,127.23,0,0,0-51.24-38.41c.15-1.09.31-2.19.48-3.28a130.48,130.48,0,0,1,52.31,38.48q5-10.26,10.13-20.47a214.86,214.86,0,0,0-59-37.42c.22-1.07.44-2.14.67-3.21a217.76,217.76,0,0,1,59.84,37.65q5.2-10.32,10.54-20.59a181.31,181.31,0,0,0-64.33-41.46c.3-1,.59-2.07.9-3.1a184.33,184.33,0,0,1,65,41.57q11.23-21.54,23-42.8a212.78,212.78,0,0,0-58.17-71.1c.53-1,1.06-1.9,1.6-2.84a216.27,216.27,0,0,1,58.46,70.55q5.79-10.41,11.72-20.74a268.91,268.91,0,0,0-56.6-71.15c.62-.88,1.26-1.76,1.89-2.63a272.47,272.47,0,0,1,56.59,70.52q15.42-26.75,31.69-53a210.19,210.19,0,0,0-45.51-62.29l2.54-2a213.36,213.36,0,0,1,45,61.08q7.17-11.51,14.5-22.89a140.91,140.91,0,0,0-35.93-54.72c.94-.59,1.88-1.18,2.83-1.76A144.22,144.22,0,0,1,1123.31,413q3.14-4.86,6.3-9.7a172.36,172.36,0,0,0-30.75-49.79l2.87-1.6a175.35,175.35,0,0,1,30,48.12q10.74-16.32,21.82-32.41a139.56,139.56,0,0,0-8-37l3-1.27a142.69,142.69,0,0,1,7.93,34.12c1.88-2.71,24.22-34.11,26.11-36.81a1.61,1.61,0,1,1,2.64,1.85Z"/><path class="cls-13" d="M95.62,615.57h0a16.24,16.24,0,0,1,16.19,16.19V765.25a16.19,16.19,0,0,1-32.38,0V631.76a16.24,16.24,0,0,1,16.19-16.19"/><path class="cls-10" d="M111.81,656V765.25a16.19,16.19,0,0,1-32.38,0V656Z"/><rect class="cls-14" x="587.45" y="262.23" width="455.72" height="629.7"/><polygon class="cls-14" points="587.45 891.93 587.45 262.23 1043.17 262.23 587.45 891.93"/><polygon class="cls-15" points="1017.39 749.11 1018.53 849.83 613.42 849.83 613.42 292.47 1017.39 292.47 1017.39 749.11"/><path class="cls-16" d="M815.31,219a13,13,0,1,0,13,12.95,13,13,0,0,0-13-12.95m-36.76,12.95c4.38-13,16.46-23.88,36.76-23.88s32.38,10.9,36.76,23.88c24.67,0,64.55,17.44,69.15,45.61v14.94H709.4V277.53C714,249.36,753.88,231.92,778.55,231.92Z"/><rect class="cls-17" x="709.4" y="277.53" width="211.81" height="14.94"/><path class="cls-16" d="M634.06,323.91H997.23a3.71,3.71,0,0,1,3.7,3.71v76.27a3.7,3.7,0,0,1-3.7,3.7H634.06a3.7,3.7,0,0,1-3.7-3.7V327.62a3.71,3.71,0,0,1,3.7-3.71"/><rect class="cls-18" x="70.42" y="687.16" width="246.01" height="202.6"/><rect class="cls-18" x="70.42" y="687.16" width="246.01" height="8.4"/><path class="cls-19" d="M316.43,687.16h-246l11.67-60C83.68,619,88.92,612,97.26,612H314.45c7.51,0,15.05,6.28,13.65,13.66Z"/><rect class="cls-14" x="92.83" y="687.16" width="246.01" height="202.6"/><path class="cls-10" d="M115.7,706.65h25.21a3.75,3.75,0,0,1,3.74,3.73v25.21a3.75,3.75,0,0,1-3.74,3.73H115.7a3.74,3.74,0,0,1-3.73-3.73V710.38a3.74,3.74,0,0,1,3.73-3.73"/><path class="cls-10" d="M159.35,706.65h25.21a3.74,3.74,0,0,1,3.73,3.73v25.21a3.74,3.74,0,0,1-3.73,3.73H159.35a3.74,3.74,0,0,1-3.73-3.73V710.38a3.74,3.74,0,0,1,3.73-3.73"/><path class="cls-10" d="M203,706.65h25.21a3.74,3.74,0,0,1,3.73,3.73v25.21a3.74,3.74,0,0,1-3.73,3.73H203a3.75,3.75,0,0,1-3.74-3.73V710.38a3.75,3.75,0,0,1,3.74-3.73"/><path class="cls-10" d="M246.65,706.65h25.2a3.75,3.75,0,0,1,3.74,3.73v25.21a3.75,3.75,0,0,1-3.74,3.73h-25.2a3.75,3.75,0,0,1-3.74-3.73V710.38a3.75,3.75,0,0,1,3.74-3.73"/><path class="cls-20" d="M290.29,706.65H315.5a3.75,3.75,0,0,1,3.74,3.73v25.21a3.75,3.75,0,0,1-3.74,3.73H290.29a3.74,3.74,0,0,1-3.73-3.73V710.38a3.74,3.74,0,0,1,3.73-3.73"/><path class="cls-10" d="M115.7,750.29h25.21a3.75,3.75,0,0,1,3.74,3.74v25.21a3.75,3.75,0,0,1-3.74,3.73H115.7a3.74,3.74,0,0,1-3.73-3.73V754a3.75,3.75,0,0,1,3.73-3.74"/><path class="cls-10" d="M115.7,793.94h25.21a3.75,3.75,0,0,1,3.74,3.74v25.2a3.75,3.75,0,0,1-3.74,3.74H115.7a3.75,3.75,0,0,1-3.73-3.74v-25.2a3.75,3.75,0,0,1,3.73-3.74"/><path class="cls-10" d="M115.7,837.59h25.21a3.75,3.75,0,0,1,3.74,3.73v25.21a3.75,3.75,0,0,1-3.74,3.74H115.7a3.75,3.75,0,0,1-3.73-3.74V841.32a3.74,3.74,0,0,1,3.73-3.73"/><path class="cls-10" d="M159.35,750.29h25.21a3.75,3.75,0,0,1,3.73,3.74v25.21a3.74,3.74,0,0,1-3.73,3.73H159.35a3.74,3.74,0,0,1-3.73-3.73V754a3.75,3.75,0,0,1,3.73-3.74"/><path class="cls-10" d="M159.35,793.94h25.21a3.75,3.75,0,0,1,3.73,3.74v25.2a3.75,3.75,0,0,1-3.73,3.74H159.35a3.75,3.75,0,0,1-3.73-3.74v-25.2a3.75,3.75,0,0,1,3.73-3.74"/><path class="cls-10" d="M159.35,837.59h25.21a3.74,3.74,0,0,1,3.73,3.73v25.21a3.75,3.75,0,0,1-3.73,3.74H159.35a3.75,3.75,0,0,1-3.73-3.74V841.32a3.74,3.74,0,0,1,3.73-3.73"/><path class="cls-10" d="M203,750.29h25.21a3.75,3.75,0,0,1,3.73,3.74v25.21a3.74,3.74,0,0,1-3.73,3.73H203a3.75,3.75,0,0,1-3.74-3.73V754a3.75,3.75,0,0,1,3.74-3.74"/><path class="cls-10" d="M203,793.94h25.21a3.75,3.75,0,0,1,3.73,3.74v25.2a3.75,3.75,0,0,1-3.73,3.74H203a3.75,3.75,0,0,1-3.74-3.74v-25.2a3.75,3.75,0,0,1,3.74-3.74"/><path class="cls-10" d="M203,837.59h25.21a3.74,3.74,0,0,1,3.73,3.73v25.21a3.75,3.75,0,0,1-3.73,3.74H203a3.75,3.75,0,0,1-3.74-3.74V841.32a3.75,3.75,0,0,1,3.74-3.73"/><path class="cls-10" d="M246.65,750.29h25.2a3.75,3.75,0,0,1,3.74,3.74v25.21a3.75,3.75,0,0,1-3.74,3.73h-25.2a3.75,3.75,0,0,1-3.74-3.73V754a3.75,3.75,0,0,1,3.74-3.74"/><path class="cls-10" d="M246.65,793.94h25.2a3.75,3.75,0,0,1,3.74,3.74v25.2a3.75,3.75,0,0,1-3.74,3.74h-25.2a3.75,3.75,0,0,1-3.74-3.74v-25.2a3.75,3.75,0,0,1,3.74-3.74"/><path class="cls-10" d="M246.65,837.59h25.2a3.75,3.75,0,0,1,3.74,3.73v25.21a3.75,3.75,0,0,1-3.74,3.74h-25.2a3.75,3.75,0,0,1-3.74-3.74V841.32a3.75,3.75,0,0,1,3.74-3.73"/><path class="cls-20" d="M290.29,750.29H315.5a3.75,3.75,0,0,1,3.74,3.74v25.21A3.75,3.75,0,0,1,315.5,783H290.29a3.74,3.74,0,0,1-3.73-3.73V754a3.75,3.75,0,0,1,3.73-3.74"/><path class="cls-20" d="M290.29,793.94H315.5a3.75,3.75,0,0,1,3.74,3.74v68.85a3.75,3.75,0,0,1-3.74,3.74H290.29a3.75,3.75,0,0,1-3.73-3.74V797.68a3.75,3.75,0,0,1,3.73-3.74"/><rect class="cls-18" x="92.83" y="687.16" width="246.01" height="8.4"/><path class="cls-21" d="M338.84,687.16h-246l11.9-60C106.36,619,111.56,612,119.9,612H337.09c7.51,0,15.08,6.29,13.66,13.66Z"/><polygon class="cls-10" points="332.69 627.25 122.46 627.25 111.25 677.47 322.57 678.04 332.69 627.25"/><path class="cls-19" d="M305.13,640.27h0a4.4,4.4,0,0,0-3.94,3.22L300,648.24l-3.35-2.37c-1.25-.89-3.29-.36-4.54,1.17h0c-1.25,1.53-1.25,3.51,0,4.39l3.35,2.38-4.58,2.37a4.1,4.1,0,0,0-2.28,4.39h0c.46,1.53,2.23,2.06,3.93,1.18l4.58-2.37-1.23,4.74a2.37,2.37,0,0,0,2.26,3.22h0a4.4,4.4,0,0,0,3.94-3.22l1.23-4.74,3.35,2.37c1.25.88,3.29.35,4.54-1.18h0c1.25-1.53,1.25-3.51,0-4.39l-3.34-2.37,4.58-2.38a4.09,4.09,0,0,0,2.27-4.39h0c-.45-1.53-2.22-2.06-3.93-1.17l-4.58,2.37c.41-1.58.83-3.16,1.24-4.75a2.37,2.37,0,0,0-2.26-3.22"/><path class="cls-19" d="M272.16,640.27h0a4.4,4.4,0,0,0-3.94,3.22L267,648.24l-3.35-2.37c-1.25-.89-3.29-.36-4.54,1.17h0c-1.26,1.53-1.25,3.51,0,4.39l3.35,2.38-4.58,2.37a4.1,4.1,0,0,0-2.28,4.39h0c.46,1.53,2.23,2.06,3.93,1.18l4.58-2.37-1.23,4.74a2.37,2.37,0,0,0,2.26,3.22h0a4.4,4.4,0,0,0,3.94-3.22l1.23-4.74,3.35,2.37c1.25.88,3.29.35,4.54-1.18h0c1.25-1.53,1.25-3.51,0-4.39l-3.34-2.37,4.58-2.38a4.09,4.09,0,0,0,2.27-4.39h0c-.45-1.53-2.22-2.06-3.93-1.17l-4.58,2.37c.41-1.58.83-3.16,1.24-4.75a2.37,2.37,0,0,0-2.26-3.22"/><path class="cls-19" d="M239.19,640.27h0a4.4,4.4,0,0,0-3.94,3.22L234,648.24l-3.35-2.37c-1.25-.89-3.29-.36-4.54,1.17h0c-1.26,1.53-1.25,3.51,0,4.39l3.35,2.38-4.58,2.37a4.1,4.1,0,0,0-2.28,4.39h0c.46,1.53,2.23,2.06,3.93,1.18l4.58-2.37-1.23,4.74a2.37,2.37,0,0,0,2.26,3.22h0a4.4,4.4,0,0,0,3.94-3.22l1.23-4.74,3.35,2.37c1.25.88,3.29.35,4.54-1.18h0c1.25-1.53,1.25-3.51,0-4.39l-3.34-2.37,4.58-2.38a4.09,4.09,0,0,0,2.27-4.39h0c-.45-1.53-2.22-2.06-3.93-1.17l-4.58,2.37c.41-1.58.83-3.16,1.24-4.75a2.37,2.37,0,0,0-2.26-3.22"/><rect class="cls-22" y="889.76" width="1311.37" height="2.17"/><rect class="cls-23" x="462.48" y="876.27" width="111.46" height="12.32"/><rect class="cls-23" x="462.48" y="876.27" width="14.12" height="12.32"/><rect class="cls-24" x="477.14" y="876.27" width="14.84" height="12.32"/><rect class="cls-25" x="491.98" y="876.27" width="50.3" height="12.32"/><rect class="cls-26" x="542.29" y="876.27" width="21.61" height="12.32"/><rect class="cls-27" x="467.92" y="888.58" width="100.74" height="1.17"/><rect class="cls-23" x="462.63" y="849.29" width="111.46" height="12.32"/><rect class="cls-23" x="462.63" y="849.29" width="14.12" height="12.32"/><rect class="cls-24" x="476.75" y="849.29" width="14.29" height="12.32"/><rect class="cls-25" x="491.05" y="849.29" width="51.39" height="12.32"/><rect class="cls-26" x="542.44" y="849.29" width="21.61" height="12.32"/><rect class="cls-27" x="468.07" y="861.6" width="100.74" height="1.17"/><rect class="cls-23" x="462.48" y="862.78" width="115.73" height="12.32"/><rect class="cls-23" x="462.48" y="862.78" width="14.67" height="12.32"/><rect class="cls-24" x="477.14" y="862.78" width="14.84" height="12.32"/><rect class="cls-25" x="491.99" y="862.78" width="53.36" height="12.32"/><rect class="cls-26" x="542.29" y="862.78" width="25.5" height="12.32"/><rect class="cls-27" x="468.13" y="875.09" width="104.6" height="1.17"/><rect class="cls-23" x="553.74" y="876.27" width="111.46" height="12.32"/><rect class="cls-23" x="553.74" y="876.27" width="14.12" height="12.32"/><rect class="cls-24" x="567.86" y="876.27" width="14.29" height="12.32"/><rect class="cls-25" x="582.16" y="876.27" width="51.39" height="12.32"/><rect class="cls-26" x="633.55" y="876.27" width="21.61" height="12.32"/><rect class="cls-27" x="559.18" y="888.58" width="100.74" height="1.17"/><rect class="cls-23" x="462.73" y="835.8" width="111.46" height="12.32"/><rect class="cls-23" x="462.73" y="835.8" width="14.12" height="12.32"/><rect class="cls-24" x="476.85" y="835.8" width="14.29" height="12.32"/><rect class="cls-25" x="491.14" y="835.8" width="51.39" height="12.32"/><rect class="cls-26" x="542.53" y="835.8" width="21.61" height="12.32"/><rect class="cls-27" x="468.17" y="848.11" width="100.74" height="1.17"/><rect class="cls-23" x="553.74" y="862.78" width="111.46" height="12.32"/><rect class="cls-23" x="553.74" y="862.78" width="14.12" height="12.32"/><rect class="cls-24" x="567.86" y="862.78" width="14.29" height="12.32"/><rect class="cls-25" x="582.16" y="862.78" width="51.39" height="12.32"/><rect class="cls-26" x="633.55" y="862.78" width="21.61" height="12.32"/><rect class="cls-27" x="559.18" y="875.09" width="100.74" height="1.17"/><rect class="cls-23" x="462.73" y="822.31" width="111.46" height="12.32"/><rect class="cls-23" x="462.73" y="822.31" width="14.12" height="12.32"/><rect class="cls-24" x="476.85" y="822.31" width="14.29" height="12.32"/><rect class="cls-25" x="491.14" y="822.31" width="51.39" height="12.32"/><rect class="cls-26" x="542.53" y="822.31" width="21.61" height="12.32"/><rect class="cls-27" x="468.17" y="834.63" width="100.74" height="1.17"/><rect class="cls-23" x="462.73" y="808.82" width="111.46" height="12.32"/><rect class="cls-23" x="462.73" y="808.82" width="14.12" height="12.32"/><rect class="cls-24" x="476.85" y="808.82" width="14.29" height="12.32"/><rect class="cls-25" x="491.14" y="808.82" width="51.39" height="12.32"/><rect class="cls-26" x="542.53" y="808.82" width="21.61" height="12.32"/><rect class="cls-27" x="468.17" y="821.14" width="100.74" height="1.17"/><rect class="cls-23" x="462.73" y="781.84" width="111.46" height="12.32"/><rect class="cls-23" x="462.73" y="781.84" width="14.12" height="12.32"/><rect class="cls-24" x="476.85" y="781.84" width="14.29" height="12.32"/><rect class="cls-25" x="491.14" y="781.84" width="51.39" height="12.32"/><rect class="cls-26" x="542.53" y="781.84" width="21.61" height="12.32"/><rect class="cls-27" x="468.17" y="794.16" width="100.74" height="1.17"/><rect class="cls-23" x="462.73" y="795.33" width="111.46" height="12.32"/><rect class="cls-23" x="462.73" y="795.33" width="14.12" height="12.32"/><rect class="cls-24" x="476.85" y="795.33" width="14.29" height="12.32"/><rect class="cls-25" x="491.14" y="795.33" width="51.39" height="12.32"/><rect class="cls-26" x="542.53" y="795.33" width="21.61" height="12.32"/><rect class="cls-27" x="468.17" y="807.65" width="100.74" height="1.17"/><rect class="cls-23" x="462.73" y="768.35" width="111.46" height="12.32"/><rect class="cls-23" x="462.73" y="768.35" width="14.12" height="12.32"/><rect class="cls-24" x="476.85" y="768.35" width="14.29" height="12.32"/><rect class="cls-25" x="491.14" y="768.35" width="51.39" height="12.32"/><rect class="cls-26" x="542.53" y="768.35" width="21.61" height="12.32"/><rect class="cls-27" x="468.17" y="780.67" width="100.74" height="1.17"/><path class="cls-28" d="M506.23,820.44a54.61,54.61,0,1,0-36.15,68.25,54.6,54.6,0,0,0,36.15-68.25"/><path class="cls-25" d="M496.62,823.4a44.55,44.55,0,1,0-29.49,55.68,44.55,44.55,0,0,0,29.49-55.68"/><path class="cls-28" d="M490.36,829.59a39.33,39.33,0,0,0-74.44-2.2,39.33,39.33,0,1,1,75.21,22.47,39.13,39.13,0,0,0-.77-20.27"/><path class="cls-29" d="M456.85,814.74l1.87-5.93,6.63,2.09-1.82,5.79q10.74,4.74,11.2,15.18l-11.87,0q-.27-4.89-5.36-6.5c-2.84-.89-4.56-.43-5.14,1.41a2.4,2.4,0,0,0,.2,1.94q.49.93,3.55,2.68a78,78,0,0,1,9.81,6.27,12.58,12.58,0,0,1,4,6.09,13,13,0,0,1-.15,8,13.73,13.73,0,0,1-7.3,8.56q-5.46,2.65-13.07,1.17l-1.86,5.92-6.64-2.09,1.87-5.92q-12-5.42-11.53-18.08L444,842.82q-.12,5.79,6.14,7.76c3.26,1,5.18.65,5.74-1.14a2.63,2.63,0,0,0-.45-2.56,12.14,12.14,0,0,0-3.59-2.66q-10.67-5.88-12.58-10.43a12.91,12.91,0,0,1-.46-9.19,14.5,14.5,0,0,1,6.22-8.07c3.07-1.94,7-2.54,11.79-1.79"/><rect class="cls-23" x="553.74" y="849.29" width="111.46" height="12.32"/><rect class="cls-23" x="553.74" y="849.29" width="14.12" height="12.32"/><rect class="cls-24" x="567.86" y="849.29" width="14.29" height="12.32"/><rect class="cls-25" x="582.16" y="849.29" width="51.39" height="12.32"/><rect class="cls-26" x="633.55" y="849.29" width="21.61" height="12.32"/><rect class="cls-27" x="559.18" y="861.6" width="100.74" height="1.17"/><rect class="cls-23" x="553.74" y="835.8" width="111.46" height="12.32"/><rect class="cls-23" x="553.74" y="835.8" width="14.12" height="12.32"/><rect class="cls-24" x="567.86" y="835.8" width="14.29" height="12.32"/><rect class="cls-25" x="582.16" y="835.8" width="51.39" height="12.32"/><rect class="cls-26" x="633.55" y="835.8" width="21.61" height="12.32"/><rect class="cls-27" x="559.18" y="848.12" width="100.74" height="1.17"/><rect class="cls-23" x="553.74" y="822.31" width="111.46" height="12.32"/><rect class="cls-23" x="553.74" y="822.31" width="14.12" height="12.32"/><rect class="cls-24" x="567.86" y="822.31" width="14.29" height="12.32"/><rect class="cls-25" x="582.16" y="822.31" width="51.39" height="12.32"/><rect class="cls-26" x="633.55" y="822.31" width="21.61" height="12.32"/><rect class="cls-27" x="559.18" y="834.63" width="100.74" height="1.17"/><path class="cls-30" d="M738.26,645.32l-.86-.06.86.06m20-12.21a62.47,62.47,0,1,1-84,75.38l16.1-4.93a45.64,45.64,0,1,0,60-55.48Zm-2.1-.83c.59.22,1.17.45,1.75.69C757.35,632.73,756.77,632.5,756.18,632.28Zm-3.58-1.22.72.22Z"/><path class="cls-31" d="M738.26,645.32l-.86-.06.86.06m17.92-13c.59.22,1.17.45,1.75.69C757.35,632.73,756.77,632.5,756.18,632.28Zm40.52,58.5H779.86a45.65,45.65,0,0,0-29.5-42.7l7.92-15a62.55,62.55,0,0,1,38.42,57.67Zm-44.1-59.72.72.22Z"/><path class="cls-32" d="M734.23,628.31a62.29,62.29,0,0,1,24,4.8l-7.92,15a45.68,45.68,0,0,0-60,55.48l-16.1,4.93a62.49,62.49,0,0,1,59.92-80.18"/><path class="cls-21" d="M682,777.4h75.3a5.2,5.2,0,1,1,0,10.39H682a5.2,5.2,0,1,1,0-10.39"/><path class="cls-21" d="M682,798.78h104.4a5.2,5.2,0,1,1,0,10.39H682a5.2,5.2,0,1,1,0-10.39"/><path class="cls-21" d="M841.8,777.4h75.3a5.2,5.2,0,1,1,0,10.39H841.8a5.2,5.2,0,1,1,0-10.39"/><path class="cls-21" d="M841.8,798.78H946.2a5.2,5.2,0,1,1,0,10.39H841.8a5.2,5.2,0,1,1,0-10.39"/><path class="cls-33" d="M838.86,725.58l51.59-34.26v61.92a61.88,61.88,0,0,1-51.59-27.66"/><path class="cls-15" d="M890.45,753.24V691.32l22.73,57.62a61.68,61.68,0,0,1-22.73,4.3"/><path class="cls-30" d="M890.45,691.32V629.39a61.93,61.93,0,0,1,22.84,119.5Z"/><path class="cls-34" d="M890.45,629.39v61.93l-51.59,34.25a61.93,61.93,0,0,1,51.59-96.18"/><rect class="cls-14" x="688.02" y="515.51" width="15.87" height="63.77"/><rect class="cls-35" x="711.12" y="501.89" width="15.87" height="77.39"/><rect class="cls-14" x="734.23" y="492.22" width="15.87" height="87.06"/><rect class="cls-14" x="757.34" y="501.89" width="15.87" height="77.39"/><rect class="cls-14" x="803.55" y="453.52" width="15.87" height="125.76"/><rect class="cls-35" x="780.44" y="475.16" width="15.87" height="104.12"/><rect class="cls-14" x="664.91" y="544.51" width="15.87" height="34.77"/><path class="cls-36" d="M670.92,561.08l66-38.11a5,5,0,0,1-.15-1.23,5.34,5.34,0,1,1,10,2.52l15.47,15.47a5.33,5.33,0,0,1,7.1.9l46.66-27a5.72,5.72,0,0,1-.21-1.5,5.34,5.34,0,1,1,1.62,3.83l-46.88,27.1a5.69,5.69,0,0,1,.1,1,5.34,5.34,0,1,1-10.16-2.29L745,526.26a5.35,5.35,0,0,1-6.73-.88L672.5,563.32a5.41,5.41,0,0,1,.33,1.85,5.33,5.33,0,1,1-1.91-4.09"/><rect class="cls-37" x="850.82" y="453.52" width="124.72" height="18.06"/><rect class="cls-3" x="850.82" y="470.63" width="124.72" height="18.06"/><rect class="cls-37" x="850.82" y="487.73" width="124.72" height="18.06"/><rect class="cls-3" x="850.82" y="504.83" width="124.72" height="18.06"/><rect class="cls-37" x="850.82" y="521.93" width="124.72" height="18.06"/><rect class="cls-3" x="850.82" y="539.04" width="124.72" height="18.06"/><rect class="cls-37" x="850.82" y="556.14" width="124.72" height="18.06"/><rect class="cls-3" x="850.82" y="453.52" width="17.34" height="120.68"/><path class="cls-21" d="M878.9,459.41H915a3.15,3.15,0,0,1,3.15,3.14h0A3.16,3.16,0,0,1,915,465.7H878.9a3.15,3.15,0,0,1-3.14-3.15h0a3.15,3.15,0,0,1,3.14-3.14"/><path class="cls-21" d="M878.9,476.51H915a3.16,3.16,0,0,1,3.15,3.15h0A3.15,3.15,0,0,1,915,482.8H878.9a3.15,3.15,0,0,1-3.14-3.14h0a3.15,3.15,0,0,1,3.14-3.15"/><path class="cls-21" d="M878.9,493.61h84.91a3.16,3.16,0,0,1,3.15,3.15h0a3.16,3.16,0,0,1-3.15,3.15H878.9a3.15,3.15,0,0,1-3.14-3.15h0a3.15,3.15,0,0,1,3.14-3.15"/><path class="cls-21" d="M878.9,510.71H936a3.16,3.16,0,0,1,3.15,3.15h0A3.16,3.16,0,0,1,936,517H878.9a3.15,3.15,0,0,1-3.14-3.15h0a3.15,3.15,0,0,1,3.14-3.15"/><path class="cls-21" d="M878.9,561.5H936a3.16,3.16,0,0,1,3.15,3.15h0A3.16,3.16,0,0,1,936,567.8H878.9a3.15,3.15,0,0,1-3.14-3.15h0a3.15,3.15,0,0,1,3.14-3.15"/><path class="cls-21" d="M878.9,544.38H936a3.16,3.16,0,0,1,3.15,3.15h0a3.16,3.16,0,0,1-3.15,3.15H878.9a3.15,3.15,0,0,1-3.14-3.15h0a3.15,3.15,0,0,1,3.14-3.15"/><rect class="cls-23" x="462.73" y="754.86" width="111.46" height="12.32"/><rect class="cls-23" x="462.73" y="754.86" width="14.12" height="12.32"/><rect class="cls-24" x="476.85" y="754.86" width="14.29" height="12.32"/><rect class="cls-25" x="491.14" y="754.86" width="51.39" height="12.32"/><rect class="cls-26" x="542.53" y="754.86" width="21.61" height="12.32"/><rect class="cls-27" x="468.17" y="767.18" width="100.74" height="1.17"/><rect class="cls-23" x="462.73" y="741.38" width="111.46" height="12.32"/><rect class="cls-23" x="462.73" y="741.38" width="14.12" height="12.32"/><rect class="cls-24" x="476.85" y="741.38" width="14.29" height="12.32"/><rect class="cls-25" x="491.14" y="741.38" width="51.39" height="12.32"/><rect class="cls-26" x="542.53" y="741.38" width="21.61" height="12.32"/><rect class="cls-27" x="468.17" y="753.69" width="100.74" height="1.17"/><path class="cls-38" d="M1002.28,628h227.31c9.67,0,17.59,7.64,17.59,17V872.79c0,9.33-7.92,17-17.59,17H998.83c-9.68,0-22.57-4.11-22.26-12.75l8.12-232a17.57,17.57,0,0,1,17.59-17"/><path class="cls-39" d="M990.41,628H1218.1c1,0,17.39,11.37,17.39,17V872.81a17.21,17.21,0,0,1-17.39,16.94H990.41A17.22,17.22,0,0,1,973,872.81V650.06c0-9.32,7.83-22.07,17.4-22.07"/><path class="cls-16" d="M990.41,628H1218.1c10.51,0,17.39,7.12,17.39,17.4V693H973V645.39a17.45,17.45,0,0,1,17.4-17.4"/><path class="cls-38" d="M1047.43,647.69a10.75,10.75,0,1,1-10.74,10.75,10.75,10.75,0,0,1,10.74-10.75"/><path class="cls-38" d="M1159.48,647.69a10.75,10.75,0,1,1-10.75,10.75,10.74,10.74,0,0,1,10.75-10.75"/><path class="cls-26" d="M1045.39,603.27h0a19.46,19.46,0,0,1,19.4,19.4V628h-10.15v-5.32a9.29,9.29,0,0,0-9.25-9.25h0a9.29,9.29,0,0,0-9.25,9.25v21.24a9.29,9.29,0,0,0,9.25,9.25,5.21,5.21,0,0,1,4.33,5.34,4.65,4.65,0,0,1-4.33,4.81,19.46,19.46,0,0,1-19.41-19.4V622.67a19.46,19.46,0,0,1,19.41-19.4"/><path class="cls-26" d="M1157.43,603.27h0a19.44,19.44,0,0,1,19.4,19.4V628h-10.15v-5.32a9.29,9.29,0,0,0-9.25-9.25h0a9.29,9.29,0,0,0-9.25,9.25v21.24a9.29,9.29,0,0,0,9.25,9.25,5.22,5.22,0,0,1,4.34,5.34,4.66,4.66,0,0,1-4.34,4.81,19.44,19.44,0,0,1-19.4-19.4V622.67a19.44,19.44,0,0,1,19.4-19.4"/><path class="cls-21" d="M1060.59,710.48h34.15v34.16h-34.15Zm-58.56,0h34.16v34.16H1002Zm0,41.74h34.16v34.16H1002Zm58.56,0h34.15v34.16h-34.15Zm58.55,0h34.16v34.16h-34.16Zm0,41.74h34.16v34.16h-34.16Zm-58.55,0h34.15v34.16h-34.15ZM1002,794h34.16v34.16H1002Zm0,41.74h34.16v34.16H1002Zm58.56,0h34.15v34.16h-34.15Zm58.55,0h34.16v34.16h-34.16Zm0-125.22h34.16v34.16h-34.16Z"/><path class="cls-16" d="M1177.7,752.22h34.16v34.16H1177.7Zm0,41.74h34.16v34.16H1177.7Zm0,41.74h34.16v34.16H1177.7Zm0-125.22h34.16v34.16H1177.7Z"/><path class="cls-15" d="M698,334.63v5.65H687.77v4.53h7.64v5.33h-7.64v10h-7.09V334.63Z"/><path class="cls-15" d="M707.83,334.63v14.54a5.12,5.12,0,0,0,.95,3.33,3.52,3.52,0,0,0,2.9,1.17,3.61,3.61,0,0,0,2.93-1.19,5,5,0,0,0,1-3.31V334.63h7.06v14.54a12.05,12.05,0,0,1-1.46,6.12,9.46,9.46,0,0,1-4,3.8,12.41,12.41,0,0,1-5.69,1.28,12,12,0,0,1-5.59-1.26,8.94,8.94,0,0,1-3.8-3.78,12.8,12.8,0,0,1-1.37-6.16V334.63Z"/><path class="cls-15" d="M750,360.11h-7.1l-9.36-14.22v14.22H726.4V334.66h7.09l9.36,14.4v-14.4H750Z"/><path class="cls-15" d="M775.65,353.9a11.62,11.62,0,0,1-4.61,4.56,14.29,14.29,0,0,1-7,1.65H753.87V334.63H764a14.72,14.72,0,0,1,7,1.6,11.19,11.19,0,0,1,4.61,4.48,13.42,13.42,0,0,1,1.6,6.59A13.28,13.28,0,0,1,775.65,353.9Zm-7.34-1.81a7.25,7.25,0,0,0,0-9.56,6.89,6.89,0,0,0-4.94-1.71H761v13h2.41A7,7,0,0,0,768.31,352.09Z"/><path class="cls-15" d="M796.53,355.87h-9l-1.4,4.24h-7.45L788,334.73h8.17l9.29,25.38h-7.49Zm-1.76-5.33L792,342.26l-2.77,8.28Z"/><path class="cls-15" d="M837.14,334.73v25.38h-7v-14.4l-4.72,14.4h-6.08l-4.72-14.4v14.4h-7.09V334.73h8.68l6.26,16.49,6.08-16.49Z"/><path class="cls-15" d="M848.15,340.28v4.21h8.25v5.36h-8.25v4.61h9.33v5.65H841.06V334.63h16.42v5.65Z"/><path class="cls-15" d="M884.26,360.11h-7.09l-9.36-14.22v14.22h-7.09V334.66h7.09l9.36,14.4v-14.4h7.09Z"/><path class="cls-15" d="M907.37,334.63v5.65H900.5v19.83h-7.06V340.28h-6.8v-5.65Z"/><path class="cls-15" d="M925.8,355.87h-9l-1.41,4.24h-7.45l9.33-25.38h8.17l9.29,25.38h-7.49ZM924,350.54l-2.74-8.28-2.77,8.28Z"/><path class="cls-15" d="M943.88,354.75h8v5.36H936.78V334.63h7.1Z"/><path class="cls-15" d="M743.74,391.87h-9l-1.4,4.24h-7.46l9.33-25.38h8.17l9.29,25.38h-7.49ZM742,386.54l-2.73-8.28-2.78,8.28Z"/><path class="cls-15" d="M778.26,396.11h-7.09l-9.36-14.22v14.22h-7.1V370.66h7.1l9.36,14.4v-14.4h7.09Z"/><path class="cls-15" d="M798.28,391.87h-9l-1.4,4.24h-7.46l9.33-25.38h8.17l9.29,25.38h-7.49Zm-1.77-5.33-2.73-8.28L791,386.54Z"/><path class="cls-15" d="M816.35,390.75h7.95v5.36h-15V370.63h7.1Z"/><path class="cls-15" d="M850.22,370.63l-9,17.38v8.1h-7.05V388l-9-17.38h8.1l4.5,9.72,4.46-9.72Z"/><path class="cls-15" d="M870.24,392.62a7.45,7.45,0,0,1-3.17,2.74,11.43,11.43,0,0,1-5,1,11.85,11.85,0,0,1-7.29-2.13,7.74,7.74,0,0,1-3.12-6.05h7.53a2.84,2.84,0,0,0,.82,2,2.51,2.51,0,0,0,1.77.65,2.09,2.09,0,0,0,1.46-.47,1.71,1.71,0,0,0,.52-1.33,2,2,0,0,0-1-1.78,17.87,17.87,0,0,0-3.31-1.39,31.72,31.72,0,0,1-4-1.62,7.48,7.48,0,0,1-2.7-2.37,7.67,7.67,0,0,1,.09-8.16,7.65,7.65,0,0,1,3.35-2.59,12.49,12.49,0,0,1,4.83-.88,11,11,0,0,1,7,2.07,7.71,7.71,0,0,1,2.86,5.81h-7.6a2.84,2.84,0,0,0-.73-1.76,2.19,2.19,0,0,0-1.57-.58,1.86,1.86,0,0,0-1.3.44,1.67,1.67,0,0,0-.46,1.29,1.88,1.88,0,0,0,1,1.69,18.24,18.24,0,0,0,3.22,1.37,33.48,33.48,0,0,1,4,1.69,8,8,0,0,1,2.74,2.42,6.84,6.84,0,0,1,1.15,4.1A7.1,7.1,0,0,1,870.24,392.62Z"/><path class="cls-15" d="M881.51,370.63v25.48h-7.1V370.63Z"/><path class="cls-15" d="M903.36,392.62a7.45,7.45,0,0,1-3.17,2.74,11.43,11.43,0,0,1-5,1,11.85,11.85,0,0,1-7.29-2.13,7.74,7.74,0,0,1-3.12-6.05h7.53a2.84,2.84,0,0,0,.82,2,2.51,2.51,0,0,0,1.77.65,2.09,2.09,0,0,0,1.46-.47,1.71,1.71,0,0,0,.52-1.33,2,2,0,0,0-1-1.78,17.87,17.87,0,0,0-3.31-1.39,31.72,31.72,0,0,1-4-1.62,7.48,7.48,0,0,1-2.7-2.37,7.67,7.67,0,0,1,.09-8.16,7.65,7.65,0,0,1,3.35-2.59,12.49,12.49,0,0,1,4.83-.88,11,11,0,0,1,7,2.07,7.71,7.71,0,0,1,2.86,5.81h-7.6a2.84,2.84,0,0,0-.73-1.76,2.19,2.19,0,0,0-1.57-.58,1.86,1.86,0,0,0-1.3.44,1.67,1.67,0,0,0-.46,1.29,1.88,1.88,0,0,0,1,1.69,18.24,18.24,0,0,0,3.22,1.37,33.48,33.48,0,0,1,4,1.69,8,8,0,0,1,2.74,2.42,6.84,6.84,0,0,1,1.15,4.1A7.1,7.1,0,0,1,903.36,392.62Z"/></g></g></svg>