<svg xmlns="http://www.w3.org/2000/svg" xmlns:xlink="http://www.w3.org/1999/xlink" viewBox="0 0 500 331.35"><defs><style>.cls-1{isolation:isolate;}.cls-2{fill:url(#linear-gradient);}.cls-3{fill:url(#linear-gradient-2);}.cls-4{fill:url(#linear-gradient-3);}.cls-5{fill:url(#linear-gradient-4);}.cls-25,.cls-6,.cls-99{opacity:0.5;}.cls-12,.cls-7{fill:#fff;}.cls-8{fill:url(#linear-gradient-5);}.cls-9{fill:#b8b8ff;}.cls-10{fill:url(#linear-gradient-6);}.cls-11{fill:url(#linear-gradient-7);}.cls-106,.cls-12,.cls-130,.cls-28{opacity:0.3;}.cls-13{fill:url(#linear-gradient-8);}.cls-14{fill:url(#linear-gradient-9);}.cls-15{fill:#43457b;}.cls-16{fill:url(#linear-gradient-10);}.cls-17{fill:url(#linear-gradient-11);}.cls-18{fill:url(#linear-gradient-12);}.cls-19{fill:url(#linear-gradient-13);}.cls-170,.cls-173,.cls-20,.cls-27{fill:#221f1f;}.cls-106,.cls-130,.cls-170,.cls-173,.cls-20,.cls-25,.cls-26,.cls-28,.cls-99{mix-blend-mode:multiply;}.cls-20,.cls-26{opacity:0.1;}.cls-21,.cls-25{fill:#f8ac9b;}.cls-22{fill:url(#linear-gradient-14);}.cls-23{fill:url(#linear-gradient-15);}.cls-24{fill:url(#linear-gradient-16);}.cls-29{fill:url(#linear-gradient-17);}.cls-30{fill:url(#linear-gradient-18);}.cls-31{fill:url(#linear-gradient-19);}.cls-32{fill:url(#linear-gradient-20);}.cls-33{fill:url(#linear-gradient-21);}.cls-34{fill:url(#linear-gradient-22);}.cls-35{fill:url(#linear-gradient-23);}.cls-36{fill:url(#linear-gradient-24);}.cls-37{fill:url(#linear-gradient-25);}.cls-38{fill:url(#linear-gradient-26);}.cls-39{fill:url(#linear-gradient-27);}.cls-40{fill:url(#linear-gradient-28);}.cls-41{fill:url(#linear-gradient-29);}.cls-42{fill:url(#linear-gradient-30);}.cls-43{fill:url(#linear-gradient-31);}.cls-44{fill:url(#linear-gradient-32);}.cls-45{fill:url(#linear-gradient-33);}.cls-46{fill:url(#linear-gradient-34);}.cls-47{fill:url(#linear-gradient-35);}.cls-48{fill:url(#linear-gradient-36);}.cls-49{fill:url(#linear-gradient-37);}.cls-50{fill:url(#linear-gradient-38);}.cls-51{fill:url(#linear-gradient-39);}.cls-52{fill:url(#linear-gradient-40);}.cls-53{fill:url(#linear-gradient-41);}.cls-54{fill:url(#linear-gradient-42);}.cls-55{fill:url(#linear-gradient-43);}.cls-56{fill:url(#linear-gradient-44);}.cls-57{fill:url(#linear-gradient-45);}.cls-58{fill:url(#linear-gradient-46);}.cls-59{fill:url(#linear-gradient-47);}.cls-60{fill:url(#linear-gradient-48);}.cls-61{fill:url(#linear-gradient-49);}.cls-62{fill:url(#linear-gradient-50);}.cls-63{fill:url(#linear-gradient-51);}.cls-64{fill:url(#linear-gradient-52);}.cls-65{fill:url(#linear-gradient-53);}.cls-66{fill:url(#linear-gradient-54);}.cls-67{fill:url(#linear-gradient-55);}.cls-68{fill:url(#linear-gradient-56);}.cls-69{fill:url(#linear-gradient-57);}.cls-70{fill:url(#linear-gradient-58);}.cls-71{fill:url(#linear-gradient-59);}.cls-72{fill:url(#linear-gradient-60);}.cls-73{fill:url(#linear-gradient-61);}.cls-74{fill:url(#linear-gradient-62);}.cls-75{fill:url(#linear-gradient-63);}.cls-76{fill:url(#linear-gradient-64);}.cls-77{fill:url(#linear-gradient-65);}.cls-78{fill:url(#linear-gradient-66);}.cls-79{fill:url(#linear-gradient-67);}.cls-80{fill:url(#linear-gradient-68);}.cls-81{fill:url(#linear-gradient-69);}.cls-82{fill:url(#linear-gradient-70);}.cls-83{fill:url(#linear-gradient-71);}.cls-84{fill:url(#linear-gradient-72);}.cls-85{fill:url(#linear-gradient-73);}.cls-86{fill:url(#linear-gradient-74);}.cls-87{fill:url(#linear-gradient-75);}.cls-88{fill:url(#linear-gradient-76);}.cls-89{fill:url(#linear-gradient-77);}.cls-90{fill:url(#linear-gradient-78);}.cls-91{fill:url(#linear-gradient-79);}.cls-92{fill:url(#linear-gradient-80);}.cls-93{fill:url(#linear-gradient-81);}.cls-94{fill:url(#linear-gradient-82);}.cls-95{fill:url(#linear-gradient-83);}.cls-96{fill:url(#linear-gradient-84);}.cls-97{fill:url(#linear-gradient-85);}.cls-98{fill:url(#linear-gradient-86);}.cls-99{fill:#999;}.cls-100{fill:url(#linear-gradient-87);}.cls-101{fill:#fbae17;}.cls-102{fill:#f2f2f2;}.cls-103{fill:url(#linear-gradient-88);}.cls-104{fill:url(#linear-gradient-89);}.cls-105{fill:url(#linear-gradient-90);}.cls-106{fill:#606060;}.cls-107{fill:#363868;}.cls-108{fill:url(#linear-gradient-91);}.cls-109{fill:url(#linear-gradient-92);}.cls-110{fill:url(#linear-gradient-93);}.cls-111{fill:url(#linear-gradient-94);}.cls-112{fill:url(#linear-gradient-95);}.cls-113{fill:url(#linear-gradient-96);}.cls-114{fill:url(#linear-gradient-97);}.cls-115{fill:url(#linear-gradient-98);}.cls-116{fill:url(#linear-gradient-99);}.cls-117{fill:url(#linear-gradient-100);}.cls-118{fill:url(#linear-gradient-101);}.cls-119{fill:url(#linear-gradient-102);}.cls-120{fill:url(#linear-gradient-103);}.cls-121{fill:url(#linear-gradient-104);}.cls-122{fill:url(#linear-gradient-105);}.cls-123{fill:url(#linear-gradient-106);}.cls-124{fill:url(#linear-gradient-107);}.cls-125{fill:url(#linear-gradient-108);}.cls-126{fill:url(#linear-gradient-109);}.cls-127{fill:url(#linear-gradient-110);}.cls-128{fill:url(#linear-gradient-111);}.cls-129{fill:url(#linear-gradient-112);}.cls-131{fill:url(#linear-gradient-113);}.cls-132{font-size:53.6px;}.cls-132,.cls-135{fill:#fea600;font-family:Calibri-Bold, Calibri;font-weight:700;}.cls-133{fill:url(#linear-gradient-114);}.cls-134{fill:url(#linear-gradient-115);}.cls-135{font-size:38.71px;}.cls-136{fill:url(#linear-gradient-116);}.cls-137{fill:url(#linear-gradient-117);}.cls-138{fill:url(#linear-gradient-118);}.cls-139{fill:url(#linear-gradient-119);}.cls-140{fill:url(#linear-gradient-120);}.cls-141{fill:url(#linear-gradient-121);}.cls-142{fill:url(#linear-gradient-122);}.cls-143{fill:url(#linear-gradient-123);}.cls-144{fill:url(#linear-gradient-124);}.cls-145{fill:url(#linear-gradient-125);}.cls-146{fill:url(#linear-gradient-126);}.cls-147{fill:url(#linear-gradient-127);}.cls-148{fill:url(#linear-gradient-128);}.cls-149{fill:url(#linear-gradient-129);}.cls-150{fill:url(#linear-gradient-130);}.cls-151{fill:url(#linear-gradient-131);}.cls-152{fill:url(#linear-gradient-132);}.cls-153{fill:url(#linear-gradient-133);}.cls-154{fill:url(#linear-gradient-134);}.cls-155{fill:url(#linear-gradient-135);}.cls-156{fill:url(#linear-gradient-136);}.cls-157{fill:url(#linear-gradient-137);}.cls-158{fill:url(#linear-gradient-138);}.cls-159{fill:url(#linear-gradient-139);}.cls-160{fill:url(#linear-gradient-140);}.cls-161{fill:url(#linear-gradient-141);}.cls-162{fill:url(#linear-gradient-142);}.cls-163{fill:url(#linear-gradient-143);}.cls-164{fill:url(#linear-gradient-144);}.cls-165{fill:url(#linear-gradient-145);}.cls-166{fill:url(#linear-gradient-146);}.cls-167{fill:url(#linear-gradient-147);}.cls-168{fill:url(#linear-gradient-148);}.cls-169{fill:url(#linear-gradient-149);}.cls-170{opacity:0.15;}.cls-171{fill:none;}.cls-172{fill:url(#linear-gradient-150);}.cls-173{opacity:0.2;}</style><linearGradient id="linear-gradient" x1="-432.02" y1="176.36" x2="-159.11" y2="176.36" gradientTransform="matrix(-1, 0, 0, 1, -143.96, 0)" gradientUnits="userSpaceOnUse"><stop offset="0" stop-color="#d3d0ff"/><stop offset="1" stop-color="#f1f9fe"/></linearGradient><linearGradient id="linear-gradient-2" x1="233.39" y1="-4.53" x2="358.51" y2="214.02" gradientTransform="matrix(1, 0, 0, 1, 0, 0)" xlink:href="#linear-gradient"/><linearGradient id="linear-gradient-3" x1="236.44" y1="59.16" x2="291.91" y2="398.65" gradientTransform="matrix(1, 0, 0, 1, 0, 0)" xlink:href="#linear-gradient"/><linearGradient id="linear-gradient-4" x1="185.39" y1="-24.51" x2="173.59" y2="83.98" gradientTransform="translate(179.04 -158.71) rotate(82.36)" xlink:href="#linear-gradient"/><linearGradient id="linear-gradient-5" x1="73.91" y1="94.23" x2="104.45" y2="94.23" gradientUnits="userSpaceOnUse"><stop offset="0" stop-color="#ffb682"/><stop offset="1" stop-color="#ee5379"/></linearGradient><linearGradient id="linear-gradient-6" x1="11476.6" y1="296.2" x2="11508.36" y2="296.2" gradientTransform="matrix(-1, 0, 0, 1, 11976.6, 0)" gradientUnits="userSpaceOnUse"><stop offset="0" stop-color="#5e6398"/><stop offset="1" stop-color="#292e6f"/></linearGradient><linearGradient id="linear-gradient-7" x1="3608.94" y1="279.99" x2="3642.51" y2="279.99" gradientTransform="matrix(-1, 0, 0, 1, 4084.25, 0)" xlink:href="#linear-gradient-5"/><linearGradient id="linear-gradient-8" x1="-2311.44" y1="304.56" x2="-2298.6" y2="316.82" gradientTransform="translate(2773.1)" gradientUnits="userSpaceOnUse"><stop offset="0" stop-color="#a2ed94"/><stop offset="1" stop-color="#69c7b3"/></linearGradient><linearGradient id="linear-gradient-9" x1="3628.89" y1="301.45" x2="3665.08" y2="301.45" gradientTransform="matrix(-1, 0, 0, 1, 4084.25, 0)" gradientUnits="userSpaceOnUse"><stop offset="0" stop-color="#4bdff3"/><stop offset="1" stop-color="#9771fd"/></linearGradient><linearGradient id="linear-gradient-10" x1="4.89" y1="267.05" x2="46.7" y2="267.05" gradientTransform="matrix(1, 0, 0, 1, 0, 0)" xlink:href="#linear-gradient-8"/><linearGradient id="linear-gradient-11" x1="31.67" y1="313.54" x2="20.72" y2="302.59" gradientUnits="userSpaceOnUse"><stop offset="0" stop-color="#6443d7"/><stop offset="1" stop-color="#ac5df9"/></linearGradient><linearGradient id="linear-gradient-12" x1="9046.4" y1="224.34" x2="9048.2" y2="224.34" gradientTransform="matrix(-1, 0, 0, 1, 9406.66, 0)" gradientUnits="userSpaceOnUse"><stop offset="0" stop-color="#3a3c63"/><stop offset="1" stop-color="#40447b"/></linearGradient><linearGradient id="linear-gradient-13" x1="8999.39" y1="286.54" x2="9028.91" y2="286.54" xlink:href="#linear-gradient-12"/><linearGradient id="linear-gradient-14" x1="9003.27" y1="325.82" x2="9002.73" y2="317.61" xlink:href="#linear-gradient-12"/><linearGradient id="linear-gradient-15" x1="9029.24" y1="327.57" x2="9029.02" y2="318.84" xlink:href="#linear-gradient-12"/><linearGradient id="linear-gradient-16" x1="8991.21" y1="252.83" x2="9042.97" y2="230" gradientTransform="matrix(-1, 0, 0, 1, 9406.66, 0)" xlink:href="#linear-gradient-11"/><linearGradient id="linear-gradient-17" x1="202.83" y1="72.31" x2="251.51" y2="72.31" gradientUnits="userSpaceOnUse"><stop offset="0" stop-color="#f6fdfe"/><stop offset="1" stop-color="#faf8ff"/></linearGradient><linearGradient id="linear-gradient-18" x1="202.63" y1="72.06" x2="251.31" y2="72.06" gradientUnits="userSpaceOnUse"><stop offset="0" stop-color="#eefcfe"/><stop offset="1" stop-color="#f5f1ff"/></linearGradient><linearGradient id="linear-gradient-19" x1="202.43" y1="71.81" x2="251.11" y2="71.81" gradientUnits="userSpaceOnUse"><stop offset="0" stop-color="#e5fafd"/><stop offset="1" stop-color="#f0ebff"/></linearGradient><linearGradient id="linear-gradient-20" x1="202.24" y1="71.57" x2="250.92" y2="71.57" gradientUnits="userSpaceOnUse"><stop offset="0" stop-color="#ddf9fd"/><stop offset="1" stop-color="#ebe4ff"/></linearGradient><linearGradient id="linear-gradient-21" x1="202.04" y1="71.32" x2="250.72" y2="71.32" gradientUnits="userSpaceOnUse"><stop offset="0" stop-color="#d4f7fc"/><stop offset="1" stop-color="#e6ddff"/></linearGradient><linearGradient id="linear-gradient-22" x1="201.84" y1="71.07" x2="250.52" y2="71.07" gradientUnits="userSpaceOnUse"><stop offset="0" stop-color="#ccf6fc"/><stop offset="1" stop-color="#e1d6fe"/></linearGradient><linearGradient id="linear-gradient-23" x1="201.64" y1="70.83" x2="250.32" y2="70.83" gradientUnits="userSpaceOnUse"><stop offset="0" stop-color="#c3f4fb"/><stop offset="1" stop-color="#dcd0fe"/></linearGradient><linearGradient id="linear-gradient-24" x1="201.45" y1="70.58" x2="250.12" y2="70.58" gradientUnits="userSpaceOnUse"><stop offset="0" stop-color="#baf3fa"/><stop offset="1" stop-color="#d7c9fe"/></linearGradient><linearGradient id="linear-gradient-25" x1="201.25" y1="70.33" x2="249.93" y2="70.33" gradientUnits="userSpaceOnUse"><stop offset="0" stop-color="#b2f1fa"/><stop offset="1" stop-color="#d2c2fe"/></linearGradient><linearGradient id="linear-gradient-26" x1="201.05" y1="70.08" x2="249.73" y2="70.08" gradientUnits="userSpaceOnUse"><stop offset="0" stop-color="#a9f0f9"/><stop offset="1" stop-color="#cdbbfe"/></linearGradient><linearGradient id="linear-gradient-27" x1="200.85" y1="69.84" x2="249.53" y2="69.84" gradientUnits="userSpaceOnUse"><stop offset="0" stop-color="#a1eef9"/><stop offset="1" stop-color="#c9b5fe"/></linearGradient><linearGradient id="linear-gradient-28" x1="200.65" y1="69.59" x2="249.33" y2="69.59" gradientUnits="userSpaceOnUse"><stop offset="0" stop-color="#98edf8"/><stop offset="1" stop-color="#c4aefe"/></linearGradient><linearGradient id="linear-gradient-29" x1="200.46" y1="69.34" x2="249.14" y2="69.34" gradientUnits="userSpaceOnUse"><stop offset="0" stop-color="#90ebf8"/><stop offset="1" stop-color="#bfa7fe"/></linearGradient><linearGradient id="linear-gradient-30" x1="200.26" y1="69.09" x2="248.94" y2="69.09" gradientUnits="userSpaceOnUse"><stop offset="0" stop-color="#87eaf7"/><stop offset="1" stop-color="#baa0fe"/></linearGradient><linearGradient id="linear-gradient-31" x1="200.06" y1="68.85" x2="248.74" y2="68.85" gradientUnits="userSpaceOnUse"><stop offset="0" stop-color="#7ee8f6"/><stop offset="1" stop-color="#b59afe"/></linearGradient><linearGradient id="linear-gradient-32" x1="199.86" y1="68.6" x2="248.54" y2="68.6" gradientUnits="userSpaceOnUse"><stop offset="0" stop-color="#76e7f6"/><stop offset="1" stop-color="#b093fd"/></linearGradient><linearGradient id="linear-gradient-33" x1="199.67" y1="68.35" x2="248.35" y2="68.35" gradientUnits="userSpaceOnUse"><stop offset="0" stop-color="#6de5f5"/><stop offset="1" stop-color="#ab8cfd"/></linearGradient><linearGradient id="linear-gradient-34" x1="199.47" y1="68.1" x2="248.15" y2="68.1" gradientUnits="userSpaceOnUse"><stop offset="0" stop-color="#65e4f5"/><stop offset="1" stop-color="#a685fd"/></linearGradient><linearGradient id="linear-gradient-35" x1="199.27" y1="67.86" x2="247.95" y2="67.86" gradientUnits="userSpaceOnUse"><stop offset="0" stop-color="#5ce2f4"/><stop offset="1" stop-color="#a17ffd"/></linearGradient><linearGradient id="linear-gradient-36" x1="199.07" y1="67.61" x2="247.75" y2="67.61" gradientUnits="userSpaceOnUse"><stop offset="0" stop-color="#54e1f4"/><stop offset="1" stop-color="#9c78fd"/></linearGradient><linearGradient id="linear-gradient-37" x1="198.88" y1="67.36" x2="247.55" y2="67.36" gradientTransform="matrix(1, 0, 0, 1, 0, 0)" xlink:href="#linear-gradient-9"/><linearGradient id="linear-gradient-38" x1="224.46" y1="56.16" x2="235.65" y2="56.16" gradientUnits="userSpaceOnUse"><stop offset="0" stop-color="#febf00"/><stop offset="0.98" stop-color="#ffdf00"/></linearGradient><linearGradient id="linear-gradient-39" x1="206.38" y1="66.83" x2="223.21" y2="66.83" gradientUnits="userSpaceOnUse"><stop offset="0" stop-color="#fb7db7"/><stop offset="1" stop-color="#fdacaf"/></linearGradient><linearGradient id="linear-gradient-40" x1="223.21" y1="69.67" x2="240.05" y2="69.67" gradientUnits="userSpaceOnUse"><stop offset="0" stop-color="#6466d7"/><stop offset="1" stop-color="#ac81f9"/></linearGradient><linearGradient id="linear-gradient-41" x1="131.41" y1="121.59" x2="180.2" y2="121.59" xlink:href="#linear-gradient-17"/><linearGradient id="linear-gradient-42" x1="131.21" y1="121.33" x2="180" y2="121.33" xlink:href="#linear-gradient-18"/><linearGradient id="linear-gradient-43" x1="131.02" y1="121.06" x2="179.8" y2="121.06" xlink:href="#linear-gradient-19"/><linearGradient id="linear-gradient-44" x1="130.82" y1="120.8" x2="179.6" y2="120.8" xlink:href="#linear-gradient-20"/><linearGradient id="linear-gradient-45" x1="130.62" y1="120.54" x2="179.41" y2="120.54" xlink:href="#linear-gradient-21"/><linearGradient id="linear-gradient-46" x1="130.42" y1="120.27" x2="179.21" y2="120.27" xlink:href="#linear-gradient-22"/><linearGradient id="linear-gradient-47" x1="130.22" y1="120.01" x2="179.01" y2="120.01" xlink:href="#linear-gradient-23"/><linearGradient id="linear-gradient-48" x1="130.03" y1="119.74" x2="178.81" y2="119.74" xlink:href="#linear-gradient-24"/><linearGradient id="linear-gradient-49" x1="129.83" y1="119.48" x2="178.61" y2="119.48" xlink:href="#linear-gradient-25"/><linearGradient id="linear-gradient-50" x1="129.63" y1="119.22" x2="178.42" y2="119.22" xlink:href="#linear-gradient-26"/><linearGradient id="linear-gradient-51" x1="129.43" y1="118.95" x2="178.22" y2="118.95" xlink:href="#linear-gradient-27"/><linearGradient id="linear-gradient-52" x1="129.23" y1="118.69" x2="178.02" y2="118.69" xlink:href="#linear-gradient-28"/><linearGradient id="linear-gradient-53" x1="129.03" y1="118.42" x2="177.82" y2="118.42" xlink:href="#linear-gradient-29"/><linearGradient id="linear-gradient-54" x1="128.84" y1="118.16" x2="177.62" y2="118.16" xlink:href="#linear-gradient-30"/><linearGradient id="linear-gradient-55" x1="128.64" y1="117.89" x2="177.42" y2="117.89" xlink:href="#linear-gradient-31"/><linearGradient id="linear-gradient-56" x1="128.44" y1="117.63" x2="177.23" y2="117.63" xlink:href="#linear-gradient-32"/><linearGradient id="linear-gradient-57" x1="128.24" y1="117.37" x2="177.03" y2="117.37" xlink:href="#linear-gradient-33"/><linearGradient id="linear-gradient-58" x1="128.04" y1="117.1" x2="176.83" y2="117.1" xlink:href="#linear-gradient-34"/><linearGradient id="linear-gradient-59" x1="127.85" y1="116.84" x2="176.63" y2="116.84" xlink:href="#linear-gradient-35"/><linearGradient id="linear-gradient-60" x1="127.65" y1="116.57" x2="176.43" y2="116.57" xlink:href="#linear-gradient-36"/><linearGradient id="linear-gradient-61" x1="127.45" y1="116.31" x2="176.24" y2="116.31" gradientTransform="matrix(1, 0, 0, 1, 0, 0)" xlink:href="#linear-gradient-9"/><linearGradient id="linear-gradient-62" x1="131.82" y1="136.12" x2="161.29" y2="106.65" gradientTransform="matrix(1, 0, 0, 1, 0, 0)" xlink:href="#linear-gradient-9"/><linearGradient id="linear-gradient-63" x1="279.89" y1="114.25" x2="328.57" y2="114.25" gradientUnits="userSpaceOnUse"><stop offset="0" stop-color="#fffcf9"/><stop offset="1" stop-color="#fef7f9"/></linearGradient><linearGradient id="linear-gradient-64" x1="279.69" y1="114.01" x2="328.37" y2="114.01" gradientUnits="userSpaceOnUse"><stop offset="0" stop-color="#fff8f3"/><stop offset="1" stop-color="#fdeff2"/></linearGradient><linearGradient id="linear-gradient-65" x1="279.49" y1="113.76" x2="328.17" y2="113.76" gradientUnits="userSpaceOnUse"><stop offset="0" stop-color="#fff5ed"/><stop offset="1" stop-color="#fde6ec"/></linearGradient><linearGradient id="linear-gradient-66" x1="279.29" y1="113.51" x2="327.97" y2="113.51" gradientUnits="userSpaceOnUse"><stop offset="0" stop-color="#fff1e7"/><stop offset="1" stop-color="#fcdee5"/></linearGradient><linearGradient id="linear-gradient-67" x1="279.1" y1="113.26" x2="327.78" y2="113.26" gradientUnits="userSpaceOnUse"><stop offset="0" stop-color="#ffeee1"/><stop offset="1" stop-color="#fbd6df"/></linearGradient><linearGradient id="linear-gradient-68" x1="278.9" y1="113.02" x2="327.58" y2="113.02" gradientUnits="userSpaceOnUse"><stop offset="0" stop-color="#ffeadb"/><stop offset="1" stop-color="#faced9"/></linearGradient><linearGradient id="linear-gradient-69" x1="278.7" y1="112.77" x2="327.38" y2="112.77" gradientUnits="userSpaceOnUse"><stop offset="0" stop-color="#ffe7d5"/><stop offset="1" stop-color="#f9c6d2"/></linearGradient><linearGradient id="linear-gradient-70" x1="278.5" y1="112.52" x2="327.18" y2="112.52" gradientUnits="userSpaceOnUse"><stop offset="0" stop-color="#ffe3cf"/><stop offset="1" stop-color="#f9bdcc"/></linearGradient><linearGradient id="linear-gradient-71" x1="278.31" y1="112.28" x2="326.99" y2="112.28" gradientUnits="userSpaceOnUse"><stop offset="0" stop-color="#ffe0c9"/><stop offset="1" stop-color="#f8b5c6"/></linearGradient><linearGradient id="linear-gradient-72" x1="278.11" y1="112.03" x2="326.79" y2="112.03" gradientUnits="userSpaceOnUse"><stop offset="0" stop-color="#ffdcc3"/><stop offset="1" stop-color="#f7adbf"/></linearGradient><linearGradient id="linear-gradient-73" x1="277.91" y1="111.78" x2="326.59" y2="111.78" gradientUnits="userSpaceOnUse"><stop offset="0" stop-color="#ffd9be"/><stop offset="1" stop-color="#f6a5b9"/></linearGradient><linearGradient id="linear-gradient-74" x1="277.71" y1="111.53" x2="326.39" y2="111.53" gradientUnits="userSpaceOnUse"><stop offset="0" stop-color="#ffd5b8"/><stop offset="1" stop-color="#f59db2"/></linearGradient><linearGradient id="linear-gradient-75" x1="277.52" y1="111.29" x2="326.19" y2="111.29" gradientUnits="userSpaceOnUse"><stop offset="0" stop-color="#ffd2b2"/><stop offset="1" stop-color="#f495ac"/></linearGradient><linearGradient id="linear-gradient-76" x1="277.32" y1="111.04" x2="326" y2="111.04" gradientUnits="userSpaceOnUse"><stop offset="0" stop-color="#ffceac"/><stop offset="1" stop-color="#f48ca6"/></linearGradient><linearGradient id="linear-gradient-77" x1="277.12" y1="110.79" x2="325.8" y2="110.79" gradientUnits="userSpaceOnUse"><stop offset="0" stop-color="#ffcba6"/><stop offset="1" stop-color="#f3849f"/></linearGradient><linearGradient id="linear-gradient-78" x1="276.92" y1="110.54" x2="325.6" y2="110.54" gradientUnits="userSpaceOnUse"><stop offset="0" stop-color="#ffc7a0"/><stop offset="1" stop-color="#f27c99"/></linearGradient><linearGradient id="linear-gradient-79" x1="276.72" y1="110.3" x2="325.4" y2="110.3" gradientUnits="userSpaceOnUse"><stop offset="0" stop-color="#ffc49a"/><stop offset="1" stop-color="#f17493"/></linearGradient><linearGradient id="linear-gradient-80" x1="276.53" y1="110.05" x2="325.21" y2="110.05" gradientUnits="userSpaceOnUse"><stop offset="0" stop-color="#ffc094"/><stop offset="1" stop-color="#f06c8c"/></linearGradient><linearGradient id="linear-gradient-81" x1="276.33" y1="109.8" x2="325.01" y2="109.8" gradientUnits="userSpaceOnUse"><stop offset="0" stop-color="#ffbd8e"/><stop offset="1" stop-color="#f06386"/></linearGradient><linearGradient id="linear-gradient-82" x1="276.13" y1="109.55" x2="324.81" y2="109.55" gradientUnits="userSpaceOnUse"><stop offset="0" stop-color="#ffb988"/><stop offset="1" stop-color="#ef5b7f"/></linearGradient><linearGradient id="linear-gradient-83" x1="275.93" y1="109.31" x2="324.61" y2="109.31" xlink:href="#linear-gradient-5"/><linearGradient id="linear-gradient-84" x1="299.81" y1="128.95" x2="299.81" y2="105.41" gradientUnits="userSpaceOnUse"><stop offset="0" stop-color="#c7e9f9"/><stop offset="0.46" stop-color="#f1f9fe"/></linearGradient><linearGradient id="linear-gradient-85" x1="282.57" y1="110.98" x2="314.57" y2="110.98" gradientUnits="userSpaceOnUse"><stop offset="0" stop-color="#3393eb"/><stop offset="1" stop-color="#37bedf"/></linearGradient><linearGradient id="linear-gradient-86" x1="311.48" y1="101.51" x2="315.64" y2="101.51" xlink:href="#linear-gradient-85"/><linearGradient id="linear-gradient-87" x1="325.65" y1="305.13" x2="237.76" y2="217.24" gradientTransform="matrix(1, 0, 0, 1, 0, 0)" xlink:href="#linear-gradient-8"/><linearGradient id="linear-gradient-88" x1="358.08" y1="279.28" x2="246.88" y2="279.28" gradientTransform="matrix(1, 0, 0, 1, 0, 0)" xlink:href="#linear-gradient-8"/><linearGradient id="linear-gradient-89" x1="325.18" y1="341.46" x2="237.19" y2="253.47" gradientTransform="matrix(1, 0, 0, 1, 0, 0)" xlink:href="#linear-gradient-8"/><linearGradient id="linear-gradient-90" x1="325.18" y1="359.63" x2="237.19" y2="271.65" gradientTransform="matrix(1, 0, 0, 1, 0, 0)" xlink:href="#linear-gradient-8"/><linearGradient id="linear-gradient-91" x1="161.19" y1="185.48" x2="161.19" y2="306.25" gradientUnits="userSpaceOnUse"><stop offset="0" stop-color="#c7e9f9"/><stop offset="1" stop-color="#f1f9fe"/></linearGradient><linearGradient id="linear-gradient-92" x1="103.03" y1="186.41" x2="218.89" y2="186.41" gradientTransform="matrix(1, 0, 0, 1, 0, 0)" xlink:href="#linear-gradient-9"/><linearGradient id="linear-gradient-93" x1="135.58" y1="225.04" x2="158.52" y2="225.04" gradientTransform="matrix(1, 0, 0, 1, 0, 0)" xlink:href="#linear-gradient-6"/><linearGradient id="linear-gradient-94" x1="105.02" y1="225.04" x2="127.97" y2="225.04" gradientTransform="matrix(1, 0, 0, 1, 0, 0)" xlink:href="#linear-gradient-6"/><linearGradient id="linear-gradient-95" x1="166.13" y1="225.04" x2="189.08" y2="225.04" gradientTransform="matrix(1, 0, 0, 1, 0, 0)" xlink:href="#linear-gradient-6"/><linearGradient id="linear-gradient-96" x1="194.42" y1="264.68" x2="217.37" y2="264.68" gradientTransform="matrix(1, 0, 0, 1, 0, 0)" xlink:href="#linear-gradient-6"/><linearGradient id="linear-gradient-97" x1="194.42" y1="244.86" x2="217.37" y2="244.86" gradientTransform="matrix(1, 0, 0, 1, 0, 0)" xlink:href="#linear-gradient-6"/><linearGradient id="linear-gradient-98" x1="205.9" y1="210.52" x2="205.9" y2="229.65" xlink:href="#linear-gradient-5"/><linearGradient id="linear-gradient-99" x1="135.58" y1="244.86" x2="158.52" y2="244.86" gradientTransform="matrix(1, 0, 0, 1, 0, 0)" xlink:href="#linear-gradient-6"/><linearGradient id="linear-gradient-100" x1="105.02" y1="244.86" x2="127.97" y2="244.86" gradientTransform="matrix(1, 0, 0, 1, 0, 0)" xlink:href="#linear-gradient-6"/><linearGradient id="linear-gradient-101" x1="166.13" y1="244.86" x2="189.08" y2="244.86" gradientTransform="matrix(1, 0, 0, 1, 0, 0)" xlink:href="#linear-gradient-6"/><linearGradient id="linear-gradient-102" x1="135.58" y1="264.68" x2="158.52" y2="264.68" gradientTransform="matrix(1, 0, 0, 1, 0, 0)" xlink:href="#linear-gradient-6"/><linearGradient id="linear-gradient-103" x1="105.02" y1="264.68" x2="127.97" y2="264.68" gradientTransform="matrix(1, 0, 0, 1, 0, 0)" xlink:href="#linear-gradient-6"/><linearGradient id="linear-gradient-104" x1="166.13" y1="264.68" x2="189.08" y2="264.68" gradientTransform="matrix(1, 0, 0, 1, 0, 0)" xlink:href="#linear-gradient-6"/><linearGradient id="linear-gradient-105" x1="135.58" y1="284.49" x2="158.52" y2="284.49" gradientTransform="matrix(1, 0, 0, 1, 0, 0)" xlink:href="#linear-gradient-6"/><linearGradient id="linear-gradient-106" x1="105.02" y1="284.49" x2="127.97" y2="284.49" gradientTransform="matrix(1, 0, 0, 1, 0, 0)" xlink:href="#linear-gradient-6"/><linearGradient id="linear-gradient-107" x1="166.13" y1="284.49" x2="189.08" y2="284.49" gradientTransform="matrix(1, 0, 0, 1, 0, 0)" xlink:href="#linear-gradient-6"/><linearGradient id="linear-gradient-108" x1="135.58" y1="304.31" x2="158.52" y2="304.31" gradientTransform="matrix(1, 0, 0, 1, 0, 0)" xlink:href="#linear-gradient-6"/><linearGradient id="linear-gradient-109" x1="105.02" y1="304.31" x2="127.97" y2="304.31" gradientTransform="matrix(1, 0, 0, 1, 0, 0)" xlink:href="#linear-gradient-6"/><linearGradient id="linear-gradient-110" x1="166.13" y1="304.31" x2="189.08" y2="304.31" gradientTransform="matrix(1, 0, 0, 1, 0, 0)" xlink:href="#linear-gradient-6"/><linearGradient id="linear-gradient-111" x1="194.42" y1="294.72" x2="216.83" y2="294.72" gradientTransform="matrix(1, 0, 0, 1, 0, 0)" xlink:href="#linear-gradient-6"/><linearGradient id="linear-gradient-112" x1="254.53" y1="163.8" x2="286.54" y2="163.8" xlink:href="#linear-gradient-38"/><linearGradient id="linear-gradient-113" x1="254.53" y1="163.17" x2="286.54" y2="163.17" xlink:href="#linear-gradient-38"/><linearGradient id="linear-gradient-114" x1="308.05" y1="187.93" x2="331.16" y2="187.93" xlink:href="#linear-gradient-38"/><linearGradient id="linear-gradient-115" x1="308.05" y1="187.47" x2="331.16" y2="187.47" xlink:href="#linear-gradient-38"/><linearGradient id="linear-gradient-116" x1="348.99" y1="177.22" x2="397.67" y2="177.22" xlink:href="#linear-gradient-63"/><linearGradient id="linear-gradient-117" x1="348.79" y1="176.97" x2="397.47" y2="176.97" xlink:href="#linear-gradient-64"/><linearGradient id="linear-gradient-118" x1="348.59" y1="176.72" x2="397.27" y2="176.72" xlink:href="#linear-gradient-65"/><linearGradient id="linear-gradient-119" x1="348.39" y1="176.48" x2="397.07" y2="176.48" xlink:href="#linear-gradient-66"/><linearGradient id="linear-gradient-120" x1="348.2" y1="176.23" x2="396.87" y2="176.23" xlink:href="#linear-gradient-67"/><linearGradient id="linear-gradient-121" x1="348" y1="175.98" x2="396.68" y2="175.98" xlink:href="#linear-gradient-68"/><linearGradient id="linear-gradient-122" x1="347.8" y1="175.73" x2="396.48" y2="175.73" xlink:href="#linear-gradient-69"/><linearGradient id="linear-gradient-123" x1="347.6" y1="175.49" x2="396.28" y2="175.49" xlink:href="#linear-gradient-70"/><linearGradient id="linear-gradient-124" x1="347.4" y1="175.24" x2="396.08" y2="175.24" xlink:href="#linear-gradient-71"/><linearGradient id="linear-gradient-125" x1="347.21" y1="174.99" x2="395.89" y2="174.99" xlink:href="#linear-gradient-72"/><linearGradient id="linear-gradient-126" x1="347.01" y1="174.75" x2="395.69" y2="174.75" xlink:href="#linear-gradient-73"/><linearGradient id="linear-gradient-127" x1="346.81" y1="174.5" x2="395.49" y2="174.5" xlink:href="#linear-gradient-74"/><linearGradient id="linear-gradient-128" x1="346.61" y1="174.25" x2="395.29" y2="174.25" xlink:href="#linear-gradient-75"/><linearGradient id="linear-gradient-129" x1="346.42" y1="174" x2="395.1" y2="174" xlink:href="#linear-gradient-76"/><linearGradient id="linear-gradient-130" x1="346.22" y1="173.76" x2="394.9" y2="173.76" xlink:href="#linear-gradient-77"/><linearGradient id="linear-gradient-131" x1="346.02" y1="173.51" x2="394.7" y2="173.51" xlink:href="#linear-gradient-78"/><linearGradient id="linear-gradient-132" x1="345.82" y1="173.26" x2="394.5" y2="173.26" xlink:href="#linear-gradient-79"/><linearGradient id="linear-gradient-133" x1="345.63" y1="173.01" x2="394.3" y2="173.01" xlink:href="#linear-gradient-80"/><linearGradient id="linear-gradient-134" x1="345.43" y1="172.77" x2="394.11" y2="172.77" xlink:href="#linear-gradient-81"/><linearGradient id="linear-gradient-135" x1="345.23" y1="172.52" x2="393.91" y2="172.52" xlink:href="#linear-gradient-82"/><linearGradient id="linear-gradient-136" x1="345.03" y1="172.27" x2="393.71" y2="172.27" xlink:href="#linear-gradient-5"/><linearGradient id="linear-gradient-137" x1="374.69" y1="183.52" x2="374.69" y2="159.98" xlink:href="#linear-gradient-91"/><linearGradient id="linear-gradient-138" x1="364.06" y1="183.52" x2="364.06" y2="159.98" xlink:href="#linear-gradient-91"/><linearGradient id="linear-gradient-139" x1="385.32" y1="183.52" x2="385.32" y2="159.98" xlink:href="#linear-gradient-91"/><linearGradient id="linear-gradient-140" x1="353.43" y1="183.52" x2="353.43" y2="159.98" xlink:href="#linear-gradient-91"/><linearGradient id="linear-gradient-141" x1="374.69" y1="193.81" x2="374.69" y2="171.27" xlink:href="#linear-gradient-5"/><linearGradient id="linear-gradient-142" x1="364.06" y1="193.81" x2="364.06" y2="171.27" xlink:href="#linear-gradient-5"/><linearGradient id="linear-gradient-143" x1="353.43" y1="193.81" x2="353.43" y2="171.26" xlink:href="#linear-gradient-5"/><linearGradient id="linear-gradient-144" x1="385.32" y1="193.81" x2="385.32" y2="171.27" xlink:href="#linear-gradient-5"/><linearGradient id="linear-gradient-145" x1="63.5" y1="327.41" x2="62.97" y2="319.27" gradientTransform="matrix(1, 0, 0, 1, 0, 0)" xlink:href="#linear-gradient-12"/><linearGradient id="linear-gradient-146" x1="89.26" y1="329.16" x2="89.05" y2="320.5" gradientTransform="matrix(1, 0, 0, 1, 0, 0)" xlink:href="#linear-gradient-12"/><linearGradient id="linear-gradient-147" x1="23.41" y1="288.46" x2="151.78" y2="288.46" gradientTransform="matrix(1, 0, 0, 1, 0, 0)" xlink:href="#linear-gradient-12"/><linearGradient id="linear-gradient-148" x1="23.41" y1="291.95" x2="151.78" y2="291.95" gradientTransform="matrix(1, 0, 0, 1, 0, 0)" xlink:href="#linear-gradient-12"/><linearGradient id="linear-gradient-149" x1="56.37" y1="244.52" x2="107.85" y2="244.52" xlink:href="#linear-gradient-38"/><linearGradient id="linear-gradient-150" x1="59.65" y1="270.37" x2="88.94" y2="270.37" gradientTransform="matrix(1, 0, 0, 1, 0, 0)" xlink:href="#linear-gradient-12"/></defs><g class="cls-1"><g id="Layer_2" data-name="Layer 2"><g id="Layer_1-2" data-name="Layer 1"><path class="cls-2" d="M72.06,243.69c40.25,92.89,136.49,100.07,201.54,59.17s80.28-133.69,34-207.26S212.55,140.42,142.7,40.75C94.42-28.14,37.51,164,72.06,243.69Z"/><path class="cls-3" d="M497,168.61a158.69,158.69,0,1,1-317.37,0c0-87.64,61.08-218.9,158.69-121.3C400.24,109.28,497,81,497,168.61Z"/><path class="cls-4" d="M116.66,327.3C102.48,299,100.81,263.08,100.81,224,100.81,37.8,226.87,97.91,266,169.73c43.68,80.11,130.66-40.12,165.22,54.25,13.44,36.72-5.52,75-22.45,103.32Z"/><ellipse class="cls-5" cx="180.22" cy="22.97" rx="22.49" ry="41.43" transform="matrix(0.13, -0.99, 0.99, 0.13, 133.51, 198.54)"/><g class="cls-6"><rect class="cls-7" x="484.7" y="173.81" width="2.59" height="2.59" transform="translate(18.52 394.92) rotate(-45)"/><rect class="cls-7" x="473.93" y="173.81" width="2.59" height="2.59" transform="translate(15.36 387.31) rotate(-45)"/><rect class="cls-7" x="463.16" y="173.81" width="2.59" height="2.59" transform="translate(12.22 379.71) rotate(-45)"/><rect class="cls-7" x="452.38" y="173.81" width="2.59" height="2.59" transform="translate(9.06 372.09) rotate(-45)"/><rect class="cls-7" x="441.61" y="173.81" width="2.59" height="2.59" transform="translate(5.91 364.49) rotate(-45)"/><rect class="cls-7" x="495.47" y="173.81" width="2.59" height="2.59" transform="translate(21.68 402.56) rotate(-45)"/><rect class="cls-7" x="484.7" y="189.12" width="2.59" height="2.59" transform="translate(7.7 399.41) rotate(-45)"/><rect class="cls-7" x="473.93" y="189.12" width="2.59" height="2.59" transform="translate(4.54 391.8) rotate(-45)"/><rect class="cls-7" x="463.16" y="189.12" width="2.59" height="2.59" transform="translate(1.39 384.2) rotate(-45)"/><rect class="cls-7" x="452.38" y="189.12" width="2.59" height="2.59" transform="translate(-1.76 376.58) rotate(-45)"/><rect class="cls-7" x="441.61" y="189.12" width="2.59" height="2.59" transform="translate(-4.91 368.98) rotate(-45)"/><rect class="cls-7" x="495.47" y="189.12" width="2.59" height="2.59" transform="translate(10.86 407.05) rotate(-45)"/><rect class="cls-7" x="484.7" y="204.43" width="2.59" height="2.59" transform="translate(-3.13 403.89) rotate(-45)"/><rect class="cls-7" x="473.93" y="204.43" width="2.59" height="2.59" transform="translate(-6.28 396.28) rotate(-45)"/><rect class="cls-7" x="463.16" y="204.43" width="2.59" height="2.59" transform="translate(-9.43 388.68) rotate(-45)"/><rect class="cls-7" x="452.38" y="204.43" width="2.59" height="2.59" transform="translate(-12.58 381.06) rotate(-45)"/><rect class="cls-7" x="441.61" y="204.43" width="2.59" height="2.59" transform="translate(-15.74 373.46) rotate(-45)"/><rect class="cls-7" x="495.47" y="204.43" width="2.59" height="2.59" transform="translate(0.04 411.53) rotate(-45)"/><rect class="cls-7" x="484.7" y="219.73" width="2.59" height="2.59" transform="translate(-13.95 408.38) rotate(-45)"/><rect class="cls-7" x="473.93" y="219.73" width="2.59" height="2.59" transform="translate(-17.11 400.76) rotate(-45)"/><rect class="cls-7" x="463.16" y="219.73" width="2.59" height="2.59" transform="translate(-20.25 393.16) rotate(-45)"/><rect class="cls-7" x="452.38" y="219.73" width="2.59" height="2.59" transform="translate(-23.41 385.55) rotate(-45)"/><rect class="cls-7" x="441.61" y="219.73" width="2.59" height="2.59" transform="translate(-26.56 377.94) rotate(-45)"/><rect class="cls-7" x="495.47" y="219.73" width="2.59" height="2.59" transform="translate(-10.79 416.02) rotate(-45)"/><rect class="cls-7" x="484.7" y="235.04" width="2.59" height="2.59" transform="translate(-24.78 412.86) rotate(-45)"/><rect class="cls-7" x="473.93" y="235.04" width="2.59" height="2.59" transform="translate(-27.93 405.25) rotate(-45)"/><rect class="cls-7" x="463.16" y="235.04" width="2.59" height="2.59" transform="translate(-31.08 397.65) rotate(-45)"/><rect class="cls-7" x="452.38" y="235.04" width="2.59" height="2.59" transform="translate(-34.23 390.03) rotate(-45)"/><rect class="cls-7" x="441.61" y="235.04" width="2.59" height="2.59" transform="translate(-37.38 382.43) rotate(-45)"/><rect class="cls-7" x="495.47" y="235.04" width="2.59" height="2.59" transform="translate(-21.61 420.5) rotate(-45)"/><rect class="cls-7" x="484.7" y="250.35" width="2.59" height="2.59" transform="translate(-35.6 417.35) rotate(-45)"/><rect class="cls-7" x="473.93" y="250.35" width="2.59" height="2.59" transform="translate(-38.75 409.73) rotate(-45)"/><rect class="cls-7" x="463.16" y="250.35" width="2.59" height="2.59" transform="translate(-41.9 402.13) rotate(-45)"/><rect class="cls-7" x="452.38" y="250.35" width="2.59" height="2.59" transform="translate(-45.06 394.51) rotate(-45)"/><rect class="cls-7" x="441.61" y="250.35" width="2.59" height="2.59" transform="translate(-48.21 386.91) rotate(-45)"/><rect class="cls-7" x="495.47" y="250.35" width="2.59" height="2.59" transform="translate(-32.44 424.98) rotate(-45)"/><rect class="cls-7" x="484.7" y="265.66" width="2.59" height="2.59" transform="translate(-46.42 421.83) rotate(-45)"/><rect class="cls-7" x="473.93" y="265.66" width="2.59" height="2.59" transform="translate(-49.58 414.21) rotate(-45)"/><rect class="cls-7" x="463.16" y="265.66" width="2.59" height="2.59" transform="translate(-52.73 406.61) rotate(-45)"/><rect class="cls-7" x="452.38" y="265.66" width="2.59" height="2.59" transform="translate(-55.88 399) rotate(-45)"/><rect class="cls-7" x="441.61" y="265.66" width="2.59" height="2.59" transform="translate(-59.03 391.4) rotate(-45)"/><rect class="cls-7" x="495.47" y="265.66" width="2.59" height="2.59" transform="translate(-43.26 429.47) rotate(-45)"/><rect class="cls-7" x="484.7" y="280.97" width="2.59" height="2.59" transform="translate(-57.25 426.31) rotate(-45)"/><rect class="cls-7" x="473.93" y="280.97" width="2.59" height="2.59" transform="translate(-60.4 418.7) rotate(-45)"/><rect class="cls-7" x="463.16" y="280.97" width="2.59" height="2.59" transform="translate(-63.55 411.1) rotate(-45)"/><rect class="cls-7" x="452.38" y="280.97" width="2.59" height="2.59" transform="translate(-66.71 403.48) rotate(-45)"/><rect class="cls-7" x="441.61" y="280.97" width="2.59" height="2.59" transform="translate(-69.86 395.88) rotate(-45)"/><rect class="cls-7" x="495.47" y="280.97" width="2.59" height="2.59" transform="translate(-54.09 433.95) rotate(-45)"/><rect class="cls-7" x="484.7" y="296.27" width="2.59" height="2.59" transform="translate(-68.07 430.8) rotate(-45)"/><rect class="cls-7" x="473.93" y="296.27" width="2.59" height="2.59" transform="translate(-71.23 423.18) rotate(-45)"/><rect class="cls-7" x="463.16" y="296.27" width="2.59" height="2.59" transform="translate(-74.38 415.58) rotate(-45)"/><rect class="cls-7" x="452.38" y="296.27" width="2.59" height="2.59" transform="translate(-77.53 407.97) rotate(-45)"/><rect class="cls-7" x="441.61" y="296.27" width="2.59" height="2.59" transform="translate(-80.68 400.36) rotate(-45)"/><rect class="cls-7" x="495.47" y="296.27" width="2.59" height="2.59" transform="translate(-64.91 438.44) rotate(-45)"/><rect class="cls-7" x="484.7" y="158.5" width="2.59" height="2.59" transform="translate(29.34 390.44) rotate(-45)"/><rect class="cls-7" x="473.93" y="158.5" width="2.59" height="2.59" transform="translate(26.19 382.82) rotate(-45)"/><rect class="cls-7" x="463.16" y="158.5" width="2.59" height="2.59" transform="translate(23.04 375.22) rotate(-45)"/><rect class="cls-7" x="452.38" y="158.5" width="2.59" height="2.59" transform="translate(19.89 367.61) rotate(-45)"/><rect class="cls-7" x="441.61" y="158.5" width="2.59" height="2.59" transform="translate(16.74 360) rotate(-45)"/><rect class="cls-7" x="495.47" y="158.5" width="2.59" height="2.59" transform="translate(32.51 398.08) rotate(-45)"/><rect class="cls-7" x="484.7" y="311.58" width="2.59" height="2.59" transform="translate(-78.9 435.28) rotate(-45)"/><rect class="cls-7" x="473.93" y="311.58" width="2.59" height="2.59" transform="translate(-82.05 427.66) rotate(-45)"/><rect class="cls-7" x="463.16" y="311.58" width="2.59" height="2.59" transform="translate(-85.2 420.07) rotate(-45)"/><rect class="cls-7" x="452.38" y="311.58" width="2.59" height="2.59" transform="translate(-88.36 412.45) rotate(-45)"/><rect class="cls-7" x="441.61" y="311.58" width="2.59" height="2.59" transform="translate(-91.51 404.85) rotate(-45)"/><rect class="cls-7" x="495.47" y="311.58" width="2.59" height="2.59" transform="translate(-75.74 442.92) rotate(-45)"/></g><g class="cls-6"><rect class="cls-7" x="44.86" y="274.23" width="2.59" height="2.59" transform="translate(-181.31 113.33) rotate(-45)"/><rect class="cls-7" x="44.86" y="285" width="2.59" height="2.59" transform="translate(-188.92 116.49) rotate(-45)"/><rect class="cls-7" x="44.86" y="295.78" width="2.59" height="2.59" transform="translate(-196.55 119.65) rotate(-45)"/><rect class="cls-7" x="44.86" y="306.55" width="2.59" height="2.59" transform="translate(-204.16 122.81) rotate(-45)"/><rect class="cls-7" x="44.86" y="317.32" width="2.59" height="2.59" transform="translate(-211.78 125.97) rotate(-45)"/><rect class="cls-7" x="44.86" y="263.46" width="2.59" height="2.59" transform="translate(-173.7 110.19) rotate(-45)"/><rect class="cls-7" x="60.17" y="274.23" width="2.59" height="2.59" transform="translate(-176.83 124.16) rotate(-45)"/><rect class="cls-7" x="60.17" y="285" width="2.59" height="2.59" transform="translate(-184.44 127.31) rotate(-45)"/><rect class="cls-7" x="60.17" y="295.78" width="2.59" height="2.59" transform="translate(-192.06 130.47) rotate(-45)"/><rect class="cls-7" x="60.17" y="306.55" width="2.59" height="2.59" transform="translate(-199.68 133.63) rotate(-45)"/><rect class="cls-7" x="60.17" y="317.32" width="2.59" height="2.59" transform="translate(-207.3 136.79) rotate(-45)"/><rect class="cls-7" x="60.17" y="263.46" width="2.59" height="2.59" transform="translate(-169.21 121.01) rotate(-45)"/><rect class="cls-7" x="75.47" y="274.23" width="2.59" height="2.59" transform="translate(-172.34 134.98) rotate(-45)"/><rect class="cls-7" x="75.47" y="285" width="2.59" height="2.59" transform="translate(-179.96 138.14) rotate(-45)"/><rect class="cls-7" x="75.47" y="295.78" width="2.59" height="2.59" transform="translate(-187.58 141.3) rotate(-45)"/><rect class="cls-7" x="75.47" y="306.55" width="2.59" height="2.59" transform="translate(-195.19 144.45) rotate(-45)"/><rect class="cls-7" x="75.47" y="317.32" width="2.59" height="2.59" transform="translate(-202.82 147.62) rotate(-45)"/><rect class="cls-7" x="75.47" y="263.46" width="2.59" height="2.59" transform="translate(-164.73 131.84) rotate(-45)"/><rect class="cls-7" x="90.78" y="274.23" width="2.59" height="2.59" transform="translate(-167.86 145.81) rotate(-45)"/><rect class="cls-7" x="90.78" y="285" width="2.59" height="2.59" transform="translate(-175.47 148.96) rotate(-45)"/><rect class="cls-7" x="90.78" y="295.78" width="2.59" height="2.59" transform="translate(-183.09 152.12) rotate(-45)"/><rect class="cls-7" x="90.78" y="306.55" width="2.59" height="2.59" transform="translate(-190.71 155.28) rotate(-45)"/><rect class="cls-7" x="90.78" y="317.32" width="2.59" height="2.59" transform="translate(-198.33 158.44) rotate(-45)"/><rect class="cls-7" x="90.78" y="263.46" width="2.59" height="2.59" transform="translate(-160.25 142.66) rotate(-45)"/><rect class="cls-7" x="106.09" y="274.23" width="2.59" height="2.59" transform="translate(-163.37 156.63) rotate(-45)"/><rect class="cls-7" x="106.09" y="285" width="2.59" height="2.59" transform="translate(-170.99 159.78) rotate(-45)"/><rect class="cls-7" x="106.09" y="295.78" width="2.59" height="2.59" transform="translate(-178.61 162.95) rotate(-45)"/><rect class="cls-7" x="106.09" y="306.55" width="2.59" height="2.59" transform="translate(-186.23 166.1) rotate(-45)"/><rect class="cls-7" x="106.09" y="317.32" width="2.59" height="2.59" transform="translate(-193.85 169.27) rotate(-45)"/><rect class="cls-7" x="106.09" y="263.46" width="2.59" height="2.59" transform="translate(-155.76 153.49) rotate(-45)"/><rect class="cls-7" x="121.4" y="274.23" width="2.59" height="2.59" transform="translate(-158.89 167.46) rotate(-45)"/><rect class="cls-7" x="121.4" y="285" width="2.59" height="2.59" transform="translate(-166.51 170.61) rotate(-45)"/><rect class="cls-7" x="121.4" y="295.78" width="2.59" height="2.59" transform="translate(-174.13 173.77) rotate(-45)"/><rect class="cls-7" x="121.4" y="306.55" width="2.59" height="2.59" transform="translate(-181.74 176.93) rotate(-45)"/><rect class="cls-7" x="121.4" y="317.32" width="2.59" height="2.59" transform="translate(-189.36 180.09) rotate(-45)"/><rect class="cls-7" x="121.4" y="263.46" width="2.59" height="2.59" transform="translate(-151.28 164.31) rotate(-45)"/><rect class="cls-7" x="136.71" y="274.23" width="2.59" height="2.59" transform="translate(-154.41 178.28) rotate(-45)"/><rect class="cls-7" x="136.71" y="285" width="2.59" height="2.59" transform="translate(-162.02 181.43) rotate(-45)"/><rect class="cls-7" x="136.71" y="295.78" width="2.59" height="2.59" transform="translate(-169.64 184.6) rotate(-45)"/><rect class="cls-7" x="136.71" y="306.55" width="2.59" height="2.59" transform="translate(-177.26 187.75) rotate(-45)"/><rect class="cls-7" x="136.71" y="317.32" width="2.59" height="2.59" transform="translate(-184.88 190.92) rotate(-45)"/><rect class="cls-7" x="136.71" y="263.46" width="2.59" height="2.59" transform="translate(-146.79 175.14) rotate(-45)"/><rect class="cls-7" x="152.01" y="274.23" width="2.59" height="2.59" transform="translate(-149.92 189.1) rotate(-45)"/><rect class="cls-7" x="152.01" y="285" width="2.59" height="2.59" transform="translate(-157.54 192.26) rotate(-45)"/><rect class="cls-7" x="152.01" y="295.78" width="2.59" height="2.59" transform="translate(-165.16 195.42) rotate(-45)"/><rect class="cls-7" x="152.01" y="306.55" width="2.59" height="2.59" transform="translate(-172.78 198.58) rotate(-45)"/><rect class="cls-7" x="152.01" y="317.32" width="2.59" height="2.59" transform="translate(-180.4 201.74) rotate(-45)"/><rect class="cls-7" x="152.01" y="263.46" width="2.59" height="2.59" transform="translate(-142.31 185.96) rotate(-45)"/><rect class="cls-7" x="167.32" y="274.23" width="2.59" height="2.59" transform="translate(-145.44 199.93) rotate(-45)"/><rect class="cls-7" x="167.32" y="285" width="2.59" height="2.59" transform="translate(-153.06 203.08) rotate(-45)"/><rect class="cls-7" x="167.32" y="295.78" width="2.59" height="2.59" transform="translate(-160.68 206.25) rotate(-45)"/><rect class="cls-7" x="167.32" y="306.55" width="2.59" height="2.59" transform="translate(-168.29 209.4) rotate(-45)"/><rect class="cls-7" x="167.32" y="317.32" width="2.59" height="2.59" transform="translate(-175.91 212.57) rotate(-45)"/><rect class="cls-7" x="167.32" y="263.46" width="2.59" height="2.59" transform="translate(-137.83 196.78) rotate(-45)"/><rect class="cls-7" x="29.55" y="274.23" width="2.59" height="2.59" transform="translate(-185.79 102.51) rotate(-45)"/><rect class="cls-7" x="29.55" y="285" width="2.59" height="2.59" transform="translate(-193.41 105.66) rotate(-45)"/><rect class="cls-7" x="29.55" y="295.78" width="2.59" height="2.59" transform="translate(-201.03 108.83) rotate(-45)"/><rect class="cls-7" x="29.55" y="306.55" width="2.59" height="2.59" transform="translate(-208.65 111.98) rotate(-45)"/><rect class="cls-7" x="29.55" y="317.32" width="2.59" height="2.59" transform="translate(-216.27 115.14) rotate(-45)"/><rect class="cls-7" x="29.55" y="263.46" width="2.59" height="2.59" transform="translate(-178.18 99.36) rotate(-45)"/><rect class="cls-7" x="182.63" y="274.23" width="2.59" height="2.59" transform="translate(-140.96 210.75) rotate(-45)"/><rect class="cls-7" x="182.63" y="285" width="2.59" height="2.59" transform="translate(-148.57 213.9) rotate(-45)"/><rect class="cls-7" x="182.63" y="295.78" width="2.59" height="2.59" transform="translate(-156.19 217.07) rotate(-45)"/><rect class="cls-7" x="182.63" y="306.55" width="2.59" height="2.59" transform="translate(-163.81 220.22) rotate(-45)"/><rect class="cls-7" x="182.63" y="317.32" width="2.59" height="2.59" transform="translate(-171.43 223.39) rotate(-45)"/><rect class="cls-7" x="182.63" y="263.46" width="2.59" height="2.59" transform="translate(-133.34 207.61) rotate(-45)"/></g><polygon class="cls-7" points="223.97 130.32 228.78 132.95 223.97 135.58 221.35 140.38 218.72 135.58 213.92 132.95 218.72 130.32 221.35 125.52 223.97 130.32"/><polygon class="cls-7" points="216.29 146.72 219.32 148.37 216.29 150.02 214.64 153.05 212.99 150.02 209.97 148.37 212.99 146.72 214.64 143.7 216.29 146.72"/><polygon class="cls-7" points="233.79 142.86 238.39 145.38 233.79 147.89 231.27 152.5 228.75 147.89 224.15 145.38 228.75 142.86 231.27 138.25 233.79 142.86"/><path class="cls-8" d="M102.9,92h-2.35A1.56,1.56,0,0,1,99.08,91a9.63,9.63,0,0,0-.59-1.4,1.55,1.55,0,0,1,.28-1.8L100.54,86a1.41,1.41,0,0,0,0-2l-1-1a1.55,1.55,0,0,0-2.2,0l-1.67,1.67a1.53,1.53,0,0,1-1.8.27,10.83,10.83,0,0,0-1.4-.58,1.56,1.56,0,0,1-1.08-1.48V80.51A1.56,1.56,0,0,0,89.82,79H88.54A1.56,1.56,0,0,0,87,80.51v2.34a1.56,1.56,0,0,1-1.08,1.48,10.83,10.83,0,0,0-1.4.58,1.53,1.53,0,0,1-1.8-.27L81,83a1.54,1.54,0,0,0-2.19,0l-1,1a1.41,1.41,0,0,0,0,2l1.78,1.77a1.56,1.56,0,0,1,.27,1.8,9.51,9.51,0,0,0-.59,1.39A1.55,1.55,0,0,1,77.81,92H75.46a1.54,1.54,0,0,0-1.55,1.55v1.29a1.55,1.55,0,0,0,1.55,1.56h2.35a1.56,1.56,0,0,1,1.47,1.08,10.12,10.12,0,0,0,.59,1.4,1.55,1.55,0,0,1-.27,1.79l-1.78,1.78a1.41,1.41,0,0,0,0,2l1,1a1.54,1.54,0,0,0,2.19,0l1.67-1.67a1.56,1.56,0,0,1,1.8-.27,10.88,10.88,0,0,0,1.4.59A1.56,1.56,0,0,1,87,105.6V108a1.55,1.55,0,0,0,1.56,1.55h1.28A1.55,1.55,0,0,0,91.38,108V105.6a1.58,1.58,0,0,1,1.08-1.48,9.59,9.59,0,0,0,1.4-.58,1.56,1.56,0,0,1,1.8.27l1.67,1.67a1.55,1.55,0,0,0,2.2,0l1-1a1.41,1.41,0,0,0,0-2l-1.77-1.78a1.53,1.53,0,0,1-.28-1.79,10.12,10.12,0,0,0,.59-1.4,1.56,1.56,0,0,1,1.47-1.08h2.35a1.55,1.55,0,0,0,1.55-1.56V93.58A1.54,1.54,0,0,0,102.9,92Zm-8.33,2.63a5.41,5.41,0,1,1-5.83-5.82A5.42,5.42,0,0,1,94.57,94.66Z"/><ellipse class="cls-9" cx="250" cy="324.89" rx="250" ry="6.46"/><path class="cls-10" d="M496.16,290.9c1.22,2.24,3.84.67,3.84.67s-.15-.74-1.33-1.36a3.58,3.58,0,0,0-2.58.08l-1.45,0h0l-1,.08c4.12-1.46,2.18-6.33,2.18-6.33s-1.3.05-2.67,1.88c-1.1,1.47-.67,4-.54,4.57a23.54,23.54,0,0,0-4.76,1.2,7.84,7.84,0,0,0,.61-.65c1.57-1.88.87-5.45.87-5.45-5.63.72-4.51,6-4.17,7.23a36.7,36.7,0,0,0-5.1,3,7.22,7.22,0,0,0,1.12-2.45c.71-2.65-1.68-5.95-1.68-5.95-5.52,3.47-1.55,8.49-.77,9.39-1,.77-1.9,1.54-2.72,2.28s-1.72,1.62-2.48,2.4a7.34,7.34,0,0,0,.29-3.58c-.4-3-4.19-5.31-4.19-5.31-4,5.7,1.73,9.08,3.08,9.77a47.07,47.07,0,0,0-4.06,5l.5.33a43.28,43.28,0,0,1,2.7-3.45c2.14,6.75,9.48,3.32,9.48,3.32s-.19-1.84-2.91-3.65c-1.75-1.16-4.36-.86-5.77-.58,1.06-1.17,2.32-2.48,3.78-3.8.47-.43,1-.87,1.53-1.32,1.88,6.37,8.7,3.19,8.7,3.19s-.16-1.69-2.65-3.34c-1.57-1-3.88-.8-5.19-.55a37.41,37.41,0,0,1,5.34-3.52c1.17,6,7.58,3.59,7.58,3.59s0-1.51-2.14-3.15c-1.38-1.07-3.57-1-4.72-.82a26.11,26.11,0,0,1,6.9-2.4c-.11,5.47,5.81,4.41,5.81,4.41s.21-1.28-1.3-3c-1.18-1.34-3.6-1.45-4.31-1.45a19.07,19.07,0,0,1,2.63-.3Z"/><path class="cls-11" d="M448.36,323.38s-12.28-27.73-3.4-53.49,30.35-33.29,30.35-33.29-12.74,14.75-5.34,37.76c7,21.75-6.35,49-6.35,49Z"/><path class="cls-12" d="M452.7,323.38s-3.14-56.4,10.16-71.24c-12.1,18.7-7.06,71.24-7.06,71.24Z"/><path class="cls-13" d="M473.8,323.38H460.66c.53-2.31,2.42-9.31,7.13-14.58a16.74,16.74,0,0,1,13-5.79,21.38,21.38,0,0,0-4.54,12.06A23.5,23.5,0,0,1,473.8,323.38Z"/><path class="cls-14" d="M443.42,292.71c9.57,12.47,11.71,28.73,11.94,30.67H436.77c-4.71-4.34-10.48-11.37-10.52-19.82-.08-15.08-7.08-24-7.08-24S433.24,279.43,443.42,292.71Z"/><path class="cls-12" d="M464.92,323.38h-1c1.87-4.28,6.64-14.32,11.11-16.36C470.68,310,466.66,319,464.92,323.38Z"/><path class="cls-12" d="M449.48,323.38h-1.93c-2.26-7.49-9.18-28.33-17.92-35.22C438.66,293.16,447.08,316.3,449.48,323.38Z"/><rect class="cls-15" x="426.02" y="323.38" width="55.43" height="2.2" transform="translate(907.47 648.96) rotate(180)"/><path class="cls-16" d="M43.57,282.76a15.49,15.49,0,0,1-2.32-3.28,8.24,8.24,0,0,1,.07-5.52c.55-1.79,1.4-3.49,1.88-5.3a14.11,14.11,0,0,0-3.15-12.9,20.11,20.11,0,0,1-2-2.29c-1.32-2-1.32-4.54-1-6.89s1-4.68.87-7.06a10.58,10.58,0,0,0-3.79-7.44,12.57,12.57,0,0,0-7.89-2.45h-.18A12.52,12.52,0,0,0,18.14,232a10.53,10.53,0,0,0-3.88,7.4c-.17,2.37.47,4.71.79,7.07s.29,4.92-1.05,6.88a20,20,0,0,1-2.06,2.26,14.14,14.14,0,0,0-3.3,12.87c.46,1.81,1.29,3.52,1.82,5.32a8.21,8.21,0,0,1,0,5.51,15,15,0,0,1-2.36,3.26C5,286.43,3.64,292.23,6.35,296.4a14,14,0,0,0,4.36,4,25.87,25.87,0,0,0,8.47,3.67,8.75,8.75,0,0,0,4,.21,9.53,9.53,0,0,1,2.51-.09,9.52,9.52,0,0,1,2.51.12,8.73,8.73,0,0,0,4-.17,25.73,25.73,0,0,0,8.51-3.57,14,14,0,0,0,4.41-3.94C47.94,292.48,46.65,286.66,43.57,282.76Z"/><path class="cls-12" d="M27.19,296l13-17.24-13,13.93-.47-27.39,9.75-13-9.79,10.49-.28-16.64,7-9.38-7.08,7.58-.2-11.7-.23,15-6.77-7.42,6.74,9.19-.26,16.91-9.68-10.6,9.64,13.14-.44,27.74L11.9,282.11l13.17,17.95L25,304.15h0v4.48h2.33v-4.48h0Z"/><polygon class="cls-15" points="15.87 308.68 36.53 308.68 32.66 325.02 19.79 325.02 15.87 308.68"/><rect class="cls-17" x="15.87" y="307.44" width="20.66" height="1.24"/><path class="cls-15" d="M398.27,218.46a6.51,6.51,0,0,1-1.39,1.94,6.58,6.58,0,0,0-.58.65c-.26.34-.59,1.68-1,1.64s0-1.07-.16-1.33a2.19,2.19,0,0,1-.19-.84c-.1-1.43.1-3-.63-4.2a3.18,3.18,0,0,0-1.86-1.39c-.82-.23-1.67.21-2.46,0a5.28,5.28,0,0,1-3.2-3.59,3.93,3.93,0,0,1,.73-3.28,3.34,3.34,0,0,1,3.09-1.21,1.46,1.46,0,0,1,.72.31,2.46,2.46,0,0,1,.39.51,6.72,6.72,0,0,0,2.09,2.09,29.84,29.84,0,0,0,3.34,1.55,3.33,3.33,0,0,1,1.61,1.34,7.06,7.06,0,0,1,.19,3.49A6.54,6.54,0,0,1,398.27,218.46Z"/><path class="cls-18" d="M358.46,225s.23-1.33.47-1.39a5.74,5.74,0,0,1,1.33.28Z"/><path class="cls-19" d="M382.13,257.89c.39-.85.71-1.43.9-1.77,4.61-1.19,17.2-1.33,19-.72a2.12,2.12,0,0,1,.37.18q.31.6.63,1.26c.11.24.21.48.32.73,2.59,6.14,3.61,15.58,3.85,25.2.14,5.44,0,10.93-.2,15.91-.48,10.92-1.48,19.36-1.48,19.36h-3.86c-.1-1-5.55-49.56-10.24-49.79-1.1-.06-2.22,4.14-3.26,10.11-2.52,14.56-4.55,39.68-4.55,39.68h-4.07s-1.68-22.2-1.79-33.77C377.62,269.89,380.49,261.51,382.13,257.89Z"/><path class="cls-20" d="M389,266.76a5.18,5.18,0,0,1,2.4,1.49c-1.1-.06-2.22,4.14-3.26,10.11C388.13,274.43,388.16,266.64,389,266.76Z"/><path class="cls-20" d="M406.18,297.83c-1.15-2.11-.92-11.35-2.92-20.59A78.49,78.49,0,0,0,396.35,259c1.35-2.9,4.28-2.77,7-1.42,2.59,6.14,3.61,15.58,3.85,25.2.14,5.44,0,10.93-.2,15.91A2.12,2.12,0,0,1,406.18,297.83Z"/><polygon class="cls-21" points="383.14 319.46 383.24 318.05 379.93 318.05 380.07 319.46 383.14 319.46"/><polygon class="cls-21" points="405.09 319.57 405.19 318.05 401.96 318.05 402.09 319.57 405.09 319.57"/><path class="cls-22" d="M399.89,322.64c.05-.29.32-.55.74-.76h0l1-2.42h3.89l.69,2.3h0c.58.23,1,.54,1,.88h0v1.28a.22.22,0,0,1-.2.24h-7c-.11,0-.19-.1-.19-.24v-1.28Z"/><path class="cls-23" d="M378.94,319.46a4.93,4.93,0,0,1-1,1.38c-.48.35-6,1.11-6.4,1.89a.82.82,0,0,0,.35,1.2c.06,0,11.54.11,11.64,0s0-4.47,0-4.47Z"/><path class="cls-21" d="M360.57,220.38c0-.32-.14-.7-.44-.76s-.55.34-.54.68a.61.61,0,0,1,0,.3c-.11.23-.45.1-.64-.06a4.36,4.36,0,0,1-.83-1c-.18-.28-.33-.59-.53-.85a1.25,1.25,0,0,0-.81-.51c-.62,0-1.08.62-1.23,1.25a4.13,4.13,0,0,0,.6,3,2.89,2.89,0,0,0,1.25,1.2c.25.11.51.17.76.29a10.14,10.14,0,0,1,1,.75c.08.06.3.53.41.53a1.36,1.36,0,0,0,.37-.13c.34-.17.43-.74.69-1,.54-.59.36-1,.17-1.63A11.11,11.11,0,0,1,360.57,220.38Z"/><polygon class="cls-21" points="389.8 223.13 390.63 227.03 395.2 226.83 395.86 220.45 390.63 220.82 389.8 223.13"/><path class="cls-24" d="M404.21,252.39c.1.93.2,1.84.26,2.69.28,3.65,0,6.33-2.65,5.28-13.84-5.49-25.18,3.71-20.77-4,1.41-2.48,2.62-12,2.68-16.12v0a6.45,6.45,0,0,0,0-.75,4.63,4.63,0,0,0-.1-.95s0-.06,0-.08c-.58-1.62-5.2,3.35-11.07,1.12a9.31,9.31,0,0,1-1.42-.7,24.44,24.44,0,0,1-4.73-3.94,79.46,79.46,0,0,1-7.91-9.83s2.39-1.33,2.22-2.8c0-.23,9.82,12.29,15.78,7.82s7.48-5.79,7.8-6a5.91,5.91,0,0,1,5.7.26,5,5,0,0,1,.94.75l.1.1a2.4,2.4,0,0,0,3.36.46,9.2,9.2,0,0,0,1.35-1h.18c.63,0,1.91.14,3.31.3a30.26,30.26,0,0,1,4.17.68c.24.06.13-.05.31,0,0,0,3.59,1.12,4.91,7.42,0,0,3.32,11.19,1.37,12.92s-5.68,1-5.68,1Z"/><polygon class="cls-7" points="378.29 247.18 388.66 247.18 386.91 231.89 376.54 231.89 378.29 247.18"/><path class="cls-25" d="M395.12,221.36s-1.12,3.08-2.29,3.38a4.84,4.84,0,0,1-2.81-.57l-.22-1a3.68,3.68,0,0,0,1.79.67c.78,0,.69,0,.78,0l.08,0S393.85,223.59,395.12,221.36Z"/><path class="cls-21" d="M388.4,214.38c-.12-1.19.45-1.41,1.21-1.35s1.55.36,2.14.37a14.32,14.32,0,0,1,1.85.19c1.06.16,1.3,1.22,1.33,1.91v0a20.24,20.24,0,0,0,0,2.71c.15.55,1-1.71,1.95-1.73a1.1,1.1,0,0,1,.61.1,1.2,1.2,0,0,1,.62,1.11,2.38,2.38,0,0,1-.87,1.57c-.44.41-1,.72-1.4,1.15-.86.85-1.35,2.1-2.32,2.8a3.23,3.23,0,0,1-3.74-.13,4.81,4.81,0,0,1-1.81-3.58C387.87,217.78,388.57,216.13,388.4,214.38Z"/><path class="cls-25" d="M392.26,214.23a8.91,8.91,0,0,1-2.65-1.2c.7.06,1.55.36,2.14.37a14.32,14.32,0,0,1,1.85.19c1.06.16,1.3,1.22,1.33,1.91v0C394.6,215,393.61,214.6,392.26,214.23Z"/><g class="cls-26"><path class="cls-27" d="M391,225.18a2.4,2.4,0,0,0,3.36.46,9.2,9.2,0,0,0,1.35-1h.18c.63,0,1.91.14,3.31.3a30.26,30.26,0,0,1,4.17.68c0,.67-2.13.08-3.71,0s-3.15,2-6.06,1.94c-2.75-.06-3.57-2.91-3.64-3.19a5,5,0,0,1,.94.75Z"/></g><polygon class="cls-20" points="404.29 246.98 394.76 244.68 404.22 250.89 404.29 246.98"/><path class="cls-20" d="M403.45,231s-.42,5.88.41,8.71a40.39,40.39,0,0,0-9.85-.09l8.73-.9A26.11,26.11,0,0,1,403.45,231Z"/><polygon class="cls-20" points="391.16 240.42 391.22 243.28 393.21 244.1 391.58 242.85 391.42 239.86 391.18 239.86 391.16 240.42"/><path class="cls-21" d="M385.34,238.31c.7-.09,2.47,1.42,2.47,1.42v-.62a.42.42,0,0,1,.61.16,3.93,3.93,0,0,0,.29.82l2.47-.23,0,3.42-2.45-.34a5.38,5.38,0,0,1-2.72-.62,4.46,4.46,0,0,1-1.49-1.43C384.12,240.23,384.65,238.39,385.34,238.31Z"/><g class="cls-28"><rect class="cls-7" x="203.03" y="52.07" width="48.68" height="40.97" rx="3.79"/><rect class="cls-29" x="202.83" y="51.83" width="48.68" height="40.97" rx="3.79"/><rect class="cls-30" x="202.63" y="51.58" width="48.68" height="40.97" rx="3.79"/><rect class="cls-31" x="202.43" y="51.33" width="48.68" height="40.97" rx="3.79"/><rect class="cls-32" x="202.24" y="51.08" width="48.68" height="40.97" rx="3.79"/><rect class="cls-33" x="202.04" y="50.84" width="48.68" height="40.97" rx="3.79"/><rect class="cls-34" x="201.84" y="50.59" width="48.68" height="40.97" rx="3.79"/><rect class="cls-35" x="201.64" y="50.34" width="48.68" height="40.97" rx="3.79"/><rect class="cls-36" x="201.45" y="50.09" width="48.68" height="40.97" rx="3.79"/><rect class="cls-37" x="201.25" y="49.85" width="48.68" height="40.97" rx="3.79"/><rect class="cls-38" x="201.05" y="49.6" width="48.68" height="40.97" rx="3.79"/><rect class="cls-39" x="200.85" y="49.35" width="48.68" height="40.97" rx="3.79"/><rect class="cls-40" x="200.65" y="49.11" width="48.68" height="40.97" rx="3.79"/><rect class="cls-41" x="200.46" y="48.86" width="48.68" height="40.97" rx="3.79"/><rect class="cls-42" x="200.26" y="48.61" width="48.68" height="40.97" rx="3.79"/><rect class="cls-43" x="200.06" y="48.36" width="48.68" height="40.97" rx="3.79"/><rect class="cls-44" x="199.86" y="48.12" width="48.68" height="40.97" rx="3.79"/><rect class="cls-45" x="199.67" y="47.87" width="48.68" height="40.97" rx="3.79"/><rect class="cls-46" x="199.47" y="47.62" width="48.68" height="40.97" rx="3.79"/><rect class="cls-47" x="199.27" y="47.37" width="48.68" height="40.97" rx="3.79"/><rect class="cls-48" x="199.07" y="47.13" width="48.68" height="40.97" rx="3.79"/><rect class="cls-49" x="198.88" y="46.88" width="48.68" height="40.97" rx="3.79"/></g><rect class="cls-7" x="198.88" y="46.88" width="48.68" height="40.97" rx="3.79"/><path class="cls-50" d="M235.65,53.75a14.87,14.87,0,0,0-11.19-5.06V63.62Z"/><path class="cls-51" d="M223.21,50a16.84,16.84,0,0,0,0,33.67V50Z"/><path class="cls-52" d="M240.05,66.83a16.78,16.78,0,0,0-4.21-11.14L223.21,66.83V83.66A16.84,16.84,0,0,0,240.05,66.83Z"/><g class="cls-28"><path class="cls-7" d="M176.6,143.73H135.41a3.93,3.93,0,0,1-3.8-4V104a3.93,3.93,0,0,1,3.8-4H176.6a3.93,3.93,0,0,1,3.8,4v35.65A3.93,3.93,0,0,1,176.6,143.73Z"/><path class="cls-53" d="M176.4,143.46H135.21a3.93,3.93,0,0,1-3.8-4V103.77a3.93,3.93,0,0,1,3.8-4H176.4a3.93,3.93,0,0,1,3.8,4v35.65A3.93,3.93,0,0,1,176.4,143.46Z"/><path class="cls-54" d="M176.2,143.2H135a3.93,3.93,0,0,1-3.8-4V103.5a3.93,3.93,0,0,1,3.8-4H176.2a3.93,3.93,0,0,1,3.8,4v35.65A3.93,3.93,0,0,1,176.2,143.2Z"/><path class="cls-55" d="M176,142.94H134.82a3.93,3.93,0,0,1-3.8-4.05V103.24a3.93,3.93,0,0,1,3.8-4H176a3.93,3.93,0,0,1,3.8,4v35.65A3.93,3.93,0,0,1,176,142.94Z"/><path class="cls-56" d="M175.8,142.67H134.62a3.93,3.93,0,0,1-3.8-4V103a3.93,3.93,0,0,1,3.8-4H175.8a3.93,3.93,0,0,1,3.8,4v35.64A3.93,3.93,0,0,1,175.8,142.67Z"/><path class="cls-57" d="M175.61,142.41H134.42a3.93,3.93,0,0,1-3.8-4V102.71a3.93,3.93,0,0,1,3.8-4h41.19a3.94,3.94,0,0,1,3.8,4v35.65A3.93,3.93,0,0,1,175.61,142.41Z"/><path class="cls-58" d="M175.41,142.14H134.22a3.93,3.93,0,0,1-3.8-4V102.45a3.93,3.93,0,0,1,3.8-4h41.19a3.93,3.93,0,0,1,3.8,4V138.1A3.93,3.93,0,0,1,175.41,142.14Z"/><path class="cls-59" d="M175.21,141.88H134a3.93,3.93,0,0,1-3.8-4V102.18a3.93,3.93,0,0,1,3.8-4h41.19a3.93,3.93,0,0,1,3.8,4v35.65A3.93,3.93,0,0,1,175.21,141.88Z"/><path class="cls-60" d="M175,141.61H133.82a3.92,3.92,0,0,1-3.79-4V101.92a3.93,3.93,0,0,1,3.79-4H175a3.93,3.93,0,0,1,3.8,4v35.65A3.93,3.93,0,0,1,175,141.61Z"/><path class="cls-61" d="M174.81,141.35H133.63a3.93,3.93,0,0,1-3.8-4V101.66a3.93,3.93,0,0,1,3.8-4h41.18a3.93,3.93,0,0,1,3.8,4V137.3A3.93,3.93,0,0,1,174.81,141.35Z"/><path class="cls-62" d="M174.62,141.09H133.43a3.93,3.93,0,0,1-3.8-4.05V101.39a3.93,3.93,0,0,1,3.8-4h41.19a3.94,3.94,0,0,1,3.8,4V137A3.94,3.94,0,0,1,174.62,141.09Z"/><path class="cls-63" d="M174.42,140.82H133.23a3.93,3.93,0,0,1-3.8-4V101.13a3.93,3.93,0,0,1,3.8-4h41.19a3.93,3.93,0,0,1,3.8,4v35.64A3.93,3.93,0,0,1,174.42,140.82Z"/><path class="cls-64" d="M174.22,140.56H133a3.93,3.93,0,0,1-3.8-4.05V100.86a3.93,3.93,0,0,1,3.8-4h41.19a3.93,3.93,0,0,1,3.8,4v35.65A3.93,3.93,0,0,1,174.22,140.56Z"/><path class="cls-65" d="M174,140.29H132.83a3.93,3.93,0,0,1-3.8-4V100.6a3.93,3.93,0,0,1,3.8-4H174a3.93,3.93,0,0,1,3.8,4v35.65A3.93,3.93,0,0,1,174,140.29Z"/><path class="cls-66" d="M173.82,140H132.64a3.93,3.93,0,0,1-3.8-4.05V100.33a3.93,3.93,0,0,1,3.8-4h41.18a3.93,3.93,0,0,1,3.8,4V136A3.93,3.93,0,0,1,173.82,140Z"/><path class="cls-67" d="M173.63,139.77H132.44a3.93,3.93,0,0,1-3.8-4.05V100.07a3.93,3.93,0,0,1,3.8-4h41.19a3.93,3.93,0,0,1,3.79,4v35.65A3.93,3.93,0,0,1,173.63,139.77Z"/><path class="cls-68" d="M173.43,139.5H132.24a3.93,3.93,0,0,1-3.8-4.05V99.81a3.93,3.93,0,0,1,3.8-4h41.19a3.93,3.93,0,0,1,3.8,4v35.64A3.93,3.93,0,0,1,173.43,139.5Z"/><path class="cls-69" d="M173.23,139.24H132a3.93,3.93,0,0,1-3.8-4.05V99.54a3.93,3.93,0,0,1,3.8-4.05h41.19a3.93,3.93,0,0,1,3.8,4.05v35.65A3.93,3.93,0,0,1,173.23,139.24Z"/><path class="cls-70" d="M173,139H131.84a3.93,3.93,0,0,1-3.8-4V99.28a3.93,3.93,0,0,1,3.8-4H173a3.93,3.93,0,0,1,3.8,4v35.65A3.93,3.93,0,0,1,173,139Z"/><path class="cls-71" d="M172.83,138.71H131.65a3.93,3.93,0,0,1-3.8-4.05V99a3.93,3.93,0,0,1,3.8-4h41.18a3.93,3.93,0,0,1,3.8,4v35.65A3.93,3.93,0,0,1,172.83,138.71Z"/><path class="cls-72" d="M172.63,138.45H131.45a3.93,3.93,0,0,1-3.8-4V98.75a3.93,3.93,0,0,1,3.8-4h41.18a3.93,3.93,0,0,1,3.8,4V134.4A3.93,3.93,0,0,1,172.63,138.45Z"/><path class="cls-73" d="M172.44,138.18H131.25a3.93,3.93,0,0,1-3.8-4.05V98.49a3.93,3.93,0,0,1,3.8-4h41.19a3.93,3.93,0,0,1,3.8,4v35.64A3.93,3.93,0,0,1,172.44,138.18Z"/></g><path class="cls-7" d="M172.44,138.18H131.25a3.93,3.93,0,0,1-3.8-4.05V98.49a3.93,3.93,0,0,1,3.8-4h41.19a3.93,3.93,0,0,1,3.8,4v35.64A3.93,3.93,0,0,1,172.44,138.18Z"/><polygon class="cls-74" points="168.88 99.98 161.36 102.13 162.96 103.83 152.15 115.35 145.65 115.35 133.63 128.16 135.9 130.59 146.99 118.78 153.48 118.78 165.23 106.25 166.87 108 168.88 99.98"/><g class="cls-28"><rect class="cls-7" x="280.08" y="94.02" width="48.68" height="40.97" rx="3.79"/><rect class="cls-75" x="279.89" y="93.77" width="48.68" height="40.97" rx="3.79"/><rect class="cls-76" x="279.69" y="93.52" width="48.68" height="40.97" rx="3.79"/><rect class="cls-77" x="279.49" y="93.28" width="48.68" height="40.97" rx="3.79"/><rect class="cls-78" x="279.29" y="93.03" width="48.68" height="40.97" rx="3.79"/><rect class="cls-79" x="279.1" y="92.78" width="48.68" height="40.97" rx="3.79"/><rect class="cls-80" x="278.9" y="92.53" width="48.68" height="40.97" rx="3.79"/><rect class="cls-81" x="278.7" y="92.29" width="48.68" height="40.97" rx="3.79"/><rect class="cls-82" x="278.5" y="92.04" width="48.68" height="40.97" rx="3.79"/><rect class="cls-83" x="278.31" y="91.79" width="48.68" height="40.97" rx="3.79"/><rect class="cls-84" x="278.11" y="91.54" width="48.68" height="40.97" rx="3.79"/><rect class="cls-85" x="277.91" y="91.3" width="48.68" height="40.97" rx="3.79"/><rect class="cls-86" x="277.71" y="91.05" width="48.68" height="40.97" rx="3.79"/><rect class="cls-87" x="277.52" y="90.8" width="48.68" height="40.97" rx="3.79"/><rect class="cls-88" x="277.32" y="90.56" width="48.68" height="40.97" rx="3.79"/><rect class="cls-89" x="277.12" y="90.31" width="48.68" height="40.97" rx="3.79"/><rect class="cls-90" x="276.92" y="90.06" width="48.68" height="40.97" rx="3.79"/><rect class="cls-91" x="276.72" y="89.81" width="48.68" height="40.97" rx="3.79"/><rect class="cls-92" x="276.53" y="89.57" width="48.68" height="40.97" rx="3.79"/><rect class="cls-93" x="276.33" y="89.32" width="48.68" height="40.97" rx="3.79"/><rect class="cls-94" x="276.13" y="89.07" width="48.68" height="40.97" rx="3.79"/><rect class="cls-95" x="275.93" y="88.82" width="48.68" height="40.97" rx="3.79"/></g><rect class="cls-7" x="275.93" y="88.82" width="48.68" height="40.97" rx="3.79"/><rect class="cls-96" x="280.54" y="95.14" width="38.54" height="28.34" rx="1.56"/><path class="cls-97" d="M283.45,120.68l-.88-1,2.88-2.45a14,14,0,0,1,2.78-2,5.22,5.22,0,0,1,3.65-.5,7.61,7.61,0,0,1,2.09,1.06,8,8,0,0,0,1.3.76,5.41,5.41,0,0,0,5.38-1.2,17.88,17.88,0,0,0,3.69-5v0a28,28,0,0,1,5.52-7.48c1.64-1.43,3.36-1.87,4.7-1.23l-.59,1.23c-1.21-.59-2.77.64-3.22,1a26.87,26.87,0,0,0-5.23,7.13v0a18.83,18.83,0,0,1-4,5.39,6.74,6.74,0,0,1-6.78,1.41,10.19,10.19,0,0,1-1.52-.87,6.09,6.09,0,0,0-1.69-.88,3.83,3.83,0,0,0-2.69.39,12.94,12.94,0,0,0-2.51,1.82Z"/><circle class="cls-98" cx="313.56" cy="101.51" r="2.08"/><path class="cls-7" d="M314.22,101.51a.66.66,0,1,1-.66-.66A.65.65,0,0,1,314.22,101.51Z"/><polygon class="cls-99" points="374.22 288.37 374.22 270.18 374.12 270.18 374.12 270.17 366.05 270.17 366.05 252.18 316.42 252.18 316.42 252.18 314.38 252.18 259.93 252.18 257.9 252.18 257.9 252.18 208.27 252.18 208.27 270.18 216.53 270.18 216.53 270.18 216.44 270.18 216.44 288.36 207.84 288.36 207.84 288.37 207.74 288.37 207.74 306.55 207.74 306.56 207.74 324.73 257.38 324.73 257.38 324.73 259.41 324.73 313.86 324.73 315.89 324.73 315.89 324.73 365.53 324.73 365.53 306.56 365.53 306.55 365.53 288.37 365.43 288.37 365.43 288.37 374.22 288.37"/><rect class="cls-100" x="202.81" y="252.18" width="157.78" height="18"/><rect class="cls-101" x="252.45" y="252.18" width="58.52" height="18"/><rect class="cls-102" x="254.48" y="252.18" width="54.45" height="18"/><rect class="cls-103" x="210.98" y="270.18" width="157.78" height="18.18"/><rect class="cls-101" x="260.62" y="270.18" width="58.52" height="18.19"/><rect class="cls-102" x="262.65" y="270.18" width="54.45" height="18.19"/><rect class="cls-99" x="211.08" y="270.17" width="157.59" height="2.32"/><rect class="cls-104" x="202.29" y="288.37" width="157.78" height="18.18"/><rect class="cls-101" x="251.92" y="288.37" width="58.52" height="18.19"/><rect class="cls-102" x="253.96" y="288.37" width="54.45" height="18.19"/><rect class="cls-99" x="202.39" y="288.36" width="157.59" height="2.32"/><rect class="cls-105" x="202.29" y="306.55" width="157.78" height="18.18"/><rect class="cls-101" x="251.92" y="306.54" width="58.52" height="18.19"/><rect class="cls-102" x="253.96" y="306.54" width="54.45" height="18.19"/><rect class="cls-99" x="202.39" y="306.53" width="157.59" height="2.32"/><path class="cls-106" d="M227.6,166l16.06,158.69s-20.82.22-23.94,0C217.92,324.53,227.6,166,227.6,166Z"/><rect class="cls-107" x="94.79" y="156.98" width="132.8" height="167.75" rx="9"/><rect class="cls-108" x="98.21" y="161.15" width="125.97" height="159.42" rx="5.61"/><rect class="cls-106" x="105.02" y="167.06" width="115.86" height="43.06" rx="3.92"/><rect class="cls-109" x="103.03" y="164.89" width="115.86" height="43.06" rx="3.92"/><g class="cls-28"><rect x="137.93" y="218.28" width="22.94" height="15.56" rx="2.79"/><rect x="107.37" y="218.28" width="22.94" height="15.56" rx="2.79"/><rect x="168.48" y="218.28" width="22.94" height="15.56" rx="2.79"/><rect x="196.77" y="257.91" width="22.94" height="15.56" rx="2.79"/><rect x="196.77" y="238.09" width="22.94" height="15.56" rx="2.79"/><rect x="196.77" y="218.28" width="22.94" height="15.56" rx="2.79"/><rect x="137.93" y="238.09" width="22.94" height="15.56" rx="2.79"/><rect x="107.37" y="238.09" width="22.94" height="15.56" rx="2.79"/><rect x="168.48" y="238.09" width="22.94" height="15.56" rx="2.79"/><rect x="137.93" y="257.91" width="22.94" height="15.56" rx="2.79"/><rect x="107.37" y="257.91" width="22.94" height="15.56" rx="2.79"/><rect x="168.48" y="257.91" width="22.94" height="15.56" rx="2.79"/><rect x="137.93" y="277.73" width="22.94" height="15.56" rx="2.79"/><rect x="107.37" y="277.73" width="22.94" height="15.56" rx="2.79"/><rect x="168.48" y="277.73" width="22.94" height="15.56" rx="2.79"/><rect x="137.93" y="297.54" width="22.94" height="15.56" rx="2.79"/><rect x="107.37" y="297.54" width="22.94" height="15.56" rx="2.79"/><rect x="168.48" y="297.54" width="22.94" height="15.56" rx="2.79"/><rect x="196.77" y="278.37" width="22.4" height="34.74" rx="3.4"/></g><rect class="cls-110" x="135.58" y="217.26" width="22.94" height="15.56" rx="2.79"/><rect class="cls-111" x="105.02" y="217.26" width="22.94" height="15.56" rx="2.79"/><rect class="cls-112" x="166.13" y="217.26" width="22.94" height="15.56" rx="2.79"/><rect class="cls-113" x="194.42" y="256.89" width="22.94" height="15.56" rx="2.79"/><rect class="cls-114" x="194.42" y="237.08" width="22.94" height="15.56" rx="2.79"/><rect class="cls-115" x="194.42" y="217.26" width="22.94" height="15.56" rx="2.79"/><rect class="cls-116" x="135.58" y="237.08" width="22.94" height="15.56" rx="2.79"/><rect class="cls-117" x="105.02" y="237.08" width="22.94" height="15.56" rx="2.79"/><rect class="cls-118" x="166.13" y="237.08" width="22.94" height="15.56" rx="2.79"/><rect class="cls-119" x="135.58" y="256.89" width="22.94" height="15.56" rx="2.79"/><rect class="cls-120" x="105.02" y="256.89" width="22.94" height="15.56" rx="2.79"/><rect class="cls-121" x="166.13" y="256.89" width="22.94" height="15.56" rx="2.79"/><rect class="cls-122" x="135.58" y="276.71" width="22.94" height="15.56" rx="2.79"/><rect class="cls-123" x="105.02" y="276.71" width="22.94" height="15.56" rx="2.79"/><rect class="cls-124" x="166.13" y="276.71" width="22.94" height="15.56" rx="2.79"/><rect class="cls-125" x="135.58" y="296.53" width="22.94" height="15.56" rx="2.79"/><rect class="cls-126" x="105.02" y="296.53" width="22.94" height="15.56" rx="2.79"/><rect class="cls-127" x="166.13" y="296.53" width="22.94" height="15.56" rx="2.79"/><rect class="cls-128" x="194.42" y="277.35" width="22.4" height="34.74" rx="3.4"/><path class="cls-107" d="M251,143.41c-1.64-.56-3-.66-4,.64-2.67,3.61,8.68,16.43,8.68,16.43s10,1.33,18.4,1.7c-7-.79-12.46-1.64-12.46-1.64S254.68,151.35,251,143.41Z"/><path class="cls-15" d="M285.29,160.68c.29-3.71,8.4-14.42,5.06-18.83s-9.83,4.91-15,.2-7.82,1.5-13.83,3.5c-3.84,1.28-7.6-1.15-10.51-2.14,3.65,7.94,10.63,17.13,10.63,17.13s5.48.85,12.46,1.64C280.06,162.44,285.17,162.21,285.29,160.68Z"/><path class="cls-15" d="M312.11,231.68c-1.82-16.4-14.33-51.34-23.84-62.65l-.1.3H256.71s-13.21,38.52-15.58,50.53c-2.33,11.8.73,25.87,9.61,28.93,6.33,2.18,30.17,1.06,43.36,2.22a23,23,0,0,0,4.58-1.1C304.57,247.84,313.35,242.85,312.11,231.68Z"/><path class="cls-107" d="M241.13,219.86c1.82-9.24,10.07-34.2,13.77-45.2a7.83,7.83,0,0,1,7.43-5.33h25.84l.1-.3c-.12-.15-.25-.29-.37-.43-2.61-3-14.84-2.79-17.17-2.74h-.38c-.7,0-2.3,0-4.26,0-4.56.12-11.09.66-12.92,2.73-9.54,10.81-22.36,46.47-24.21,63.08-1.24,11.17,7.55,16.16,13.44,18.23a23.41,23.41,0,0,0,7.8,1.32h40.67a23.27,23.27,0,0,0,3.23-.22c-13.19-1.16-37,0-43.36-2.22C241.86,245.73,238.8,231.66,241.13,219.86Z"/><path class="cls-129" d="M284.75,160.09H256.32a2,2,0,0,0-1.79,2.21v3a2,2,0,0,0,1.79,2.21h28.43a2,2,0,0,0,1.79-2.21v-3A2,2,0,0,0,284.75,160.09Z"/><path class="cls-130" d="M284.75,160.09H256.32a2,2,0,0,0-1.79,2.21v3a2,2,0,0,0,1.79,2.21h28.43a2,2,0,0,0,1.79-2.21v-3A2,2,0,0,0,284.75,160.09Z"/><path class="cls-131" d="M284.75,160.09H256.32a1.81,1.81,0,0,0-1.79,1.83v2.5a1.81,1.81,0,0,0,1.79,1.83h28.43a1.81,1.81,0,0,0,1.79-1.83v-2.5A1.81,1.81,0,0,0,284.75,160.09Z"/><text class="cls-132" transform="translate(260.82 223.93) rotate(-2.28)">$</text><path class="cls-107" d="M305.52,173.2c-1.19-.4-2.18-.47-2.88.47-1.93,2.6,6.27,11.86,6.27,11.86s7.24,1,13.28,1.23c-5-.57-9-1.19-9-1.19A80.55,80.55,0,0,1,305.52,173.2Z"/><path class="cls-15" d="M330.26,185.67c.21-2.67,6.06-10.41,3.65-13.59s-7.09,3.54-10.81.14-5.65,1.09-10,2.53c-2.77.93-5.49-.83-7.59-1.55a80.55,80.55,0,0,0,7.68,12.37s3.95.62,9,1.19C326.48,187,330.18,186.78,330.26,185.67Z"/><path class="cls-15" d="M349.63,236.94c-1.32-11.84-10.35-37.07-17.22-45.23l-.07.21H309.62s-9.54,27.82-11.25,36.49.53,18.68,6.94,20.89c4.57,1.57,21.79.76,31.31,1.6a16.61,16.61,0,0,0,3.31-.79C344.18,248.61,350.52,245,349.63,236.94Z"/><path class="cls-107" d="M298.37,228.41c1.32-6.68,7.28-24.7,9.95-32.64a5.65,5.65,0,0,1,5.36-3.85h18.66l.07-.21-.27-.32c-1.88-2.13-10.71-2-12.39-2h-.28c-.5,0-1.66,0-3.07,0-3.3.09-8,.48-9.33,2-6.89,7.81-16.15,33.56-17.48,45.55-.9,8.07,5.44,11.67,9.7,13.17a16.94,16.94,0,0,0,5.63.95h29.37a16.49,16.49,0,0,0,2.33-.16c-9.52-.84-26.74,0-31.31-1.6C298.9,247.09,296.69,236.93,298.37,228.41Z"/><path class="cls-133" d="M329.87,185.25H309.34a1.46,1.46,0,0,0-1.29,1.59V189a1.47,1.47,0,0,0,1.29,1.6h20.53a1.47,1.47,0,0,0,1.29-1.6v-2.17A1.46,1.46,0,0,0,329.87,185.25Z"/><path class="cls-130" d="M329.87,185.25H309.34a1.46,1.46,0,0,0-1.29,1.59V189a1.47,1.47,0,0,0,1.29,1.6h20.53a1.47,1.47,0,0,0,1.29-1.6v-2.17A1.46,1.46,0,0,0,329.87,185.25Z"/><path class="cls-134" d="M329.87,185.25H309.34a1.31,1.31,0,0,0-1.29,1.32v1.8a1.31,1.31,0,0,0,1.29,1.33h20.53a1.31,1.31,0,0,0,1.29-1.33v-1.8A1.31,1.31,0,0,0,329.87,185.25Z"/><text class="cls-135" transform="translate(312.58 231.35) rotate(-2.28)">$</text><g class="cls-28"><rect class="cls-7" x="349.18" y="156.98" width="48.68" height="40.97" rx="3.79"/><rect class="cls-136" x="348.99" y="156.74" width="48.68" height="40.97" rx="3.79"/><rect class="cls-137" x="348.79" y="156.49" width="48.68" height="40.97" rx="3.79"/><rect class="cls-138" x="348.59" y="156.24" width="48.68" height="40.97" rx="3.79"/><rect class="cls-139" x="348.39" y="155.99" width="48.68" height="40.97" rx="3.79"/><rect class="cls-140" x="348.2" y="155.75" width="48.68" height="40.97" rx="3.79"/><rect class="cls-141" x="348" y="155.5" width="48.68" height="40.97" rx="3.79"/><rect class="cls-142" x="347.8" y="155.25" width="48.68" height="40.97" rx="3.79"/><rect class="cls-143" x="347.6" y="155" width="48.68" height="40.97" rx="3.79"/><rect class="cls-144" x="347.4" y="154.76" width="48.68" height="40.97" rx="3.79"/><rect class="cls-145" x="347.21" y="154.51" width="48.68" height="40.97" rx="3.79"/><rect class="cls-146" x="347.01" y="154.26" width="48.68" height="40.97" rx="3.79"/><rect class="cls-147" x="346.81" y="154.01" width="48.68" height="40.97" rx="3.79"/><rect class="cls-148" x="346.61" y="153.77" width="48.68" height="40.97" rx="3.79"/><rect class="cls-149" x="346.42" y="153.52" width="48.68" height="40.97" rx="3.79"/><rect class="cls-150" x="346.22" y="153.27" width="48.68" height="40.97" rx="3.79"/><rect class="cls-151" x="346.02" y="153.02" width="48.68" height="40.97" rx="3.79"/><rect class="cls-152" x="345.82" y="152.78" width="48.68" height="40.97" rx="3.79"/><rect class="cls-153" x="345.63" y="152.53" width="48.68" height="40.97" rx="3.79"/><rect class="cls-154" x="345.43" y="152.28" width="48.68" height="40.97" rx="3.79"/><rect class="cls-155" x="345.23" y="152.04" width="48.68" height="40.97" rx="3.79"/><rect class="cls-156" x="345.03" y="151.79" width="48.68" height="40.97" rx="3.79"/></g><rect class="cls-7" x="345.03" y="151.79" width="48.68" height="40.97" rx="3.79"/><rect class="cls-157" x="371.89" y="159.41" width="5.59" height="28.34"/><rect class="cls-158" x="361.26" y="159.41" width="5.59" height="28.34"/><rect class="cls-159" x="382.52" y="159.41" width="5.59" height="28.34"/><rect class="cls-160" x="350.63" y="159.41" width="5.59" height="28.34"/><rect class="cls-161" x="371.89" y="165.15" width="5.59" height="22.6"/><rect class="cls-162" x="361.26" y="169.13" width="5.59" height="18.62"/><rect class="cls-163" x="350.63" y="173.58" width="5.59" height="14.17"/><rect class="cls-164" x="382.52" y="159.41" width="5.59" height="28.34"/><path class="cls-21" d="M107.13,222.82c.05-.32.15-.7.45-.81a3.25,3.25,0,0,1,.45-.08.9.9,0,0,0,.37-.25,8.62,8.62,0,0,0,1.1-1.23,12.45,12.45,0,0,1,.81-1.1.35.35,0,0,1,.2-.14.29.29,0,0,1,.28.19,1.22,1.22,0,0,1-.12,1,14.16,14.16,0,0,1-.71,1.33,1.24,1.24,0,0,0-.26.78c.06.33.39.53.53.84a1.37,1.37,0,0,1-.07,1,1.74,1.74,0,0,1-.3.55,2.86,2.86,0,0,1-.64.49,5.37,5.37,0,0,0-.88.71,7.39,7.39,0,0,1-.87.81.37.37,0,0,1-.14.07.34.34,0,0,1-.17-.05,3.17,3.17,0,0,1-.94-.92,1.39,1.39,0,0,1-.3-.56c-.08-.33-.24-.46-.07-.76a5.68,5.68,0,0,1,1-1A1.51,1.51,0,0,0,107.13,222.82Z"/><polygon class="cls-21" points="83.59 321.11 83.49 319.7 86.77 319.7 86.64 321.11 83.59 321.11"/><polygon class="cls-21" points="61.81 321.22 61.72 319.7 64.92 319.7 64.79 321.22 61.81 321.22"/><path class="cls-165" d="M67,324.26a1.25,1.25,0,0,0-.74-.75h0l-1-2.4H61.39l-.69,2.28h0c-.57.23-.94.53-1,.87h0v1.28a.22.22,0,0,0,.2.24h6.91a.22.22,0,0,0,.2-.24v-1.28Z"/><path class="cls-166" d="M87.76,321.11a4.69,4.69,0,0,0,.95,1.36c.47.36,5.92,1.11,6.34,1.88a.81.81,0,0,1-.34,1.19c-.06,0-11.44.11-11.55,0s0-4.43,0-4.43Z"/><path class="cls-167" d="M84.59,260a16.92,16.92,0,0,0-.9-1.75c-4.57-1.18-17-1.32-18.84-.72a1.82,1.82,0,0,0-.37.18c-.21.4-.42.81-.63,1.26-.1.23-.21.47-.31.72-2.57,6.09-3.59,15.45-3.83,25-.13,5.4,0,10.85.2,15.79.48,10.82,1.47,19.2,1.47,19.2h3.83c0-.22.29-2.58.73-6.16.24-3.24,2.16-28.5,4.14-35.63,2.12-7.63,4.71-7.54,4.71-7.54l-.05.25a1.77,1.77,0,0,1,.34-.24l0,0h0a.69.69,0,0,1,.24-.05c1.09-.06,2.2,4.11,3.23,10,2.5,14.44,4.52,39.36,4.52,39.36h4s1.67-22,1.78-33.5C89.06,271.94,86.22,263.62,84.59,260Z"/><path class="cls-168" d="M70.08,277.91c-2,7.13-3.9,32.39-4.14,35.63.74-5.94,2-15.22,3.45-23.67,1.58-9.06,3.42-17.15,5.21-19.11l.14-.14.05-.25S72.2,270.28,70.08,277.91Z"/><path class="cls-20" d="M70.08,277.91c-2,7.13-3.9,32.39-4.14,35.63.74-5.94,2-15.22,3.45-23.67,1.58-9.06,3.42-17.15,5.21-19.11l.14-.14.05-.25S72.2,270.28,70.08,277.91Z"/><polygon class="cls-21" points="75.04 224.67 74.22 228.55 69.69 228.34 69.03 222.02 74.22 222.38 75.04 224.67"/><path class="cls-21" d="M76.43,216c.12-1.18-.45-1.4-1.2-1.34s-1.54.36-2.12.36a14,14,0,0,0-1.83.19c-1.06.16-1.3,1.22-1.33,1.9v0a18.56,18.56,0,0,1,0,2.7c-.14.54-1-1.7-1.93-1.73a1.17,1.17,0,0,0-.6.11,1.19,1.19,0,0,0-.62,1.1,2.41,2.41,0,0,0,.86,1.56c.44.4,1,.71,1.39,1.14.86.84,1.34,2.08,2.3,2.77a3.2,3.2,0,0,0,3.71-.12,4.81,4.81,0,0,0,1.8-3.55C77,219.37,76.26,217.73,76.43,216Z"/><path class="cls-25" d="M72.6,215.85a8.91,8.91,0,0,0,2.63-1.19c-.69.05-1.54.36-2.12.36a14,14,0,0,0-1.83.19c-1.06.16-1.3,1.22-1.33,1.9v0C70.28,216.56,71.26,216.22,72.6,215.85Z"/><path class="cls-20" d="M85.43,262.08S84.9,265.2,72,265.27c-7.82.17-9-.8-9.2-1.39s-.68-1.56-.06-2.11S84.57,260.52,85.43,262.08Z"/><path class="cls-169" d="M62.61,249.21l.08,5.37c-.1.92-.2,1.82-.26,2.67-.28,3.62-.61,5.64,2.14,6.28,4.06,1,25.46,2.63,21.1-5-1.4-2.46-2.61-11.86-2.66-16v0a6.22,6.22,0,0,1,0-.75,5.46,5.46,0,0,1,.1-.94.31.31,0,0,0,0-.08c.58-1.61,5.16,3.33,11,1.11a9.51,9.51,0,0,0,1.4-.69,24.83,24.83,0,0,0,4.7-3.91c.27-.28.55-.57.82-.87a54.18,54.18,0,0,0,6.81-9.63s-.66-2.09-2-2c-.21,0-9.74,12.19-15.66,7.76s-7.41-5.74-7.73-6a5.65,5.65,0,0,0-3.38-.55l-.25,0h0c-.49-.06-7.89,1.06-7.89,1.06-.61,0-1.8.14-3.12.28l-.17,0a39.81,39.81,0,0,1-4.14.67.71.71,0,0,0-.26,0l0,0s-3.56,1.11-4.87,7.36c0,0-3.3,11.09-1.36,12.81a4.72,4.72,0,0,0,2.34,1h0a10.55,10.55,0,0,0,3.29,0Z"/><path class="cls-170" d="M94.12,241.8a9.51,9.51,0,0,0,1.4-.69,24.83,24.83,0,0,0,4.7-3.91c.27-.28.55-.57.82-.87a36.16,36.16,0,0,1-6.72,4c-5.89,2.88-10.69-3.63-10.69-3.63l-.52,4.09a.31.31,0,0,0,0-.08C83.71,239.08,88.29,244,94.12,241.8Z"/><path class="cls-171" d="M74.6,270.76a5.76,5.76,0,0,1,.48-.38A1.78,1.78,0,0,0,74.6,270.76Z"/><path class="cls-172" d="M75.08,270.38l0,0h0Z"/><path class="cls-173" d="M75.08,270.38l0,0h0Z"/><path class="cls-173" d="M60.6,247.8c-.47.55-.9,1-1.28,1.42a10.55,10.55,0,0,0,3.29,0l.14-11.48S62.05,246.09,60.6,247.8Z"/><path class="cls-15" d="M77.24,209.61a3.3,3.3,0,0,0-3.06-1.19,1.44,1.44,0,0,0-.72.3,2.12,2.12,0,0,0-.38.51A6.81,6.81,0,0,1,71,211.3a30.32,30.32,0,0,1-3.32,1.54,3.17,3.17,0,0,0-1.59,1.33,5,5,0,0,0-.62,2.4c0,.34,0,.53,0,.8a9.52,9.52,0,0,0,1,3.68,6.19,6.19,0,0,0,1.14,1.4c.44.37.51.47,1.13,1a4.75,4.75,0,0,0,.71.56,4.38,4.38,0,0,0,3.68.06,5.26,5.26,0,0,0,1.81-3c0-.38-.67-.86-.78-1.88s.15-1,.7-.36.39.2.65-1.37a4.86,4.86,0,0,0,.07-1.3,5.42,5.42,0,0,0,2.4-3.21A3.89,3.89,0,0,0,77.24,209.61Z"/><polygon class="cls-7" points="88.24 162.02 93.05 164.64 88.24 167.27 85.62 172.07 82.99 167.27 78.19 164.64 82.99 162.02 85.62 157.22 88.24 162.02"/><polygon class="cls-7" points="80.56 178.41 83.58 180.06 80.56 181.72 78.91 184.74 77.26 181.72 74.23 180.06 77.26 178.41 78.91 175.39 80.56 178.41"/><polygon class="cls-7" points="98.05 174.55 102.66 177.07 98.05 179.59 95.54 184.19 93.02 179.59 88.42 177.07 93.02 174.55 95.54 169.95 98.05 174.55"/></g></g></g></svg>