<svg xmlns="http://www.w3.org/2000/svg" viewBox="0 0 500 349.82"><defs><style>.cls-1{fill:#ecf4ff;}.cls-1,.cls-10,.cls-11,.cls-13,.cls-14,.cls-15,.cls-16,.cls-17,.cls-18,.cls-19,.cls-2,.cls-20,.cls-21,.cls-22,.cls-23,.cls-25,.cls-26,.cls-27,.cls-28,.cls-29,.cls-3,.cls-30,.cls-31,.cls-34,.cls-7,.cls-8,.cls-9{fill-rule:evenodd;}.cls-2{fill:#b1d2fc;}.cls-3{fill:#1b326b;}.cls-4{fill:#2a4589;}.cls-5{fill:#7ba9e3;}.cls-17,.cls-6{fill:#f7aaac;}.cls-7{fill:#70cbd9;}.cls-8{fill:#f6597b;}.cls-9{fill:#4d69af;}.cls-10{fill:#f79646;}.cls-11{fill:#71bdf8;}.cls-12,.cls-31{fill:#fff;}.cls-13,.cls-32{fill:#c9dbf5;}.cls-14{fill:#86a7d5;}.cls-15,.cls-33{fill:#a2bee5;}.cls-16{fill:#b1cbef;}.cls-18{fill:#f79f2d;}.cls-19{fill:#f8a98e;}.cls-20{fill:#0f4884;}.cls-21{fill:#093a6e;}.cls-22{fill:#031542;}.cls-23{fill:#2d8ef8;}.cls-24,.cls-25{fill:#f1800e;}.cls-26{fill:#ea8287;}.cls-27{fill:#91aed8;}.cls-28{fill:#7a9bcb;}.cls-29{fill:#95b4df;}.cls-30{fill:#ccdef6;}.cls-34{fill:#12496f;}</style></defs><g id="Layer_2" data-name="Layer 2"><g id="Layer_1-2" data-name="Layer 1"><path class="cls-1" d="M223.54,47.17c-24.07,9.08-46.95,28.52-65,46.65-37.52,37.75-43.12,45.69-89.42,77.38-27,18.48-48.26,34.1-58.74,55C-19,284.88,16,348.28,89.53,348.28H388.26s35.14.8,60.78-30.57C536,211.39,391.8-16.32,223.54,47.17"/><path class="cls-2" d="M218.66,0H488.37C494.77,0,500,6.15,500,13.66v175c0,7.51-5.23,13.66-11.63,13.66H218.66c-6.4,0-11.64-6.15-11.64-13.66v-175C207,6.15,212.26,0,218.66,0"/><path class="cls-3" d="M214.74,6.49H492.28a1.24,1.24,0,0,1,1.24,1.23V194.58a1.25,1.25,0,0,1-1.24,1.24H214.74a1.24,1.24,0,0,1-1.23-1.24V7.72a1.24,1.24,0,0,1,1.23-1.23"/><rect class="cls-4" x="213.51" y="159.45" width="280.01" height="36.37"/><rect class="cls-5" x="230.76" y="168.74" width="246.22" height="0.37"/><rect class="cls-5" x="230.76" y="184.04" width="246.22" height="0.37"/><path class="cls-6" d="M231.5,185.33c0-.07,9.8-23.53,16.75-19.39a32.13,32.13,0,0,1,6.65,5.57c2.07,2.13,3.62,3.73,5.54,3.42a27.77,27.77,0,0,1,6.57-.42,10.77,10.77,0,0,1,6.5,2.53,18,18,0,0,1,2.88,3.39,11.22,11.22,0,0,0,6,4.87c3.38,1.26,6.74-5.54,9.56-11.23,1.52-3.09,2.89-5.86,4.11-7l.21-.19a7.38,7.38,0,0,1,5.41-2,8.55,8.55,0,0,1,5,2.15l.23.2a38.54,38.54,0,0,0,9,5.52,21.56,21.56,0,0,0,8.17,2.13c4.29,0,6.91,4,9,7.24a14.35,14.35,0,0,0,2.62,3.38l.13.09c2.58,1.89,6.46,4.74,9.18,3.57,1.13-.49,3.1-2.68,5.41-5.22,3.46-3.82,7.64-8.44,11.15-9.65,2.87-1,6.66-3.49,10-5.7s6.13-4.06,7.49-4.06c1.86,0,7,4.79,11.28,8.71,2,1.84,3.79,3.49,4.87,4.32s2.2,1.82,3.53,3c3.32,2.91,7.25,6.36,8.69,6.12,1-.18,3.65-2.1,6.37-4.4a51.5,51.5,0,0,0,7.29-7.22,22.48,22.48,0,0,1,5.81-6,14.07,14.07,0,0,1,11.66-1.74c6.11,1.54,11.56,5.77,15.69,9,2.5,1.95,4.51,3.51,5.8,3.81,3.39.79,7.74-2.5,7.75-2.51l.54.56s-4.68,3.55-8.5,2.66c-1.48-.34-3.55-2-6.13-4-4.08-3.17-9.44-7.35-15.37-8.84a13.2,13.2,0,0,0-10.94,1.62,21.64,21.64,0,0,0-5.61,5.85,52.66,52.66,0,0,1-7.41,7.35c-2.83,2.39-5.61,4.39-6.79,4.59-1.87.32-6-3.28-9.43-6.31-1.33-1.16-2.56-2.24-3.5-3-1.11-.85-2.9-2.51-4.92-4.37-4.12-3.81-9.17-8.48-10.68-8.48-1.09,0-3.84,1.82-7,3.91-3.38,2.24-7.22,4.77-10.2,5.8-3.3,1.14-7.4,5.67-10.8,9.42-2.37,2.61-4.4,4.86-5.7,5.42-3.19,1.38-7.33-1.65-10.07-3.66l-.13-.09a14.44,14.44,0,0,1-2.81-3.58c-2-3.06-4.49-6.87-8.3-6.87a22.38,22.38,0,0,1-8.54-2.22,39.26,39.26,0,0,1-9.26-5.65l-.21-.19a7.76,7.76,0,0,0-4.48-1.95,6.57,6.57,0,0,0-4.77,1.78l-.19.17c-1.12,1-2.46,3.74-3.95,6.76-3,6-6.51,13.16-10.64,11.62a11.84,11.84,0,0,1-6.43-5.16,17.41,17.41,0,0,0-2.76-3.26,9.93,9.93,0,0,0-6-2.32,27.11,27.11,0,0,0-6.35.41c-2.39.38-4.08-1.35-6.32-3.66a31.57,31.57,0,0,0-6.49-5.44c-6.06-3.61-15.48,19-15.5,19Z"/><path class="cls-7" d="M373.39,64.84h1v6.63h4.29v43h-4.29v6.63h-1v-6.63H369.1v-43h4.29Zm14.92,6.37v9.07h-1.05V71.21H383v-22h9.61v22Zm14.95-41.58h1V41h4.29v10.3H404.3v17.1h-1V51.26H399V41h4.29ZM293.31,65.16h1v6.63h4.29v43h-4.29v6.63h-1v-6.63H289v-43h4.29Zm13.87-22.6h1V51.1h4.29V64h-4.29V80.1h-1V64h-4.29V51.1h4.29Zm-68.59,36.2h1v19h4.28v43h-4.28v3.09h-1v-3.09H234.3v-43h4.29ZM447.85,51.65h4.29v-5h1v5h4.29V67.8h-4.29v6.52h-1V67.8h-4.29Z"/><path class="cls-8" d="M420.27,54.4h1.05v2h4.28V69.31h-4.28v2h-1.05v-2H416V56.4h4.28Zm16.08,5h1v9.47h4.29V92.11h-4.29v9.47h-1V92.11h-4.29V68.88h4.29Zm-113.1,7h1v3.59h4.29V93.27h-4.29v3.59h-1V93.27H319V70.05h4.29Zm16.67,22.11h1v3.54h4.29V115H341v3.54h-1V115h-4.29V92.11h4.29ZM356,92.18h1v20.24h4.29v25.25H357v3.58h-1v-3.58h-4.29V112.42H356Zm-95.62,1.59h1v3.58h4.29v23.23h-4.29v3.58h-1v-3.58h-4.29V97.35h4.29ZM277.05,111h1.05v6.89h4.28v12.91H278.1v6.88h-1.05v-6.88h-4.28V117.87h4.28Zm187.36-28h4.29V73.47h1v9.47H474v23.23h-4.29v9.47h-1v-9.47h-4.29Z"/><path class="cls-9" d="M228.75,14.86H306.6a2.78,2.78,0,0,1,0,5.56H228.75a2.78,2.78,0,0,1,0-5.56"/><path class="cls-9" d="M228.75,27h38.74a2.78,2.78,0,0,1,0,5.56H228.75a2.78,2.78,0,0,1,0-5.56"/><polygon class="cls-10" points="356.32 144.61 360.34 152.66 352.3 152.66 356.32 144.61"/><polygon class="cls-11" points="403.75 22.81 400.03 15.37 407.48 15.37 403.75 22.81"/><polygon class="cls-11" points="452.26 42.78 448.54 35.34 455.98 35.34 452.26 42.78"/><polygon class="cls-10" points="278.06 141.87 282.08 149.92 274.04 149.92 278.06 141.87"/><path class="cls-12" d="M354.81,263.93h-1.65a.36.36,0,0,0-.26.11.33.33,0,0,0-.11.27v.89a.35.35,0,0,0,.11.27.36.36,0,0,0,.26.11h1.76a.76.76,0,0,0,.53-.24.71.71,0,0,0,.25-.55.91.91,0,0,0-.24-.57A.81.81,0,0,0,354.81,263.93Zm-1.65-2.59h1.46a.59.59,0,0,0,.5-.24.83.83,0,0,0,.19-.54.65.65,0,0,0-.23-.49.67.67,0,0,0-.43-.2h-1.49a.36.36,0,0,0-.26.11.33.33,0,0,0-.11.27V261a.38.38,0,0,0,.37.37Z"/><path class="cls-13" d="M201.88,266.81l-6.6.7,8.2,77.7a3.32,3.32,0,1,0,6.6-.7Z"/><path class="cls-14" d="M195.32,267.83l8.16,77.36a2.43,2.43,0,1,0,4.61-.16l-8.2-77.69Z"/><path class="cls-14" d="M86.13,266.81l6.59.7-8.2,77.75a3.33,3.33,0,0,1-3.64,2.95h0a3.34,3.34,0,0,1-2.95-3.65Z"/><path class="cls-13" d="M150.62,266.81l-6.59.7,8.2,78.29a3.31,3.31,0,0,0,6.59-.71Z"/><path class="cls-14" d="M144.06,267.84l8.16,77.92a3.36,3.36,0,0,0,3.12,3,3.38,3.38,0,0,0,1.49-3.17l-8.2-78.24Z"/><path class="cls-14" d="M137.6,266.81l6.59.7L136,345.26a3.34,3.34,0,0,1-3.65,2.95h0a3.34,3.34,0,0,1-2.95-3.65Z"/><path class="cls-15" d="M141.8,257.11h61a6,6,0,1,1,0,11.94h-61a6,6,0,1,1,0-11.94"/><path class="cls-16" d="M123.35,164.33H67.52l14,93,55.83.05h0a4.87,4.87,0,0,0,.65-.05h0c2.3,0,3.84-2.51,3.48-4.78L128.13,167.8c-.36-2.27-2.48-3.47-4.78-3.47Z"/><path class="cls-14" d="M71.65,167.8l14.45,91c.36,2.27-1.18,4.78-3.47,4.78h0c-2.29,0-4.42-1.2-4.78-3.48l-14.45-91c-.36-2.27,1.18-4.78,3.48-4.78h0c2.3,0,4.42,1.2,4.78,3.47"/><path class="cls-14" d="M85.37,257.11h62.4a6,6,0,0,1,0,11.94H85.37a6,6,0,1,1,0-11.94"/><path class="cls-17" d="M146.25,162.31c3.09,6.8,6.93,26.47,20.93,36,15.24,10.33,51.35,5.82,50.28.4-.12-.61-4.31-3-6.52-3.18-1.86-.15-6.73.34-8.56-.14-8.65-2.25-18.82-5.67-32.91-17.41-4.41-3.68-10-25.7-22.55-32.14-1.48-1-5,10-.67,16.51"/><path class="cls-18" d="M155.48,180.1c4.38-.87,9.17-4.72,12.22-7.77-5.09-12.91-12.19-27.18-23.82-31.22l-1.62,9.56,2.32,14.64Z"/><polygon class="cls-19" points="193.4 339.16 196.66 328.01 186.96 325.41 183.76 336.87 193.4 339.16"/><path class="cls-20" d="M135.55,225.25,157.88,221s56.52,2.93,68.39,25.06-27.72,84.32-27.72,84.32l-14.63-1.79s8.15-39.37,12-51.16,6-17.76,6-17.76l-63.58-22.41Z"/><path class="cls-21" d="M183.76,329.24c.61-2.86,1.72-8.1,3.06-14.25-1.28,6.05-2.36,11.06-3.06,14.25m-48.21-104,8.4,1.94c6.45.12,33.75,4.69,38.43,5.7,15.87,3.42,17,12.81,15.19,25.29l-59.28-20.9Z"/><polygon class="cls-19" points="171.8 336.02 172.75 325.92 162.61 326.16 162.71 337.73 171.8 336.02"/><path class="cls-22" d="M172.3,334.31c2.86,5.15,7.53,10.08,3.89,14.45H157.62l-.09-.27c-.18-.6-1-.85-.46-3,1.07-4.07,4.23-10.33,5.32-10.65,2.16-.64,5.21,1.16,9.91-.49"/><path class="cls-23" d="M177.57,345.36h0c0,1.37-.1,2.58-1.38,3.4H157.62c-1-.55-1.21-.94-.55-3.31Z"/><path class="cls-20" d="M164.93,333.81h4.3a1.07,1.07,0,0,1,1.07,1.08v5.52a1.08,1.08,0,0,1-1.07,1.08h-4.3a1.09,1.09,0,0,1-1.08-1.08v-5.52a1.08,1.08,0,0,1,1.08-1.08"/><path class="cls-20" d="M105.85,227.07s-2.33,21.92,9.45,27.56,48.56,6.24,48.56,6.24c-7.41,27.83-1,44.31-3.42,69.16l16,.08s9.83-44.28,13.47-69.38c1.83-12.66,2.21-22.73-13.82-26.18-5.4-1.17-40.51-9.3-40.51-9.3Z"/><path class="cls-18" d="M93.53,149.3c-5.24,21.38,12.86,44.85,11.34,87.39,15.71,2.18,55.17-10.06,57.78-15.31-2.17-15.87-5.23-27.11-5.56-35.79-.47-12.54-1.28-33.86-8.54-41.59-6.94-7.38-39.5-9.11-55,5.3"/><path class="cls-24" d="M137.55,139.34a47,47,0,0,0-21.61-.16c-3.33,9.42,8.8,15.86,16.89,14.69,8.44-1.21,9.45-11.18,4.72-14.53"/><path class="cls-25" d="M141.21,197.13l-31.06-8-4.59-16.15-4.44-.56s-5.35,12.37-5.25,13.13,5.28,11.49,5,11.55,20.3,3.18,22,3.29,18.39-3.22,18.39-3.22"/><path class="cls-17" d="M135.25,134.4l.06,5.51.8.69c3.12,3.39-.33,10.28-3.91,10-9.06.39-15.95-7.08-13.2-11.09l1.19-1.31.31-7.81c-.46,0-3.85-2-4.86-2.3s-2.48-2.28-2.57-4.34,3.1-1.37,3.1-1.37c-3.82-5.29-8.15-9.63-2.46-14.34s18.7-7.39,18.7-7.39L140.25,98c-1,2.69-.71,8.47,1.26,14.11,2.79,8,.44,18.9-6.26,22.25"/><path class="cls-26" d="M124.18,131.54s4.37,7.62,8,8.33,1.77.19,3.13,0l-.06-5.51c-2.51.38-5,.17-11.07-2.86"/><path class="cls-27" d="M226.53,198.27H165.82a1.59,1.59,0,0,0,0,3.17h62.29v-1.58a1.59,1.59,0,0,0-1.58-1.59"/><path class="cls-17" d="M98.56,147.44c-15.17,6.78-9.31,38.61-6.61,50.21,2.65,10.81,65,5.45,74.32,5.06-.67-2-1.85-6.48-6.28-7.64-3-.78-16.09.37-20-.4-18.51-3.66-35.17-2.53-35.25-3.21-.57-13.92,5.49-32.83-2.13-42-.69-.84-2.93-2.48-4.06-2"/><path class="cls-27" d="M197.16,139H130.22c-2.6,0-3,2.2-3.58,4.77l-9.43,46.15c-.35,2.19-1.31,5.9,4.49,5.91l68.58.05,12.28-53c.42-2.22-1.46-3.9-5.4-3.9"/><path class="cls-16" d="M200,139.88H131.43c-2.59,0-3.08,2.19-3.57,4.77l-8.52,45.23h0l-.47,2.69c-.31,1.77,1.47,3.27,3.27,3.27h68a3.48,3.48,0,0,0,3.27-3.27l.4-2.69h.09L202.44,144c.41-2.22-.21-4.11-2.45-4.11"/><path class="cls-28" d="M119.41,194.53a3.59,3.59,0,0,0,2.74,1.31h68a3,3,0,0,0,2.09-.84l-10-7.26-44.52.53Z"/><path class="cls-29" d="M192.25,195a4.24,4.24,0,0,0,1.18-2.43l.4-2.69h.09L202.44,144c.29-1.57.06-3-.89-3.67L188.33,153.2l-6.06,34.54Z"/><path class="cls-30" d="M130.45,140c-1.75.51-2.17,2.44-2.59,4.65l-8.52,45.23h0l-.47,2.69a2.46,2.46,0,0,0,.53,2l18.34-6.26,5.89-35.07Z"/><path class="cls-31" d="M200,139.88H131.43a3.65,3.65,0,0,0-1,.12l13.19,13.2h44.69l13.55-12.58a2.38,2.38,0,0,0-1.89-.74"/><path class="cls-14" d="M334.16,201.44H140v10.39H334.16a5.21,5.21,0,0,0,5.19-5.19h0a5.21,5.21,0,0,0-5.19-5.19"/><path class="cls-15" d="M334.16,201.44H141.47v5.19H339.35a5.21,5.21,0,0,0-5.19-5.19"/><path class="cls-13" d="M146.07,201.44H64.86a5.21,5.21,0,0,0-5.19,5.19h0a5.21,5.21,0,0,0,5.19,5.19h81.21a5.21,5.21,0,0,0,5.19-5.19h0a5.21,5.21,0,0,0-5.19-5.19"/><rect class="cls-32" x="291.13" y="211.83" width="8.45" height="136.93"/><rect class="cls-33" x="297.98" y="211.83" width="1.6" height="136.93"/><rect class="cls-32" x="101.14" y="211.83" width="8.87" height="136.93"/><rect class="cls-33" x="108.33" y="211.83" width="1.68" height="136.93"/><path class="cls-34" d="M138.65,111.2c-6.23,2.81-13.33-3-17.14,1.82-1.88,2.39-1.56,5.74.85,10.83.7,1.5,1.62,2.59-1,1.49-1.21-.5-3.18-1.19-3.83-.63-1.43,1.25-.59,3.74.62,4.5.54.34,1.56.85,1.56.85-15-3.21-21.36-37.34,14.1-34.92,1.11.08,1.28-1.81,2.41-1.55,8.81,2,10,13.35,2.43,17.61"/><path class="cls-22" d="M195.77,334s13.37,5.5,17.83,7.68c3.46,1.7,5.42,5.26,2.58,7.08H181.55l-.09-.27c-.52-1.71-1.86-13.94,1.74-13.66,2.24.16,7.57,1.75,12.57-.83"/><path class="cls-23" d="M217.56,345.36h0l0,1.38c-.05,1.09-.43,1.43-1.36,2H181.38l-.09-.27c-.1-.33-.34-2.07-.47-3Z"/><path class="cls-20" d="M197.25,334.63c4.81,2,12.89,5.39,16.2,7a4.78,4.78,0,0,1-3.39,1.07s-9.4-2.94-12.07-4.83a2.16,2.16,0,0,1-.74-3.22"/><path class="cls-18" d="M105.19,147.64s2.62,6.76,2.32,18.27A210.93,210.93,0,0,1,105.64,188s-1.21.66-7.07,1.87-9.44-.66-9.44-.66c-1.77-10.56-4.44-37.68,8.57-42.79,2.82-1.11,7.49,1.2,7.49,1.2"/><polygon class="cls-27" points="168.24 167.16 156.56 167.16 160.77 201.44 172.45 201.44 168.24 167.16"/><path class="cls-27" d="M175.84,163.78H155.29c-.78,0-.92.66-1.07,1.43l-2.55,13.56h0l-.14.8a.94.94,0,0,0,1,1H172.9a1,1,0,0,0,1-1l.12-.8h0L176.58,165c.12-.67-.07-1.23-.74-1.23"/><path class="cls-27" d="M279.7,138.85H212.76c-2.6,0-3.08,2.2-3.57,4.78l-8.93,46.25c-.35,2.19-1.3,5.9,4.49,5.91l68.58.05,12-53.76c.43-2.22-3.36-3.23-5.6-3.23"/><path class="cls-16" d="M283,139.88H214.49c-2.6,0-3.09,2.19-3.58,4.77l-8.52,45.23h0l-.47,2.69c-.31,1.77,1.48,3.27,3.28,3.27h68a3.49,3.49,0,0,0,3.28-3.27l.39-2.69H277L285.49,144c.41-2.22-.21-4.11-2.45-4.11"/><path class="cls-28" d="M202.46,194.53a3.6,3.6,0,0,0,2.75,1.31h68a3,3,0,0,0,2.09-.84l-10-7.26-44.51.53Z"/><path class="cls-29" d="M275.3,195a4.25,4.25,0,0,0,1.19-2.43l.39-2.69H277L285.49,144c.29-1.57.06-3-.88-3.67L271.39,153.2l-6.07,34.54Z"/><path class="cls-30" d="M213.5,140c-1.75.51-2.17,2.44-2.59,4.65l-8.52,45.23h0l-.47,2.69a2.46,2.46,0,0,0,.53,2l18.35-6.26,5.89-35.07Z"/><path class="cls-31" d="M283,139.88H214.49a3.73,3.73,0,0,0-1,.12l13.2,13.2h44.69l13.54-12.58a2.38,2.38,0,0,0-1.89-.74"/><path class="cls-27" d="M258.9,163.78H238.34c-.77,0-.92.66-1.07,1.43l-2.55,13.56h0l-.14.8a.94.94,0,0,0,1,1H256a1,1,0,0,0,1-1l.12-.8h0L259.63,165c.12-.67-.06-1.23-.73-1.23"/><polygon class="cls-27" points="252 167.16 240.32 167.16 244.53 201.44 256.22 201.44 252 167.16"/><path class="cls-20" d="M20.66,348.28h468.9a.77.77,0,1,1,0,1.54H20.66a.77.77,0,0,1,0-1.54"/><path class="cls-32" d="M144.33,13.43a32.61,32.61,0,1,1-42,19,32.62,32.62,0,0,1,42-19"/><path class="cls-12" d="M123.23,36.66a9.58,9.58,0,0,0-.08,1.94l0,.08c.1.14.29,1.26.39,1.56.17.49.48,1,.6,1.36.09.06.6.77.73.92a11.12,11.12,0,0,0,.86.8c.35.23.66.49,1.08.76a18.33,18.33,0,0,0,3.68,1.76c1.67.6,3.94,1.4,4.8,2.51,1.21,1.56.36,3.81-2.12,4.17a15.59,15.59,0,0,1-5-.26c-.46-.11-.93-.29-1.38-.4a19.54,19.54,0,0,1-2.18-.93l-.4-.1a.92.92,0,0,1-.16.48,2.59,2.59,0,0,1-.23,1.06,21.08,21.08,0,0,1-.68,2.55c0,.2-.06.75-.06,1.06a.42.42,0,0,1,.12.08l.21.19a4.38,4.38,0,0,1,1.08.41l2.47.71,1.15.23,1.74.23a.82.82,0,0,1,.35,0l.13,0c.13.05.06,0,.1.06l.07.18c0,.32-.07,3.27,0,3.91h4.31c.09-1.32,0-2.84,0-4.16,0-.47.1-.36.55-.46,1.2-.29,1.74-.63,2.43-.82.13-.12.95-.51,1.2-.68s.38-.24.57-.39a2,2,0,0,1,.51-.38,15.79,15.79,0,0,0,1.6-2.11,8.94,8.94,0,0,0,.92-2.79v-1.8a6.5,6.5,0,0,1-.15-1,7.7,7.7,0,0,0-3.59-4.69c-2.88-1.79-8.61-2.85-8.93-5.31-.18-1.42,1-2.22,2.2-2.5a10.45,10.45,0,0,1,4.35.09c.93.2,3.51,1.13,3.58,1.13.21-.26.15-.56.33-.76a3,3,0,0,1,.23-1,24.56,24.56,0,0,0,.65-3.2c-.49-.33-.75-.29-1-.5l0,0a5.37,5.37,0,0,1-1.42-.44,9.92,9.92,0,0,1-1.76-.31,13.61,13.61,0,0,1-1.82-.23c-.46-.27-.15-2.79-.26-3.86h-4.33c-.06.8.13,3.72-.13,4.17s-6,.75-7.29,6.64"/></g></g></svg>