<svg xmlns="http://www.w3.org/2000/svg" viewBox="0 0 500 391.78"><defs><style>.cls-1{fill:#037cf9;}</style></defs><g id="Layer_2" data-name="Layer 2"><g id="Layer_1-2" data-name="Layer 1"><path class="cls-1" d="M249.9,391.78H14c-1.22,0-2.43,0-3.65,0C3.74,391.7,0,388.63,0,383.39s3.78-8.26,10.4-8.28c11.63,0,23.27-.2,34.9.1,3.94.11,4.78-1,4.77-4.82C49.92,326,50,281.5,50,237.05c0-9.59,2.36-12,12-12h43.75c8.18,0,11,2.76,11,10.88,0,44.62.07,89.24-.09,133.86,0,4.22.8,5.54,5.26,5.4,11.5-.35,11.51-.1,11.51-11.54V203.78c0-9.63,2.36-12,11.89-12H187.4c10.36,0,12.59,2.2,12.59,12.37q0,82.56-.09,165.12c0,4.44.67,6.21,5.7,6,11.05-.45,11.06-.14,11.06-11V170.52c0-9.86,2.3-12.1,12.34-12.11q21.87,0,43.75,0c7.76,0,10.58,2.87,10.58,10.73q0,100.26-.12,200.53c0,4.69,1.21,5.68,5.66,5.54,11.13-.34,11.14-.11,11.14-11.38q0-84.39,0-168.76c0-9.21,2.47-11.66,11.74-11.66q22.13,0,44.27,0c7.81,0,10.65,2.85,10.65,10.66q0,87.77-.1,175.53c0,4.51.94,5.79,5.57,5.62,11.2-.38,11.21-.12,11.21-11.32V129c0-10,2.27-12.26,12.18-12.26h42.71c9.28,0,11.78,2.47,11.78,11.63q0,120.58-.09,241.16c0,4.32.65,5.92,5.48,5.72,10.57-.46,21.17-.14,31.76-.14,8.92,0,12.93,2.65,12.83,8.47-.1,5.66-4,8.19-12.58,8.19Z"/><path class="cls-1" d="M483.32,8.91C483.21,3.39,480,.2,474.54.1q-12-.21-24,0c-5.34.09-8.82,3.48-8.86,8.23,0,4.55,3.15,7.83,8.21,8.37,1,.1,1.93,0,4.11,0-9.16,8.62-17.33,16.14-25.27,23.91-2.16,2.11-4.07,2.43-6.89,1.8a24.77,24.77,0,0,0-29.7,28.68,5.42,5.42,0,0,1-2,5.77q-21.33,19.89-42.51,39.94c-2,1.9-3.54,2.32-6.32,1.38-9.74-3.3-18.62-1.24-25.75,6.17-2.31,2.41-4.17,2.21-6.74,1.42-9.93-3-19.84-6.14-29.84-9-2.85-.8-4.06-2-4.72-5-2.79-12.53-13.28-20.57-25.52-20s-22.28,10-23.65,22.81c-.27,2.49-1,3.54-3.3,4.42-11.12,4.31-22.19,8.79-33.23,13.34-2.16.88-3.54.88-5.47-.82-7.53-6.65-16.24-8.36-25.64-4.63S143,137.86,141.84,147.8c-.27,2.33-.79,3.62-3.15,4.53-11.3,4.35-22.54,8.88-33.73,13.49a4.05,4.05,0,0,1-5-.83c-7.71-6.77-16.56-8.54-26.11-4.58S59.21,171.8,58.47,182c-.19,2.53-1.17,3.56-3.25,4.44-10.37,4.38-20.69,8.85-31,13.31-6.59,2.84-8.94,6.86-6.88,11.76q3.24,7.72,13.59,3.36c10.19-4.32,20.41-8.6,30.55-13,2.28-1,3.82-1.15,6,.64,7.56,6.27,16.17,7.73,25.32,4s14.19-10.87,15.36-20.57c.3-2.55.92-3.83,3.5-4.8,11.15-4.25,22.22-8.74,33.23-13.34,2.31-1,3.58-.58,5.43,1,7.62,6.52,16.32,8.23,25.7,4.42s14.46-11.05,15.5-21c.26-2.47,1.09-3.51,3.35-4.38q16.69-6.47,33.24-13.35c2.21-.91,3.54-.71,5.45.89,10.77,9.07,24.48,8.63,34.19-1.18,2.06-2.07,3.65-2.43,6.24-1.61,10.08,3.16,20.17,6.27,30.33,9.13,2.84.8,4,2,4.7,5C312.16,161,325.44,169.4,339,166c14.11-3.5,22.05-16.91,18.17-31.23-.73-2.66-.16-4,1.67-5.71q20.76-19.35,41.33-38.92c1.86-1.77,3.17-2.22,5.74-1,9.92,4.67,20.5,3,27.91-4.37,7.9-7.86,9.88-17.19,5.85-27.69-.52-1.34-1.67-2.53.05-4.11,8.85-8.15,17.58-16.44,26.94-25.24,0,2.07,0,3.11,0,4.14.16,6.18,3.27,9.83,8.35,9.81s8.25-3.72,8.3-9.87C483.41,24.19,483.46,16.55,483.32,8.91ZM83.76,191.73a8.32,8.32,0,1,1,7.86-8.63A8.36,8.36,0,0,1,83.76,191.73Zm83.11-33.34A8.32,8.32,0,1,1,175,150,8.37,8.37,0,0,1,166.87,158.39Zm83.39-33.33a8.32,8.32,0,1,1,8.05-8.46A8.37,8.37,0,0,1,250.26,125.06Zm83.4,25a8.32,8.32,0,1,1,8-8.5A8.4,8.4,0,0,1,333.66,150.06Zm83.38-75a8.32,8.32,0,1,1,8-8.54A8.35,8.35,0,0,1,417,75.05Z"/></g></g></svg>