<svg xmlns="http://www.w3.org/2000/svg" xmlns:xlink="http://www.w3.org/1999/xlink" viewBox="0 0 500 458.24"><defs><style>.cls-1{fill:url(#linear-gradient);}.cls-2{fill:#fff;}.cls-3{fill:url(#linear-gradient-2);}.cls-4{fill:url(#linear-gradient-3);}.cls-5{fill:url(#linear-gradient-4);}.cls-6{fill:url(#linear-gradient-5);}.cls-7{fill:url(#linear-gradient-6);}.cls-8{fill:url(#linear-gradient-7);}.cls-9{fill:none;stroke-miterlimit:10;stroke-width:4px;stroke:url(#linear-gradient-8);}</style><linearGradient id="linear-gradient" y1="235.14" x2="446.2" y2="235.14" gradientUnits="userSpaceOnUse"><stop offset="0" stop-color="#be1e2d"/><stop offset="0.05" stop-color="#c81e2b"/><stop offset="0.15" stop-color="#d91d28"/><stop offset="0.29" stop-color="#e41c26"/><stop offset="0.48" stop-color="#eb1c24"/><stop offset="1" stop-color="#ed1c24"/></linearGradient><linearGradient id="linear-gradient-2" x1="90.1" y1="235.14" x2="356.11" y2="235.14" xlink:href="#linear-gradient"/><linearGradient id="linear-gradient-3" x1="180.19" y1="235.14" x2="266.01" y2="235.14" xlink:href="#linear-gradient"/><linearGradient id="linear-gradient-4" x1="505.74" y1="217.27" x2="505.74" y2="185.41" gradientTransform="translate(-89.01 210.13) rotate(-39.36)" gradientUnits="userSpaceOnUse"><stop offset="0" stop-color="#af3025"/><stop offset="1" stop-color="#ff6723"/></linearGradient><linearGradient id="linear-gradient-5" x1="536.98" y1="217.27" x2="536.98" y2="185.41" xlink:href="#linear-gradient-4"/><linearGradient id="linear-gradient-6" x1="506.19" y1="262.98" x2="506.19" y2="231.12" gradientTransform="matrix(0.77, -0.63, -0.63, -0.77, 215.17, 581.75)" xlink:href="#linear-gradient-4"/><linearGradient id="linear-gradient-7" x1="537.43" y1="262.98" x2="537.43" y2="231.12" gradientTransform="matrix(0.77, -0.63, -0.63, -0.77, 215.17, 581.75)" xlink:href="#linear-gradient-4"/><linearGradient id="linear-gradient-8" x1="225.48" y1="217.27" x2="544.83" y2="217.27" gradientTransform="translate(-89.01 210.13) rotate(-39.36)" gradientUnits="userSpaceOnUse"><stop offset="0" stop-color="#fd9a2d"/><stop offset="1" stop-color="#ffd39d"/></linearGradient></defs><g id="Layer_2" data-name="Layer 2"><g id="Layer_1-2" data-name="Layer 1"><circle class="cls-1" cx="223.1" cy="235.14" r="223.1"/><circle class="cls-2" cx="223.1" cy="235.14" r="178.05"/><circle class="cls-3" cx="223.1" cy="235.14" r="133"/><circle class="cls-2" cx="223.1" cy="235.14" r="87.96"/><circle class="cls-4" cx="223.1" cy="235.14" r="42.91"/><polygon class="cls-5" points="439.9 16.15 417.97 34.13 419.5 74.08 441.43 56.1 439.9 16.15"/><polygon class="cls-6" points="459.6 0 446.6 10.66 448.12 50.61 461.12 39.95 459.6 0"/><polygon class="cls-7" points="480.31 65.42 458.38 83.4 419.5 74.08 441.43 56.1 480.31 65.42"/><polygon class="cls-8" points="500 49.27 487 59.93 448.12 50.61 461.12 39.95 500 49.27"/><line class="cls-9" x1="223.1" y1="235.14" x2="470.03" y2="32.65"/></g></g></svg>