<svg xmlns="http://www.w3.org/2000/svg" viewBox="0 0 61.56 15.28"><defs><style>.cls-1{fill:#f2c438;}</style></defs><g id="Layer_2" data-name="Layer 2"><g id="Layer_1-2" data-name="Layer 1"><path class="cls-1" d="M.58,11.71a.54.54,0,0,1-.41-.16A.54.54,0,0,1,0,11.13V.58A.52.52,0,0,1,.17.17.52.52,0,0,1,.58,0h3a3.87,3.87,0,0,1,2,.49A3.43,3.43,0,0,1,6.88,1.83a3.88,3.88,0,0,1,.49,2,3.76,3.76,0,0,1-.49,1.94A3.49,3.49,0,0,1,5.55,7.09a4,4,0,0,1-2,.48H1.17v3.56a.57.57,0,0,1-.17.42A.55.55,0,0,1,.58,11.71Zm.59-5.26H3.58A2.68,2.68,0,0,0,5,6.11a2.43,2.43,0,0,0,.94-.94,2.77,2.77,0,0,0,.34-1.36,2.8,2.8,0,0,0-.34-1.39A2.52,2.52,0,0,0,5,1.47a2.68,2.68,0,0,0-1.37-.35H1.17Z"/><path class="cls-1" d="M9.62,8.37a.6.6,0,0,1-.43-.16A.59.59,0,0,1,9,7.78V.58A.54.54,0,0,1,9.19.16.56.56,0,0,1,9.62,0,.54.54,0,0,1,10,.16a.57.57,0,0,1,.16.42v7.2a.63.63,0,0,1-.16.43A.58.58,0,0,1,9.62,8.37Zm0,3.34a.59.59,0,0,1-.43-.15A.56.56,0,0,1,9,11.15V4.09a.55.55,0,0,1,.16-.42.56.56,0,0,1,.43-.16.54.54,0,0,1,.41.16.59.59,0,0,1,.16.42v7.06a.6.6,0,0,1-.16.41A.58.58,0,0,1,9.62,11.71Zm6.44,0a.54.54,0,0,1-.41-.16.56.56,0,0,1-.17-.4V7.24a3,3,0,0,0-.35-1.53,2.37,2.37,0,0,0-1-.9,3.06,3.06,0,0,0-1.37-.3,3,3,0,0,0-1.33.29,2.34,2.34,0,0,0-.94.78,1.91,1.91,0,0,0-.34,1.13H9.36A3.2,3.2,0,0,1,9.87,5a3.35,3.35,0,0,1,1.28-1.17,3.62,3.62,0,0,1,1.77-.43,4.09,4.09,0,0,1,1.9.44,3.32,3.32,0,0,1,1.33,1.3,4.18,4.18,0,0,1,.49,2.08v3.91a.56.56,0,0,1-.17.4A.54.54,0,0,1,16.06,11.71Z"/><path class="cls-1" d="M22.26,11.46a.57.57,0,0,1-.42,0,.64.64,0,0,1-.32-.29L18.18,4.27a.52.52,0,0,1,0-.42.58.58,0,0,1,.3-.3.52.52,0,0,1,.42,0,.5.5,0,0,1,.3.29l3.29,6.93a.65.65,0,0,1,.07.42A.44.44,0,0,1,22.26,11.46Zm-1.67,3.82a.65.65,0,0,1-.26-.06A.48.48,0,0,1,20,14.5L24.88,3.82a.5.5,0,0,1,.72-.27.47.47,0,0,1,.29.71L21,14.94A.48.48,0,0,1,20.59,15.28Z"/><path class="cls-1" d="M30.27,11.79a5.38,5.38,0,0,1-1.76-.3,3.3,3.3,0,0,1-1.41-.9.48.48,0,0,1-.13-.4.6.6,0,0,1,.22-.4.61.61,0,0,1,.44-.12.59.59,0,0,1,.37.2,2.29,2.29,0,0,0,1,.64,3.43,3.43,0,0,0,1.31.23,2.67,2.67,0,0,0,1.6-.38,1.2,1.2,0,0,0,.51-.92,1.06,1.06,0,0,0-.51-.9A4.42,4.42,0,0,0,30.19,8,4.52,4.52,0,0,1,28,7.15a1.8,1.8,0,0,1-.7-1.42,2,2,0,0,1,.4-1.27,2.46,2.46,0,0,1,1.08-.77,4.2,4.2,0,0,1,1.49-.25A4,4,0,0,1,32,3.78a3.14,3.14,0,0,1,1.18.93.53.53,0,0,1,.12.4.49.49,0,0,1-.24.35.63.63,0,0,1-.41.07.69.69,0,0,1-.4-.22,2.34,2.34,0,0,0-.87-.64,3.09,3.09,0,0,0-1.14-.2,2.27,2.27,0,0,0-1.32.34,1,1,0,0,0-.5.84,1,1,0,0,0,.19.6,1.55,1.55,0,0,0,.65.46A6.37,6.37,0,0,0,30.51,7a5.61,5.61,0,0,1,1.78.54,2.37,2.37,0,0,1,.93.82,2.06,2.06,0,0,1,.27,1,2,2,0,0,1-.41,1.24,2.68,2.68,0,0,1-1.14.83A4.33,4.33,0,0,1,30.27,11.79Z"/><path class="cls-1" d="M36.3,2a.78.78,0,0,1-.57-.24.81.81,0,0,1-.24-.59.75.75,0,0,1,.25-.59.85.85,0,0,1,.57-.22.89.89,0,0,1,.57.22.78.78,0,0,1,.24.59.81.81,0,0,1-.24.59A.78.78,0,0,1,36.3,2Zm0,9.76a.54.54,0,0,1-.58-.58v-7a.55.55,0,0,1,.16-.42.54.54,0,0,1,.42-.16.57.57,0,0,1,.42.16.58.58,0,0,1,.15.42v7a.61.61,0,0,1-.15.43A.6.6,0,0,1,36.31,11.71Z"/><path class="cls-1" d="M43.48,11.79a4,4,0,0,1-3.56-2,4.31,4.31,0,0,1-.53-2.13,4.46,4.46,0,0,1,.51-2.15A3.91,3.91,0,0,1,41.29,4a3.84,3.84,0,0,1,2-.54A3.94,3.94,0,0,1,45,3.79a3.82,3.82,0,0,1,1.36,1.09.4.4,0,0,1,.12.38.61.61,0,0,1-.26.35.43.43,0,0,1-.36.08.58.58,0,0,1-.36-.22,2.79,2.79,0,0,0-2.19-1A2.68,2.68,0,0,0,40.87,6a3.51,3.51,0,0,0-.36,1.62,3.35,3.35,0,0,0,.38,1.6,2.81,2.81,0,0,0,1,1.11,2.93,2.93,0,0,0,1.54.41,3.4,3.4,0,0,0,1.08-.16,2.38,2.38,0,0,0,.86-.49.71.71,0,0,1,.37-.16.49.49,0,0,1,.36.12.64.64,0,0,1,.21.37.41.41,0,0,1-.15.36A3.84,3.84,0,0,1,43.48,11.79Z"/><path class="cls-1" d="M52.38,11.79a3.91,3.91,0,0,1-2.07-.55,4,4,0,0,1-1.45-1.49,4.31,4.31,0,0,1-.53-2.13,4.17,4.17,0,0,1,.55-2.15A4,4,0,0,1,50.37,4a4.22,4.22,0,0,1,2.13-.54A4.15,4.15,0,0,1,54.62,4a4.09,4.09,0,0,1,1.49,1.49,4.38,4.38,0,0,1,.56,2.15L56.2,8a3.76,3.76,0,0,1-1.86,3.31A3.89,3.89,0,0,1,52.38,11.79Zm.12-1a3,3,0,0,0,1.55-.41,2.88,2.88,0,0,0,1.08-1.11,3.19,3.19,0,0,0,.4-1.6A3.18,3.18,0,0,0,55.13,6,3,3,0,0,0,52.5,4.48,2.93,2.93,0,0,0,51,4.9,3,3,0,0,0,49.86,6a3.19,3.19,0,0,0-.41,1.61,3.2,3.2,0,0,0,.41,1.6A3,3,0,0,0,51,10.33,3,3,0,0,0,52.5,10.74Zm3.58,1a.6.6,0,0,1-.42-.15.56.56,0,0,1-.16-.41V8.58l.28-1.18.89.22v3.53a.57.57,0,0,1-.17.41A.6.6,0,0,1,56.08,11.71Z"/><path class="cls-1" d="M60.69,11.71a1.81,1.81,0,0,1-1.07-.33,2.1,2.1,0,0,1-.74-.91,3.35,3.35,0,0,1-.26-1.35V.57a.53.53,0,0,1,.16-.41.61.61,0,0,1,.82,0,.53.53,0,0,1,.16.41V9.12A1.94,1.94,0,0,0,60,10.17a.78.78,0,0,0,.67.4h.37a.47.47,0,0,1,.36.16.64.64,0,0,1,.14.42.52.52,0,0,1-.19.41.75.75,0,0,1-.49.15Z"/></g></g></svg>