<svg xmlns="http://www.w3.org/2000/svg" viewBox="0 0 1594.8 1458.31"><defs><style>.cls-1{fill:#d2e4ff;}.cls-2{fill:#f3f9ff;}.cls-3{fill:#ee9849;}.cls-4{fill:#a6c7f9;}.cls-5{fill:#2b478b;}.cls-6{fill:#739af0;}.cls-7{fill:#82b378;}.cls-8{fill:#fff;}</style></defs><g id="Layer_2" data-name="Layer 2"><g id="Layer_1-2" data-name="Layer 1"><rect class="cls-1" x="531.19" width="977.09" height="1263.56" rx="98.56" transform="translate(2039.46 1263.56) rotate(180)"/><rect class="cls-2" x="627.19" y="132.42" width="786.67" height="1003.23" transform="translate(2041.06 1268.08) rotate(180)"/><path class="cls-3" d="M1302.31,1091.62h0a41.51,41.51,0,0,1-41.51-41.51V476.25a41.51,41.51,0,0,1,41.51-41.5h0a41.5,41.5,0,0,1,41.5,41.5v573.86A41.5,41.5,0,0,1,1302.31,1091.62Z"/><path class="cls-3" d="M1166.31,1091.62h0a41.51,41.51,0,0,1-41.51-41.51v-757a41.51,41.51,0,0,1,41.51-41.5h0a41.51,41.51,0,0,1,41.51,41.5v757A41.51,41.51,0,0,1,1166.31,1091.62Z"/><path class="cls-3" d="M1017.92,1091.62h0a41.5,41.5,0,0,1-41.51-41.51v-415a41.5,41.5,0,0,1,41.51-41.5h0a41.5,41.5,0,0,1,41.5,41.5v415A41.5,41.5,0,0,1,1017.92,1091.62Z"/><path class="cls-3" d="M873.52,1091.62h0A41.51,41.51,0,0,1,832,1050.11V405.3a41.51,41.51,0,0,1,41.51-41.51h0A41.5,41.5,0,0,1,915,405.3v644.81A41.5,41.5,0,0,1,873.52,1091.62Z"/><path class="cls-3" d="M769.88,732.58v317.53a41.51,41.51,0,0,1-41.51,41.51h0a41.51,41.51,0,0,1-41.51-41.51V732.58a41.52,41.52,0,0,1,41.51-41.51h0A41.52,41.52,0,0,1,769.88,732.58Z"/><path class="cls-4" d="M836,312.38h70.3a7.28,7.28,0,0,1,0,14.55H836a7.28,7.28,0,0,1,0-14.55Z"/><path class="cls-4" d="M890.24,338.85h16a7.27,7.27,0,0,1,0,14.54h-16a7.27,7.27,0,0,1,0-14.54Z"/><path class="cls-4" d="M1125.64,200.76h70.3a7.28,7.28,0,0,1,0,14.55h-70.3a7.28,7.28,0,0,1,0-14.55Z"/><path class="cls-4" d="M1179.93,227.23h16a7.29,7.29,0,0,1,7.27,7.27h0a7.29,7.29,0,0,1-7.27,7.27h-16a7.29,7.29,0,0,1-7.27-7.27h0A7.29,7.29,0,0,1,1179.93,227.23Z"/><path class="cls-4" d="M1266.24,383.74h70.3a7.27,7.27,0,0,1,0,14.54h-70.3a7.27,7.27,0,0,1,0-14.54Z"/><path class="cls-4" d="M1320.53,410.2h16a7.29,7.29,0,0,1,7.27,7.27h0a7.3,7.3,0,0,1-7.27,7.28h-16a7.3,7.3,0,0,1-7.27-7.28h0A7.29,7.29,0,0,1,1320.53,410.2Z"/><path class="cls-4" d="M982.77,542.66h70.3a7.28,7.28,0,0,1,0,14.55h-70.3a7.28,7.28,0,1,1,0-14.55Z"/><path class="cls-4" d="M1037.06,569.13h16a7.29,7.29,0,0,1,7.27,7.27h0a7.29,7.29,0,0,1-7.27,7.27h-16a7.3,7.3,0,0,1-7.28-7.27h0A7.3,7.3,0,0,1,1037.06,569.13Z"/><path class="cls-4" d="M693.22,639.84h70.3a7.28,7.28,0,0,1,0,14.55h-70.3a7.28,7.28,0,0,1,0-14.55Z"/><path class="cls-4" d="M747.51,666.31h16a7.27,7.27,0,0,1,0,14.54h-16a7.27,7.27,0,1,1,0-14.54Z"/><path class="cls-5" d="M728.37,619.15a25.83,25.83,0,1,1,25.83-25.83A25.86,25.86,0,0,1,728.37,619.15Zm0-41.66a15.83,15.83,0,1,0,15.83,15.83A15.85,15.85,0,0,0,728.37,577.49Z"/><path class="cls-5" d="M717.37,577.49a5,5,0,0,1-3.54-1.47L636.2,498.39H5.5a5,5,0,0,1,0-10H640.34L720.91,569a5,5,0,0,1-3.54,8.54Z"/><path class="cls-5" d="M876.93,1163.88a25.84,25.84,0,1,1,25.83-25.83A25.86,25.86,0,0,1,876.93,1163.88Zm0-41.67a15.84,15.84,0,1,0,15.83,15.84A15.85,15.85,0,0,0,876.93,1122.21Z"/><path class="cls-5" d="M1589.8,1243H965l-80.56-80.56a5,5,0,0,1,7.07-7.08L969.1,1233h620.7a5,5,0,0,1,0,10Z"/><path class="cls-5" d="M1162.69,180.76a25.83,25.83,0,1,1,25.83-25.83A25.86,25.86,0,0,1,1162.69,180.76Zm0-41.66a15.83,15.83,0,1,0,15.83,15.83A15.85,15.85,0,0,0,1162.69,139.1Z"/><path class="cls-5" d="M1151.69,139.1a5,5,0,0,1-3.54-1.47L1070.52,60H439.82a5,5,0,0,1,0-10h634.84l80.56,80.56a5,5,0,0,1-3.53,8.54Z"/><path class="cls-6" d="M427,476.82H12.67A12.67,12.67,0,0,1,0,464.15H0a12.66,12.66,0,0,1,12.67-12.66H427a12.67,12.67,0,0,1,12.67,12.66h0A12.67,12.67,0,0,1,427,476.82Z"/><path class="cls-6" d="M427,436.82H172.67A12.67,12.67,0,0,1,160,424.15h0a12.66,12.66,0,0,1,12.67-12.66H427a12.67,12.67,0,0,1,12.67,12.66h0A12.67,12.67,0,0,1,427,436.82Z"/><path class="cls-6" d="M427,396.82H172.67A12.67,12.67,0,0,1,160,384.15h0a12.66,12.66,0,0,1,12.67-12.66H427a12.67,12.67,0,0,1,12.67,12.66h0A12.67,12.67,0,0,1,427,396.82Z"/><path class="cls-6" d="M858.43,35.84H444.09a12.66,12.66,0,0,1-12.66-12.66h0a12.66,12.66,0,0,1,12.66-12.67H858.43A12.67,12.67,0,0,1,871.1,23.18h0A12.66,12.66,0,0,1,858.43,35.84Z"/><circle class="cls-7" cx="1165.14" cy="1368.14" r="90.17" transform="translate(-626.16 1224.59) rotate(-45)"/><path class="cls-8" d="M1165.13,1291.92a76.21,76.21,0,0,1,54.33,129.68l-54.33-53.46-71.22,27.18a76.27,76.27,0,0,1,71.22-103.4Z"/><path class="cls-7" d="M1176.27,1329.44h32.45a2.33,2.33,0,0,1,2.32,2.32h0a2.33,2.33,0,0,1-2.32,2.32h-32.45a2.32,2.32,0,0,1-2.31-2.32h0A2.33,2.33,0,0,1,1176.27,1329.44Z"/><path class="cls-7" d="M1176.27,1336.78h32.45a2.32,2.32,0,0,1,0,4.64h-32.45a2.32,2.32,0,0,1,0-4.64Z"/><path class="cls-7" d="M1195.32,1344.12h13.4a2.32,2.32,0,0,1,0,4.64h-13.4a2.32,2.32,0,1,1,0-4.64Z"/><polygon class="cls-7" points="1086.17 1325.82 1121.84 1290.15 1086.17 1290.15 1086.17 1325.82"/><circle class="cls-7" cx="1469.63" cy="1368.14" r="90.17" transform="translate(29.99 2767.79) rotate(-87.14)"/><path class="cls-8" d="M1393.42,1368.14a76.2,76.2,0,1,1,30,60.6l46.23-60.6-71.22,27.18A75.87,75.87,0,0,1,1393.42,1368.14Z"/><path class="cls-7" d="M1481.39,1329.44h32.45a2.33,2.33,0,0,1,2.32,2.32h0a2.33,2.33,0,0,1-2.32,2.32h-32.45a2.32,2.32,0,0,1-2.31-2.32h0A2.33,2.33,0,0,1,1481.39,1329.44Z"/><path class="cls-7" d="M1481.39,1336.78h32.45a2.32,2.32,0,1,1,0,4.64h-32.45a2.32,2.32,0,0,1,0-4.64Z"/><path class="cls-7" d="M1500.44,1344.12h13.4a2.32,2.32,0,1,1,0,4.64h-13.4a2.32,2.32,0,0,1,0-4.64Z"/><polygon class="cls-7" points="1391.17 1325.82 1426.84 1290.15 1391.17 1290.15 1391.17 1325.82"/></g></g></svg>