<svg xmlns="http://www.w3.org/2000/svg" viewBox="0 0 579.96 340.84"><defs><style>.cls-1{fill:#f3f3ff;}.cls-2{fill:#69c208;}.cls-3{fill:#92ce08;}.cls-11,.cls-12,.cls-15,.cls-4{fill:none;}.cls-11,.cls-4{stroke:#09a707;}.cls-11,.cls-12,.cls-15,.cls-16,.cls-17,.cls-18,.cls-20,.cls-25,.cls-4{stroke-miterlimit:10;}.cls-5,.cls-6,.cls-8{fill:#40bb3b;}.cls-22,.cls-23,.cls-6,.cls-8{isolation:isolate;}.cls-6{opacity:0.35;}.cls-7{fill:#7fd311;}.cls-8{opacity:0.23;}.cls-9{fill:#09a707;}.cls-10{fill:#bbe83d;}.cls-11{stroke-linecap:round;}.cls-12,.cls-17{stroke:#91bbf9;}.cls-13{fill:#91bbf9;}.cls-14,.cls-16,.cls-17,.cls-20,.cls-25{fill:#fff;}.cls-15,.cls-20{stroke:#14387b;}.cls-16,.cls-18{stroke:#ea711f;}.cls-16,.cls-17,.cls-18{stroke-width:1.6px;}.cls-18,.cls-28{fill:#ea711f;}.cls-19{fill:#14387b;}.cls-20{stroke-width:3px;}.cls-21{fill:#fabc93;}.cls-22{fill:#de6f25;opacity:0.61;}.cls-23{fill:#212572;opacity:0.75;}.cls-24{fill:#dee9fc;}.cls-25{stroke:#ef184c;stroke-width:0.5px;}.cls-26{fill:#020331;}.cls-27{fill:#393bc6;}.cls-29{fill:#0d3068;}.cls-30{fill:#031d42;}</style></defs><g id="Layer_2" data-name="Layer 2"><g id="Layer_1-2" data-name="Layer 1"><g id="Layer_2-2" data-name="Layer 2"><g id="OBJECTS"><path class="cls-1" d="M19,331.75S-33.14,259.4,35.34,171.63,178.47,117.81,233.46,62.52,320.26-8.42,416.49,4c99.38,12.83,204,149.17,147.63,330.23Z"/><path class="cls-2" d="M376.84,234.52h.06c1.27-.34,21.46-6.4,26.4-41.09,4.69-33,13.5-39.92,14.85-40.8a.34.34,0,0,0,.11-.07h.06C399.59,145.31,374,160,373.39,177.2s-9.8,11-8.5,23.57S376.84,234.52,376.84,234.52Zm-5.3-38.81c2.67-.29,1.58,5.06,1.71,10.55s-1.07,7.73-3.36,4S366.77,196.21,371.54,195.71Z"/><path class="cls-3" d="M376.84,234.52h.06c1.27-.34,21.46-6.4,26.4-41.09,4.69-33,13.5-39.92,14.85-40.8-1.66.93-14.71,9-17.88,32.55C396.9,210.35,377.85,209,376.84,234.52Z"/><path class="cls-4" d="M396.69,327.67s-43-92.54-1.22-163.3"/><path class="cls-5" d="M554.24,278.46c-1.42,12.3,1.07,19.25-18.53,22.1s-11.23,21.57-36.91,27.09H433.06l.18-.25c1.59-2.14,13.61-17.53,34.36-22.88a59.68,59.68,0,0,1,7.52-1.42c2-.24,3.83-.49,5.51-.76,21-3.36,17.86-8.87,22.48-15.86,5-7.55,7.29-17.29,20.48-15.15s13-3.5,17.65-11.05,27.13-14.09,27.84-2.75S555.67,266.16,554.24,278.46Z"/><path class="cls-6" d="M492.77,327.65H433.06s15-21.29,42.06-24.55c2-.24,3.83-.49,5.51-.76Z"/><path class="cls-7" d="M561,260a.49.49,0,0,1-.45.53h0s-5.17.65-14.1,15.08c-4.31,7-10,7.75-15.46,8.52-6.68.94-13.59,1.91-19.21,13.53-9.15,18.91-37.58,27.85-45.46,30h-2.5a.5.5,0,0,1,.48-.5c.56-.09,36.3-8.55,46.62-29.89,5.85-12.1,13-13.11,20-14.09,5.5-.77,10.69-1.5,14.75-8.06,9.3-15,14.66-15.53,14.89-15.54A.51.51,0,0,1,561,260Z"/><path class="cls-2" d="M515.94,252.12c-14.59,15-11.75,21.89-20.27,33.65-7.86,10.86-19.89,3-28.07,18.75a37.54,37.54,0,0,0-1.93,4.36c-2.92,7.74-9.26,12.32-16.18,15a58.51,58.51,0,0,1-16.25,3.51,67.31,67.31,0,0,1-10.14.13h-9.38l-15.64.07h-2.55c.08-.32.64-2.33,1.61-5.33a146.07,146.07,0,0,1,8-20c.39-.78.79-1.56,1.2-2.32a61.63,61.63,0,0,1,4.56-7.28,15.65,15.65,0,0,1,4.52-4.17c3.81-2.33,8.16-2.7,12.13-3,4.64-.29,8.76-.41,10.89-3.32a7.56,7.56,0,0,0,1.24-2.93c2.44-11.35,13.38-21.08,25.95-19.46s13.79-8.51,28-19S530.54,237.12,515.94,252.12Z"/><path class="cls-8" d="M449.49,323.89c-12.28,4.8-26.39,3.64-26.39,3.64l-27.57.12s.57-2.1,1.63-5.38l18.3-33.78c8.29-5.06,19.07-.89,23-6.28Z"/><path class="cls-3" d="M412.5,326.37a.5.5,0,0,1-.5-.5.54.54,0,0,1,.29-.45c.32-.15,32-15.23,38.47-34.05,3.71-10.73,11-12,18-13.24,5.87-1,11.41-2,14.94-8.29,8-14.22,13.5-19.81,23.65-23.92a.5.5,0,0,1,.65.28.49.49,0,0,1-.27.65c-9.91,4-15.32,9.49-23.16,23.48-3.75,6.7-9.8,7.76-15.64,8.78-7.06,1.24-13.72,2.41-17.24,12.59-6.64,19.22-37.67,34-39,34.62A.45.45,0,0,1,412.5,326.37Z"/><path class="cls-9" d="M528.81,220.61A107.24,107.24,0,0,1,509.4,205c-9.4-9.61-32.11-5.12-45.65,27.67,0,0,9.12-12.29,21.3-13.35S515.32,224.88,528.81,220.61Z"/><path class="cls-4" d="M420.34,325.87s16.4-97.66,63.8-111.57"/><path class="cls-2" d="M450.44,243.79s7.69-34.72,25.42-41.13,31,17.73,52.95,18c0,0-13,4.48-37.57,2.78C470.87,222,450.44,243.79,450.44,243.79Z"/><path class="cls-9" d="M491.38,212c-4.54-.31-8.19.86-7.83,3.49s6.41-.85,11.18.78S496.65,212.35,491.38,212Z"/><path class="cls-3" d="M414.16,327.57s13.55-8.85,13.55-24.47-1.9-25.84,5.94-34,11.64-18.41,7.13-28.39,5.22-14,4.27-24.24,2.62-20.43-8.79-21.86-6.88,16.16-12,19.72-17,5-16.52,16.4,7.6,18.77-2.38,21.74-15.45,7.45-16.4,18.28,4.14,20.57-4.82,27-13.42,29.94-13.42,29.94Z"/><path class="cls-10" d="M434.86,213.46c.13,7-3.44,10.2-6.58,13-2.72,2.45-5.28,4.75-5.27,9.2,0,2.25.16,4.26.32,6.2.51,6.5.92,11.64-5.47,18.51-8,8.63-9.85,17.05-11.48,39.54v.42c-1,13.59-5,22.3-8.25,27.24H396.8c3.06-4.51,7.11-12.66,8.35-25.34.07-.64.12-1.3.17-2,1.66-23.07,3.51-31.67,11.78-40.57,6.09-6.55,5.72-11.25,5.2-17.76-.15-2-.31-4-.32-6.27,0-4.89,2.71-7.34,5.6-9.94,3.13-2.82,6.38-5.74,6.25-12.27a.5.5,0,0,1,.49-.51h0a.47.47,0,0,1,.54.39A.43.43,0,0,1,434.86,213.46Z"/><path class="cls-9" d="M10.81,248.61a108.08,108.08,0,0,0,15.63-19.39c7.12-11.4,30.27-11.87,50.51,17.27,0,0-11.53-10.06-23.66-8.49S24.91,249.9,10.81,248.61Z"/><path class="cls-4" d="M139.29,328.23s-36.91-91.9-86.19-95.33"/><path class="cls-2" d="M92.33,254.49S77.39,222.22,58.7,219.75,32.23,243.7,10.81,248.61c0,0,13.66,1.6,37.3-5.32C67.71,237.54,92.33,254.49,92.33,254.49Z"/><path class="cls-9" d="M45.53,232.19c4.37-1.28,8.18-.92,8.4,1.73s-6.44.54-10.75,3.16S40.46,233.66,45.53,232.19Z"/><path class="cls-3" d="M191.37,144.46s14.73-4.09,23.66,8.91,7.64,20.7,15.73,27.88c0,0-16.07.16-18.16-2.23S203,149.86,191.37,144.46Z"/><path class="cls-2" d="M228,178.38c-16.31-16.42-12.13-30.65-36.59-33.92.3.29,9.87,10.07,7.3,44.47h0V189c-.09,1.28-.2,2.59-.33,3.95-3.28,33.72,30.14,40.71,31.39,40.92h0s12.52-7.49,12.91-26.82C242.9,195.68,239.71,190.21,228,178.38Zm-25.56.67c3.31-1,5,4.53,2.59,5.47s-5.68-4.52-2.63-5.47Zm7,20.71c-5.16-1.72-6.65-9.85-3.27-10.28,0,0,.93-.39,2.68,2.31s4.81,2,6.33,4.45-.57,5.24-5.74,3.52Zm26.13,8.91c-3.69,3.67-7.3-10.79-4.68-13.1,3.81-3.33,8.37,9.43,4.68,13.1Z"/><path class="cls-11" d="M219,325.36s33.13-92.93-13.45-157.31"/><path class="cls-3" d="M229.72,233.9c-1.25-.21-34.67-7.2-31.39-40.92.13-1.36.24-2.67.33-3.95,0,1.37-.42,16.48,14.51,23.85C228.84,220.61,229.72,233.9,229.72,233.9Z"/><path class="cls-5" d="M56.43,278.46c1.42,12.3-1.07,19.25,18.53,22.1s11.23,21.57,36.91,27.09h65.74l-.18-.25c-1.59-2.14-13.61-17.53-34.36-22.88a60.37,60.37,0,0,0-7.52-1.42c-2-.24-3.83-.49-5.51-.76-21-3.36-17.86-8.87-22.48-15.86-5-7.55-7.29-17.29-20.48-15.15s-13-3.5-17.65-11.05-27.13-14.09-27.84-2.75S55,266.16,56.43,278.46Z"/><path class="cls-6" d="M117.9,327.65h59.71s-15-21.29-42.06-24.55c-2-.24-3.83-.49-5.51-.76Z"/><path class="cls-7" d="M49.63,260a.49.49,0,0,0,.45.53h0s5.17.65,14.1,15.08c4.31,7,10,7.75,15.46,8.52,6.68.94,13.59,1.91,19.21,13.53,9.15,18.91,37.58,27.85,45.46,30h2.54a.5.5,0,0,0-.48-.5c-.56-.09-36.3-8.55-46.62-29.89-5.85-12.1-13-13.11-20-14.09-5.5-.77-10.69-1.5-14.75-8.06-9.3-15-14.66-15.53-14.89-15.54A.5.5,0,0,0,49.63,260Z"/><path class="cls-2" d="M94.73,252.12c14.59,15,11.75,21.89,20.27,33.65,7.86,10.86,19.89,3,28.07,18.75a41.27,41.27,0,0,1,1.93,4.36c2.92,7.74,9.26,12.32,16.18,15a58.35,58.35,0,0,0,16.25,3.51,67.3,67.3,0,0,0,10.14.13H197l15.64.07h2.55c-.08-.32-.64-2.33-1.61-5.33a147.35,147.35,0,0,0-8-20c-.39-.78-.79-1.56-1.2-2.32a61.63,61.63,0,0,0-4.56-7.28,15.91,15.91,0,0,0-4.52-4.17c-3.81-2.33-8.16-2.7-12.13-3-4.64-.29-8.76-.41-10.89-3.32a7.41,7.41,0,0,1-1.24-2.93c-2.44-11.35-13.38-21.08-25.95-19.46s-13.79-8.51-28-19S80.13,237.12,94.73,252.12Z"/><path class="cls-8" d="M161.18,323.89c12.28,4.8,26.39,3.64,26.39,3.64l27.57.12s-.57-2.1-1.63-5.38l-18.3-33.78c-8.29-5.06-19.07-.89-23-6.28Z"/><path class="cls-3" d="M198.17,326.37a.5.5,0,0,0,.49-.5.51.51,0,0,0-.28-.45c-.32-.15-32-15.23-38.47-34.05-3.71-10.73-11-12-18-13.24-5.87-1-11.41-2-14.94-8.29-8-14.22-13.5-19.81-23.65-23.92a.51.51,0,0,0-.65.28.49.49,0,0,0,.28.65c9.9,4,15.31,9.49,23.15,23.48,3.76,6.7,9.8,7.76,15.64,8.78,7.06,1.24,13.72,2.41,17.24,12.59,6.64,19.22,37.67,34,39,34.62A.41.41,0,0,0,198.17,326.37Z"/><path class="cls-3" d="M196.51,327.57S183,318.72,183,303.1s1.9-25.84-5.94-34-11.64-18.41-7.13-28.39-5.22-14-4.27-24.24S163,196,174.41,194.58s6.88,16.16,12,19.72,17,5,16.52,16.4-7.6,18.77,2.38,21.74,15.45,7.45,16.4,18.28-4.13,20.57,4.82,27S240,327.66,240,327.66Z"/><path class="cls-10" d="M175.81,213.46c-.13,7,3.44,10.2,6.58,13,2.72,2.45,5.28,4.75,5.27,9.2,0,2.25-.16,4.26-.32,6.2-.51,6.5-.92,11.64,5.47,18.51,8,8.63,9.85,17.05,11.48,39.54v.42c1,13.59,5,22.3,8.25,27.24h1.28c-3.06-4.51-7.11-12.66-8.35-25.34-.07-.64-.12-1.3-.17-2-1.66-23.07-3.51-31.67-11.78-40.57-6.09-6.55-5.72-11.25-5.2-17.76.15-2,.31-4,.32-6.27,0-4.89-2.71-7.34-5.6-9.94-3.13-2.82-6.38-5.74-6.25-12.27a.52.52,0,0,0-.49-.51h0a.49.49,0,0,0-.5.45A.34.34,0,0,0,175.81,213.46Z"/><path class="cls-12" d="M363.51,110.57,374.8,91l-11-6.35a37.36,37.36,0,0,0,.56-6.34,36.61,36.61,0,0,0-.85-7.8L374.1,64.4,362.8,44.85,352,51.08a36.39,36.39,0,0,0-12.6-7.2V32.15H316.82V43.89a36.18,36.18,0,0,0-13.15,7.68l-9.54-5.51L282.84,65.62l9.73,5.62a36.71,36.71,0,0,0-.7,7.08,35.81,35.81,0,0,0,1,8.51l-9.35,5.4,11.3,19.56,10-5.75a36.06,36.06,0,0,0,13.44,7.14v11.3h22.58V112.27a36.13,36.13,0,0,0,12.29-7.71Zm-36.32-7.74a24.63,24.63,0,1,1,1.4,0C328.13,102.88,327.66,102.86,327.19,102.83Z"/><path class="cls-13" d="M414.35,68.76l10.55-7.45-4.19-5.94a20.52,20.52,0,0,0,1.81-3.16A21.24,21.24,0,0,0,424,48l7-.63L429.82,34.5l-7.1.65a21,21,0,0,0-4.82-6.76l2.81-6.09L409,16.88,406.17,23a20.91,20.91,0,0,0-8.68.84l-3.63-5.15L383.3,26.13,387,31.38A21,21,0,0,0,385,34.89a20.38,20.38,0,0,0-1.51,4.67l-6.15.56L378.47,53l6.55-.6a20.58,20.58,0,0,0,5.27,6.93l-2.71,5.87,11.73,5.41,2.93-6.35a20.74,20.74,0,0,0,8.23-1ZM399.73,53.08a10.34,10.34,0,1,1,13.73-5v0A10.32,10.32,0,0,1,399.73,53.08Z"/><path class="cls-13" d="M486.29,97.72H365a4.28,4.28,0,0,0-4.28,4.28v74.25a4.27,4.27,0,0,0,4.28,4.28h12.38C376,187,372.8,194.75,365.8,198.45c0,0,24-2.88,29.48-17.92h91.05a4.28,4.28,0,0,0,4.27-4.28V102a4.28,4.28,0,0,0-4.28-4.28Z"/><rect class="cls-14" x="376.68" y="110.87" width="38.49" height="3.56"/><rect class="cls-14" x="376.68" y="122.45" width="70.4" height="3.56"/><rect class="cls-14" x="376.68" y="134.04" width="102.3" height="4.28"/><rect class="cls-14" x="428.72" y="146.34" width="50.26" height="4.28"/><rect class="cls-14" x="376.68" y="146.34" width="47.58" height="4.28"/><rect class="cls-14" x="376.68" y="158.63" width="65.41" height="3.68"/><rect class="cls-14" x="452.3" y="122.45" width="26.67" height="3.56"/><rect class="cls-15" x="79.54" y="24.44" width="91" height="65.96" rx="3.62"/><rect class="cls-16" x="79.54" y="106.12" width="91" height="65.96" rx="3.62"/><rect class="cls-17" x="79.54" y="186.37" width="91" height="65.96" rx="3.62"/><path class="cls-18" d="M148.38,125.42v27.35a1.85,1.85,0,0,1-1.85,1.85h-42.9a1.84,1.84,0,0,1-1.84-1.84h0V125.42a1.82,1.82,0,0,1,.06-.46,1.84,1.84,0,0,1,1.78-1.38h42.9a1.86,1.86,0,0,1,1.7,1.13A1.78,1.78,0,0,1,148.38,125.42Z"/><path class="cls-16" d="M148.23,124.71l-20.61,17.66a3.91,3.91,0,0,1-5.1,0L101.85,125a1.84,1.84,0,0,1,1.78-1.38h42.9A1.84,1.84,0,0,1,148.23,124.71Z"/><circle class="cls-19" cx="125.04" cy="58.9" r="19.42"/><circle class="cls-14" cx="125.04" cy="52.44" r="5.59"/><path class="cls-14" d="M121.58,60.17h6.92a5.23,5.23,0,0,1,5.23,5.23v4a1.59,1.59,0,0,1-1.58,1.6H117.94a1.59,1.59,0,0,1-1.59-1.59v-4a5.23,5.23,0,0,1,5.22-5.24Z"/><circle class="cls-17" cx="125.04" cy="219.35" r="19.54"/><path class="cls-13" d="M128.77,215a10.29,10.29,0,0,1-2.63-2.06,2.64,2.64,0,0,1-.4-3.11,15.45,15.45,0,0,1,2.71-3.48,2.65,2.65,0,0,1,3.48-.19c1.69,1.31,4,3.57,4.42,6.1.88,6-3,13.52-10.25,18.4-4.49,3-8.54,2.93-11.19,1.57a2.63,2.63,0,0,1-1-3.59l0,0a20.09,20.09,0,0,1,2.24-3.34,2.66,2.66,0,0,1,3.44-.54,12.77,12.77,0,0,1,1.45,1.09,2.66,2.66,0,0,0,3.4.1c2.29-1.79,5.79-5.11,5.78-8.65A2.58,2.58,0,0,0,128.77,215Z"/><line class="cls-15" x1="189.88" y1="24.44" x2="189.88" y2="251.42"/><circle class="cls-20" cx="189.88" cy="58.75" r="5.91"/><path class="cls-21" d="M258.56,281.77s-2.81,9-7,19.05c-4.57,10.87-10.77,22.89-16.8,25.76-11.58,5.53-23-7.84-32.43-26s-20.68-56.49-20.68-56.49l16.4-8.38c10.16,22.9,23,43.16,26,53.21A57.38,57.38,0,0,0,227.53,277c.4-2,.78-4,1.16-6.26l14.67,5.43Z"/><path class="cls-22" d="M251.55,300.82c-6.24-1.49-15-5.46-20.9-11.31l6.95,18.77L224,288.9a57.15,57.15,0,0,0,3.53-11.9l15.83-.83,15.2,5.62S255.75,290.8,251.55,300.82Z"/><path class="cls-21" d="M198.34,236.37l-16.7,7.7-.71-1.62a134.38,134.38,0,0,0-18.54-6.08c-10.93-2.76-17.94-10.66-17.1-12.8.19-.49,1-.39,2,.05h.05c.33.15.69.32,1.07.52-3.46-2.91-5.56-5.5-4.67-6s3.76.91,6.67,2.44c-5.21-3.68-9-8.22-7.17-9.1.78-.38,3.33,1.21,6,2.5l5.53,2.66c-4.51-2.48-8.43-6.34-7.43-7.53,1.18-1.43,6.65,1.66,16,5.82a51,51,0,0,0,6.91,2.42c2.24.63,4.48,1.15,6.57,1.56,1.53.31,3,.56,4.27.76,3.23.52,5.41.72,5.41.72h0a25.44,25.44,0,0,0-4.86-6.52c-2.74-2.38-3.09-7-2.37-7.84s2.49,1.78,8.19,4.75A20.54,20.54,0,0,1,197.33,222C199.35,227.14,198.34,236.37,198.34,236.37Z"/><path class="cls-22" d="M198.34,236.37S194,241.22,189,243c0,0,6.9.9,11.47-2.09Z"/><path class="cls-19" d="M361.82,255.68c-.17,2.22-.3,3.54-.3,3.54L360,296.4l-1.3,31.25H264.76l-3.1-40.1-1.11-7.47a48.73,48.73,0,0,1-35.7-8.11c4.32-14.45,13.74-52.8,24.16-60.52,13-9.62,30.4-12,30.4-12l51.87,1.07s20,2.68,27.15,10C364.28,216.61,362.61,245.52,361.82,255.68Z"/><path class="cls-23" d="M265.9,289.18s25.9,27.21,73.9,17.42L335.52,321l-68.2,10.81Z"/><path class="cls-24" d="M261.66,287.55c-.73.09-1.45.16-2.16.23H259c-14.13,1.26-23.09-1.25-28.52-4.08l-.12-.06a19.55,19.55,0,0,1-7.17-5.84l-.05-.09s.61-2.19,1.68-5.78a48.73,48.73,0,0,0,35.7,8.11Z"/><path class="cls-23" d="M261.66,287.55a74.77,74.77,0,0,1-10.36.54c-.78-8.26,2.16-36.54,6.62-59.88C256.26,255.89,261.66,287.55,261.66,287.55Z"/><path class="cls-23" d="M361.82,255.68c-.17,2.22-.3,3.54-.3,3.54L360,294.61a140.24,140.24,0,0,1-23,.51c-8.62-33.05,4.67-70.36,4.67-70.36S352,241.75,361.82,255.68Z"/><path class="cls-24" d="M322.32,192.93s7.24,1.41,9,7.59c0,0-6,18.24-23.28,27.69,0,0-2.91-9-9.21-12.84,0,0-4.51-.53-11.76,11.59a32,32,0,0,1-7.62-27.51s5.6-6.51,13.26-6.52S322.32,192.93,322.32,192.93Z"/><path class="cls-21" d="M323.15,198.26s-8.56,13-23.53,13.19a20.91,20.91,0,0,1-12.59-12s3.92-5,2.26-16l33.34-22s-.2,1.64-.42,4.35C321.64,172.78,320.92,187.09,323.15,198.26Z"/><path class="cls-22" d="M322.63,161.36q-.11,2.19-.42,4.35c-1.42,10-7.7,33.74-35.18,33.74,0,0,3.92-5,2.26-16Z"/><rect class="cls-25" x="274.41" y="142.21" width="2.81" height="24.72"/><ellipse class="cls-13" cx="274.41" cy="154.57" rx="9.65" ry="12.36"/><ellipse class="cls-19" cx="277.25" cy="154.57" rx="9.65" ry="12.36"/><path class="cls-24" d="M268.25,148.66s-3.08-11.2.11-26.36l12.1,4.26Z"/><path class="cls-26" d="M327.89,148.72s5.48-16.28,3.57-23.52a10.49,10.49,0,0,0-8.83-7.85s3.25-8.67-14.33-15.8-39.45,13.19-44.2,11.17c0,0,.88,8,7.45,6.39a18.06,18.06,0,0,0-6.15,8.34c-2,5.59-5.22,6.18-5.22,6.18s5.82,4.28,9.26-.83c0,0-2.49,3.33-.71,10.51a17.12,17.12,0,0,0,8.08,10.4l45,4.4Z"/><path class="cls-21" d="M330.59,154.47a8.68,8.68,0,0,1-8,6.89s.81,4-5.72,13.2-21.39,19.9-33.74,7.61c-9.89-9.84-11.15-41.88-11.15-41.88l1.41-6,.08-.35c2.32,8,20.23,6,20.23,6-7-1.07-10.87-7.13-10.87-7.13,8.91,9.27,25.4,4.1,25.4,4.1a12.65,12.65,0,0,0,2.78,6.65,12.45,12.45,0,0,0,6.22,4l4.06,8.2.93-7.22C326.41,144.53,332,147.81,330.59,154.47Z"/><rect class="cls-27" x="324.09" y="142.21" width="2.81" height="24.72"/><path class="cls-15" d="M325.49,160.67l-4.42,13.42a12.35,12.35,0,0,1-11.74,8.49H297"/><path class="cls-24" d="M298.68,184.54h-5.54a2.05,2.05,0,0,1-2.07-2v0h0a2.06,2.06,0,0,1,2.06-2.06h5.55a2.08,2.08,0,0,1,2.07,2.05h0a2.06,2.06,0,0,1-2.05,2.07Z"/><path class="cls-19" d="M333.73,154.77c-.17,6.83-4.62,12.25-10,12.12s-9.51-5.77-9.34-12.6S319,142,324.34,142.17,333.9,148,333.73,154.77Z"/><path class="cls-24" d="M327.89,143.2s.87-18.95-11.16-28.85-28.87-9.17-36.89-4.45c-10.41,6.13-11.59,12.83-11.59,12.83s9.81-13.81,26.38-11.32,26.21,13,26.82,34.13Z"/><ellipse class="cls-13" cx="326.91" cy="154.6" rx="12.36" ry="9.65" transform="translate(164.26 477.58) rotate(-88.58)"/><path class="cls-19" d="M335.7,154.82c-.13,5.29-3.59,9.5-7.72,9.4a5.89,5.89,0,0,1-1.91-.37c-3.17-1.17-5.44-5-5.32-9.4s2.41-7.89,5.49-9a6,6,0,0,1,2.22-.37C332.59,145.16,335.83,149.53,335.7,154.82Z"/><path class="cls-24" d="M331.56,154.82c-.11,4.31-2.41,7.89-5.49,9-3.17-1.17-5.44-5-5.32-9.4s2.41-7.89,5.49-9C329.41,146.59,331.67,150.38,331.56,154.82Z"/><path class="cls-21" d="M384.1,317c-.71,7-4.1,10.69-13.37,10.69H297.84v-10.2l53.64-15-1.2-7.27L348,281.14l29.54-10.42s1.69,9.07,3.37,19.27C382.67,301,384.47,313.35,384.1,317Z"/><path class="cls-22" d="M380.87,290c-9.52,3.76-21.54,5-30.59,5.26L348,281.14l29.54-10.42S379.19,279.79,380.87,290Z"/><path class="cls-19" d="M384.1,277c-20,14.49-40.16,9.74-40.16,9.74-.92-2.41-1.72-4.87-2.41-7.36-9.79-35.42,3.14-77.57,16.9-68.85,11.31,7.16,20.37,42.45,24,58.5C383.51,273.94,384.1,277,384.1,277Z"/><path class="cls-24" d="M384.1,277c-20,14.49-40.16,9.74-40.16,9.74-.92-2.41-1.72-4.87-2.41-7.36,0,0,24.59,2.45,40.88-10.35C383.51,273.94,384.1,277,384.1,277Z"/><path class="cls-21" d="M297.84,317.49l-17.93-4.79a6.36,6.36,0,0,0-5.13.86l-17.17,11.51a1.41,1.41,0,0,0,.78,2.58H271.6a5.18,5.18,0,0,0,1.46-.19l5.65-1.47s4.16,2.49,19.13,1.66Z"/><polygon class="cls-28" points="303.94 327.65 267.23 327.65 267.58 321.24 300.28 323.82 303.94 327.65"/><path class="cls-24" d="M277.15,327.65H171.31L157.12,255.8a2.81,2.81,0,0,1,2.22-3.3,2.48,2.48,0,0,1,.54-.06H259a4,4,0,0,1,3.92,3.23Z"/><path class="cls-26" d="M272.34,327.65h-101a1.14,1.14,0,0,0-.05-.27L157.12,255.8a2.81,2.81,0,0,1,2.22-3.3,2.48,2.48,0,0,1,.54-.06h94.31a4,4,0,0,1,3.93,3.23Z"/><path class="cls-19" d="M174.26,324.11l-12.91-65.33a2.57,2.57,0,0,1,2-3,2.73,2.73,0,0,1,.5,0H250C164.28,257.59,173.49,319.66,174.26,324.11Z"/><path class="cls-19" d="M217.64,292.21a5,5,0,0,1-5,6.09,7.52,7.52,0,0,1-7.14-6.09,5,5,0,0,1,3.8-6,4.8,4.8,0,0,1,1.2-.12A7.55,7.55,0,0,1,217.64,292.21Z"/><rect class="cls-29" x="10.82" y="327.65" width="564.93" height="13.19"/><rect class="cls-30" x="10.82" y="327.65" width="564.93" height="4.1"/></g></g></g></g></svg>