<svg xmlns="http://www.w3.org/2000/svg" viewBox="0 0 200 195.37"><defs><style>.cls-1{opacity:0.3;}.cls-2,.cls-3{fill:#037cf9;}.cls-3,.cls-4{fill-rule:evenodd;}.cls-4{fill:#faffff;}</style></defs><g id="Layer_2" data-name="Layer 2"><g id="Layer_1-2" data-name="Layer 1"><g class="cls-1"><path class="cls-2" d="M4.84,131.8H1.55a1.55,1.55,0,1,1,0-3.09H4.84a1.55,1.55,0,1,1,0,3.09Z"/><path class="cls-2" d="M17.62,131.8H13.91a1.55,1.55,0,1,1,0-3.09h3.71a1.55,1.55,0,0,1,0,3.09Z"/><path class="cls-2" d="M9.48,139.94a1.54,1.54,0,0,1-1.55-1.54v-3.3a1.55,1.55,0,1,1,3.09,0v3.3A1.54,1.54,0,0,1,9.48,139.94Z"/><path class="cls-2" d="M9.48,127.58A1.54,1.54,0,0,1,7.93,126v-3.71a1.55,1.55,0,0,1,3.09,0V126A1.54,1.54,0,0,1,9.48,127.58Z"/><path class="cls-2" d="M183.48,27.55h-3.3a1.55,1.55,0,1,1,0-3.09h3.3a1.55,1.55,0,0,1,0,3.09Z"/><path class="cls-2" d="M196.25,27.55h-3.71a1.55,1.55,0,0,1,0-3.09h3.71a1.55,1.55,0,1,1,0,3.09Z"/><path class="cls-2" d="M188.11,35.69a1.55,1.55,0,0,1-1.54-1.55v-3.3a1.55,1.55,0,0,1,3.09,0v3.3A1.55,1.55,0,0,1,188.11,35.69Z"/><path class="cls-2" d="M188.11,23.32a1.54,1.54,0,0,1-1.54-1.54V18.07a1.55,1.55,0,1,1,3.09,0v3.71A1.54,1.54,0,0,1,188.11,23.32Z"/><path class="cls-2" d="M27.72,167.44a5,5,0,1,1,5-5A5,5,0,0,1,27.72,167.44Zm0-6.92a1.92,1.92,0,1,0,1.92,1.92A1.92,1.92,0,0,0,27.72,160.52Z"/><path class="cls-2" d="M192.54,70.53a5,5,0,1,1,5-5A5,5,0,0,1,192.54,70.53Zm0-6.92a1.92,1.92,0,1,0,1.92,1.91A1.92,1.92,0,0,0,192.54,63.61Z"/></g><g class="cls-1"><path class="cls-2" d="M158.86,21.47a1.53,1.53,0,0,1-.91-.3,94.85,94.85,0,0,0-9.27-6,1.54,1.54,0,1,1,1.52-2.69,101.05,101.05,0,0,1,9.57,6.15,1.55,1.55,0,0,1-.91,2.8Z"/><path class="cls-2" d="M73.72,7.41a1.54,1.54,0,0,1-.45-3,98.41,98.41,0,0,1,52-1.69,1.55,1.55,0,1,1-.72,3A95.28,95.28,0,0,0,74.18,7.34,1.43,1.43,0,0,1,73.72,7.41Z"/><path class="cls-2" d="M36.33,29.31a1.55,1.55,0,0,1-1.07-2.67c1.53-1.44,3.13-2.85,4.75-4.19a1.54,1.54,0,0,1,2,2.38c-1.57,1.3-3.11,2.66-4.59,4.06A1.55,1.55,0,0,1,36.33,29.31Z"/><path class="cls-2" d="M6.94,111.46a1.55,1.55,0,0,1-1.53-1.35,99.43,99.43,0,0,1,0-24.78A96.81,96.81,0,0,1,17.28,49.57,1.54,1.54,0,0,1,20,51.09,93.79,93.79,0,0,0,8.47,85.71a95.5,95.5,0,0,0-.75,12,94.55,94.55,0,0,0,.76,12,1.56,1.56,0,0,1-1.34,1.73Z"/><path class="cls-2" d="M54.3,182.54a1.58,1.58,0,0,1-.78-.21,98.61,98.61,0,0,1-10.82-7.25,1.55,1.55,0,0,1,1.89-2.45,95.33,95.33,0,0,0,10.48,7,1.54,1.54,0,0,1-.77,2.88Z"/><path class="cls-2" d="M102.31,195.37A98,98,0,0,1,76.64,192a1.54,1.54,0,1,1,.81-3,95.37,95.37,0,0,0,45.1,1.13,1.55,1.55,0,0,1,.66,3A98.07,98.07,0,0,1,102.31,195.37Z"/><path class="cls-2" d="M149.44,183.05a1.54,1.54,0,0,1-.76-2.89c2.31-1.31,4.6-2.72,6.79-4.22a1.55,1.55,0,1,1,1.74,2.56c-2.27,1.54-4.62,3-7,4.35A1.6,1.6,0,0,1,149.44,183.05Z"/><path class="cls-2" d="M173.64,163.69a1.5,1.5,0,0,1-1-.4,1.55,1.55,0,0,1-.11-2.18A94.64,94.64,0,0,0,194.25,120a1.55,1.55,0,0,1,3,.73,97.72,97.72,0,0,1-22.47,42.42A1.52,1.52,0,0,1,173.64,163.69Z"/><path class="cls-2" d="M198.45,99.23a1.54,1.54,0,0,1-1.54-1.54c0-2.85-.13-5.72-.38-8.54-.21-2.31-.5-4.63-.87-6.91a1.54,1.54,0,0,1,3-.5c.39,2.35.69,4.75.91,7.13.26,2.91.39,5.88.39,8.82A1.54,1.54,0,0,1,198.45,99.23Z"/></g><g id="Layer_2-2" data-name="Layer 2"><g id="Layer_1-2-2" data-name="Layer 1-2"><path class="cls-3" d="M100.53,150A52.31,52.31,0,1,1,99.27,45.39h1.26V86.44a11.24,11.24,0,0,0,0,22.48V150Z"/><path class="cls-3" d="M105.54,22.7a75.12,75.12,0,0,1-.05,150c-7.84.51-8-10.52,0-11.13a64.05,64.05,0,0,0,.06-127.71C97.43,33.22,97.63,22.19,105.54,22.7Z"/><path class="cls-3" d="M122.87,59h0a4,4,0,0,1,1.46,5.48L104.07,99.52A4,4,0,0,1,98.62,101h0a4,4,0,0,1-1.47-5.44l20.26-35.09A4,4,0,0,1,122.87,59Z"/><path class="cls-3" d="M124.33,121.52h0a4,4,0,0,1-5.66,0l-17.18-17.19a4,4,0,0,1,0-5.65h0a4,4,0,0,1,5.65,0l17.19,17.19A4,4,0,0,1,124.33,121.52Z"/><path class="cls-4" d="M100.53,85.84A11.86,11.86,0,1,1,88.65,97.7a11.86,11.86,0,0,1,11.88-11.86Z"/><path class="cls-3" d="M100.53,89.79A7.91,7.91,0,1,1,92.6,97.7a7.91,7.91,0,0,1,7.93-7.91Z"/><path class="cls-3" d="M23.89,97.7h0a3.59,3.59,0,0,1,3.59-3.58H39.62a3.59,3.59,0,0,1,3.57,3.58h0a3.57,3.57,0,0,1-3.57,3.57H27.48A3.59,3.59,0,0,1,23.89,97.7Z"/><path class="cls-3" d="M34.16,59.39h0a3.58,3.58,0,0,1,4.9-1.31h0l10.52,6.07A3.59,3.59,0,0,1,50.91,69h0A3.59,3.59,0,0,1,46,70.35L35.49,64.28a3.59,3.59,0,0,1-1.31-4.89Z"/><path class="cls-3" d="M62.2,31.35h0a3.59,3.59,0,0,1,4.89,1.31l6.07,10.53a3.59,3.59,0,0,1-1.31,4.89h0A3.59,3.59,0,0,1,67,46.76L60.89,36.24A3.59,3.59,0,0,1,62.2,31.35Z"/><path class="cls-3" d="M34.16,136h0a3.58,3.58,0,0,1,1.31-4.88L46,125.05a3.58,3.58,0,0,1,4.88,1.3h0a3.59,3.59,0,0,1-1.31,4.86l-10.52,6.07A3.6,3.6,0,0,1,34.16,136Z"/><path class="cls-3" d="M62.2,164.05h0a3.6,3.6,0,0,1-1.31-4.9L67,148.63a3.59,3.59,0,0,1,4.89-1.3h0a3.58,3.58,0,0,1,1.31,4.88l-6.07,10.53A3.6,3.6,0,0,1,62.2,164.05Z"/></g></g></g></g></svg>