<svg xmlns="http://www.w3.org/2000/svg" viewBox="0 0 124.01 122"><defs><style>.cls-1{fill:#037cf9;}.cls-1,.cls-2{fill-rule:evenodd;}.cls-2{fill:#faffff;}</style></defs><g id="Layer_2" data-name="Layer 2"><g id="Layer_1-2" data-name="Layer 1"><g id="Layer_2-2" data-name="Layer 2-2"><g id="Layer_1-2-2" data-name="Layer 1-2-2"><path class="cls-1" d="M62.32,103.53a42.54,42.54,0,0,1-1.6-85.06h1.6V51.84a9.14,9.14,0,0,0,0,18.28Z"/><path class="cls-1" d="M66.39,0a61.09,61.09,0,0,1,0,122c-6.37.41-6.5-8.56,0-9A52.08,52.08,0,0,0,66.4,9.09C59.8,8.57,60-.4,66.39,0Z"/><path class="cls-1" d="M80.49,29.53h0A3.25,3.25,0,0,1,81.68,34v0L65.2,62.48a3.25,3.25,0,0,1-4.43,1.2h0a3.25,3.25,0,0,1-1.2-4.42L76.05,30.73A3.25,3.25,0,0,1,80.49,29.53Z"/><path class="cls-1" d="M81.67,80.37h0a3.25,3.25,0,0,1-4.6,0h0l-14-14a3.24,3.24,0,0,1,0-4.59h0a3.24,3.24,0,0,1,4.59,0l14,14A3.25,3.25,0,0,1,81.67,80.37Z"/><path class="cls-2" d="M62.32,51.36A9.64,9.64,0,1,1,52.66,61a9.64,9.64,0,0,1,9.66-9.64Z"/><path class="cls-1" d="M62.32,54.57A6.43,6.43,0,1,1,55.87,61a6.44,6.44,0,0,1,6.45-6.43Z"/><path class="cls-1" d="M0,61H0a2.91,2.91,0,0,1,2.92-2.91h9.87A2.92,2.92,0,0,1,15.69,61h0a2.9,2.9,0,0,1-2.9,2.9H2.92A2.91,2.91,0,0,1,0,61Z"/><path class="cls-1" d="M8.35,29.85h0a2.91,2.91,0,0,1,4-1.07h0l8.55,4.94A2.91,2.91,0,0,1,22,37.66h0a2.92,2.92,0,0,1-4,1.11h0L9.43,33.82a2.91,2.91,0,0,1-1.06-4Z"/><path class="cls-1" d="M31.15,7.05h0a2.92,2.92,0,0,1,4,1.06l4.93,8.57a2.91,2.91,0,0,1-1.06,4h0a2.92,2.92,0,0,1-4-1.07l-5-8.56A2.91,2.91,0,0,1,31.15,7.05Z"/><path class="cls-1" d="M8.35,92.14h0a2.9,2.9,0,0,1,1.07-4L18,83.24a2.91,2.91,0,0,1,4,1.06h0a2.92,2.92,0,0,1-1.07,4l-8.55,4.93A2.93,2.93,0,0,1,8.35,92.14Z"/><path class="cls-1" d="M31.15,115h0a2.92,2.92,0,0,1-1.06-4l5-8.56a2.93,2.93,0,0,1,4-1h0a2.91,2.91,0,0,1,1.07,4l-4.94,8.57a2.93,2.93,0,0,1-4,1.07Z"/></g></g></g></g></svg>