<svg xmlns="http://www.w3.org/2000/svg" viewBox="0 0 122.7 123.84"><defs><style>.cls-1{fill:#fcfcfc;}.cls-2{fill:#037cf9;}.cls-3{fill:#fefefe;}</style></defs><g id="Layer_2" data-name="Layer 2"><g id="Layer_1-2" data-name="Layer 1"><path class="cls-1" d="M25.48,46.65a2.06,2.06,0,0,1-2.11-2,2,2,0,0,1,2-2.13,2.09,2.09,0,0,1,2.14,2A2.12,2.12,0,0,1,25.48,46.65Z"/><path class="cls-2" d="M93.94,31.16c1.69-2.87,3.28-5.81,5.1-8.59a9.61,9.61,0,0,1,17.4,2.65,9.49,9.49,0,0,1-1.2,7.75C110.08,41.73,105,50.51,99.78,59.26,97.92,62.42,96,65.54,94,68.66A2.33,2.33,0,0,0,93.71,70c0,5.31,0,10.61,0,15.92,0,.91.24,1.13,1.14,1.13,6.63,0,13.27,0,19.9,0,3.28,0,5.77,1.29,7.17,4.23a7,7,0,0,1-1.15,8.12c-.41.47-.33.7,0,1.14,2.6,3.24,2.57,6.74-.09,9.89-.35.43-.35.61,0,1a7.07,7.07,0,0,1,1.21,8.22c-1.43,2.94-4,4.21-7.21,4.21-8.47,0-17,.07-25.42,0-24-.28-48-.1-72-.27C7.25,123.45,0,116.23,0,106.24Q0,65.47,0,24.69c0-10,7.22-17.25,17.2-17.27,1.16,0,2.32-.08,3.47,0s1.25-.3,1.24-1.27c0-3.29,1.48-5.39,4.24-6A6.56,6.56,0,0,1,27.69,0H66c3.59,0,5.92,2.25,5.84,5.84,0,1.39.41,1.65,1.69,1.61,2.86-.07,5.72-.18,8.52.72A16.76,16.76,0,0,1,93.7,23.85c0,2.42,0,4.85,0,7.27Z"/><path class="cls-3" d="M89.85,73.21c0,4.43,0,8.78,0,13.13,0,1-.71.66-1.17.67a7.43,7.43,0,0,0-7.43,5.54c-.41,1.51-.29,2.85.49,5.28a2.52,2.52,0,0,1-1.36.12c-7.49,0-15,0-22.47,0-4.81,0-8.13,3.42-7.87,8a7,7,0,0,0,1.88,4.38c.32.35.52.55.09,1a7.11,7.11,0,0,0-1.56,7.5c.43,1.26-.58.75-1,.75q-14.64,0-29.28,0a28,28,0,0,1-6.14-.3c-6.15-1.36-10.17-6.48-10.18-13q0-16.75,0-33.52,0-24,0-48c0-6.52,3.8-11.61,9.76-13.11,2.53-.63,5.11-.27,7.67-.37.57,0,.6.28.59.71,0,.82,0,1.63,0,2.44a5.39,5.39,0,0,0,5.7,5.34q11.76,0,23.51,0c4.92,0,9.84,0,14.76,0,3.69,0,5.92-2.23,6-5.9,0-2.58,0-2.57,2.56-2.59s5.24-.1,7.68,1.05c4.81,2.25,7.49,6,7.71,11.33.2,4.62,0,9.25.07,13.87a2.87,2.87,0,0,1-.55,1.54c-3.42,5.86-6.93,11.67-10.21,17.62a3.74,3.74,0,0,1-4,2.3c-9.54-.17-19.09,0-28.64,0-1.07,0-2.14,0-3.21,0-1.71,0-2.59.71-2.55,2s.88,1.88,2.54,1.88H70.74c1.49,0,3,0,4.49,0,.9,0,1.34,0,1.07,1.2-.92,4.09-.58,8.27-.56,12.41a3,3,0,0,0,4.65,2.34,102.75,102.75,0,0,0,9-5.39A2.4,2.4,0,0,1,89.85,73.21Z"/><path class="cls-3" d="M108,37.71c-.18.32-.29.55-.42.77q-7,11.88-13.92,23.77c-.38.66-.65.64-1.25.28-2.78-1.67-5.57-3.32-8.4-4.92-.65-.36-.68-.6-.32-1.22q7-11.87,13.92-23.77c.4-.69.66-.76,1.34-.35,2.74,1.66,5.52,3.26,8.27,4.88A8.54,8.54,0,0,1,108,37.71Z"/><path class="cls-3" d="M101.87,108.94c-4.45,0-8.9,0-13.35,0a3.54,3.54,0,0,1-1-6.94,4.89,4.89,0,0,1,1.15-.14H115a3.6,3.6,0,0,1,3.33,1.8,3.51,3.51,0,0,1-3.09,5.29C110.78,109,106.33,108.94,101.87,108.94Z"/><path class="cls-3" d="M81.89,112.81a7.92,7.92,0,0,0-.09,6.93c-.12.37-.43.21-.64.21H57.81a3.6,3.6,0,0,1-3.91-3.52,3.55,3.55,0,0,1,3.81-3.61C65.71,112.79,73.71,112.81,81.89,112.81Z"/><path class="cls-3" d="M90.69,66.38a15.36,15.36,0,0,1-4.39,4.51.85.85,0,0,1-1.3-.13,10.09,10.09,0,0,0-4.58-2.7c-.51-.14-.82-.31-.74-1a23.38,23.38,0,0,1,1.43-5.82c.18-.46.3-.74.87-.38C84.86,62.75,87.75,64.55,90.69,66.38Z"/><path class="cls-2" d="M21.78,104.29c-1.46,0-2.91,0-4.37,0A5.34,5.34,0,0,1,12,99.21c-.14-3.2-.14-6.42,0-9.62a5.31,5.31,0,0,1,5.33-5q4.49-.09,9,0a5.33,5.33,0,0,1,5.31,4.94,70.82,70.82,0,0,1,0,9.88,5.38,5.38,0,0,1-5.45,4.93C24.69,104.31,23.24,104.29,21.78,104.29Z"/><path class="cls-2" d="M21.78,75.29c-1.54,0-3.08,0-4.62,0A5.24,5.24,0,0,1,12,70.38c-.15-3.25-.15-6.51,0-9.76a5.25,5.25,0,0,1,5.33-5c3-.11,6-.12,9,0a5.39,5.39,0,0,1,5.38,5.57c.08,2.86.09,5.73,0,8.6A5.43,5.43,0,0,1,26,75.3c-1.41,0-2.83,0-4.24,0Z"/><path class="cls-2" d="M21.86,26.65c1.46,0,2.91,0,4.37,0a5.26,5.26,0,0,1,5.37,5,96.08,96.08,0,0,1,0,9.75,5.12,5.12,0,0,1-4.88,4.91,70.68,70.68,0,0,1-9.87,0A5.15,5.15,0,0,1,12,41.23c-.12-3.16-.13-6.33,0-9.49a5.28,5.28,0,0,1,5.4-5.09C18.87,26.62,20.37,26.65,21.86,26.65Z"/><path class="cls-2" d="M59.77,30H76.59a2,2,0,0,1,1.93,1,1.82,1.82,0,0,1-.1,1.94,2.29,2.29,0,0,1-2.14.91h-18c-5.09,0-10.19,0-15.28,0a2.05,2.05,0,0,1-2.23-1.35,1.89,1.89,0,0,1,2-2.51c3.46,0,6.93,0,10.4,0Z"/><path class="cls-2" d="M59.69,91.75c-5.57,0-11.13,0-16.69,0a2,2,0,0,1-2.21-1.35A1.87,1.87,0,0,1,42.11,88a4.85,4.85,0,0,1,1.27-.11H76.5c1.37,0,2.25.82,2.26,2s-.87,1.91-2.26,1.91C70.9,91.76,65.29,91.75,59.69,91.75Z"/><path class="cls-2" d="M51.84,42.4H43c-1.44,0-2.25-.7-2.28-1.87s.82-2,2.29-2H60.84c1.49,0,2.34.72,2.34,1.94s-.83,1.91-2.35,1.92Z"/><path class="cls-2" d="M51.93,67.53c3,0,6,0,9,0,1.44,0,2.24.67,2.26,1.86s-.81,2-2.3,2q-8.93,0-17.84,0c-1.48,0-2.34-.77-2.33-2s.82-1.89,2.36-1.89C46,67.52,49,67.53,51.93,67.53Z"/><path class="cls-2" d="M46.07,100.33c-1.11,0-2.23,0-3.34,0a1.89,1.89,0,0,1-2-2,1.84,1.84,0,0,1,2-1.83q3.39-.06,6.8,0a1.84,1.84,0,0,1,2.08,1.92c0,1.16-.76,1.87-2.1,1.92C48.38,100.36,47.22,100.33,46.07,100.33Z"/><path class="cls-3" d="M20.91,98.15c-1.59,0-4.4-3.71-3.94-5.11a1.87,1.87,0,0,1,1.45-1.31,1.64,1.64,0,0,1,1.9.73c.68,1.31,1.37.93,2.25.25a22.3,22.3,0,0,1,2.65-1.78,1.89,1.89,0,0,1,2.13,3.12c-1.83,1.33-3.71,2.57-5.58,3.84A1.28,1.28,0,0,1,20.91,98.15Z"/><path class="cls-3" d="M20.83,69.2c-1.46,0-4.3-3.68-3.86-5.09a1.88,1.88,0,0,1,1.54-1.36,1.69,1.69,0,0,1,1.88.81c.61,1.12,1.23.93,2.06.28A29.79,29.79,0,0,1,25,62.1a1.92,1.92,0,1,1,2.2,3.14c-1.73,1.23-3.51,2.4-5.27,3.61A2.3,2.3,0,0,1,20.83,69.2Z"/><path class="cls-3" d="M21,40.28c-1.63,0-4.49-3.76-4-5.14a1.84,1.84,0,0,1,1.44-1.31,1.65,1.65,0,0,1,1.91.7c.68,1.24,1.35,1,2.24.27A20,20,0,0,1,25,33.14a1.92,1.92,0,0,1,2.8.48,1.89,1.89,0,0,1-.63,2.68c-1.74,1.23-3.51,2.41-5.28,3.59A4.56,4.56,0,0,1,21,40.28Z"/></g></g></svg>