<svg xmlns="http://www.w3.org/2000/svg" viewBox="0 0 103.43 126"><defs><style>.cls-1{fill:#037cf9;}</style></defs><g id="Layer_2" data-name="Layer 2"><g id="Layer_1-2" data-name="Layer 1"><path class="cls-1" d="M69,123.34H42.78a45,45,0,0,1-7.69-.66,93,93,0,0,0-12.24-1,1.17,1.17,0,0,1,0-2.33h0a93.87,93.87,0,0,1,12.64,1,43.48,43.48,0,0,0,7.29.62H69a7,7,0,0,0,7-7V84.12a7,7,0,0,0-7-7H50.71a1.15,1.15,0,0,1-1.09-.77,1.19,1.19,0,0,1,.32-1.3C50,75,57.32,68.57,58.63,60.4a78.76,78.76,0,0,0,.9-8.65A5.51,5.51,0,0,0,48.61,50.5c-1,5.94-3.27,13.7-7.86,17a47.84,47.84,0,0,1-4.13,2.61c-2.08,1.2-2.69,1.55-2.94,2.73-1.64,7.43-5.53,12.29-11,13.7A1.17,1.17,0,0,1,22,84.26l.13,0c3.21-.84,7.42-3.59,9.26-11.94.49-2.21,1.9-3,4-4.27a45.93,45.93,0,0,0,4-2.48c3.1-2.18,5.54-7.67,6.91-15.44a7.85,7.85,0,0,1,15.58,1.76A83,83,0,0,1,61,60.77c-1,6.21-4.92,11.31-7.4,14H69a9.32,9.32,0,0,1,9.32,9.32V114a9.34,9.34,0,0,1-9.25,9.39Z"/><path class="cls-1" d="M10.58,126a3.87,3.87,0,0,1-3.76-4L6.37,85.18a3.87,3.87,0,0,1,3.7-4.05h0L19.33,81a3.89,3.89,0,0,1,3.82,4h0l.47,36.87a4.15,4.15,0,0,1-1,2.81,3.67,3.67,0,0,1-2.67,1.25l-9.26.16h-.09Zm8.77-42.69h0l-9.26.16A1.55,1.55,0,0,0,8.7,85.15L9.15,122a1.54,1.54,0,0,0,1.42,1.63h0l9.29-.18a1.37,1.37,0,0,0,1-.46,1.81,1.81,0,0,0,.43-1.22L20.8,84.92a1.55,1.55,0,0,0-1.42-1.61Z"/><path class="cls-1" d="M7.45,88.07H1a1.17,1.17,0,0,1,0-2.33H7.45a1.17,1.17,0,0,1,.26,2.33A1.13,1.13,0,0,1,7.45,88.07Z"/><path class="cls-1" d="M7.45,121.83H1a1.17,1.17,0,0,1,0-2.33H7.45a1.17,1.17,0,0,1,.26,2.33A1.13,1.13,0,0,1,7.45,121.83Z"/><path class="cls-1" d="M37.64,111.89a1.17,1.17,0,0,1-.45-2.25l2.33-1a16.36,16.36,0,0,0,10.1-15.14V76a1.17,1.17,0,0,1,1-1.3,1.18,1.18,0,0,1,1.3,1A1.22,1.22,0,0,1,52,76V93.54a18.7,18.7,0,0,1-11.57,17.31l-2.33,1A1,1,0,0,1,37.64,111.89Z"/><path class="cls-1" d="M61.5,123.34a1.35,1.35,0,0,1-.29,0h0a10.51,10.51,0,0,1-7.67-10.1V102a1.17,1.17,0,0,1,2.33,0v11.16a8.17,8.17,0,0,0,6,7.84,1.18,1.18,0,0,1-.31,2.33Z"/><path class="cls-1" d="M91.07,74.14A1.16,1.16,0,0,1,90,73.3,12.29,12.29,0,0,0,85.77,69l-1.24-.77c-2.49-1.5-5.9-3.54-5.87-7.86,0-4.16,2.21-7.27,5.55-7.95a6.41,6.41,0,0,1,4.49.78A7.66,7.66,0,0,1,91,55.4a6.9,6.9,0,0,1,6.89-2.85c3.32.66,5.48,3.73,5.51,7.81s-3.11,6.08-5.58,7.63c-.53.33-1,.64-1.49,1a13.93,13.93,0,0,0-4.18,4.3,1.18,1.18,0,0,1-1.12.88ZM85.46,54.69a4.13,4.13,0,0,0-.78.08c-2.2.45-3.64,2.67-3.66,5.67s2.39,4.42,4.72,5.83l1.31.78a18.46,18.46,0,0,1,4,3.65A20.58,20.58,0,0,1,95,67c.51-.35,1.07-.7,1.61-1,2.33-1.43,4.49-2.78,4.46-5.62,0-3.54-1.88-5.18-3.62-5.53-2.49-.5-4.48,1.33-5.35,3.37a1.17,1.17,0,0,1-1.08.71h0a1.19,1.19,0,0,1-1.07-.7c-1-2.21-2.68-3.53-4.53-3.53Z"/><path class="cls-1" d="M22.43,33.55A15.83,15.83,0,1,1,38.25,17.71v0A15.85,15.85,0,0,1,22.43,33.55Zm0-29.3A13.48,13.48,0,1,0,35.9,17.74h0A13.49,13.49,0,0,0,22.43,4.25Z"/><path class="cls-1" d="M22.43,27.17a5.31,5.31,0,0,1-5.3-5.3v-1.1a1.17,1.17,0,0,1,2.33,0v1.1a2.95,2.95,0,1,0,5.89.3,1.5,1.5,0,0,0,0-.3v-1.1a1.17,1.17,0,0,1,2.33-.26,1.13,1.13,0,0,1,0,.26v1.1A5.31,5.31,0,0,1,22.43,27.17Z"/><circle class="cls-1" cx="16.92" cy="14.72" r="1.83"/><circle class="cls-1" cx="27.92" cy="14.72" r="1.83"/><path class="cls-1" d="M73.82,25.72A12.86,12.86,0,1,1,86.68,12.85v0A12.87,12.87,0,0,1,73.82,25.72Zm0-23.37A10.52,10.52,0,1,0,84.33,12.88h0A10.52,10.52,0,0,0,73.82,2.35Z"/><path class="cls-1" d="M73.82,21.5a5.28,5.28,0,0,1-5.29-5.28v-1.1A1.18,1.18,0,0,1,69.7,14H78a1.18,1.18,0,0,1,1.17,1.18v1.08a5.29,5.29,0,0,1-5.31,5.28Zm-2.95-5.21a2.95,2.95,0,0,0,5.9,0Z"/><path class="cls-1" d="M70.79,11.55a1.19,1.19,0,0,1-1.18-1.17.68.68,0,0,0-1.35,0,1.18,1.18,0,0,1-1,1.3,1.17,1.17,0,0,1-1.29-1,.61.61,0,0,1,0-.27,3,3,0,0,1,6,0,1.18,1.18,0,0,1-1.18,1.17Z"/><path class="cls-1" d="M80.32,11.55a1.19,1.19,0,0,1-1.18-1.17.68.68,0,1,0-1.35,0,1.17,1.17,0,0,1-2.33,0,3,3,0,1,1,6,0,1.17,1.17,0,0,1-1.17,1.17Z"/></g></g></svg>