<svg xmlns="http://www.w3.org/2000/svg" viewBox="0 0 200 230.03"><defs><style>.cls-1,.cls-2{fill:#037cf9;}.cls-2,.cls-3{opacity:0.3;}</style></defs><g id="Layer_2" data-name="Layer 2"><g id="Layer_1-2" data-name="Layer 1"><path class="cls-1" d="M131.45,192.83H97.67a57.11,57.11,0,0,1-9.91-.84A117.33,117.33,0,0,0,72,190.74a1.51,1.51,0,0,1,0-3h0A118.57,118.57,0,0,1,88.28,189a55.16,55.16,0,0,0,9.39.79h33.78a9,9,0,0,0,9-9V142.34a9,9,0,0,0-9-9H107.88a1.5,1.5,0,0,1-1.41-1,1.52,1.52,0,0,1,.42-1.67c.1-.08,9.5-8.36,11.19-18.88a101.88,101.88,0,0,0,1.16-11.14,7.09,7.09,0,0,0-14.06-1.6c-1.36,7.64-4.22,17.63-10.13,21.82a60,60,0,0,1-5.32,3.36c-2.67,1.54-3.46,2-3.78,3.52-2.11,9.56-7.12,15.82-14.12,17.64a1.51,1.51,0,1,1-.75-2.92c4.13-1.07,9.55-4.61,11.92-15.37.63-2.84,2.45-3.89,5.22-5.49a59.54,59.54,0,0,0,5.08-3.2c4-2.81,7.13-9.87,8.9-19.88a10.11,10.11,0,0,1,20.06,2.27,105.18,105.18,0,0,1-1.2,11.47c-1.28,8-6.33,14.56-9.52,18h19.91a12,12,0,0,1,12,12v38.47A12,12,0,0,1,131.45,192.83Z"/><path class="cls-1" d="M56.21,196.26a5,5,0,0,1-4.85-5.08l-.58-47.48a5,5,0,0,1,4.77-5.22l11.92-.21a5,5,0,0,1,4.92,5.08L73,190.83a5.29,5.29,0,0,1-1.32,3.61,4.66,4.66,0,0,1-3.44,1.61l-11.92.21h-.07Zm0-1.51Zm11.29-53.46h0l-11.92.21a2,2,0,0,0-1.8,2.16l.58,47.48a2,2,0,0,0,1.83,2.1h0L68.15,193a1.74,1.74,0,0,0,1.24-.59,2.34,2.34,0,0,0,.56-1.57l-.58-47.48A2,2,0,0,0,67.54,141.29Z"/><path class="cls-1" d="M52.17,147.42H43.92a1.51,1.51,0,0,1,0-3h8.25a1.51,1.51,0,1,1,0,3Z"/><path class="cls-1" d="M52.17,190.89H43.92a1.51,1.51,0,0,1,0-3h8.25a1.51,1.51,0,1,1,0,3Z"/><path class="cls-1" d="M91.05,178.09a1.51,1.51,0,0,1-.58-2.9l3-1.23a21.05,21.05,0,0,0,13-19.5V131.83a1.51,1.51,0,1,1,3,0v22.63a24.07,24.07,0,0,1-14.89,22.29l-3,1.23A1.49,1.49,0,0,1,91.05,178.09Z"/><path class="cls-1" d="M121.77,192.83a1.5,1.5,0,0,1-.37-.05h0a13.54,13.54,0,0,1-9.88-13V165.39a1.51,1.51,0,0,1,3,0v14.38a10.51,10.51,0,0,0,7.67,10.09,1.51,1.51,0,0,1-.4,3Z"/><path class="cls-1" d="M159.85,129.49a1.51,1.51,0,0,1-1.45-1.09,15.7,15.7,0,0,0-5.38-5.49c-.49-.32-1-.64-1.59-1-3.21-1.93-7.6-4.56-7.56-10.12,0-5.35,2.84-9.36,7.14-10.23a8.21,8.21,0,0,1,5.79,1,10,10,0,0,1,3,2.79,8.9,8.9,0,0,1,8.87-3.67c4.27.86,7.05,4.81,7.09,10.06s-4,7.83-7.18,9.82c-.69.43-1.34.83-1.92,1.24-3.09,2.18-5.2,4.9-5.38,5.54a1.52,1.52,0,0,1-1.44,1.13Zm-7.23-25.05a5.86,5.86,0,0,0-1,.1c-2.84.58-4.69,3.44-4.72,7.3s3.09,5.7,6.09,7.51c.59.35,1.15.68,1.68,1a23.62,23.62,0,0,1,5.2,4.7,26.23,26.23,0,0,1,5.09-4.73c.66-.46,1.38-.9,2.07-1.33,3-1.84,5.78-3.58,5.75-7.24,0-4.56-2.43-6.67-4.67-7.12-3.2-.64-5.76,1.72-6.89,4.34a1.5,1.5,0,0,1-1.38.92h0a1.51,1.51,0,0,1-1.38-.91C157.2,106.14,155,104.44,152.62,104.44Z"/><path class="cls-1" d="M18.67,123.06a18.68,18.68,0,1,1,18.68-18.68A18.7,18.7,0,0,1,18.67,123.06Zm0-34.33a15.66,15.66,0,1,0,15.66,15.65A15.67,15.67,0,0,0,18.67,88.73Z"/><ellipse class="cls-1" cx="18.67" cy="109.78" rx="5.38" ry="6.42"/><circle class="cls-1" cx="11.56" cy="100.44" r="2.35"/><circle class="cls-1" cx="25.72" cy="100.44" r="2.35"/><path class="cls-1" d="M71.46,77.22A20.38,20.38,0,1,1,91.83,56.85,20.4,20.4,0,0,1,71.46,77.22Zm0-37.73A17.36,17.36,0,1,0,88.81,56.85,17.38,17.38,0,0,0,71.46,39.49Z"/><path class="cls-1" d="M71.46,69a6.83,6.83,0,0,1-6.82-6.82V60.77a1.51,1.51,0,0,1,3,0v1.41a3.8,3.8,0,1,0,7.59,0V60.77a1.51,1.51,0,1,1,3,0v1.41A6.83,6.83,0,0,1,71.46,69Z"/><circle class="cls-1" cx="64.37" cy="52.98" r="2.35"/><circle class="cls-1" cx="78.54" cy="52.98" r="2.35"/><path class="cls-1" d="M137.64,67.14a16.56,16.56,0,1,1,16.55-16.55A16.57,16.57,0,0,1,137.64,67.14Zm0-30.09a13.54,13.54,0,1,0,13.53,13.54A13.55,13.55,0,0,0,137.64,37.05Z"/><path class="cls-2" d="M66.15,95.77a1.46,1.46,0,0,1-.75-.2L38.65,80.43a1.5,1.5,0,1,1,1.48-2.62L66.89,93a1.5,1.5,0,0,1,.57,2A1.52,1.52,0,0,1,66.15,95.77Z"/><path class="cls-2" d="M30.64,75.68a1.52,1.52,0,0,1-.74-.2l-15.74-8.9A1.51,1.51,0,1,1,15.65,64l15.73,8.9A1.51,1.51,0,0,1,32,74.91,1.49,1.49,0,0,1,30.64,75.68Z"/><path class="cls-2" d="M7.59,62.62a1.51,1.51,0,0,1-.74-.19L3.61,60.6A1.51,1.51,0,0,1,5.1,58L8.33,59.8a1.51,1.51,0,0,1-.74,2.82Z"/><path class="cls-2" d="M108.83,61.78a1.5,1.5,0,0,1-1.51-1.5V23.65a1.51,1.51,0,0,1,3,0V60.28A1.51,1.51,0,0,1,108.83,61.78Z"/><path class="cls-2" d="M108.83,12.28a1.51,1.51,0,0,1-1.51-1.51V1.51a1.51,1.51,0,0,1,3,0v9.26A1.52,1.52,0,0,1,108.83,12.28Z"/><path class="cls-2" d="M196.6,51.67a1.52,1.52,0,0,1-1.2-.6,1.5,1.5,0,0,1,.28-2.11l1.9-1.44a1.51,1.51,0,0,1,1.83,2.4l-1.9,1.44A1.47,1.47,0,0,1,196.6,51.67Z"/><path class="cls-2" d="M159.07,80.23a1.51,1.51,0,0,1-.92-2.71l27.94-21.25a1.51,1.51,0,0,1,1.83,2.4L160,79.92A1.49,1.49,0,0,1,159.07,80.23Z"/><path class="cls-2" d="M146.3,90a1.51,1.51,0,0,1-.92-2.71L151,83a1.51,1.51,0,1,1,1.83,2.4l-5.63,4.3A1.56,1.56,0,0,1,146.3,90Z"/><path class="cls-2" d="M9.91,147.42a1.51,1.51,0,0,1-1.44-1.08,80.6,80.6,0,0,1-2-11.34,1.51,1.51,0,1,1,3-.3,79.83,79.83,0,0,0,1.84,10.78,1.5,1.5,0,0,1-1,1.87A1.29,1.29,0,0,1,9.91,147.42Z"/><path class="cls-2" d="M68.68,215.94a1.37,1.37,0,0,1-.52-.1,95.44,95.44,0,0,1-39.6-27.9,1.5,1.5,0,1,1,2.3-1.94,92.59,92.59,0,0,0,38.35,27,1.51,1.51,0,0,1-.53,2.93Z"/><path class="cls-2" d="M136.4,215a1.52,1.52,0,0,1-1.4-.95,1.5,1.5,0,0,1,.84-2,92.15,92.15,0,0,0,41.52-33.36,1.51,1.51,0,1,1,2.49,1.71A95.24,95.24,0,0,1,137,214.9,1.65,1.65,0,0,1,136.4,215Z"/><path class="cls-2" d="M190.7,156.33a1.5,1.5,0,0,1-1.44-2,92.76,92.76,0,0,0,2.93-43.44,1.51,1.51,0,1,1,3-.51,96,96,0,0,1-3,44.86A1.52,1.52,0,0,1,190.7,156.33Z"/><path class="cls-2" d="M186.61,89.24a1.49,1.49,0,0,1-1.37-.88c-.64-1.39-1.32-2.78-2-4.14a1.51,1.51,0,0,1,2.68-1.39c.73,1.4,1.43,2.84,2.08,4.28a1.51,1.51,0,0,1-.74,2A1.58,1.58,0,0,1,186.61,89.24Z"/><path class="cls-2" d="M163.76,32.47A1.51,1.51,0,0,1,162.61,30l8.22-9.77a1.51,1.51,0,0,1,2.31,2l-8.22,9.76A1.54,1.54,0,0,1,163.76,32.47Z"/><path class="cls-2" d="M66.15,23.83A1.51,1.51,0,0,1,64.81,23L59.19,12.18a1.51,1.51,0,1,1,2.68-1.38l5.62,10.83a1.51,1.51,0,0,1-.65,2A1.44,1.44,0,0,1,66.15,23.83Z"/><path class="cls-1" d="M137.64,61.71a6.82,6.82,0,0,1-6.82-6.81V53.49A1.51,1.51,0,0,1,132.33,52H143a1.51,1.51,0,0,1,1.51,1.51V54.9A6.82,6.82,0,0,1,137.64,61.71ZM133.84,55a3.8,3.8,0,0,0,7.6,0Z"/><path class="cls-1" d="M133.73,48.89a1.52,1.52,0,0,1-1.51-1.51.88.88,0,0,0-1.75,0,1.51,1.51,0,1,1-3,0,3.89,3.89,0,0,1,7.78,0A1.51,1.51,0,0,1,133.73,48.89Z"/><path class="cls-1" d="M146,48.89a1.52,1.52,0,0,1-1.51-1.51.87.87,0,1,0-1.74,0,1.51,1.51,0,0,1-3,0,3.89,3.89,0,0,1,7.78,0A1.51,1.51,0,0,1,146,48.89Z"/><g class="cls-3"><path class="cls-1" d="M163.67,158.08h-3.22a1.51,1.51,0,1,1,0-3h3.22a1.51,1.51,0,1,1,0,3Z"/><path class="cls-1" d="M176.15,158.08h-3.63a1.51,1.51,0,1,1,0-3h3.63a1.51,1.51,0,1,1,0,3Z"/><path class="cls-1" d="M168.2,166a1.5,1.5,0,0,1-1.51-1.51V161.3a1.51,1.51,0,0,1,3,0v3.22A1.51,1.51,0,0,1,168.2,166Z"/><path class="cls-1" d="M168.2,154a1.51,1.51,0,0,1-1.51-1.51v-3.62a1.51,1.51,0,0,1,3,0v3.62A1.52,1.52,0,0,1,168.2,154Z"/><path class="cls-1" d="M97.26,222.08H94a1.51,1.51,0,1,1,0-3h3.22a1.51,1.51,0,0,1,0,3Z"/><path class="cls-1" d="M109.73,222.08h-3.62a1.51,1.51,0,1,1,0-3h3.62a1.51,1.51,0,0,1,0,3Z"/><path class="cls-1" d="M101.78,230a1.51,1.51,0,0,1-1.51-1.51V225.3a1.51,1.51,0,1,1,3,0v3.22A1.5,1.5,0,0,1,101.78,230Z"/><path class="cls-1" d="M101.78,218a1.52,1.52,0,0,1-1.51-1.51v-3.63a1.51,1.51,0,0,1,3,0v3.63A1.51,1.51,0,0,1,101.78,218Z"/><path class="cls-1" d="M11.12,165.13H7.9a1.51,1.51,0,0,1,0-3h3.22a1.51,1.51,0,1,1,0,3Z"/><path class="cls-1" d="M23.6,165.13H20a1.51,1.51,0,0,1,0-3H23.6a1.51,1.51,0,1,1,0,3Z"/><path class="cls-1" d="M15.65,173.08a1.51,1.51,0,0,1-1.51-1.51v-3.22a1.51,1.51,0,0,1,3,0v3.22A1.52,1.52,0,0,1,15.65,173.08Z"/><path class="cls-1" d="M15.65,161a1.5,1.5,0,0,1-1.51-1.51v-3.62a1.51,1.51,0,0,1,3,0v3.62A1.51,1.51,0,0,1,15.65,161Z"/><path class="cls-1" d="M184.56,172.16a4.9,4.9,0,1,1,4.89-4.89A4.9,4.9,0,0,1,184.56,172.16Zm0-6.77a1.88,1.88,0,1,0,1.87,1.88A1.88,1.88,0,0,0,184.56,165.39Z"/><path class="cls-1" d="M146,19.77a4.9,4.9,0,1,1,4.9-4.9A4.91,4.91,0,0,1,146,19.77ZM146,13a1.88,1.88,0,1,0,1.88,1.87A1.87,1.87,0,0,0,146,13Z"/><path class="cls-1" d="M29.71,46.26a4.9,4.9,0,1,1,4.89-4.9A4.9,4.9,0,0,1,29.71,46.26Zm0-6.77a1.88,1.88,0,1,0,1.87,1.87A1.87,1.87,0,0,0,29.71,39.49Z"/></g><path class="cls-2" d="M56.51,114.23h-.18L46.26,113a1.51,1.51,0,0,1,.36-3l10.07,1.21a1.51,1.51,0,0,1-.18,3Z"/></g></g></svg>