<svg xmlns="http://www.w3.org/2000/svg" xmlns:xlink="http://www.w3.org/1999/xlink" viewBox="0 0 1903.19 1433.7"><defs><style>.cls-1,.cls-2,.cls-24{fill:none;}.cls-1{clip-rule:evenodd;}.cls-3{fill:#5e4da6;}.cls-19,.cls-4{fill:#403579;}.cls-10,.cls-11,.cls-38,.cls-39,.cls-4,.cls-40,.cls-43,.cls-47,.cls-48,.cls-49,.cls-52,.cls-53,.cls-54,.cls-70,.cls-77,.cls-78,.cls-81,.cls-9,.cls-92{fill-rule:evenodd;}.cls-5{fill:#fda600;}.cls-6{fill:#ffd115;}.cls-7{fill:#fca700;}.cls-8{fill:#df641e;}.cls-17,.cls-9{fill:#d9c7ff;}.cls-10{fill:#9ed8f5;}.cls-11{fill:#ad96ec;}.cls-12{fill:#9978ff;}.cls-13{fill:#9675ff;}.cls-14{fill:#7952ef;}.cls-15{fill:#ad93fb;}.cls-16{fill:#ac91ff;}.cls-18{fill:#754bf1;}.cls-20{fill:#e58927;}.cls-21{fill:#ffef95;}.cls-22{fill:#fbca0d;}.cls-23{fill:#ffd915;}.cls-24{stroke:#fca700;stroke-miterlimit:10;stroke-width:0.22px;}.cls-25{fill:#ec830e;}.cls-26{clip-path:url(#clip-path);}.cls-27{fill:url(#linear-gradient);}.cls-28{clip-path:url(#clip-path-2);}.cls-29{fill:url(#linear-gradient-2);}.cls-30,.cls-39{fill:#f3adb1;}.cls-31{clip-path:url(#clip-path-3);}.cls-32{fill:url(#linear-gradient-3);}.cls-33{clip-path:url(#clip-path-4);}.cls-34{fill:url(#linear-gradient-4);}.cls-35{clip-path:url(#clip-path-5);}.cls-36{fill:url(#linear-gradient-5);}.cls-37,.cls-38{fill:#8eb1df;}.cls-40{fill:#e66769;}.cls-41{clip-path:url(#clip-path-6);}.cls-42{fill:url(#linear-gradient-6);}.cls-43{fill:#dc0482;}.cls-44,.cls-48{fill:#f4b1b1;}.cls-45{clip-path:url(#clip-path-7);}.cls-46{fill:url(#linear-gradient-7);}.cls-47{fill:#a2185e;}.cls-49{fill:#e98385;}.cls-50{clip-path:url(#clip-path-8);}.cls-51{fill:url(#linear-gradient-8);}.cls-52{fill:#031542;}.cls-53{fill:#000446;}.cls-54{fill:#5db9fb;}.cls-55{fill:#f18e00;}.cls-56{clip-path:url(#clip-path-9);}.cls-57{fill:url(#linear-gradient-9);}.cls-58{clip-path:url(#clip-path-10);}.cls-59{fill:url(#linear-gradient-10);}.cls-60{clip-path:url(#clip-path-11);}.cls-61{fill:url(#linear-gradient-11);}.cls-62{clip-path:url(#clip-path-12);}.cls-63{fill:url(#linear-gradient-12);}.cls-64{clip-path:url(#clip-path-13);}.cls-65{fill:url(#linear-gradient-13);}.cls-66{clip-path:url(#clip-path-14);}.cls-67{fill:url(#linear-gradient-14);}.cls-68{clip-path:url(#clip-path-15);}.cls-69{fill:url(#linear-gradient-15);}.cls-70{fill:#e68d8e;}.cls-71{clip-path:url(#clip-path-16);}.cls-72{fill:url(#linear-gradient-16);}.cls-73{clip-path:url(#clip-path-17);}.cls-74{fill:url(#linear-gradient-17);}.cls-75{clip-path:url(#clip-path-18);}.cls-76{fill:url(#linear-gradient-18);}.cls-77{fill:#0d54b6;}.cls-78{fill:#041948;}.cls-79{clip-path:url(#clip-path-19);}.cls-80{fill:url(#linear-gradient-19);}.cls-81,.cls-99{fill:#c65708;}.cls-82{clip-path:url(#clip-path-20);}.cls-83{fill:url(#linear-gradient-20);}.cls-84{clip-path:url(#clip-path-21);}.cls-85{fill:url(#linear-gradient-21);}.cls-86{clip-path:url(#clip-path-22);}.cls-87{fill:url(#linear-gradient-22);}.cls-88{clip-path:url(#clip-path-23);}.cls-89{fill:url(#linear-gradient-23);}.cls-90{clip-path:url(#clip-path-24);}.cls-91{fill:url(#linear-gradient-24);}.cls-92,.cls-96{fill:#ea6200;}.cls-93{fill:#f59727;}.cls-94{fill:#fcb53d;}.cls-95{fill:#fdbb41;}.cls-97{clip-path:url(#clip-path-25);}.cls-98{fill:url(#linear-gradient-25);}</style><clipPath id="clip-path"><path class="cls-1" d="M1034,226.57l2.92-9.28,10.39,3.27-2.85,9.06q16.82,7.44,17.53,23.78l-18.58,0q-.42-7.68-8.39-10.19-6.69-2.1-8,2.21a3.74,3.74,0,0,0,.31,3c.52,1,2.36,2.37,5.56,4.2q10.92,6.21,15.37,9.83a19.55,19.55,0,0,1,6.29,9.54,20.36,20.36,0,0,1-.23,12.48,21.55,21.55,0,0,1-11.44,13.41q-8.53,4.17-20.46,1.83l-2.93,9.29L1009,305.71l2.93-9.28q-18.78-8.48-18.05-28.32l20,2.44q-.2,9.06,9.62,12.15,7.65,2.42,9-1.79a4.09,4.09,0,0,0-.7-4c-.92-1.21-2.81-2.59-5.63-4.17q-16.69-9.21-19.7-16.34a20.21,20.21,0,0,1-.71-14.39,22.64,22.64,0,0,1,9.73-12.63q7.22-4.56,18.47-2.81"/></clipPath><linearGradient id="linear-gradient" x1="993.53" y1="364.6" x2="1031.06" y2="253.2" gradientUnits="userSpaceOnUse"><stop offset="0" stop-color="#ff9400"/><stop offset="1" stop-color="#fce0a1"/></linearGradient><clipPath id="clip-path-2"><path class="cls-1" d="M1143.81,272.13l-4.54-8.32,9.31-5.08,4.43,8.12q16.56-6.78,28.51,3.75l-12.57,13q-5.67-4.87-12.81-1-6,3.27-3.89,7.13a3.74,3.74,0,0,0,2.34,1.84q1.54.44,6.7-1.07,11.71-3.47,17.27-4.15a19.11,19.11,0,0,1,10.93,2,19.88,19.88,0,0,1,8.61,8.59,21,21,0,0,1,1.68,17.07q-2.83,8.81-12.53,15.59l4.54,8.32-9.31,5.08-4.54-8.32q-18.62,7.45-32-6.45l15.21-12.39q6.24,6.24,15,1.45,6.86-3.73,4.81-7.51a4,4,0,0,0-3.28-2.21,18.56,18.56,0,0,0-6.73,1.14q-17.73,5.49-24.75,2.79a19.69,19.69,0,0,1-10.58-9.22,22.07,22.07,0,0,1-2.29-15.36q1.67-8.13,10.5-14.84"/></clipPath><linearGradient id="linear-gradient-2" x1="1214.8" y1="392.9" x2="1162" y2="291.39" xlink:href="#linear-gradient"/><clipPath id="clip-path-3"><path class="cls-1" d="M774.52,1195.46c7.74,34-3.75,114-7.62,176.82l.6-.06s.49,5.42,4.65,7.69,12.49,4.15,15,6.5c1.78,1.7,8.58,11.32-15.76,10.68-17.29-.45-21.41-1.65-23.27-4.46-.26-.39-12.54-132.35-14.34-143.18-3.09,13.8-38.07,128.63-38.06,128.7.29,2.08,3.05,7.61,6.13,11,1,3.38,3.2,9.32-13.56,9.17s-11.1-5-12.9-7.68c7.44-70,16.41-179.94,20.16-198.56h0c3-119.75,66.62-88.89,60.89-16.39-.65,8.19,15.24,8.41,18.12,19.71"/></clipPath><linearGradient id="linear-gradient-3" x1="719.21" y1="1356.41" x2="756.93" y2="1038.84" gradientUnits="userSpaceOnUse"><stop offset="0" stop-color="#031542"/><stop offset="0.11" stop-color="#051c4c"/><stop offset="0.29" stop-color="#093066"/><stop offset="0.52" stop-color="#115191"/><stop offset="0.8" stop-color="#1b7dcb"/><stop offset="1" stop-color="#24a1fb"/></linearGradient><clipPath id="clip-path-4"><path class="cls-1" d="M767,1114.54c7.2-16.12,23.35-64.23,11.83-82-9.5-11.39-33.92-35.1-39.26-33.83-1.36.33-10.79,5.8-5,12.08,7.46,8.5,22.05,26.16,23.6,28.19s-4.06,33-11.51,41c.31,2.07,18,43.58,20.37,34.59"/></clipPath><linearGradient id="linear-gradient-4" x1="800.21" y1="1043.55" x2="720.34" y2="1076.85" gradientUnits="userSpaceOnUse"><stop offset="0" stop-color="#a2bee5"/><stop offset="1" stop-color="#ddebff"/></linearGradient><clipPath id="clip-path-5"><path class="cls-1" d="M687.5,1120.24c2.71,15.91,7.42,58.21,5.24,78,32.63,5.6,62.47,3.11,82-3.1-.91-21.52.1-100.89-23.35-118.93-3.13,1.69-6.78,3.35-9.11,2.88-21.62-4.39-35-.08-48.36.85-15-1.48-23.43-13.59-25.3-17.12,0-15.68,16-43.76,14.47-50.81-.72-3.23-6.63-10-11.11-4.72-11.29,13.24-27.79,38.52-27.39,56,.32,14.08,16.23,42.29,43,57"/></clipPath><linearGradient id="linear-gradient-5" x1="637.65" y1="1189.33" x2="772.19" y2="1027.49" xlink:href="#linear-gradient-4"/><clipPath id="clip-path-6"><path class="cls-1" d="M725.86,1038.69c-6.51,5.91-16.44,3.66-19.45,10-1.48,3.16-.27,6.8,3.71,11.85,1.17,1.49,2.47,2.47-.73,1.93-1.47-.26-3.85-.53-4.42.27-1.28,1.76.29,4.31,1.84,4.85.69.24,2,.54,2,.54-10.68.81-17.38-7.21-19.23-14.63a33,33,0,0,1-1-6.92,7.69,7.69,0,0,1-.9-2.07,7.26,7.26,0,0,1,3-8.07,7.06,7.06,0,0,1,5-7.68,6.6,6.6,0,0,1,3-.11l.31-.18a7.37,7.37,0,0,1,10.45-4.61,10,10,0,0,1,6.67-6.22c5.58-1.5,11.47,2.36,13.15,8.63a12.18,12.18,0,0,1-1.92,10.62,11.5,11.5,0,0,1-1.46,1.78"/></clipPath><linearGradient id="linear-gradient-6" x1="716.91" y1="1061.17" x2="646.08" y2="903.87" xlink:href="#linear-gradient-3"/><clipPath id="clip-path-7"><path class="cls-1" d="M1365.25,1168.39c-7.54,25-3.6,73.11.32,114.25,28.32,7.27,70,5.3,80.42-3.5-7-53.65-10.49-105.2-21.59-114.7-23.38-54.65-55.72-9.93-59.15,4"/></clipPath><linearGradient id="linear-gradient-7" x1="1406.65" y1="1274.58" x2="1396.6" y2="1118.06" xlink:href="#linear-gradient-3"/><clipPath id="clip-path-8"><path class="cls-1" d="M1407.23,1041.58s-13.41.45-18.41-3.88c-10.49-9-4.1-30.51,22.7-22.55,21.34,6.33,10.67,26.15,38.08,35.87,17.92,6.35,28.49,18.89,16.33,44.8-.06,0-2.35-9.59-8-10.31,5.58,18.34-15.7,24.23-19.5,23.51,14.45-31.57-7.71-33.94-24.29-35.67-9.91-7.27,8.27-29.5-6.86-31.77"/></clipPath><linearGradient id="linear-gradient-8" x1="1423.04" y1="1124.25" x2="1441.07" y2="894.8" xlink:href="#linear-gradient-3"/><clipPath id="clip-path-9"><path class="cls-1" d="M1579.68,1195c-7.57,33.25,2.63,111.61,6.42,173.08l-.59-.06s-.48,5.31-4.55,7.53-11.18,4-13.59,6.26c-1.73,1.67-8.39,11.08,15.43,10.45,16.91-.44,20.94-1.62,22.75-4.36.26-.39,14.07-129.2,15.83-139.79,3,13.49,37.22,128.63,37.21,128.7-.28,2-3,7.45-6,10.81-.92,3.3-3.13,9.11,13.27,9s13-4.29,14.79-7c-7.28-68.44-19-178.73-22.65-196.94l-1-.94c-2.92-117.16-65.18-87-59.57-16,.63,8-14.91,8.23-17.73,19.28"/></clipPath><linearGradient id="linear-gradient-9" x1="1640.88" y1="1390.3" x2="1600.65" y2="1083.19" xlink:href="#linear-gradient-3"/><clipPath id="clip-path-10"><path class="cls-1" d="M1606,1103c-7.16,15.71-20.36,15.26-37.31,13-14.79-2.58-41.08-52.55-39.12-57.55,2.13-5.44,11.84-9.18,14.7-5.21,5.57,6.9,29.21,37.88,31.71,37.7s12.94-2.84,27.47-8.12c1.72-1.1,7.6,12.59,2.55,20.18"/></clipPath><linearGradient id="linear-gradient-10" x1="1569.29" y1="1095.46" x2="1569.29" y2="1054.99" gradientUnits="userSpaceOnUse"><stop offset="0" stop-color="#000446"/><stop offset="1" stop-color="#03096b"/></linearGradient><clipPath id="clip-path-11"><path class="cls-1" d="M1669.1,1093.34c6.82,10.18-15.11,52.67-9.41,104.37-31.93,5.48-61.12,3-80.18-3,.89-21.06,1-94.19,23.9-111.84,22.71-6.36,56.33-3.44,65.69,10.5"/></clipPath><linearGradient id="linear-gradient-11" x1="1627.72" y1="1187.89" x2="1627.72" y2="1107.62" gradientUnits="userSpaceOnUse"><stop offset="0" stop-color="#000446"/><stop offset="1" stop-color="#080f9b"/></linearGradient><clipPath id="clip-path-12"><path class="cls-1" d="M1664.41,1131.87c-3.13,17.8-7.33,42.17-4.72,65.84l-3.34.54c-1.27-3.86-2.63-6.42-3.95-24.4s6.06-51.91,6.06-51.91l6,9.93Z"/></clipPath><linearGradient id="linear-gradient-12" x1="1657.74" y1="1172.95" x2="1657.77" y2="1125.88" xlink:href="#linear-gradient-10"/><clipPath id="clip-path-13"><path class="cls-1" d="M1659.21,1163.49c-.35,4.9-.56,10-.55,15.13-3.89.71-10.92-.34-22.22-.49-14-.18-19.92,3.45-19.92,3.45s-1.75-8.71-1.13-10.27,12.66-4.46,18.92-6c5.66-1.41,18.77-1.4,24.9-1.8"/></clipPath><linearGradient id="linear-gradient-13" x1="1636.99" y1="1175.6" x2="1636.99" y2="1164.44" xlink:href="#linear-gradient-10"/><clipPath id="clip-path-14"><path class="cls-1" d="M1652.81,1107.62c.53-11.17,8.38-23.75,16.29-14.28,13.67,16.38,27.49,54.93,23.75,66.16-3.9,11.28-48.82,18-58.51,13.92-4.58-1.91-5.89-2.33-7.25-5.41-.79-1.8-1.61-4.59,2.27-6.31,10.28-4.55,36-10.19,36.58-13,2-15.06-13.78-27.22-13.13-41.09"/></clipPath><linearGradient id="linear-gradient-14" x1="1676.35" y1="1143.72" x2="1643.42" y2="1115.68" xlink:href="#linear-gradient-10"/><clipPath id="clip-path-15"><path class="cls-1" d="M1614.5,1044.86c7.75,4,16.69-.74,21.2,4.58,2.24,2.63,2,6.43-.49,12.3-.74,1.73-1.72,3,1.19,1.65,1.35-.62,3.55-1.49,4.31-.88,1.68,1.35.83,4.2-.51,5.12-.6.41-1.73,1-1.73,1,10.44-2,14.78-11.39,14.63-19-.25-13.43-12.16-22.36-26.68-23.26a10,10,0,0,0-8-4.23c-5.73,0-10.37,5.22-10.37,11.66a12.08,12.08,0,0,0,4.58,9.67,11.13,11.13,0,0,0,1.86,1.33"/></clipPath><linearGradient id="linear-gradient-15" x1="1629.65" y1="1064.13" x2="1632.74" y2="1006.65" xlink:href="#linear-gradient-3"/><clipPath id="clip-path-16"><path class="cls-1" d="M510.77,1195.94c7.66,33.6-3.7,112.7-7.53,174.81l.6-.06s.48,5.37,4.59,7.61,12.35,4.1,14.78,6.43c1.76,1.67,8.48,11.19-15.58,10.56-17.09-.45-21.17-1.65-23-4.42-.26-.39-12.4-130.85-14.18-141.55C467.4,1263,431,1379.6,431,1379.67c.29,2.06,3,7.52,6.07,10.92.93,3.34,3.16,9.21-13.41,9.07s-11-4.9-12.75-7.59c7.35-69.17,18-181,21.71-199.42h0c2.95-118.39,65.86-87.88,60.19-16.21-.64,8.1,15.07,8.33,17.91,19.49"/></clipPath><linearGradient id="linear-gradient-16" x1="460.67" y1="1358.53" x2="489.18" y2="961.94" xlink:href="#linear-gradient-3"/><clipPath id="clip-path-17"><path class="cls-1" d="M483,1109.57c7.24,15.88,14,30.11,34.73,33.2,14.65.4,47.35-10.39,45.37-15.44-2.15-5.5,5.53-9.85-2.89-9.69-11.19,0-41.18.54-43.7.36s-15-30-29.73-35.38c-1.74-1.12-8.87,19.28-3.78,27"/></clipPath><linearGradient id="linear-gradient-17" x1="523.61" y1="1162.76" x2="523.14" y2="1089.76" gradientUnits="userSpaceOnUse"><stop offset="0" stop-color="#002990"/><stop offset="0.22" stop-color="#0a4bae"/><stop offset="0.58" stop-color="#1879d8"/><stop offset="0.85" stop-color="#2196f1"/><stop offset="1" stop-color="#24a1fb"/></linearGradient><clipPath id="clip-path-18"><path class="cls-1" d="M427.25,1146c2.69,15.73,4.83,33.18,2.68,52.75,32.25,5.54,61.75,3.08,81-3.06-.91-21.28-1-95.18-24.15-113-21.34-6-50-4.09-61.78,7.57l-.1.1c-12,11.26-16.72,25.53-22.47,43a252,252,0,0,0-25.2-27.83c-2.38-2.26-9.65,6.53-9.6,9.22.15,7.42,27.57,51,40.69,52.9,6.21-1.31,14.58-12.3,18.91-21.63"/></clipPath><linearGradient id="linear-gradient-18" x1="440.08" y1="1242.42" x2="438.91" y2="1093.9" xlink:href="#linear-gradient-17"/><clipPath id="clip-path-19"><path class="cls-2" d="M1092.5,979.22h-76.84c-4.14,86.9,3,191.88-41,229.62-2.87,2.46-2.11,11.69-2.65,15h172c-.55-3.29-.55-12.52-3.41-15-43.91-37.74-36.83-142.72-41-229.62Z"/></clipPath><linearGradient id="linear-gradient-19" x1="1053.32" y1="1175.9" x2="1065.99" y2="972.92" gradientUnits="userSpaceOnUse"><stop offset="0" stop-color="#ea6200"/><stop offset="1" stop-color="#ffc045"/></linearGradient><clipPath id="clip-path-20"><path class="cls-2" d="M720.28,496.58c-12.37,2.16-24-7.09-25.95-20.65s6.47-26.29,18.84-28.45a7.76,7.76,0,0,0,2.59-2.23,26.75,26.75,0,0,0,5.51-10.43,36.29,36.29,0,0,0,1.05-15.48c-1.12-7.59-4.8-15.82-12.15-23.82-17.15-18.65-41.32-20.2-62.85-9.56a87.46,87.46,0,0,0-29.2,24,107.74,107.74,0,0,0-19.5,38.77c-12.5,45.45,0,108.31,64.18,176.33C688,651.75,738,688.18,775.51,715.59,787,724,797.3,731.48,807.66,739.4c2.21,1.69,4.16,3.14,6.15,4.62,33.82,25.2,78.87,70.73,43.56,139.51-6.13,12-20,16.28-30.93,9.55s-14.85-21.9-8.72-33.9c4.89-9.52,8.12-27.93,5.67-35.72-5-16-21.87-28.54-35-38.33-2.46-1.83-4.83-3.6-6.67-5-6.58-5-18.24-13.53-31.26-23-38.79-28.29-90.34-65.9-119.12-96.41-78.85-83.6-93.05-165.21-76.27-226.22A159.38,159.38,0,0,1,584,377.19c12.83-16,28.24-28.51,44.68-36.63,38-18.77,81.52-15.11,113.51,19.7,14.81,16.1,22.42,34,25,51.29A90.29,90.29,0,0,1,764.48,450a78.41,78.41,0,0,1-16.54,30.31c-7.84,8.65-17.45,14.46-27.66,16.25"/></clipPath><linearGradient id="linear-gradient-20" x1="702.73" y1="697.57" x2="757.77" y2="322.95" xlink:href="#linear-gradient-19"/><clipPath id="clip-path-21"><path class="cls-2" d="M1395.27,496.58c12.37,2.16,24-7.09,26-20.65s-6.47-26.29-18.85-28.45a7.76,7.76,0,0,1-2.59-2.23,27,27,0,0,1-5.51-10.43,36.29,36.29,0,0,1-1-15.48c1.11-7.59,4.79-15.82,12.14-23.82,17.15-18.65,41.32-20.2,62.85-9.56a87.59,87.59,0,0,1,29.21,24,107.72,107.72,0,0,1,19.49,38.77c12.51,45.45,0,108.31-64.18,176.33-25.21,26.73-75.15,63.16-112.71,90.57-11.51,8.39-21.79,15.89-32.15,23.81-2.21,1.69-4.15,3.14-6.15,4.62-33.82,25.2-77.6,69.64-42.3,138.42,6.13,12,20,16.27,30.94,9.55s14.84-21.9,8.71-33.9c-4-7.72-9.09-23.55-8-30.12,3-18.19,21.75-32.15,36.09-42.84,2.46-1.83,4.83-3.6,6.68-5,6.57-5,18.23-13.53,31.26-23,38.78-28.29,90.34-65.9,119.11-96.41,78.86-83.6,93-165.21,76.27-226.22a159.22,159.22,0,0,0-28.92-57.27c-12.83-16-28.23-28.51-44.67-36.63-38-18.77-81.53-15.11-113.52,19.7-14.8,16.1-22.41,34-25,51.29a90.29,90.29,0,0,0,2.65,38.47,78.27,78.27,0,0,0,16.53,30.31c7.85,8.65,17.45,14.46,27.66,16.25"/></clipPath><linearGradient id="linear-gradient-21" x1="1413.08" y1="696.75" x2="1318.71" y2="37.17" xlink:href="#linear-gradient-19"/><clipPath id="clip-path-22"><path class="cls-2" d="M1363.75,396.78c0,332.39-137,601.84-306,601.84s-306-269.45-306-601.84v-8.23a8.25,8.25,0,0,1,8.22-8.22h595.43a8.25,8.25,0,0,1,8.22,8.22v8.23Z"/></clipPath><linearGradient id="linear-gradient-22" x1="1057" y1="826.59" x2="1059.64" y2="360.78" xlink:href="#linear-gradient-19"/><clipPath id="clip-path-23"><path class="cls-2" d="M1363.75,396.78c0,332.39-137,601.84-306,601.84-24.58,0-48.47-5.73-71.36-16.49C1199.5,912.62,1265.6,576,1268.3,380.33h87.15a8.25,8.25,0,0,1,8.22,8.22v8.23Z"/></clipPath><linearGradient id="linear-gradient-23" x1="1162.91" y1="781.18" x2="1258.83" y2="58.45" xlink:href="#linear-gradient-19"/><clipPath id="clip-path-24"><polygon class="cls-1" points="1056.47 433 1096.45 552.71 1222.66 551.18 1121.16 626.21 1161.61 745.77 1058.9 672.42 957.69 747.84 995.71 627.49 892.71 554.54 1018.91 553.5 1056.47 433"/></clipPath><linearGradient id="linear-gradient-24" x1="1069.84" y1="708.34" x2="1028.76" y2="295.26" gradientUnits="userSpaceOnUse"><stop offset="0" stop-color="#f6d32b"/><stop offset="1" stop-color="#fff"/></linearGradient><clipPath id="clip-path-25"><path class="cls-2" d="M877.67,1247.71h360.8c21.12,0,38.41,18.83,38.41,41.85v95.29H839.27v-95.29c0-23,17.28-41.85,38.4-41.85"/></clipPath><linearGradient id="linear-gradient-25" x1="1057.5" y1="1358.12" x2="1059.94" y2="1181" xlink:href="#linear-gradient-19"/></defs><g id="Layer_2" data-name="Layer 2"><g id="Layer_1-2" data-name="Layer 1"><path class="cls-3" d="M1295.08,50.49c3.55,1.26,7.64,4.42,13.07,13.23,8.2,13.25,6.64,17.23,20.56,18.66s29.56-2.6,31.72,7.15c1,4.62-1.21,15.52-7.55,22.31-7.06,7.56-18.76,11-27.2,15-16,7.61-14.91,10.62-16.79,21-13,71.91,56.15,327.1-125.62,252-19.75-8.16-33.24-16-40.48-19.68-14.83-6.26-58.25-25-69.29-33.66C963.53,260.62,1169,155.52,1212,103.08c6.69-8.16,9.7-9.28,5.11-26.4-2.42-9-7.39-20.16-6.2-30.44,1.06-9.22,7.91-18,12.09-20.2,8.83-4.68,15.88,9.83,26,19.51s12.14,5.91,27.54,3.55c10.23-1.56,15.29-.5,18.55,1.39"/><path class="cls-4" d="M1360.54,94.32c-.56,5.3-3,12.53-7.66,17.52-7.06,7.56-18.76,11-27.2,15-16,7.61-14.91,10.62-16.79,21-12.42,68.6,49.25,302.3-102.86,258.42,47.53-23.43,57.67-45.43,65.86-90.17,8.54-46.69,14.12-116.72,16.6-168.62,0,0-2.26-2.68,5.8-14.71s50.69-22.59,61.27-32a21,21,0,0,0,5-6.49"/><rect class="cls-5" x="1253.2" y="65.61" width="21.35" height="117.48" transform="translate(620.91 1219.53) rotate(-65.2)"/><rect class="cls-5" x="1206.63" y="95.39" width="21.35" height="14.89" transform="translate(613.45 1164.8) rotate(-65.21)"/><rect class="cls-6" x="1220.23" y="101.58" width="21.35" height="15.07" transform="translate(615.57 1180.75) rotate(-65.2)"/><rect class="cls-7" x="1251.65" y="96.55" width="21.35" height="54.17" transform="translate(620.67 1217.72) rotate(-65.2)"/><rect class="cls-8" x="1258.03" y="81.91" width="2.03" height="106.18" transform="translate(608.44 1221.34) rotate(-65.2)"/><path class="cls-9" d="M1210.29,195.09l4.82-19.12,19.56,7.65-10.23,16.82q22.51,12.1,21.74,34.82l-25.73-2.06q.21-10.68-10.53-15-9-3.64-11.38,2.18a5.24,5.24,0,0,0,.08,4.23c.63,1.41,3,3.54,7.25,6.42q14.48,9.78,20.24,15.27a27.28,27.28,0,0,1,7.68,13.88,28.39,28.39,0,0,1-1.66,17.27,29.9,29.9,0,0,1-17.28,17.34q-12.28,4.86-28.55.33l-4.27,19.5-20.69-7.9,10.93-17.25q-25.1-13.75-22-41.16l27.46,5.53q-1.23,12.53,12,17.86,10.35,4.17,12.64-1.5a5.72,5.72,0,0,0-.54-5.63c-1.14-1.76-3.61-3.88-7.35-6.37q-22.12-14.56-25.53-24.75a28.18,28.18,0,0,1,.57-20A31.52,31.52,0,0,1,1184.41,197q10.48-5.55,25.88-1.9"/><path class="cls-10" d="M951.6,1366C426,1366,0,1381.12,0,1399.83s426,33.87,951.6,33.87,951.59-15.17,951.59-33.87S1477.15,1366,951.6,1366"/><path class="cls-3" d="M800.12,33.46c-4.35,1.67-9.31,5.7-15.77,16.76-9.72,16.64-7.66,21.52-24.84,23.71s-36.63-2.31-39,9.82c-1.12,5.74,2,19.15,10,27.35,9,9.14,23.54,13,34.09,17.72,20,8.91,18.77,12.67,21.41,25.46C804.33,242.81,726.61,560.5,949.09,462c24.17-10.7,40.61-20.85,49.45-25.58,18.15-8.2,71.27-32.74,84.66-43.74,133.36-109.53-124-233.2-178.72-296.73-8.52-9.89-12.28-11.18-7.13-32.49,2.72-11.24,8.52-25.15,6.74-37.83C902.5,14.26,893.75,3.62,888.52,1,877.46-4.49,869.18,13.67,857,25.94s-14.83,7.69-34,5.24c-12.7-1.62-18.92-.15-22.89,2.28"/><path class="cls-4" d="M720.51,89.67c.85,6.54,4.09,15.4,10,21.43,9,9.14,23.54,13,34.09,17.72,20,8.91,18.77,12.67,21.41,25.46,17.47,84.45-51.64,375.34,135.12,316.42-59.5-27.51-72.71-54.41-84.2-109.5-12-57.47-21-143.9-25.7-208,0,0,2.72-3.38-7.62-18s-63.39-26.39-76.75-37.64a26,26,0,0,1-6.36-7.88"/><rect class="cls-5" x="768.32" y="110.64" width="145.32" height="26.4" transform="translate(31.8 384.25) rotate(-26.22)"/><rect class="cls-5" x="888.7" y="82.61" width="18.41" height="26.41" transform="translate(50.05 406.54) rotate(-26.22)"/><rect class="cls-6" x="871.96" y="90.79" width="18.64" height="26.41" transform="translate(44.71 400) rotate(-26.22)"/><rect class="cls-7" x="809.37" y="109.71" width="67" height="26.41" transform="translate(32.41 384.99) rotate(-26.22)"/><rect class="cls-8" x="781.6" y="135.61" width="131.34" height="2.52" transform="translate(26.69 388.36) rotate(-26.22)"/><path class="cls-9" d="M885.86,213.18l-13.44-20.34,23.29-11.5,6.85,23.37q29.82-10.46,49.93,9.19l-23.34,21.78q-9.57-9.09-22.49-2.89Q895.8,238,899.16,245a6.48,6.48,0,0,0,3.94,3.45c1.81.61,5.76.18,11.92-1.27q21-5.06,30.82-5.75A33.68,33.68,0,0,1,964.93,246a35,35,0,0,1,14.39,15.92,36.94,36.94,0,0,1,1.42,30.24q-5.79,15.29-23.49,26.36l14.25,20.17L947,351l-6.64-24.36q-33.5,11.46-55.91-14.27l27.94-20.46q10.43,11.57,26.34,3.91,12.43-6,9.17-12.8a7.07,7.07,0,0,0-5.59-4.2c-2.57-.43-6.56.06-12,1.4q-31.75,8.09-43.9,2.69a34.86,34.86,0,0,1-17.81-17.22A39,39,0,0,1,866,238.4q3.68-14.19,19.85-25.22"/><path class="cls-11" d="M1746.31,928.51c-.38,21-28.08,37.29-68.56,37.29h-44.69c11.62-4.82,68.92-5.21,66.35-43.31l32.3.38Z"/><path class="cls-9" d="M1567.72,963.66c24.93-37.83,76.33-62.34,138.63-61.08l40,25.93c-65-9.44-145.69,13.18-155.56,35.15Z"/><path class="cls-11" d="M1628.57,868.42c12.89,40.24-11.63,80.2-48.27,97.38h-30.2c40.72-16.65,49-58.4,34.77-96.69l-3.2-6.71,32.3.39Z"/><path class="cls-9" d="M1484.75,963.66c-1.29-63.75,41.57-122.43,103.86-121.16l40,25.92c-65-9.44-118.09,47.2-120.79,95.24Z"/><path class="cls-11" d="M1252.55,928.51c.33,21,24.25,37.29,59.2,37.29h38.59c-10-4.82-59.51-5.21-57.29-43.31l-27.9.38Z"/><path class="cls-9" d="M1406.77,963.66c-21.53-37.83-65.92-62.34-119.72-61.08l-34.5,25.93c56.17-9.44,125.81,13.18,134.33,35.15Z"/><path class="cls-11" d="M1344.75,868.42c-12.9,40.24,11.62,80.2,48.27,97.38h30.19c-40.72-16.65-49-58.4-34.77-96.69l3.21-6.71-32.31.39Z"/><path class="cls-9" d="M1488.56,963.66c1.3-63.75-41.56-122.43-103.86-121.16l-40,25.92c65-9.44,118.08,47.2,120.78,95.24Z"/><rect class="cls-12" x="1280.5" y="963.66" width="509.31" height="64.7"/><rect class="cls-13" x="1303.03" y="1027.92" width="462.32" height="356.94"/><rect class="cls-14" x="1304.67" y="1028.36" width="460.68" height="20.28"/><rect class="cls-15" x="1213.21" y="1027.92" width="91.47" height="356.94"/><rect class="cls-16" x="1196.48" y="963.66" width="84.02" height="64.7"/><rect class="cls-17" x="1476.74" y="962.11" width="66.63" height="422.74"/><rect class="cls-18" x="1213.21" y="1028.36" width="91.47" height="20.28"/><path class="cls-11" d="M232.47,789.92c.49,27.42,36.61,48.62,89.37,48.62H380.1c-15.14-6.29-89.85-6.8-86.49-56.47l-42.12.51Z"/><path class="cls-9" d="M465.29,835.75c-32.51-49.32-99.52-81.27-180.73-79.63l-52.09,33.8c84.8-12.3,189.93,17.18,202.8,45.83Z"/><path class="cls-11" d="M386,711.59c-16.81,52.46,15.16,104.55,62.93,126.95h39.37c-53.09-21.7-63.87-76.14-45.33-126.06l4.17-8.74-42.11.5Z"/><path class="cls-9" d="M573.45,835.75c1.69-83.12-54.19-159.61-135.4-158L386,711.59c84.8-12.31,154,61.53,157.47,124.16Z"/><path class="cls-11" d="M876.17,789.92c-.43,27.42-31.62,48.62-77.18,48.62H748.68c13.08-6.29,77.59-6.8,74.69-56.47l36.37.51Z"/><path class="cls-9" d="M675.12,835.75c28.07-49.32,85.93-81.27,156.06-79.63l45,33.8c-73.23-12.3-164,17.18-175.13,45.83Z"/><path class="cls-11" d="M756,711.59c16.81,52.46-15.16,104.55-62.93,126.95H653.68c53.09-21.7,63.87-76.14,45.33-126.06l-4.18-8.74,42.12.5Z"/><path class="cls-9" d="M568.48,835.75c-1.69-83.12,54.19-159.61,135.4-158L756,711.59c-84.8-12.31-154,61.53-157.46,124.16Z"/><rect class="cls-3" x="175.75" y="835.76" width="663.98" height="84.34"/><rect class="cls-3" x="207.64" y="919.52" width="602.72" height="465.34"/><rect class="cls-19" x="207.64" y="920.1" width="600.58" height="26.44"/><rect class="cls-19" x="808.22" y="919.52" width="119.24" height="465.34"/><rect class="cls-19" x="839.73" y="835.76" width="109.54" height="84.34"/><rect class="cls-17" x="489.79" y="833.73" width="86.87" height="551.12"/><rect class="cls-19" x="808.22" y="920.1" width="119.24" height="26.44"/><path class="cls-20" d="M1118.63,238a96.82,96.82,0,1,0-64.09,121,96.83,96.83,0,0,0,64.09-121"/><path class="cls-21" d="M1122.1,229.75a96.82,96.82,0,1,0-64.1,121,96.82,96.82,0,0,0,64.1-121"/><path class="cls-22" d="M1120.12,233.75a96.83,96.83,0,1,0-64.1,121,96.82,96.82,0,0,0,64.1-121"/><path class="cls-23" d="M1120.12,233.75c-.08-.26-.17-.53-.26-.8l-185.08,56.9c.09.27.16.54.24.81a96.83,96.83,0,0,0,185.1-56.91"/><path class="cls-7" d="M1106.12,238.06a82.17,82.17,0,1,0-54.4,102.69A82.18,82.18,0,0,0,1106.12,238.06Z"/><path class="cls-24" d="M1106.12,238.06a82.17,82.17,0,1,0-54.4,102.69A82.18,82.18,0,0,0,1106.12,238.06Z"/><path class="cls-25" d="M965.87,207.8c-10.24,22.58-10.94,44.74-6.15,60.32,23.07,75,99.61,69.89,147,15.95A82.18,82.18,0,1,1,965.87,207.8"/><path class="cls-23" d="M1094.57,249.48a72.54,72.54,0,0,0-137.29-4.06A72.54,72.54,0,1,1,1096,286.86a72.29,72.29,0,0,0-1.41-37.38"/><g class="cls-26"><rect class="cls-27" x="993.44" y="217.29" width="68.55" height="91.7"/></g><path class="cls-20" d="M1209,220.47a94.26,94.26,0,1,0,41.61,126.64A94.26,94.26,0,0,0,1209,220.47"/><path class="cls-21" d="M1205.52,212.47a94.26,94.26,0,1,0,41.61,126.64,94.26,94.26,0,0,0-41.61-126.64"/><path class="cls-22" d="M1207,216.56A94.26,94.26,0,1,0,1248.6,343.2,94.25,94.25,0,0,0,1207,216.56"/><path class="cls-23" d="M1207,216.56l-.74-.36-85,168.23c.24.12.48.26.73.38a94.26,94.26,0,1,0,85-168.25"/><path class="cls-7" d="M1200.55,229.29a80,80,0,1,0,35.31,107.48A80,80,0,0,0,1200.55,229.29Z"/><path class="cls-24" d="M1200.55,229.29a80,80,0,1,0,35.31,107.48A80,80,0,0,0,1200.55,229.29Z"/><path class="cls-25" d="M1084.66,307.24c8.92,22.42,24,37.87,38.16,45,68.21,34.47,116.26-22.7,110.43-92.36a80,80,0,1,1-148.59,47.33"/><path class="cls-23" d="M1200.76,245.1a70.61,70.61,0,0,0-95.51,93.56,70.62,70.62,0,1,1,122.69-69.31,70.16,70.16,0,0,0-27.18-24.25"/><g class="cls-28"><rect class="cls-29" x="1132.22" y="258.73" width="69.44" height="84.32"/></g><path class="cls-30" d="M735.39,989.09c1.42,1.85,8.6,11.64,7.63,13.41s-7.28,8.92-7.28,8.92l-5.73-6c-.63-.3-8.53,2.68-10.93,1.48-.86-.43-1.44-2.47-.38-3.06s3.72-3.88,4.15-4.58c.65-1.08-10.66-9.45-10.08-10.88,6.82-6.56,13.55-7.9,22.62.67"/><path class="cls-30" d="M674,998.36s-2.33,6-1.66,6.92-2.16,2.43.43,5c1.47,1.46,8.35,7.58,8.35,7.58l2.66-5.32c.52-.47,8.94.16,10.91-1.67.7-.66.68-2.78-.5-3s-4.38-1.06-5-1.62c-.93-.84,9.36-13.45,8.4-14.65-12.89-8.28-19.91.6-23.6,6.79"/><g class="cls-31"><rect class="cls-32" x="671.48" y="1072.39" width="124.2" height="326.13"/></g><g class="cls-33"><rect class="cls-34" x="728.8" y="997.45" width="61.56" height="126.08"/></g><g class="cls-35"><rect class="cls-36" x="644.14" y="1002.05" width="130.66" height="201.8"/></g><path class="cls-37" d="M737.21,1078.11c-9.3-1.48-15.26-4.7-32.87,1,1.24,8.06,11.93,19.93,26.64,15.17,6.4-1.32,12.26-10.67,6.23-16.17"/><path class="cls-38" d="M687.5,1120.24c2.54,16.17,7.21,60.1,5.24,78,1.14.19,5.39.84,6.53,1,4.39-18.16-1.68-72.08-6-94.3a107,107,0,0,1-5.78,15.27"/><path class="cls-39" d="M735.91,1056.64c-1,5-3.22,9.24-6.23,11.84l.35,8.3,1.15.54c4.7,2.93,2.82,10.89-1.4,11.77-10.38,3.35-20.84-4.34-18.94-9.86l1-1.91-.49-8.7c-.55.11-5.11-1.07-6.38-1.12s-3.61-1.84-4.37-4.2,3.15-2.58,3.15-2.58c-6.13-4.92-12.54-8.56-7.46-15.84s19.32-14.58,19.32-14.58l8.24-5.59c-.32,3.45,4.05,13.49,8.14,19.39,3.67,5.3,5.33,5.82,4,12.54"/><path class="cls-40" d="M715.93,1068.72s6.59,7.4,11,7.06c3.83-.29,3-.56,2.72-7.3-2.79,1.25-5.69,1.78-13.75.24"/><g class="cls-41"><rect class="cls-42" x="686.76" y="1016.16" width="43.54" height="52.8"/></g><path class="cls-43" d="M1376.39,1102.12c-22.11-4.16-45-39.81-53.71-83.08-1.23-6.08,12.24-9.86,14.25-6.39,1.44,2.64,22.61,45.56,22.87,45.8,1.83,1.73,23.39,14.89,36.69,23.4,2.11.55-10.55,18.75-20.1,20.27"/><path class="cls-44" d="M1389.92,1123.78l-15.64,129.41,8,122.23-.8,1.07c-.2.28-.41.55-.61.82-.49.64-1,1.25-1.46,1.82-.22.26-.43.51-.66.75-3.59,4-8.23,4.92-12,5.84-2.94.72-5.21,1.07-7.21,5a2.87,2.87,0,0,0-.15.37,2.25,2.25,0,0,0,2.21,2.87l34.87-1.1a3.39,3.39,0,0,0,3.28-3.7l-2.34-15.22v-.07c.84-29.71,7.57-73.27,2.06-108,0,0,32.94-65.13,32.8-66.71s-42.29-75.41-42.29-75.41"/><path class="cls-44" d="M1412,1240.11c1.52,13.08-7.61,20.84-6.09,33.92,0,32.75,23,70.48,30.73,103.55.25,1.1-1.7,11.5-1.48,12.58,3.45,3.69,13.27,8.89,14.32-8.1-4.39-28.56-9.85-74.71-21.16-109.45l7.14-34.63Z"/><g class="cls-45"><rect class="cls-46" x="1357.71" y="1109.79" width="88.28" height="180.13"/></g><path class="cls-43" d="M1442,1083.38c6.66,27.18-20,30.58-14,85.45-20,2.78-46.34,3.55-63.52-.68,2.75-20.19-4.46-47.32.1-62.9,3-10.23,6.17-34.24,11.28-36.32,15.12,7.13,56.19-.35,66.11,14.45"/><path class="cls-47" d="M1440.63,1091.57c-1,6.35-4,11.79-7,18.4-11.39,13.63-29.09,25.87-39.56,28.33-5.77,1.28-19.68-3.21-30.63-11.5-.43-7.93,0-7.52,1.65-13.24.13-.47.27-1,.4-1.48,12.23,7.78,25.16,7.51,27,6.87,16.12-7.17,40.39-48.17,47.94-30.06a22.74,22.74,0,0,1,.27,2.68"/><path class="cls-48" d="M1395.47,1067l-.12,6.59-1,.82c-3.76,4,.31,12.29,4.58,12,10.82.53,19.13-8.34,15.88-13.16l-1.42-1.57-.31-9.33c.56,0,4.62-2.34,5.83-2.71s3-2.71,3.1-5.17-3.68-1.66-3.68-1.66c4.61-6.3,9.82-11.44,3.06-17.12s-22.29-9-22.29-9l-9.35-3.23c1.19,3.22-.4,14-2.8,20.7-3.41,9.55-1.52,18,8.48,22.79"/><path class="cls-49" d="M1408.72,1063.72s-5.29,9.07-9.63,9.89-2.12.22-3.75,0l.13-6.59c3,.48,5.92.24,13.25-3.32"/><g class="cls-50"><rect class="cls-51" x="1378.33" y="1007.19" width="99.75" height="102.55"/></g><path class="cls-52" d="M1367.76,1384.6s-12.14,3.35-11.6,7.1c1.11,7.56,42.79,2.57,43,2.29,1.48-1.83,1.65-10.37-.34-12.91-1.48-1.89-17.79,8.23-31.07,3.52"/><path class="cls-53" d="M1431.32,1395.45c.26,4.86,18.2,3.29,20.84,1.83,3.92-2.17-.67-12.78-2.74-15.56,0,0-4.57,7.2-10,5.74s-3.51-3-4.43-1.23c-1.73,3.41-3.93,4.75-3.69,9.22"/><path class="cls-48" d="M1347.67,1096.51l-3.47-2.74-3.85-8.74c-.19-1.14-2.66-7.71-3.53-5-.61,2-.6,6.67-.8,6.68-2.6.23-12.54-8.46-12.78-8.44-3.39.13,2.59,6,3.56,7.06.25.27-5-3.13-5.08-2.78a2.87,2.87,0,0,0,.82,2.67c1.35,1.38,4,3.37,4,3.83s-5.1-2.86-5.09-2.4a2.53,2.53,0,0,0,.89,1.9c1.43,1.39,4,3.07,4.14,3.58s-3.4-2.09-3.25-1.62-.39.8-.14,1.08c6.54,7.46,10.65,4.53,17.92,13.27,4,4.87,7-6.07,6.65-8.4"/><path class="cls-43" d="M1443,1087.84c4.1,25.64-35.73,42.34-50.88,45.9-12.36,2.76-46.26-19.13-52.79-30.76-1.54-2.74,3.27-10.31,8.73-8.55,11.19,6.12,42.07,19.71,44.93,18.68,16.12-7.16,42.45-43.38,50-25.27"/><path class="cls-48" d="M1334.61,1012.79l-1.27-4.23,2-8c.49-1,2.25-7.85,0-6.08-1.61,1.24-4.32,5.11-4.49,5-2.26-1.31-5.4-14.13-5.6-14.26-2.86-1.84-1.34,6.41-1.15,7.82,0,.37-2.31-5.44-2.56-5.19a2.88,2.88,0,0,0-.86,2.66c.31,1.9,1.36,5.07,1.08,5.44s-2.54-5.28-2.78-4.9a2.5,2.5,0,0,0-.37,2.07c.37,2,1.53,4.84,1.33,5.31s-1.58-3.66-1.73-3.2-.78.44-.74.81c1.07,9.87,6,8.49,6.9,19.83.51,6.3,9.25-.92,10.28-3.06"/><path class="cls-54" d="M478.38,377.74h0a3.73,3.73,0,0,1,3.71,3.71v12.49h12.5a3.71,3.71,0,1,1,0,7.42h-12.5v12.5a3.71,3.71,0,0,1-7.42,0v-12.5h-12.5a3.71,3.71,0,0,1,0-7.42h12.5V381.45a3.72,3.72,0,0,1,3.71-3.71"/><path class="cls-55" d="M302,442.81a13.23,13.23,0,0,0-18.68,0v0a13.23,13.23,0,0,0,0,18.67v0A13.22,13.22,0,0,0,302,442.81Zm-9.34-11.24a20.5,20.5,0,0,1,14.54,6h0a20.56,20.56,0,1,1-29.08,29.07h0a20.56,20.56,0,0,1,0-29.07h0A20.53,20.53,0,0,1,292.67,431.57Z"/><path class="cls-55" d="M425.16,535.05a11.27,11.27,0,0,0-15.94,0v0a11.29,11.29,0,0,0,0,15.94h0a11.28,11.28,0,0,0,16-16Zm-8-9.59a17.5,17.5,0,0,1,12.42,5.14h0a17.54,17.54,0,1,1-24.81,24.81h0a17.55,17.55,0,0,1,0-24.82h0A17.51,17.51,0,0,1,417.19,525.46Z"/><g class="cls-56"><rect class="cls-57" x="1558.98" y="1074.58" width="123.28" height="322.13"/></g><g class="cls-58"><rect class="cls-59" x="1527.57" y="1049.29" width="83.43" height="69.44"/></g><g class="cls-60"><rect class="cls-61" x="1579.51" y="1076.48" width="96.41" height="126.71"/></g><g class="cls-62"><rect class="cls-63" x="1651.08" y="1121.94" width="13.33" height="76.31"/></g><g class="cls-64"><rect class="cls-65" x="1614.77" y="1163.49" width="44.45" height="18.08"/></g><path class="cls-48" d="M1609.28,1065c2.24,4.47,5.39,7.91,8.89,9.59l-.12,6.49-.94.81c-3.7,4,.31,12.1,4.52,11.85,10.65.53,18.83-8.21,15.63-13l-1.39-1.55-.31-9.19c.55,0,4.55-2.31,5.74-2.67s2.94-2.67,3-5.09-3.62-1.63-3.62-1.63c4.53-6.21,9.67-11.28,3-16.87s-22-8.85-22-8.85l-9.21-3.19c1.18,3.18-.39,13.78-2.75,20.39-2.12,5.94-3.56,6.86-.55,12.86"/><path class="cls-49" d="M1631.22,1071.29s-5.21,8.92-9.48,9.73-2.09.22-3.69,0l.12-6.49c2.95.48,5.84.24,13-3.26"/><g class="cls-66"><rect class="cls-67" x="1625.48" y="1083.87" width="71.1" height="93.6"/></g><path class="cls-48" d="M1628.83,1163.57l-4.39,1.43-9.83-1.72c-1.1-.5-8.26-2.17-6.35.19,1.33,1.66,5.45,4.39,5.34,4.57-1.31,2.4-14.63,6-14.76,6.21-1.85,3,6.74,1.24,8.21,1,.38-.07-5.64,2.54-5.36,2.8a3,3,0,0,0,2.79.83c2-.37,5.27-1.55,5.66-1.26s-5.44,2.78-5,3a2.59,2.59,0,0,0,2.16.33c2-.43,5-1.72,5.52-1.52s-3.79,1.74-3.3,1.89.48.8.86.75c10.29-1.36,10.12-6.64,21.94-7.88,6.57-.69-1.19-9.65-3.45-10.66"/><g class="cls-68"><rect class="cls-69" x="1608.06" y="1022.2" width="45.19" height="46.45"/></g><path class="cls-48" d="M1540.61,1053.17l-2.31-3.15c-.52-3.61-1.57-7-1.93-10.79a27.55,27.55,0,0,1,.27-6.23c.39-1.8-1.85-1.21-2.59-.31-2.08,2.54-2.15,5.44-2.54,6.84-1-.27-4.21-2.38-5.83-1-4.34,3.67-4.15,11.77-3.61,13.79.41,1.55,4.1.4,8.42,7.26,4.38,4.24,9.83-3.62,10.12-6.4"/><path class="cls-70" d="M1531.61,1045.05a15.39,15.39,0,0,0,1.4,4.31c.93,1.49,1.89,2.87,1.89,2.87-3.41-1.44-3.33-2-6.13.17,0,0,.92-3.08,1.3-4.64s1.33-4.37,1.33-4.37Z"/><g class="cls-71"><rect class="cls-72" x="407.11" y="1074.27" width="124.58" height="325.53"/></g><g class="cls-73"><rect class="cls-74" x="477.93" y="1081.5" width="90.72" height="61.67"/></g><g class="cls-75"><rect class="cls-76" x="367.6" y="1076.64" width="143.34" height="127.59"/></g><path class="cls-77" d="M416.3,1100.56c-6.13,9.31-9.73,20.2-13.85,32.73,0,0,3.7,3.19,4.79,5.15a15.1,15.1,0,0,0,1.16,2s2.15-13.5,3.43-22.55a72.37,72.37,0,0,1,5-17.29Z"/><path class="cls-77" d="M427.25,1146c2.52,16,4.63,35,2.68,52.75,1.13.19,2.25.38,3.38.55,6.74-20.53,3.92-46.43-.34-68.39a104.56,104.56,0,0,1-5.72,15.09"/><path class="cls-48" d="M480.87,1064.55c-2.27,4.51-5.45,8-9,9.69l.12,6.57.95.81c3.74,4-.31,12.23-4.56,12-10.77.53-19-8.3-15.8-13.08l1.41-1.57.31-9.29c-.56,0-4.6-2.33-5.8-2.7s-3-2.69-3.09-5.13,3.66-1.66,3.66-1.66c-4.58-6.27-9.77-11.39-3-17s22.19-8.94,22.19-8.94l9.3-3.22c-1.19,3.2.4,13.91,2.78,20.6,2.15,6,3.6,6.93.56,13"/><path class="cls-49" d="M458.69,1070.94s5.26,9,9.58,9.84,2.12.22,3.73,0l-.12-6.56c-3,.48-5.89.25-13.19-3.3"/><path class="cls-48" d="M564.79,1117.59c1.1-1.51,5.55-7.42,7.22-8,.85-.29.88,0,1,.5a3.42,3.42,0,0,1-.44,1.91c-.69,1.16-.82,3.6-1.3,4.18,7,3.29,16.57-1,17,3-.39.72-4,3.88-4.69,4.93-2.26,3.35-3.74,4.76-19.05,4.52-.72,0-2.66.35-3.44.32a13.25,13.25,0,0,1-.11-9Z"/><path class="cls-78" d="M475.8,1042.65c-8.22,4.2-17.68-.79-22.46,4.84-2.37,2.79-2.13,6.82.52,13,.78,1.83,1.83,3.18-1.26,1.75-1.42-.66-3.76-1.58-4.56-.93-1.78,1.43-.88,4.45.54,5.42.63.43,1.83,1.08,1.83,1.08-11.05-2.09-15.66-12.06-15.5-20.09.4-20.29,14.79-23.85,26-23.91,5.49,0,10.08-4,13.87-2.65,8.84,3.09,9.75,16.4,1,21.46"/><path class="cls-48" d="M375.17,1102.94c.36-1.83,1.69-9.1,1-10.72-.36-.83-.61-.63-1-.38a3.32,3.32,0,0,0-1.11,1.61c-.38,1.3-2.08,3-2.18,3.79-7.14-2.87-10.49-12.86-13.76-10.44-.26.77-.14,5.55-.43,6.78-.93,3.94-1,6,9.59,17.06.51.52,1.56,2.19,2.11,2.75a13.31,13.31,0,0,0,6.66-6Z"/><rect class="cls-15" x="83.38" y="1178.54" width="260.78" height="33.13"/><rect class="cls-15" x="95.91" y="1211.44" width="236.72" height="182.76"/><rect class="cls-13" x="331.79" y="1211.44" width="46.83" height="182.76"/><rect class="cls-13" x="344.16" y="1178.54" width="43.02" height="33.13"/><path class="cls-9" d="M217.39,1173.75c-58.08-59.3-98.83-29.72-28.47,0Zm25.59,5.08c-86.8-90.69-140.47-57.35-96-22.31,15.8,12.43,41.4,22.31,41.4,22.31Z"/><path class="cls-9" d="M242.22,1173.75c58.08-59.3,98.84-29.72,28.47,0Zm-25.58,5.08c86.8-90.69,140.47-57.35,96-22.31-15.79,12.43-41.39,22.31-41.39,22.31Z"/><rect class="cls-13" x="95.91" y="1211.67" width="236.72" height="11.9"/><rect class="cls-17" x="203.67" y="1178.54" width="39.31" height="215.66"/><path class="cls-54" d="M1803,516.53h0a3.88,3.88,0,0,1,3.87,3.87v13.05h13.05a3.87,3.87,0,1,1,0,7.74h-13.05v13a3.87,3.87,0,1,1-7.74,0v-13h-13a3.87,3.87,0,1,1,0-7.74h13V520.4a3.88,3.88,0,0,1,3.87-3.87"/><path class="cls-55" d="M1685,659.37a11.78,11.78,0,0,0-16.64,0v0a11.76,11.76,0,0,0,0,16.63v0A11.77,11.77,0,0,0,1685,659.37Zm-8.32-10a18.3,18.3,0,0,1,13,5.36h0a18.31,18.31,0,1,1-25.9,25.9h0a18.3,18.3,0,0,1,0-25.9h0A18.27,18.27,0,0,1,1676.69,649.36Z"/><path class="cls-54" d="M1649.83,348.93h0a3.89,3.89,0,0,1,3.88,3.87v13.05h13a3.87,3.87,0,1,1,0,7.74h-13v13.05a3.88,3.88,0,0,1-7.75,0V373.59h-13a3.87,3.87,0,0,1,0-7.74h13V352.8a3.89,3.89,0,0,1,3.87-3.87"/><g class="cls-79"><rect class="cls-80" x="971.83" y="979.22" width="172.26" height="244.6"/></g><path class="cls-81" d="M1092.5,979.22h-76.57l-.28.24c-.59,12.32-.95,25-1.26,37.8,6.83,10,18.06,20,36.51,24.59,17.9,4.48,35.81,4.54,50.75,3-.57-22.14-.91-44.43-1.93-65.66Z"/><g class="cls-82"><rect class="cls-83" x="538.28" y="321.79" width="354.4" height="578.01"/></g><g class="cls-84"><rect class="cls-85" x="1224.14" y="321.79" width="353.14" height="576.92"/></g><g class="cls-86"><rect class="cls-87" x="751.8" y="380.33" width="611.95" height="618.29"/></g><g class="cls-88"><rect class="cls-89" x="986.42" y="380.33" width="377.34" height="618.29"/></g><path class="cls-81" d="M894.77,1223.82h326.6a17.65,17.65,0,0,1,17.6,17.6V1259H877.18v-17.6a17.64,17.64,0,0,1,17.59-17.6"/><path class="cls-81" d="M997.47,1223.82h223.9a17.65,17.65,0,0,1,17.6,17.6V1259H1090.2c-48.76-8.55-92.73-35.2-92.73-35.2"/><g class="cls-90"><rect class="cls-91" x="893.08" y="432.99" width="329.97" height="313.82" transform="translate(-5.94 10.78) rotate(-0.58)"/></g><path class="cls-92" d="M961.76,1205.6h192.63a9.14,9.14,0,0,1,9.1,9.11v9.11H952.65v-9.11a9.14,9.14,0,0,1,9.11-9.11"/><rect class="cls-93" x="735.66" y="311.59" width="636.15" height="56.59"/><rect class="cls-94" x="735.66" y="311.59" width="80.61" height="56.59"/><rect class="cls-95" x="794.26" y="311.22" width="81.58" height="56.59"/><rect class="cls-94" x="875.84" y="311.59" width="392.56" height="56.59"/><rect class="cls-93" x="1268.4" y="311.59" width="46.12" height="56.59"/><rect class="cls-96" x="743.32" y="368.18" width="620.27" height="12.15"/><g class="cls-97"><rect class="cls-98" x="839.27" y="1247.71" width="437.61" height="137.15"/></g><rect class="cls-99" x="827.88" y="1352.01" width="460.23" height="32.84"/></g></g></svg>