<svg xmlns="http://www.w3.org/2000/svg" viewBox="0 0 108.2 124"><defs><style>.cls-1{fill:#037cf9;}</style></defs><g id="Layer_2" data-name="Layer 2"><g id="Layer_1-2" data-name="Layer 1"><path class="cls-1" d="M54.18,124a1.23,1.23,0,0,1-.62-.17A106.44,106.44,0,0,1,4.47,59.94C-1.34,39.4.15,23.47.22,22.79a1.21,1.21,0,0,1,1-1.07C23.72,17.8,53.27.34,53.57.17a1.2,1.2,0,0,1,1.24,0c.29.17,29.78,17.61,52.28,21.55a1.21,1.21,0,0,1,1,1.1c0,.67,1.16,16.51-4.81,37a113.44,113.44,0,0,1-15.58,33,109.86,109.86,0,0,1-32.88,31A1.19,1.19,0,0,1,54.18,124ZM2.55,23.94A112,112,0,0,0,6.82,59.38a104,104,0,0,0,47.35,62,107.55,107.55,0,0,0,31.5-29.86,111.27,111.27,0,0,0,15.25-32.3A117,117,0,0,0,105.72,24C94,21.72,80.63,16.08,71.38,11.67c-8.55-4.08-15.2-7.84-17.2-9-2,1.18-8.67,4.92-17.24,9C27.71,16.05,14.35,21.7,2.55,23.94Z"/><path class="cls-1" d="M42.45,87.42a1.18,1.18,0,0,1-.78-.29L25.05,72.88a1.21,1.21,0,0,1-.15-1.69l6.78-8.27a1.24,1.24,0,0,1,.84-.44,1.19,1.19,0,0,1,.89.29L42,70.27,82.3,29.44a1.12,1.12,0,0,1,.85-.34h0a1.21,1.21,0,0,1,.86.33l7.25,7.19a1.2,1.2,0,0,1,0,1.7h0L43.31,87.06A1.11,1.11,0,0,1,42.45,87.42ZM27.56,71.81,42.45,84.56l46.24-47L83.14,32,42.94,72.8a1.21,1.21,0,0,1-1.66.06l-8.52-7.44Z"/><path class="cls-1" d="M20.31,63.18a1.21,1.21,0,0,1-1.12-.74c-5.32-12.66-5.37-28.35-5.32-29a1.2,1.2,0,0,1,.94-1.17C37,27.18,53.27,13.8,53.43,13.67a1.2,1.2,0,0,1,2,.92V46.05a1.22,1.22,0,0,1-2.43.2V17.05a103,103,0,0,1-9.25,6.07A103.9,103.9,0,0,1,16.27,34.39C16.36,38,17,51,21.43,61.49a1.22,1.22,0,0,1-.64,1.57A1.41,1.41,0,0,1,20.31,63.18Z"/><path class="cls-1" d="M54.16,110.42a1.22,1.22,0,0,1-.78-.26C40,99.54,36.41,94.71,36.26,94.52a1.21,1.21,0,0,1,2-1.44h0c0,.07,3.29,4.37,14.71,13.61V86.12a1.22,1.22,0,1,1,2.43-.19v23.28a1.2,1.2,0,0,1-.69,1.09A1.11,1.11,0,0,1,54.16,110.42Z"/><path class="cls-1" d="M54.19,110.42A1.2,1.2,0,0,1,53,109.23a1.18,1.18,0,0,1,.51-1A82.63,82.63,0,0,0,71.64,90,116.54,116.54,0,0,0,83.4,70.13a124.69,124.69,0,0,0,8.17-22.57A1.21,1.21,0,0,1,94,48l0,.12a124.53,124.53,0,0,1-8.33,23.06,119.24,119.24,0,0,1-12,20.32A85,85,0,0,1,54.9,110.22,1.2,1.2,0,0,1,54.19,110.42Z"/><path class="cls-1" d="M72.56,26.35a1,1,0,0,1-.38-.06c-14.47-4.82-18.82-10.74-19-11a1.21,1.21,0,1,1,2-1.42c.07.1,4.22,5.59,17.77,10.11a1.21,1.21,0,0,1-.38,2.35Z"/></g></g></svg>