<svg xmlns="http://www.w3.org/2000/svg" viewBox="0 0 200 195.37"><defs><style>.cls-1{fill:#037cf9;}.cls-2{opacity:0.3;}</style></defs><g id="Layer_2" data-name="Layer 2"><g id="Layer_1-2" data-name="Layer 1"><path class="cls-1" d="M102.42,179.32a1.5,1.5,0,0,1-.79-.22A135.83,135.83,0,0,1,39,97.6c-7.4-26.2-5.5-46.53-5.42-47.39a1.55,1.55,0,0,1,1.27-1.37c28.72-5,66.41-27.27,66.79-27.49a1.54,1.54,0,0,1,1.58,0c.38.22,38,22.46,66.7,27.49a1.56,1.56,0,0,1,1.28,1.41c.06.85,1.48,21.06-6.14,47.2a144.87,144.87,0,0,1-19.88,42.11,140.15,140.15,0,0,1-41.94,39.53A1.55,1.55,0,0,1,102.42,179.32ZM36.56,51.67A143.22,143.22,0,0,0,42,96.88,132.65,132.65,0,0,0,102.41,176a137.26,137.26,0,0,0,40.18-38.09A141.8,141.8,0,0,0,162.05,96.7a148.89,148.89,0,0,0,6.12-45c-15-2.86-32-10.06-43.81-15.68-10.9-5.21-19.39-10-21.94-11.52C99.86,26,91.36,30.78,80.43,36,68.65,41.61,51.61,48.82,36.56,51.67Z"/><path class="cls-1" d="M87.46,132.66a1.54,1.54,0,0,1-1-.37L65.26,114.1a1.54,1.54,0,0,1-.19-2.15l8.65-10.55a1.55,1.55,0,0,1,1.07-.56,1.52,1.52,0,0,1,1.14.37l11,9.56,51.36-52.08a1.47,1.47,0,0,1,1.09-.44h0a1.57,1.57,0,0,1,1.09.42l9.26,9.18a1.53,1.53,0,0,1,0,2.17L88.56,132.2A1.52,1.52,0,0,1,87.46,132.66Zm-19-19.92,19,16.27L146.45,69l-7.08-7L88.08,114a1.53,1.53,0,0,1-2.11.08L75.1,104.59Z"/><path class="cls-1" d="M59.21,101.73a1.54,1.54,0,0,1-1.42-.94C51,84.64,50.94,64.62,51,63.78a1.54,1.54,0,0,1,1.2-1.5c28.31-6.48,49.06-23.54,49.26-23.71A1.54,1.54,0,0,1,104,39.75V79.88a1.55,1.55,0,1,1-3.09,0v-37A130.69,130.69,0,0,1,89.1,50.62,132.33,132.33,0,0,1,54.06,65c.12,4.59.94,21.23,6.58,34.58a1.56,1.56,0,0,1-.82,2A1.66,1.66,0,0,1,59.21,101.73Z"/><path class="cls-1" d="M102.4,162a1.56,1.56,0,0,1-1-.34c-17.07-13.54-21.65-19.7-21.84-19.95a1.56,1.56,0,0,1,.33-2.16,1.54,1.54,0,0,1,2.16.33c.06.08,4.2,5.57,18.77,17.36V131a1.55,1.55,0,1,1,3.09,0v29.45a1.52,1.52,0,0,1-.88,1.39A1.44,1.44,0,0,1,102.4,162Z"/><path class="cls-1" d="M102.44,162a1.54,1.54,0,0,1-.9-2.8A105.62,105.62,0,0,0,124.7,136a148.72,148.72,0,0,0,15-25.4,159.73,159.73,0,0,0,10.42-28.79,1.54,1.54,0,1,1,3,.68,159.07,159.07,0,0,1-10.63,29.42,151.55,151.55,0,0,1-15.31,25.93,108.49,108.49,0,0,1-23.84,23.9A1.58,1.58,0,0,1,102.44,162Z"/><path class="cls-1" d="M125.87,54.75a1.36,1.36,0,0,1-.49-.08c-18.45-6.15-24-13.7-24.2-14a1.54,1.54,0,1,1,2.51-1.8c.09.12,5.38,7.13,22.66,12.89a1.54,1.54,0,0,1-.48,3Z"/><g class="cls-2"><path class="cls-1" d="M4.84,131.8H1.55a1.55,1.55,0,1,1,0-3.09H4.84a1.55,1.55,0,1,1,0,3.09Z"/><path class="cls-1" d="M17.62,131.8H13.91a1.55,1.55,0,1,1,0-3.09h3.71a1.55,1.55,0,0,1,0,3.09Z"/><path class="cls-1" d="M9.48,139.94a1.54,1.54,0,0,1-1.55-1.54v-3.3a1.55,1.55,0,1,1,3.09,0v3.3A1.54,1.54,0,0,1,9.48,139.94Z"/><path class="cls-1" d="M9.48,127.58A1.54,1.54,0,0,1,7.93,126v-3.71a1.55,1.55,0,0,1,3.09,0V126A1.54,1.54,0,0,1,9.48,127.58Z"/><path class="cls-1" d="M149.48,157.14h-3.3a1.55,1.55,0,0,1,0-3.09h3.3a1.55,1.55,0,1,1,0,3.09Z"/><path class="cls-1" d="M162.25,157.14h-3.7a1.55,1.55,0,1,1,0-3.09h3.7a1.55,1.55,0,1,1,0,3.09Z"/><path class="cls-1" d="M154.12,165.28a1.54,1.54,0,0,1-1.55-1.54v-3.3a1.55,1.55,0,0,1,3.09,0v3.3A1.54,1.54,0,0,1,154.12,165.28Z"/><path class="cls-1" d="M154.12,152.92a1.54,1.54,0,0,1-1.55-1.54v-3.71a1.55,1.55,0,1,1,3.09,0v3.71A1.54,1.54,0,0,1,154.12,152.92Z"/><path class="cls-1" d="M183.48,27.55h-3.3a1.55,1.55,0,1,1,0-3.09h3.3a1.55,1.55,0,0,1,0,3.09Z"/><path class="cls-1" d="M196.25,27.55h-3.71a1.55,1.55,0,0,1,0-3.09h3.71a1.55,1.55,0,1,1,0,3.09Z"/><path class="cls-1" d="M188.11,35.69a1.55,1.55,0,0,1-1.54-1.55v-3.3a1.55,1.55,0,0,1,3.09,0v3.3A1.55,1.55,0,0,1,188.11,35.69Z"/><path class="cls-1" d="M188.11,23.32a1.54,1.54,0,0,1-1.54-1.54V18.07a1.55,1.55,0,1,1,3.09,0v3.71A1.54,1.54,0,0,1,188.11,23.32Z"/><path class="cls-1" d="M27.72,167.44a5,5,0,1,1,5-5A5,5,0,0,1,27.72,167.44Zm0-6.92a1.92,1.92,0,1,0,1.92,1.92A1.92,1.92,0,0,0,27.72,160.52Z"/><path class="cls-1" d="M192.54,70.53a5,5,0,1,1,5-5A5,5,0,0,1,192.54,70.53Zm0-6.92a1.92,1.92,0,1,0,1.92,1.91A1.92,1.92,0,0,0,192.54,63.61Z"/></g><g class="cls-2"><path class="cls-1" d="M158.86,21.47a1.53,1.53,0,0,1-.91-.3,94.85,94.85,0,0,0-9.27-6,1.54,1.54,0,1,1,1.52-2.69,101.05,101.05,0,0,1,9.57,6.15,1.55,1.55,0,0,1-.91,2.8Z"/><path class="cls-1" d="M73.72,7.41a1.54,1.54,0,0,1-.45-3,98.41,98.41,0,0,1,52-1.69,1.55,1.55,0,1,1-.72,3A95.28,95.28,0,0,0,74.18,7.34,1.43,1.43,0,0,1,73.72,7.41Z"/><path class="cls-1" d="M36.33,29.31a1.55,1.55,0,0,1-1.07-2.67c1.53-1.44,3.13-2.85,4.75-4.19a1.54,1.54,0,0,1,2,2.38c-1.57,1.3-3.11,2.66-4.59,4.06A1.55,1.55,0,0,1,36.33,29.31Z"/><path class="cls-1" d="M6.94,111.46a1.55,1.55,0,0,1-1.53-1.35,99.43,99.43,0,0,1,0-24.78A96.81,96.81,0,0,1,17.28,49.57,1.54,1.54,0,0,1,20,51.09,93.79,93.79,0,0,0,8.47,85.71a95.5,95.5,0,0,0-.75,12,94.55,94.55,0,0,0,.76,12,1.56,1.56,0,0,1-1.34,1.73Z"/><path class="cls-1" d="M54.3,182.54a1.58,1.58,0,0,1-.78-.21,98.61,98.61,0,0,1-10.82-7.25,1.55,1.55,0,0,1,1.89-2.45,95.33,95.33,0,0,0,10.48,7,1.54,1.54,0,0,1-.77,2.88Z"/><path class="cls-1" d="M102.31,195.37A98,98,0,0,1,76.64,192a1.54,1.54,0,1,1,.81-3,95.37,95.37,0,0,0,45.1,1.13,1.55,1.55,0,0,1,.66,3A98.07,98.07,0,0,1,102.31,195.37Z"/><path class="cls-1" d="M149.44,183.05a1.54,1.54,0,0,1-.76-2.89c2.31-1.31,4.6-2.72,6.79-4.22a1.55,1.55,0,1,1,1.74,2.56c-2.27,1.54-4.62,3-7,4.35A1.6,1.6,0,0,1,149.44,183.05Z"/><path class="cls-1" d="M173.64,163.69a1.5,1.5,0,0,1-1-.4,1.55,1.55,0,0,1-.11-2.18A94.64,94.64,0,0,0,194.25,120a1.55,1.55,0,0,1,3,.73,97.72,97.72,0,0,1-22.47,42.42A1.52,1.52,0,0,1,173.64,163.69Z"/><path class="cls-1" d="M198.45,99.23a1.54,1.54,0,0,1-1.54-1.54c0-2.85-.13-5.72-.38-8.54-.21-2.31-.5-4.63-.87-6.91a1.54,1.54,0,0,1,3-.5c.39,2.35.69,4.75.91,7.13.26,2.91.39,5.88.39,8.82A1.54,1.54,0,0,1,198.45,99.23Z"/></g></g></g></svg>