<svg xmlns="http://www.w3.org/2000/svg" viewBox="0 0 106.59 104.08"><defs><style>.cls-1{fill:#fcfcfc;}.cls-2{fill:#037cf9;}.cls-3{fill:#fefefe;}.cls-4{fill:#fdfdfd;}</style></defs><g id="Layer_2" data-name="Layer 2"><g id="Layer_1-2" data-name="Layer 1"><path class="cls-1" d="M24.51,39.83a1.67,1.67,0,0,1-1.73-1.63v-.05a1.65,1.65,0,0,1,1.55-1.74h.09a1.71,1.71,0,0,1,1.76,1.66h0A1.77,1.77,0,0,1,24.51,39.83Z"/><path class="cls-2" d="M29.8,101c-2.42,1.15-4.36.44-5.45-2-.18-.41-.29-.44-.7-.3-2.9,1-5.24-.76-5.08-3.79,0-.59-.13-.62-.63-.66A3.66,3.66,0,0,1,15,88.42c1-1.65,1-1.65-.6-2.66a3.7,3.7,0,0,1-.47-.29,1.5,1.5,0,0,0-2.11-.14.86.86,0,0,0-.13.14,4.85,4.85,0,0,1-5.4.53c-1.62-.78-3.21-1.63-4.79-2.51A2.53,2.53,0,0,1,.21,80.16a1.74,1.74,0,0,1,.18-.33Q6.15,69,12,58.28A2.52,2.52,0,0,1,15.31,57a2,2,0,0,1,.32.17q2.49,1.3,4.92,2.73A4.92,4.92,0,0,1,23,63.42c.13.76.49,1,1.21,1.12a14.81,14.81,0,0,0,6.29-.86c.34-.09.43-.38.56-.64,4.87-9.8,11.23-18.57,18-27.11l.74-1a6.31,6.31,0,0,1,2.44-11.5,55,55,0,0,1-4.73-8.35,16.19,16.19,0,0,1-1.7-7.79,6.07,6.07,0,0,1,.49-2.14,2.94,2.94,0,0,1,3.57-1.67,10.27,10.27,0,0,1,2.87,1.38c1.46.92,2.92,1.85,4.39,2.76A14.16,14.16,0,0,0,59.89,9a5.6,5.6,0,0,0,5.89-1A44.74,44.74,0,0,1,76.23,1.23,12.66,12.66,0,0,1,80.79,0c3.64-.16,6,1.79,6.64,5.38a15.32,15.32,0,0,1-1,8.54,38.21,38.21,0,0,1-2.36,4.86c-.88,1.53-1.83,3-2.81,4.6l.69.36a6,6,0,0,1,4.35,4.68,5.81,5.81,0,0,1-2.07,5.93c-.61.52-.54.78-.09,1.35a163.91,163.91,0,0,1,16.23,23.64,52.21,52.21,0,0,1,5.89,15.15A20.55,20.55,0,0,1,89.74,98.36a27.62,27.62,0,0,1-4.62.39H52.6c-1.43,0-2.62,1-4.08.76-.29,0-.26.39-.35.61a4.73,4.73,0,0,1-6.08,2.77,4.34,4.34,0,0,1-1-.51c-.88-.53-1.77-1-2.62-1.63-.45-.31-.71-.3-1,.17A16.94,16.94,0,0,1,36,102.75c-2,2.16-4.76,1.63-5.89-1.14Z"/><path class="cls-2" d="M21.09,46.75A19.8,19.8,0,1,1,41,27,19.79,19.79,0,0,1,21.09,46.75Z"/><path class="cls-3" d="M57.13,36a13.42,13.42,0,0,0-3.47,7.53,6.5,6.5,0,0,0-.07,1.32,1.61,1.61,0,0,0,1.66,1.57h0a1.52,1.52,0,0,0,1.68-1.34A.28.28,0,0,1,57,45a16,16,0,0,1,.59-3.14,9.58,9.58,0,0,1,3.24-4.51,5.52,5.52,0,0,1,4-1.36,45.08,45.08,0,0,0,4.65,0,3.87,3.87,0,0,1,2.19.59,9.54,9.54,0,0,1,4.85,7.36,5.16,5.16,0,0,0,.11.88,1.62,1.62,0,0,0,1.63,1.61l.22,0a1.68,1.68,0,0,0,1.53-1.81,1.11,1.11,0,0,0,0-.19,13.25,13.25,0,0,0-2.81-7.54l-.53-.7a.81.81,0,0,1,0-.22h3.14a.93.93,0,0,1,.82.45c7.3,9.17,14.34,18.51,19.34,29.2a33.44,33.44,0,0,1,3.33,11.18A17.17,17.17,0,0,1,89.18,95a20.82,20.82,0,0,1-3.52.3H57.86a8.7,8.7,0,0,1-1,0,5.18,5.18,0,0,0,2.38-4.38c0-.4.38-.4.62-.52a4.48,4.48,0,0,0,2.75-4.71c-.07-.84.28-.92.93-1.07a1.57,1.57,0,0,1,2.06.85l.06.15a5.45,5.45,0,0,0,6.13,2.64c1.72-.4,3.42-.84,5.12-1.32a2.93,2.93,0,0,0,2.29-3.45,2.79,2.79,0,0,0-.1-.39L72.81,59.75a3,3,0,0,0-3.52-2.38,2.64,2.64,0,0,0-.48.14c-1.63.46-3.25.94-4.88,1.42a5.56,5.56,0,0,0-4.26,4.93c-.08.62-.32.83-.91,1a6.72,6.72,0,0,1-4.63-.4c-.94-.43-1.87-.88-2.77-1.36a9.24,9.24,0,0,0-9,0,2.59,2.59,0,0,1-1.79.23,23.69,23.69,0,0,0-5.7-.29c.54-1,1-2,1.52-2.85A175.79,175.79,0,0,1,53,36.5,1.14,1.14,0,0,1,54,36C55,36,55.89,36,57.13,36Z"/><path class="cls-3" d="M37.31,66.3C35.51,68,33.85,69.46,32.24,71a4.38,4.38,0,0,0-1,5,4.51,4.51,0,0,0,4.36,2.65A4.73,4.73,0,0,0,37.78,78c1.61-1,3.23-1.9,4.81-2.91a2.08,2.08,0,0,1,2.64,0c4.48,3.3,9,6.58,13.44,9.89a1.26,1.26,0,0,1,.49,1.7,1.07,1.07,0,0,1-.15.22,1.29,1.29,0,0,1-1.78.41.92.92,0,0,1-.22-.17c-2.14-1.5-4.28-3-6.4-4.53a1.76,1.76,0,0,0-2.33-.07,1.71,1.71,0,0,0-.18,2.4,1.73,1.73,0,0,0,.5.39c1.94,1.4,3.9,2.78,5.86,4.16l.45.32c.89.66,1.16,1.5.61,2.14a1.45,1.45,0,0,1-2,.22L53.36,92c-1.73-1.25-3.48-2.48-5.22-3.72-.93-.66-1.85-1.34-2.79-2a1.71,1.71,0,0,0-2.42.18l0,.06a1.69,1.69,0,0,0,.31,2.37l.18.12c1.87,1.37,3.77,2.71,5.66,4l.63.45a1.35,1.35,0,0,1-1.3,2.37l-.19-.13-4.86-3.46a1.91,1.91,0,0,0-1.53-.49,1.63,1.63,0,0,0-1.35,1.29,1.57,1.57,0,0,0,.64,1.75c1,.77,2.1,1.5,3.14,2.26s1.16,1.43.61,2.14a1.48,1.48,0,0,1-2.14.13c-.43-.28-.85-.57-1.31-.81-1-.51-1.68-1-1.41-2.46a3.39,3.39,0,0,0-3.06-3.68h-.34c-1,0-1.14-.24-1.21-1.16a3.47,3.47,0,0,0-3.53-3c-.71,0-1-.09-1-.89a3.58,3.58,0,0,0-5.35-2.81c-.54.29-.73.42-1.07-.27a3.6,3.6,0,0,0-4.77-1.76,3.64,3.64,0,0,0-1.23.94c-.41.43-.64.53-1.14.17-.86-.63-2.27-1-2.54-1.79s.83-1.85,1.34-2.78c1.94-3.52,3.91-7,5.84-10.52.36-.65.61-1,1.49-.72,2.35.68,4.67.06,7-.52A24.47,24.47,0,0,1,37.31,66.3Z"/><path class="cls-3" d="M66.74,23.33H57.12c-.39,0-.79.11-1.08-.32-2.63-3.87-5.26-7.73-6.54-12.31A9,9,0,0,1,49.14,8c0-1.17.1-1.23,1.07-.63,1.73,1,3.42,2.17,5.15,3.22A15.27,15.27,0,0,0,61,12.75,8,8,0,0,0,67.45,11,52.77,52.77,0,0,1,76.2,5a14.39,14.39,0,0,1,4.24-1.5c2.09-.35,3.2.44,3.63,2.52a10.67,10.67,0,0,1-.48,5.76A48.9,48.9,0,0,1,77.4,22.94c-.3.43-.68.35-1.07.35Z"/><path class="cls-3" d="M63,64.57a2.26,2.26,0,0,1,1.5-2.29c1.5-.5,3-.88,4.54-1.34.84-.26.71.47.81.82,1.15,4.15,2.26,8.3,3.38,12.45.77,2.84,1.5,5.69,2.33,8.51.25.85,0,1.08-.75,1.24-1.18.26-2.34.63-3.53.9a2.31,2.31,0,0,1-2.94-1.46.83.83,0,0,1-.06-.21q-2.61-8.94-5.16-17.9A4.51,4.51,0,0,1,63,64.57Z"/><path class="cls-3" d="M15.69,31.19a1.43,1.43,0,0,1,1.22-1.61H17c.84-.12,1.42.51,1.58,1.61A2.49,2.49,0,0,0,21,33.53a2.55,2.55,0,0,0,2.67-2c.37-1.6-.84-3-2.73-3.09A5.45,5.45,0,0,1,16,24.75a5.38,5.38,0,0,1,2.85-6.66c.63-.28.91-.54.88-1.25-.05-1.17.53-1.85,1.41-1.84s1.47.69,1.43,1.85a1.14,1.14,0,0,0,.87,1.25,5.24,5.24,0,0,1,3.12,4.49,1.46,1.46,0,1,1-2.88.31,2.54,2.54,0,0,0-5.08.12h0a2.53,2.53,0,0,0,2.54,2.53h.11a5.45,5.45,0,0,1,5.24,4.53A5.33,5.33,0,0,1,23.16,36c-.78.33-.61.86-.62,1.41a1.51,1.51,0,0,1-1,1.53,1.34,1.34,0,0,1-1.49-.43,1.54,1.54,0,0,1-.34-1.35c.07-.63-.16-.93-.77-1.2A5.23,5.23,0,0,1,15.69,31.19Z"/><path class="cls-1" d="M10.61,27.06A2.09,2.09,0,0,1,6.44,27a2.13,2.13,0,0,1,2.11-2.1A2.16,2.16,0,0,1,10.61,27.06Z"/><path class="cls-4" d="M35.79,27a2.11,2.11,0,0,1-2.07,2.13,2,2,0,0,1-2.08-1.92v-.08a2.07,2.07,0,0,1,2-2.2h0A2.16,2.16,0,0,1,35.79,27Z"/></g></g></svg>