<svg xmlns="http://www.w3.org/2000/svg" xmlns:xlink="http://www.w3.org/1999/xlink" viewBox="0 0 100 150"><defs><style>.cls-1,.cls-10,.cls-11,.cls-12{opacity:0.26;}.cls-1{fill:url(#linear-gradient);}.cls-2,.cls-4,.cls-6{fill:#29abe2;}.cls-2{opacity:0.42;}.cls-3,.cls-5{fill:#fff;}.cls-4{opacity:0.07;}.cls-5{opacity:0.56;}.cls-7{fill:#0071bc;}.cls-8{fill:#2285a8;}.cls-9{fill:#4d4d4d;}.cls-10{fill:url(#linear-gradient-2);}.cls-11{fill:url(#linear-gradient-3);}.cls-12{fill:url(#linear-gradient-4);}.cls-13{fill:aqua;}.cls-14{fill:#64342f;}.cls-15{fill:#222a4e;}.cls-16{fill:#330f1d;}.cls-17{fill:#ef9e78;}.cls-18{fill:#e08a68;}.cls-19{fill:#3d1623;}.cls-20{fill:#dadeea;}.cls-21{fill:#e1e4ea;}.cls-22{fill:#ced0d8;}.cls-23{fill:#161e3a;}.cls-24{fill:#333;}.cls-25{opacity:0.75;}</style><linearGradient id="linear-gradient" x1="0.92" y1="81.48" x2="102.73" y2="11.57" gradientUnits="userSpaceOnUse"><stop offset="0.01" stop-color="#005b97"/><stop offset="0.13" stop-color="#0075be"/><stop offset="0.43" stop-color="#1e9cd7"/><stop offset="0.54" stop-color="#47acde"/><stop offset="0.69" stop-color="#80c2e7"/><stop offset="0.83" stop-color="#a9d2ee"/><stop offset="0.94" stop-color="#c3dcf2"/><stop offset="1" stop-color="#cce0f4"/></linearGradient><linearGradient id="linear-gradient-2" x1="34.91" y1="41.74" x2="54.13" y2="41.74" xlink:href="#linear-gradient"/><linearGradient id="linear-gradient-3" x1="34.91" y1="44.41" x2="54.13" y2="44.41" xlink:href="#linear-gradient"/><linearGradient id="linear-gradient-4" x1="34.91" y1="47.23" x2="54.13" y2="47.23" xlink:href="#linear-gradient"/></defs><g id="Layer_2" data-name="Layer 2"><g id="Layer_1-2" data-name="Layer 1"><rect class="cls-1" width="100" height="95.56"/><rect class="cls-2" y="95.56" width="100" height="54.44"/><path class="cls-3" d="M12.4,54.41H11.27V53.28A.26.26,0,0,0,11,53a.26.26,0,0,0-.26.26v1.13H9.63a.26.26,0,0,0-.26.26.26.26,0,0,0,.26.25h1.13v1.13a.26.26,0,0,0,.26.26.26.26,0,0,0,.25-.26V54.92H12.4a.26.26,0,0,0,.26-.25A.26.26,0,0,0,12.4,54.41Z"/><path class="cls-3" d="M10.25,72.51H9.12V71.38a.26.26,0,0,0-.52,0v1.13H7.47a.26.26,0,0,0,0,.52H8.6v1.12a.26.26,0,0,0,.52,0V73h1.13a.26.26,0,0,0,0-.52Z"/><path class="cls-3" d="M32.39,56.32h-.85v-.85a.19.19,0,0,0-.19-.19.19.19,0,0,0-.2.19v.85h-.84a.19.19,0,1,0,0,.38h.84v.85a.19.19,0,0,0,.2.19.19.19,0,0,0,.19-.19V56.7h.85a.19.19,0,1,0,0-.38Z"/><path class="cls-3" d="M29.74,30.44h-.85v-.85a.19.19,0,1,0-.38,0v.85h-.85a.19.19,0,1,0,0,.38h.85v.85a.19.19,0,0,0,.38,0v-.85h.85a.19.19,0,0,0,0-.38Z"/><path class="cls-3" d="M68.49,62.81h-.85V62a.19.19,0,0,0-.19-.19.19.19,0,0,0-.2.19v.85h-.84a.19.19,0,0,0-.2.19.2.2,0,0,0,.2.19h.84V64a.2.2,0,0,0,.2.19.2.2,0,0,0,.19-.19v-.85h.85a.2.2,0,0,0,.19-.19A.19.19,0,0,0,68.49,62.81Z"/><path class="cls-3" d="M86,52.9h-.85v-.85a.18.18,0,0,0-.19-.19.19.19,0,0,0-.19.19v.85H84a.19.19,0,0,0,0,.38h.85v.85a.2.2,0,0,0,.19.19.19.19,0,0,0,.19-.19v-.85H86a.19.19,0,0,0,0-.38Z"/><path class="cls-3" d="M30.7,78.81h-.85V78a.19.19,0,0,0-.38,0v.85h-.85a.2.2,0,0,0-.19.19.2.2,0,0,0,.19.2h.85V80a.19.19,0,1,0,.38,0V79.2h.85a.19.19,0,0,0,.19-.2A.19.19,0,0,0,30.7,78.81Z"/><path class="cls-3" d="M76.6,79.58h-.84v-.85a.19.19,0,0,0-.2-.19.19.19,0,0,0-.19.19v.85h-.85a.19.19,0,0,0-.19.19.2.2,0,0,0,.19.19h.85v.85a.2.2,0,0,0,.19.19.2.2,0,0,0,.2-.19V80h.84a.2.2,0,0,0,.2-.19A.19.19,0,0,0,76.6,79.58Z"/><path class="cls-3" d="M75.54,30.79h-.85V30a.19.19,0,0,0-.19-.2.2.2,0,0,0-.19.2v.84h-.85a.2.2,0,0,0-.19.2.2.2,0,0,0,.19.19h.85V32a.2.2,0,0,0,.19.2.19.19,0,0,0,.19-.2v-.84h.85a.19.19,0,0,0,.19-.19A.19.19,0,0,0,75.54,30.79Z"/><path class="cls-3" d="M92.48,75.38h-.85v-.85a.19.19,0,0,0-.19-.19.19.19,0,0,0-.2.19v.85H90.4a.19.19,0,0,0-.2.19.2.2,0,0,0,.2.19h.84v.85a.2.2,0,0,0,.2.19.2.2,0,0,0,.19-.19v-.85h.85a.2.2,0,0,0,.19-.19A.19.19,0,0,0,92.48,75.38Z"/><rect class="cls-4" x="61.02" y="32.86" width="28.14" height="24.62" rx="12.31"/><rect class="cls-4" x="62.55" y="62.38" width="23.24" height="22.48" rx="11.24"/><rect class="cls-4" x="10.74" y="60.76" width="26.57" height="22.48" rx="11.24"/><rect class="cls-4" x="10.45" y="30.57" width="42.95" height="22.48" rx="11.24"/><rect class="cls-5" x="60.4" y="61.1" width="23.43" height="21.61" rx="10.8"/><circle class="cls-6" cx="71.71" cy="71.97" r="7.66"/><path class="cls-3" d="M71.71,80.12A8.15,8.15,0,1,1,79.85,72,8.16,8.16,0,0,1,71.71,80.12Zm0-15.33A7.18,7.18,0,1,0,78.89,72,7.19,7.19,0,0,0,71.71,64.79Z"/><circle class="cls-7" cx="71.53" cy="71.91" r="0.81"/><path class="cls-7" d="M75.78,66.35h0a.21.21,0,0,0-.3,0l-4,5a.22.22,0,0,0,0,.3h0a.21.21,0,0,0,.29,0l4-5A.22.22,0,0,0,75.78,66.35Z"/><path class="cls-7" d="M75.67,74.54l-3.9-1.79a.46.46,0,0,1-.22-.6h0a.47.47,0,0,1,.6-.22L76,73.72a.46.46,0,0,1,.23.6h0A.45.45,0,0,1,75.67,74.54Z"/><rect class="cls-5" x="12.35" y="58.47" width="27.15" height="23" rx="11.5"/><polygon class="cls-8" points="22.19 73.99 19.87 78.51 21.14 78.55 24.05 75.59 22.19 73.99"/><polygon class="cls-8" points="28.57 74.24 30.58 78.91 29.31 78.87 26.6 75.71 28.57 74.24"/><circle class="cls-6" cx="25.62" cy="68.98" r="7.44"/><circle class="cls-3" cx="25.62" cy="68.98" r="6.51"/><circle class="cls-6" cx="25.62" cy="68.98" r="4.98"/><circle class="cls-3" cx="25.62" cy="68.98" r="3.66"/><circle class="cls-6" cx="25.62" cy="68.98" r="2.13"/><path class="cls-9" d="M25.67,69h0a.24.24,0,0,0,.33.1L36,63.8a.25.25,0,0,0,.1-.33h0a.24.24,0,0,0-.33-.1l-10,5.34A.24.24,0,0,0,25.67,69Z"/><polygon class="cls-7" points="35.74 63.42 36.07 61.22 32.94 63.15 32.44 65.29 35.74 63.42"/><polygon class="cls-6" points="35.98 63.83 38 64.77 34.66 66.32 32.6 65.56 35.98 63.83"/><rect class="cls-5" x="12.79" y="28.86" width="43.77" height="22.36" rx="11.18"/><rect class="cls-10" x="34.91" y="40.95" width="19.22" height="1.57" rx="0.78"/><rect class="cls-11" x="34.91" y="43.62" width="19.22" height="1.57" rx="0.78"/><rect class="cls-12" x="34.91" y="46.45" width="19.22" height="1.57" rx="0.78"/><path class="cls-13" d="M24.32,33a7.59,7.59,0,1,0,7.59,7.59A7.59,7.59,0,0,0,24.32,33Zm0,13.28A5.69,5.69,0,1,1,30,40.57,5.7,5.7,0,0,1,24.32,46.26Z"/><path class="cls-7" d="M28.43,45.92l-.87-.67a5.7,5.7,0,0,1-8.94-4.68,6,6,0,0,1,2.72-4.72S20,34.38,20,34.38a7.4,7.4,0,0,0-3.25,6.19,7.59,7.59,0,0,0,12.5,5.79Z"/><path class="cls-6" d="M28.52,44.41A5.69,5.69,0,0,1,18.64,41h-.59c-.44,0-.88,0-1.32-.06a7.6,7.6,0,0,0,7.59,7.27A6.6,6.6,0,0,0,30,45.62S28.53,44.4,28.52,44.41Z"/><path class="cls-13" d="M40.71,32.26a3.7,3.7,0,1,0,.34,5.23A3.7,3.7,0,0,0,40.71,32.26Zm-4.27,4.87a2.77,2.77,0,1,1,3.92-.25A2.76,2.76,0,0,1,36.44,37.13Z"/><path class="cls-7" d="M38.06,38.33,38,37.8a2.72,2.72,0,0,1-1.52-.67,2.76,2.76,0,0,1-.25-3.91,2.9,2.9,0,0,1,2.51-.86s0-1,0-1a3.58,3.58,0,0,0-3.18,1.23,3.69,3.69,0,0,0,.34,5.22,3.76,3.76,0,0,0,2.38.92Z"/><path class="cls-6" d="M38.58,37.81a2.78,2.78,0,0,1-2.51-4.45,1.9,1.9,0,0,1-.21-.19c-.17-.14-.32-.29-.47-.44a3.69,3.69,0,0,0,.44,5.1,3.19,3.19,0,0,0,2.9.89Z"/><path class="cls-13" d="M50.9,32.26a3.7,3.7,0,1,0,.36,5.22A3.69,3.69,0,0,0,50.9,32.26Zm-4.26,4.88a2.78,2.78,0,1,1,3.92-.27A2.78,2.78,0,0,1,46.64,37.14Z"/><path class="cls-7" d="M48.27,38.33l-.11-.52a2.86,2.86,0,0,1-1.52-.67,2.78,2.78,0,0,1-.26-3.92,2.93,2.93,0,0,1,2.51-.86s0-1,0-1a3.64,3.64,0,0,0-3.18,1.23A3.72,3.72,0,0,0,46,37.84a3.65,3.65,0,0,0,2.38.91C48.37,38.61,48.31,38.47,48.27,38.33Z"/><path class="cls-6" d="M48.78,37.8a2.77,2.77,0,0,1-2.52-4.43l-.21-.19c-.17-.15-.32-.29-.47-.45A3.72,3.72,0,0,0,46,37.84a3.21,3.21,0,0,0,2.9.88S48.79,37.8,48.78,37.8Z"/><ellipse class="cls-2" cx="51.76" cy="113.52" rx="16.6" ry="5.86"/><path class="cls-14" d="M45.17,110.68a1.88,1.88,0,0,1,1.36-.84l.26,0a.84.84,0,0,1,.79.51l2.5,2.93a1.56,1.56,0,0,1-1.14,1.9l-.57.15a1.18,1.18,0,0,1-1.46-.73L45,112.86A2.67,2.67,0,0,1,45.17,110.68Z"/><path class="cls-14" d="M59.08,110.68a1.89,1.89,0,0,0-1.37-.84l-.25,0a.82.82,0,0,0-.79.51l-2.51,2.93a1.57,1.57,0,0,0,1.14,1.9l.58.15a1.18,1.18,0,0,0,1.46-.73l1.93-1.71A2.71,2.71,0,0,0,59.08,110.68Z"/><path class="cls-15" d="M44.94,79.58a20,20,0,0,0-1.1,5.69c-.06,2.61,2.9,24.59,3.46,28.3a.77.77,0,0,0,.69.65l.91.07a1,1,0,0,0,1.05-1l.6-24.39,3.56,24.78s2.38,1,3-.31c.3-.61,0-29-.55-31.47s-.91-2.52-.91-2.52Z"/><path class="cls-16" d="M47,60s-3.19-4.52-2.58-7.63,1.35-3.36,2.34-3.62,3.57-.65,4.43-.13a1.77,1.77,0,0,0,2.21-.52c.49-.52,2-.13,2.09,1A4.62,4.62,0,0,1,55,51.45s-1.11,3.49-1.47,4.91S52.28,60,52.28,60s-.73.52-1.59,1S47,60.5,47,60Z"/><path class="cls-17" d="M53.31,56.11s.25-.74.85-.38.45,1.41.11,1.76-1,1-1.08,1a1,1,0,0,1-.26-.29Z"/><path class="cls-17" d="M45.4,56.11s-.24-.74-.84-.38-.46,1.41-.12,1.76,1,1,1.08,1a.89.89,0,0,0,.27-.29Z"/><rect class="cls-18" x="47.69" y="60.43" width="4.1" height="3.9"/><path class="cls-19" d="M54.72,52.32a5.93,5.93,0,0,1-2.57,1.73,5.63,5.63,0,0,1-3.07.72,7.58,7.58,0,0,1-4-1.14L44.34,53C44.21,56.09,47,60,47,60c0,.51,2.83,1.55,3.7,1s1.59-1,1.59-1,.87-2.2,1.24-3.63c.25-1,.87-3,1.22-4.1Z"/><path class="cls-20" d="M46.43,63.29h7.1s4.19.86,4.06,1.38c-.27,1.1-1.46,10.5-1.93,14.18a1.63,1.63,0,0,1-1.54,1.49l-7.93.14A1.62,1.62,0,0,1,44.6,79L42.88,63.19S45.24,63.29,46.43,63.29Z"/><polygon class="cls-21" points="45.79 63.33 47.02 61.81 52.59 61.71 53.88 63.33 45.79 63.33"/><path class="cls-22" d="M55.76,72.37A11.22,11.22,0,0,1,50,73.66a13.29,13.29,0,0,1-6.11-1.49l.69,6.91a1.61,1.61,0,0,0,1.59,1.44l7.93-.13a1.64,1.64,0,0,0,1.54-1.5c.2-1.58.54-4.22.87-6.8C56.28,72.19,56,72.29,55.76,72.37Z"/><path class="cls-17" d="M56.59,77.33l-.72.29s-.14-1.05-.14-1.38a6.11,6.11,0,0,1,.19-1.06s-.24-.42-.48-.12A2.4,2.4,0,0,0,55,76.45c.05.42-.14,1.22-.14,1.6a3.49,3.49,0,0,0,0,1.43,3.9,3.9,0,0,0,.52,1.26c.24.25,1.1.25,1.14,0s.77-1.14.62-1.35A16.48,16.48,0,0,1,56.59,77.33Z"/><path class="cls-20" d="M57.16,64.33s6.55,5.39,7.24,6.15a2.66,2.66,0,0,1,.47,3c-.38,1-7.62,6.67-7.62,6.67a9.71,9.71,0,0,1-1-2.86l4.76-5.23-4.57-3.53Z"/><path class="cls-23" d="M50.74,89.19a13.23,13.23,0,0,0,3-1S51.5,92,51.4,94Z"/><path class="cls-23" d="M50.31,99.05a13.94,13.94,0,0,1-5.1-1.19c.87,6.3,1.82,13.64,2.13,15.71a.78.78,0,0,0,.7.65l.9.07a1,1,0,0,0,1.06-1Z"/><path class="cls-23" d="M57,98.14a10.12,10.12,0,0,1-4.89.86l2.09,14.68s2.38,1,3-.31c.17-.33.11-8.5,0-15.89C57.08,97.51,57,98.12,57,98.14Z"/><path class="cls-22" d="M60.79,72.46a15.62,15.62,0,0,0-.85,2.29c-.17,1.25-.33,2.5-.5,3.75-1.25,1-2.22,1.79-2.22,1.79a9.87,9.87,0,0,1-.95-2.86Z"/><path class="cls-17" d="M38.85,52.55s.89-2.72,2-2.65,2,.82,2,1.61a4.85,4.85,0,0,1-.63,1.8,1,1,0,0,1-.6.51.73.73,0,0,0-.42.31c-.19.35-.73,2.08-.73,2.08l-1.94-.5Z"/><path class="cls-20" d="M38.42,54.56s1.94-1.23,3.07.1l-.31,6.55,1.84,2,1,7.84a72.93,72.93,0,0,1-4.74-6.31c-.22-.41-.45-.79-.67-1.13A5.65,5.65,0,0,1,37.75,60Z"/><path class="cls-22" d="M39.92,59.22l1.31,1,.26-5.57c-1.13-1.33-3.07-.1-3.07-.1L38,58.26A15.31,15.31,0,0,1,39.92,59.22Z"/><path class="cls-6" d="M96.29,92.11s-3.84.35-4.54,3.49C91.75,95.6,95.41,97,96.29,92.11Z"/><path class="cls-6" d="M94.17,87.67s-3.46,1.7-3,4.88C91.18,92.55,95.1,92.54,94.17,87.67Z"/><path class="cls-6" d="M86.86,92.11s3.84.35,4.54,3.49C91.4,95.6,87.73,97,86.86,92.11Z"/><path class="cls-6" d="M96.29,96.13s-3.84.35-4.54,3.49C91.75,99.62,95.41,101,96.29,96.13Z"/><path class="cls-6" d="M86.86,96.13s3.84.35,4.54,3.49C91.4,99.62,87.73,101,86.86,96.13Z"/><path class="cls-6" d="M96.29,100.67s-3.84.35-4.54,3.49C91.75,104.16,95.41,105.56,96.29,100.67Z"/><path class="cls-6" d="M86.86,100.67s3.84.35,4.54,3.49C91.4,104.16,87.73,105.56,86.86,100.67Z"/><path class="cls-6" d="M96.29,104s-3.84.35-4.54,3.5C91.75,107.48,95.41,108.87,96.29,104Z"/><path class="cls-6" d="M86.86,104s3.84.35,4.54,3.5C91.4,107.48,87.73,108.87,86.86,104Z"/><rect class="cls-6" x="91.22" y="91.81" width="0.57" height="16.72"/><path class="cls-6" d="M76.28,90.74s-2.39.22-2.83,2.17C73.45,92.91,75.73,93.78,76.28,90.74Z"/><path class="cls-6" d="M75,88S72.8,89,73.1,91C73.1,91,75.54,91,75,88Z"/><path class="cls-6" d="M70.41,90.74s2.39.22,2.82,2.17C73.23,92.91,71,93.78,70.41,90.74Z"/><path class="cls-6" d="M76.28,93.24s-2.39.22-2.83,2.17C73.45,95.41,75.73,96.28,76.28,93.24Z"/><path class="cls-6" d="M70.41,93.24s2.39.22,2.82,2.17C73.23,95.41,71,96.28,70.41,93.24Z"/><path class="cls-6" d="M76.28,96.06s-2.39.22-2.83,2.18C73.45,98.24,75.73,99.1,76.28,96.06Z"/><path class="cls-6" d="M70.41,96.06s2.39.22,2.82,2.18C73.23,98.24,71,99.1,70.41,96.06Z"/><path class="cls-6" d="M76.28,98.13s-2.39.21-2.83,2.17C73.45,100.3,75.73,101.17,76.28,98.13Z"/><path class="cls-6" d="M70.41,98.13s2.39.21,2.82,2.17C73.23,100.3,71,101.17,70.41,98.13Z"/><rect class="cls-6" x="73.12" y="90.55" width="0.35" height="10.4"/><path class="cls-6" d="M7,96.29s3.26.3,3.85,3C10.83,99.26,7.72,100.45,7,96.29Z"/><path class="cls-6" d="M8.78,92.52s2.94,1.44,2.53,4.15C11.31,96.67,8,96.66,8.78,92.52Z"/><path class="cls-6" d="M15,96.29s-3.27.3-3.86,3C11.13,99.26,14.25,100.45,15,96.29Z"/><path class="cls-6" d="M7,99.7s3.26.3,3.85,3C10.83,102.67,7.72,103.86,7,99.7Z"/><path class="cls-6" d="M15,99.7s-3.27.3-3.86,3C11.13,102.67,14.25,103.86,15,99.7Z"/><path class="cls-6" d="M7,103.56s3.26.3,3.85,3C10.83,106.53,7.72,107.72,7,103.56Z"/><path class="cls-6" d="M15,103.56s-3.27.3-3.86,3C11.13,106.53,14.25,107.72,15,103.56Z"/><path class="cls-6" d="M7,106.38s3.26.3,3.85,3C10.83,109.35,7.72,110.53,7,106.38Z"/><path class="cls-6" d="M15,106.38s-3.27.3-3.86,3C11.13,109.35,14.25,110.53,15,106.38Z"/><rect class="cls-6" x="10.8" y="96.03" width="0.48" height="14.21" transform="translate(22.08 206.27) rotate(180)"/><path class="cls-6" d="M23.51,91.64s2.45.22,2.9,2.23C26.41,93.87,24.07,94.76,23.51,91.64Z"/><path class="cls-6" d="M24.86,88.81s2.21,1.08,1.91,3.11C26.77,91.92,24.27,91.92,24.86,88.81Z"/><path class="cls-6" d="M29.52,91.64s-2.45.22-2.89,2.23C26.63,93.87,29,94.76,29.52,91.64Z"/><path class="cls-6" d="M23.51,94.2s2.45.22,2.9,2.23C26.41,96.43,24.07,97.32,23.51,94.2Z"/><path class="cls-6" d="M29.52,94.2s-2.45.22-2.89,2.23C26.63,96.43,29,97.32,29.52,94.2Z"/><path class="cls-6" d="M23.51,97.09s2.45.23,2.9,2.23C26.41,99.32,24.07,100.21,23.51,97.09Z"/><path class="cls-6" d="M29.52,97.09s-2.45.23-2.89,2.23C26.63,99.32,29,100.21,29.52,97.09Z"/><path class="cls-6" d="M23.51,99.21s2.45.22,2.9,2.22C26.41,101.43,24.07,102.32,23.51,99.21Z"/><path class="cls-6" d="M29.52,99.21s-2.45.22-2.89,2.22C26.63,101.43,29,102.32,29.52,99.21Z"/><rect class="cls-6" x="26.38" y="91.45" width="0.36" height="10.65" transform="translate(53.12 193.55) rotate(180)"/><circle class="cls-24" cx="43.38" cy="46.93" r="3"/><path class="cls-24" d="M41.4,48.92h1.14a0,0,0,0,1,0,0v2a.57.57,0,0,1-.57.57h0a.57.57,0,0,1-.57-.57v-2A0,0,0,0,1,41.4,48.92Z" transform="translate(23.44 -12.56) rotate(23.45)"/><circle class="cls-6" cx="43.42" cy="46.92" r="2.5"/><g class="cls-25"><path class="cls-3" d="M44.64,45.4a.29.29,0,0,0-.31.49h0c.6.41.77.75.72,1.09s.2.5.4.28.05-1-.13-1.26A2.06,2.06,0,0,0,44.64,45.4Z"/><path class="cls-3" d="M44.07,45.36a.33.33,0,0,1-.44.17.33.33,0,1,1,.44-.17Z"/></g><rect class="cls-5" x="59.18" y="31.65" width="27.91" height="23.64" rx="11.82"/><rect class="cls-6" x="64.87" y="47.55" width="3.23" height="5.73"/><rect class="cls-6" x="69.83" y="44.74" width="2.93" height="8.54"/><rect class="cls-6" x="74.84" y="41.52" width="2.99" height="11.77"/><rect class="cls-6" x="79.62" y="37.63" width="2.93" height="15.65"/><polygon class="cls-6" points="77.83 32.7 73.81 34.59 75.45 35.74 72.28 40.29 68.89 39.09 64.95 44.75 65.32 45.01 69.06 39.62 72.45 40.83 75.82 35.99 77.46 37.13 77.83 32.7"/></g></g></svg>