<svg xmlns="http://www.w3.org/2000/svg" viewBox="0 0 500 337.99"><defs><style>.cls-1{fill:#ecf4ff;}.cls-1,.cls-11,.cls-12,.cls-13,.cls-14,.cls-15,.cls-18,.cls-19,.cls-2,.cls-22,.cls-25,.cls-26,.cls-27,.cls-28,.cls-3,.cls-30,.cls-31,.cls-9{fill-rule:evenodd;}.cls-2{fill:#0f4884;}.cls-20,.cls-3{fill:#b1d2fc;}.cls-27,.cls-4{fill:#1b326b;}.cls-26,.cls-5{fill:#2a4589;}.cls-14,.cls-6{fill:#7ba9e3;}.cls-7{fill:none;stroke:#7ba9e3;stroke-miterlimit:22.93;stroke-width:0.22px;}.cls-19,.cls-8{fill:#f7aaac;}.cls-23,.cls-9{fill:#4d69af;}.cls-10,.cls-15{fill:#70cbd9;}.cls-11,.cls-17{fill:#f6597b;}.cls-12{fill:#f79646;}.cls-13{fill:#71bdf8;}.cls-16{fill:#6494d0;}.cls-18{fill:#ddeaf8;}.cls-21{fill:#f48120;}.cls-22{fill:#4d6bb7;}.cls-24,.cls-28{fill:#fff;}.cls-25{fill:#ea7e2f;}.cls-29{fill:#f79d2c;}.cls-30{fill:#ea8287;}.cls-31{fill:#4563ac;}</style></defs><g id="Layer_2" data-name="Layer 2"><g id="Layer_1-2" data-name="Layer 1"><path class="cls-1" d="M227.58,30c-24.5,9.25-47.79,29-66.14,47.5-38.21,38.43-43.91,46.51-91,78.78-27.47,18.8-49.13,34.71-59.8,56-30,59.75,5.73,124.29,80.54,124.29H395.27s35.78.82,61.88-31.11C545.63,197.17,398.88-34.66,227.58,30"/><path class="cls-2" d="M44.21,336.53H486.36a.73.73,0,1,1,0,1.46H44.21a.73.73,0,1,1,0-1.46"/><path class="cls-3" d="M129.4,286.77c-1.23,26.77-4.49,33.54-27.12,48.8h100.3c-22.63-15.26-25.89-22-27.13-48.8l-23-2.18Z"/><path class="cls-3" d="M18.47,75.06H288.12c9.67,0,17.58,8.8,17.58,19.56V267.74h0v2.49c0,10.76-7.91,19.56-17.58,19.56H18.47C8.8,289.79.89,281,.89,270.23V94.62c0-10.76,7.91-19.56,17.58-19.56"/><path class="cls-4" d="M9.57,85.26h287.1a.23.23,0,0,1,.22.24V257.37H9.36V85.5a.23.23,0,0,1,.21-.24"/><rect class="cls-5" x="9.36" y="224.08" width="287.53" height="33.29"/><rect class="cls-6" x="128.61" y="289.79" width="47.61" height="8.48"/><rect class="cls-7" x="128.61" y="289.79" width="47.61" height="8.48"/><rect class="cls-6" x="18.15" y="231.58" width="221.17" height="0.38"/><rect class="cls-6" x="18.15" y="247.37" width="221.17" height="0.38"/><path class="cls-8" d="M248.7,246.73c3-.28,6-2.68,6-2.69l.53.58s-3.27,2.59-6.54,2.87Zm-230.42,2c0-.07,9.69-24.28,16.54-20a31.75,31.75,0,0,1,6.57,5.75c2,2.19,3.58,3.84,5.48,3.52a26.57,26.57,0,0,1,6.49-.43,10.43,10.43,0,0,1,6.42,2.61,18.66,18.66,0,0,1,2.84,3.5,11.19,11.19,0,0,0,6,5C71.92,250,75.25,243,78,237.08c1.5-3.18,2.86-6,4.06-7.21l.21-.19a7.12,7.12,0,0,1,5.34-2.05,8.41,8.41,0,0,1,4.94,2.22l.22.21a37.48,37.48,0,0,0,8.93,5.69A20.4,20.4,0,0,0,109.8,238c4.24,0,6.83,4.14,8.91,7.47a14.5,14.5,0,0,0,2.59,3.49l.12.09c2.55,2,6.39,4.89,9.07,3.68,1.12-.51,3.07-2.76,5.35-5.38,3.42-3.95,7.55-8.71,11-10,2.84-1,6.58-3.61,9.88-5.89s6.06-4.18,7.4-4.18c1.85,0,7,4.94,11.15,9,2,1.91,3.74,3.61,4.81,4.46s2.17,1.88,3.49,3.09c3.27,3,7.16,6.56,8.58,6.31,1-.18,3.6-2.16,6.3-4.54a53,53,0,0,0,7.19-7.44,22.64,22.64,0,0,1,5.75-6.24,13.37,13.37,0,0,1,11.51-1.8l.75.22v.8c-.32-.1-.64-.2-1-.28a12.54,12.54,0,0,0-10.8,1.67,22.22,22.22,0,0,0-5.55,6,52.15,52.15,0,0,1-7.32,7.59c-2.79,2.47-5.53,4.53-6.7,4.74-1.85.33-5.9-3.39-9.32-6.52-1.31-1.2-2.52-2.31-3.45-3-1.1-.88-2.87-2.59-4.86-4.51-4.07-3.94-9.06-8.75-10.56-8.75-1.07,0-3.79,1.88-6.91,4-3.34,2.31-7.13,4.93-10.07,6-3.26,1.18-7.32,5.85-10.67,9.72-2.34,2.7-4.35,5-5.63,5.59-3.16,1.43-7.24-1.7-9.95-3.77l-.13-.1a15,15,0,0,1-2.77-3.69c-2-3.16-4.43-7.09-8.2-7.09a21.4,21.4,0,0,1-8.44-2.29,38.73,38.73,0,0,1-9.14-5.83l-.21-.2a7.55,7.55,0,0,0-4.43-2,6.34,6.34,0,0,0-4.71,1.83l-.19.18c-1.1,1.07-2.43,3.87-3.9,7-2.93,6.19-6.43,13.58-10.51,12A11.91,11.91,0,0,1,61.92,244a18.15,18.15,0,0,0-2.72-3.36,9.63,9.63,0,0,0-5.91-2.39,25.4,25.4,0,0,0-6.27.42c-2.36.4-4-1.4-6.25-3.77a31.13,31.13,0,0,0-6.4-5.62c-6-3.73-15.29,19.57-15.32,19.64Z"/><path class="cls-9" d="M20,91.75H91.29a2.55,2.55,0,0,1,2.54,2.54h0a2.55,2.55,0,0,1-2.54,2.54H20a2.55,2.55,0,0,1-2.54-2.54h0A2.55,2.55,0,0,1,20,91.75"/><path class="cls-9" d="M20,102.88H55.48A2.55,2.55,0,0,1,58,105.42h0A2.56,2.56,0,0,1,55.48,108H20a2.56,2.56,0,0,1-2.54-2.55h0A2.55,2.55,0,0,1,20,102.88"/><rect class="cls-10" x="72.78" y="144.2" width="8.53" height="38.11"/><rect class="cls-10" x="76.58" y="138.32" width="0.92" height="49.87"/><rect class="cls-10" x="85.09" y="125.86" width="8.53" height="11.45"/><rect class="cls-10" x="88.89" y="118.28" width="0.92" height="33.29"/><rect class="cls-10" x="143.8" y="143.92" width="8.53" height="38.11"/><rect class="cls-10" x="147.6" y="138.03" width="0.92" height="49.87"/><rect class="cls-10" x="156.1" y="124.19" width="8.53" height="19.5"/><rect class="cls-10" x="159.91" y="124.19" width="0.92" height="27.55"/><rect class="cls-10" x="170.28" y="116.86" width="8.53" height="9.14"/><rect class="cls-10" x="174.09" y="106.81" width="0.92" height="34.34"/><rect class="cls-10" x="213.63" y="126.34" width="8.53" height="14.32"/><rect class="cls-10" x="217.44" y="121.93" width="0.92" height="24.51"/><rect class="cls-10" x="24.26" y="167.27" width="8.53" height="38.11"/><rect class="cls-10" x="28.06" y="150.38" width="0.92" height="57.73"/><path class="cls-11" d="M189.18,128.78h.92v1.77h3.81V142H190.1v1.77h-.92V142h-3.8V130.55h3.8Zm14.26,4.44h.92v8.4h3.8v20.6h-3.8v8.4h-.92v-8.4h-3.81v-20.6h3.81Zm-100.3,6.26h.92v3.18h3.8v20.59h-3.8v3.18h-.92v-3.18H99.33V142.66h3.81Zm14.78,19.6h.93v3.14h3.8v20.33h-3.8v3.13h-.93v-3.13h-3.8V162.22h3.8Zm14.26,3.2h.92v17.95h3.81v22.39H133.1v3.18h-.92v-3.18h-3.8V180.23h3.8Zm-84.8,1.41h.93v3.18h3.8v20.6h-3.8v3.17h-.93v-3.17h-3.8v-20.6h3.8ZM62.17,179h.93v6.1h3.8v11.45H63.1v6.11h-.93v-6.11h-3.8V185.06h3.8Zm166.15-24.87h3.8v-8.4h.93v8.4h3.8v20.6h-3.8v8.4h-.93v-8.4h-3.8Z"/><polygon class="cls-12" points="132.47 208.78 136.03 215.91 128.9 215.91 132.47 208.78"/><polygon class="cls-13" points="174.53 100.77 171.23 94.17 177.83 94.17 174.53 100.77"/><polygon class="cls-13" points="217.54 118.47 214.24 111.87 220.84 111.87 217.54 118.47"/><polygon class="cls-12" points="63.06 206.35 66.63 213.48 59.5 213.48 63.06 206.35"/><polygon class="cls-12" points="203.61 176.36 207.18 183.49 200.05 183.49 203.61 176.36"/><rect class="cls-5" x="245.13" y="85.5" width="51.76" height="171.87"/><path class="cls-14" d="M286.8,198.87a16,16,0,1,1-16-16v7.16a8.82,8.82,0,1,0,8.81,8.82Z"/><path class="cls-11" d="M272.68,181.85A16,16,0,0,1,288,197.16h-7.17a8.83,8.83,0,0,0-8.15-8.14Z"/><path class="cls-15" d="M255.24,240.8h10.33a4.14,4.14,0,0,1,4.13,4.12h0a4.14,4.14,0,0,1-4.13,4.13H255.24a4.14,4.14,0,0,1-4.13-4.13h0a4.14,4.14,0,0,1,4.13-4.12"/><path class="cls-11" d="M277.1,240.8h10.33a4.14,4.14,0,0,1,4.13,4.12h0a4.14,4.14,0,0,1-4.13,4.13H277.1a4.14,4.14,0,0,1-4.13-4.13h0a4.14,4.14,0,0,1,4.13-4.12"/><rect class="cls-16" x="251.09" y="224.08" width="39.89" height="9.6"/><rect class="cls-6" x="251.09" y="224.08" width="19.95" height="9.6"/><path class="cls-9" d="M255.87,117.81h8.79a2.55,2.55,0,0,1,0,5.09h-8.79a2.55,2.55,0,0,1,0-5.09"/><path class="cls-9" d="M272.26,117.81h15.13a2.55,2.55,0,0,1,0,5.09H272.26a2.55,2.55,0,0,1,0-5.09"/><rect class="cls-10" x="254.02" y="132.84" width="9.95" height="3.57"/><rect class="cls-10" x="254.02" y="138.03" width="18.25" height="3.57"/><rect class="cls-10" x="254.02" y="143.22" width="26.79" height="3.57"/><rect class="cls-10" x="254.02" y="148.42" width="33.78" height="3.57"/><rect class="cls-17" x="254.02" y="153.61" width="22.15" height="3.57"/><rect class="cls-17" x="254.02" y="158.81" width="29.79" height="3.57"/><rect class="cls-17" x="254.02" y="164" width="32.75" height="3.57"/><rect class="cls-17" x="254.02" y="169.18" width="35.99" height="3.57"/><path class="cls-18" d="M153.29,267.26a5.08,5.08,0,1,1-5.07,5.08,5.07,5.07,0,0,1,5.07-5.08"/><path class="cls-9" d="M262.91,83.31h27.18a3.3,3.3,0,0,1,3.29,3.29h0a3.3,3.3,0,0,1-3.29,3.28H262.91a3.3,3.3,0,0,1-3.29-3.28h0a3.3,3.3,0,0,1,3.29-3.29"/><path class="cls-9" d="M262.91,97.7h11.35a3.29,3.29,0,0,1,3.29,3.28h0a3.3,3.3,0,0,1-3.29,3.29H262.91a3.3,3.3,0,0,1-3.29-3.29h0a3.29,3.29,0,0,1,3.29-3.28"/><path class="cls-9" d="M284.09,97.7h19.56a3.28,3.28,0,0,1,3.28,3.28h0a3.29,3.29,0,0,1-3.28,3.29H284.09A3.3,3.3,0,0,1,280.8,101h0a3.29,3.29,0,0,1,3.29-3.28"/><path class="cls-3" d="M245.27,0H395.59c5.39,0,9.8,4.93,9.8,11V95.24h0v1.4c0,6-4.41,10.94-9.8,10.94H245.27c-5.39,0-9.8-4.92-9.8-10.94V11c0-6,4.41-10.95,9.8-10.95"/><path class="cls-5" d="M240.31,5.69H400.36a.12.12,0,0,1,.12.13v95.82H240.19V5.82a.12.12,0,0,1,.12-.13"/><rect class="cls-4" x="365.1" y="5.69" width="35.38" height="95.81"/><path class="cls-14" d="M375.24,59.88A8.91,8.91,0,1,0,384.15,51v4a4.92,4.92,0,1,1-4.91,4.92Z"/><path class="cls-19" d="M383.11,50.39a8.92,8.92,0,0,0-8.54,8.54h4a4.92,4.92,0,0,1,4.54-4.54Z"/><rect class="cls-6" x="245.94" y="10.95" width="113.12" height="7.49"/><rect class="cls-20" x="245.94" y="10.95" width="9.93" height="7.49"/><rect class="cls-17" x="247.31" y="46.07" width="3.37" height="43.9"/><rect class="cls-6" x="250.67" y="54.48" width="3.37" height="35.48"/><rect class="cls-21" x="254.04" y="81.35" width="3.37" height="8.62"/><path class="cls-22" d="M248.65,93.58h6.95a1.34,1.34,0,0,1,1.34,1.34h0a1.34,1.34,0,0,1-1.34,1.34h-6.95a1.34,1.34,0,0,1-1.34-1.34h0a1.34,1.34,0,0,1,1.34-1.34"/><rect class="cls-17" x="264.29" y="36.84" width="3.37" height="53.12"/><rect class="cls-6" x="267.66" y="47.89" width="3.37" height="42.07"/><rect class="cls-21" x="271.02" y="77.13" width="3.37" height="12.83"/><path class="cls-22" d="M265.63,93.58h6.95a1.34,1.34,0,0,1,1.34,1.34h0a1.34,1.34,0,0,1-1.34,1.34h-6.95a1.34,1.34,0,0,1-1.34-1.34h0a1.34,1.34,0,0,1,1.34-1.34"/><rect class="cls-17" x="281.27" y="40.52" width="3.37" height="49.44"/><rect class="cls-6" x="284.64" y="57.55" width="3.37" height="32.41"/><rect class="cls-21" x="288" y="85.65" width="3.37" height="4.31"/><path class="cls-22" d="M282.61,93.58h6.95a1.34,1.34,0,0,1,1.34,1.34h0a1.34,1.34,0,0,1-1.34,1.34h-6.95a1.34,1.34,0,0,1-1.34-1.34h0a1.34,1.34,0,0,1,1.34-1.34"/><rect class="cls-17" x="298.25" y="32.04" width="3.37" height="57.92"/><rect class="cls-6" x="301.62" y="54.48" width="3.37" height="35.48"/><rect class="cls-21" x="304.98" y="81.55" width="3.37" height="8.42"/><path class="cls-22" d="M299.59,93.58h7a1.34,1.34,0,0,1,1.34,1.34h0a1.34,1.34,0,0,1-1.34,1.34h-7a1.34,1.34,0,0,1-1.34-1.34h0a1.34,1.34,0,0,1,1.34-1.34"/><path class="cls-14" d="M392.39,82.55a8.91,8.91,0,1,1-8.91-8.9v4a4.92,4.92,0,1,0,4.92,4.91Z"/><path class="cls-19" d="M384.52,73.07a8.9,8.9,0,0,1,8.54,8.53h-4a4.91,4.91,0,0,0-4.54-4.53Z"/><path class="cls-9" d="M373.83,15.16h11.73a1.42,1.42,0,0,1,0,2.84H373.83a1.42,1.42,0,0,1,0-2.84"/><path class="cls-9" d="M373.83,21.37h4.9a1.42,1.42,0,0,1,1.42,1.41h0a1.43,1.43,0,0,1-1.42,1.42h-4.9a1.42,1.42,0,0,1-1.41-1.42h0a1.41,1.41,0,0,1,1.41-1.41"/><path class="cls-9" d="M383,21.37h8.43a1.42,1.42,0,0,1,1.42,1.41h0a1.43,1.43,0,0,1-1.42,1.42H383a1.43,1.43,0,0,1-1.42-1.42h0A1.42,1.42,0,0,1,383,21.37"/><path class="cls-9" d="M373.83,27.61h4.9A1.43,1.43,0,0,1,380.15,29h0a1.42,1.42,0,0,1-1.42,1.41h-4.9A1.41,1.41,0,0,1,372.42,29h0a1.42,1.42,0,0,1,1.41-1.42"/><path class="cls-9" d="M383,27.61h8.43A1.43,1.43,0,0,1,392.82,29h0a1.42,1.42,0,0,1-1.42,1.41H383A1.42,1.42,0,0,1,381.55,29h0A1.43,1.43,0,0,1,383,27.61"/><rect class="cls-6" x="318.37" y="63.35" width="10.31" height="2.36"/><rect class="cls-6" x="318.37" y="66.79" width="18.91" height="2.36"/><rect class="cls-6" x="318.37" y="70.22" width="27.76" height="2.36"/><rect class="cls-6" x="318.37" y="73.66" width="35" height="2.36"/><rect class="cls-17" x="318.37" y="77.09" width="22.95" height="2.36"/><rect class="cls-17" x="318.37" y="80.53" width="30.88" height="2.36"/><rect class="cls-17" x="318.37" y="83.97" width="33.94" height="2.36"/><rect class="cls-17" x="318.37" y="87.4" width="37.3" height="2.36"/><rect class="cls-23" x="317.94" y="27.24" width="41.12" height="28.08"/><polygon class="cls-24" points="320.94 29.92 320.94 52.52 356.56 52.52 356.56 52.79 320.67 52.79 320.67 29.92 320.94 29.92"/><path class="cls-19" d="M320.94,42.84s3.51-5.83,6.29-3.76,2.81,5.83,5.47,6.3,4-11.71,8.09-11,3.37,7.53,8,10.21,6.88-5.55,6.88-5.55V52.52H320.94Z"/><path class="cls-9" d="M373.83,33.6H391.4a1.42,1.42,0,1,1,0,2.84H373.83a1.42,1.42,0,0,1,0-2.84"/><path class="cls-9" d="M373.83,39.5H384.1a1.42,1.42,0,0,1,1.42,1.41h0a1.43,1.43,0,0,1-1.42,1.42H373.83a1.42,1.42,0,0,1-1.41-1.42h0a1.41,1.41,0,0,1,1.41-1.41"/><path class="cls-9" d="M389.18,171.34H398a2.56,2.56,0,0,1,2.55,2.55h0a2.56,2.56,0,0,1-2.55,2.56h-8.83a2.56,2.56,0,0,1-2.56-2.56h0a2.56,2.56,0,0,1,2.56-2.55"/><path class="cls-9" d="M405.65,171.34h15.21a2.56,2.56,0,0,1,2.56,2.55h0a2.56,2.56,0,0,1-2.56,2.56H405.65a2.56,2.56,0,0,1-2.56-2.56h0a2.56,2.56,0,0,1,2.56-2.55"/><path class="cls-3" d="M375.46,95.35H492.38c4.19,0,7.62,3.83,7.62,8.51v66.65c0,4.69-3.43,8.52-7.62,8.52H375.46c-4.2,0-7.62-3.83-7.62-8.52V103.86c0-4.68,3.42-8.51,7.62-8.51"/><path class="cls-5" d="M371.6,99.77H496.09a.1.1,0,0,1,.09.11V174.4H371.51V99.88a.1.1,0,0,1,.09-.11"/><path class="cls-6" d="M378.78,157H488.69v.12H378.78Zm0-10H488.69v.12H378.78Zm0-10H488.69v.13H378.78Zm0-10H488.69v.13H378.78Zm35.82-10h74.09v.13H414.6Zm27.11-10h47v.13h-47Z"/><path class="cls-19" d="M381.76,167.06,395.92,163l3.67-2.74,3.3-1.39h.2s3.23,1.55,6.7-2.65,3.47-4.33,3.47-4.33-1.79,5.17,3.12-1.55,4.78-7.75,7-9.56a40,40,0,0,0,4.18-3.95h0s-1.27.46,1.44,2.92a22.46,22.46,0,0,0,4.26,3.23l2.07,2.94,1.55-.7,1.55-2.63a7.12,7.12,0,0,1,2.59-1.68c1.16-.26,4.39-3.57,5.16-3.67s4.06-2.27,4.06-2.27a4.2,4.2,0,0,1,1.5-3.1,11.3,11.3,0,0,1,4.39-1.81h1.94c1,0,3.88,3.1,4.78,0s1.42-5.69,2.58-7.5a12.72,12.72,0,0,1,3.49-3.23h11.5a19.42,19.42,0,0,1,1.68-2.06c.78-.78,5.82-4.78,5.82-4.78v54.62Z"/><path class="cls-25" d="M381.76,167.06l15.63-1.39s.38-.52,2.06-.91.95,2.07,3.64,0,2.44-2.32,3.86-2.45,1,1.81,4.78,0a20.74,20.74,0,0,0,6.33-5s3-3.13,5.43-3.91,4.78-1.68,4.78-1.68,1.55.65,2.58,1.17,2.13,4.18,3.07,1.51.81-1.39,2.23-2.29,4.13,0,4.13,0,3.62-2.58,4.39-3.1.52-.39,3.23-2.84a20.43,20.43,0,0,1,5.82-3.62h15L471,144.8l1.35-1.36,1.42-3.69,2.59-2.56h2.45l2.33-.41h2.58l4.27-4.84v35.12Z"/><polygon class="cls-24" points="378.77 104.89 378.77 166.94 487.95 166.94 487.95 167.18 378.53 167.18 378.53 104.89 378.77 104.89"/><path class="cls-9" d="M385.66,106h49.17a1.76,1.76,0,0,1,1.76,1.75h0a1.76,1.76,0,0,1-1.76,1.76H385.66a1.76,1.76,0,0,1-1.75-1.76h0a1.76,1.76,0,0,1,1.75-1.75"/><path class="cls-9" d="M385.66,113.64h24.47a1.75,1.75,0,0,1,1.75,1.75h0a1.75,1.75,0,0,1-1.75,1.76H385.66a1.76,1.76,0,0,1-1.75-1.76h0a1.76,1.76,0,0,1,1.75-1.75"/><path class="cls-26" d="M345.19,205.59c-12.14,13.19-20.39,19.32-31.18,17.29-6.29-3-20.84-14.76-19.14-18.17,1.26-2.51-.11-4.75,3.42-2.86,4.75,2.4,15,8.92,16.21,9.14,5.7,1.06,21-16,23.77-15.65,1-.1,10.73,8.1,6.92,10.25"/><path class="cls-19" d="M296.71,200.46c-.09-.88-.47-4.37-1-5-.27-.33-.36-.21-.52,0a1.62,1.62,0,0,0-.28.89c0,.64-.53,1.67-.48,2-3.64-.33-6.53-4.42-7.69-2.88,0,.39.69,2.55.73,3.15.11,1.92.37,2.85,6.69,6.46.3.17,1,.79,1.34,1a6.33,6.33,0,0,0,2.21-3.65Z"/><path class="cls-26" d="M328.84,246c-3.38,14.82,2.38,50.84,4.21,78.56.13,1.89-.19,4.2-2.22,5.3-1.86,1-6,1.56-7.09,2.61-.79.76-4.52,4.33,6.33,4,7.72-.21,9.55-.74,10.38-2,.12-.18,5.36-64.35,6.16-69.18,1.38,6.15,19,63.76,19,63.79a13.09,13.09,0,0,1-2.74,4.93c-.42,1.51-2.75,3.47,4.72,3.41s5.73-3,5.76-3.43c-3.32-31.2-7.86-71.45-9.22-89.54,0,0-9.95-.14-15.37-3.2-8.25-4.66-13.34-23.6-11.8-4.11.29,3.66-6.79,3.76-8.08,8.8"/><path class="cls-27" d="M374.67,210.8c5.05,12.33,7.16,25.77,8.73,38.9a3.29,3.29,0,0,1-2,3.44c-1,.56-1.81.28-3.74-1.41-2.92-3.52-5-16.2-8.16-21.39-6.27-10.25-12.31-20.19-9-26.75.16-.92,13.15,3.17,14.15,7.21"/><path class="cls-26" d="M366.52,223.45A151.94,151.94,0,0,0,365,254.68c-14.56,2.5-28.45,1.71-37.14-1.06.4-9.61-2.44-55.69,11.8-58.74,9.63-2.7,22.54-1.85,27.87,3.41l.05.05c4.07,3.81,9.11,16.4,11.48,25.52,5,19.13-8.37,8.57-12.54-.41"/><path class="cls-28" d="M343.4,194c-1.75,7.93-2.36,34.71-2.17,43.55.33-.66,15.15-37.53,16.41-43.65a30.36,30.36,0,0,0-14.24.1"/><path class="cls-29" d="M340.63,222.44l.6,15.07,6.57-13.85.4-19.63,1.54-2.16-1.66-1.82-2,1.1.68,2.48c-2,5.39-4.74,14.61-6.09,18.81"/><path class="cls-27" d="M366.52,223.45c-1.13,7.22-1.79,22.17-1.52,31.23-3.82-9.46-1.8-34.23-1.06-38a49.55,49.55,0,0,0,2.58,6.81"/><path class="cls-19" d="M346.39,191.1l-.05,3-.44.36c-1.68,1.81.14,5.52,2.07,5.41,4.85.24,8.58-3.75,7.12-5.91l-.63-.7-.14-4.19c.25,0,2.07-1.06,2.62-1.22a2.83,2.83,0,0,0,1.39-2.32c.05-1.1-1.65-.75-1.65-.75,2.06-2.83,4.4-5.14,1.37-7.69s-10-4-10-4l-4.2-1.45c.54,1.44-.18,6.27-1.26,9.29-1.53,4.29-.68,8.09,3.81,10.24"/><path class="cls-30" d="M352.34,189.61s-2.37,4.07-4.32,4.44-1,.09-1.68,0l.05-3c1.34.21,2.66.11,5.95-1.49"/><path class="cls-26" d="M344.58,177.83c3.49,1.79,7.51-.34,9.54,2.06,1,1.18.9,2.89-.22,5.53-.34.78-.78,1.35.53.74.61-.28,1.6-.67,1.94-.39a1.56,1.56,0,0,1-.23,2.3c-.27.19-.78.46-.78.46A8.27,8.27,0,0,0,362,180a15.59,15.59,0,0,0-.37-3.1,3.61,3.61,0,0,0,.14-1,3.23,3.23,0,0,0-2.23-3.12,3.15,3.15,0,0,0-3.06-2.73,3,3,0,0,0-1.3.3l-.15,0a3.29,3.29,0,0,0-5-.77,4.48,4.48,0,0,0-3.59-1.91,5,5,0,0,0-4.67,5.25,5.44,5.44,0,0,0,2.06,4.35,5.28,5.28,0,0,0,.84.6"/><path class="cls-31" d="M341.23,237.5h0l-4.07-33.19,3.29-2.78-2.08-2.46,2-4.4a19.77,19.77,0,0,0,3-.72c-1.75,7.93-2.36,34.7-2.17,43.55"/><path class="cls-31" d="M341.23,237.5h0l20-30.78-2.34-3.62,2.72-1.75-1-6.73a27.07,27.07,0,0,0-3-.74c-1.3,6.22-16.06,42.93-16.4,43.61"/><path class="cls-19" d="M378.39,251.73l.75,2.43-.48,4.14c-.18.47-.71,3.5.23,2.65.66-.6,1.7-2.38,1.78-2.34,1,.49,2.85,6,2.95,6,1.31.7.35-2.84.22-3.45a21.43,21.43,0,0,0,1.3,2.17,1.29,1.29,0,0,0,.28-1.19,15.79,15.79,0,0,1-.67-2.33c.12-.18,1.3,2.21,1.39,2a1.09,1.09,0,0,0,.09-.91,22.42,22.42,0,0,1-.77-2.26c.07-.22.82,1.53.87,1.33s.32-.22.29-.38c-.82-4.26-2.94-3.66-3.75-8.56-.44-2.73-4.11-.31-4.48.66"/><path class="cls-20" d="M439.63,210.88a28.46,28.46,0,1,1-36.69,16.56,28.46,28.46,0,0,1,36.69-16.56"/><path class="cls-24" d="M421.21,231.16a9.37,9.37,0,0,0-.07,1.69l0,.07c.09.12.25,1.1.34,1.36.14.43.42.85.52,1.18.08.06.53.68.64.81a8.47,8.47,0,0,0,.75.7c.31.2.58.43.95.66a16.28,16.28,0,0,0,3.2,1.54c1.46.52,3.45,1.22,4.2,2.19,1,1.36.3,3.32-1.86,3.64a13.63,13.63,0,0,1-4.4-.23c-.4-.1-.81-.25-1.2-.34a17.91,17.91,0,0,1-1.91-.82l-.34-.09a.78.78,0,0,1-.14.42,2.25,2.25,0,0,1-.2.93,15.69,15.69,0,0,1-.6,2.22c0,.18-.05.66-.05.92l.11.08.18.17a3.43,3.43,0,0,1,.94.35l2.16.62,1,.21,1.52.19a.65.65,0,0,1,.31,0l.11,0c.11,0,0,0,.09.05l.06.16c0,.27-.06,2.85,0,3.41h3.77c.08-1.15,0-2.48,0-3.63,0-.41.09-.31.48-.41,1.05-.24,1.52-.54,2.12-.7.11-.11.83-.45,1.05-.6a5.62,5.62,0,0,0,.5-.35,2.29,2.29,0,0,1,.44-.33,12.38,12.38,0,0,0,1.39-1.84,7.81,7.81,0,0,0,.81-2.43v-1.57a5,5,0,0,1-.13-.91,6.76,6.76,0,0,0-3.13-4.1c-2.52-1.56-7.52-2.48-7.8-4.63-.15-1.23.92-1.94,1.92-2.18a9.12,9.12,0,0,1,3.79.08c.82.18,3.07,1,3.13,1,.18-.23.13-.49.29-.67a2.46,2.46,0,0,1,.2-.85,21.1,21.1,0,0,0,.57-2.8c-.43-.29-.65-.25-.87-.43l0,0a5,5,0,0,1-1.24-.39,9.1,9.1,0,0,1-1.54-.27,12.49,12.49,0,0,1-1.59-.2c-.4-.24-.13-2.43-.22-3.37h-3.78a23.2,23.2,0,0,1-.12,3.64c-.31.34-5.27.66-6.36,5.8"/></g></g></svg>