<svg xmlns="http://www.w3.org/2000/svg" viewBox="0 0 538.75 356.06"><defs><style>.cls-1{fill:#fff;}.cls-2{fill:#4684e6;}.cls-11,.cls-16,.cls-17,.cls-18,.cls-19,.cls-20,.cls-3,.cls-6{fill:none;}.cls-3{stroke:#2569cc;}.cls-17,.cls-18,.cls-3{stroke-miterlimit:10;}.cls-4{fill:#143779;}.cls-5{fill:#f9a9a3;}.cls-11,.cls-16,.cls-19,.cls-20,.cls-6{stroke:#20181f;stroke-linecap:round;stroke-linejoin:round;}.cls-6{stroke-width:1.05px;}.cls-7{fill:#4d2e3c;}.cls-8{fill:#e88585;}.cls-9{fill:#fca0a0;}.cls-10{fill:#20181f;}.cls-11{stroke-width:1.23px;}.cls-12{fill:#ee75ae;}.cls-13{fill:#f4eded;}.cls-14{fill:#ed908e;}.cls-15{fill:#f7de9e;}.cls-16{stroke-width:1.18px;}.cls-17,.cls-18{stroke:#fff;}.cls-17{stroke-width:1.34px;}.cls-18{stroke-width:1.32px;}.cls-19{stroke-width:1.25px;}.cls-20{stroke-width:1.2px;}</style></defs><g id="Layer_2" data-name="Layer 2"><g id="OBJECTS"><path class="cls-1" d="M12.28,222.62s79.33,183.72,361.8,102.7,142.66-262,14.86-204.25S150.57,94.84,150.57,94.84,75.68,46,20.62,108.41C20.62,108.41-19.58,148.87,12.28,222.62Z"/><path class="cls-1" d="M181.21,45.56s-9.36,54.75,92.52,58.68,148.3-71.35,115.06-92c-29.1-18-67.48,8.94-108.49-5.72C227.64-12.27,181.06,12.13,181.21,45.56Z"/><path class="cls-2" d="M388.18,285.58,398,355.46h35c-2.52-45.16-7.11-117-12.22-147.53l-25.28,44.21Z"/><path class="cls-2" d="M356.35,209c-8.66,39-16.86,104-21.71,146.48h39.25l15.34-69.88,6.29-33.44,25.28-44.21Z"/><polyline class="cls-3" points="388.73 288.25 394.85 250.28 404.39 243.99"/><path class="cls-4" d="M369.24,129.07a14.86,14.86,0,0,0-20-3L286.8,163.92a16,16,0,0,0-4.53,21.76h0c5,7.9,11.27,9.51,18.75,3.91,6.62-5,64.94-35.47,69.73-39.08C377.44,145.47,374.47,135.61,369.24,129.07Z"/><path class="cls-4" d="M347.17,223.68l-44.54-55a13.32,13.32,0,0,0-19.27-.49h0c-5.45,5.43-4.05,16,1.71,21.06l51,44.06Z"/><path class="cls-5" d="M373.74,227.59l-13.21-7.35,1.43-2.9a2.61,2.61,0,0,0-3.86-3.29L345,223.34l-8.93,10c7,6.5,11.8,6.6,14.58,5.49.32.12.63.25,1,.36l11.07,3.62a2.13,2.13,0,0,0,2.79-.89c.39-.72.57-1.88-1.55-3.06l2.12,1.18a2.21,2.21,0,0,0,2.91-1c.52-.93,0-2.21-1.26-3.08l1.63.71a2.27,2.27,0,0,0,3.09-1.23,2.34,2.34,0,0,0-1.12-2.87l-2.33-1.3,2.8.79a2.45,2.45,0,0,0,3.23-1.48A2.56,2.56,0,0,0,373.74,227.59Z"/><path class="cls-4" d="M409.7,129c4.2-6.05,11.7-7.33,17.23-3l53.83,38c6.14,4.87,7.85,14.49,3.86,21.77h0c-4.32,7.89-9.75,9.49-16.19,3.88-5.7-5-56-35.61-60.09-39.22C402.58,145.37,405.17,135.52,409.7,129Z"/><path class="cls-4" d="M428.52,223.64l38.57-54.86c4.42-5.62,12-5.83,16.63-.45h0c4.69,5.43,3.46,16-1.52,21l-44.12,44Z"/><path class="cls-5" d="M405.58,227.5,417,220.17l-1.23-2.9a2.91,2.91,0,0,1,.54-3.12,2,2,0,0,1,2.8-.17l11.28,9.33,7.69,10c-6.09,6.49-10.2,6.58-12.6,5.47l-.82.35-9.56,3.6a1.72,1.72,0,0,1-2.4-.9c-.34-.71-.49-1.88,1.34-3.05L412.21,240a1.8,1.8,0,0,1-2.52-1,2.72,2.72,0,0,1,1.1-3.08l-1.4.7a1.87,1.87,0,0,1-2.67-1.23,2.52,2.52,0,0,1,1-2.87l2-1.29-2.42.78a2.05,2.05,0,0,1-2.79-1.48A2.73,2.73,0,0,1,405.58,227.5Z"/><path class="cls-4" d="M353.19,124.19S368.77,118,392.25,118s37.46,10.31,37.46,10.31l-8.91,79.64-64.45,1L345.7,151.69Z"/><line class="cls-6" x1="425.94" y1="162.02" x2="427.38" y2="149.09"/><path class="cls-7" d="M365.36,77.12s-14.75-22.51,3-25.11C379,50.47,382,47.14,395,42.6c15-5.25,35.63,11.54,13.38,28.18l-34.76-7.57Z"/><circle class="cls-8" cx="404.65" cy="82.05" r="8.08" transform="translate(60.5 310.16) rotate(-45)"/><path class="cls-9" d="M396.82,92l.4,27.77c.06,7.81-5.29,8.39-13,8.39h0c-6.56,0-9.89-2.37-10.71-8.88l1.09-29.52Z"/><polygon class="cls-10" points="397.19 116.93 378.95 103.84 396.94 98.67 397.19 116.93"/><path class="cls-9" d="M388.47,106.17H390a18.91,18.91,0,0,0,18.9-19.54l-.64-19.41a19.72,19.72,0,0,0-19.7-19.07h0C377.7,48.15,367,57,367,67.87l.93,18.73A20.6,20.6,0,0,0,388.47,106.17Z"/><polyline class="cls-11" points="397.79 80.28 399.09 87.65 396.5 87.65"/><path class="cls-10" d="M387.62,71.66s4.36-.51,4.46,1.3c0,0,0,1.23-3.77,1.6s-4.81.12-5.2-1S385.57,71.74,387.62,71.66Z"/><path class="cls-10" d="M404.32,71.56s-3.62-.26-3.86,1.45c0,0-.13,1.16,3,1.32S407.68,74,408,73.1,406,71.53,404.32,71.56Z"/><path class="cls-12" d="M399.55,91H387.34s0,4.28,7.07,4.29A4.91,4.91,0,0,0,399.55,91Z"/><path class="cls-11" d="M391.39,80.28a4.83,4.83,0,0,0-5,0"/><path class="cls-11" d="M406,80.28s-1.44-1.55-4.32,0"/><path class="cls-7" d="M370.49,82.12s12.42-7.89,8-19c0,0,20.12-9.71,29.37.41l2.48-12.93-15.89-6.43L369.53,54l-6.42,9.59L365.27,76Z"/><circle class="cls-9" cx="365.36" cy="82.05" r="8.08" transform="translate(149.11 387.76) rotate(-67.38)"/><path class="cls-11" d="M368.19,84.45s0-5.86-5.61-4.94"/><polygon class="cls-2" points="378.56 128.75 385.03 134.73 392.22 126.52 385.03 125.39 378.56 128.75"/><polygon class="cls-2" points="383.74 133.5 376.66 192.51 385.23 202.24 392.99 192.39 386.11 133.26 383.74 133.5"/><polygon class="cls-13" points="373.63 116.58 385.03 125.39 377.42 134.73 366.21 120.59 373.63 116.58"/><polygon class="cls-13" points="397.19 116.93 385.03 125.39 392.64 134.73 404.21 120.59 397.19 116.93"/><path class="cls-4" d="M158.08,134a10.62,10.62,0,0,1,20.76-4.46c1,4.17,1.7,11.5,2.37,19.31l-21.86,6.67Z"/><path class="cls-5" d="M159.35,155.52l21.86-6.67L184.1,179a10.26,10.26,0,0,1-9,11.05l-.2,0h0a11.43,11.43,0,0,1-13-9.17Z"/><path class="cls-5" d="M191.68,263.57l-8.51-94.3s-4,.94-9.35,1.8h0a9.53,9.53,0,0,0-7.79,11.5l14,81.2Z"/><path class="cls-5" d="M177,262a11.43,11.43,0,1,1,6.45,14.82A11.42,11.42,0,0,1,177,262Z"/><path class="cls-5" d="M194,274.92s3.05,3.32,5.66-2.08,2.53-12.27-7.82-17.3Z"/><path class="cls-12" d="M122.71,71.32,167.64,81.5s16.7,23.67,8.06,57.53H101.22s-6.08-13.63,7.38-32.5c8.27-11.59,14.11-35.21,14.11-35.21"/><path class="cls-2" d="M148.5,300l11.31,55.42h38.83c-2.24-18.29-5.58-42.17-10.53-71.73-13.17-78.56-21.56-97.44-21.56-97.44L137.31,181l-3.22,4.71,25.28.79Z"/><path class="cls-2" d="M134.09,185.75l-11.29-.35S103.54,206,102.53,244c-.67,25.36,0,74.53.73,111.5h39.93L148.5,300l10.87-113.5Z"/><line class="cls-3" x1="148.5" y1="300.04" x2="153.64" y2="225.05"/><line class="cls-3" x1="153.64" y1="225.05" x2="162.73" y2="217.91"/><path class="cls-4" d="M144.83,119.09,117,123a5.73,5.73,0,0,0-4.85,6.68l9.63,56.63h44.75l11.67-54.39a8.54,8.54,0,0,0-7.48-10Z"/><line class="cls-6" x1="174.12" y1="151.01" x2="177.36" y2="136.96"/><path class="cls-5" d="M92.88,132.81,103,160.75s-31.22,10.51-38.09,14.7c-7.73,4.72-13.66,2.58-17.75-5.51h0a15.53,15.53,0,0,1,6.37-20.62Z"/><path class="cls-4" d="M112.39,124.63a14.44,14.44,0,0,1,19,4.74c4.46,6.8,6.42,16.6-.51,20.86-5,3.05-27.93,10.52-27.93,10.52L92.88,132.81Z"/><line class="cls-6" x1="116.2" y1="156.23" x2="126.09" y2="152.19"/><path class="cls-5" d="M106.36,212.64l-38-57.21a12.94,12.94,0,0,0-18.59-2.25h0c-5.76,4.74-5.39,15.06-.29,20.51L94.74,221Z"/><path class="cls-5" d="M131.69,218.88l-12.1-8.32,1.65-2.68a2.54,2.54,0,0,0-3.43-3.54l-13.51,7.78L94.74,221c6.21,6.94,10.8,7.47,13.59,6.66.29.14.58.3.88.43l10.37,4.52a2.07,2.07,0,0,0,2.78-.6c.44-.66.72-1.77-1.22-3.1l1.94,1.33a2.14,2.14,0,0,0,2.91-.68c.59-.85.18-2.14-.93-3.09l1.5.83a2.21,2.21,0,0,0,3.11-.9,2.29,2.29,0,0,0-.82-2.88L126.71,222l2.63,1a2.4,2.4,0,0,0,3.27-1.14A2.48,2.48,0,0,0,131.69,218.88Z"/><path class="cls-14" d="M161,82.12a7.87,7.87,0,1,0,8.4-7.31A7.87,7.87,0,0,0,161,82.12Z"/><path class="cls-12" d="M149.22,53.41c1-1.75-.29-5-.29-5-9.85,0-18.35,3.15-23.24,12.15-7.2,13.25-2,33.72,15,39.95,16.27,6,7.6-45.41,7.6-45.41Z"/><path class="cls-5" d="M158.5,103.76l-1.09,17.13c-.37,6-4.27,9-10.19,8.59h0c-5.05-.35-9.61-3.29-9.89-8.34l3-26.88Z"/><polygon class="cls-10" points="157.75 118.04 137.73 98.44 158.65 102.01 157.75 118.04"/><path class="cls-5" d="M153.29,106.53h0c10.12,0,18.48-7.94,18.78-16.2l.59-19.5A19.21,19.21,0,0,0,154.8,51h0c-7.77-.54-21.88,11-22.35,17.7l-.31,15.69C131.9,96.49,141.18,105.69,153.29,106.53Z"/><path class="cls-15" d="M148.89,48.41l.14,0Z"/><path class="cls-12" d="M172.27,66.17C172.69,56,163.78,49.63,157.09,48a30.42,30.42,0,0,0-16.81.64c-6.46,2.17-13.46,7-8.69,17.6-3.12,1.54-5.9,3.3-5.9,3.3l11.64,13.93s.84-3.83,2.06-12c6.07-2.4,5.84-6,6.47-9.77A103.66,103.66,0,0,0,172.27,66.17Z"/><path class="cls-5" d="M122.7,82.12a7.87,7.87,0,1,0,8.4-7.31A7.86,7.86,0,0,0,122.7,82.12Z"/><path class="cls-16" d="M133.13,85.19s.4-5.69-5.11-5.18"/><polyline class="cls-16" points="161.06 83.32 161.69 88.47 159.02 88.57"/><path class="cls-10" d="M149.36,72.74s4.54-.37,4.59,1.48c0,0,0,1.25-4,1.5s-5,0-5.35-1.22S147.23,72.75,149.36,72.74Z"/><path class="cls-10" d="M167.65,73.24s-3.75-.39-4.06,1.35c0,0-.17,1.17,3.11,1.44s4.35-.15,4.66-1.1S169.43,73.26,167.65,73.24Z"/><path class="cls-10" d="M149.06,80.62A1.71,1.71,0,1,0,150.82,79,1.71,1.71,0,0,0,149.06,80.62Z"/><path class="cls-10" d="M164.8,80.62A1.71,1.71,0,1,0,166.56,79,1.71,1.71,0,0,0,164.8,80.62Z"/><path class="cls-16" d="M160.47,93.12s-5.65,1.58-8.59-2.52"/><line class="cls-17" x1="162.11" y1="79.66" x2="158.3" y2="79.66"/><line class="cls-17" x1="142.51" y1="79.66" x2="137.73" y2="79.66"/><circle class="cls-17" cx="150.36" cy="79.51" r="7.85" transform="translate(-14.28 36.8) rotate(-13.33)"/><circle class="cls-18" cx="169.47" cy="79.03" r="7.38" transform="translate(-6.25 142.98) rotate(-45)"/><path class="cls-4" d="M295.68,212.83l-69.16,2.87c-7.35,29.08-11.21,94.19-13.09,139.76H258.6l7.59-59.15,10.24,59.15h42.31C311.26,304.54,299.52,226.74,295.68,212.83Z"/><polyline class="cls-6" points="266.19 296.31 271.86 252.7 285.36 246.23"/><path class="cls-2" d="M205.63,126.4s31.48-11.64,59.29-12.58c0,0,14.8-.94,39.92,5.76a1.94,1.94,0,0,1,1.41,2.07l-10.57,91.18-69.46,2.87Z"/><polygon class="cls-2" points="237.03 209.87 309.09 178.4 263.12 171.27 236.02 181.65 237.03 209.87"/><path class="cls-2" d="M195.43,148.2c3.81,16.32,19.64,52,19.64,52a16.83,16.83,0,0,0,22,9.7h0a16.84,16.84,0,0,0,9.54-21.63L226.85,136.3a16.8,16.8,0,0,0-22.95-9.2h0C196,130.87,193.45,139.7,195.43,148.2Z"/><line class="cls-3" x1="236.59" y1="161.95" x2="227.89" y2="139.03"/><path class="cls-2" d="M288.53,147.68c10,13.44,36.72,35.65,36.72,35.65a16.83,16.83,0,0,0,24,.12h0c6.49-6.54,6.54-15,.1-21.59l-36.78-37.65a16.79,16.79,0,0,0-24.71.75h0C282.15,131.56,283.31,140.69,288.53,147.68Z"/><path class="cls-9" d="M300.81,157.5s1.58-8.56,14.15-11.59l13.43,9.43-4.76,4.2Z"/><polygon class="cls-9" points="253.12 155.34 236.59 161.95 243.05 178.96 252.04 175.51 253.12 155.34"/><polygon class="cls-2" points="253.12 155.34 344.63 160.8 339.02 188.32 252.04 175.51 253.12 155.34"/><polyline class="cls-3" points="253.12 155.34 300.81 157.5 304.11 134.31"/><polyline class="cls-3" points="253.12 202.85 298.99 182.77 252.04 175.51"/><path class="cls-7" d="M250.48,42.7c-4.78.31-20.95,4.12-15.54,20.11,6.55,19.33,9.78,21.79,9.78,21.79l-.54-28.74Z"/><path class="cls-7" d="M282,44.06s18.89,5.54,5,26.33L267.84,48.71Z"/><path class="cls-8" d="M276.4,76.92a8.08,8.08,0,0,0,7.77,8.32,8.16,8.16,0,1,0-7.77-8.32Z"/><path class="cls-9" d="M274.77,93.58l1.07,21.23c.38,7.17-3.75,10.4-10.59,10.67h0c-5.84.24-12.39-2.27-12.45-8.61l-.11-32.2Z"/><path class="cls-10" d="M275.72,111.5,251,95.45c-.71-6.09,23.7-4,23.7-4Z"/><path class="cls-9" d="M267.59,102.29h0c11.11-.53,19.83-10,19.68-19.42l-.41-19.64c-.18-11.76-9.37-21.29-20.76-21.52h0C254.43,41.46,242.77,51,242.57,63l.51,15.3C243.52,92.1,254.24,102,267.59,102.29Z"/><path class="cls-10" d="M263.52,62.93s6-1.2,6.24.55c0,0,.13,1.18-3.48,1.82s-6.46.85-6.91-.23S261.57,63.15,263.52,62.93Z"/><path class="cls-10" d="M280.86,65.26s5.3.16,5.14,1.91c0,0,.68,1.2-3,1s-5.47-.54-5.67-1.7S278.91,65.05,280.86,65.26Z"/><path class="cls-19" d="M266.47,84.65c0,.32,3.29,3.19,7.85,1.78"/><path class="cls-10" d="M280,73.55a1.83,1.83,0,1,0,1.79-1.88A1.83,1.83,0,0,0,280,73.55Z"/><path class="cls-10" d="M262.88,74.49a1.83,1.83,0,1,0,1.94-1.71A1.83,1.83,0,0,0,262.88,74.49Z"/><path class="cls-19" d="M275.39,76.12l2.54,4.49a.73.73,0,0,1-.14,1l-1.57.85"/><path class="cls-7" d="M248.33,77s-3.48-16.16,4-24.36c0,0,31,9.39,35.75-3.2,6.79-17.87-12.82-23.24-24-17.91A36.29,36.29,0,0,0,250.48,42.7s-21.12,4.57-9.68,27.84Z"/><path class="cls-9" d="M232.84,78.45a7.83,7.83,0,1,0,8-7.91A7.92,7.92,0,0,0,232.84,78.45Z"/><path class="cls-19" d="M243.3,80.6s-.73-5.26-5.34-5"/><path class="cls-9" d="M253.11,114.79,244.85,116s10,8.28,29.42,14L281,114.79l-11.53-1.48Z"/><line class="cls-20" x1="12.27" y1="355.46" x2="528.63" y2="355.46"/></g></g></svg>