<svg xmlns="http://www.w3.org/2000/svg" xmlns:xlink="http://www.w3.org/1999/xlink" viewBox="0 0 315.25 426.55"><defs><style>.cls-1{fill:url(#linear-gradient);}.cls-2{fill:url(#linear-gradient-2);}.cls-3{fill:url(#linear-gradient-3);}.cls-4{fill:url(#linear-gradient-4);}.cls-5{fill:url(#linear-gradient-5);}.cls-6{fill:url(#linear-gradient-6);}.cls-7{fill:url(#linear-gradient-7);}.cls-8{fill:url(#linear-gradient-8);}.cls-9{fill:none;stroke:#8feaff;stroke-linecap:round;stroke-miterlimit:10;stroke-width:2.57px;}.cls-10{fill:#8feaff;}</style><linearGradient id="linear-gradient" x1="-52.05" y1="122.48" x2="386.36" y2="312.32" gradientUnits="userSpaceOnUse"><stop offset="0" stop-color="#5092b5"/><stop offset="0.01" stop-color="#4f8fb1"/><stop offset="0.09" stop-color="#436f8e"/><stop offset="0.18" stop-color="#395370"/><stop offset="0.28" stop-color="#313d57"/><stop offset="0.39" stop-color="#2b2b44"/><stop offset="0.52" stop-color="#261f37"/><stop offset="0.68" stop-color="#24182f"/><stop offset="1" stop-color="#23162d"/></linearGradient><linearGradient id="linear-gradient-2" x1="-23.49" y1="249.14" x2="53.28" y2="376.58" gradientUnits="userSpaceOnUse"><stop offset="0" stop-color="#44afcc"/><stop offset="0.28" stop-color="#41adca"/><stop offset="0.5" stop-color="#37a5c5"/><stop offset="0.71" stop-color="#2598bd"/><stop offset="0.91" stop-color="#0d86b1"/><stop offset="1" stop-color="#007caa"/></linearGradient><linearGradient id="linear-gradient-3" x1="27" y1="218.72" x2="103.77" y2="346.16" xlink:href="#linear-gradient-2"/><linearGradient id="linear-gradient-4" x1="72.8" y1="191.13" x2="149.57" y2="318.57" xlink:href="#linear-gradient-2"/><linearGradient id="linear-gradient-5" x1="95.11" y1="177.69" x2="171.88" y2="305.13" xlink:href="#linear-gradient-2"/><linearGradient id="linear-gradient-6" x1="140.91" y1="150.1" x2="217.68" y2="277.54" xlink:href="#linear-gradient-2"/><linearGradient id="linear-gradient-7" x1="186.71" y1="122.51" x2="263.48" y2="249.95" xlink:href="#linear-gradient-2"/><linearGradient id="linear-gradient-8" x1="232.51" y1="94.93" x2="309.27" y2="222.36" xlink:href="#linear-gradient-2"/></defs><g id="Layer_2" data-name="Layer 2"><g id="Layer_2-2" data-name="Layer 2"><g id="Notebook"><g id="display"><polygon class="cls-1" points="313.9 0 315.25 245.31 1.35 426.55 0 181.24 313.9 0"/><g id="Column"><polygon class="cls-2" points="35.88 347.05 54.29 336.41 54.33 378.91 35.88 389.56 35.88 347.05"/><polygon class="cls-3" points="72.69 262.04 91.1 251.41 91.1 357.68 72.69 368.3 72.69 262.04"/><polygon class="cls-4" points="109.51 198.28 127.91 187.65 127.91 336.42 109.51 347.05 109.51 198.28"/><polygon class="cls-5" points="146.32 240.78 164.72 230.16 164.72 315.17 146.32 325.8 146.32 240.78"/><polygon class="cls-6" points="183.13 177.02 201.54 166.4 201.54 293.92 183.13 304.54 183.13 177.02"/><polygon class="cls-7" points="219.94 113.26 238.35 102.64 238.35 272.66 219.94 283.29 219.94 113.26"/><polygon class="cls-8" points="256.75 49.5 275.16 38.88 275.16 251.41 256.75 262.04 256.75 49.5"/></g><g id="Curve"><path class="cls-9" d="M301,129.55c-18.41,10.63-18.41-53.13-36.82-42.5s-18.4,95.64-36.81,106.26-18.4-31.88-36.81-21.25-18.41,95.64-36.81,106.27-18.41-53.14-36.81-42.51S98.52,352.46,80.11,363.34,61.84,310.63,43.3,321.09s-18.54,73.84-37,84.6"/><path class="cls-10" d="M43.4,327.92c-6.15,3.58-6.15-10.76,0-14.22S49.54,324.33,43.4,327.92Z"/><path class="cls-10" d="M79.9,370.57c-6.15,3.58-6.15-10.76,0-14.22S86,367,79.9,370.57Z"/><path class="cls-10" d="M116.78,243c-6.15,3.58-6.15-10.76,0-14.22S122.93,239.42,116.78,243Z"/><path class="cls-10" d="M154.05,285.65c-6.15,3.59-6.15-10.75,0-14.21S160.2,282.07,154.05,285.65Z"/><path class="cls-10" d="M190.55,179.23c-6.15,3.58-6.15-10.76,0-14.22S196.7,175.64,190.55,179.23Z"/><path class="cls-10" d="M227.43,200.36c-6.14,3.59-6.14-10.76,0-14.22S233.58,196.77,227.43,200.36Z"/><path class="cls-10" d="M264.32,94.32c-6.15,3.58-6.15-10.76,0-14.22S270.47,90.73,264.32,94.32Z"/></g></g></g></g></g></svg>