<svg xmlns="http://www.w3.org/2000/svg" xmlns:xlink="http://www.w3.org/1999/xlink" viewBox="0 0 500 389.11"><defs><style>.cls-1{fill:url(#linear-gradient);}.cls-2{fill:url(#linear-gradient-2);}.cls-3{fill:url(#linear-gradient-3);}.cls-4{fill:url(#linear-gradient-4);}.cls-5{fill:url(#linear-gradient-5);}.cls-6{fill:url(#linear-gradient-6);}.cls-10,.cls-7{fill:#fff;}.cls-7{stroke-miterlimit:10;stroke-width:6.54px;stroke:url(#linear-gradient-7);}.cls-8{fill:url(#linear-gradient-8);}.cls-9{fill:url(#linear-gradient-9);}</style><linearGradient id="linear-gradient" x1="418.64" y1="226.39" x2="418.64" y2="389.11" gradientTransform="translate(654.55 -155.19) rotate(80.68)" gradientUnits="userSpaceOnUse"><stop offset="0" stop-color="#af3025"/><stop offset="1" stop-color="#ff6723"/></linearGradient><linearGradient id="linear-gradient-2" x1="415.74" y1="386.04" x2="415.74" y2="196.54" gradientTransform="matrix(1, 0, 0, 1, 0, 0)" xlink:href="#linear-gradient"/><linearGradient id="linear-gradient-3" x1="329.27" y1="137.09" x2="329.27" y2="387.1" gradientTransform="matrix(1, 0, 0, 1, 0, 0)" xlink:href="#linear-gradient"/><linearGradient id="linear-gradient-4" x1="324.82" y1="382.39" x2="324.82" y2="91.23" gradientTransform="matrix(1, 0, 0, 1, 0, 0)" xlink:href="#linear-gradient"/><linearGradient id="linear-gradient-5" x1="191.62" y1="383.25" x2="191.62" y2="0" gradientTransform="translate(191.62 -79.37) rotate(45)" xlink:href="#linear-gradient"/><linearGradient id="linear-gradient-6" x1="191.62" y1="23.01" x2="191.62" y2="360.23" gradientTransform="translate(191.62 -79.37) rotate(45)" xlink:href="#linear-gradient"/><linearGradient id="linear-gradient-7" x1="191.62" y1="301.08" x2="191.62" y2="82.17" gradientTransform="matrix(1, 0, 0, 1, 0, 0)" xlink:href="#linear-gradient"/><linearGradient id="linear-gradient-8" x1="191.62" y1="248.23" x2="191.62" y2="135.02" gradientUnits="userSpaceOnUse"><stop offset="0" stop-color="#403568"/><stop offset="1" stop-color="#5657e7"/></linearGradient><linearGradient id="linear-gradient-9" x1="191.62" y1="216.91" x2="191.62" y2="166.34" gradientTransform="translate(333.85 -39.05) rotate(76.66)" gradientUnits="userSpaceOnUse"><stop offset="0" stop-color="#0d052a"/><stop offset="1" stop-color="#403568"/></linearGradient></defs><g id="Layer_2" data-name="Layer 2"><g id="Layer_1-2" data-name="Layer 1"><circle class="cls-1" cx="418.64" cy="307.75" r="81.36" transform="translate(47.17 671.04) rotate(-80.68)"/><path class="cls-2" d="M476.88,265.54h0l-41.58-69-19.6,39.34A71.91,71.91,0,0,0,359.51,348.7L340.91,386l77.73-6.35a71.92,71.92,0,0,0,58.24-114.15Z"/><circle class="cls-3" cx="329.27" cy="262.1" r="125"/><path class="cls-4" d="M418.75,197.24h0l-63.89-106-30.11,60.45A110.49,110.49,0,0,0,238.42,325l-28.58,57.37,119.43-9.76a110.51,110.51,0,0,0,89.48-175.39Z"/><circle class="cls-5" cx="191.62" cy="191.62" r="191.62" transform="translate(-79.37 191.62) rotate(-45)"/><circle class="cls-6" cx="191.62" cy="191.62" r="168.61" transform="translate(-79.37 191.62) rotate(-45)"/><path class="cls-7" d="M350.55,191.62S279.4,297.81,191.62,297.81,32.7,191.62,32.7,191.62,103.85,85.44,191.62,85.44,350.55,191.62,350.55,191.62Z"/><circle class="cls-8" cx="191.62" cy="191.62" r="56.61"/><circle class="cls-9" cx="191.62" cy="191.62" r="25.29" transform="translate(-39.05 333.85) rotate(-76.66)"/><circle class="cls-10" cx="218.74" cy="159.87" r="20.64" transform="translate(-44.67 96.46) rotate(-22.63)"/></g></g></svg>